<svg xmlns="http://www.w3.org/2000/svg" xmlns:xlink="http://www.w3.org/1999/xlink" width="1366" zoomAndPan="magnify" viewBox="0 0 1024.5 529.499989" height="706" preserveAspectRatio="xMidYMid meet" version="1.0"><defs><clipPath id="aad56c3ca9"><path d="M 365.945312 132.25 L 658 132.25 L 658 396.75 L 365.945312 396.75 Z M 365.945312 132.25 " clip-rule="nonzero"/></clipPath></defs><g clip-path="url(#aad56c3ca9)"><path fill="#000000" d="M 655.5 283.6875 L 649.042969 279.40625 L 648.835938 275.296875 L 654.710938 270.835938 C 656.492188 269.480469 657.183594 267.125 656.414062 265.027344 L 652.648438 254.75 C 651.878906 252.648438 649.832031 251.300781 647.597656 251.414062 L 640.230469 251.796875 L 637.734375 248.523438 L 639.898438 241.089844 C 640.507812 238.996094 639.71875 236.75 637.9375 235.496094 L 629.113281 229.292969 C 627.210938 227.957031 624.640625 228.078125 622.871094 229.589844 L 617.339844 234.316406 L 613.777344 233.21875 L 611.265625 225.75 C 610.566406 223.675781 608.617188 222.28125 606.433594 222.28125 C 606.394531 222.28125 606.355469 222.28125 606.316406 222.285156 L 595.804688 222.527344 C 593.480469 222.582031 591.488281 224.199219 590.960938 226.464844 L 589.238281 233.855469 L 585.960938 235.054688 L 579.871094 230.523438 C 578.007812 229.132812 575.4375 229.183594 573.628906 230.644531 L 565.445312 237.238281 C 563.707031 238.640625 563.082031 241.007812 563.90625 243.082031 L 566.808594 250.40625 L 564.796875 253.542969 L 557.519531 253.503906 C 557.511719 253.503906 557.5 253.503906 557.492188 253.503906 C 555.175781 253.503906 553.148438 255.066406 552.5625 257.308594 L 551.976562 259.542969 C 550.625 258.800781 549.253906 258.082031 547.875 257.390625 C 553.339844 251.25 557.726562 244.324219 560.933594 236.738281 C 564.859375 227.460938 566.851562 217.613281 566.851562 207.460938 C 566.851562 197.3125 564.859375 187.460938 560.933594 178.183594 C 557.144531 169.230469 551.722656 161.1875 544.8125 154.28125 C 537.90625 147.375 529.859375 141.953125 520.898438 138.167969 C 511.621094 134.242188 501.765625 132.253906 491.613281 132.253906 C 481.457031 132.253906 471.601562 134.242188 462.324219 138.167969 C 453.363281 141.953125 445.316406 147.375 438.410156 154.28125 C 431.503906 161.1875 426.078125 169.230469 422.289062 178.183594 C 418.363281 187.460938 416.375 197.3125 416.375 207.460938 C 416.375 217.613281 418.363281 227.460938 422.289062 236.738281 C 425.5 244.324219 429.886719 251.25 435.347656 257.390625 C 415.304688 267.433594 398.308594 282.640625 386.070312 301.53125 C 372.914062 321.839844 365.957031 345.421875 365.957031 369.722656 L 365.957031 390.210938 C 365.957031 393.824219 368.886719 396.75 372.5 396.75 L 610.726562 396.75 C 614.335938 396.75 617.265625 393.824219 617.265625 390.210938 L 617.265625 369.722656 C 617.265625 357.640625 615.554688 345.765625 612.222656 334.382812 C 614.292969 334.097656 616 332.570312 616.484375 330.5 L 618.207031 323.109375 L 621.484375 321.910156 L 627.570312 326.441406 C 629.4375 327.828125 632.003906 327.78125 633.816406 326.320312 L 642 319.726562 C 643.738281 318.324219 644.359375 315.957031 643.539062 313.882812 L 640.636719 306.558594 L 642.648438 303.421875 L 649.921875 303.460938 C 649.933594 303.460938 649.941406 303.460938 649.953125 303.460938 C 652.269531 303.460938 654.292969 301.898438 654.882812 299.65625 L 657.613281 289.226562 C 658.164062 287.117188 657.316406 284.890625 655.5 283.6875 Z M 447.660156 163.523438 C 459.398438 151.789062 475.007812 145.328125 491.609375 145.328125 C 508.214844 145.328125 523.824219 151.789062 535.5625 163.523438 C 547.300781 175.261719 553.765625 190.863281 553.765625 207.460938 C 553.765625 224.054688 547.300781 239.660156 535.5625 251.394531 C 523.820312 263.128906 508.214844 269.589844 491.609375 269.589844 C 475.007812 269.589844 459.398438 263.128906 447.660156 251.394531 C 435.917969 239.65625 429.453125 224.054688 429.453125 207.460938 C 429.453125 190.863281 435.917969 175.261719 447.660156 163.523438 Z M 604.183594 383.671875 L 379.039062 383.671875 L 379.039062 369.722656 C 379.039062 347.949219 385.265625 326.824219 397.050781 308.636719 C 408.535156 290.914062 424.683594 276.804688 443.753906 267.835938 C 444.351562 267.558594 444.882812 267.199219 445.347656 266.777344 C 450.535156 270.832031 456.214844 274.171875 462.324219 276.753906 C 471.601562 280.679688 481.457031 282.667969 491.609375 282.667969 C 501.765625 282.667969 511.617188 280.679688 520.898438 276.753906 C 526.902344 274.21875 532.492188 270.945312 537.605469 266.984375 C 546.800781 271.105469 555.40625 276.445312 563.214844 282.886719 C 571.578125 289.789062 578.894531 297.835938 584.960938 306.8125 C 597.535156 325.417969 604.183594 347.171875 604.183594 369.722656 Z M 589.703125 269.25 C 592.167969 265.503906 595.945312 262.945312 600.339844 262.042969 C 601.476562 261.808594 602.621094 261.695312 603.753906 261.695312 C 607.003906 261.695312 610.179688 262.640625 612.957031 264.46875 C 616.699219 266.933594 619.261719 270.707031 620.164062 275.097656 C 621.066406 279.488281 620.207031 283.96875 617.738281 287.710938 C 615.273438 291.453125 611.496094 294.015625 607.105469 294.917969 C 602.710938 295.820312 598.230469 294.957031 594.484375 292.492188 C 590.742188 290.027344 588.183594 286.25 587.277344 281.859375 C 586.375 277.46875 587.234375 272.992188 589.703125 269.25 Z M 646.023438 293.246094 L 639.898438 293.214844 C 639.886719 293.214844 639.878906 293.214844 639.871094 293.214844 C 638.132812 293.214844 636.515625 294.097656 635.578125 295.558594 L 630.644531 303.257812 C 629.757812 304.636719 629.59375 306.359375 630.195312 307.882812 L 632.679688 314.144531 L 630.492188 315.910156 L 625.363281 312.089844 C 623.984375 311.0625 622.179688 310.800781 620.566406 311.390625 L 612.113281 314.484375 C 610.5 315.074219 609.289062 316.441406 608.902344 318.113281 L 607.953125 322.179688 C 605.546875 316.304688 602.6875 310.601562 599.382812 305.109375 C 600.792969 305.339844 602.222656 305.457031 603.664062 305.457031 C 605.488281 305.457031 607.328125 305.273438 609.15625 304.898438 C 616.214844 303.445312 622.285156 299.332031 626.25 293.316406 C 634.433594 280.898438 630.984375 264.140625 618.5625 255.957031 C 612.542969 251.996094 605.34375 250.613281 598.285156 252.0625 C 591.222656 253.515625 585.152344 257.628906 581.1875 263.644531 C 578.453125 267.792969 576.949219 272.507812 576.753906 277.347656 C 575.058594 275.789062 573.320312 274.269531 571.539062 272.800781 C 568.179688 270.03125 564.683594 267.441406 561.070312 265.042969 L 561.417969 263.714844 L 567.542969 263.746094 C 567.550781 263.746094 567.5625 263.746094 567.570312 263.746094 C 569.304688 263.746094 570.925781 262.863281 571.863281 261.402344 L 576.796875 253.703125 C 577.683594 252.324219 577.847656 250.601562 577.242188 249.078125 L 574.761719 242.816406 L 576.949219 241.050781 L 582.078125 244.871094 C 583.457031 245.894531 585.261719 246.160156 586.875 245.570312 L 595.328125 242.476562 C 596.941406 241.886719 598.148438 240.519531 598.539062 238.847656 L 599.988281 232.621094 L 602.796875 232.554688 L 604.945312 238.941406 C 605.46875 240.492188 606.710938 241.699219 608.277344 242.183594 L 617.019531 244.878906 C 618.6875 245.390625 620.503906 245.015625 621.832031 243.882812 L 626.488281 239.902344 L 629.09375 241.738281 L 627.226562 248.144531 C 626.773438 249.699219 627.085938 251.375 628.066406 252.664062 L 633.757812 260.113281 C 634.78125 261.449219 636.394531 262.195312 638.074219 262.109375 L 644.371094 261.78125 L 645.546875 265 L 640.527344 268.8125 C 639.1875 269.828125 638.4375 271.441406 638.523438 273.121094 L 638.988281 282.484375 C 639.070312 284.101562 639.914062 285.582031 641.261719 286.476562 L 646.828125 290.167969 Z M 646.023438 293.246094 " fill-opacity="1" fill-rule="nonzero"/></g></svg>