<svg xmlns="http://www.w3.org/2000/svg" xmlns:xlink="http://www.w3.org/1999/xlink" width="1366" zoomAndPan="magnify" viewBox="0 0 1024.5 566.249966" height="755" preserveAspectRatio="xMidYMid meet" version="1.0"><defs><clipPath id="b14b58d8a9"><path d="M 376.226562 146.976562 L 648.117188 146.976562 L 648.117188 418.867188 L 376.226562 418.867188 Z M 376.226562 146.976562 " clip-rule="nonzero"/></clipPath></defs><g clip-path="url(#b14b58d8a9)"><path fill="#ffa726" d="M 512.171875 418.867188 C 587.050781 418.867188 648.117188 357.800781 648.117188 282.921875 C 648.117188 208.046875 587.050781 146.976562 512.171875 146.976562 C 437.296875 146.976562 376.226562 208.046875 376.226562 282.921875 C 376.226562 357.800781 437.296875 418.867188 512.171875 418.867188 " fill-opacity="1" fill-rule="evenodd"/></g><path fill="#c38326" d="M 509.339844 329.394531 L 493.355469 302.75 C 472.746094 309.730469 445.863281 311.636719 443.933594 339.378906 C 443.6875 342.894531 443.117188 351.675781 442.863281 360.261719 L 591.550781 360.261719 C 591.300781 351.675781 590.730469 342.894531 590.484375 339.378906 C 588.550781 311.636719 561.667969 309.730469 541.058594 302.75 L 525.074219 329.394531 L 509.339844 329.394531 " fill-opacity="1" fill-rule="evenodd"/><path fill="#c38326" d="M 547.066406 232.144531 L 546.511719 244.167969 C 551.257812 253.175781 546.402344 258.097656 543.910156 259.890625 C 542.722656 270.242188 536.796875 277.144531 529.300781 280.585938 C 525.632812 282.273438 521.609375 283.113281 517.601562 283.113281 C 513.597656 283.113281 509.570312 282.273438 505.902344 280.585938 C 498.410156 277.144531 492.480469 270.242188 491.296875 259.890625 C 488.804688 258.097656 483.945312 253.175781 488.695312 244.167969 L 488.140625 232.144531 L 488.238281 231.335938 C 490.429688 223.84375 495.496094 218.453125 501.804688 215.148438 C 506.902344 212.484375 512.808594 211.191406 518.636719 211.28125 C 524.492188 211.371094 530.292969 212.84375 535.152344 215.703125 C 540.867188 219.066406 545.28125 224.3125 546.996094 231.453125 L 547.066406 232.144531 " fill-opacity="1" fill-rule="evenodd"/><path fill="#c38326" d="M 517.050781 312.523438 C 530.195312 312.523438 540.851562 321.367188 540.851562 329.066406 C 540.851562 336.769531 535.835938 357.453125 528.445312 360.261719 L 505.65625 360.261719 C 498.265625 357.453125 493.253906 336.769531 493.253906 329.066406 C 493.253906 321.367188 503.910156 312.523438 517.050781 312.523438 " fill-opacity="1" fill-rule="evenodd"/><path fill="#c38326" d="M 517.367188 312.703125 L 508.390625 322.164062 L 511.066406 325.578125 L 504.164062 360.261719 L 523.019531 360.261719 L 529.027344 360 L 524.507812 325.589844 L 526.34375 322.164062 L 517.367188 312.703125 " fill-opacity="1" fill-rule="evenodd"/><path fill="#c38326" d="M 537.292969 273.460938 L 538.285156 293.808594 L 516.714844 315.421875 L 496.449219 293.277344 L 497.382812 273.398438 L 537.292969 273.460938 " fill-opacity="1" fill-rule="evenodd"/><path fill="#c38326" d="M 515.921875 312.699219 L 508.390625 322.164062 L 511.066406 325.578125 L 511.0625 325.589844 L 524.507812 325.589844 L 526.34375 322.164062 L 518.984375 312.699219 L 515.921875 312.699219 " fill-opacity="1" fill-rule="evenodd"/><path fill="#c38326" d="M 487.417969 302.75 L 496.503906 292.058594 L 517.367188 312.703125 L 501.410156 330.546875 L 487.417969 302.75 " fill-opacity="1" fill-rule="evenodd"/><path fill="#c38326" d="M 547.316406 302.75 L 538.230469 292.058594 L 517.367188 312.703125 L 533.324219 330.546875 L 547.316406 302.75 " fill-opacity="1" fill-rule="evenodd"/><path fill="#c38326" d="M 547.09375 247.605469 C 547.09375 247.605469 557.320312 262.582031 544.007812 268.761719 L 547.09375 247.605469 " fill-opacity="1" fill-rule="evenodd"/><path fill="#c38326" d="M 487.644531 247.605469 C 487.644531 247.605469 477.417969 262.582031 490.730469 268.761719 L 487.644531 247.605469 " fill-opacity="1" fill-rule="evenodd"/><path fill="#c38326" d="M 520.003906 219.109375 C 536.339844 219.109375 547.445312 231.929688 547.445312 253.796875 C 547.445312 268.039062 536.988281 297.257812 520.183594 297.257812 C 518.300781 297.257812 516.433594 297.257812 514.554688 297.257812 C 497.746094 297.257812 487.289062 268.039062 487.289062 253.796875 C 487.289062 231.929688 498.394531 219.109375 514.734375 219.109375 C 516.492188 219.109375 518.246094 219.109375 520.003906 219.109375 " fill-opacity="1" fill-rule="evenodd"/><path fill="#c38326" d="M 487.289062 253.789062 C 487.289062 253.789062 483.394531 227.101562 487.882812 224.738281 C 487.03125 219.921875 491.800781 215.605469 495.171875 214.316406 C 495.171875 214.316406 501.078125 207.347656 515.015625 205.929688 C 515.015625 205.929688 536.097656 201.910156 548.449219 221.28125 C 550.445312 224.414062 550.109375 223.710938 547.847656 226.601562 C 549.433594 234.964844 549.28125 246.136719 547.441406 254.347656 C 547.441406 254.347656 544.1875 233.566406 540.527344 230.851562 C 540.527344 230.851562 519.03125 242.425781 495.292969 228.84375 C 495.292969 228.84375 492.058594 231.226562 490.597656 237.066406 C 490.265625 238.375 490.054688 239.660156 489.832031 241.195312 C 489.1875 245.625 488.316406 249.359375 487.289062 253.789062 " fill-opacity="1" fill-rule="evenodd"/><path fill="#c38326" d="M 496.390625 360.261719 L 480.777344 330.589844 L 485.632812 322.21875 L 476.886719 319.488281 L 478.535156 306.597656 L 488.132812 302.75 L 488.574219 303.617188 L 517.207031 360.261719 L 496.390625 360.261719 " fill-opacity="1" fill-rule="evenodd"/><path fill="#c38326" d="M 538.023438 360.261719 L 553.636719 330.589844 L 548.78125 322.21875 L 557.527344 319.488281 L 555.878906 306.597656 L 546.285156 302.75 L 545.84375 303.617188 L 517.207031 360.261719 L 538.023438 360.261719 " fill-opacity="1" fill-rule="evenodd"/><path fill="#c38326" d="M 471.539062 341.714844 L 474.894531 360.261719 L 469.421875 360.261719 Z M 471.539062 341.714844 " fill-opacity="1" fill-rule="evenodd"/><path fill="#c38326" d="M 562.875 341.714844 L 559.519531 360.261719 L 564.996094 360.261719 Z M 562.875 341.714844 " fill-opacity="1" fill-rule="evenodd"/><path fill="#6b809b" d="M 504.304688 329.394531 L 488.320312 302.75 C 467.710938 309.730469 440.828125 311.636719 438.898438 339.378906 C 438.652344 342.894531 438.082031 351.675781 437.828125 360.261719 L 586.515625 360.261719 C 586.265625 351.675781 585.695312 342.894531 585.449219 339.378906 C 583.515625 311.636719 556.632812 309.730469 536.027344 302.75 L 520.039062 329.394531 L 504.304688 329.394531 " fill-opacity="1" fill-rule="evenodd"/><path fill="#000000" d="M 542.03125 232.144531 L 541.476562 244.167969 C 546.222656 253.175781 541.367188 258.097656 538.875 259.890625 C 537.6875 270.242188 531.761719 277.144531 524.265625 280.585938 C 520.597656 282.273438 516.574219 283.113281 512.566406 283.113281 C 508.5625 283.113281 504.535156 282.273438 500.867188 280.585938 C 493.375 277.144531 487.445312 270.242188 486.261719 259.890625 C 483.769531 258.097656 478.910156 253.175781 483.660156 244.167969 L 483.105469 232.144531 L 483.203125 231.335938 C 485.394531 223.84375 490.460938 218.453125 496.769531 215.148438 C 501.867188 212.484375 507.773438 211.191406 513.601562 211.28125 C 519.457031 211.371094 525.257812 212.84375 530.117188 215.703125 C 535.832031 219.066406 540.246094 224.3125 541.960938 231.453125 L 542.03125 232.144531 " fill-opacity="1" fill-rule="nonzero"/><path fill="#ffffff" d="M 512.015625 312.523438 C 525.164062 312.523438 535.816406 321.367188 535.816406 329.066406 C 535.816406 336.769531 530.800781 357.453125 523.410156 360.261719 L 500.621094 360.261719 C 493.230469 357.453125 488.21875 336.769531 488.21875 329.066406 C 488.21875 321.367188 498.875 312.523438 512.015625 312.523438 " fill-opacity="1" fill-rule="evenodd"/><path fill="#00bcd4" d="M 512.332031 312.703125 L 503.355469 322.164062 L 506.03125 325.578125 L 499.128906 360.261719 L 517.984375 360.261719 L 523.992188 360 L 519.472656 325.589844 L 521.308594 322.164062 L 512.332031 312.703125 " fill-opacity="1" fill-rule="evenodd"/><path fill="#d3aa96" d="M 532.257812 273.460938 L 533.25 293.808594 L 511.679688 315.421875 L 491.414062 293.277344 L 492.347656 273.398438 L 532.257812 273.460938 " fill-opacity="1" fill-rule="evenodd"/><path fill="#02abc1" d="M 510.886719 312.699219 L 503.355469 322.164062 L 506.03125 325.578125 L 506.027344 325.589844 L 519.472656 325.589844 L 521.308594 322.164062 L 513.949219 312.699219 L 510.886719 312.699219 " fill-opacity="1" fill-rule="evenodd"/><path fill="#e8e8e8" d="M 482.382812 302.75 L 491.46875 292.058594 L 512.332031 312.703125 L 496.375 330.546875 L 482.382812 302.75 " fill-opacity="1" fill-rule="evenodd"/><path fill="#e8e8e8" d="M 542.28125 302.75 L 533.195312 292.058594 L 512.332031 312.703125 L 528.292969 330.546875 L 542.28125 302.75 " fill-opacity="1" fill-rule="evenodd"/><path fill="#d3aa96" d="M 542.058594 247.605469 C 542.058594 247.605469 552.285156 262.582031 538.972656 268.761719 L 542.058594 247.605469 " fill-opacity="1" fill-rule="evenodd"/><path fill="#d3aa96" d="M 482.609375 247.605469 C 482.609375 247.605469 472.382812 262.582031 485.695312 268.761719 L 482.609375 247.605469 " fill-opacity="1" fill-rule="evenodd"/><path fill="#ffceb4" d="M 514.96875 219.109375 C 531.304688 219.109375 542.410156 231.929688 542.410156 253.796875 C 542.410156 268.039062 531.953125 297.257812 515.148438 297.257812 C 513.265625 297.257812 511.398438 297.257812 509.519531 297.257812 C 492.710938 297.257812 482.253906 268.039062 482.253906 253.796875 C 482.253906 231.929688 493.359375 219.109375 509.699219 219.109375 C 511.457031 219.109375 513.210938 219.109375 514.96875 219.109375 " fill-opacity="1" fill-rule="evenodd"/><path fill="#000000" d="M 482.253906 253.789062 C 482.253906 253.789062 478.359375 227.101562 482.847656 224.738281 C 481.996094 219.921875 486.765625 215.605469 490.136719 214.316406 C 490.136719 214.316406 496.042969 207.347656 509.980469 205.929688 C 509.980469 205.929688 531.0625 201.910156 543.414062 221.28125 C 545.410156 224.414062 545.074219 223.710938 542.8125 226.601562 C 544.398438 234.964844 544.246094 246.136719 542.40625 254.347656 C 542.40625 254.347656 539.152344 233.566406 535.492188 230.851562 C 535.492188 230.851562 513.996094 242.425781 490.257812 228.84375 C 490.257812 228.84375 487.023438 231.226562 485.5625 237.066406 C 485.230469 238.375 485.019531 239.660156 484.796875 241.195312 C 484.152344 245.625 483.28125 249.359375 482.253906 253.789062 " fill-opacity="1" fill-rule="evenodd"/><path fill="#4f6074" d="M 491.355469 360.261719 L 475.742188 330.589844 L 480.601562 322.21875 L 471.851562 319.488281 L 473.5 306.597656 L 483.097656 302.75 L 483.539062 303.617188 L 512.171875 360.261719 L 491.355469 360.261719 " fill-opacity="1" fill-rule="evenodd"/><path fill="#4f6074" d="M 532.988281 360.261719 L 548.601562 330.589844 L 543.746094 322.21875 L 552.492188 319.488281 L 550.84375 306.597656 L 541.25 302.75 L 540.808594 303.617188 L 512.171875 360.261719 L 532.988281 360.261719 " fill-opacity="1" fill-rule="evenodd"/><path fill="#4f6074" d="M 466.503906 341.714844 L 469.859375 360.261719 L 464.386719 360.261719 Z M 466.503906 341.714844 " fill-opacity="1" fill-rule="evenodd"/><path fill="#4f6074" d="M 557.839844 341.714844 L 554.484375 360.261719 L 559.960938 360.261719 Z M 557.839844 341.714844 " fill-opacity="1" fill-rule="evenodd"/></svg>