<svg xmlns="http://www.w3.org/2000/svg" xmlns:xlink="http://www.w3.org/1999/xlink" width="1366" zoomAndPan="magnify" viewBox="0 0 1024.5 566.249966" height="755" preserveAspectRatio="xMidYMid meet" version="1.0"><defs><filter x="0%" y="0%" width="100%" height="100%" id="bfcb093d61"><feColorMatrix values="0 0 0 0 1 0 0 0 0 1 0 0 0 0 1 0 0 0 1 0" color-interpolation-filters="sRGB"/></filter><mask id="fafabc6756"><g filter="url(#bfcb093d61)"><rect x="-102.45" width="1229.4" fill="#000000" y="-56.624997" height="679.499959" fill-opacity="0.3"/></g></mask><clipPath id="96b4c3d918"><path d="M 0.246094 26.269531 L 347.785156 26.269531 L 347.785156 81.757812 L 0.246094 81.757812 Z M 0.246094 26.269531 " clip-rule="nonzero"/></clipPath><clipPath id="c1ced9f642"><path d="M 0.246094 81.058594 L 347.785156 81.058594 L 347.785156 268.605469 L 0.246094 268.605469 Z M 0.246094 81.058594 " clip-rule="nonzero"/></clipPath><clipPath id="8223e6c226"><path d="M 47 0.242188 L 63 0.242188 L 63 55 L 47 55 Z M 47 0.242188 " clip-rule="nonzero"/></clipPath><clipPath id="7baf601d10"><path d="M 285 0.242188 L 300 0.242188 L 300 55 L 285 55 Z M 285 0.242188 " clip-rule="nonzero"/></clipPath><clipPath id="75a09eab78"><path d="M 111 191 L 319 191 L 319 351.527344 L 111 351.527344 Z M 111 191 " clip-rule="nonzero"/></clipPath><clipPath id="848890922c"><rect x="0" width="348" y="0" height="352"/></clipPath></defs><g mask="url(#fafabc6756)"><g transform="matrix(1, 0, 0, 1, 338, 107)"><g clip-path="url(#848890922c)"><g clip-path="url(#96b4c3d918)"><path fill="#7491ea" d="M 347.792969 81.203125 L 347.792969 39.410156 C 347.792969 32.371094 342.089844 26.664062 335.054688 26.664062 L 12.988281 26.664062 C 5.949219 26.664062 0.246094 32.371094 0.246094 39.410156 L 0.246094 81.203125 L 347.792969 81.203125 " fill-opacity="1" fill-rule="nonzero"/></g><path fill="#ffffff" d="M 12.988281 266.78125 C 6.742188 266.78125 1.660156 261.695312 1.660156 255.445312 L 1.660156 82.617188 L 346.382812 82.617188 L 346.382812 255.445312 C 346.382812 261.695312 341.300781 266.78125 335.054688 266.78125 L 12.988281 266.78125 " fill-opacity="1" fill-rule="nonzero"/><g clip-path="url(#c1ced9f642)"><path fill="#7491ea" d="M 347.792969 81.203125 L 0.246094 81.203125 L 0.246094 255.445312 C 0.246094 262.484375 5.949219 268.191406 12.988281 268.191406 L 335.054688 268.191406 C 342.089844 268.191406 347.792969 262.484375 347.792969 255.445312 Z M 344.964844 84.03125 L 344.964844 255.445312 C 344.964844 260.917969 340.519531 265.367188 335.054688 265.367188 L 12.988281 265.367188 C 7.523438 265.367188 3.074219 260.917969 3.074219 255.445312 L 3.074219 84.03125 L 344.964844 84.03125 " fill-opacity="1" fill-rule="nonzero"/></g><path fill="#e3efff" d="M 54.929688 44.644531 C 52.738281 44.644531 50.957031 46.429688 50.957031 48.621094 C 50.957031 50.8125 52.738281 52.59375 54.929688 52.59375 C 57.117188 52.59375 58.898438 50.8125 58.898438 48.621094 C 58.898438 46.429688 57.117188 44.644531 54.929688 44.644531 Z M 54.929688 61.644531 C 47.75 61.644531 41.914062 55.804688 41.914062 48.621094 C 41.914062 41.4375 47.75 35.59375 54.929688 35.59375 C 62.105469 35.59375 67.941406 41.4375 67.941406 48.621094 C 67.941406 55.804688 62.105469 61.644531 54.929688 61.644531 " fill-opacity="1" fill-rule="nonzero"/><path fill="#e3efff" d="M 292.40625 44.644531 C 290.214844 44.644531 288.433594 46.429688 288.433594 48.621094 C 288.433594 50.8125 290.214844 52.59375 292.40625 52.59375 C 294.59375 52.59375 296.378906 50.8125 296.378906 48.621094 C 296.378906 46.429688 294.59375 44.644531 292.40625 44.644531 Z M 292.40625 61.644531 C 285.230469 61.644531 279.390625 55.804688 279.390625 48.621094 C 279.390625 41.4375 285.230469 35.59375 292.40625 35.59375 C 299.582031 35.59375 305.421875 41.4375 305.421875 48.621094 C 305.421875 55.804688 299.582031 61.644531 292.40625 61.644531 " fill-opacity="1" fill-rule="nonzero"/><g clip-path="url(#8223e6c226)"><path fill="#7491ea" d="M 55.015625 54.992188 C 51.058594 54.992188 47.847656 51.78125 47.847656 47.824219 L 47.847656 4.804688 C 47.847656 2.304688 49.875 0.277344 52.371094 0.277344 L 57.660156 0.277344 C 60.15625 0.277344 62.179688 2.304688 62.179688 4.804688 L 62.179688 47.824219 C 62.179688 51.78125 58.972656 54.992188 55.015625 54.992188 " fill-opacity="1" fill-rule="nonzero"/></g><g clip-path="url(#7baf601d10)"><path fill="#7491ea" d="M 292.316406 54.992188 C 288.359375 54.992188 285.148438 51.78125 285.148438 47.824219 L 285.148438 4.804688 C 285.148438 2.304688 287.175781 0.277344 289.671875 0.277344 L 294.964844 0.277344 C 297.457031 0.277344 299.484375 2.304688 299.484375 4.804688 L 299.484375 47.824219 C 299.484375 51.78125 296.277344 54.992188 292.316406 54.992188 " fill-opacity="1" fill-rule="nonzero"/></g><path fill="#7491ea" d="M 72.800781 139.460938 L 27.675781 139.460938 C 22.691406 139.460938 18.652344 135.414062 18.652344 130.429688 L 18.652344 108.648438 C 18.652344 103.660156 22.691406 99.621094 27.675781 99.621094 L 72.800781 99.621094 C 77.785156 99.621094 81.824219 103.660156 81.824219 108.648438 L 81.824219 130.429688 C 81.824219 135.414062 77.785156 139.460938 72.800781 139.460938 " fill-opacity="1" fill-rule="nonzero"/><path fill="#7491ea" d="M 154.554688 139.460938 L 109.429688 139.460938 C 104.445312 139.460938 100.40625 135.414062 100.40625 130.429688 L 100.40625 108.648438 C 100.40625 103.660156 104.445312 99.621094 109.429688 99.621094 L 154.554688 99.621094 C 159.539062 99.621094 163.578125 103.660156 163.578125 108.648438 L 163.578125 130.429688 C 163.578125 135.414062 159.539062 139.460938 154.554688 139.460938 " fill-opacity="1" fill-rule="nonzero"/><path fill="#7491ea" d="M 236.308594 139.460938 L 191.183594 139.460938 C 186.199219 139.460938 182.160156 135.414062 182.160156 130.429688 L 182.160156 108.648438 C 182.160156 103.660156 186.199219 99.621094 191.183594 99.621094 L 236.308594 99.621094 C 241.292969 99.621094 245.335938 103.660156 245.335938 108.648438 L 245.335938 130.429688 C 245.335938 135.414062 241.292969 139.460938 236.308594 139.460938 " fill-opacity="1" fill-rule="nonzero"/><path fill="#e3efff" d="M 318.066406 139.460938 L 272.9375 139.460938 C 267.957031 139.460938 263.914062 135.414062 263.914062 130.429688 L 263.914062 108.648438 C 263.914062 103.660156 267.957031 99.621094 272.9375 99.621094 L 318.066406 99.621094 C 323.050781 99.621094 327.089844 103.660156 327.089844 108.648438 L 327.089844 130.429688 C 327.089844 135.414062 323.050781 139.460938 318.066406 139.460938 " fill-opacity="1" fill-rule="nonzero"/><path fill="#e3efff" d="M 72.800781 194.175781 L 27.675781 194.175781 C 22.691406 194.175781 18.652344 190.132812 18.652344 185.144531 L 18.652344 163.363281 C 18.652344 158.378906 22.691406 154.335938 27.675781 154.335938 L 72.800781 154.335938 C 77.785156 154.335938 81.824219 158.378906 81.824219 163.363281 L 81.824219 185.144531 C 81.824219 190.132812 77.785156 194.175781 72.800781 194.175781 " fill-opacity="1" fill-rule="nonzero"/><path fill="#e3efff" d="M 154.554688 194.175781 L 109.429688 194.175781 C 104.445312 194.175781 100.40625 190.132812 100.40625 185.144531 L 100.40625 163.363281 C 100.40625 158.378906 104.445312 154.335938 109.429688 154.335938 L 154.554688 154.335938 C 159.539062 154.335938 163.578125 158.378906 163.578125 163.363281 L 163.578125 185.144531 C 163.578125 190.132812 159.539062 194.175781 154.554688 194.175781 " fill-opacity="1" fill-rule="nonzero"/><path fill="#e3efff" d="M 236.308594 194.175781 L 191.183594 194.175781 C 186.199219 194.175781 182.160156 190.132812 182.160156 185.144531 L 182.160156 163.363281 C 182.160156 158.378906 186.199219 154.335938 191.183594 154.335938 L 236.308594 154.335938 C 241.292969 154.335938 245.335938 158.378906 245.335938 163.363281 L 245.335938 185.144531 C 245.335938 190.132812 241.292969 194.175781 236.308594 194.175781 " fill-opacity="1" fill-rule="nonzero"/><path fill="#e3efff" d="M 318.066406 194.175781 L 272.9375 194.175781 C 267.957031 194.175781 263.914062 190.132812 263.914062 185.144531 L 263.914062 163.363281 C 263.914062 158.378906 267.957031 154.335938 272.9375 154.335938 L 318.066406 154.335938 C 323.050781 154.335938 327.089844 158.378906 327.089844 163.363281 L 327.089844 185.144531 C 327.089844 190.132812 323.050781 194.175781 318.066406 194.175781 " fill-opacity="1" fill-rule="nonzero"/><path fill="#e3efff" d="M 72.800781 248.894531 L 27.675781 248.894531 C 22.691406 248.894531 18.652344 244.851562 18.652344 239.863281 L 18.652344 218.082031 C 18.652344 213.09375 22.691406 209.050781 27.675781 209.050781 L 72.800781 209.050781 C 77.785156 209.050781 81.824219 213.09375 81.824219 218.082031 L 81.824219 239.863281 C 81.824219 244.851562 77.785156 248.894531 72.800781 248.894531 " fill-opacity="1" fill-rule="nonzero"/><path fill="#e3efff" d="M 154.554688 248.894531 L 109.429688 248.894531 C 104.445312 248.894531 100.40625 244.851562 100.40625 239.863281 L 100.40625 218.082031 C 100.40625 213.09375 104.445312 209.050781 109.429688 209.050781 L 154.554688 209.050781 C 159.539062 209.050781 163.578125 213.09375 163.578125 218.082031 L 163.578125 239.863281 C 163.578125 244.851562 159.539062 248.894531 154.554688 248.894531 " fill-opacity="1" fill-rule="nonzero"/><path fill="#e3efff" d="M 236.308594 248.894531 L 191.183594 248.894531 C 186.199219 248.894531 182.160156 244.851562 182.160156 239.863281 L 182.160156 218.082031 C 182.160156 213.09375 186.199219 209.050781 191.183594 209.050781 L 236.308594 209.050781 C 241.292969 209.050781 245.335938 213.09375 245.335938 218.082031 L 245.335938 239.863281 C 245.335938 244.851562 241.292969 248.894531 236.308594 248.894531 " fill-opacity="1" fill-rule="nonzero"/><path fill="#e3efff" d="M 318.066406 248.894531 L 272.9375 248.894531 C 267.957031 248.894531 263.914062 244.851562 263.914062 239.863281 L 263.914062 218.082031 C 263.914062 213.09375 267.957031 209.050781 272.9375 209.050781 L 318.066406 209.050781 C 323.050781 209.050781 327.089844 213.09375 327.089844 218.082031 L 327.089844 239.863281 C 327.089844 244.851562 323.050781 248.894531 318.066406 248.894531 " fill-opacity="1" fill-rule="nonzero"/><path fill="#ffffff" d="M 63.726562 119.367188 C 63.726562 126.996094 57.546875 133.179688 49.925781 133.179688 C 42.300781 133.179688 36.121094 126.996094 36.121094 119.367188 C 36.121094 111.738281 42.300781 105.554688 49.925781 105.554688 C 57.546875 105.554688 63.726562 111.738281 63.726562 119.367188 " fill-opacity="1" fill-rule="nonzero"/><path fill="#ffffff" d="M 228.652344 119.367188 C 228.652344 126.996094 222.472656 133.179688 214.847656 133.179688 C 207.226562 133.179688 201.046875 126.996094 201.046875 119.367188 C 201.046875 111.738281 207.226562 105.554688 214.847656 105.554688 C 222.472656 105.554688 228.652344 111.738281 228.652344 119.367188 " fill-opacity="1" fill-rule="nonzero"/><path fill="#ffffff" d="M 146.1875 119.367188 C 146.1875 126.996094 140.007812 133.179688 132.386719 133.179688 C 124.761719 133.179688 118.582031 126.996094 118.582031 119.367188 C 118.582031 111.738281 124.761719 105.554688 132.386719 105.554688 C 140.007812 105.554688 146.1875 111.738281 146.1875 119.367188 " fill-opacity="1" fill-rule="nonzero"/><path fill="#7491ea" d="M 55.339844 111.332031 L 56.84375 111.332031 C 57.066406 111.332031 57.21875 111.5625 57.128906 111.769531 L 50.640625 126.945312 C 50.589844 127.0625 50.476562 127.132812 50.351562 127.132812 L 48.46875 127.132812 C 48.351562 127.132812 48.25 127.070312 48.195312 126.96875 L 42.804688 117.058594 C 42.695312 116.851562 42.84375 116.597656 43.082031 116.597656 L 44.558594 116.597656 C 44.667969 116.597656 44.773438 116.65625 44.828125 116.75 L 49.109375 124.019531 C 49.238281 124.238281 49.5625 124.21875 49.664062 123.984375 L 55.054688 111.523438 C 55.105469 111.40625 55.214844 111.332031 55.339844 111.332031 " fill-opacity="1" fill-rule="nonzero"/><path fill="#7491ea" d="M 137.449219 111.332031 L 138.953125 111.332031 C 139.175781 111.332031 139.328125 111.5625 139.238281 111.769531 L 132.75 126.945312 C 132.699219 127.0625 132.585938 127.132812 132.460938 127.132812 L 130.574219 127.132812 C 130.464844 127.132812 130.355469 127.070312 130.304688 126.96875 L 124.917969 117.058594 C 124.800781 116.851562 124.953125 116.597656 125.191406 116.597656 L 126.667969 116.597656 C 126.777344 116.597656 126.878906 116.65625 126.9375 116.75 L 131.21875 124.019531 C 131.347656 124.238281 131.671875 124.21875 131.773438 123.984375 L 137.164062 111.523438 C 137.210938 111.40625 137.324219 111.332031 137.449219 111.332031 " fill-opacity="1" fill-rule="nonzero"/><path fill="#7491ea" d="M 214.859375 126.945312 C 214.808594 127.0625 214.695312 127.132812 214.570312 127.132812 L 212.6875 127.132812 C 212.570312 127.132812 212.464844 127.070312 212.410156 126.96875 L 207.023438 117.058594 C 206.910156 116.851562 207.0625 116.597656 207.296875 116.597656 L 208.777344 116.597656 C 208.886719 116.597656 208.988281 116.65625 209.042969 116.75 L 213.328125 124.019531 C 213.457031 124.238281 213.78125 124.21875 213.882812 123.984375 L 219.273438 111.523438 C 219.320312 111.40625 219.433594 111.332031 219.558594 111.332031 L 221.058594 111.332031 C 221.285156 111.332031 221.4375 111.5625 221.347656 111.769531 " fill-opacity="1" fill-rule="nonzero"/><path fill="#7491ea" d="M 149.046875 349.792969 C 143.714844 349.792969 139.046875 346.195312 137.699219 341.042969 L 113.648438 249.207031 C 112.855469 246.1875 113.292969 243.03125 114.878906 240.320312 C 116.460938 237.609375 118.992188 235.679688 122.007812 234.890625 L 277.699219 194.0625 C 278.667969 193.808594 279.660156 193.679688 280.65625 193.679688 C 285.988281 193.679688 290.652344 197.277344 292.003906 202.429688 L 316.054688 294.269531 C 316.84375 297.289062 316.410156 300.445312 314.824219 303.15625 C 313.242188 305.863281 310.707031 307.792969 307.691406 308.585938 L 152.003906 349.410156 C 151.035156 349.667969 150.042969 349.792969 149.046875 349.792969 " fill-opacity="1" fill-rule="nonzero"/><g clip-path="url(#75a09eab78)"><path fill="#ffffff" d="M 280.65625 191.984375 C 279.515625 191.984375 278.375 192.132812 277.269531 192.421875 L 121.582031 233.246094 C 114.425781 235.125 110.132812 242.476562 112.007812 249.632812 L 136.058594 341.472656 C 137.605469 347.371094 142.945312 351.492188 149.046875 351.492188 C 150.1875 351.492188 151.328125 351.347656 152.433594 351.050781 L 308.121094 310.226562 C 315.277344 308.347656 319.570312 301 317.695312 293.839844 L 293.644531 202 C 292.097656 196.105469 286.757812 191.984375 280.65625 191.984375 Z M 280.652344 195.378906 C 285.101562 195.378906 289.183594 198.371094 290.363281 202.863281 L 314.414062 294.703125 C 315.8125 300.035156 312.589844 305.546875 307.261719 306.945312 L 151.574219 347.769531 C 150.730469 347.992188 149.882812 348.097656 149.046875 348.097656 C 144.605469 348.097656 140.515625 345.101562 139.339844 340.613281 L 115.285156 248.773438 C 113.890625 243.4375 117.109375 237.929688 122.441406 236.53125 L 278.125 195.703125 C 278.972656 195.484375 279.820312 195.378906 280.652344 195.378906 " fill-opacity="1" fill-rule="nonzero"/></g><path fill="#ffffff" d="M 311.238281 282.566406 L 136.160156 328.476562 L 130.886719 308.347656 L 305.964844 262.4375 L 311.238281 282.566406 " fill-opacity="1" fill-rule="nonzero"/><path fill="#ffffff" d="M 283.070312 229.984375 C 264.058594 229.984375 248.585938 214.503906 248.585938 195.480469 C 248.585938 176.449219 264.058594 160.96875 283.070312 160.96875 C 302.085938 160.96875 317.554688 176.449219 317.554688 195.480469 C 317.554688 214.503906 302.085938 229.984375 283.070312 229.984375 " fill-opacity="1" fill-rule="nonzero"/><path fill="#7491ea" d="M 283.070312 159.554688 C 263.246094 159.554688 247.175781 175.636719 247.175781 195.480469 C 247.175781 215.316406 263.246094 231.398438 283.070312 231.398438 C 302.894531 231.398438 318.96875 215.316406 318.96875 195.480469 C 318.96875 175.636719 302.894531 159.554688 283.070312 159.554688 Z M 283.070312 162.386719 C 301.308594 162.386719 316.140625 177.230469 316.140625 195.480469 C 316.140625 213.726562 301.308594 228.570312 283.070312 228.570312 C 264.835938 228.570312 250.003906 213.726562 250.003906 195.480469 C 250.003906 177.230469 264.835938 162.386719 283.070312 162.386719 " fill-opacity="1" fill-rule="nonzero"/><path fill="#7491ea" d="M 301.4375 185.960938 C 301.097656 185.347656 300.316406 185.132812 299.71875 185.5 L 297.933594 186.582031 C 297.371094 186.925781 297.183594 187.652344 297.5 188.234375 C 298.820312 190.660156 299.535156 193.460938 299.449219 196.429688 C 299.203125 204.882812 292.386719 211.777344 283.941406 212.105469 C 274.730469 212.464844 267.128906 205.078125 267.128906 195.945312 C 267.128906 187.144531 274.1875 179.96875 282.9375 179.777344 L 282.9375 182.65625 C 282.9375 183.246094 283.574219 183.617188 284.085938 183.320312 L 288.449219 180.800781 L 292.808594 178.28125 C 293.320312 177.984375 293.320312 177.246094 292.808594 176.953125 L 284.085938 171.910156 C 283.574219 171.617188 282.9375 171.984375 282.9375 172.574219 L 282.9375 175.226562 C 271.632812 175.417969 262.503906 184.71875 262.585938 196.097656 C 262.664062 207.371094 271.863281 216.582031 283.132812 216.667969 C 294.625 216.757812 304.003906 207.425781 304.003906 195.945312 C 304.003906 192.328125 303.070312 188.925781 301.4375 185.960938 " fill-opacity="1" fill-rule="nonzero"/><path fill="#7491ea" d="M 289.367188 197.480469 C 289.984375 199.808594 288.585938 201.65625 286.226562 202.617188 L 286.996094 205.503906 L 284.769531 206.097656 L 284 203.207031 C 282.101562 203.484375 280.152344 203.171875 278.582031 202.425781 L 279.140625 199.601562 C 280.863281 200.46875 283.054688 200.742188 284.488281 200.355469 C 285.746094 200.023438 286.378906 199.355469 286.160156 198.523438 C 285.476562 195.960938 278.644531 199.378906 277.367188 194.570312 C 276.800781 192.4375 278.003906 190.558594 280.371094 189.554688 L 279.636719 186.800781 L 281.867188 186.207031 L 282.59375 188.941406 C 284.1875 188.683594 285.800781 188.816406 287.097656 189.257812 L 286.589844 192.113281 C 284.929688 191.644531 283.082031 191.554688 281.996094 191.84375 C 280.96875 192.113281 280.371094 192.667969 280.566406 193.40625 C 281.226562 195.910156 288.089844 192.589844 289.367188 197.480469 " fill-opacity="1" fill-rule="nonzero"/></g></g></g></svg>