<svg xmlns="http://www.w3.org/2000/svg" xmlns:xlink="http://www.w3.org/1999/xlink" width="1366" zoomAndPan="magnify" viewBox="0 0 1024.5 566.249966" height="755" preserveAspectRatio="xMidYMid meet" version="1.0"><defs><filter x="0%" y="0%" width="100%" height="100%" id="4520af13d6"><feColorMatrix values="0 0 0 0 1 0 0 0 0 1 0 0 0 0 1 0 0 0 1 0" color-interpolation-filters="sRGB"/></filter><mask id="329ed755f1"><g filter="url(#4520af13d6)"><rect x="-102.45" width="1229.4" fill="#000000" y="-56.624997" height="679.499959" fill-opacity="0.3"/></g></mask><clipPath id="2457136cbb"><path d="M 4 4 L 153.132812 4 L 153.132812 152.882812 L 4 152.882812 Z M 4 4 " clip-rule="nonzero"/></clipPath><clipPath id="1769f13da8"><path d="M 1.082031 0.832031 L 150 0.832031 L 150 150 L 1.082031 150 Z M 1.082031 0.832031 " clip-rule="nonzero"/></clipPath><clipPath id="962a9f7668"><path d="M 1.082031 0.832031 L 153.132812 0.832031 L 153.132812 152.882812 L 1.082031 152.882812 Z M 1.082031 0.832031 " clip-rule="nonzero"/></clipPath><clipPath id="f18171515d"><rect x="0" width="154" y="0" height="154"/></clipPath></defs><g mask="url(#329ed755f1)"><g transform="matrix(1, 0, 0, 1, 435, 206)"><g clip-path="url(#f18171515d)"><g clip-path="url(#2457136cbb)"><path fill="#000000" d="M 153.132812 78.546875 C 153.132812 79.761719 153.101562 80.980469 153.042969 82.195312 C 152.980469 83.410156 152.890625 84.621094 152.773438 85.832031 C 152.652344 87.042969 152.503906 88.25 152.328125 89.453125 C 152.148438 90.65625 151.941406 91.855469 151.703125 93.046875 C 151.464844 94.242188 151.199219 95.429688 150.902344 96.609375 C 150.609375 97.789062 150.285156 98.960938 149.929688 100.125 C 149.578125 101.289062 149.195312 102.445312 148.785156 103.589844 C 148.375 104.734375 147.9375 105.867188 147.472656 106.992188 C 147.007812 108.117188 146.515625 109.230469 145.992188 110.328125 C 145.472656 111.429688 144.925781 112.515625 144.355469 113.585938 C 143.78125 114.660156 143.179688 115.71875 142.554688 116.761719 C 141.929688 117.804688 141.277344 118.832031 140.601562 119.84375 C 139.925781 120.855469 139.226562 121.851562 138.503906 122.828125 C 137.777344 123.804688 137.03125 124.761719 136.257812 125.703125 C 135.484375 126.644531 134.691406 127.566406 133.875 128.464844 C 133.058594 129.367188 132.21875 130.25 131.359375 131.109375 C 130.5 131.96875 129.617188 132.808594 128.714844 133.625 C 127.816406 134.441406 126.894531 135.234375 125.953125 136.007812 C 125.011719 136.78125 124.054688 137.527344 123.078125 138.253906 C 122.101562 138.976562 121.105469 139.675781 120.09375 140.351562 C 119.082031 141.027344 118.054688 141.679688 117.011719 142.304688 C 115.96875 142.929688 114.910156 143.53125 113.835938 144.105469 C 112.765625 144.675781 111.679688 145.222656 110.578125 145.742188 C 109.480469 146.265625 108.367188 146.757812 107.242188 147.222656 C 106.117188 147.6875 104.984375 148.125 103.839844 148.535156 C 102.691406 148.945312 101.539062 149.328125 100.375 149.679688 C 99.210938 150.035156 98.039062 150.359375 96.859375 150.652344 C 95.679688 150.949219 94.492188 151.214844 93.296875 151.453125 C 92.105469 151.691406 90.90625 151.898438 89.703125 152.078125 C 88.5 152.253906 87.292969 152.402344 86.082031 152.523438 C 84.871094 152.640625 83.660156 152.730469 82.445312 152.792969 C 81.226562 152.851562 80.011719 152.882812 78.796875 152.882812 C 77.578125 152.882812 76.363281 152.851562 75.148438 152.792969 C 73.933594 152.730469 72.71875 152.640625 71.511719 152.523438 C 70.300781 152.402344 69.09375 152.253906 67.890625 152.078125 C 66.683594 151.898438 65.488281 151.691406 64.292969 151.453125 C 63.101562 151.214844 61.914062 150.949219 60.734375 150.652344 C 59.554688 150.359375 58.382812 150.035156 57.21875 149.679688 C 56.054688 149.328125 54.898438 148.945312 53.753906 148.535156 C 52.609375 148.125 51.472656 147.6875 50.347656 147.222656 C 49.226562 146.757812 48.113281 146.265625 47.015625 145.742188 C 45.914062 145.222656 44.828125 144.675781 43.753906 144.105469 C 42.683594 143.53125 41.625 142.929688 40.582031 142.304688 C 39.535156 141.679688 38.507812 141.027344 37.496094 140.351562 C 36.484375 139.675781 35.492188 138.976562 34.515625 138.253906 C 33.539062 137.527344 32.578125 136.78125 31.636719 136.007812 C 30.699219 135.234375 29.777344 134.441406 28.875 133.625 C 27.972656 132.808594 27.09375 131.96875 26.234375 131.109375 C 25.375 130.25 24.535156 129.367188 23.71875 128.464844 C 22.902344 127.566406 22.105469 126.644531 21.335938 125.703125 C 20.5625 124.761719 19.8125 123.804688 19.089844 122.828125 C 18.363281 121.851562 17.664062 120.855469 16.988281 119.84375 C 16.3125 118.832031 15.664062 117.804688 15.035156 116.761719 C 14.410156 115.71875 13.8125 114.660156 13.238281 113.585938 C 12.664062 112.515625 12.117188 111.429688 11.597656 110.328125 C 11.078125 109.230469 10.585938 108.117188 10.121094 106.992188 C 9.652344 105.867188 9.214844 104.734375 8.804688 103.589844 C 8.398438 102.445312 8.015625 101.289062 7.660156 100.125 C 7.308594 98.960938 6.984375 97.789062 6.6875 96.609375 C 6.394531 95.429688 6.125 94.242188 5.890625 93.046875 C 5.652344 91.855469 5.445312 90.65625 5.265625 89.453125 C 5.085938 88.25 4.9375 87.042969 4.820312 85.832031 C 4.699219 84.621094 4.609375 83.410156 4.550781 82.195312 C 4.492188 80.980469 4.460938 79.761719 4.460938 78.546875 C 4.460938 77.328125 4.492188 76.113281 4.550781 74.898438 C 4.609375 73.683594 4.699219 72.472656 4.820312 71.261719 C 4.9375 70.050781 5.085938 68.84375 5.265625 67.640625 C 5.445312 66.4375 5.652344 65.238281 5.890625 64.042969 C 6.125 62.851562 6.394531 61.664062 6.6875 60.484375 C 6.984375 59.304688 7.308594 58.132812 7.660156 56.96875 C 8.015625 55.804688 8.398438 54.648438 8.804688 53.503906 C 9.214844 52.359375 9.652344 51.222656 10.121094 50.097656 C 10.585938 48.976562 11.078125 47.863281 11.597656 46.765625 C 12.117188 45.664062 12.664062 44.578125 13.238281 43.503906 C 13.8125 42.433594 14.410156 41.375 15.035156 40.332031 C 15.664062 39.285156 16.3125 38.257812 16.988281 37.246094 C 17.664062 36.238281 18.363281 35.242188 19.089844 34.265625 C 19.8125 33.289062 20.5625 32.328125 21.335938 31.386719 C 22.105469 30.449219 22.902344 29.527344 23.71875 28.625 C 24.535156 27.722656 25.375 26.84375 26.234375 25.984375 C 27.09375 25.125 27.972656 24.285156 28.875 23.46875 C 29.777344 22.652344 30.699219 21.855469 31.636719 21.085938 C 32.578125 20.3125 33.539062 19.566406 34.515625 18.839844 C 35.492188 18.113281 36.484375 17.414062 37.496094 16.738281 C 38.507812 16.0625 39.535156 15.414062 40.582031 14.785156 C 41.625 14.160156 42.683594 13.5625 43.753906 12.988281 C 44.828125 12.414062 45.914062 11.867188 47.015625 11.347656 C 48.113281 10.828125 49.226562 10.335938 50.347656 9.871094 C 51.472656 9.402344 52.609375 8.964844 53.753906 8.558594 C 54.898438 8.148438 56.054688 7.765625 57.21875 7.414062 C 58.382812 7.058594 59.554688 6.734375 60.734375 6.4375 C 61.914062 6.144531 63.101562 5.878906 64.292969 5.640625 C 65.488281 5.402344 66.683594 5.195312 67.890625 5.015625 C 69.09375 4.835938 70.300781 4.6875 71.511719 4.570312 C 72.71875 4.449219 73.933594 4.359375 75.148438 4.300781 C 76.363281 4.242188 77.578125 4.210938 78.796875 4.210938 C 80.011719 4.210938 81.226562 4.242188 82.445312 4.300781 C 83.660156 4.359375 84.871094 4.449219 86.082031 4.570312 C 87.292969 4.6875 88.5 4.835938 89.703125 5.015625 C 90.90625 5.195312 92.105469 5.402344 93.296875 5.640625 C 94.492188 5.878906 95.679688 6.144531 96.859375 6.4375 C 98.039062 6.734375 99.210938 7.058594 100.375 7.414062 C 101.539062 7.765625 102.691406 8.148438 103.839844 8.558594 C 104.984375 8.964844 106.117188 9.402344 107.242188 9.871094 C 108.367188 10.335938 109.480469 10.828125 110.578125 11.347656 C 111.679688 11.867188 112.765625 12.414062 113.835938 12.988281 C 114.910156 13.5625 115.96875 14.160156 117.011719 14.785156 C 118.054688 15.414062 119.082031 16.0625 120.09375 16.738281 C 121.105469 17.414062 122.101562 18.113281 123.078125 18.839844 C 124.054688 19.566406 125.011719 20.3125 125.953125 21.085938 C 126.894531 21.855469 127.816406 22.652344 128.714844 23.46875 C 129.617188 24.285156 130.5 25.125 131.359375 25.984375 C 132.21875 26.84375 133.058594 27.722656 133.875 28.625 C 134.691406 29.527344 135.484375 30.449219 136.257812 31.386719 C 137.03125 32.328125 137.777344 33.289062 138.503906 34.265625 C 139.226562 35.242188 139.925781 36.238281 140.601562 37.246094 C 141.277344 38.257812 141.929688 39.285156 142.554688 40.332031 C 143.179688 41.375 143.78125 42.433594 144.355469 43.503906 C 144.925781 44.578125 145.472656 45.664062 145.992188 46.765625 C 146.515625 47.863281 147.007812 48.976562 147.472656 50.097656 C 147.9375 51.222656 148.375 52.359375 148.785156 53.503906 C 149.195312 54.648438 149.578125 55.804688 149.929688 56.96875 C 150.285156 58.132812 150.609375 59.304688 150.902344 60.484375 C 151.199219 61.664062 151.464844 62.851562 151.703125 64.042969 C 151.941406 65.238281 152.148438 66.4375 152.328125 67.640625 C 152.503906 68.84375 152.652344 70.050781 152.773438 71.261719 C 152.890625 72.472656 152.980469 73.683594 153.042969 74.898438 C 153.101562 76.113281 153.132812 77.328125 153.132812 78.546875 Z M 153.132812 78.546875 " fill-opacity="0.35" fill-rule="nonzero"/></g><g clip-path="url(#1769f13da8)"><path fill="#f2f2f2" d="M 149.753906 75.167969 C 149.753906 76.382812 149.722656 77.601562 149.664062 78.816406 C 149.601562 80.03125 149.511719 81.242188 149.394531 82.453125 C 149.273438 83.664062 149.125 84.871094 148.949219 86.074219 C 148.769531 87.277344 148.5625 88.476562 148.324219 89.667969 C 148.085938 90.863281 147.820312 92.050781 147.523438 93.230469 C 147.230469 94.410156 146.90625 95.582031 146.550781 96.746094 C 146.199219 97.910156 145.816406 99.066406 145.40625 100.210938 C 144.996094 101.355469 144.558594 102.488281 144.09375 103.613281 C 143.628906 104.738281 143.136719 105.851562 142.613281 106.949219 C 142.09375 108.050781 141.546875 109.136719 140.976562 110.207031 C 140.402344 111.28125 139.800781 112.339844 139.175781 113.382812 C 138.550781 114.425781 137.898438 115.453125 137.222656 116.464844 C 136.546875 117.476562 135.847656 118.472656 135.125 119.449219 C 134.398438 120.425781 133.652344 121.382812 132.878906 122.324219 C 132.105469 123.265625 131.3125 124.1875 130.496094 125.085938 C 129.679688 125.988281 128.839844 126.871094 127.980469 127.730469 C 127.121094 128.589844 126.238281 129.429688 125.335938 130.246094 C 124.4375 131.0625 123.515625 131.855469 122.574219 132.628906 C 121.632812 133.402344 120.675781 134.148438 119.699219 134.875 C 118.722656 135.597656 117.726562 136.296875 116.714844 136.972656 C 115.703125 137.652344 114.675781 138.300781 113.632812 138.925781 C 112.589844 139.550781 111.53125 140.152344 110.457031 140.726562 C 109.386719 141.296875 108.300781 141.84375 107.199219 142.367188 C 106.101562 142.886719 104.988281 143.378906 103.863281 143.84375 C 102.738281 144.308594 101.605469 144.746094 100.460938 145.15625 C 99.3125 145.566406 98.160156 145.949219 96.996094 146.300781 C 95.832031 146.65625 94.660156 146.980469 93.480469 147.273438 C 92.300781 147.570312 91.113281 147.835938 89.917969 148.074219 C 88.726562 148.3125 87.527344 148.519531 86.324219 148.699219 C 85.121094 148.875 83.914062 149.023438 82.703125 149.144531 C 81.492188 149.261719 80.28125 149.351562 79.066406 149.414062 C 77.847656 149.472656 76.632812 149.503906 75.417969 149.503906 C 74.199219 149.503906 72.984375 149.472656 71.769531 149.414062 C 70.554688 149.351562 69.34375 149.261719 68.132812 149.144531 C 66.921875 149.023438 65.714844 148.875 64.511719 148.699219 C 63.308594 148.519531 62.109375 148.3125 60.914062 148.074219 C 59.722656 147.835938 58.535156 147.570312 57.355469 147.273438 C 56.175781 146.980469 55.003906 146.65625 53.839844 146.300781 C 52.675781 145.949219 51.519531 145.566406 50.375 145.15625 C 49.230469 144.746094 48.09375 144.308594 46.96875 143.84375 C 45.847656 143.378906 44.734375 142.886719 43.636719 142.367188 C 42.535156 141.84375 41.449219 141.296875 40.375 140.726562 C 39.304688 140.152344 38.246094 139.550781 37.203125 138.925781 C 36.15625 138.300781 35.128906 137.652344 34.117188 136.972656 C 33.109375 136.296875 32.113281 135.597656 31.136719 134.875 C 30.160156 134.148438 29.199219 133.402344 28.257812 132.628906 C 27.320312 131.855469 26.398438 131.0625 25.496094 130.246094 C 24.59375 129.429688 23.714844 128.589844 22.855469 127.730469 C 21.996094 126.871094 21.15625 125.988281 20.339844 125.085938 C 19.523438 124.1875 18.726562 123.265625 17.957031 122.324219 C 17.183594 121.382812 16.4375 120.425781 15.710938 119.449219 C 14.984375 118.472656 14.285156 117.476562 13.609375 116.464844 C 12.933594 115.453125 12.285156 114.425781 11.65625 113.382812 C 11.03125 112.339844 10.433594 111.28125 9.859375 110.207031 C 9.285156 109.136719 8.738281 108.050781 8.21875 106.949219 C 7.699219 105.851562 7.207031 104.738281 6.742188 103.613281 C 6.273438 102.488281 5.835938 101.355469 5.425781 100.210938 C 5.019531 99.066406 4.636719 97.910156 4.28125 96.746094 C 3.929688 95.582031 3.605469 94.410156 3.308594 93.230469 C 3.015625 92.050781 2.746094 90.863281 2.511719 89.667969 C 2.273438 88.476562 2.066406 87.277344 1.886719 86.074219 C 1.707031 84.871094 1.558594 83.664062 1.441406 82.453125 C 1.320312 81.242188 1.230469 80.03125 1.171875 78.816406 C 1.113281 77.601562 1.082031 76.382812 1.082031 75.167969 C 1.082031 73.949219 1.113281 72.734375 1.171875 71.519531 C 1.230469 70.304688 1.320312 69.09375 1.441406 67.882812 C 1.558594 66.671875 1.707031 65.464844 1.886719 64.261719 C 2.066406 63.058594 2.273438 61.859375 2.511719 60.664062 C 2.746094 59.472656 3.015625 58.285156 3.308594 57.105469 C 3.605469 55.925781 3.929688 54.753906 4.28125 53.589844 C 4.636719 52.425781 5.019531 51.269531 5.425781 50.125 C 5.835938 48.980469 6.273438 47.84375 6.742188 46.71875 C 7.207031 45.597656 7.699219 44.484375 8.21875 43.386719 C 8.738281 42.285156 9.285156 41.199219 9.859375 40.125 C 10.433594 39.054688 11.03125 37.996094 11.65625 36.953125 C 12.285156 35.90625 12.933594 34.878906 13.609375 33.867188 C 14.285156 32.859375 14.984375 31.863281 15.710938 30.886719 C 16.4375 29.910156 17.183594 28.949219 17.957031 28.011719 C 18.726562 27.070312 19.523438 26.148438 20.339844 25.246094 C 21.15625 24.34375 21.996094 23.464844 22.855469 22.605469 C 23.714844 21.746094 24.59375 20.90625 25.496094 20.089844 C 26.398438 19.273438 27.320312 18.476562 28.257812 17.707031 C 29.199219 16.933594 30.160156 16.1875 31.136719 15.460938 C 32.113281 14.738281 33.109375 14.035156 34.117188 13.359375 C 35.128906 12.683594 36.15625 12.035156 37.203125 11.410156 C 38.246094 10.78125 39.304688 10.183594 40.375 9.609375 C 41.449219 9.035156 42.535156 8.488281 43.636719 7.96875 C 44.734375 7.449219 45.847656 6.957031 46.96875 6.492188 C 48.09375 6.023438 49.230469 5.585938 50.375 5.179688 C 51.519531 4.769531 52.675781 4.386719 53.839844 4.035156 C 55.003906 3.679688 56.175781 3.355469 57.355469 3.058594 C 58.535156 2.765625 59.722656 2.5 60.914062 2.261719 C 62.109375 2.023438 63.308594 1.816406 64.511719 1.636719 C 65.714844 1.457031 66.921875 1.308594 68.132812 1.191406 C 69.34375 1.070312 70.554688 0.980469 71.769531 0.921875 C 72.984375 0.863281 74.199219 0.832031 75.417969 0.832031 C 76.632812 0.832031 77.847656 0.863281 79.066406 0.921875 C 80.28125 0.980469 81.492188 1.070312 82.703125 1.191406 C 83.914062 1.308594 85.121094 1.457031 86.324219 1.636719 C 87.527344 1.816406 88.726562 2.023438 89.917969 2.261719 C 91.113281 2.5 92.300781 2.765625 93.480469 3.058594 C 94.660156 3.355469 95.832031 3.679688 96.996094 4.035156 C 98.160156 4.386719 99.3125 4.769531 100.460938 5.179688 C 101.605469 5.585938 102.738281 6.023438 103.863281 6.492188 C 104.988281 6.957031 106.101562 7.449219 107.199219 7.96875 C 108.300781 8.488281 109.386719 9.035156 110.457031 9.609375 C 111.53125 10.183594 112.589844 10.78125 113.632812 11.410156 C 114.675781 12.035156 115.703125 12.683594 116.714844 13.359375 C 117.726562 14.035156 118.722656 14.734375 119.699219 15.460938 C 120.675781 16.1875 121.632812 16.933594 122.574219 17.707031 C 123.515625 18.476562 124.4375 19.273438 125.335938 20.089844 C 126.238281 20.90625 127.121094 21.746094 127.980469 22.605469 C 128.839844 23.464844 129.679688 24.34375 130.496094 25.246094 C 131.3125 26.148438 132.105469 27.070312 132.878906 28.011719 C 133.652344 28.949219 134.398438 29.910156 135.125 30.886719 C 135.847656 31.863281 136.546875 32.859375 137.222656 33.867188 C 137.898438 34.878906 138.550781 35.90625 139.175781 36.953125 C 139.800781 37.996094 140.402344 39.054688 140.976562 40.125 C 141.546875 41.199219 142.09375 42.285156 142.613281 43.386719 C 143.136719 44.484375 143.628906 45.597656 144.09375 46.71875 C 144.558594 47.84375 144.996094 48.980469 145.40625 50.125 C 145.816406 51.269531 146.199219 52.425781 146.550781 53.589844 C 146.90625 54.753906 147.230469 55.925781 147.523438 57.105469 C 147.820312 58.285156 148.085938 59.472656 148.324219 60.664062 C 148.5625 61.859375 148.769531 63.058594 148.949219 64.261719 C 149.125 65.464844 149.273438 66.671875 149.394531 67.882812 C 149.511719 69.09375 149.601562 70.304688 149.664062 71.519531 C 149.722656 72.734375 149.753906 73.949219 149.753906 75.167969 Z M 149.753906 75.167969 " fill-opacity="1" fill-rule="nonzero"/></g><path fill="#f2f2f2" d="M 75.417969 144.433594 C 37.222656 144.433594 6.152344 113.359375 6.152344 75.167969 C 6.152344 36.972656 37.222656 5.902344 75.417969 5.902344 C 113.609375 5.902344 144.683594 36.972656 144.683594 75.167969 C 144.683594 113.359375 113.609375 144.433594 75.417969 144.433594 Z M 75.417969 144.433594 " fill-opacity="1" fill-rule="nonzero"/><path fill="#d9eeff" d="M 139.703125 75.210938 C 139.703125 76.261719 139.675781 77.3125 139.625 78.363281 C 139.574219 79.414062 139.496094 80.460938 139.394531 81.507812 C 139.289062 82.554688 139.164062 83.597656 139.007812 84.636719 C 138.855469 85.675781 138.675781 86.714844 138.46875 87.746094 C 138.265625 88.777344 138.035156 89.800781 137.777344 90.820312 C 137.523438 91.839844 137.242188 92.855469 136.9375 93.859375 C 136.632812 94.867188 136.300781 95.863281 135.949219 96.855469 C 135.59375 97.84375 135.214844 98.824219 134.8125 99.796875 C 134.410156 100.765625 133.984375 101.726562 133.535156 102.679688 C 133.085938 103.628906 132.613281 104.566406 132.117188 105.496094 C 131.621094 106.421875 131.105469 107.335938 130.5625 108.238281 C 130.023438 109.140625 129.460938 110.027344 128.875 110.902344 C 128.292969 111.777344 127.6875 112.636719 127.0625 113.480469 C 126.433594 114.324219 125.789062 115.152344 125.121094 115.964844 C 124.453125 116.777344 123.765625 117.574219 123.0625 118.355469 C 122.355469 119.132812 121.628906 119.894531 120.886719 120.636719 C 120.144531 121.378906 119.382812 122.105469 118.605469 122.8125 C 117.824219 123.519531 117.027344 124.203125 116.214844 124.871094 C 115.402344 125.539062 114.574219 126.183594 113.730469 126.8125 C 112.886719 127.4375 112.027344 128.042969 111.152344 128.625 C 110.277344 129.210938 109.390625 129.773438 108.488281 130.3125 C 107.585938 130.855469 106.671875 131.371094 105.746094 131.867188 C 104.816406 132.363281 103.878906 132.835938 102.929688 133.285156 C 101.976562 133.734375 101.015625 134.160156 100.046875 134.5625 C 99.074219 134.964844 98.09375 135.34375 97.105469 135.699219 C 96.113281 136.050781 95.117188 136.382812 94.109375 136.6875 C 93.105469 136.992188 92.089844 137.273438 91.070312 137.527344 C 90.050781 137.785156 89.023438 138.015625 87.996094 138.21875 C 86.964844 138.425781 85.925781 138.605469 84.886719 138.757812 C 83.847656 138.914062 82.804688 139.042969 81.757812 139.144531 C 80.710938 139.246094 79.664062 139.324219 78.613281 139.375 C 77.5625 139.425781 76.511719 139.453125 75.460938 139.453125 C 74.410156 139.453125 73.359375 139.425781 72.308594 139.375 C 71.257812 139.324219 70.210938 139.246094 69.164062 139.144531 C 68.117188 139.042969 67.074219 138.914062 66.035156 138.757812 C 64.996094 138.605469 63.960938 138.425781 62.929688 138.21875 C 61.898438 138.015625 60.871094 137.785156 59.851562 137.527344 C 58.832031 137.273438 57.820312 136.992188 56.8125 136.6875 C 55.804688 136.382812 54.808594 136.050781 53.820312 135.699219 C 52.828125 135.34375 51.847656 134.964844 50.875 134.5625 C 49.90625 134.160156 48.945312 133.734375 47.992188 133.285156 C 47.042969 132.835938 46.105469 132.363281 45.175781 131.867188 C 44.25 131.371094 43.335938 130.855469 42.433594 130.3125 C 41.53125 129.773438 40.644531 129.210938 39.769531 128.625 C 38.894531 128.042969 38.035156 127.4375 37.191406 126.8125 C 36.347656 126.183594 35.519531 125.539062 34.707031 124.871094 C 33.894531 124.203125 33.097656 123.519531 32.320312 122.8125 C 31.539062 122.105469 30.777344 121.378906 30.035156 120.636719 C 29.292969 119.894531 28.566406 119.132812 27.859375 118.355469 C 27.15625 117.574219 26.46875 116.777344 25.800781 115.964844 C 25.132812 115.152344 24.488281 114.324219 23.859375 113.480469 C 23.234375 112.636719 22.628906 111.777344 22.046875 110.902344 C 21.460938 110.027344 20.898438 109.140625 20.359375 108.238281 C 19.816406 107.335938 19.300781 106.421875 18.804688 105.496094 C 18.308594 104.566406 17.835938 103.628906 17.386719 102.679688 C 16.9375 101.726562 16.511719 100.765625 16.109375 99.796875 C 15.707031 98.824219 15.328125 97.84375 14.972656 96.855469 C 14.621094 95.863281 14.289062 94.867188 13.984375 93.859375 C 13.679688 92.855469 13.398438 91.839844 13.144531 90.820312 C 12.890625 89.800781 12.660156 88.777344 12.453125 87.746094 C 12.25 86.714844 12.070312 85.675781 11.914062 84.636719 C 11.761719 83.597656 11.632812 82.554688 11.527344 81.507812 C 11.425781 80.460938 11.347656 79.414062 11.296875 78.363281 C 11.246094 77.3125 11.21875 76.261719 11.21875 75.210938 C 11.21875 74.160156 11.246094 73.109375 11.296875 72.058594 C 11.347656 71.007812 11.425781 69.960938 11.527344 68.914062 C 11.632812 67.867188 11.761719 66.824219 11.914062 65.785156 C 12.070312 64.746094 12.25 63.710938 12.453125 62.679688 C 12.660156 61.648438 12.890625 60.621094 13.144531 59.601562 C 13.398438 58.582031 13.679688 57.570312 13.984375 56.5625 C 14.289062 55.554688 14.621094 54.558594 14.972656 53.570312 C 15.328125 52.578125 15.707031 51.597656 16.109375 50.625 C 16.511719 49.65625 16.9375 48.695312 17.386719 47.746094 C 17.835938 46.792969 18.308594 45.855469 18.804688 44.925781 C 19.300781 44 19.816406 43.085938 20.359375 42.183594 C 20.898438 41.28125 21.460938 40.394531 22.046875 39.519531 C 22.628906 38.644531 23.234375 37.785156 23.859375 36.941406 C 24.488281 36.097656 25.132812 35.269531 25.800781 34.457031 C 26.46875 33.644531 27.15625 32.847656 27.859375 32.070312 C 28.566406 31.289062 29.292969 30.527344 30.035156 29.785156 C 30.777344 29.042969 31.539062 28.316406 32.320312 27.609375 C 33.097656 26.90625 33.894531 26.21875 34.707031 25.550781 C 35.519531 24.882812 36.347656 24.238281 37.191406 23.613281 C 38.035156 22.984375 38.894531 22.378906 39.769531 21.796875 C 40.644531 21.210938 41.53125 20.648438 42.433594 20.109375 C 43.335938 19.570312 44.25 19.050781 45.175781 18.554688 C 46.105469 18.058594 47.042969 17.585938 47.992188 17.136719 C 48.945312 16.6875 49.90625 16.261719 50.875 15.859375 C 51.847656 15.457031 52.828125 15.078125 53.820312 14.722656 C 54.808594 14.371094 55.804688 14.039062 56.8125 13.734375 C 57.820312 13.429688 58.832031 13.148438 59.851562 12.894531 C 60.871094 12.640625 61.898438 12.410156 62.929688 12.203125 C 63.960938 12 64.996094 11.820312 66.035156 11.664062 C 67.074219 11.511719 68.117188 11.382812 69.164062 11.277344 C 70.210938 11.175781 71.257812 11.097656 72.308594 11.046875 C 73.359375 10.996094 74.410156 10.96875 75.460938 10.96875 C 76.511719 10.96875 77.5625 10.996094 78.613281 11.046875 C 79.664062 11.097656 80.710938 11.175781 81.757812 11.277344 C 82.804688 11.382812 83.847656 11.511719 84.886719 11.664062 C 85.925781 11.820312 86.964844 12 87.996094 12.203125 C 89.023438 12.410156 90.050781 12.640625 91.070312 12.894531 C 92.089844 13.148438 93.105469 13.429688 94.109375 13.734375 C 95.117188 14.039062 96.113281 14.371094 97.105469 14.722656 C 98.09375 15.078125 99.074219 15.457031 100.046875 15.859375 C 101.015625 16.261719 101.976562 16.6875 102.929688 17.136719 C 103.878906 17.585938 104.816406 18.058594 105.746094 18.554688 C 106.671875 19.050781 107.585938 19.570312 108.488281 20.109375 C 109.390625 20.648438 110.277344 21.210938 111.152344 21.796875 C 112.027344 22.378906 112.886719 22.984375 113.730469 23.613281 C 114.574219 24.238281 115.402344 24.882812 116.214844 25.550781 C 117.027344 26.21875 117.824219 26.90625 118.605469 27.609375 C 119.382812 28.316406 120.144531 29.042969 120.886719 29.785156 C 121.628906 30.527344 122.355469 31.289062 123.0625 32.070312 C 123.765625 32.847656 124.453125 33.644531 125.121094 34.457031 C 125.789062 35.269531 126.433594 36.097656 127.0625 36.941406 C 127.6875 37.785156 128.292969 38.644531 128.875 39.519531 C 129.460938 40.394531 130.023438 41.28125 130.5625 42.183594 C 131.105469 43.085938 131.621094 44 132.117188 44.925781 C 132.613281 45.855469 133.085938 46.792969 133.535156 47.746094 C 133.984375 48.695312 134.410156 49.65625 134.8125 50.625 C 135.214844 51.597656 135.59375 52.578125 135.949219 53.570312 C 136.300781 54.558594 136.632812 55.554688 136.9375 56.5625 C 137.242188 57.570312 137.523438 58.582031 137.777344 59.601562 C 138.035156 60.621094 138.265625 61.648438 138.46875 62.679688 C 138.675781 63.710938 138.855469 64.746094 139.007812 65.785156 C 139.164062 66.824219 139.289062 67.867188 139.394531 68.914062 C 139.496094 69.960938 139.574219 71.007812 139.625 72.058594 C 139.675781 73.109375 139.703125 74.160156 139.703125 75.210938 Z M 139.703125 75.210938 " fill-opacity="1" fill-rule="nonzero"/><path fill="#ffc7a3" d="M 113.5625 117.746094 C 113.554688 117.679688 113.542969 117.613281 113.539062 117.546875 C 113.503906 117.207031 113.460938 116.871094 113.402344 116.535156 C 113.398438 116.496094 113.390625 116.457031 113.378906 116.417969 C 113.316406 116.054688 113.234375 115.691406 113.140625 115.335938 C 113.140625 115.328125 113.136719 115.316406 113.132812 115.308594 C 111.949219 110.839844 108.640625 107.40625 104.136719 105.808594 L 87.242188 99.652344 L 87.242188 92.023438 C 87.242188 92.023438 92.3125 86.992188 92.65625 78.546875 C 92.660156 78.554688 92.667969 78.5625 92.671875 78.570312 C 93.644531 80.589844 96.210938 80.933594 98.175781 78.746094 C 100.390625 76.277344 101.90625 70.792969 99.648438 67.910156 C 98.1875 66.046875 95.613281 66.535156 95.167969 68.199219 C 95.835938 64.695312 95.527344 62.4375 95.527344 59.621094 C 95.527344 46.804688 86.832031 39.058594 75.417969 39.058594 C 64.003906 39.058594 55.308594 46.804688 55.308594 59.621094 C 55.308594 62.441406 54.894531 64.703125 55.5625 68.207031 C 55.117188 66.542969 52.730469 66.046875 51.269531 67.910156 C 49.011719 70.792969 50.304688 76.40625 52.65625 78.746094 C 54.84375 80.925781 57.15625 80.578125 58.132812 78.558594 C 58.136719 78.550781 58.140625 78.542969 58.148438 78.535156 C 58.523438 86.992188 63.589844 92.0625 63.589844 92.0625 L 63.582031 99.613281 L 46.695312 105.53125 C 42.191406 107.128906 38.882812 110.839844 37.699219 115.308594 C 37.699219 115.316406 37.695312 115.328125 37.695312 115.335938 C 37.601562 115.691406 37.519531 116.054688 37.453125 116.417969 C 37.449219 116.457031 37.4375 116.496094 37.429688 116.535156 C 37.371094 116.871094 37.328125 117.207031 37.296875 117.546875 C 37.289062 117.613281 37.277344 117.679688 37.273438 117.746094 C 37.238281 118.144531 37.222656 118.945312 37.222656 118.945312 L 113.617188 118.945312 C 113.613281 118.542969 113.59375 118.140625 113.5625 117.746094 Z M 113.5625 117.746094 " fill-opacity="1" fill-rule="nonzero"/><path fill="#40396e" d="M 93.214844 57.128906 C 91.078125 62.015625 93.449219 67.515625 93.449219 67.515625 L 95.457031 65.652344 L 95.875 57.128906 C 95.875 57.128906 93.65625 56.117188 93.214844 57.128906 Z M 93.214844 57.128906 " fill-opacity="1" fill-rule="nonzero"/><path fill="#40396e" d="M 57.605469 57.128906 C 59.738281 62.015625 57.445312 67.378906 57.445312 67.378906 L 55.363281 65.652344 L 54.941406 57.128906 C 54.941406 57.128906 57.164062 56.117188 57.605469 57.128906 Z M 57.605469 57.128906 " fill-opacity="1" fill-rule="nonzero"/><path fill="#40396e" d="M 75.417969 95.441406 C 82.175781 95.441406 87.242188 92.0625 87.242188 92.0625 C 87.242188 92.0625 83.863281 100.507812 75.417969 100.507812 C 66.96875 100.507812 63.589844 92.0625 63.589844 92.0625 C 63.589844 92.0625 68.660156 95.441406 75.417969 95.441406 Z M 75.417969 95.441406 " fill-opacity="0.35" fill-rule="nonzero"/><path fill="#40396e" d="M 94.871094 68.417969 C 94.773438 68.417969 94.675781 68.40625 94.574219 68.386719 C 93.722656 68.226562 93.164062 67.402344 93.328125 66.550781 C 93.933594 63.367188 94.261719 61.527344 94.261719 58.742188 C 94.261719 47.5625 86.335938 39.449219 75.417969 39.449219 C 74.550781 39.449219 73.847656 38.746094 73.847656 37.875 C 73.847656 37.007812 74.550781 36.304688 75.417969 36.304688 C 88.15625 36.304688 97.402344 45.742188 97.402344 58.742188 C 97.402344 61.773438 97.054688 63.765625 96.410156 67.136719 C 96.269531 67.890625 95.609375 68.417969 94.871094 68.417969 Z M 94.871094 68.417969 " fill-opacity="1" fill-rule="nonzero"/><path fill="#40396e" d="M 55.964844 68.425781 C 55.222656 68.425781 54.566406 67.902344 54.421875 67.148438 C 53.777344 63.773438 53.429688 61.773438 53.429688 58.742188 C 53.429688 45.742188 62.675781 36.308594 75.417969 36.308594 C 76.285156 36.308594 76.988281 37.011719 76.988281 37.878906 C 76.988281 38.746094 76.285156 39.449219 75.417969 39.449219 C 64.5 39.449219 56.570312 47.5625 56.570312 58.746094 C 56.570312 61.527344 56.902344 63.375 57.507812 66.5625 C 57.667969 67.414062 57.109375 68.234375 56.257812 68.398438 C 56.160156 68.417969 56.0625 68.425781 55.964844 68.425781 Z M 55.964844 68.425781 " fill-opacity="1" fill-rule="nonzero"/><path fill="#40396e" d="M 54.371094 66.882812 C 54.371094 66.882812 56.628906 60.167969 58.796875 59.628906 C 58.796875 59.628906 85.300781 58.007812 87.421875 44.503906 C 89.707031 29.96875 71.703125 32.707031 66.609375 34.070312 C 62.144531 35.261719 45.394531 44.433594 54.371094 66.882812 Z M 54.371094 66.882812 " fill-opacity="1" fill-rule="nonzero"/><path fill="#40396e" d="M 85.242188 46.921875 C 85.242188 46.921875 84.867188 50.785156 92.0625 59.621094 L 96.460938 66.863281 C 96.460938 66.863281 106.78125 42.839844 86.472656 37.847656 Z M 85.242188 46.921875 " fill-opacity="1" fill-rule="nonzero"/><path fill="#707cc0" d="M 113.5625 117.746094 C 113.554688 117.679688 113.542969 117.613281 113.539062 117.546875 C 113.503906 117.207031 113.460938 116.871094 113.402344 116.535156 C 113.398438 116.496094 113.390625 116.457031 113.378906 116.417969 C 113.316406 116.054688 113.234375 115.691406 113.140625 115.335938 C 113.140625 115.328125 113.136719 115.316406 113.132812 115.308594 C 111.949219 110.839844 108.640625 107.40625 104.136719 105.808594 L 91.238281 101.316406 C 88.851562 107.746094 82.675781 112.335938 75.417969 112.335938 C 68.121094 112.335938 61.921875 107.699219 59.558594 101.21875 L 46.695312 105.53125 C 42.191406 107.128906 38.882812 110.839844 37.699219 115.308594 C 37.699219 115.316406 37.695312 115.328125 37.691406 115.335938 C 37.597656 115.691406 37.519531 116.054688 37.453125 116.417969 C 37.445312 116.457031 37.433594 116.496094 37.429688 116.535156 C 37.371094 116.871094 37.328125 117.207031 37.296875 117.546875 C 37.289062 117.613281 37.277344 117.679688 37.273438 117.746094 C 37.238281 118.140625 36.558594 127.539062 36.558594 127.539062 L 56.832031 137.675781 L 75.460938 139.457031 L 95.691406 137.675781 L 114.273438 127.539062 L 113.613281 118.945312 C 113.613281 118.542969 113.59375 118.140625 113.5625 117.746094 Z M 113.5625 117.746094 " fill-opacity="1" fill-rule="nonzero"/><g clip-path="url(#962a9f7668)"><path stroke-linecap="butt" transform="matrix(1.689429, 0, 0, 1.689429, -9.054228, -9.30409)" fill="none" stroke-linejoin="miter" d="M 87.49925 50.000364 C 87.49925 50.61309 87.485377 51.228128 87.455319 51.840853 C 87.425261 52.453579 87.379017 53.063992 87.318901 53.676718 C 87.258784 54.287131 87.184795 54.895232 87.09462 55.503333 C 87.004446 56.109122 86.898086 56.714912 86.780165 57.316076 C 86.659932 57.917241 86.525826 58.516093 86.375535 59.112634 C 86.227556 59.706862 86.063392 60.298778 85.885354 60.88607 C 85.707317 61.473361 85.515407 62.056029 85.307311 62.634072 C 85.101528 63.212115 84.87956 63.783221 84.64603 64.349703 C 84.410189 64.918498 84.162786 65.478043 83.899199 66.032964 C 83.637923 66.587886 83.360463 67.13587 83.071441 67.676919 C 82.78242 68.217967 82.479525 68.752079 82.16507 69.279254 C 81.848302 69.804117 81.519974 70.324356 81.180084 70.833033 C 80.840195 71.344023 80.486433 71.845765 80.12111 72.338257 C 79.755786 72.83075 79.37659 73.316306 78.988145 73.790301 C 78.599701 74.264297 78.197383 74.729043 77.785816 75.184541 C 77.374249 75.637727 76.951122 76.081664 76.516434 76.516352 C 76.081745 76.95104 75.637808 77.374168 75.18231 77.785734 C 74.729125 78.197301 74.264378 78.599619 73.790383 78.988064 C 73.316388 79.376509 72.830832 79.755705 72.338339 80.121028 C 71.845846 80.486351 71.344105 80.840114 70.833115 81.180003 C 70.324437 81.522204 69.804198 81.84822 69.279335 82.164988 C 68.75216 82.479443 68.218049 82.782338 67.677 83.071359 C 67.135952 83.360381 66.587967 83.637842 66.033046 83.899117 C 65.478125 84.162705 64.918579 84.410107 64.349785 84.645949 C 63.783303 84.879478 63.212196 85.101446 62.634153 85.30723 C 62.05611 85.515325 61.473443 85.707235 60.886151 85.885273 C 60.29886 86.06331 59.706944 86.227474 59.112715 86.375453 C 58.516175 86.525744 57.917323 86.65985 57.316158 86.780083 C 56.714993 86.900316 56.109204 87.004364 55.503415 87.094539 C 54.895314 87.184713 54.287213 87.258703 53.676799 87.318819 C 53.064074 87.378936 52.45366 87.425179 51.840935 87.455237 C 51.228209 87.485296 50.613171 87.499169 50.000446 87.499169 C 49.385408 87.499169 48.772683 87.485296 48.159957 87.455237 C 47.547231 87.425179 46.934506 87.378936 46.324092 87.318819 C 45.713679 87.258703 45.105578 87.184713 44.497477 87.094539 C 43.889375 87.004364 43.285899 86.900316 42.684734 86.780083 C 42.081257 86.65985 41.482404 86.525744 40.888176 86.375453 C 40.293948 86.227474 39.702032 86.06331 39.11474 85.885273 C 38.527449 85.707235 37.944781 85.515325 37.366738 85.30723 C 36.788695 85.101446 36.215277 84.879478 35.648795 84.645949 C 35.082313 84.410107 34.520455 84.162705 33.965534 83.899117 C 33.412924 83.637842 32.86494 83.360381 32.321579 83.071359 C 31.780531 82.782338 31.246419 82.479443 30.721556 82.164988 C 30.194381 81.84822 29.676455 81.522204 29.165465 81.180003 C 28.656787 80.840114 28.155045 80.486351 27.660241 80.121028 C 27.167748 79.755705 26.684504 79.376509 26.210509 78.988064 C 25.736514 78.599619 25.271767 78.197301 24.816269 77.785734 C 24.360771 77.374168 23.916834 76.95104 23.484458 76.516352 C 23.04977 76.081664 22.626642 75.637727 22.215076 75.184541 C 21.801197 74.729043 21.401191 74.264297 21.012746 73.790301 C 20.621989 73.316306 20.245105 72.83075 19.879782 72.338257 C 19.514459 71.845765 19.160697 71.344023 18.820807 70.833033 C 18.478606 70.324356 18.150277 69.804117 17.835822 69.279254 C 17.519055 68.752079 17.21616 68.217967 16.927139 67.676919 C 16.638117 67.13587 16.362969 66.587886 16.099381 66.032964 C 15.838106 65.478043 15.588391 64.918498 15.354862 64.349703 C 15.11902 63.783221 14.899364 63.212115 14.691268 62.634072 C 14.485485 62.056029 14.293575 61.473361 14.115537 60.88607 C 13.9375 60.298778 13.773336 59.706862 13.623045 59.112634 C 13.475066 58.516093 13.34096 57.917241 13.220727 57.316076 C 13.100494 56.714912 12.996446 56.109122 12.906272 55.503333 C 12.816097 54.895232 12.739795 54.287131 12.679679 53.676718 C 12.619562 53.063992 12.575631 52.453579 12.545573 51.840853 C 12.515514 51.228128 12.499329 50.61309 12.499329 50.000364 C 12.499329 49.385327 12.515514 48.772601 12.545573 48.159875 C 12.575631 47.54715 12.619562 46.934424 12.679679 46.324011 C 12.739795 45.713597 12.816097 45.105496 12.906272 44.497395 C 12.996446 43.891606 13.100494 43.285817 13.220727 42.684652 C 13.34096 42.081175 13.475066 41.484635 13.623045 40.888095 C 13.773336 40.293866 13.9375 39.70195 14.115537 39.114659 C 14.293575 38.527367 14.485485 37.9447 14.691268 37.366657 C 14.899364 36.788614 15.11902 36.217507 15.354862 35.648713 C 15.588391 35.082231 15.838106 34.520373 16.099381 33.967764 C 16.362969 33.412843 16.638117 32.864858 16.927139 32.321498 C 17.21616 31.780449 17.519055 31.24865 17.835822 30.721475 C 18.150277 30.194299 18.478606 29.676373 18.820807 29.165383 C 19.160697 28.656705 19.514459 28.154964 19.879782 27.660159 C 20.245105 27.167666 20.621989 26.684422 21.012746 26.210427 C 21.401191 25.736432 21.801197 25.271685 22.215076 24.816188 C 22.626642 24.36069 23.04977 23.916753 23.484458 23.484376 C 23.916834 23.049688 24.360771 22.626561 24.816269 22.214994 C 25.271767 21.801115 25.736514 21.40111 26.210509 21.012665 C 26.684504 20.621908 27.167748 20.245024 27.660241 19.8797 C 28.155045 19.514377 28.656787 19.160615 29.165465 18.820726 C 29.676455 18.478524 30.194381 18.150196 30.721556 17.83574 C 31.246419 17.518973 31.780531 17.218391 32.321579 16.927057 C 32.86494 16.638035 33.412924 16.362887 33.965534 16.099299 C 34.520455 15.838024 35.082313 15.588309 35.648795 15.35478 C 36.215277 15.118938 36.788695 14.899282 37.366738 14.691187 C 37.944781 14.485403 38.527449 14.293493 39.11474 14.115456 C 39.702032 13.937419 40.293948 13.773254 40.888176 13.622963 C 41.484717 13.474984 42.081257 13.340878 42.684734 13.220645 C 43.285899 13.100412 43.889375 12.996365 44.497477 12.90619 C 45.105578 12.816015 45.713679 12.739714 46.324092 12.679597 C 46.934506 12.619481 47.547231 12.575549 48.159957 12.545491 C 48.772683 12.515433 49.385408 12.499248 50.000446 12.499248 C 50.613171 12.499248 51.228209 12.515433 51.840935 12.545491 C 52.45366 12.575549 53.064074 12.619481 53.676799 12.679597 C 54.287213 12.739714 54.895314 12.816015 55.503415 12.90619 C 56.109204 12.996365 56.714993 13.100412 57.316158 13.220645 C 57.917323 13.340878 58.516175 13.474984 59.112715 13.622963 C 59.706944 13.773254 60.29886 13.937419 60.886151 14.115456 C 61.473443 14.293493 62.05611 14.485403 62.634153 14.691187 C 63.212196 14.899282 63.783303 15.118938 64.349785 15.35478 C 64.918579 15.588309 65.478125 15.838024 66.033046 16.099299 C 66.587967 16.362887 67.135952 16.638035 67.677 16.927057 C 68.218049 17.218391 68.75216 17.518973 69.279335 17.83574 C 69.804198 18.150196 70.324437 18.478524 70.833115 18.820726 C 71.344105 19.160615 71.845846 19.514377 72.338339 19.8797 C 72.830832 20.245024 73.316388 20.621908 73.790383 21.012665 C 74.264378 21.40111 74.729125 21.801115 75.18231 22.214994 C 75.637808 22.626561 76.081745 23.049688 76.516434 23.484376 C 76.951122 23.916753 77.374249 24.36069 77.785816 24.816188 C 78.197383 25.271685 78.599701 25.736432 78.988145 26.210427 C 79.37659 26.684422 79.755786 27.167666 80.12111 27.660159 C 80.486433 28.154964 80.840195 28.656705 81.180084 29.165383 C 81.519974 29.676373 81.848302 30.194299 82.16507 30.721475 C 82.479525 31.24865 82.78242 31.780449 83.071441 32.321498 C 83.360463 32.864858 83.637923 33.412843 83.899199 33.967764 C 84.162786 34.520373 84.410189 35.082231 84.64603 35.648713 C 84.87956 36.217507 85.101528 36.788614 85.307311 37.366657 C 85.515407 37.9447 85.707317 38.527367 85.885354 39.114659 C 86.063392 39.70195 86.227556 40.293866 86.375535 40.888095 C 86.525826 41.484635 86.659932 42.081175 86.780165 42.684652 C 86.898086 43.285817 87.004446 43.891606 87.09462 44.497395 C 87.184795 45.105496 87.258784 45.713597 87.318901 46.324011 C 87.379017 46.934424 87.425261 47.54715 87.455319 48.159875 C 87.485377 48.772601 87.49925 49.385327 87.49925 50.000364 Z M 87.49925 50.000364 " stroke="#40396e" stroke-width="3" stroke-opacity="1" stroke-miterlimit="10"/></g></g></g></g></svg>