<svg xmlns="http://www.w3.org/2000/svg" xmlns:xlink="http://www.w3.org/1999/xlink" width="1366" zoomAndPan="magnify" viewBox="0 0 1024.5 566.249966" height="755" preserveAspectRatio="xMidYMid meet" version="1.0"><defs><filter x="0%" y="0%" width="100%" height="100%" id="57e0bbd059"><feColorMatrix values="0 0 0 0 1 0 0 0 0 1 0 0 0 0 1 0 0 0 1 0" color-interpolation-filters="sRGB"/></filter><mask id="32b0bf24ef"><g filter="url(#57e0bbd059)"><rect x="-102.45" width="1229.4" fill="#000000" y="-56.624997" height="679.499959" fill-opacity="0.15"/></g></mask><clipPath id="d84bc1d76b"><path d="M 0.34375 0.0585938 L 247.519531 0.0585938 L 247.519531 229.257812 L 0.34375 229.257812 Z M 0.34375 0.0585938 " clip-rule="nonzero"/></clipPath><clipPath id="31437bedaf"><path d="M 18.535156 0.0585938 L 229.328125 0.0585938 C 229.917969 0.0585938 230.507812 0.0898438 231.097656 0.148438 C 231.6875 0.207031 232.269531 0.292969 232.847656 0.40625 C 233.429688 0.523438 234 0.664062 234.566406 0.835938 C 235.132812 1.007812 235.6875 1.207031 236.234375 1.433594 C 236.78125 1.660156 237.316406 1.910156 237.835938 2.191406 C 238.355469 2.46875 238.863281 2.773438 239.355469 3.101562 C 239.847656 3.429688 240.320312 3.78125 240.777344 4.15625 C 241.234375 4.53125 241.671875 4.925781 242.089844 5.34375 C 242.507812 5.761719 242.902344 6.199219 243.277344 6.65625 C 243.652344 7.113281 244.003906 7.585938 244.332031 8.078125 C 244.664062 8.570312 244.964844 9.074219 245.246094 9.597656 C 245.523438 10.117188 245.773438 10.652344 246 11.199219 C 246.226562 11.742188 246.425781 12.300781 246.597656 12.863281 C 246.769531 13.429688 246.914062 14.003906 247.027344 14.582031 C 247.144531 15.160156 247.230469 15.746094 247.289062 16.332031 C 247.347656 16.921875 247.375 17.511719 247.375 18.101562 L 247.375 211.214844 C 247.375 211.804688 247.347656 212.394531 247.289062 212.984375 C 247.230469 213.570312 247.144531 214.15625 247.027344 214.734375 C 246.914062 215.3125 246.769531 215.886719 246.597656 216.453125 C 246.425781 217.015625 246.226562 217.574219 246 218.117188 C 245.773438 218.664062 245.523438 219.199219 245.246094 219.71875 C 244.964844 220.242188 244.664062 220.746094 244.332031 221.238281 C 244.003906 221.730469 243.652344 222.203125 243.277344 222.660156 C 242.902344 223.117188 242.507812 223.554688 242.089844 223.972656 C 241.671875 224.390625 241.234375 224.785156 240.777344 225.160156 C 240.320312 225.535156 239.847656 225.886719 239.355469 226.214844 C 238.863281 226.542969 238.355469 226.847656 237.835938 227.125 C 237.316406 227.40625 236.78125 227.65625 236.234375 227.882812 C 235.6875 228.109375 235.132812 228.308594 234.566406 228.480469 C 234 228.652344 233.429688 228.792969 232.847656 228.910156 C 232.269531 229.023438 231.6875 229.113281 231.097656 229.167969 C 230.507812 229.226562 229.917969 229.257812 229.328125 229.257812 L 18.535156 229.257812 C 17.941406 229.257812 17.351562 229.226562 16.765625 229.167969 C 16.175781 229.113281 15.59375 229.023438 15.011719 228.910156 C 14.433594 228.792969 13.859375 228.652344 13.296875 228.480469 C 12.730469 228.308594 12.175781 228.109375 11.628906 227.882812 C 11.082031 227.65625 10.546875 227.40625 10.027344 227.125 C 9.503906 226.847656 9 226.542969 8.507812 226.214844 C 8.015625 225.886719 7.542969 225.535156 7.085938 225.160156 C 6.628906 224.785156 6.191406 224.390625 5.773438 223.972656 C 5.355469 223.554688 4.960938 223.117188 4.585938 222.660156 C 4.210938 222.203125 3.859375 221.730469 3.527344 221.238281 C 3.199219 220.746094 2.898438 220.242188 2.617188 219.71875 C 2.339844 219.199219 2.085938 218.664062 1.863281 218.117188 C 1.636719 217.574219 1.4375 217.015625 1.265625 216.453125 C 1.09375 215.886719 0.949219 215.3125 0.835938 214.734375 C 0.71875 214.15625 0.632812 213.570312 0.574219 212.984375 C 0.515625 212.394531 0.488281 211.804688 0.488281 211.214844 L 0.488281 18.101562 C 0.488281 17.511719 0.515625 16.921875 0.574219 16.332031 C 0.632812 15.746094 0.71875 15.160156 0.835938 14.582031 C 0.949219 14.003906 1.09375 13.429688 1.265625 12.863281 C 1.4375 12.300781 1.636719 11.742188 1.863281 11.199219 C 2.085938 10.652344 2.339844 10.117188 2.617188 9.597656 C 2.898438 9.074219 3.199219 8.570312 3.527344 8.078125 C 3.859375 7.585938 4.210938 7.113281 4.585938 6.65625 C 4.960938 6.199219 5.355469 5.761719 5.773438 5.34375 C 6.191406 4.925781 6.628906 4.53125 7.085938 4.15625 C 7.542969 3.78125 8.015625 3.429688 8.507812 3.101562 C 9 2.773438 9.503906 2.46875 10.027344 2.191406 C 10.546875 1.910156 11.082031 1.660156 11.628906 1.433594 C 12.175781 1.207031 12.730469 1.007812 13.296875 0.835938 C 13.859375 0.664062 14.433594 0.523438 15.011719 0.40625 C 15.59375 0.292969 16.175781 0.207031 16.765625 0.148438 C 17.351562 0.0898438 17.941406 0.0585938 18.535156 0.0585938 Z M 18.535156 0.0585938 " clip-rule="nonzero"/></clipPath><linearGradient x1="24" gradientTransform="matrix(5.878271, 0, 0, 5.876831, -17.147033, -26.385455)" y1="4.5" x2="24" gradientUnits="userSpaceOnUse" y2="43.499998" id="1dca2937ee"><stop stop-opacity="1" stop-color="rgb(7.272339%, 75.970459%, 90.17334%)" offset="0"/><stop stop-opacity="1" stop-color="rgb(7.183838%, 75.802612%, 90.206909%)" offset="0.015625"/><stop stop-opacity="1" stop-color="rgb(7.009888%, 75.466919%, 90.274048%)" offset="0.03125"/><stop stop-opacity="1" stop-color="rgb(6.834412%, 75.131226%, 90.341187%)" offset="0.046875"/><stop stop-opacity="1" stop-color="rgb(6.660461%, 74.795532%, 90.408325%)" offset="0.0625"/><stop stop-opacity="1" stop-color="rgb(6.484985%, 74.459839%, 90.473938%)" offset="0.078125"/><stop stop-opacity="1" stop-color="rgb(6.311035%, 74.124146%, 90.541077%)" offset="0.09375"/><stop stop-opacity="1" stop-color="rgb(6.135559%, 73.788452%, 90.608215%)" offset="0.109375"/><stop stop-opacity="1" stop-color="rgb(5.961609%, 73.452759%, 90.675354%)" offset="0.125"/><stop stop-opacity="1" stop-color="rgb(5.786133%, 73.117065%, 90.742493%)" offset="0.140625"/><stop stop-opacity="1" stop-color="rgb(5.612183%, 72.781372%, 90.809631%)" offset="0.15625"/><stop stop-opacity="1" stop-color="rgb(5.436707%, 72.445679%, 90.875244%)" offset="0.171875"/><stop stop-opacity="1" stop-color="rgb(5.262756%, 72.108459%, 90.942383%)" offset="0.1875"/><stop stop-opacity="1" stop-color="rgb(5.08728%, 71.772766%, 91.009521%)" offset="0.203125"/><stop stop-opacity="1" stop-color="rgb(4.91333%, 71.437073%, 91.07666%)" offset="0.21875"/><stop stop-opacity="1" stop-color="rgb(4.737854%, 71.101379%, 91.143799%)" offset="0.234375"/><stop stop-opacity="1" stop-color="rgb(4.563904%, 70.765686%, 91.210938%)" offset="0.25"/><stop stop-opacity="1" stop-color="rgb(4.388428%, 70.429993%, 91.278076%)" offset="0.265625"/><stop stop-opacity="1" stop-color="rgb(4.214478%, 70.094299%, 91.343689%)" offset="0.28125"/><stop stop-opacity="1" stop-color="rgb(4.039001%, 69.758606%, 91.410828%)" offset="0.296875"/><stop stop-opacity="1" stop-color="rgb(3.865051%, 69.422913%, 91.477966%)" offset="0.3125"/><stop stop-opacity="1" stop-color="rgb(3.689575%, 69.087219%, 91.545105%)" offset="0.328125"/><stop stop-opacity="1" stop-color="rgb(3.515625%, 68.751526%, 91.612244%)" offset="0.34375"/><stop stop-opacity="1" stop-color="rgb(3.340149%, 68.415833%, 91.679382%)" offset="0.359375"/><stop stop-opacity="1" stop-color="rgb(3.166199%, 68.080139%, 91.746521%)" offset="0.375"/><stop stop-opacity="1" stop-color="rgb(2.990723%, 67.744446%, 91.812134%)" offset="0.390625"/><stop stop-opacity="1" stop-color="rgb(2.816772%, 67.408752%, 91.879272%)" offset="0.40625"/><stop stop-opacity="1" stop-color="rgb(2.641296%, 67.073059%, 91.946411%)" offset="0.421875"/><stop stop-opacity="1" stop-color="rgb(2.467346%, 66.737366%, 92.01355%)" offset="0.4375"/><stop stop-opacity="1" stop-color="rgb(2.29187%, 66.401672%, 92.080688%)" offset="0.453125"/><stop stop-opacity="1" stop-color="rgb(2.11792%, 66.065979%, 92.147827%)" offset="0.46875"/><stop stop-opacity="1" stop-color="rgb(1.942444%, 65.72876%, 92.21344%)" offset="0.484375"/><stop stop-opacity="1" stop-color="rgb(1.768494%, 65.393066%, 92.280579%)" offset="0.5"/><stop stop-opacity="1" stop-color="rgb(1.593018%, 65.057373%, 92.347717%)" offset="0.515625"/><stop stop-opacity="1" stop-color="rgb(1.419067%, 64.72168%, 92.414856%)" offset="0.53125"/><stop stop-opacity="1" stop-color="rgb(1.286316%, 64.367676%, 92.430115%)" offset="0.546875"/><stop stop-opacity="1" stop-color="rgb(1.286316%, 64.057922%, 92.323303%)" offset="0.554688"/><stop stop-opacity="1" stop-color="rgb(1.376343%, 63.813782%, 92.144775%)" offset="0.5625"/><stop stop-opacity="1" stop-color="rgb(1.464844%, 63.568115%, 91.966248%)" offset="0.570312"/><stop stop-opacity="1" stop-color="rgb(1.554871%, 63.323975%, 91.78772%)" offset="0.578125"/><stop stop-opacity="1" stop-color="rgb(1.643372%, 63.078308%, 91.609192%)" offset="0.585938"/><stop stop-opacity="1" stop-color="rgb(1.733398%, 62.834167%, 91.430664%)" offset="0.59375"/><stop stop-opacity="1" stop-color="rgb(1.821899%, 62.588501%, 91.252136%)" offset="0.601562"/><stop stop-opacity="1" stop-color="rgb(1.911926%, 62.34436%, 91.073608%)" offset="0.609375"/><stop stop-opacity="1" stop-color="rgb(2.000427%, 62.098694%, 90.895081%)" offset="0.617188"/><stop stop-opacity="1" stop-color="rgb(2.090454%, 61.854553%, 90.716553%)" offset="0.625"/><stop stop-opacity="1" stop-color="rgb(2.178955%, 61.608887%, 90.538025%)" offset="0.632813"/><stop stop-opacity="1" stop-color="rgb(2.268982%, 61.36322%, 90.359497%)" offset="0.640625"/><stop stop-opacity="1" stop-color="rgb(2.357483%, 61.11908%, 90.180969%)" offset="0.648438"/><stop stop-opacity="1" stop-color="rgb(2.44751%, 60.873413%, 90.002441%)" offset="0.65625"/><stop stop-opacity="1" stop-color="rgb(2.536011%, 60.629272%, 89.823914%)" offset="0.664063"/><stop stop-opacity="1" stop-color="rgb(2.626038%, 60.383606%, 89.645386%)" offset="0.671875"/><stop stop-opacity="1" stop-color="rgb(2.714539%, 60.139465%, 89.466858%)" offset="0.679688"/><stop stop-opacity="1" stop-color="rgb(2.804565%, 59.893799%, 89.28833%)" offset="0.6875"/><stop stop-opacity="1" stop-color="rgb(2.893066%, 59.649658%, 89.109802%)" offset="0.695313"/><stop stop-opacity="1" stop-color="rgb(2.983093%, 59.403992%, 88.931274%)" offset="0.703125"/><stop stop-opacity="1" stop-color="rgb(3.071594%, 59.159851%, 88.752747%)" offset="0.710938"/><stop stop-opacity="1" stop-color="rgb(3.161621%, 58.914185%, 88.574219%)" offset="0.71875"/><stop stop-opacity="1" stop-color="rgb(3.250122%, 58.668518%, 88.395691%)" offset="0.726562"/><stop stop-opacity="1" stop-color="rgb(3.340149%, 58.424377%, 88.217163%)" offset="0.734375"/><stop stop-opacity="1" stop-color="rgb(3.42865%, 58.178711%, 88.038635%)" offset="0.742188"/><stop stop-opacity="1" stop-color="rgb(3.518677%, 57.93457%, 87.860107%)" offset="0.75"/><stop stop-opacity="1" stop-color="rgb(3.607178%, 57.688904%, 87.68158%)" offset="0.757812"/><stop stop-opacity="1" stop-color="rgb(3.697205%, 57.444763%, 87.503052%)" offset="0.765625"/><stop stop-opacity="1" stop-color="rgb(3.785706%, 57.199097%, 87.324524%)" offset="0.773438"/><stop stop-opacity="1" stop-color="rgb(3.875732%, 56.954956%, 87.145996%)" offset="0.78125"/><stop stop-opacity="1" stop-color="rgb(3.964233%, 56.70929%, 86.967468%)" offset="0.789062"/><stop stop-opacity="1" stop-color="rgb(4.05426%, 56.465149%, 86.78894%)" offset="0.796875"/><stop stop-opacity="1" stop-color="rgb(4.142761%, 56.219482%, 86.610413%)" offset="0.804687"/><stop stop-opacity="1" stop-color="rgb(4.232788%, 55.975342%, 86.431885%)" offset="0.8125"/><stop stop-opacity="1" stop-color="rgb(4.321289%, 55.729675%, 86.253357%)" offset="0.820312"/><stop stop-opacity="1" stop-color="rgb(4.411316%, 55.484009%, 86.074829%)" offset="0.828125"/><stop stop-opacity="1" stop-color="rgb(4.499817%, 55.239868%, 85.896301%)" offset="0.835937"/><stop stop-opacity="1" stop-color="rgb(4.589844%, 54.994202%, 85.717773%)" offset="0.84375"/><stop stop-opacity="1" stop-color="rgb(4.678345%, 54.750061%, 85.539246%)" offset="0.851562"/><stop stop-opacity="1" stop-color="rgb(4.768372%, 54.504395%, 85.360718%)" offset="0.859375"/><stop stop-opacity="1" stop-color="rgb(4.856873%, 54.260254%, 85.18219%)" offset="0.867187"/><stop stop-opacity="1" stop-color="rgb(4.946899%, 54.014587%, 85.003662%)" offset="0.875"/><stop stop-opacity="1" stop-color="rgb(5.0354%, 53.770447%, 84.825134%)" offset="0.882812"/><stop stop-opacity="1" stop-color="rgb(5.125427%, 53.52478%, 84.646606%)" offset="0.890625"/><stop stop-opacity="1" stop-color="rgb(5.213928%, 53.28064%, 84.468079%)" offset="0.898438"/><stop stop-opacity="1" stop-color="rgb(5.303955%, 53.034973%, 84.289551%)" offset="0.90625"/><stop stop-opacity="1" stop-color="rgb(5.392456%, 52.790833%, 84.111023%)" offset="0.914062"/><stop stop-opacity="1" stop-color="rgb(5.480957%, 52.545166%, 83.932495%)" offset="0.921875"/><stop stop-opacity="1" stop-color="rgb(5.570984%, 52.2995%, 83.753967%)" offset="0.929688"/><stop stop-opacity="1" stop-color="rgb(5.659485%, 52.055359%, 83.575439%)" offset="0.9375"/><stop stop-opacity="1" stop-color="rgb(5.749512%, 51.809692%, 83.396912%)" offset="0.945312"/><stop stop-opacity="1" stop-color="rgb(5.838013%, 51.565552%, 83.218384%)" offset="0.953125"/><stop stop-opacity="1" stop-color="rgb(5.92804%, 51.319885%, 83.039856%)" offset="0.960938"/><stop stop-opacity="1" stop-color="rgb(6.016541%, 51.075745%, 82.861328%)" offset="0.96875"/><stop stop-opacity="1" stop-color="rgb(6.106567%, 50.830078%, 82.6828%)" offset="0.976562"/><stop stop-opacity="1" stop-color="rgb(6.195068%, 50.585938%, 82.504272%)" offset="0.984375"/><stop stop-opacity="1" stop-color="rgb(6.285095%, 50.340271%, 82.325745%)" offset="0.992188"/><stop stop-opacity="1" stop-color="rgb(6.373596%, 50.09613%, 82.147217%)" offset="1"/></linearGradient><clipPath id="c8364871d4"><path d="M 0.34375 0.0585938 L 247.519531 0.0585938 L 247.519531 36 L 0.34375 36 Z M 0.34375 0.0585938 " clip-rule="nonzero"/></clipPath><clipPath id="602348af8d"><path d="M 229.328125 0.0585938 L 18.535156 0.0585938 C 17.941406 0.0585938 17.351562 0.0859375 16.761719 0.140625 C 16.175781 0.199219 15.589844 0.285156 15.007812 0.398438 C 14.429688 0.511719 13.855469 0.652344 13.289062 0.824219 C 12.722656 0.996094 12.164062 1.191406 11.617188 1.417969 C 11.070312 1.644531 10.539062 1.894531 10.015625 2.171875 C 9.492188 2.453125 8.984375 2.753906 8.492188 3.082031 C 8.003906 3.410156 7.527344 3.761719 7.070312 4.136719 C 6.613281 4.511719 6.175781 4.910156 5.757812 5.328125 C 5.335938 5.746094 4.941406 6.183594 4.566406 6.640625 C 4.191406 7.097656 3.839844 7.574219 3.511719 8.066406 C 3.183594 8.558594 2.878906 9.0625 2.601562 9.585938 C 2.324219 10.109375 2.070312 10.640625 1.84375 11.1875 C 1.621094 11.734375 1.421875 12.292969 1.25 12.859375 C 1.082031 13.425781 0.9375 13.996094 0.824219 14.578125 C 0.710938 15.160156 0.625 15.742188 0.570312 16.332031 C 0.511719 16.921875 0.484375 17.511719 0.488281 18.101562 L 0.488281 35.320312 L 247.375 35.320312 L 247.375 18.101562 C 247.378906 17.511719 247.351562 16.921875 247.292969 16.332031 C 247.238281 15.742188 247.152344 15.160156 247.039062 14.578125 C 246.925781 13.996094 246.78125 13.425781 246.613281 12.859375 C 246.441406 12.292969 246.242188 11.734375 246.015625 11.1875 C 245.792969 10.640625 245.539062 10.109375 245.261719 9.585938 C 244.984375 9.0625 244.679688 8.558594 244.351562 8.066406 C 244.023438 7.574219 243.671875 7.097656 243.296875 6.640625 C 242.921875 6.183594 242.523438 5.746094 242.105469 5.328125 C 241.6875 4.910156 241.25 4.511719 240.792969 4.136719 C 240.335938 3.761719 239.859375 3.410156 239.367188 3.082031 C 238.875 2.753906 238.371094 2.453125 237.847656 2.171875 C 237.324219 1.894531 236.789062 1.644531 236.242188 1.417969 C 235.695312 1.191406 235.140625 0.996094 234.574219 0.824219 C 234.007812 0.652344 233.433594 0.511719 232.855469 0.398438 C 232.273438 0.285156 231.6875 0.199219 231.097656 0.140625 C 230.511719 0.0859375 229.921875 0.0585938 229.328125 0.0585938 Z M 229.328125 0.0585938 " clip-rule="nonzero"/></clipPath><linearGradient x1="24" gradientTransform="matrix(5.878271, 0, 0, 5.876831, -17.147033, -26.385455)" y1="10.5" x2="24" gradientUnits="userSpaceOnUse" y2="4.5" id="e4fd4ce34e"><stop stop-opacity="1" stop-color="rgb(13.424683%, 19.819641%, 46.601868%)" offset="0"/><stop stop-opacity="1" stop-color="rgb(13.407898%, 19.795227%, 46.481323%)" offset="0.125"/><stop stop-opacity="1" stop-color="rgb(13.375854%, 19.746399%, 46.240234%)" offset="0.25"/><stop stop-opacity="1" stop-color="rgb(13.343811%, 19.697571%, 46.000671%)" offset="0.375"/><stop stop-opacity="1" stop-color="rgb(13.311768%, 19.648743%, 45.759583%)" offset="0.5"/><stop stop-opacity="1" stop-color="rgb(13.28125%, 19.599915%, 45.52002%)" offset="0.625"/><stop stop-opacity="1" stop-color="rgb(13.249207%, 19.551086%, 45.278931%)" offset="0.75"/><stop stop-opacity="1" stop-color="rgb(13.217163%, 19.502258%, 45.039368%)" offset="0.875"/><stop stop-opacity="1" stop-color="rgb(13.18512%, 19.45343%, 44.799805%)" offset="1"/></linearGradient><clipPath id="0ae4da2928"><path d="M 0.488281 35.320312 L 247.375 35.320312 L 247.375 52.953125 L 0.488281 52.953125 Z M 0.488281 35.320312 " clip-rule="nonzero"/></clipPath><linearGradient x1="24" gradientTransform="matrix(5.878271, 0, 0, 5.876831, -17.147033, -26.385455)" y1="13.5" x2="24" gradientUnits="userSpaceOnUse" y2="10.5" id="69d57429d2"><stop stop-opacity="1" stop-color="rgb(1.834106%, 62.556458%, 91.229248%)" offset="0"/><stop stop-opacity="1" stop-color="rgb(1.901245%, 62.371826%, 91.094971%)" offset="0.03125"/><stop stop-opacity="1" stop-color="rgb(2.035522%, 62.004089%, 90.826416%)" offset="0.0625"/><stop stop-opacity="1" stop-color="rgb(2.1698%, 61.634827%, 90.557861%)" offset="0.09375"/><stop stop-opacity="1" stop-color="rgb(2.304077%, 61.265564%, 90.289307%)" offset="0.125"/><stop stop-opacity="1" stop-color="rgb(2.438354%, 60.897827%, 90.020752%)" offset="0.15625"/><stop stop-opacity="1" stop-color="rgb(2.572632%, 60.528564%, 89.752197%)" offset="0.1875"/><stop stop-opacity="1" stop-color="rgb(2.706909%, 60.160828%, 89.483643%)" offset="0.21875"/><stop stop-opacity="1" stop-color="rgb(2.841187%, 59.791565%, 89.215088%)" offset="0.25"/><stop stop-opacity="1" stop-color="rgb(2.975464%, 59.423828%, 88.946533%)" offset="0.28125"/><stop stop-opacity="1" stop-color="rgb(3.109741%, 59.054565%, 88.677979%)" offset="0.3125"/><stop stop-opacity="1" stop-color="rgb(3.244019%, 58.685303%, 88.407898%)" offset="0.34375"/><stop stop-opacity="1" stop-color="rgb(3.378296%, 58.317566%, 88.139343%)" offset="0.375"/><stop stop-opacity="1" stop-color="rgb(3.512573%, 57.948303%, 87.870789%)" offset="0.40625"/><stop stop-opacity="1" stop-color="rgb(3.646851%, 57.580566%, 87.602234%)" offset="0.4375"/><stop stop-opacity="1" stop-color="rgb(3.781128%, 57.211304%, 87.333679%)" offset="0.46875"/><stop stop-opacity="1" stop-color="rgb(3.915405%, 56.843567%, 87.065125%)" offset="0.5"/><stop stop-opacity="1" stop-color="rgb(4.049683%, 56.474304%, 86.79657%)" offset="0.53125"/><stop stop-opacity="1" stop-color="rgb(4.18396%, 56.105042%, 86.528015%)" offset="0.5625"/><stop stop-opacity="1" stop-color="rgb(4.319763%, 55.737305%, 86.25946%)" offset="0.59375"/><stop stop-opacity="1" stop-color="rgb(4.454041%, 55.368042%, 85.990906%)" offset="0.625"/><stop stop-opacity="1" stop-color="rgb(4.588318%, 55.000305%, 85.722351%)" offset="0.65625"/><stop stop-opacity="1" stop-color="rgb(4.722595%, 54.631042%, 85.453796%)" offset="0.6875"/><stop stop-opacity="1" stop-color="rgb(4.856873%, 54.263306%, 85.185242%)" offset="0.71875"/><stop stop-opacity="1" stop-color="rgb(4.99115%, 53.894043%, 84.916687%)" offset="0.75"/><stop stop-opacity="1" stop-color="rgb(5.125427%, 53.52478%, 84.648132%)" offset="0.78125"/><stop stop-opacity="1" stop-color="rgb(5.259705%, 53.157043%, 84.379578%)" offset="0.8125"/><stop stop-opacity="1" stop-color="rgb(5.393982%, 52.787781%, 84.111023%)" offset="0.84375"/><stop stop-opacity="1" stop-color="rgb(5.528259%, 52.420044%, 83.842468%)" offset="0.875"/><stop stop-opacity="1" stop-color="rgb(5.662537%, 52.050781%, 83.573914%)" offset="0.90625"/><stop stop-opacity="1" stop-color="rgb(5.796814%, 51.683044%, 83.305359%)" offset="0.9375"/><stop stop-opacity="1" stop-color="rgb(5.931091%, 51.313782%, 83.035278%)" offset="0.96875"/><stop stop-opacity="1" stop-color="rgb(6.065369%, 50.944519%, 82.766724%)" offset="1"/></linearGradient><clipPath id="d72b2f4256"><path d="M 27 13 L 36 13 L 36 22 L 27 22 Z M 27 13 " clip-rule="nonzero"/></clipPath><clipPath id="fb8b02a850"><path d="M 35.992188 17.691406 C 35.992188 17.972656 35.964844 18.25 35.910156 18.527344 C 35.855469 18.804688 35.773438 19.074219 35.664062 19.332031 C 35.558594 19.59375 35.425781 19.839844 35.269531 20.074219 C 35.113281 20.308594 34.933594 20.523438 34.734375 20.722656 C 34.535156 20.921875 34.320312 21.101562 34.085938 21.257812 C 33.851562 21.414062 33.605469 21.546875 33.34375 21.652344 C 33.082031 21.761719 32.816406 21.84375 32.539062 21.898438 C 32.261719 21.953125 31.984375 21.980469 31.703125 21.980469 C 31.417969 21.980469 31.140625 21.953125 30.863281 21.898438 C 30.585938 21.84375 30.320312 21.761719 30.058594 21.652344 C 29.800781 21.546875 29.550781 21.414062 29.316406 21.257812 C 29.082031 21.101562 28.867188 20.921875 28.667969 20.722656 C 28.46875 20.523438 28.289062 20.308594 28.132812 20.074219 C 27.976562 19.839844 27.84375 19.59375 27.738281 19.332031 C 27.628906 19.074219 27.546875 18.804688 27.492188 18.527344 C 27.4375 18.25 27.410156 17.972656 27.410156 17.691406 C 27.410156 17.410156 27.4375 17.128906 27.492188 16.855469 C 27.546875 16.578125 27.628906 16.308594 27.738281 16.050781 C 27.84375 15.789062 27.976562 15.542969 28.132812 15.308594 C 28.289062 15.074219 28.46875 14.855469 28.667969 14.65625 C 28.867188 14.457031 29.082031 14.28125 29.316406 14.125 C 29.550781 13.96875 29.800781 13.835938 30.058594 13.726562 C 30.320312 13.621094 30.585938 13.539062 30.863281 13.484375 C 31.140625 13.429688 31.417969 13.402344 31.703125 13.402344 C 31.984375 13.402344 32.261719 13.429688 32.539062 13.484375 C 32.816406 13.539062 33.082031 13.621094 33.34375 13.726562 C 33.605469 13.835938 33.851562 13.96875 34.085938 14.125 C 34.320312 14.28125 34.535156 14.457031 34.734375 14.65625 C 34.933594 14.855469 35.113281 15.074219 35.269531 15.308594 C 35.425781 15.542969 35.558594 15.789062 35.664062 16.050781 C 35.773438 16.308594 35.855469 16.578125 35.910156 16.855469 C 35.964844 17.128906 35.992188 17.410156 35.992188 17.691406 Z M 35.992188 17.691406 " clip-rule="nonzero"/></clipPath><linearGradient x1="8.31" gradientTransform="matrix(5.878271, 0, 0, 5.876831, -17.147033, -26.385455)" y1="8.229999" x2="8.31" gradientUnits="userSpaceOnUse" y2="6.77" id="2740e80c34"><stop stop-opacity="1" stop-color="rgb(95.298767%, 67.10968%, 44.384766%)" offset="0"/><stop stop-opacity="1" stop-color="rgb(95.298767%, 67.007446%, 44.351196%)" offset="0.0625"/><stop stop-opacity="1" stop-color="rgb(95.298767%, 66.804504%, 44.282532%)" offset="0.125"/><stop stop-opacity="1" stop-color="rgb(95.298767%, 66.601562%, 44.215393%)" offset="0.1875"/><stop stop-opacity="1" stop-color="rgb(95.298767%, 66.397095%, 44.146729%)" offset="0.25"/><stop stop-opacity="1" stop-color="rgb(95.298767%, 66.194153%, 44.078064%)" offset="0.3125"/><stop stop-opacity="1" stop-color="rgb(95.298767%, 65.991211%, 44.010925%)" offset="0.375"/><stop stop-opacity="1" stop-color="rgb(95.298767%, 65.788269%, 43.942261%)" offset="0.4375"/><stop stop-opacity="1" stop-color="rgb(95.298767%, 65.585327%, 43.875122%)" offset="0.5"/><stop stop-opacity="1" stop-color="rgb(95.298767%, 65.382385%, 43.806458%)" offset="0.5625"/><stop stop-opacity="1" stop-color="rgb(95.298767%, 65.179443%, 43.739319%)" offset="0.625"/><stop stop-opacity="1" stop-color="rgb(95.298767%, 64.976501%, 43.670654%)" offset="0.6875"/><stop stop-opacity="1" stop-color="rgb(95.298767%, 64.77356%, 43.60199%)" offset="0.75"/><stop stop-opacity="1" stop-color="rgb(95.298767%, 64.570618%, 43.534851%)" offset="0.8125"/><stop stop-opacity="1" stop-color="rgb(95.298767%, 64.367676%, 43.466187%)" offset="0.875"/><stop stop-opacity="1" stop-color="rgb(95.298767%, 64.164734%, 43.399048%)" offset="0.9375"/><stop stop-opacity="1" stop-color="rgb(95.298767%, 63.961792%, 43.330383%)" offset="1"/></linearGradient><clipPath id="5a77c37ba3"><path d="M 49 13 L 58 13 L 58 22 L 49 22 Z M 49 13 " clip-rule="nonzero"/></clipPath><clipPath id="bd6093e75b"><path d="M 57.683594 17.691406 C 57.683594 17.972656 57.65625 18.25 57.601562 18.527344 C 57.546875 18.804688 57.464844 19.074219 57.355469 19.332031 C 57.25 19.59375 57.117188 19.839844 56.960938 20.074219 C 56.804688 20.308594 56.625 20.523438 56.425781 20.722656 C 56.226562 20.921875 56.011719 21.101562 55.777344 21.257812 C 55.542969 21.414062 55.292969 21.546875 55.035156 21.65625 C 54.773438 21.761719 54.503906 21.84375 54.230469 21.898438 C 53.953125 21.953125 53.675781 21.980469 53.390625 21.980469 C 53.109375 21.980469 52.832031 21.953125 52.554688 21.898438 C 52.277344 21.84375 52.011719 21.761719 51.75 21.65625 C 51.488281 21.546875 51.242188 21.414062 51.007812 21.257812 C 50.773438 21.101562 50.558594 20.921875 50.359375 20.722656 C 50.160156 20.523438 49.980469 20.308594 49.824219 20.074219 C 49.667969 19.839844 49.535156 19.59375 49.425781 19.332031 C 49.320312 19.074219 49.238281 18.804688 49.183594 18.527344 C 49.128906 18.25 49.101562 17.972656 49.101562 17.691406 C 49.101562 17.410156 49.128906 17.128906 49.183594 16.855469 C 49.238281 16.578125 49.320312 16.308594 49.425781 16.050781 C 49.535156 15.789062 49.667969 15.542969 49.824219 15.308594 C 49.980469 15.074219 50.160156 14.855469 50.359375 14.65625 C 50.558594 14.457031 50.773438 14.28125 51.007812 14.125 C 51.242188 13.96875 51.488281 13.835938 51.75 13.726562 C 52.011719 13.621094 52.277344 13.539062 52.554688 13.484375 C 52.832031 13.429688 53.109375 13.402344 53.390625 13.402344 C 53.675781 13.398438 53.957031 13.421875 54.234375 13.472656 C 54.511719 13.527344 54.78125 13.605469 55.042969 13.710938 C 55.304688 13.816406 55.554688 13.949219 55.789062 14.105469 C 56.027344 14.261719 56.242188 14.441406 56.445312 14.640625 C 56.644531 14.839844 56.824219 15.058594 56.980469 15.292969 C 57.136719 15.527344 57.265625 15.777344 57.371094 16.039062 C 57.480469 16.300781 57.558594 16.570312 57.609375 16.851562 C 57.664062 17.128906 57.6875 17.40625 57.683594 17.691406 Z M 57.683594 17.691406 " clip-rule="nonzero"/></clipPath><linearGradient x1="12" gradientTransform="matrix(5.878271, 0, 0, 5.876831, -17.147033, -26.385455)" y1="8.23" x2="12" gradientUnits="userSpaceOnUse" y2="6.769327" id="bae6a0a7ec"><stop stop-opacity="1" stop-color="rgb(8.425903%, 78.190613%, 89.730835%)" offset="0"/><stop stop-opacity="1" stop-color="rgb(8.357239%, 78.057861%, 89.756775%)" offset="0.0625"/><stop stop-opacity="1" stop-color="rgb(8.221436%, 77.79541%, 89.810181%)" offset="0.125"/><stop stop-opacity="1" stop-color="rgb(8.084106%, 77.531433%, 89.862061%)" offset="0.1875"/><stop stop-opacity="1" stop-color="rgb(7.946777%, 77.267456%, 89.91394%)" offset="0.25"/><stop stop-opacity="1" stop-color="rgb(7.809448%, 77.005005%, 89.967346%)" offset="0.3125"/><stop stop-opacity="1" stop-color="rgb(7.673645%, 76.741028%, 90.019226%)" offset="0.375"/><stop stop-opacity="1" stop-color="rgb(7.536316%, 76.478577%, 90.072632%)" offset="0.4375"/><stop stop-opacity="1" stop-color="rgb(7.398987%, 76.2146%, 90.124512%)" offset="0.5"/><stop stop-opacity="1" stop-color="rgb(7.261658%, 75.952148%, 90.176392%)" offset="0.5625"/><stop stop-opacity="1" stop-color="rgb(7.124329%, 75.688171%, 90.229797%)" offset="0.625"/><stop stop-opacity="1" stop-color="rgb(6.988525%, 75.42572%, 90.281677%)" offset="0.6875"/><stop stop-opacity="1" stop-color="rgb(6.851196%, 75.161743%, 90.335083%)" offset="0.75"/><stop stop-opacity="1" stop-color="rgb(6.713867%, 74.899292%, 90.386963%)" offset="0.8125"/><stop stop-opacity="1" stop-color="rgb(6.576538%, 74.635315%, 90.438843%)" offset="0.875"/><stop stop-opacity="1" stop-color="rgb(6.440735%, 74.371338%, 90.492249%)" offset="0.9375"/><stop stop-opacity="1" stop-color="rgb(6.303406%, 74.108887%, 90.544128%)" offset="1"/></linearGradient><clipPath id="4f242c5361"><path d="M 70 13 L 80 13 L 80 22 L 70 22 Z M 70 13 " clip-rule="nonzero"/></clipPath><clipPath id="c99e2fcb5f"><path d="M 79.375 17.691406 C 79.375 17.972656 79.347656 18.25 79.292969 18.527344 C 79.238281 18.804688 79.15625 19.074219 79.046875 19.332031 C 78.941406 19.59375 78.808594 19.839844 78.652344 20.074219 C 78.496094 20.308594 78.316406 20.523438 78.117188 20.722656 C 77.917969 20.921875 77.703125 21.101562 77.46875 21.257812 C 77.234375 21.414062 76.984375 21.546875 76.726562 21.652344 C 76.464844 21.761719 76.195312 21.84375 75.921875 21.898438 C 75.644531 21.953125 75.363281 21.980469 75.082031 21.980469 C 74.800781 21.980469 74.523438 21.953125 74.246094 21.898438 C 73.96875 21.84375 73.703125 21.761719 73.441406 21.652344 C 73.179688 21.546875 72.933594 21.414062 72.699219 21.257812 C 72.464844 21.101562 72.246094 20.921875 72.046875 20.722656 C 71.847656 20.523438 71.671875 20.308594 71.515625 20.074219 C 71.359375 19.839844 71.226562 19.59375 71.117188 19.332031 C 71.011719 19.074219 70.929688 18.804688 70.875 18.527344 C 70.820312 18.25 70.792969 17.972656 70.792969 17.691406 C 70.792969 17.410156 70.820312 17.128906 70.875 16.855469 C 70.929688 16.578125 71.011719 16.308594 71.117188 16.050781 C 71.226562 15.789062 71.359375 15.542969 71.515625 15.308594 C 71.671875 15.074219 71.847656 14.855469 72.046875 14.65625 C 72.246094 14.457031 72.464844 14.28125 72.699219 14.125 C 72.933594 13.96875 73.179688 13.835938 73.441406 13.726562 C 73.703125 13.621094 73.96875 13.539062 74.246094 13.484375 C 74.523438 13.429688 74.800781 13.402344 75.082031 13.402344 C 75.363281 13.402344 75.644531 13.429688 75.921875 13.484375 C 76.195312 13.539062 76.464844 13.621094 76.726562 13.726562 C 76.984375 13.835938 77.234375 13.96875 77.46875 14.125 C 77.703125 14.28125 77.917969 14.457031 78.117188 14.65625 C 78.316406 14.855469 78.496094 15.074219 78.652344 15.308594 C 78.808594 15.542969 78.941406 15.789062 79.046875 16.050781 C 79.15625 16.308594 79.238281 16.578125 79.292969 16.855469 C 79.347656 17.128906 79.375 17.410156 79.375 17.691406 Z M 79.375 17.691406 " clip-rule="nonzero"/></clipPath><linearGradient x1="15.69" gradientTransform="matrix(5.878271, 0, 0, 5.876831, -17.147033, -26.385455)" y1="8.229999" x2="15.69" gradientUnits="userSpaceOnUse" y2="6.77" id="e17e73e819"><stop stop-opacity="1" stop-color="rgb(90.25116%, 94.442749%, 95.222473%)" offset="0"/><stop stop-opacity="1" stop-color="rgb(90.055847%, 94.33136%, 95.126343%)" offset="0.125"/><stop stop-opacity="1" stop-color="rgb(89.668274%, 94.110107%, 94.937134%)" offset="0.25"/><stop stop-opacity="1" stop-color="rgb(89.279175%, 93.888855%, 94.746399%)" offset="0.375"/><stop stop-opacity="1" stop-color="rgb(88.890076%, 93.667603%, 94.555664%)" offset="0.5"/><stop stop-opacity="1" stop-color="rgb(88.502502%, 93.44635%, 94.364929%)" offset="0.625"/><stop stop-opacity="1" stop-color="rgb(88.113403%, 93.223572%, 94.17572%)" offset="0.75"/><stop stop-opacity="1" stop-color="rgb(87.72583%, 93.002319%, 93.984985%)" offset="0.875"/><stop stop-opacity="1" stop-color="rgb(87.336731%, 92.781067%, 93.79425%)" offset="1"/></linearGradient><clipPath id="b2687f2adf"><path d="M 62 61 L 186 61 L 186 186 L 62 186 Z M 62 61 " clip-rule="nonzero"/></clipPath><clipPath id="0fc8a4d4af"><path d="M 185.652344 123.472656 C 185.652344 125.496094 185.554688 127.511719 185.355469 129.523438 C 185.15625 131.535156 184.863281 133.53125 184.46875 135.511719 C 184.074219 137.496094 183.582031 139.453125 182.996094 141.386719 C 182.410156 143.320312 181.730469 145.222656 180.953125 147.085938 C 180.179688 148.953125 179.316406 150.78125 178.367188 152.5625 C 177.414062 154.34375 176.375 156.074219 175.25 157.757812 C 174.128906 159.4375 172.925781 161.058594 171.644531 162.621094 C 170.359375 164.183594 169.003906 165.679688 167.574219 167.105469 C 166.144531 168.535156 164.648438 169.890625 163.085938 171.171875 C 161.523438 172.457031 159.902344 173.660156 158.222656 174.78125 C 156.542969 175.902344 154.808594 176.941406 153.027344 177.894531 C 151.246094 178.847656 149.417969 179.710938 147.550781 180.484375 C 145.683594 181.257812 143.78125 181.9375 141.847656 182.523438 C 139.914062 183.109375 137.957031 183.601562 135.972656 183.996094 C 133.988281 184.390625 131.992188 184.683594 129.980469 184.882812 C 127.96875 185.082031 125.953125 185.179688 123.929688 185.179688 C 121.910156 185.179688 119.894531 185.082031 117.882812 184.882812 C 115.871094 184.683594 113.871094 184.390625 111.890625 183.996094 C 109.90625 183.601562 107.949219 183.109375 106.015625 182.523438 C 104.082031 181.9375 102.179688 181.257812 100.3125 180.484375 C 98.445312 179.710938 96.617188 178.847656 94.835938 177.894531 C 93.054688 176.941406 91.320312 175.902344 89.640625 174.78125 C 87.960938 173.660156 86.339844 172.457031 84.777344 171.171875 C 83.214844 169.890625 81.71875 168.535156 80.289062 167.105469 C 78.859375 165.679688 77.503906 164.183594 76.21875 162.621094 C 74.9375 161.058594 73.734375 159.4375 72.613281 157.757812 C 71.488281 156.074219 70.449219 154.34375 69.496094 152.5625 C 68.542969 150.78125 67.679688 148.953125 66.90625 147.085938 C 66.132812 145.222656 65.453125 143.320312 64.867188 141.386719 C 64.28125 139.453125 63.789062 137.496094 63.394531 135.511719 C 63 133.53125 62.703125 131.535156 62.507812 129.523438 C 62.308594 127.511719 62.210938 125.496094 62.210938 123.472656 C 62.210938 121.453125 62.308594 119.4375 62.507812 117.425781 C 62.703125 115.414062 63 113.417969 63.394531 111.433594 C 63.789062 109.453125 64.28125 107.496094 64.867188 105.5625 C 65.453125 103.628906 66.132812 101.726562 66.90625 99.859375 C 67.679688 97.992188 68.542969 96.167969 69.496094 94.386719 C 70.449219 92.601562 71.488281 90.871094 72.613281 89.191406 C 73.734375 87.511719 74.9375 85.890625 76.21875 84.328125 C 77.503906 82.765625 78.859375 81.269531 80.289062 79.839844 C 81.71875 78.410156 83.214844 77.054688 84.777344 75.773438 C 86.339844 74.492188 87.960938 73.289062 89.640625 72.167969 C 91.320312 71.042969 93.054688 70.007812 94.835938 69.054688 C 96.617188 68.101562 98.445312 67.238281 100.3125 66.464844 C 102.179688 65.691406 104.082031 65.011719 106.015625 64.425781 C 107.949219 63.835938 109.90625 63.347656 111.890625 62.953125 C 113.871094 62.558594 115.871094 62.261719 117.882812 62.0625 C 119.894531 61.867188 121.910156 61.765625 123.929688 61.765625 C 125.953125 61.765625 127.96875 61.867188 129.980469 62.0625 C 131.992188 62.261719 133.988281 62.558594 135.972656 62.953125 C 137.957031 63.347656 139.914062 63.835938 141.847656 64.425781 C 143.78125 65.011719 145.683594 65.691406 147.550781 66.464844 C 149.417969 67.238281 151.242188 68.101562 153.027344 69.054688 C 154.808594 70.007812 156.542969 71.042969 158.222656 72.167969 C 159.902344 73.289062 161.523438 74.492188 163.085938 75.773438 C 164.648438 77.054688 166.144531 78.410156 167.574219 79.839844 C 169.003906 81.269531 170.359375 82.765625 171.644531 84.328125 C 172.925781 85.890625 174.128906 87.511719 175.25 89.191406 C 176.375 90.871094 177.414062 92.601562 178.367188 94.386719 C 179.316406 96.167969 180.179688 97.992188 180.953125 99.859375 C 181.730469 101.726562 182.410156 103.628906 182.996094 105.5625 C 183.582031 107.496094 184.074219 109.453125 184.46875 111.433594 C 184.863281 113.417969 185.15625 115.414062 185.355469 117.425781 C 185.554688 119.4375 185.652344 121.453125 185.652344 123.472656 Z M 185.652344 123.472656 " clip-rule="nonzero"/></clipPath><linearGradient x1="24" gradientTransform="matrix(5.878271, 0, 0, 5.876831, -17.147033, -26.385455)" y1="36" x2="24" gradientUnits="userSpaceOnUse" y2="15" id="4b11c669cc"><stop stop-opacity="1" stop-color="rgb(94.967651%, 97.131348%, 97.53418%)" offset="0"/><stop stop-opacity="1" stop-color="rgb(94.857788%, 97.068787%, 97.479248%)" offset="0.015625"/><stop stop-opacity="1" stop-color="rgb(94.639587%, 96.943665%, 97.372437%)" offset="0.03125"/><stop stop-opacity="1" stop-color="rgb(94.419861%, 96.818542%, 97.264099%)" offset="0.046875"/><stop stop-opacity="1" stop-color="rgb(94.200134%, 96.69342%, 97.157288%)" offset="0.0625"/><stop stop-opacity="1" stop-color="rgb(93.980408%, 96.568298%, 97.04895%)" offset="0.078125"/><stop stop-opacity="1" stop-color="rgb(93.760681%, 96.443176%, 96.942139%)" offset="0.09375"/><stop stop-opacity="1" stop-color="rgb(93.540955%, 96.318054%, 96.833801%)" offset="0.109375"/><stop stop-opacity="1" stop-color="rgb(93.321228%, 96.192932%, 96.72699%)" offset="0.125"/><stop stop-opacity="1" stop-color="rgb(93.101501%, 96.06781%, 96.618652%)" offset="0.140625"/><stop stop-opacity="1" stop-color="rgb(92.883301%, 95.942688%, 96.511841%)" offset="0.15625"/><stop stop-opacity="1" stop-color="rgb(92.663574%, 95.817566%, 96.403503%)" offset="0.171875"/><stop stop-opacity="1" stop-color="rgb(92.443848%, 95.692444%, 96.296692%)" offset="0.1875"/><stop stop-opacity="1" stop-color="rgb(92.224121%, 95.567322%, 96.18988%)" offset="0.203125"/><stop stop-opacity="1" stop-color="rgb(92.004395%, 95.4422%, 96.081543%)" offset="0.21875"/><stop stop-opacity="1" stop-color="rgb(91.784668%, 95.317078%, 95.974731%)" offset="0.234375"/><stop stop-opacity="1" stop-color="rgb(91.564941%, 95.191956%, 95.866394%)" offset="0.25"/><stop stop-opacity="1" stop-color="rgb(91.346741%, 95.066833%, 95.759583%)" offset="0.265625"/><stop stop-opacity="1" stop-color="rgb(91.127014%, 94.941711%, 95.651245%)" offset="0.28125"/><stop stop-opacity="1" stop-color="rgb(90.907288%, 94.816589%, 95.544434%)" offset="0.296875"/><stop stop-opacity="1" stop-color="rgb(90.687561%, 94.691467%, 95.436096%)" offset="0.3125"/><stop stop-opacity="1" stop-color="rgb(90.467834%, 94.566345%, 95.329285%)" offset="0.328125"/><stop stop-opacity="1" stop-color="rgb(90.248108%, 94.441223%, 95.220947%)" offset="0.34375"/><stop stop-opacity="1" stop-color="rgb(90.028381%, 94.316101%, 95.114136%)" offset="0.359375"/><stop stop-opacity="1" stop-color="rgb(89.810181%, 94.190979%, 95.005798%)" offset="0.375"/><stop stop-opacity="1" stop-color="rgb(89.590454%, 94.065857%, 94.898987%)" offset="0.390625"/><stop stop-opacity="1" stop-color="rgb(89.370728%, 93.940735%, 94.790649%)" offset="0.40625"/><stop stop-opacity="1" stop-color="rgb(89.151001%, 93.815613%, 94.683838%)" offset="0.421875"/><stop stop-opacity="1" stop-color="rgb(88.931274%, 93.690491%, 94.5755%)" offset="0.4375"/><stop stop-opacity="1" stop-color="rgb(88.711548%, 93.565369%, 94.468689%)" offset="0.453125"/><stop stop-opacity="1" stop-color="rgb(88.491821%, 93.440247%, 94.360352%)" offset="0.46875"/><stop stop-opacity="1" stop-color="rgb(88.272095%, 93.315125%, 94.25354%)" offset="0.484375"/><stop stop-opacity="1" stop-color="rgb(88.053894%, 93.190002%, 94.145203%)" offset="0.5"/><stop stop-opacity="1" stop-color="rgb(87.834167%, 93.06488%, 94.038391%)" offset="0.515625"/><stop stop-opacity="1" stop-color="rgb(87.614441%, 92.939758%, 93.930054%)" offset="0.53125"/><stop stop-opacity="1" stop-color="rgb(87.394714%, 92.814636%, 93.823242%)" offset="0.546875"/><stop stop-opacity="1" stop-color="rgb(87.174988%, 92.689514%, 93.714905%)" offset="0.5625"/><stop stop-opacity="1" stop-color="rgb(86.955261%, 92.564392%, 93.608093%)" offset="0.578125"/><stop stop-opacity="1" stop-color="rgb(86.735535%, 92.43927%, 93.499756%)" offset="0.59375"/><stop stop-opacity="1" stop-color="rgb(86.517334%, 92.314148%, 93.392944%)" offset="0.609375"/><stop stop-opacity="1" stop-color="rgb(86.297607%, 92.189026%, 93.284607%)" offset="0.625"/><stop stop-opacity="1" stop-color="rgb(86.077881%, 92.063904%, 93.177795%)" offset="0.640625"/><stop stop-opacity="1" stop-color="rgb(85.858154%, 91.938782%, 93.069458%)" offset="0.65625"/><stop stop-opacity="1" stop-color="rgb(85.638428%, 91.81366%, 92.962646%)" offset="0.671875"/><stop stop-opacity="1" stop-color="rgb(85.418701%, 91.688538%, 92.854309%)" offset="0.6875"/><stop stop-opacity="1" stop-color="rgb(85.198975%, 91.563416%, 92.747498%)" offset="0.703125"/><stop stop-opacity="1" stop-color="rgb(84.979248%, 91.438293%, 92.63916%)" offset="0.71875"/><stop stop-opacity="1" stop-color="rgb(84.761047%, 91.313171%, 92.532349%)" offset="0.734375"/><stop stop-opacity="1" stop-color="rgb(84.541321%, 91.188049%, 92.424011%)" offset="0.75"/><stop stop-opacity="1" stop-color="rgb(84.321594%, 91.062927%, 92.3172%)" offset="0.765625"/><stop stop-opacity="1" stop-color="rgb(84.101868%, 90.937805%, 92.208862%)" offset="0.78125"/><stop stop-opacity="1" stop-color="rgb(83.882141%, 90.812683%, 92.102051%)" offset="0.796875"/><stop stop-opacity="1" stop-color="rgb(83.662415%, 90.687561%, 91.993713%)" offset="0.8125"/><stop stop-opacity="1" stop-color="rgb(83.442688%, 90.562439%, 91.886902%)" offset="0.828125"/><stop stop-opacity="1" stop-color="rgb(83.224487%, 90.437317%, 91.778564%)" offset="0.84375"/><stop stop-opacity="1" stop-color="rgb(83.004761%, 90.312195%, 91.671753%)" offset="0.859375"/><stop stop-opacity="1" stop-color="rgb(82.785034%, 90.187073%, 91.563416%)" offset="0.875"/><stop stop-opacity="1" stop-color="rgb(82.565308%, 90.061951%, 91.456604%)" offset="0.890625"/><stop stop-opacity="1" stop-color="rgb(82.345581%, 89.936829%, 91.348267%)" offset="0.90625"/><stop stop-opacity="1" stop-color="rgb(82.125854%, 89.811707%, 91.241455%)" offset="0.921875"/><stop stop-opacity="1" stop-color="rgb(81.906128%, 89.686584%, 91.133118%)" offset="0.9375"/><stop stop-opacity="1" stop-color="rgb(81.687927%, 89.561462%, 91.026306%)" offset="0.953125"/><stop stop-opacity="1" stop-color="rgb(81.468201%, 89.43634%, 90.917969%)" offset="0.96875"/><stop stop-opacity="1" stop-color="rgb(81.248474%, 89.311218%, 90.811157%)" offset="0.984375"/><stop stop-opacity="1" stop-color="rgb(81.028748%, 89.186096%, 90.70282%)" offset="1"/></linearGradient><clipPath id="905543bf48"><path d="M 76 141 L 171 141 L 171 186 L 76 186 Z M 76 141 " clip-rule="nonzero"/></clipPath><clipPath id="4a28361014"><path d="M 123.929688 141.28125 C 121.695312 141.285156 119.46875 141.410156 117.246094 141.65625 C 115.027344 141.90625 112.824219 142.273438 110.644531 142.757812 C 108.460938 143.246094 106.3125 143.847656 104.199219 144.570312 C 102.082031 145.289062 100.011719 146.125 97.988281 147.070312 C 95.960938 148.015625 93.996094 149.070312 92.085938 150.230469 C 90.175781 151.390625 88.335938 152.652344 86.5625 154.015625 C 84.789062 155.375 83.09375 156.828125 81.480469 158.375 C 79.867188 159.917969 78.34375 161.546875 76.90625 163.261719 C 77.625 164.109375 78.371094 164.9375 79.136719 165.75 C 79.902344 166.558594 80.6875 167.347656 81.496094 168.113281 C 82.304688 168.878906 83.136719 169.625 83.984375 170.347656 C 84.832031 171.066406 85.699219 171.765625 86.589844 172.441406 C 87.476562 173.117188 88.378906 173.765625 89.300781 174.390625 C 90.222656 175.019531 91.164062 175.617188 92.117188 176.191406 C 93.070312 176.769531 94.042969 177.316406 95.027344 177.839844 C 96.011719 178.359375 97.007812 178.855469 98.019531 179.324219 C 99.03125 179.792969 100.054688 180.234375 101.089844 180.644531 C 102.125 181.058594 103.171875 181.445312 104.226562 181.800781 C 105.28125 182.15625 106.347656 182.484375 107.421875 182.78125 C 108.496094 183.078125 109.578125 183.347656 110.664062 183.589844 C 111.753906 183.828125 112.847656 184.039062 113.945312 184.21875 C 115.046875 184.398438 116.152344 184.550781 117.257812 184.667969 C 118.367188 184.789062 119.476562 184.882812 120.589844 184.941406 C 121.703125 185 122.816406 185.03125 123.929688 185.03125 C 125.046875 185.03125 126.160156 185 127.273438 184.941406 C 128.386719 184.882812 129.496094 184.789062 130.605469 184.667969 C 131.710938 184.550781 132.816406 184.398438 133.914062 184.21875 C 135.015625 184.039062 136.109375 183.828125 137.199219 183.589844 C 138.285156 183.347656 139.367188 183.078125 140.441406 182.78125 C 141.515625 182.484375 142.582031 182.15625 143.636719 181.800781 C 144.691406 181.445312 145.738281 181.058594 146.773438 180.644531 C 147.808594 180.234375 148.832031 179.792969 149.84375 179.324219 C 150.855469 178.855469 151.851562 178.359375 152.835938 177.839844 C 153.820312 177.316406 154.792969 176.769531 155.746094 176.191406 C 156.699219 175.617188 157.640625 175.019531 158.5625 174.390625 C 159.484375 173.765625 160.386719 173.117188 161.273438 172.441406 C 162.160156 171.765625 163.03125 171.066406 163.878906 170.347656 C 164.726562 169.625 165.558594 168.878906 166.367188 168.113281 C 167.175781 167.347656 167.960938 166.558594 168.726562 165.75 C 169.492188 164.9375 170.238281 164.109375 170.957031 163.261719 C 169.519531 161.546875 167.996094 159.917969 166.382812 158.375 C 164.765625 156.828125 163.074219 155.375 161.300781 154.015625 C 159.527344 152.652344 157.6875 151.390625 155.777344 150.230469 C 153.867188 149.070312 151.902344 148.015625 149.875 147.070312 C 147.851562 146.125 145.78125 145.289062 143.664062 144.570312 C 141.550781 143.847656 139.402344 143.246094 137.21875 142.757812 C 135.039062 142.273438 132.835938 141.90625 130.617188 141.65625 C 128.394531 141.410156 126.167969 141.285156 123.929688 141.28125 Z M 123.929688 141.28125 " clip-rule="nonzero"/></clipPath><linearGradient x1="24" gradientTransform="matrix(5.878271, 0, 0, 5.876831, -17.147033, -26.385455)" y1="35.97472" x2="24" gradientUnits="userSpaceOnUse" y2="28.530001" id="db2aa2cf49"><stop stop-opacity="1" stop-color="rgb(15.12146%, 22.427368%, 59.458923%)" offset="0"/><stop stop-opacity="1" stop-color="rgb(15.101624%, 22.396851%, 59.312439%)" offset="0.0625"/><stop stop-opacity="1" stop-color="rgb(15.063477%, 22.337341%, 59.017944%)" offset="0.125"/><stop stop-opacity="1" stop-color="rgb(15.02533%, 22.277832%, 58.724976%)" offset="0.1875"/><stop stop-opacity="1" stop-color="rgb(14.985657%, 22.218323%, 58.432007%)" offset="0.25"/><stop stop-opacity="1" stop-color="rgb(14.94751%, 22.158813%, 58.137512%)" offset="0.3125"/><stop stop-opacity="1" stop-color="rgb(14.907837%, 22.099304%, 57.844543%)" offset="0.375"/><stop stop-opacity="1" stop-color="rgb(14.86969%, 22.039795%, 57.551575%)" offset="0.4375"/><stop stop-opacity="1" stop-color="rgb(14.831543%, 21.980286%, 57.25708%)" offset="0.5"/><stop stop-opacity="1" stop-color="rgb(14.79187%, 21.920776%, 56.964111%)" offset="0.5625"/><stop stop-opacity="1" stop-color="rgb(14.753723%, 21.861267%, 56.671143%)" offset="0.625"/><stop stop-opacity="1" stop-color="rgb(14.71405%, 21.801758%, 56.376648%)" offset="0.6875"/><stop stop-opacity="1" stop-color="rgb(14.675903%, 21.742249%, 56.083679%)" offset="0.75"/><stop stop-opacity="1" stop-color="rgb(14.637756%, 21.682739%, 55.79071%)" offset="0.8125"/><stop stop-opacity="1" stop-color="rgb(14.598083%, 21.62323%, 55.496216%)" offset="0.875"/><stop stop-opacity="1" stop-color="rgb(14.559937%, 21.563721%, 55.203247%)" offset="0.9375"/><stop stop-opacity="1" stop-color="rgb(14.520264%, 21.504211%, 54.910278%)" offset="1"/></linearGradient><clipPath id="f9d9c8a67b"><path d="M 101 141 L 147 141 L 147 161 L 101 161 Z M 101 141 " clip-rule="nonzero"/></clipPath><clipPath id="ad6fcb3690"><path d="M 123.929688 141.28125 C 116.089844 141.3125 108.527344 142.78125 101.242188 145.6875 C 101.714844 146.792969 102.265625 147.855469 102.894531 148.878906 C 103.523438 149.902344 104.222656 150.875 104.992188 151.796875 C 105.765625 152.714844 106.597656 153.578125 107.496094 154.375 C 108.390625 155.175781 109.339844 155.90625 110.34375 156.566406 C 111.347656 157.226562 112.390625 157.8125 113.480469 158.320312 C 114.566406 158.828125 115.6875 159.257812 116.839844 159.601562 C 117.988281 159.945312 119.160156 160.207031 120.347656 160.378906 C 121.535156 160.554688 122.730469 160.640625 123.929688 160.640625 C 125.132812 160.640625 126.328125 160.554688 127.515625 160.378906 C 128.703125 160.207031 129.875 159.945312 131.023438 159.601562 C 132.175781 159.257812 133.292969 158.828125 134.382812 158.320312 C 135.472656 157.8125 136.515625 157.226562 137.519531 156.566406 C 138.523438 155.90625 139.472656 155.175781 140.367188 154.375 C 141.265625 153.578125 142.097656 152.714844 142.871094 151.796875 C 143.640625 150.875 144.339844 149.902344 144.96875 148.878906 C 145.597656 147.855469 146.148438 146.792969 146.621094 145.6875 C 139.335938 142.78125 131.773438 141.3125 123.929688 141.28125 Z M 123.929688 141.28125 " clip-rule="nonzero"/></clipPath><linearGradient x1="24" gradientTransform="matrix(5.878271, 0, 0, 5.876831, -17.147033, -26.385455)" y1="31.824587" x2="24" gradientUnits="userSpaceOnUse" y2="28.530001" id="1a30d33bf8"><stop stop-opacity="1" stop-color="rgb(14.163208%, 20.956421%, 52.203369%)" offset="0"/><stop stop-opacity="1" stop-color="rgb(14.14032%, 20.921326%, 52.032471%)" offset="0.03125"/><stop stop-opacity="1" stop-color="rgb(14.096069%, 20.851135%, 51.690674%)" offset="0.0625"/><stop stop-opacity="1" stop-color="rgb(14.050293%, 20.782471%, 51.350403%)" offset="0.09375"/><stop stop-opacity="1" stop-color="rgb(14.006042%, 20.713806%, 51.008606%)" offset="0.125"/><stop stop-opacity="1" stop-color="rgb(13.960266%, 20.643616%, 50.668335%)" offset="0.15625"/><stop stop-opacity="1" stop-color="rgb(13.916016%, 20.574951%, 50.326538%)" offset="0.1875"/><stop stop-opacity="1" stop-color="rgb(13.870239%, 20.506287%, 49.986267%)" offset="0.21875"/><stop stop-opacity="1" stop-color="rgb(13.825989%, 20.436096%, 49.64447%)" offset="0.25"/><stop stop-opacity="1" stop-color="rgb(13.780212%, 20.367432%, 49.304199%)" offset="0.28125"/><stop stop-opacity="1" stop-color="rgb(13.735962%, 20.298767%, 48.962402%)" offset="0.3125"/><stop stop-opacity="1" stop-color="rgb(13.690186%, 20.228577%, 48.622131%)" offset="0.34375"/><stop stop-opacity="1" stop-color="rgb(13.645935%, 20.159912%, 48.28186%)" offset="0.375"/><stop stop-opacity="1" stop-color="rgb(13.600159%, 20.091248%, 47.940063%)" offset="0.40625"/><stop stop-opacity="1" stop-color="rgb(13.555908%, 20.021057%, 47.599792%)" offset="0.4375"/><stop stop-opacity="1" stop-color="rgb(13.510132%, 19.952393%, 47.257996%)" offset="0.46875"/><stop stop-opacity="1" stop-color="rgb(13.465881%, 19.883728%, 46.917725%)" offset="0.5"/><stop stop-opacity="1" stop-color="rgb(13.420105%, 19.813538%, 46.575928%)" offset="0.53125"/><stop stop-opacity="1" stop-color="rgb(13.375854%, 19.744873%, 46.235657%)" offset="0.5625"/><stop stop-opacity="1" stop-color="rgb(13.330078%, 19.676208%, 45.89386%)" offset="0.59375"/><stop stop-opacity="1" stop-color="rgb(13.285828%, 19.606018%, 45.553589%)" offset="0.625"/><stop stop-opacity="1" stop-color="rgb(13.240051%, 19.537354%, 45.211792%)" offset="0.65625"/><stop stop-opacity="1" stop-color="rgb(13.195801%, 19.468689%, 44.871521%)" offset="0.6875"/><stop stop-opacity="1" stop-color="rgb(13.150024%, 19.398499%, 44.529724%)" offset="0.71875"/><stop stop-opacity="1" stop-color="rgb(13.105774%, 19.329834%, 44.189453%)" offset="0.75"/><stop stop-opacity="1" stop-color="rgb(13.059998%, 19.261169%, 43.847656%)" offset="0.78125"/><stop stop-opacity="1" stop-color="rgb(13.015747%, 19.190979%, 43.507385%)" offset="0.8125"/><stop stop-opacity="1" stop-color="rgb(12.969971%, 19.122314%, 43.165588%)" offset="0.84375"/><stop stop-opacity="1" stop-color="rgb(12.92572%, 19.05365%, 42.825317%)" offset="0.875"/><stop stop-opacity="1" stop-color="rgb(12.879944%, 18.983459%, 42.483521%)" offset="0.90625"/><stop stop-opacity="1" stop-color="rgb(12.834167%, 18.914795%, 42.14325%)" offset="0.9375"/><stop stop-opacity="1" stop-color="rgb(12.789917%, 18.84613%, 41.801453%)" offset="0.96875"/><stop stop-opacity="1" stop-color="rgb(12.744141%, 18.77594%, 41.461182%)" offset="1"/></linearGradient><clipPath id="28bb4c9096"><path d="M 99 86 L 149 86 L 149 136 L 99 136 Z M 99 86 " clip-rule="nonzero"/></clipPath><clipPath id="d21bf6efb7"><path d="M 148.621094 111.191406 C 148.621094 112 148.582031 112.804688 148.5 113.609375 C 148.421875 114.414062 148.304688 115.214844 148.144531 116.007812 C 147.988281 116.800781 147.792969 117.582031 147.558594 118.355469 C 147.324219 119.128906 147.050781 119.890625 146.742188 120.636719 C 146.429688 121.382812 146.085938 122.113281 145.703125 122.828125 C 145.324219 123.539062 144.910156 124.230469 144.460938 124.902344 C 144.011719 125.578125 143.527344 126.226562 143.015625 126.851562 C 142.503906 127.472656 141.960938 128.074219 141.390625 128.644531 C 140.816406 129.214844 140.21875 129.757812 139.59375 130.269531 C 138.96875 130.785156 138.320312 131.265625 137.648438 131.714844 C 136.976562 132.164062 136.28125 132.578125 135.570312 132.960938 C 134.855469 133.339844 134.125 133.6875 133.378906 133.996094 C 132.632812 134.304688 131.871094 134.578125 131.097656 134.8125 C 130.324219 135.046875 129.542969 135.242188 128.746094 135.398438 C 127.953125 135.558594 127.15625 135.675781 126.351562 135.753906 C 125.546875 135.835938 124.738281 135.875 123.929688 135.875 C 123.121094 135.875 122.316406 135.835938 121.511719 135.753906 C 120.707031 135.675781 119.90625 135.558594 119.113281 135.398438 C 118.320312 135.242188 117.539062 135.046875 116.765625 134.8125 C 115.992188 134.578125 115.230469 134.304688 114.484375 133.996094 C 113.738281 133.6875 113.007812 133.339844 112.292969 132.960938 C 111.582031 132.578125 110.886719 132.164062 110.214844 131.714844 C 109.542969 131.265625 108.894531 130.785156 108.269531 130.269531 C 107.644531 129.757812 107.046875 129.214844 106.472656 128.644531 C 105.902344 128.074219 105.359375 127.472656 104.847656 126.851562 C 104.332031 126.226562 103.851562 125.578125 103.402344 124.902344 C 102.953125 124.230469 102.539062 123.539062 102.15625 122.828125 C 101.777344 122.113281 101.429688 121.382812 101.121094 120.636719 C 100.8125 119.890625 100.539062 119.128906 100.304688 118.355469 C 100.070312 117.582031 99.875 116.800781 99.71875 116.007812 C 99.558594 115.214844 99.441406 114.414062 99.363281 113.609375 C 99.28125 112.804688 99.242188 112 99.242188 111.191406 C 99.242188 110.382812 99.28125 109.578125 99.363281 108.773438 C 99.441406 107.96875 99.558594 107.167969 99.71875 106.375 C 99.875 105.582031 100.070312 104.800781 100.304688 104.027344 C 100.539062 103.253906 100.8125 102.492188 101.121094 101.746094 C 101.429688 101 101.777344 100.269531 102.15625 99.554688 C 102.539062 98.84375 102.953125 98.148438 103.402344 97.476562 C 103.851562 96.804688 104.332031 96.15625 104.847656 95.53125 C 105.359375 94.90625 105.902344 94.308594 106.472656 93.738281 C 107.046875 93.167969 107.644531 92.625 108.269531 92.109375 C 108.894531 91.597656 109.542969 91.117188 110.214844 90.667969 C 110.886719 90.21875 111.582031 89.804688 112.292969 89.421875 C 113.007812 89.042969 113.738281 88.695312 114.484375 88.386719 C 115.230469 88.078125 115.992188 87.804688 116.765625 87.570312 C 117.539062 87.335938 118.320312 87.140625 119.113281 86.984375 C 119.90625 86.824219 120.707031 86.707031 121.511719 86.628906 C 122.316406 86.546875 123.121094 86.507812 123.929688 86.507812 C 124.738281 86.511719 125.546875 86.550781 126.347656 86.632812 C 127.152344 86.714844 127.953125 86.832031 128.742188 86.992188 C 129.535156 87.152344 130.320312 87.347656 131.089844 87.585938 C 131.863281 87.820312 132.625 88.09375 133.371094 88.402344 C 134.117188 88.714844 134.847656 89.058594 135.558594 89.441406 C 136.269531 89.820312 136.960938 90.238281 137.632812 90.6875 C 138.304688 91.136719 138.953125 91.617188 139.578125 92.128906 C 140.203125 92.640625 140.800781 93.183594 141.371094 93.753906 C 141.941406 94.328125 142.484375 94.925781 143 95.546875 C 143.511719 96.171875 143.992188 96.820312 144.441406 97.492188 C 144.890625 98.164062 145.304688 98.855469 145.6875 99.566406 C 146.070312 100.28125 146.414062 101.007812 146.726562 101.753906 C 147.035156 102.5 147.308594 103.261719 147.542969 104.03125 C 147.78125 104.804688 147.976562 105.585938 148.136719 106.378906 C 148.296875 107.171875 148.414062 107.96875 148.496094 108.773438 C 148.578125 109.578125 148.617188 110.382812 148.621094 111.191406 Z M 148.621094 111.191406 " clip-rule="nonzero"/></clipPath><linearGradient x1="24" gradientTransform="matrix(5.878271, 0, 0, 5.876831, -17.147033, -26.385455)" y1="27.609999" x2="24" gradientUnits="userSpaceOnUse" y2="19.209999" id="7e0756e338"><stop stop-opacity="1" stop-color="rgb(14.425659%, 21.357727%, 54.182434%)" offset="0"/><stop stop-opacity="1" stop-color="rgb(14.402771%, 21.324158%, 54.016113%)" offset="0.0625"/><stop stop-opacity="1" stop-color="rgb(14.358521%, 21.257019%, 53.684998%)" offset="0.125"/><stop stop-opacity="1" stop-color="rgb(14.315796%, 21.18988%, 53.353882%)" offset="0.1875"/><stop stop-opacity="1" stop-color="rgb(14.271545%, 21.122742%, 53.022766%)" offset="0.25"/><stop stop-opacity="1" stop-color="rgb(14.227295%, 21.055603%, 52.69165%)" offset="0.3125"/><stop stop-opacity="1" stop-color="rgb(14.18457%, 20.988464%, 52.360535%)" offset="0.375"/><stop stop-opacity="1" stop-color="rgb(14.14032%, 20.921326%, 52.029419%)" offset="0.4375"/><stop stop-opacity="1" stop-color="rgb(14.097595%, 20.854187%, 51.698303%)" offset="0.5"/><stop stop-opacity="1" stop-color="rgb(14.053345%, 20.787048%, 51.367188%)" offset="0.5625"/><stop stop-opacity="1" stop-color="rgb(14.009094%, 20.718384%, 51.036072%)" offset="0.625"/><stop stop-opacity="1" stop-color="rgb(13.96637%, 20.651245%, 50.704956%)" offset="0.6875"/><stop stop-opacity="1" stop-color="rgb(13.922119%, 20.584106%, 50.37384%)" offset="0.75"/><stop stop-opacity="1" stop-color="rgb(13.877869%, 20.516968%, 50.042725%)" offset="0.8125"/><stop stop-opacity="1" stop-color="rgb(13.835144%, 20.449829%, 49.711609%)" offset="0.875"/><stop stop-opacity="1" stop-color="rgb(13.790894%, 20.38269%, 49.380493%)" offset="0.9375"/><stop stop-opacity="1" stop-color="rgb(13.746643%, 20.315552%, 49.049377%)" offset="1"/></linearGradient><clipPath id="4e359f95a2"><rect x="0" width="249" y="0" height="231"/></clipPath></defs><g mask="url(#32b0bf24ef)"><g transform="matrix(1, 0, 0, 1, 388, 168)"><g clip-path="url(#4e359f95a2)"><g clip-path="url(#d84bc1d76b)"><g clip-path="url(#31437bedaf)"><path fill="url(#1dca2937ee)" d="M 0.488281 0.0585938 L 0.488281 229.257812 L 247.375 229.257812 L 247.375 0.0585938 Z M 0.488281 0.0585938 " fill-rule="nonzero"/></g></g><g clip-path="url(#c8364871d4)"><g clip-path="url(#602348af8d)"><path fill="url(#e4fd4ce34e)" d="M 0.484375 0.0585938 L 0.484375 35.320312 L 247.378906 35.320312 L 247.378906 0.0585938 Z M 0.484375 0.0585938 " fill-rule="nonzero"/></g></g><g clip-path="url(#0ae4da2928)"><path fill="url(#69d57429d2)" d="M 0.488281 35.320312 L 0.488281 52.953125 L 247.375 52.953125 L 247.375 35.320312 Z M 0.488281 35.320312 " fill-rule="nonzero"/></g><g clip-path="url(#d72b2f4256)"><g clip-path="url(#fb8b02a850)"><path fill="url(#2740e80c34)" d="M 27.410156 13.402344 L 27.410156 21.980469 L 35.992188 21.980469 L 35.992188 13.402344 Z M 27.410156 13.402344 " fill-rule="nonzero"/></g></g><g clip-path="url(#5a77c37ba3)"><g clip-path="url(#bd6093e75b)"><path fill="url(#bae6a0a7ec)" d="M 49.101562 13.398438 L 49.101562 21.980469 L 57.6875 21.980469 L 57.6875 13.398438 Z M 49.101562 13.398438 " fill-rule="nonzero"/></g></g><g clip-path="url(#4f242c5361)"><g clip-path="url(#c99e2fcb5f)"><path fill="url(#e17e73e819)" d="M 70.792969 13.402344 L 70.792969 21.980469 L 79.375 21.980469 L 79.375 13.402344 Z M 70.792969 13.402344 " fill-rule="nonzero"/></g></g><g clip-path="url(#b2687f2adf)"><g clip-path="url(#0fc8a4d4af)"><path fill="url(#4b11c669cc)" d="M 62.210938 61.765625 L 62.210938 185.179688 L 185.652344 185.179688 L 185.652344 61.765625 Z M 62.210938 61.765625 " fill-rule="nonzero"/></g></g><g clip-path="url(#905543bf48)"><g clip-path="url(#4a28361014)"><path fill="url(#db2aa2cf49)" d="M 76.90625 141.28125 L 76.90625 185.03125 L 170.957031 185.03125 L 170.957031 141.28125 Z M 76.90625 141.28125 " fill-rule="nonzero"/></g></g><g clip-path="url(#f9d9c8a67b)"><g clip-path="url(#ad6fcb3690)"><path fill="url(#1a30d33bf8)" d="M 101.242188 141.28125 L 101.242188 160.640625 L 146.621094 160.640625 L 146.621094 141.28125 Z M 101.242188 141.28125 " fill-rule="nonzero"/></g></g><g clip-path="url(#28bb4c9096)"><g clip-path="url(#d21bf6efb7)"><path fill="url(#7e0756e338)" d="M 99.242188 86.507812 L 99.242188 135.875 L 148.621094 135.875 L 148.621094 86.507812 Z M 99.242188 86.507812 " fill-rule="nonzero"/></g></g></g></g></g></svg>