<svg version="1.2" xmlns="http://www.w3.org/2000/svg" viewBox="0 0 346 324" width="346" height="324">
	<title>abt-story-svg</title>
	<defs>
		<clipPath clipPathUnits="userSpaceOnUse" id="cp1">
			<path d="m14 4.09h314v289.91h-314z"/>
		</clipPath>
		<clipPath clipPathUnits="userSpaceOnUse" id="cp2">
			<path d="m44.06 75h295.71v130.63h-295.71z"/>
		</clipPath>
		<clipPath clipPathUnits="userSpaceOnUse" id="cp3">
			<path d="m224.19 306.02h22v18.16h-22z"/>
		</clipPath>
	</defs>
	<style>
		.s0 { fill: #deeffa } 
		.s1 { fill: #3e1f17 } 
		.s2 { fill: #d5ecf6 } 
		.s3 { fill: #acc6e8 } 
		.s4 { fill: #bc2a74 } 
		.s5 { fill: #6c341f } 
		.s6 { fill: #ee8960 } 
		.s7 { fill: #f89a75 } 
		.s8 { fill: #a55f48 } 
		.s9 { fill: #f1fafe } 
		.s10 { fill: #2f2f50 } 
		.s11 { fill: #831d4b } 
		.s12 { fill: #edf5fc } 
		.s13 { fill: #9cc1e9 } 
		.s14 { fill: #e7896e } 
		.s15 { fill: #596dbe } 
		.s16 { fill: #cd6d49 } 
		.s17 { fill: #fbd01c } 
		.s18 { fill: #3749a6 } 
		.s19 { fill: #f68425 } 
		.s20 { fill: #ef2b97 } 
		.s21 { fill: #bc145a } 
		.s22 { fill: #389860 } 
		.s23 { fill: #89d59d } 
		.s24 { fill: #5dc580 } 
		.s25 { fill: #605c92 } 
		.s26 { fill: #ffffff } 
		.s27 { fill: #4c497c } 
		.s28 { fill: #cba57f } 
		.s29 { fill: #7b5b3f } 
		.s30 { fill: #b36c52 } 
		.s31 { fill: #5d3963 } 
		.s32 { fill: #341d36 } 
		.s33 { fill: #ea611a } 
		.s34 { fill: #de8e6f } 
		.s35 { fill: #5f1316 } 
		.s36 { fill: #861438 } 
		.s37 { fill: #f7fafb } 
		.s38 { fill: #291a13 } 
		.s39 { fill: #b3cfdd } 
		.s40 { fill: #41406b } 
		.s41 { fill: #9f7b57 } 
	</style>
	<path id="Layer" fill-rule="evenodd" class="s0" d="m50.9 281.1q-0.1 3.2-3.1 4.8 0.5-0.4 0.9-0.8 2.3-1.8 2.2-4.6 0 0.3 0 0.6zm-21.3-10.2l-0.4 1.8-0.4 0.8zm-0.4-7.6l0.1 1.2q-0.1-0.6-0.2-1.1 0.1 0 0.1-0.1zm4.4-0.8q0 0.4-0.1 0.9l-3.2-0.4q1.8-0.5 3.3-0.5zm189.6-80q0.4 0 0.9 0l-0.9 0.5z"/>
	<g id="Clip-Path" clip-path="url(#cp1)">
		<g id="Layer">
			<path id="Layer" fill-rule="evenodd" class="s1" d="m236.5 182.4h-0.1q-1.8 0.1-3.2-0.7-0.1-0.1-0.2-0.1-0.4-0.2-0.6-0.7-0.1-0.1-0.1-0.2 0-0.1 0-0.1 1.5-2.5 2.7-4.5 0.2-0.3 0.4-0.7 0.1-0.1 0.2-0.2 2.6-4.1 3.9-5.5v-0.1q0.1 0 0.1 0.5 0 4.2-0.6 7-0.4 1.7-1 3-0.5 0.9-1.3 2.3-0.1 0-0.2 0zm-8.8-8.1q0-0.1 0-0.2-0.1-0.3-0.2-0.6 0-0.1 0-0.2-0.4-2-0.4-2.1-0.2-0.6-0.4-1.1-0.2-0.9-0.3-1.3v-0.1q0.5-0.8 1.2-1.5 0.2-0.2 0.4-0.4 2.8-2.6 6.4-2.6h2.3v0.5q-2.8 1.3-5.9 5.7-0.3 0.4-0.7 1-0.1 0.2-0.3 0.5-0.2 0.3-0.4 0.6 0 0.1 0 0.1-0.4 0.5-0.6 1-0.3 0.4-0.5 0.8-0.2 0.5-0.4 0.8-0.1-0.4-0.2-0.9zm11.1-14.8q-0.2 0.3-0.7 0.4-0.3 0-6.8-0.9-0.5-0.1-0.9-0.2 1.6-1.5 3.6-1.9 2.7 1.3 4.8 2.6zm1.9-1.8q1.9-1.7 4.8-1.6 2.8 0 4.7 1.6 2.1 1.9 2.1 4.9 0 0.5-0.1 1.4-0.3 1.4-0.9 2.6-1.2 2.5-3.4 3.4-1.2 0.4-2.6 0.4-3.3 0-5.3-3.3-1.4-2.5-1.4-4.3 0-2.9 1.6-4.7 0.3-0.2 0.5-0.4zm-127.5-134q0.3-0.4 0.6-0.8 0.7-0.9 1.5-1.8 2.6-3.1 5-4.9 2.3-1.7 2.3-0.9 0-0.4-3.3 4-1.7 2.4-2.9 4.4-0.8 1.4-1.4 2.6-0.5-1.2-1.4-1.8-0.4-0.2-0.8-0.2 0.2-0.3 0.4-0.6zm9.8-16.1q0.2 0.1 0.4 0.1-1.5 1.7-2.4 2.2-0.4-0.2-0.6-0.7 0.4-1 0.8-1.9 0.9 0.1 1.8 0.3zm201.8 53.7q-0.3 0.4-0.5 0.9-1.8 2.3-3 3.3-1.2 1-3.4 1.8-0.8-0.2-1.8 0-1.1 0.1-2.2 0.3-1.7 0.4-3.5 0.7-3.6 0.4-6.2-2.4-0.1-0.1-0.2-0.2-0.9-0.6-1.3-1.3-0.5-0.9 0.1-3.4 0.3-1 0.6-1.5 0.1-0.1 0.3-0.2 0.5 0.6 0.9 2.2 0.5 1.4 0.7 2 0 0.1 0.1 0.2 0.4 1.3 0.9 1.7 0-0.5 0-1 0.3-1.1 1.3-1.3 0.8-0.2 1.3 0.3 0.2 0.3 0.6 1.2 0.4 0.8 0.8 1.1 0.6 0.4 1.8 0.2 5.9-1.1 7.7-2.6 0.6-0.6 1.8-2 1.2-1.4 1.6-2.1 0 0 0 0 0.4-0.7 0.9-1.5 0.4-0.9 0.5-1 1 1.3 1.5 2.5-0.5 1.2-1.3 2.1zm-3.1 11.5q-2 0.4-2.6-2 0-0.2 0-0.4 0.4-0.2 0.8-0.5 1.6-1.1 4.1-3.6 0.3-0.4 0.7-0.7 1.4-1.5 2.3-2.6 0.1 1.6-0.2 3.2-0.1 0.6-0.3 1.2-0.4 1.6-1.2 2.9 0 0 0 0-0.1-0.1-0.1-0.1-0.1 0-0.2 0-0.5-0.1-1.3 0.4-0.2 0.1-0.7 0.9-0.4 0.6-0.8 1-0.2 0.2-0.5 0.3zm-277.5 217.1q2.7-0.4 5.4-0.3 6.5 0.6 10.5-3.1 0.8-0.6 1.3-1.3 0.6-0.7 1-1.5 0.1 2.1-1.7 3.9-1.8 1.8-4.3 2.4-1.7 0.2-5.6 0.3-3.6 0.2-5.6 0.6v1.8q-0.8 0.1-3 0.6-2.2 0.5-3.4 0.6-3.7 0.4-5.3-3.7 1.3 1.5 3.7 1.1 1.1-0.1 2.5-0.6 2.3-0.4 4.5-0.8zm-15-17.2l4.1-3.6v1.2l-5.2 4.9 0.7-1.7zm-4.9 7l2-1.5q0-0.1 0-0.1 0.5-0.4 0.8-0.8-2.1 8.8-9.8 5.2-0.7-0.4-0.7-1.3 4.1 0.9 7.5-1.3 0.1-0.1 0.2-0.2zm0.1-138.9q-3.1 0.5-5.2-0.5-0.4-0.3-0.7-0.6-1-0.8-2-1.6-1.1-1.5-1.5-3.8-0.1-0.3-0.2-0.7-0.8-2.2-0.6-4.1 0.2 0 0-0.3 0.1-1.2 0.7-2.5 0.3-0.7 0.8-1.4 0.9 2.1 3.5 4.1 5.3 4.2 10.2 2.3 2.7-1.1 4.8-3.6 2.9-2 4.9-3.2 0 0.1 0 0.3-0.1 0.7-0.7 1.4-0.1 0.2-0.3 0.4v0.1q-0.1 0.1-0.2 0.2-0.1 0.1-0.1 0.1 0 0.1-0.1 0.1-0.2 0.2-0.5 0.5-0.2 0.4-0.5 0.8-0.1 0.2-0.3 0.4-0.3 0.5-0.7 1.1 0 0.1-0.1 0.2-0.8 1.1-1.6 2.3-0.1 0-0.1 0.1l-4 5.5q-0.3 0.4-0.7 0.8l0.6-3.4q0 0-0.1-0.1-0.1 0.1-0.2 0-0.1 0.1-0.1 0.1 0.7-0.5 1.4-1 0.5-0.4 0.8-0.6-7.6 3.4-14.6-2.2-0.8-0.6-1.6-1.4 0.7 0.9 1.3 1.7 1.8 2.5 2.7 3.2 3.2 2.6 7.3 1.4-1.2 1.2-1.3 3.7-0.5 0.1-1 0.2zm107.6-125.3q0.1 0.1 0.1 0.2 0 0 0 0-1.9-0.3-3.3-0.7-1.7-0.6-2.8-1.3v-0.3q0.4-0.1 1.1-0.2 0.9-0.2 2.5-0.3 0.1-0.1 0.3-0.1zm-19.3-5.4q-1.1 1.6-1.9 3-0.3 0.6-0.5 1.1-0.6 1.7-0.5 3.4 0.1 2.3 1.4 4.1l0.1 0.5q0.1 1.4 0.5 2.7-0.1 0.7 0.1 1.4 0.4 0.8 1 1.4 0 0.1 0.1 0.2 0 0 0 0 0 0.4 0 0.7-0.1 0.3-0.1 0.6 0 0.5-0.1 1.1 0 0.5-0.1 1 0 0.3-0.1 0.7 0 0.3 0 0.6-0.1 0.3-0.1 0.6 0 0.5-0.1 0.9-0.3 0.5-0.7 1.1-0.5 0.5-1 1-1.5-2.5-2.5-5.2-1.4-4.2-2-8.3-0.6-4-0.1-8.5 0-0.5 0.1-1 0.8-4 4.1-7.8 0.2-0.3 0.5-0.6 0.5-0.3 1-0.4 0.7-0.3 1.5-0.1 0.7 0.2 1.2 0.9l0.2 0.3 0.3 0.3q-0.3 0.2-1 0.7-0.3 0.2-0.5 0.4-0.2 0.2-0.3 0.5-0.3 0.4-0.3 1.1v0.1q0 0.4-0.1 1.2-0.1 0.1-0.1 0.3z"/>
		</g>
	</g>
	<path id="Layer" fill-rule="evenodd" class="s2" d="m133.7 67.3q-0.1 0.5-0.2 1.1-2.5 4.9-12.6 6.2-0.8 0-1.5 0-1-2.4-1-5.3 0-2.8 2.3-4.7 0.6-0.5 1.6-1.1 2-1.2 5.6-3.1 0.2 0 0.4 0 0.9 0 1.4 0 1.7 0 3.5 0.7 0 0.2-0.1 0.5-0.3 0.6-0.1 1.3 0.1 0.5 0.4 1.3 0.3 0.8 0.3 2.1 0.1 0.1 0 0.3 0 0.3 0 0.7zm10.7-3.8q-2.5-2.5-3.6-6.1-0.7-2.3-1.1-6.5-0.2-1.8-2.2-6-2.1-4.4-2.5-6.5-0.3-2.5-1.9-6-1.3-2.5-2.8-3.9 0-0.1 0-0.2 0.2 0 0.2 0.1 0.9 0.2 1.5 0.6 1.3 0.8 2.2 2.4 0.7 1.2 1.3 2.9 1.1 2.8 1.8 5.9 0.5 1.9 1.3 4.2 0.6 1.6 1.7 4.1 0.1 0.2 1.7 4 1 2.4 1.7 3.9 0.5 0.9 1.5 1.7 1.9 1.5 2 1.7v-0.1q2 1.9 3.1 3.7 1.2 1.6 2.3 3.1-1.8-0.1-3.2 1-4.8-3.8-5-4zm77.2 134.5q0.2-0.2 0.4-0.3 0.3-0.4 0.6-0.7 0.1-0.2 0.2-0.3 0.5-0.5 1.7-1.5 1.2-0.9 1.8-1.4 0.2-0.2 0.4-0.3 0.5-0.4 1.1-1 0.9-0.8 1.4-1.4 0.5-0.7 0.6-0.8 0.4 0 1.1 0.1 0.6 0 1.4 0 1.8-0.1 2.5 0 0.7 0 2.3 0.3 1.5 0.2 2.3 0.2 2.4-0.4 4.1-1.5 0.8-0.6 1.5-1.3 0.7-0.8 1-1.7 0.4-1.1-0.1-2.1-0.4-0.5-1.1-1v-0.1q-0.1 0-0.1 0-0.1-0.1-0.2-0.1l-0.9-0.7q0 0-0.1-0.1 1-0.5 1.4-0.7 0.1-0.1 0.1-0.1 0.4-0.3 0.8-0.4 0.3-0.2 0.6-0.2 0.9-0.3 1.7-0.1 2.6 0.6 4.2 4 0.1 0.2 0.1 0.3 0.2 0.4 0.3 0.7 0.3 1 0.5 2.1 0.1 1 0.1 2.1 0 0.3 0 0.6-0.1 1.9-0.6 3.8 0 0.1-0.1 0.2 0 0.1 0 0.2-0.5 2.4-1.8 5.4-0.6 1.3-1.7 3.7-0.4 1-0.9 2.1-0.4 0.9-0.7 1.8-0.4 0.9-0.9 1.8-0.9 1.8-1 3.8l1.3 2.5q0.8 1.4 1.1 2.6v0.1l0.4 1.3q-3.7 5-9.4 7.3-1.4 0.6-3.1 0.7-1 0.1-2 0-0.5-2.4-0.8-4.7-0.2-2.4-0.2-4.6 0-0.9 0-1.8 0.2-1.7 0.6-3.4 0.4-2 1.2-3.9 1-2.4 1.3-3.3 0.4-1.3 0.5-2.6 0.1-0.8 0.1-1.5 0-1.3-0.2-2.4-0.6-3.4-2.8-4.9-2.6-1.7-6.3-0.3-0.2 0.1-0.3 0.2-2.1 0.8-3.8 2.4-1.2 1.1-2.2 2.5l-0.2 0.4-1.1 1.4q1.6-3.1 1.9-3.4zm-1.9 10.1q0.5-1.3 1-2.6 0.5-1.3 1-2.7 0-0.1 0-0.1 0.9-2.5 2.9-4.4 1.2-1.2 2.8-1.6 0.5-0.2 1.1-0.3 0.1 0 0.1 0 0 0 0 0 0.2 0 0.5 0 0.1 0 0.2 0h0.3q0 0.1 0.1 0.1 0 0 0 0 0.8 0.4 1.4 0.9 1.3 1.1 1.7 2.9 0 0.4 0.1 0.9 0 0.5 0 1-0.2 2.9-1.4 5.6-0.5 1.1-1.2 2.1-1.1 1.7-2.1 3.5-1 1.8-2 3.6h0.1q-0.8 1.5-1.6 2.9-1.2 2-2.3 4-0.1 0 0 0h-0.1q0.1 0 0.1 0-0.7 0.8-1.8 1.8-0.3 0.3-0.7 0.8-4.9 4.7-9.9 6.9-1.6 0.8-3 1.3-3.7 1.3-4.9 0.9-0.2 0-0.4-0.1 0-0.1-0.1-0.2 0.3-0.4 0.6-0.7 0.7-0.9 1.5-1.9 0.1 0 0.1-0.1 1.4-1.9 3.1-3.7 0.2-0.2 0.4-0.4 1.7-1.6 3.7-2.9 0.7-0.5 1.2-1.3 0-0.1 0.1-0.1 1.3-2.2 2.4-4.5 1.2-2.4 2.4-4.9 1-2 1.9-4.3-0.1 0-0.1 0 0.2-0.5 0.3-0.9 0.2-0.4 0.3-0.8 0.1-0.3 0.2-0.7zm-11.7 31.5q-2.3 1.5-4.7 2.8-0.3 0.2-0.5 0v0.1q-0.2-0.1-0.8-0.3-0.2-0.1-0.4-0.1-0.4-0.1-0.7-0.3-0.7-0.3-1.4-0.9-1.1-0.9-1.2-1.7v-0.4q0 0 0-0.1-0.1-0.2 0-0.4 0-0.2 0.2-0.3 0.8-0.7 1.6-1.4 0-0.1 0-0.1 0.8-0.7 1.1-1.2 0.2-0.2 0.3 0 0.2 0.1 0.4 0.9 0.4 1.3 3.1 2.4 0.5 0.2 0.9 0.3 1.5 0.7 1.9 0.7 0.1 0 0.2 0zm-103.6-195.6q0.3-0.5 0.5-0.7 0.1 0 0.1 0 0.2-0.2 0.4-0.3 0.5-0.3 1.2-0.3 3.1-0.1 5.4 1.4 0.3 0.2 0.6 0.5l0.6 12q-0.2 1.3-0.2 2.3 0 1.4-0.1 3.4-0.1 1.2-0.2 3.5 0 0.3 0 0.6-0.1 0-0.1 0.1 0 0.1 0 0.1 0.1 0 0.1 0.1 0.4 1 1.2 2.4 1.1 2.1 1.4 2.6 0.5 1 1.2 2.5 0.6 1.4 1.4 3.2 0.2 0.3 0.3 0.6 0.8 1.7 1.6 3.1-0.1 0-0.1 0v0.1q-1.3 1.2-2.4 1.8-0.6-1-1.1-1.8-1.6-2.5-2.8-4.8-2.1-3.9-3.3-7.4-0.9-2.6-1.3-5 0-0.1 0-0.1-0.3-1.9-0.6-5.9-0.2-2-0.3-3.4-0.1-1.9-0.2-2.7-0.2-1.7-1.5-4.1-0.6-1.2-1.3-2.2-0.3-0.6-0.7-1 0-0.4 0.2-0.6zm30.4 13.4q-1.6-0.3-3.1-0.1-2.2 0.4-3.5 1.8h-1.3q-1.8 0.2-3.3 0.6-1.3 0.5-2.1 0.5-3.1 0-4.6-2-1.2-1.6-1.5-4.7-0.2-3.6-0.3-5.2-0.1-2.8-0.8-3.7-3.1-3.8-7.2-2.8-1.1 0.2-2 0.8 0.5-2 1.9-3.4 1.6-1.3 2.4-2 0.7-0.6 1.2-1.1 0.6-0.5 1-0.9 0.1 0.1 0.1 0.2 0.1 0 0.1 0 0.1 0.1 0.2 0.2 0.1 0.2 0.2 0.4 0.6 0.7 1.4 1.5 0.4 0.4 2.2 2 1.6 1.4 3 2.3 1.8 1 3.5 1.5 0.3-0.7 0.6-1.8 0 0 0.2-0.7 0.1-0.4 0.3-1.1 0.3 0.5 0.6 1.1 4 7.9 6.1 12 0.9-0.8 1.3-1.2-0.8-1.8-2.1-4.4l-2.5-4.5q-0.7-1.4-1.1-2.5-0.4-1.1-0.6-2 0.3 0.2 0.6 0.3 0.8 0.4 1.5 0.7 0.4 0.1 0.8 0.2 0.1-0.7 0-1.3-0.2-1.7-1.1-3.3 0-0.1 0-0.1 0.2-0.2 0.5-0.5 0.1-0.2 0.5-0.9 0.6-1.1 1-1.9h0.1q1 1.5 2.1 3.7 1.3 2.6 2 3.9 0 0.2 0.3 0.9 0.2 0.5 0.4 0.9 2.4 4 4.3 8.3 0.5 1.6 0.1 2.8-0.4 1.9-1.9 3.9l-0.6 0.7z"/>
	<path id="Layer" fill-rule="evenodd" class="s3" d="m243.1 184.1q0 0-0.1 0.1-0.1 0-0.2 0.1 0.2-0.1 0.3-0.2zm3.4-4.5q0.2-0.2 0.4-0.4 0.6-0.4 1.1-0.5 0.1 0 0.2 0.1 0.8 0.3 1.6 0.9 0.5 0.3 1.4 1.2 1.8 0.9 2.4 2.9 0.1 0.3 0.1 0.6 0.3 1.7-0.4 3.2-0.1 0.2-0.1 0.3-0.2-1.1-0.5-2.1-0.1-0.3-0.3-0.7 0-0.1-0.1-0.3-1.6-3.4-4.2-4-0.8-0.2-1.7 0.1-0.3 0-0.6 0.2-0.4 0.1-0.8 0.4 0.3-0.3 0.5-0.6 0.6-0.8 1-1.3zm-25.7 20.4l0.2-0.4q1-1.4 2.2-2.5 1.7-1.6 3.8-2.4 0.1-0.1 0.3-0.2 3.7-1.4 6.3 0.3 2.2 1.5 2.8 4.9 0.2 1.1 0.2 2.4 0 0.7-0.1 1.5-0.1 1.3-0.5 2.6-0.3 0.9-1.3 3.3-0.8 1.9-1.2 3.9-0.4 1.7-0.6 3.4 0 0.9 0 1.8 0 2.2 0.2 4.6 0.3 2.3 0.8 4.7-3.3-0.2-6.3-1.5-1.6-0.6-3-1.6-0.2-0.1-0.4-0.2l0.1-1.1 0.1-0.4 0.3-3.2q0.8-1.4 1.6-2.9h-0.1q1-1.8 2-3.6 1-1.8 2.1-3.5 0.7-1 1.2-2.1 1.2-2.7 1.4-5.6 0-0.5 0-1-0.1-0.5-0.1-0.9-0.4-1.8-1.7-2.9-0.6-0.5-1.4-0.9 0 0 0 0-0.1 0-0.1-0.1h-0.3q-0.1 0-0.2 0-0.3 0-0.5 0 0 0 0 0 0 0-0.1 0-0.6 0.1-1.1 0.3-1.6 0.4-2.8 1.6-2 1.9-2.9 4.4 0 0 0 0.1-0.5 1.4-1 2.7-0.5 1.3-1 2.6-0.1 0.4-0.2 0.7-0.9-1.6-1-3.1-0.2-2.3 1.2-4.3zm-84.5-144.2q1.6-2 1.9-3.8 0.4-1.3-0.1-2.9-1.8-4.3-4.2-8.3-0.3-0.4-0.5-0.9-0.2-0.7-0.3-0.9-0.7-1.3-1.9-3.9-1.2-2.2-2.2-3.7 0.3-0.6 0.5-1 0.5-1 0.8-1.9 1.6 1.4 2.8 3.9 1.6 3.5 1.9 6 0.4 2.1 2.5 6.5 2 4.2 2.2 6.1 0.4 4.1 1.1 6.4 1.2 3.6 3.7 6.1 0.1 0.2 4.9 4-1.2 1-2.2 2.9-0.8-0.7-1.7-1.4-1.6-1.3-4.8-3.8-1.5-1.2-2.6-2.8-1.1-1.6-1.5-3.4-0.3-1.1-0.9-2.5zm65.3 179.5q0.1 0.1 0.2 0.2 0.1 0.1 0.3 0.1 1.3 0.4 4.9-0.9 1.4-0.5 3-1.3 5-2.2 9.9-6.9 0.4-0.5 0.7-0.8 1.1-1.1 1.8-1.8v0.1q-0.1 0-0.1 0.1l-0.6 1q-0.5 0.9-0.8 1.9-0.8 2.7-2.5 4.8-0.1 0.1-0.2 0.2 0 0-0.1 0.1-1 1-2.3 1.9v-0.1q-1.1 0.8-2.2 1.7-1.1 0.8-2.2 1.6-1 0.7-1.9 1.4-0.4 0.2-0.7 0.4l-1 0.6q-0.4 0-1.9-0.7-0.4-0.1-0.8-0.3-2.8-1.1-3.1-2.4-0.2-0.8-0.5-0.9zm-68.2-176.2q0 0.4 0 1.3 0 0.3-0.1 0.7-1.8-0.7-3.5-0.7-0.5 0-1.4 0-0.2 0-0.4 0-3.7 1.9-5.6 3.1-1.1 0.6-1.6 1.1-2.3 1.9-2.3 4.7 0 2.9 1 5.3-1.7 0-2.9-0.4-0.8-1.5-1.2-2.5-0.3-0.5-1.4-2.6-0.8-1.4-1.3-2.4 0.1-0.1 0-0.1 0-0.1 0-0.2 0.1-0.3 0.1-0.6 0.1-2.3 0.2-3.5 0.1-2 0.1-3.4 0-1 0.1-2.4l-0.6-11.9q-0.3-0.3-0.5-0.5-2.3-1.5-5.5-1.4-0.6 0-1.1 0.3-0.2 0.1-0.4 0.3 0-0.4 0.1-0.7 0.9-0.6 1.9-0.8 4.2-1 7.3 2.8 0.7 0.9 0.8 3.7 0.1 1.6 0.3 5.2 0.3 3.1 1.5 4.7 1.5 2 4.6 2 0.7 0 2.1-0.5 1.5-0.4 3.3-0.6h1.3q1.3-1.4 3.5-1.8 1.4-0.2 3.1 0.1zm-28.5-13.5q0.7 1.1 1.4 2.3 1.2 2.3 1.4 4.1 0.1 0.8 0.2 2.7 0.2 1.4 0.3 3.3 0.3 4 0.6 6 0 0 0 0.1 0.4 2.4 1.3 5 1.2 3.5 3.3 7.4 1.2 2.3 2.8 4.8 0.5 0.7 1.1 1.8-1.9 1-3-0.2-0.1-0.1-0.3-0.1-0.1 0-0.2 0.1-1-1.3-1.8-2.2-2.5-3.2-5-7.6-0.4-0.8-0.8-1.5-0.5-0.7-0.7-1.6-0.9-5-1-10.6-0.1-5.6-0.3-12 0-0.8 0-1.8 0-0.1 0-0.3 0-0.4 0-0.6 0.4 0.4 0.7 0.9z"/>
	<path id="Layer" fill-rule="evenodd" class="s4" d="m112.8 9.7l0.5 0.5q0.7-0.8 1.1-1.1l2.5-1 1.2-0.8q0.1 0 0.2-0.1-0.2-0.2-0.5-0.6-1-0.9-2-1.2-0.7 0-1.1 0l0.3 0.3q-0.4 0.2-1 0.7-0.3 0.2-0.5 0.4-0.2 0.2-0.3 0.5-0.3 0.4-0.4 1.2 0 0.4 0 1.2zm-3.5 118q4.8 2.3 9.6 2.7 0-0.1 0-0.3 0-0.1 0-0.1l-0.1-10q0-0.3 0-0.5 0-0.1 0-0.3 0.1-0.6 0.2-1.1 0.3-1.8 1.8-2.4 1-0.4 3.6-0.3h0.1l-10.9-6.3v-9.6l8.6-5q-0.6-1.6-1.1-2.8-4-4.2-7.3-7.7-4.7-5.1-6.9-7.7-0.7-0.8-1.1-1.4-2.8 4.8-2.4 9.2v39.9q3 2.2 5.9 3.7z"/>
	<path id="Layer" fill-rule="evenodd" class="s5" d="m228.3 174.4q0.2-0.4 0.5-0.8 0.2-0.5 0.6-1 0 0 0-0.1 0.2-0.3 0.4-0.6 0.2-0.3 0.3-0.5 0.4-0.6 0.7-1 3.1-4.4 5.9-5.7v-0.5h-2.3q-3.6 0-6.4 2.6-0.2 0.2-0.4 0.4-0.7 0.7-1.2 1.5-0.3-0.9-0.3-1.5 0.1-0.2 0.1-0.4v-0.3l-0.7 0.3q-0.3 0.9-0.6 2 0 0.1 0 0.2-0.2 0.9-0.3 1.6-0.1-0.2-0.4-0.9-0.1-0.6-0.2-1.2-0.1-0.9-0.2-1.7 0-1.5 0.5-3 0.5-1.6 1.6-2.8 1.2-1.3 2.7-1.9 0.5-0.3 1.8-0.3 0.4 0.1 0.9 0.2 6.5 0.9 6.8 0.9 0.5-0.1 0.7-0.4-2.1-1.3-4.8-2.6 1.4-0.3 3 0.2 1.1 0.2 2.6 0.7 0.3 0.2 0.6 0.3-1.6 1.8-1.6 4.7 0 1.8 1.4 4.3 2 3.3 5.3 3.3 1.4 0 2.6-0.4 0 1.1-0.1 2.3-0.2 1.2-0.5 2.4-0.7 2.6-2.7 4.7-0.3 0.3-0.6 0.6-0.3 0.3-0.6 0.5-0.9 0.8-1.7 1.1-1.4 0.4-2.2 0.5-1.2 0.3-2.8 0.3 0.8-1.4 1.3-2.3 0.6-1.3 1-3 0.6-2.8 0.6-7 0-0.5-0.1-0.5v0.1q-1.3 1.4-3.9 5.5-0.1 0.1-0.2 0.2-0.2 0.4-0.4 0.7-1.2 2-2.7 4.5 0 0 0 0.1-0.1-0.1-0.1-0.2 0-0.1-0.1-0.2-0.6-1.1-0.9-2-0.2-0.6-0.4-1.1 0.3-0.5 0.3-1-0.1-0.9-0.7-1.6-0.6-0.7-1.6-0.9 0 0.4 0.1 1-0.1 0.5-0.1 1 0 0.1 0.1 1.6-0.6-0.8-1-2.1 0.2-0.3 0.4-0.8zm-209-38.9q-0.9-0.7-2.7-3.2-0.6-0.9-1.2-1.8 0.7 0.8 1.6 1.5 6.9 5.6 14.5 2.2-0.3 0.2-0.8 0.6-0.6 0.5-1.4 0.9-1.7 0.2-2.7 1.2-4.1 1.2-7.3-1.4zm92-113.4l-0.1-0.4q-1.3-1.8-1.4-4.2-0.1-1.7 0.5-3.4 0.2-0.5 0.5-1 0.8-1.5 1.8-3.1 0.1-0.1 0.2-0.3l0.5 0.5q0.7-0.8 1.1-1.1l2.5-1 1.2-0.8q0.1 0 0.2-0.1 1.5-0.1 2.9 0.1-0.4 0.9-0.8 1.9 0.2 0.5 0.6 0.7 0.9-0.5 2.4-2.2 2.3 0.7 3.9 2.2 0.7 0.5 1.3 1.4l1.2 1.5q-0.1 0-0.3 0.1-1.6 0.1-2.5 0.3-0.7 0.1-1 0.2l-0.1 0.3q1.1 0.7 2.8 1.2 1.5 0.5 3.3 0.8 0.1 0 0.1 0 0.3 0.7 0.3 1.6 0 0.6-0.2 1.7 0.1 1.2-0.2 3.4h-0.3q-0.3 0.1-0.6 0.3-0.3 0.2-0.6 0.5l-0.8 0.7q0.1-0.7 0.1-1.3-0.2 0.6-0.6 1.9l-0.1 0.2-0.8 0.2q0.1-1.7 0.1-2-0.1-1.1-0.2-2-0.1-1.3-0.6-2.1-1.2 5-2.6 7-1.3 2-3.3 3.3v0.2l-0.7-0.5q-0.5 0.6-1.6 1.1-0.2 0-0.3 0.1l-0.3-0.1-0.5-0.3-0.2-0.5-1.3 0.2h-0.1q-0.1-0.1-0.1-0.2-0.4-0.6-1.1-1.7-0.1-0.2-0.2-0.3-0.1-0.4-0.2-0.6 0-0.1-0.1-0.2 0.6-1.2 1.4-2.6 1.2-2 2.9-4.4 3.3-4.4 3.3-4 0-0.8-2.3 0.9-2.4 1.8-5 4.9-0.8 0.9-1.5 1.8-0.3 0.4-0.6 0.8-0.2 0.3-0.4 0.6-0.6-0.1-0.9 0.3-0.1 0.1-0.1 0.2-0.4-1.3-0.5-2.7zm9.3 0.4q-1.8 2.1-3 5.6 3.1-2.5 5.1-8.2-0.4 0.6-1.1 1.3-0.2 0.3-0.4 0.6l-0.1 0.1q-0.4 0.4-0.5 0.6zm205.7 37.6q0.1 0.2 0.1 0.3 0.2 0.6 0.3 1 0.2 0.9 0.3 1.6-0.9 1.1-2.3 2.6-0.4 0.3-0.7 0.7-2.5 2.5-4.1 3.6-0.4 0.3-0.8 0.5 0-0.3 0.1-0.7 0-0.4 0.2-0.8 0.4-1.2 0.5-1.8-1.2 0.1-2 0.2 2.2-0.8 3.4-1.8 1.2-1 3-3.3 0.2-0.5 0.5-0.9 0.8-0.9 1.3-2.1 0.2 0.7 0.2 0.9zm-2.2-2.4q-0.5 0.8-0.9 1.5 0 0 0 0-0.4 0.7-1.6 2.1-1.2 1.4-1.8 2-1.8 1.5-7.7 2.6-1.2 0.2-1.8-0.2-0.4-0.3-0.8-1.1-0.4-0.9-0.6-1.2-0.5-0.5-1.3-0.3-1 0.2-1.3 1.3 0 0.5 0 1-0.5-0.4-0.9-1.7-0.1-0.1-0.1-0.2-0.2-0.6-0.7-2-0.4-1.6-0.9-2.2 0.5-0.7 1.6-1.3 0.4-0.2 0.8-0.5 0.5-0.3 1-0.6 2.3-1.6 4.9-2.4 2.7-0.9 5.5-1.1 0.9 0 1.9 0.1 1.6 0.3 2.9 1.1 1.3 0.8 2.2 2 0.1 0.1 0.1 0.1-0.1 0.1-0.5 1zm-308 66.9q7.5-9.9 18.9-4.3 4.6 2.3 4.1 4.8 0-0.1 0-0.2-2.1 1.2-4.9 3.1-2.2 2.6-4.8 3.6-5 2-10.3-2.2-2.5-2-3.5-4.2 0.2-0.2 0.5-0.6z"/>
	<path id="Layer" fill-rule="evenodd" class="s6" d="m242.6 183.1q-0.1 0-0.2 0-0.1 0.3-0.2 0.5-2.5 1.9-5 2.1-0.4 0-0.8 0-1.1 0.1-1.7-0.1-1-0.3-1.1-1c0 0.2 0 0.4 0 0.6q-0.1 0.6-0.1 1v0.3l1.3 0.5q1.3 0.4 2.2 0.6 1.7 0.3 3-0.1 0.2 0 0.3 0 1.4-0.5 2.4-1.2 1.3-0.9 1.5-2.3-0.3 0-0.7 0-0.2 0-0.4 0.1 0 0-0.1 0.1-0.1 0-0.2 0.1-0.2-0.7-0.2-1.2zm-17-12.1q0.1 0.1 0.1 0.1 0.5 1.2 1 2 0.1 0.2 0.2 0.3 0.1 0.1 0.2 0.3 0.3-0.1 0.4-0.2 0-0.1 0-0.2-0.4-2-0.4-2.1-0.2-0.6-0.4-1.1-0.2-0.9-0.3-1.3v-0.1q-0.3-0.9-0.3-1.5-0.2 0.7-0.3 1.5 0 0.4-0.1 0.8 0 0.2 0 0.4-0.1 0.6-0.1 1.1zm81.1-37.8q0 0.1 0 0.1-0.2 1-0.2 3 0 0.4-0.4 1.8-0.1 0.4-0.3 0.9-0.7 2.2-0.7 2.8 0 0.4 0.3 0.6 0.4-0.4 0.7-0.8 0 0 0.1-0.1 0.1 0 0.1-0.1 4.4-1.4 4.6-1.5-0.2-0.3-0.4-0.7-0.1-0.1-0.2-0.2-0.5-1-1-2.2-0.1-0.1-0.2-0.2-0.8-1.7-1.4-3.1-0.2-0.4-0.4-0.8-0.2 0.2-0.6 0.5zm0.8 7.4q0 0-0.4 0.2 0.3-0.2 0.5-0.3 0.1 0-0.1 0.1zm-225.8 48q-2.2 0.4-4.8 1.3l-0.2 0.7q-0.4-0.3 0.6 0.6 1.3 1.2 5.5 0.7 1-0.1 1.7-0.3-0.4-0.4-0.8-0.5-1-0.3-1.8 0 0.8-0.4 1.5-1.1 0.3-0.3 0.5-0.7-0.3-0.5-0.7-0.5-0.7-0.2-1.5-0.2zm43.1-153.7q-0.2 0-0.5-0.1-0.9-0.3-1.7-0.6-0.7 0.5-1.7 0.4-0.8-0.1-2-0.6-1.9-0.8-2.1-0.9-1.2-0.7-1.8-1.6 0 0.1 0 0.3-0.1 0.3-0.3 0.8-0.1 0.3-0.3 0.5l-0.3 0.4v0.1q0.7 1.2 2.3 2 2 1.1 3 1.5 1.8 0.8 3.3 0.8 1 0 1.4-0.2 0.4-0.3 0.6-0.9 0.2-0.9 0.1-1.9zm-9.5-7.8q0.2 0.6 0.4 1.4 0.5 0.3 0.9 0.6-0.4-0.6-1.1-1.7-0.1-0.2-0.2-0.3zm3.5 2.8l-0.5-0.3-0.2-0.5-1.3 0.2q1 0.5 2 0.6zm2.3-8q-0.4 0.4-0.5 0.6-1.8 2.1-3 5.6 3.1-2.5 5.1-8.2-0.4 0.6-1.1 1.3-0.2 0.3-0.4 0.6zm-1.7 7.9q0.6 0 1.2 0 0.8-0.1 1.6-0.4 1.3-0.4 2.4-1.2 0.3-0.3 0.6-0.5 0.8-0.7 1.3-1.6 0.4-0.7 0.4-0.7 0.3 0.4 0.3 0.7 0.2 0.3 1.1 0.3 1.6 0 2.6-0.8 0 0 0-0.1l0.1-0.7q0 0 0-0.1 0 0 0-0.1 0-0.3 0-0.6 0.1-0.8 0.1-1.3-0.3 0.2-0.6 0.5l-0.8 0.6q0.1-0.6 0.1-1.3-0.2 0.7-0.6 2l-0.1 0.2-0.7 0.1q0-1.6 0-1.9 0-1.2-0.2-2-0.1-1.4-0.6-2.1-1.2 5-2.6 7-1.3 2-3.3 3.3v0.2l-0.7-0.5q-0.5 0.6-1.6 1zm161.6 100.8q0.3-0.2 0.5-0.5 0.6-0.4 1.4-1.2 0.4-0.5 0.9-0.8-0.1-0.2-0.2-0.3 0 0 0 0-0.2-0.1-0.3-0.2-0.8-0.5-1.7-1.1-2.1-1.4-3.6-2.5-0.3 0.6-0.7 1 0.2 0.4 0.7 1.1 1 1.6 1.2 2.3 0.1 0.4 0.1 1.2zm38.1-60.9q0.1-0.4 0.3-0.8 0.4-1.2 0.5-1.8-1.3 0.1-2 0.1-0.8-0.1-1.9 0-1 0.2-2.1 0.3-1.8 0.5-3.5 0.8-3.7 0.4-6.2-2.4-0.1 0-0.1 0.2 0 0 0 0.1-0.1 0.6-0.2 1.2 0.2 0.2 0.8 0.9 0.6 0.7 2.3 1.3 0.2 0.1 0.4 0.2 2.1 0.7 5.5 0.1 3.4-0.6 4.1-0.6 1.1 0.1 2.1 0.4zm1.8 5.7q0.8 0.3 1.4 0.3 0.6 0 1-0.5 1.5-1.5 1.8-1.9 0.9-1.2 0.8-2.4-0.3-0.4-0.6-0.6 0 0 0 0v-0.1q-0.1 0-0.1 0-0.1 0-0.2-0.1-0.6-0.1-1.4 0.4-0.1 0.1-0.6 1-0.5 0.6-0.8 1-0.2 0.3-0.3 0.7-0.6 1.6-1 2.2zm-12.2 7.3q-1 2.1-1 2.8-0.1 0.8 0.3 1.4 0.3 0.7 0.6 1.1l-0.1 0.3q0 0.1 0 0.1 0.6 0.1 1.3 0.1l-0.1-0.5q6.3-0.2 12.1-4.3 0.2-0.4 0.4-0.7-0.4-0.5-0.8-1.1-0.2-0.4-0.5-0.7 0 0.8-0.2 1.5-0.3 1-1.1 1.8-1.1 1.1-2.6 1.7-0.7 0.3-1.3 0.5-0.9 0.3-1.9 0.5-0.9 0.2-1.8-0.1-0.9-0.3-1.6-1-0.4-0.5-0.8-1.2-0.4-0.5-0.6-1.1-0.2-0.6-0.1-1-0.1-0.1-0.2-0.1zm-66 225.8q0.2-0.4 0.3-0.9 0.2-0.4 0.4-0.8 0.1-0.3 0.2-0.5 0.3-0.9 0.7-1.4 0.1-0.1 0.1-0.2 0.2-0.2 0.6-0.9 0.4-3.1 1.4-7.1 1.3-5.2 1.9-7.8 1.5-5.3 0.5-11.4-0.4 0.3-1 0.7-3.1 2.8-4.2 6.2-0.3 1.1-0.9 5.3-0.5 2.4-1.3 3.2-0.3 2.5-0.9 6.9-0.2 2.4-0.2 4.4 0 1.2 0.1 2.3 0-0.2 0-0.3 0.4 0.4 1 1.1 0.3 0.5 1.3 1.2zm-3.1-29.7q-2.1 0.2-4.3 0-3-0.3-6.1-1.3 0.1 0 0.1 0.1 0.3 1.9 0.6 5.7 0.3 3.8 0.6 5.7 0.1 0.8 0.3 1.9 0.2 1 0.4 2.1 0 0.1 0 0.1 0.7-0.9 1.2-2.5 0.1-0.4 0.2-0.8 0.4-1.4 0.6-2.1 0.5-1.5 0.8-2 1.1-1.8 4.6-4.1 0.3-0.2 0.6-0.5 0 0 0.1 0 0.4-0.3 0.8-0.6-0.3-0.9-0.5-1.7zm-167.5-90.1q0.2 0.4 0.4 0.8 0.2 0.4 0.4 0.8 0.7 2.7-0.9 4.7-0.2 0.2-0.4 0.4-0.3 0.2-0.6 0.4 0.1 0.1 0.2 0.1 1.5 0.3 2.9 0.4 0-0.5 0-0.9 0.2-2.6-0.5-5-0.1-0.3-0.2-0.5-0.2-0.8-0.4-1.3-0.5 0-0.9 0.1zm-42.3-50.4q1.1 0.4 2.9-1.1 2.1-2 2.2-2.1 0.7-0.9 1.2-1.8 0 0 0-0.1 0.7-2.7 1-5.3-0.2 0.4-0.5 0.9-0.1 0.2-0.3 0.3-0.3 0.5-0.7 1.1 0 0.1-0.1 0.2-0.8 1.2-1.6 2.3 0 0.1-0.1 0.2zm89.8 16.5q0.1 0 0.3-0.1 2.4-0.2 3.7-1.4 0.8-0.8 1.6-2.6 0-0.1-0.1-0.2-0.1-3.4 0.6-7.9-1.3-3.6-1.7-4.2-0.9-1.4-4.1-4.5-0.5-0.4-0.9-0.8 0.1-0.9 0.1-1.6-0.1-0.6-0.2-1.2-4.8-0.4-9.6-2.7-0.4 1.3-0.6 2.3l9.2 5.3q0.3 1 0.3 1.8 0 0.2 0 0.4 0 0.1 0 0.1v1q0.1 0.2 0.2 0.3 0.1 0.3 0.2 0.5-0.6 5.4 0 9.7 0 0 0 0.1 0 0.2 0 0.4 0.2 0.6 0.3 1.3 0.3 1.9 0.7 4z"/>
	<path id="Layer" fill-rule="evenodd" class="s7" d="m232.1 181.9q-0.9-0.4-1.8-0.9-0.2-0.1-0.5-0.3-0.3-0.2-0.6-0.4-0.3-0.2-0.6-0.5-0.2-0.2-0.4-0.3-0.4-0.5-0.8-1-0.3-0.4-0.5-0.8-0.2-0.3-0.3-0.7-0.2-0.3-0.3-0.7-0.2-0.6-0.3-1.2-0.1-0.6-0.1-1.2-0.1-0.3-0.1-0.6 0-0.2 0-0.4 0-0.1 0-0.2-0.1-0.2-0.1-0.4 0-0.6 0-1.2 0 0-0.1-0.1 0.1 0.1 0.1 0.1 0.5 1.2 1 2 0.1 0.2 0.2 0.3 0.4 0.5 0.8 0.7 0 0.1 0 0.2 0.1 0.5 0.2 0.9 0.4 1.3 1 2.1-0.1-1.5-0.1-1.6 0-0.5 0.1-1-0.1-0.6-0.1-1 1 0.2 1.6 0.9 0.6 0.7 0.7 1.6 0 0.5-0.3 1 0.2 0.5 0.4 1.1 0.3 0.9 0.9 2 0.1 0.1 0.1 0.2 0 0.1 0.1 0.2 0 0.1 0.1 0.2l0.2 1q0.1 0.1 0.2 0.3-0.2-0.1-0.7-0.3zm51.8-53.9q-0.1 0-0.1 0.1-0.1-0.1-0.2-0.3 0.1 0.1 0.3 0.2zm17.9 18.6q-1.4 0.6-2.8 0.6-1.7 0-2.8-0.8-1.5-1.2-2.2-1.9-1.1-1.1-1.8-2.1-0.3-0.6 0.1-1.2 0.5-0.7 0.7-1 0.9-0.6 2.3-1.3 0.4-0.2 0.9-0.3 2.2-1.1 5.6-2.2 0.2-0.1 0.4-0.2 0.5-0.1 1-0.3 0.4-0.1 0.9-0.3 1.8-1.6 2.6-2.4 0 0.1 0 0.1-0.2 1-0.2 3 0 0.4-0.4 1.8-0.1 0.4-0.3 0.9-0.7 2.2-0.7 2.7 0 0.5 0.3 0.7-0.6 0.7-1.4 1.5-1 1.2-2.2 2.7zm-185.4 3.9q1.6-0.7 1.8-3.1c0-0.1 0-8.8 0-8.8q0.1 0.1 0.2 0.3 0.2 0.3 0.3 0.5-0.6 5.4-0.1 9.7 0 0 0 0.1 0.1 0.2 0.1 0.4 0.1 0.6 0.2 1.3 0.3 1.8 0.8 3.9-0.5 0.1-1.1 0.1-3.1 0-5.8-1-0.1-0.4-0.2-1-0.1-0.6-0.3-1.3 0-0.3-0.1-0.8 3 0.2 4.2-0.3zm4.5-59.2q0-0.1 0.1-0.2 0.5-2.4 0.9-2.9 0.7-1 1.1-1.8 0.7 0.9 1.5 1.5 1 0.9 2 1.7 0.8 0.8 1.5 1.5 0.6 0.6 1.1 1.1 1.4 1.5 2.1 2.5 0 0.3 0.3 1 0.2 0.6-0.1 1-0.9 0.5-2 0.9-0.7 0.3-2 0.8-1.1 0.2-2.4-0.3-1.1-0.5-2-1.5-0.4-1.1-0.8-2.1-0.6-1.6-1.1-2.8-0.1-0.2-0.2-0.4zm5.7-56.4q-0.5 0.2-1.2 0.1-0.2 0-0.6-0.1-0.2 0-0.5-0.1-0.9-0.3-1.7-0.6-1.4-0.5-2.7-1.3-2.1-1.3-3.5-3.2-0.3-0.3-0.5-0.8-0.7 0.3-1.4-0.1-0.1 0-0.3-0.1-0.4-0.2-1.2-0.9-0.1-0.1-0.2-0.2-0.6-0.6-0.9-1.3-0.3-0.8-0.1-1.5 0-0.1 0.1-0.2 0.3-0.4 0.9-0.3 0.4 0 0.8 0.2 0.9 0.6 1.4 1.8 0.1 0.1 0.1 0.2 0.1 0.2 0.2 0.6 0.2 0.6 0.4 1.4 0.5 0.3 0.9 0.6 0 0.1 0.1 0.2h0.1q1 0.5 2 0.6l0.3 0.1q0.1-0.1 0.3-0.1 0.6 0 1.2-0.1 0.8-0.1 1.6-0.4 1.3-0.4 2.4-1.1 0.3-0.3 0.6-0.6 0.8-0.7 1.3-1.5 0.4-0.8 0.4-0.8 0.2 0.5 0.3 0.7 0.2 0.4 1.1 0.4 1.6 0 2.6-0.8-0.1 0.9-0.2 1.6-0.2 0.5-0.4 1 0 0.1 0 0.2-0.3 0.9-0.9 1.9-0.2 0.4-0.5 1-0.4 0.8-1 1.9-0.4 0.7-0.5 0.9-0.3 0.3-0.5 0.5-0.2 0.1-0.3 0.2zm28 40.7q-0.7-0.7-1.7-1.7v-0.1q0.5-0.9 1.3-1.7 0.9-1 2.3-0.9 0.2-0.1 0.4-0.2 0 0 0.1-0.1 2.2 1.9 2.2 1.9 0.1 0.1 0.3 0.2l-4.7 2.7q-0.1-0.1-0.2-0.1zm121.2 51.4q0.8-1 1.5-2 0.2 0.5 0.7 1.1 1 1.7 1.2 2.4 0.1 0.3 0.1 1.2l-3.9-2.3q0.2-0.2 0.4-0.4zm28.1-59.6q0.2 0.3 0.8 1 0.6 0.6 2.3 1.3 0.2 0 0.4 0.1 2.2 0.7 5.5 0.2 3.4-0.6 4.1-0.6 1.1 0 2.2 0.3-0.1 0.4-0.1 0.7 0 0.2 0 0.4 0.6 2.4 2.7 2 0.2-0.1 0.4-0.3-0.2 0.4-0.3 0.8-0.5 1.5-0.9 2.1-0.1 0.1-0.1 0.1-0.4 0.5-0.8 1.6-0.5 1.1-0.9 1.6-0.6 0.7-1.7 1.4-1.4 0.7-2 1.1-2.1 1.1-5.2 2-0.8-0.2-1.4-0.3-0.1-0.1-0.1-0.2-0.3-0.1-0.6-0.2-0.1 0-0.1 0 0-0.1-0.1-0.1 0 0 0 0l-0.8-0.5q-0.3-0.3-0.6-0.7 0 0 0-0.1-0.9-2.2-1.4-4.2-0.1-0.3-0.2-0.7-1.4-5-1.1-8.8zm-71.5 243.7q0.6-3.3 0.7-3.7 0.4-1.5 0.3-3.3 0-0.9-0.1-1.9-0.3-1.7-1.1-5.2-0.6-2.5-0.9-3.8 0.6-0.9 1.1-2.6 0.1-0.4 0.2-0.7 0.4-1.4 0.6-2.1 0.5-1.5 0.8-2.1 1.2-1.7 4.6-4.1 0.3-0.2 0.6-0.4 0.1 0 0.1-0.1 0.4-0.3 0.8-0.5 0.2 0.6 0.4 1.2 0.3 1.1 0.6 2.4 0.1 0.3 0.2 0.7 0.9 4.2 0.2 7.4 0 0.3-0.1 0.6-0.3 2.5-0.8 6.9-0.3 2.4-0.3 4.4 0 1.2 0.1 2.3 0.1 0.3 0.1 0.6-0.4 0.9-1 2.5-0.8 1.8-1.4 2.8-0.8 1.6-2 2.9-2.2 2.3-4.7 2.3-1.1 0-1.4-0.7 0.3-0.8 1-1.5 0.4-0.5 0.5-0.6 0.5-1.2 0.8-3 0.1-0.3 0.1-0.7zm-32.1-63.9q0 0.7 0 1.5-0.2 0.3-0.4 0.6-0.5 0.7-1.2 1.2-1 0.8-2.2 0.9-1.5 0-2.4-0.2-1.2-0.1-2.2-0.4-0.4-0.2-0.5-0.8 0.1-0.7 0.1-1 0.2-1.1 0.6-2.1 0.8-2.5 2.4-4.6 0.8-0.5 1.2-1 0.1-0.2 0.2-0.4 0.1 0 0.2-0.1 0-0.1 0.1-0.1-0.4 0.8 0.6 1.9 0.4 0.6 1.4 0.8 0.7 0.1 1.7 0.1 0 0 0.1-0.1 0.2-0.2 0.5-0.3-0.2 1.6-0.2 4.1zm-123.4-57.3l-0.2 0.7q-0.4-0.3 0.6 0.6 1.3 1.2 5.5 0.7 1-0.1 1.7-0.3 0.2 0.2 0.3 0.3 0.4 0.6 0.6 1.2 0 0.3 0.1 0.5-1.5 0.9-3.1 1.5-3.8 1.4-8.3 1.2 0.1-0.5 0.1-0.8 0.1-2.6-0.6-5.1-0.1-0.3-0.1-0.5-0.2-0.7-0.5-1.3 4.4-0.5 8.7 0-2.2 0.4-4.8 1.3zm-47.6-54.2q0.1 0 0.1 0 0.1 0 0.2 0 0.1 0.1 0.2 0.1l-0.7 3.4q0.4-0.4 0.7-0.9 1.2 0.4 2.9-1.1 2.1-2 2.2-2.1 0.7-0.8 1.2-1.7-1.3 4.8-4.6 8.9l-2.6 0.1-1.8-1.9h-1.8q0.1-2.4 1.3-3.6 1-1 2.7-1.2z"/>
	<path id="Layer" fill-rule="evenodd" class="s8" d="m114.9 30.7q0.1 0.4 0.1 0.7 0 0.1 0 0.1 0.6 0.9 1.8 1.6 0.2 0.1 2.1 0.9 1.2 0.5 2 0.6 1 0.1 1.7-0.4-1.4-0.5-2.7-1.3-2.1-1.3-3.5-3.2-0.3-0.3-0.5-0.8-0.7 0.3-1.4-0.1 0.1 0.4 0.1 0.9 0.1 0.6 0.3 1z"/>
	<path id="Layer" fill-rule="evenodd" class="s9" d="m126.9 34.8q0.9 1.6 1.1 3.3 0.1 0.6 0 1.3-0.4-0.1-0.8-0.2-0.7-0.3-1.5-0.7-0.3-0.1-0.6-0.3 0.2 0.9 0.6 2 0.4 1.1 1.1 2.5l2.5 4.5q1.3 2.6 2.1 4.4-0.4 0.4-1.3 1.2-2.1-4.1-6.1-12-0.3-0.6-0.6-1.1-0.2 0.7-0.3 1.1-0.2 0.7-0.2 0.7-0.3 1.1-0.6 1.8-1.7-0.5-3.5-1.5-1.4-0.9-3-2.3-1.8-1.6-2.2-2-0.8-0.8-1.4-1.5-0.1-0.2-0.2-0.4-0.1-0.1-0.2-0.2 0 0-0.1 0 0-0.1-0.1-0.2 0.5-0.7 0.8-1.2 0.3-0.4 0.5-0.6 0.7-1.1 1.3-1.7 0.3-0.3 0.7-1 0.1 0.4 0.1 0.7 0 0.1 0 0.1 0 0.1 0 0.3-0.1 0.3-0.3 0.8-0.1 0.3-0.3 0.5l-0.3 0.4v0.1q0.7 1.2 2.3 2 2 1.1 3 1.5 1.8 0.8 3.3 0.8 1 0 1.4-0.2 0.4-0.3 0.6-0.9 0.2-0.9 0.1-1.9 0.4 0.1 0.6 0.1 0.7 0.1 1.2-0.1 0.1-0.1 0.3-0.2 0 0 0 0.1zm27 31.9q0.1 0 0.1 0.1 0.7 0.9 1.4 1.6l0.1 0.1q0.7 0.7 1.5 1.5 0.2 0.1 0.2 0.3 0 0.2-0.1 0.4 0 0.1-0.1 0.2-0.1 0.1-0.1 0.1-0.2 0.1-0.4 0.2-1.4-0.1-2.3 0.9-0.8 0.8-1.3 1.7v0.1q-0.2 0.2-0.5 0.3-0.2 0-0.5-0.1-2.4-1.5-4.7-3.2-0.1-0.1-0.2-0.2 0-0.2 0.1-0.2 0-0.1 0.1-0.1 0.9-1.9 2.2-2.9 1.4-1.1 3.2-1 0.6 0 1.3 0.2z"/>
	<path id="Layer" fill-rule="evenodd" class="s10" d="m112.7 66.6q0 0 0 0.1 0-0.1-0.1-0.1 0.1 0 0.1 0zm6.7 8q0.7 0 1.5 0 10.1-1.3 12.6-6.2 0.1-0.6 0.2-1.1 0.4 0.6 0.5 1.4 0.1 0.9-0.1 1.7-0.5 1.9-2.9 3.6-3.4 2.5-8.5 3.3-2.5 0.3-4.8 0.1-0.8-1.8-1.4-3.2 1.3 0.4 2.9 0.4zm125.7 229.2l0.5 1.3q0.1 0.1 0.2 0.2 0.3 0.7 0.9 1.4 0.4 0.6 1.2 1.7 0.7 0.8 0.7 2 0 0.4-0.2 0.8-0.1 0.9-0.9 1.5-0.6 0.4-1.1 1-0.2 0.2-0.4 0.4-0.5 0.6-0.6 1.2-0.3 1.5-0.4 3.7 0 0.2-0.1 0.4v3.7q-0.7-0.1-1.3-0.1-0.1-1.4-0.2-2.2-0.2-2 0-3.3 0.1-0.8 1-1.7 1.2-1.1 1.4-1.5 0.4-1.1 0.2-2-0.1-1.2-0.7-1.9-0.6-0.7-2-1.5-0.3-0.2-0.6-0.4 0.2-0.3 0.4-0.8 0.1-0.4 0.3-0.8 0.1-0.3 0.2-0.6 0.4-0.9 0.8-1.4 0-0.1 0.1-0.1 0.1-0.3 0.6-0.9 0-0.1 0-0.1zm-5.2 13.3q0.4-0.2 0.9-0.4v0.1q-0.5 0.2-0.9 0.3zm-9.1-5.6q0.9 0.1 1.5 0.3-0.3 1.8-0.8 3v-0.1l-1.8 0.1q-1.6-3 1.1-3.3zm18.7-90.2q-0.1-0.6-0.3-1.1l1.5 1.7q0 0 0 0 0.1 0.1 0.1 0.1-0.4 0.5-0.9 1-0.3 0.4-0.9 0.8 0.7-1.3 0.5-2.5zm-19.3 10.8q-4.2 1.3-7.1 5.6-0.9 1.2-1.6 2.7-0.1 0.1-0.1 0.1-0.1-2.2-0.3-4.4 0-0.5-0.1-1 0-0.5 0-0.9 0-0.1 0-0.2 0.1-0.1 0.1-0.2 0-0.9 0.1-1.6 0-0.1 0-0.1 0-0.2 0-0.4l0.8-2 2.2-5.9 0.1-0.3-0.1 1.1q0.2 0.1 0.4 0.2 0.2 1.5 1.4 2.6 1.1 0.9 2.9 1.6 3.5 1.4 8.1 0.9-3.1 1.1-6.8 2.2zm-196.3-49.2q-0.8-4.8-2.1-9.7 0.8 1.8 2.4 3.9 2.8 2.5 5.9 4.6 3.1 2.3 6.3 4.2 0.5 3 1.1 6 0.5 3 1.4 5.9-4.1 2.2-7.8 3.9-1.3 0.5-2.6 0.9-2.8-9.7-4.6-19.7zm10.9-16.5q-0.2-0.2-0.4-0.5l-1.6-2.8q-2.8-1.3-5.3-0.3-6.6 2.3-6.5 6.9-0.5-2.6-0.3-4.8 0.5-6 5.5-9.9 0.8-0.7 1.8-1.3 2.9 1.7 4.6 5.1 1.1 2 1.7 4.6 0.3 1.4 0.5 3z"/>
	<path id="Layer" fill-rule="evenodd" class="s11" d="m118.2 78q-0.1-0.3-0.3-0.6 2.3 0.2 4.8-0.2 5.1-0.7 8.5-3.2 2.4-1.7 2.9-3.6 0.2-0.8 0.1-1.7-0.1-0.8-0.5-1.4 0-0.4 0-0.7 0.1 0.1 0.1 0.2 4.9 8.8 4.5 14.7-0.2 2-0.4 3.9l-8.8 5.1q-0.7-0.4-1.4-0.6 0 0-1.2-0.3-1-0.8-2-1.7-0.8-0.6-1.5-1.5 0 0 0 0-0.1-0.1-0.2-0.2-0.2-0.3-0.4-0.5 0.1-0.1 0.2-0.1 0-0.1 0-0.3 0-0.1 0-0.2-0.4-0.5-0.9-1.2-0.7-1.1-1.5-2.6-0.1-0.1-0.1-0.2-0.1 0-0.2 0-0.1 0-0.1 0-0.8-1.4-1.6-3.1zm-4.5 5q0 0.2 0.1 0.3 0.9 1.1 2.2 2.6 0.3 0.3 0.7 0.7 0.6 0.8 1.4 0.9 1.4 1.7 2.5 3.1 0.1 0.3 0.3 0.6 0 0 0 0.1 0.1 0.2 0.2 0.4-4-4.2-7.3-7.7-4.7-5.1-6.9-7.7-0.7-0.8-1.1-1.4 0.5-0.9 1.2-1.9 2.5 4.4 5 7.7 0.7 0.8 1.8 2.1-0.1 0.1-0.1 0.2z"/>
	<path id="Layer" fill-rule="evenodd" class="s12" d="m117.3 83q-1.9 1-3-0.1-0.1-0.2-0.3-0.2-0.1 0-0.2 0.1-0.1 0.1-0.1 0.2 0 0.2 0.1 0.3 0.9 1.1 2.2 2.6 0.3 0.3 0.7 0.7 0.6 0.8 1.4 0.9 1.8 0.5 4.3-1.8 0.1-0.1 0.2-0.1 0-0.1 0-0.3 0-0.1 0-0.2-0.4-0.5-0.9-1.2-0.7-1.1-1.5-2.6-0.1-0.1-0.1-0.2-0.1 0-0.2 0-0.1 0-0.1 0-0.1 0-0.1 0v0.1q-1.3 1.2-2.4 1.8z"/>
	<path id="Layer" fill-rule="evenodd" class="s13" d="m217 110.5l19.1-11-61.3-35.4-15.3 8.9-4.7 2.7-16.9 9.7-8.8 5.1q0.3 0.3 0.7 0.5 0.6 0.5 1.7 1.5 0.4 0.4 0.2 0.9-0.1 0.4-0.4 1-0.7-1-2.2-2.2 1.4 1.5 2.1 2.5 0 0.3 0.3 1 0.2 0.6-0.1 1-0.9 0.5-2 0.9-0.7 0.3-2 0.8-1.1 0.2-2.4-0.3-1.1-0.5-2-1.5-0.4-1.1-0.8-2.1l-8.6 5 17.2 10q0.4 1 0.4 1.8 0 0.2 0 0.5-0.2 2.5-1.9 3.3-0.4 0.1-0.9 0.2-1.2 0.2-3.4 0.1-0.3 0-0.5 0h-0.1q-2.6-0.1-3.7 0.3-1.4 0.6-1.7 2.4-0.1 0.5-0.2 1.1 0 0.2 0 0.3 0 0.2 0 0.5 0.1 0.7 0.2 1.4 0.5 2.2 2.1 3.8 1 1.1 2.5 1.9 2.6 1.5 5.6 1.9 1.2 0.1 2.3 0.1 3.4 0 5-1.5 1.1-0.9 1.9-3.3 0.9-2.4 1.7-3.3 1.5-1.5 4.5-1.5 1.2 0 5.1 0.9l25.1 14.5 28.5-16.4q0-3-2.1-4-1.1-0.6-4.5-0.8-2.4-0.1-3.7-0.6-0.4-0.1-0.8-0.3-2-1.2-2-4.6 0-3.9 6.2-6.5 4.9-2.1 9.2-2.1 3 0 4 1.7 0.4 0.7 1 3.8 0.5 2.6 1.8 3.8 1.5 1.3 4.6 1.6z"/>
	<path id="Layer" fill-rule="evenodd" class="s14" d="m122.8 86.2q0.1 0.1 0.2 0.2 0 0 0 0-0.4 0.8-1.1 1.8-0.4 0.5-0.9 2.9-0.1 0.1-0.1 0.2 0-0.1 0-0.1-0.2-0.3-0.3-0.6-1.1-1.4-2.5-3.1 1.8 0.5 4.3-1.8 0.2 0.2 0.4 0.5zm5.2 4.9q-0.7-0.7-1.5-1.5 1.2 0.3 1.2 0.3 0.7 0.2 1.4 0.6 0.3 0.3 0.7 0.5 0.6 0.5 1.7 1.5 0.4 0.4 0.2 0.9-0.1 0.4-0.4 1-0.7-1-2.2-2.2-0.5-0.5-1.1-1.1z"/>
	<path id="Layer" fill-rule="evenodd" class="s15" d="m210.6 114.7q-0.6-3.1-1-3.8-1-1.7-4-1.7-4.3 0-9.2 2.1-2 0.8-3.4 1.8-0.4-0.1-0.8-0.3-2-1.2-2-4.6 0-3.9 6.2-6.5 4.9-2.1 9.2-2.1 3 0 4 1.7 0.4 0.7 1 3.8 0.5 2.6 1.8 3.8 1.5 1.3 4.6 1.6v4.6q-1.9 0.5-4 1.4-0.9 0.3-1.6 0.7-0.5-1-0.8-2.5zm-91.7 15.4q0-0.1 0-0.1l-0.1-10q0.1 0.7 0.2 1.4 0.5 2.2 2.1 3.8 1 1.1 2.5 1.9 2.6 1.5 5.6 1.9 1.2 0.1 2.3 0.1 3.4 0 5-1.5 1.1-0.9 1.9-3.3 0.9-2.4 1.7-3.3 1.5-1.5 4.5-1.5 1.2 0 5.1 0.9l25.1 14.5v9.6l-25.1-14.5q-3.9-0.9-5.1-0.9-3 0-4.5 1.5-0.8 0.9-1.7 3.3-0.8 2.4-1.9 3.3-1.6 1.6-5 1.6-2.6 0-5-0.8-1.5-0.5-2.9-1.3-1.5-0.8-2.5-1.9-1.4-1.4-1.9-3.2 0 0 0 0-0.2-0.6-0.3-1.2 0-0.1 0-0.3zm-5.3-21v-9.6l17.2 10q0.4 1 0.4 1.8 0 0.2 0 0.5-0.2 2.5-1.9 3.3-0.4 0.1-0.9 0.2-1.2 0.2-3.4 0.1-0.3 0-0.5 0z"/>
	<path id="Layer" fill-rule="evenodd" class="s16" d="m125.7 142.6q0-0.2 0.1-0.5l0.2-1.7q0-0.1 0-0.1 0.3-1.2 0.5-2.3-1.5-0.5-2.9-1.3-1.5-0.8-2.5-1.9-1.4-1.4-1.9-3.2 0 0 0 0-0.1 0.7-0.1 1.6 0.4 0.4 0.8 0.8 3.3 3.1 4.2 4.5 0.3 0.6 1.6 4.1zm122.9 133.7q-4.4 2.1-8.9 2.5 0.2 0.9 0.4 1.8 0.2 0.6 0.4 1.2 0.3 1.1 0.6 2.4 0.1 0.3 0.2 0.7 0.9 4.2 0.2 7.4 0 0.3-0.1 0.6 0.8-0.8 1.3-3.2 0.6-4.2 0.9-5.3 1.1-3.3 4.3-6.2 0.5-0.4 0.9-0.7 0-0.1 0-0.3 0 0 0-0.1 0-0.2-0.1-0.4 0 0 0-0.1 0-0.1-0.1-0.3zm-221-129.3q0-0.4 0-0.7 0.1-2.2 1.3-3.9l-1.8-1.9h-1.8q-0.4 0.2-0.9 0.3-3.1 0.4-5.3-0.5-0.3-0.3-0.7-0.6-1-0.8-1.9-1.6l-0.8 2.9-0.5 0.6h-0.1q5.5 4.1 11.1 5.2 0.7 0.1 1.4 0.2z"/>
	<path id="Layer" fill-rule="evenodd" class="s17" d="m295.3 138.9l-14.3-8.2-1.7-1-3.9-2.3-22.7-13.1-19.1 11q-3-0.3-4.6-1.6-1.3-1.2-1.8-3.8-0.6-3.1-1-3.8-0.3-0.5-0.7-0.9-1.2-0.8-3.3-0.8-2.5 0-5.2 0.7-1.9 0.5-4 1.4-0.9 0.3-1.6 0.7-4.6 2.4-4.6 5.7 0 0.9 0.1 1.6 0.4 2.2 1.9 3.1 0.3 0.2 0.8 0.3 1.3 0.5 3.7 0.6 3.4 0.2 4.5 0.8 2 1 2 4l-8.2 4.7-20.2 11.7 21.5 12.4q0.1 0.5 0.1 1.1 0 3.5-2.8 4.1-1 0.2-2.8 0.1-1.3 0-2-0.1-1 0-1 0-1.7 0-3.1 2-1.3 2-1.4 4v0.3q0.1 1.3 0.6 2.6 0.5 1.1 1.2 2.1 1.6 2.1 4.4 4.1 2.5 1.8 5.1 3 2.6 1.1 4.2 1.1 0.7 0 1.4 0 0.2-0.1 0.3-0.1 2.5-0.2 4.1-1.2 0-0.1 0-0.1 1.4-0.8 1.9-2.1 0-0.2 0.1-0.5 0.1-0.4 0.1-0.8 0-0.2-1.1-2.3-1-2.1-1-3.2 0-2.1 0.7-2.8 0.6-0.6 2.7-0.6 0.4 0 1.2 0.1 0-0.1 0-0.2-0.1-0.2-0.1-0.4 0-0.6 0-1.2 0 0-0.1-0.1 0-0.5 0.1-1.1 0-0.2 0-0.4 0.1-0.4 0.1-0.8 0.1-0.8 0.3-1.5 0.1-0.2 0.1-0.4v-0.3l-0.7 0.3q-0.3 0.9-0.6 2 0 0.1 0 0.2-0.2 0.9-0.3 1.6-0.1-0.2-0.4-0.9-0.1-0.6-0.2-1.2-0.1-0.9-0.2-1.7 0-1.5 0.5-3 0.5-1.6 1.6-2.8 1.2-1.3 2.7-1.9 0.5-0.3 1.8-0.3 1.6-1.5 3.6-1.9 1.4-0.3 3 0.2 1.1 0.2 2.6 0.7 0.3 0.2 0.6 0.3 0.3-0.2 0.5-0.4 1.9-1.7 4.8-1.6 2.8 0 4.7 1.6 2.1 1.9 2.1 4.9 0 0.5-0.1 1.4-0.3 1.4-0.9 2.6-1.2 2.5-3.4 3.4 0 1.1-0.1 2.3-0.2 1.2-0.5 2.4-0.7 2.6-2.7 4.7-0.3 0.3-0.6 0.6l1.5 0.9q0.6-0.8 1-1.3 0.2-0.2 0.4-0.4 0.6-0.4 1.1-0.5 0.1 0 0.2 0.1 0.8 0.3 1.6 0.9 0.5 0.3 1.4 1.2 1.8 0.9 2.4 2.9 0.1 0.3 0.1 0.6l60.2-34.7-9.9-5.8q-1 1.2-2.2 2.7-1.4 0.6-2.8 0.6-1.7 0-2.8-0.8-1.5-1.2-2.2-1.9-1.1-1.1-1.8-2.1-0.3-0.6 0.1-1.2 0.5-0.7 0.7-1 0.9-0.6 2.3-1.3z"/>
	<path id="Layer" fill-rule="evenodd" class="s18" d="m174.8 134.9l28.5-16.4v9.6l-28.5 16.4zm61.3-25.8l-10.6 6.1q-1.2-0.8-3.3-0.8-2.5 0-5.2 0.7v-4.6l19.1-11z"/>
	<path id="Layer" fill-rule="evenodd" class="s19" d="m245 181.5q0 0-0.1 0.1-0.4 0.2-1.4 0.7-0.4-0.2-0.8 0 0.1-1 0.2-1.3 0.2-0.1 0.5-0.5 0.3-0.2 0.6-0.5l1.5 0.9q-0.2 0.3-0.5 0.6zm-29.5 13.9q-1.6 0-2.4 0.3-0.9-0.2-1.9-0.7-0.8-0.3-1.6-0.8-1.8-0.9-3.5-2.1-1.3-1-2.3-1.9v-5.5l-3.8-2.2q0-0.1 0-0.1l-0.1-8.8q0.1 1.3 0.6 2.7 0.5 1 1.2 2 1.6 2.1 4.4 4.1 2.5 1.8 5.1 3 2.6 1.1 4.2 1.1 0.7 0 1.4 0 0.2-0.1 0.3-0.1 2.5-0.2 4.1-1.2 0-0.1 0-0.1 1.4-0.8 1.9-2.1 0-0.2 0.1-0.5 0.1-0.4 0.1-0.8 0-0.2-1.1-2.3-1-2.1-1-3.2 0-2.1 0.7-2.8 0.6-0.6 2.7-0.6 0.4 0 1.2 0.1 0 0.2 0 0.4 0 0.3 0.1 0.6 0 0.6 0.1 1.2 0.1 0.6 0.3 1.2 0.1 0.4 0.3 0.7 0.1 0.4 0.3 0.7 0.2 0.4 0.5 0.8 0.4 0.5 0.8 1 0.2 0.1 0.4 0.3 0.3 0.3 0.6 0.5 0.3 0.2 0.6 0.4 0.3 0.2 0.5 0.3 0.9 0.5 1.8 0.9 0.5 0.2 0.7 0.3 0.1 0.3 0.3 0.6 0.3 1 0.5 1.7-0.6-0.1-1.2-0.3-6.5-1.8-7.8-1.8-0.2 0-0.5 0-0.5 0-0.9 0.1v0.4l0.1 8.5q-0.1 2.1-2.1 3.4-1.2 0.7-2.9 1.1-2.1-0.5-2.8-0.5zm-24.1-36.1v-9.6l21.5 12.4q0.1 0.5 0.1 1.1 0 3.5-2.8 4.1-1 0.2-2.8 0.1-1.3 0-2-0.1zm17.3-31.7q0.4 0.2 0.8 0.3 1.3 0.5 3.7 0.6 3.4 0.2 4.5 0.8 2 1 2 4l-8.2 4.7q-1.8-0.2-2.8-0.8-1.5-0.9-1.9-3.1l0.1-9.6q0.3 2.2 1.8 3.1zm43.9 67q0-0.1 0-0.2v0.2z"/>
	<path id="Layer" fill-rule="evenodd" class="s20" d="m133.2 187.4q0.3 1.7 1.5 2.6 0.4 0.2 0.9 0.5 1 0.4 2.7 0.7 2.6 0.6 3.5 1.3 1.2 0.8 1.5 2.2l-8.5 4.9-13.8 8 61.3 35.4 25-14.5q1.7-1.6 3.7-2.9 0.7-0.5 1.2-1.3 0-0.1 0.1-0.1 1.3-2.2 2.4-4.5 1.2-2.4 2.4-4.9 1-2 1.9-4.3-0.1 0-0.1 0 0.2-0.5 0.3-0.9 0.2-0.4 0.3-0.8-0.9-1.6-1-3.1-0.2-2.3 1.2-4.3 1.6-3.1 1.9-3.4 0.2-0.2 0.4-0.3 0.3-0.4 0.6-0.7-2.6-0.7-4.3-1.1-2.1-0.5-2.8-0.5-1.6 0-2.4 0.3-0.3 0.2-0.4 0.3-0.5 0.5-0.6 1.7-0.1 0.5-0.1 1.1 0 0.2 0.1 0.6 0.2 1 1 2.5 1 2.2 1 2.4 0 0.1 0 0.2 0 0.3-0.1 0.6-0.3 1.6-1.9 2.6 0 0 0 0-0.1 0-0.1 0.1-2.1 1.3-5.8 1.3-1.6 0-4.2-1.1-2.6-1.2-5.1-3-2.8-2.1-4.3-4.1-0.1-0.1-0.2-0.2-1.6-2.2-1.7-4.5v-0.3q0.1-2.1 1.4-4 1.4-2 3.1-2 0-0.1 1 0 0.7 0 2.1 0.1 0.6 0 1.2 0 0.9 0 1.6-0.1 0.9-0.3 1.6-0.8 0.9-1 1.1-2.8v-1.6l-3.8-2.2-17.7-10.3-25.5 14.7q-1.8-0.3-2.6-1.6-0.7-1.2-0.9-4-0.1-3-0.7-4.1-0.4-0.6-1-1-1.1-0.8-3-0.8-1.7 0-4.2 0.7-2.8 0.8-5.1 2.1-1.6 0.9-2.8 1.9-1.8 1.5-2.7 3.2-0.7 1.5-0.7 3.1 0 0.6 0.1 1z"/>
	<path id="Layer" fill-rule="evenodd" class="s21" d="m213.1 201.9q1 2.2 1 2.4 0 0.1 0 0.2 0 0.3-0.1 0.6-0.3 1.6-1.9 2.6v-8.3q0.2 1 1 2.5zm-20.7-1.2q-1.6-2.2-1.7-4.5v-0.3q0.1-2.1 1.4-4 1.4-2 3.1-2 0-0.1 1 0 0.7 0 2.1 0.1 0.6 0 1.2 0 0.9 0 1.6-0.1 0.9-0.3 1.6-0.8 0.9-1 1.1-2.8v8q0 0.5 0 1.1 0 3.5-2.7 4.1-1 0.2-2.8 0.1-3-0.1-3.1-0.1-0.5 0-0.9 0.1l-1 0.6q-0.4 0.3-0.7 0.7-0.1-0.1-0.2-0.2zm-71.4 16.5v-9.6l61.3 35.4v9.6zm13.7-17.6q-1.5-1-1.6-3.2l0.1-9q0.2 1.7 1.5 2.6 0.3 0.2 0.9 0.4 1 0.5 2.6 0.8 2.6 0.6 3.6 1.2 1.1 0.8 1.5 2.3l-8.6 4.9q0 0 0 0z"/>
	<path id="Layer" fill-rule="evenodd" class="s22" d="m108.2 151q1.2-0.4 3.9-0.2 0 0 0.1 0 3 0.2 4.2-0.3 1.6-0.7 1.8-3.1 0-0.1 0-0.2v-9.6q0 0.4 0 0.8-0.4 1.8-1.8 2.5-1.2 0.5-4.3 0.3-0.3 0-0.6 0-1.1-0.1-2 0-1.1 0-1.7 0.3-1.9 0.8-1.9 3.8 0 3.4 2.3 5.7zm53.7 9.6l-25.4 14.7v4.8q1.2-1 2.8-1.9 2.3-1.3 5.1-2.1 2.5-0.7 4.2-0.7 1.9 0 3 0.8l10.3-5.9zm-38.9 22.4l-22.4 12.9v9.6l22.4-12.8z"/>
	<path id="Layer" fill-rule="evenodd" class="s23" d="m317.9 139.4q0-1.5 0.3-3.5 0-0.2 0-0.4v-0.1q-1.6 1-4.1 2.6-1.1 0.6-2.4 1.4 1.4 0.2 2.8 0.2 1.7 0.1 3.4-0.2zm7.3-54.7q-0.2 0.6-0.5 1.6-0.7 2.5-2.1 4.7-4.3 6.6-12.4 6.6-4.4 0-5.9-3.2-0.1-0.2-0.3-0.5-0.6-1.7-0.6-4.5 0-2.4 1.8-5.3 0.8-1.3 1.8-2.4 0.1 0.1 0.2 0.2-0.3-0.3-0.6-0.7 0 0 0-0.1-0.9-2.2-1.4-4.2-1.9 0.7-3.7 1.8-0.8 0.5-1.5 1.2-1.3 3-2.2 6.1 0.1-2.3 1.1-5.7 0.6-2.3 1.2-3.7-0.5 0.3-0.9 0.6-1.4 1.2-2.2 2.9-0.7 1.4-1 3.4-0.9 3.1-1.1 6.4-0.2 2.1-0.9 4.7-0.3 1.7-1.2 4.6-0.1 0.2-1.3 4.5-0.8 2.6-1.4 4.3v0.1q-0.4 1-1.5 2.1-1.8 1.7-2 2-0.1 0.1-0.1 0.1-2 2.3-3 4.4-0.9 1.6-1.8 3.1-0.2 0.5-0.6 1 0.7 0.2 1.4 0.5 1.6 0.7 2.8 1.3 0.2-0.3 0.4-0.6 1.5-2.6 3.9-6.1 4.7-6.8 6.2-9.3 0.3 3.8 1.2 7.6 0.2 0.9 0.4 1.7 0.9 4 0.2 8.1-0.8 3.6 0.1 6.4 0.9 3.3 4.1 5.5 0.2 0.2 0.4 0.3 0.5-0.1 1-0.3 0.4-0.1 0.9-0.3 1.8-1.6 2.6-2.4 0.4-0.3 0.6-0.5 1.6-1.2 2.7-2 0.2 0.3 0.5 0.6 1.1 1.3 1.9 2.9 1.9-1.1 4.3-2.2 1.1-0.6 2.1-1.1 4.8-2.5 6.8-4.6 1.2-1.3 2.3-3 0.2-0.6 0.6-1.2 0.6-1.1 1-2.3 0.5-1 0.9-2.4 0.7-2.2 1.5-5.4 1.3-4.9 2-7 0.2-0.7 0.4-1.3 1-2.6 2-4.4 1.3-2.2 2.6-3.5-1.8-3.4-4.3-4.2-1-0.3-2.2-0.2-4.3 0.1-5.6 6l-0.5 10.9-2.3 9.1q-0.8 0.8-1.6 1.6-0.6 0.4-1.2 0.9-0.3 0.3-0.6 0.6 1.5-7.8 2.8-10.9 0.6-1.3 0.7-3.3 0.1-0.7 0.1-3.9 0-5.1 1.5-7.8 2.6-4.4 5.2-5.9-3.2-1.8-5.7-4zm-224.6 111.3l22.4-12.9q-0.4-1.5-1.5-2.3-1-0.6-3.6-1.2-1.6-0.3-2.6-0.8-0.6-0.2-0.9-0.4-0.3-0.2-0.5-0.4-1.1-1.2-1.1-3.2 0-3 2.3-5.4 0.8-0.9 2-1.7 0.8-0.6 1.8-1.1 1.7-0.9 3.6-1.6 0.1 0 0.2-0.1 0.1 0 0.1 0 0.6-0.2 1.3-0.4 1.1-0.3 2.1-0.5 1.1-0.2 2-0.2 1 0 1.7 0.2 1.2 0.3 1.8 1 0.3 0.3 0.5 0.6 0.2 0.4 0.4 0.9 0.3 1.2 0.4 3.2 0 0.2 0 0.4 0.3 2.5 0.8 3.6 0.9 1.2 2.7 1.6l25.4-14.7-25.1-14.5q-3.9-0.8-5.1-0.8-3 0-4.5 1.5-0.8 0.8-1.7 3.3-0.1 0.3-0.3 0.7-0.7 1.8-1.6 2.6-1.3 1.2-3.7 1.4-0.1 0-0.2 0-0.5 0.1-1.1 0.1-3.1 0-5.8-1-0.7-0.3-1.5-0.7-0.3-0.2-0.6-0.3-1.5-0.9-2.5-1.9-2.3-2.3-2.3-5.7 0-3 1.9-3.8 0.6-0.3 1.7-0.3 0.9-0.1 2 0 0.3 0 0.6 0 3.1 0.2 4.3-0.3 1.4-0.7 1.8-2.5 0-0.4 0-0.8 0-0.1 0-0.1 0.1-0.3 0.1-0.5 0-0.8-0.4-1.8l-9.1-5.3-8.2-4.7-58 33.6q1.1 2 1.7 4.6z"/>
	<g id="Clip-Path" clip-path="url(#cp2)">
		<g id="Layer">
			<path id="Layer" fill-rule="evenodd" class="s24" d="m285.3 122.6q1.5 0.7 2.3 1.3 0.2-0.1 0.4-0.3 1.1-1.1 2.3-2.3 1.6-1.7 4.9-5.1 1-0.9 1.8-2-0.9-3.8-1.2-7.6-1.5 2.5-6.2 9.3-2.4 3.5-3.9 6.1-0.2 0.3-0.4 0.6zm19.9-45.7q-0.1-0.3-0.2-0.7-0.3-0.1-0.5-0.2-0.6-0.2-1-0.3-0.4 0-0.6 0 0-0.1-0.1-0.1-0.1-0.1-0.3 0-1.1 0.3-1.7 0.6-0.1 0.1-0.1 0.1l-0.3 0.1q0 0.1-0.1 0.1-0.1 0-0.1 0l-0.1 0.1q-0.6 1.4-1.2 3.7-1 3.4-1.1 5.7 0.9-3.1 2.2-6.1 0.7-0.7 1.5-1.2 1.8-1.1 3.7-1.8zm2 5q-0.1-0.1-0.2-0.2-1 1.1-1.8 2.4-1.8 2.9-1.8 5.3 0 2.8 0.6 4.5 0.2 0.3 0.3 0.5 1.5 3.2 5.9 3.2 8.1 0 12.4-6.6 1.4-2.2 2.1-4.7 0.3-1 0.5-1.6-0.8-0.7-1.6-1.5 0.3 1.5-0.6 2.7-0.2 0.2-0.3 0.4-1.1 1.1-2.2 2.2-2.4 2.4-5 4.7-1.9 1.7-4.5 2.5l-1.2-7.2q-0.7 0-1.3-0.1 0 0 0 0l-2.4 5q-0.7-1.9-0.4-3.8 0.1-0.7 0.3-1.4 0.5-1.7 1.2-3.3 0.2-0.7 0.5-1.3 0.2-0.5 0.5-1.1-0.1 0-0.1 0 0-0.1-0.1-0.1 0 0 0 0zm23.7 6.8q-2.7 1.5-5.2 5.9-1.5 2.7-1.6 7.8 0 3.2 0 3.9-0.1 2-0.7 3.3-1.3 3.1-2.9 10.9 0.3-0.3 0.7-0.6 0.5-0.5 1.1-1 0.9-0.7 1.6-1.5l2.4-9.2 0.4-10.8q1.3-5.9 5.7-6 1.1-0.2 2.2 0.2-1.1-1.5-2.8-2.4-0.5-0.2-0.9-0.5zm-16.9 49.2q2.6-1.5 4.2-2.5-0.1 0.2-0.1 0.5-0.2 2-0.2 3.5 0.1 0 0.2 0l4-0.8q4.5-1.3 6-4.3 1.3-2.4 0.5-6 0.9-0.7 1.7-1.5 0.9-0.7 1.3-1.5 1.5-2.8 2.7-5.7 1.2-3 2.3-6.1 1.1-3.2 2.2-6.5 0.3-1 0.6-2 0.8-5-0.5-9.2-1.4 1.2-2.6 3.5-1 1.8-2 4.4-0.3 0.6-0.5 1.3-0.6 2.1-1.9 7-0.8 3.2-1.5 5.4-0.5 1.4-0.9 2.4-0.5 1.2-1 2.2-0.5 0.6-0.7 1.3-1 1.7-2.3 3-2 2.1-6.8 4.6-0.9 0.5-2 1-2.4 1.2-4.3 2.3 0.4 0.7 0.7 1.5 0.3 0.7 0.6 1.4 0.2 0.4 0.3 0.8zm-180.2 45.4q0.8-1.8 2.6-3.2v-4.8q-1.8-0.4-2.6-1.7-0.6-1-0.8-3.5 0-0.2-0.1-0.5-0.1-2-0.4-3.1-0.1-0.5-0.3-0.9-0.2-0.3-0.5-0.6-0.7-0.7-1.8-1-0.7-0.2-1.7-0.2-0.9 0-2.1 0.2-0.9 0.2-2.1 0.5-0.6 0.2-1.2 0.4-0.1 0-0.1 0-0.2 0-0.3 0.1-1.9 0.6-3.5 1.6-1 0.5-1.9 1.1-1.1 0.8-1.9 1.7-2.4 2.4-2.4 5.4 0 2 1.1 3.1 0.3 0.3 0.5 0.5 0.4 0.2 0.9 0.4 0.8-0.7 1.7-1.4 0.9-0.6 2-1.2 1.2-0.7 2.5-1.2 1.2-0.5 2.6-0.9 2.3-0.7 4-0.7 0.1 0 0.2 0 3 0 4 1.8 0.6 1.1 0.7 4.1 0.3 2.8 0.9 4zm-60.8 5.3q4.3-0.6 8.7 0 0.7 0 1.5 0.2 0.3 0 0.7 0.4-0.2 0.5-0.6 0.8-0.6 0.7-1.5 1 0.9-0.2 1.8 0 0.5 0.2 0.9 0.6 0.1 0.2 0.2 0.3 0.5 0.5 0.7 1.2 0 0.2 0 0.5-1.4 0.9-3 1.5l18.2 10.5v-9.6l-56.4-32.6q0.3 1.4 0.5 3 7 10.9 18 16.4 1.2 0.6 2.3 1.5l5.2 2.6q1.1 0.7 1.9 1.8 0.4 0 0.9-0.1z"/>
		</g>
	</g>
	<path id="Layer" fill-rule="evenodd" class="s25" d="m72.5 189.5q0.3 0.4 0.5 0.8 0.7 2.8-1 4.7-0.1 0.2-0.4 0.5-0.3 0.2-0.6 0.3-1.1 0.7-2.3 0.6-1.5 0-2.3-1 1.2-0.7 2.1-1.3 2.4-1.8 2.2-3.8-0.1-0.7-0.2-1.2 0-0.5-0.1-0.9-0.1-1-0.1-1.3 1.1 0.7 1.8 1.9 0.2 0.3 0.4 0.7zm-41.5-19.8q-0.1-4.6 6.5-6.9 2.5-1 5.3 0.3l1.6 2.8q0.2 0.3 0.4 0.5 6.9 10.9 17.9 16.5 1.3 0.6 2.4 1.4 0.4 0.6 0.7 1.2 1.9 3.8-2.5 8.6-8.8-3.3-16.9-8.2-3.2-1.9-6.3-4.2-3.1-2.1-5.9-4.6-1.6-2.1-2.4-3.9-0.8-1.9-0.8-3.5zm-2.1-23.4l1.3 1.8q0.3 0.3 0.5 0.6l-3.1-1.7q0-0.4 0-0.7 0.6-0.1 1.3 0z"/>
	<path id="Layer" fill-rule="evenodd" class="s26" d="m33.3 269.1l-4.1 3.6 0.4-1.8 0.6-2.9-0.8-1.3-0.2-2.2v-1.2l-0.1-0.5 1.2 0.1 3.2 0.4zm282.1-45.8q1.2 0.9 2.8 1.1 0.3 0 0.6 0 2.9-0.1 5.7-0.7 1.2-0.3 2-0.9 0.3-0.3 0.6-0.5 0 0.3 0.1 0.6 0 0.2 0 0.3 0 0.1 0 0.3 0 1.2-0.5 2-0.5 1-1.9 2.4-1.7 1.5-2.1 2.2-0.2 0.3-0.5 0.5-0.1 0.2-0.2 0.3-0.3 0.3-0.5 0.7-1.1 2.2-1.7 2.9-0.3 0.3-0.6 0.7-1.2 1.3-3 2.2-1.1 0.6-2.5 1-0.9 0.3-1.8 0.4-1.8 0.3-2.7 0.4-1.6 0.1-2.7-0.4-1.1-0.4-1.5-1.6-0.1 0-0.1 0 0-0.1 0-0.1-0.2-0.6-0.2-1.1 0.1-0.6 0.3-1.2 0.1-0.2 0.3-0.5 0.3-0.7 0.9-1.3 0-0.1 0.2-0.4 0.2-0.3 0.6-0.8 0-0.1 0-0.1 0.8-1 2.6-2.8 1.8-1.9 2.2-2.2 0.2-0.8 0.9-1.7 1.4-1.8 2-2.7 0.1 0.5 0.7 1zm-7.2-140.8q0.3 0.1 0.6 0.2-1.1 2.1-1.1 2.9 0 0.7 0.3 1.4 0.4 0.6 0.6 1l-0.1 0.3-2.4 5.1q-0.7-1.9-0.4-3.8 0.1-0.7 0.3-1.4 0.5-1.7 1.2-3.3 0.2-0.7 0.5-1.3 0.2-0.6 0.5-1.1zm2.3 56.7q-0.1-0.1-0.2-0.2-0.5-1-1.1-2.2-0.1-0.1-0.1-0.3-0.8-1.6-1.4-3-0.2-0.4-0.4-0.8 1.6-1.2 2.6-2 0.3 0.2 0.6 0.6 1.1 1.3 1.9 2.9 0.4 0.7 0.7 1.5 0.3 0.7 0.6 1.4 0.2 0.4 0.4 0.9-1.2 0.6-2.4 1.4-0.4 0.2-0.8 0.5-0.2-0.3-0.4-0.7zm-29.8-19.9q0.5 0.3 1 0.5-0.3 0.5-0.6 1 0.7 0.2 1.4 0.5 1.6 0.7 2.8 1.3 1.4 0.7 2.3 1.3 0.1-0.1 0.4-0.4 0.1 0.2 0.2 0.3-1.1 1.1-2 2-0.4 0.4-0.8 0.7-0.8 0.8-1.6 1.5-0.1-0.1-0.2-0.2 0 0 0 0h-0.1q-0.1-0.1-0.3-0.2-0.7-0.5-1.6-1.1-2.2-1.3-3.6-2.4 1.4-2.2 2.7-4.8zm41.7-37q-0.3-1.2-1.5-1.9l0.2-0.4q0.4 0.1 0.8 0.4 0.9 0.8 1.4 2.1 0.2 0.3 0.3 0.7 0.3 1.5-0.6 2.7-0.2 0.2-0.3 0.4-1.1 1.1-2.2 2.2-2.4 2.4-5 4.7-2 1.7-4.5 2.5l-1.2-7.2-0.1-0.4q6.3-0.2 12.1-4.4 0.2-0.3 0.4-0.7 0.3-0.5 0.2-0.7zm-10.5 144.3q0 0 0 0 0 0 0 0zm0 0q0.1-0.1 0.1-0.1-0.1 0-0.1 0.1zm-115.1 13.4q0 0 0.1-0.1 0.7-0.4 1.4-0.9v0.2q0.1 0.8 1.2 1.7 0.7 0.6 1.4 0.9 0.3 0.2 0.6 0.3 0.3 0 0.5 0.1-0.1 0-0.2 0.1-0.7 0.4-1.3 0.8-0.3 0.1-0.5 0.3-0.1 0-0.1 0.1-1 0-1.7-0.1-1-0.2-1.5-0.8-0.9-1.1-0.5-1.9 0.2-0.4 0.6-0.7zm-126.5-53.1q0 0.3 0.1 1.3 0.1 0.4 0.1 0.9 0.1 0.5 0.2 1.1 0.2 2.1-2.2 3.9-0.9 0.6-2.1 1.2l-3.2-1.2q4.5-4.8 2.6-8.6-0.3-0.6-0.8-1.2zm-19.1 92l-0.1 0.5q7.5-1.9 11.6 2.4 0.6 0.6 0 1.5-0.1 0.2-0.2 0.4-0.5 0.8-1.1 1.5-0.5 0.7-1.2 1.3-4 3.8-10.6 3.1-2.7-0.1-5.3 0.3-2.3 0.4-4.6 0.8 0.3-0.1 0.6-0.2 1-0.5 2-0.9 3-1.4 5.5-3.7 3-1.6 3.2-4.8 0-0.3-0.1-0.6l-0.8-1.7zm-20.2-130.1v0.1q0 0 0 0.1-2.4 1.9-6.5 1.3-0.6 0-1.2-0.2-5-1-8.4-7l0.3-1.5q5.5 4.1 11.1 5.2 0.7 0.1 1.4 0.2l3.1 1.7z"/>
	<path id="Layer" fill-rule="evenodd" class="s27" d="m235.3 278.8q-3-0.2-6-1.3-4.7-1.6-9.3-5 0-0.1 0-0.2 1-5.5 1.4-11.3 0.2-3.3 0.3-6.8 0.1-2.3 0-4.6 0-4.5-0.3-9.1 0 0 0.1-0.1 0.7-1.5 1.6-2.7 2.9-4.3 7.1-5.6 3.7-1.1 6.8-2.2 0.5 0 1-0.1 5.1-0.7 8.5-3.2 1.8-1.4 2.5-2.8 0.6-0.4 0.9-0.8 0.5-0.5 0.9-1 4.1 5.2 4.1 10.6v39.9q-3.2 2.3-6.3 3.8-4.4 2.1-8.9 2.5-2.2 0.2-4.4 0zm-225.6-109.7q-8-10.3-5.7-22.4 0.5-2.4 2.7-3.5 1-0.5 2.1-0.8 1-0.2 2.1-0.2l4.2-0.6-0.3 1.5q3.4 6 8.4 7 0.7 0.2 1.2 0.2 4.1 0.5 6.5-1.3 0-0.1 0.1-0.1 2.7 1.6 5.3 3.5 0.8 0.7 1.7 1.3-1 0.6-1.8 1.3-5 3.9-5.5 9.9-0.2 2.2 0.3 4.8 0 1.6 0.8 3.5 1.3 4.9 2.1 9.7 1.8 10 4.6 19.7-0.7 0.3-1.6 0.5-1.9 0.5-3.7 0.5-4.8 0.2-9.1-3.1-0.9-0.6-1.9-1.1-5-2.5-7-7.5 2.2-12.8-5.5-22.8z"/>
	<path id="Layer" fill-rule="evenodd" class="s28" d="m37.3 289.3q0.2-2.6 0.9-8.3 0.7-5.9 1-8.6 0.3-2.6 1-7.8 0.6-4 1.5-9.7 1.4-9.3 1.4-16.2 0-1.9-0.3-4-0.5-3.9-2-8.3-2.9-8-4.3-13-0.3-0.9-2.1-6-0.7-2.1-1.2-3.8 1.8 0 3.7-0.5 0.9-0.2 1.6-0.5 1.3-0.4 2.6-0.9 3.7-1.7 7.8-3.9 4.5 10.2 4.3 21.2 0 5-0.4 9.9-0.5 7.1-1.6 14.2 0 0.1 0 0.3-1.7 11.1-2.6 22.4-0.1 1.8-0.2 3.6-0.1 3.7 0.2 7.3 0.1 1.5 1.5 2.1l0.8 1.7q0.1 2.8-2.2 4.6-0.4 0.4-0.9 0.8-2.5 2.2-5.5 3.7-1 0.4-2.1 0.9-0.3 0.1-0.5 0.2-1.4 0.5-2.5 0.6 0-1.3 0.1-2zm-10.3-12.1q-0.3 0.5-0.7 0.8 0 0.1-0.1 0.1l-1.9 1.6q-0.1 0.1-0.2 0.2-0.6-3.4-1-8.7-0.1-2.2-0.2-4.7-0.1-2.5-0.1-5.3 0-4.8 0-5.1 0-4.9 2.8-25.3 1.6-11.9 2.3-16.7 1.2 3.5 2.5 7 1.7 4.5 3.1 9-2.4 8.9-3.5 18-0.7 6.3-1 12.7 0 1.3 0.1 2.5 0 0.6 0.1 1.2l0.2 2.2 0.8 1.3-1.4 5.5-0.7 1.7z"/>
	<path id="Layer" fill-rule="evenodd" class="s29" d="m30.2 268l-1.4 5.5 0.8-2.6zm-2.3-53.9q-2.2-6.7-3.9-13.6-0.9-0.6-1.9-1.1-4.9-2.5-6.9-7.5-1.1 4.6-0.3 9.3 2 11.8 3.4 23.6 0.3 2.3-0.3 4.5-2.7 10.7-3.5 21.8-0.3 4.4-0.7 8.9-0.6 6 0.2 11.6 0.8 4.9 2.5 9.6 4.1 0.8 7.5-1.3-0.6-3.4-0.9-8.7-0.1-2.2-0.2-4.7-0.1-2.6-0.1-5.4 0-4.7 0-5 0-4.9 2.7-25.3 1.7-11.9 2.4-16.7z"/>
	<path id="Layer" fill-rule="evenodd" class="s30" d="m232.8 182.2q0.1 0.3 0.3 0.6 0.3 1 0.5 1.7v0.1q0.1 0.7 1.1 1 0.6 0.2 1.7 0.1 0.4 0 0.8 0 2.5-0.2 5-2.1 0.1-0.2 0.2-0.5 0.1-0.2 0.2-0.5 0.1-0.1 0.1-0.2v-0.1q0.1-1 0.2-1.3 0.2-0.1 0.5-0.5-0.9 0.8-1.7 1.1-1.4 0.4-2.2 0.5-1.2 0.3-2.8 0.3-0.1 0-0.2 0h-0.1q-1.8 0.1-3.2-0.7-0.1-0.1-0.2-0.1-0.4-0.2-0.6-0.7l0.2 1q0.1 0.1 0.2 0.3zm89.5-106.5q-0.6 0.1-1.3-0.3-0.1 0.1-0.1 0.1-0.4 0.5-0.8 1.6-0.5 1.1-0.9 1.6-0.6 0.7-1.7 1.4-1.4 0.7-2 1.1-2.1 1.1-5.2 2-0.8-0.2-1.4-0.3 0 0.3 0.2 1 0.1 0.5 0.5 1.1 0.4 0.6 0.9 1.1 0.7 0.8 1.6 1.1 0.9 0.2 1.7 0 1-0.1 1.9-0.4 0.7-0.2 1.4-0.5 1.4-0.7 2.6-1.8 0.7-0.7 1-1.7 0.3-0.8 0.3-1.5 0-0.3-0.1-0.6-0.1-0.9 0.5-2.3 0.6-1.6 0.7-2.3 0.1-0.2 0.2-0.4z"/>
	<path id="Layer" fill-rule="evenodd" class="s31" d="m306.1 141.6q0 0 0.1-0.1 0.1 0 0.1-0.1 4.4-1.4 4.6-1.5 0.4-0.2 0.8-0.5 1.4 0.2 2.8 0.2l1 14.8q0.3 3.5 0.4 7 0.4 6.4-0.4 12.8-0.8 6.3 0.6 12.5 1.5 6.3 2.4 12.8 0.9 6.3 0.7 12.8-0.1 1.9-0.2 3.7-0.1 1.2-0.2 2.4 0 0.4 0 0.9-0.3 2.5-0.6 5.1-1.6-0.2-2.8-1.1-0.6-0.4-0.7-1 0-0.2 0-0.4 0.1-0.5 0.1-0.9 0.3-2.3 0.7-4.6 0-0.2 0-0.4 1.1-6.4 0.9-12.9-0.4-11.1-3.6-21.7-0.4-1.6-0.4-3.3 0.2-8.1-1.5-17l3-1.8v-9.6l-9.9-5.8q0.8-0.8 1.4-1.5 0.4-0.4 0.7-0.8zm1-0.8q0.3-0.2 0.5-0.3 0.1 0-0.1 0.1 0 0-0.4 0.2zm-10.9-2.2q0.4-3.8 1.2-7.4 0.1-0.5 0.3-0.8 0.9 3.3 4.1 5.5-0.1 0.2-0.1 0.5h0.1q-3.4 1.1-5.6 2.2zm5.3 29.6q0.6 1.9 1.7 5.4 0.6 2.2 1.5 4.9 0.9 3.2 1.7 6.3 0.1 0.2 0.2 0.5 2.8 11.3 3.3 19.9 0 0.1 0 0.2 0.3 6.7 0.2 7.9-0.1 1-0.5 4.5-0.1 1.2-0.2 2.5-0.8-0.4-1.3-1-0.1-0.2-0.3-0.3-0.1-0.2-0.1-0.3 0-0.1 0-0.2 0-0.3 0.1-0.4 0.7-2 0.6-4.1 0-0.9-0.1-1.7-0.1-0.6-0.1-1.2l-1.2-16.5q-0.1-0.9-0.2-1.7-0.3-3.3-1.4-6.4-0.5-1.1-1-2.1-1.3-2.7-2.2-5.5-0.8-2.3-1.6-4.6-0.3-0.7-0.6-1.4-0.5-1.5-1-2.9-0.3-0.9-0.6-1.8l2.7-1.5q0.2 0.7 0.4 1.5z"/>
	<path id="Layer" fill-rule="evenodd" class="s32" d="m309.4 220.3q0.9 0.5 2 0.6 1.7 0.2 3.4 0.1 0.3-2.3 0.7-4.6 0-0.2 0-0.4 1.1-6.4 0.9-12.9-0.4-11.1-3.6-21.7-0.4-1.6-0.4-3.3 0.2-8.1-1.5-17l-9.8 5.6q0.2 0.7 0.4 1.5 0.6 1.9 1.7 5.4 0.6 2.2 1.5 4.9 0.9 3.2 1.7 6.3 0.1 0.2 0.2 0.5 2.8 11.3 3.3 19.9 0 0.1 0 0.2 0.3 6.7 0.2 7.9-0.1 1-0.5 4.5-0.1 1.2-0.2 2.5zm-7.6-84.4q-0.1 0.2-0.1 0.5h0.1q0.2-0.1 0.4-0.2-0.2-0.1-0.4-0.3zm16.4 88.5q0.3 0 0.6 0 2.8-0.1 5.7-0.7 1.2-0.2 2-0.9 0.3-0.2 0.6-0.5 0.3-0.4 0.6-0.9 0-0.1 0.1-0.2 0.3-0.9 0.6-1.9 0.6-2.9 1.2-5.9 0.5-2.9 1-5.8 0.5-3.1 1-6.2 0.3-2.7 0.4-5.5 0.1-2.7-0.1-5.5-0.3-3.2-1.4-6.2-0.2-0.5-0.3-0.9-0.5-2.1-0.5-4.3 0-3.2 0.2-6.4 0.2-1.7 0.3-3.4 0.2-2.7 0.6-5.3 0.2-2 0.5-4 1.1-8.5 1.3-13.3 0.4-9-4.4-12.2-1.6 2.9-6.1 4.2l-3.9 0.8q-0.2 0-0.3 0-1.7 0.3-3.4 0.2l1 14.8q0.3 3.5 0.4 7 0.4 6.4-0.4 12.8-0.8 6.3 0.6 12.5 1.5 6.3 2.4 12.8 0.9 6.3 0.7 12.8-0.1 1.9-0.2 3.7-0.1 1.2-0.2 2.4 0 0.4 0 0.9-0.3 2.5-0.6 5.1z"/>
	<path id="Layer" fill-rule="evenodd" class="s33" d="m313.9 149.7l-60.2 34.7q0.3 1.7-0.4 3.2-0.1 0.2-0.1 0.3 0.1 1 0.1 2.1 0 0.3 0 0.6-0.1 1.9-0.6 3.8v0.2l45.7-26.4 2.7-1.5 9.8-5.6 3-1.8z"/>
	<path id="Layer" fill-rule="evenodd" class="s34" d="m224.4 223.1q-0.2 0.3-0.2 0.7l0.1-0.3zm18.1-39.9q0.1 0 0.2-0.1-0.1-0.2 0-0.4-0.1 0.2-0.2 0.5zm-15.5-9.7q0.4 0.4 0.7 0.6-0.1-0.3-0.1-0.5-0.2 0.1-0.4 0.1-0.1-0.1-0.2-0.2z"/>
	<path id="Layer" fill-rule="evenodd" class="s12" d="m242.6 182.6q0 0.2 0 0.5 0 0.5 0.2 1.2 0.2-0.1 0.3-0.2 0.2-0.1 0.4-0.1 0.4 0 0.7 0-0.2 1.4-1.5 2.3-1 0.7-2.4 1.2-0.1 0-0.3 0-1.3 0.4-3 0.1-0.9-0.2-2.2-0.6l-1.3-0.5v-0.3q0-0.4 0.1-1-0.3 0.1-0.5 0.2-0.5 0.2-0.8 0.9-0.2 0.4-0.4 1.1-0.2 0.7-1 1.6-0.9 1-1.1 1.3 0.4 0 1.1 0.1 0.6 0 1.4 0 1.8-0.1 2.5 0 0.7 0 2.3 0.3 1.5 0.2 2.3 0.2 2.4-0.4 4.1-1.5 0.8-0.6 1.5-1.3 0.7-0.8 1-1.7 0.4-1.1-0.1-2.1-0.4-0.5-1.1-1v-0.1q-0.1 0-0.1 0-0.1-0.1-0.2-0.1l-0.9-0.7q0 0-0.1-0.1-0.4-0.2-0.8 0v0.1q0 0.1-0.1 0.2z"/>
	<path id="Layer" fill-rule="evenodd" class="s35" d="m249 223.8q0.7-1.3 0.5-2.5-0.1-0.6-0.3-1.1-0.4-0.9-1.2-1.6l0.4 1.3q-3.7 5-9.4 7.3-1.4 0.6-3.1 0.7-1 0.1-2 0-3.3-0.2-6.3-1.5-1.6-0.6-3-1.6 0.2 1.5 1.4 2.6 1.1 0.9 2.9 1.6 3.5 1.4 8.1 0.9 0.5 0 1-0.1 5.1-0.7 8.5-3.2 1.8-1.4 2.5-2.8z"/>
	<path id="Layer" fill-rule="evenodd" class="s36" d="m222 229.7l2.2-5.9q0-0.4 0.2-0.7l0.3-3.2q-1.2 2-2.3 4-0.1 0 0 0h-0.1q0.1 0 0.1 0v0.1q-0.1 0-0.1 0.1l-0.6 1q-0.5 0.9-0.8 2-0.8 2.6-2.6 4.7zm-39.7 13.3v9.6l9.8-5.7q0.9-2.5 2.4-4.6 0.9-0.5 1.2-1.1 0.1-0.1 0.2-0.3 0.1 0 0.2-0.1 0.1-0.1 0.2-0.1 0.2-0.3 0.5-0.7 0 0 0.2-0.1 0.6-0.4 1.4-0.9v-0.2q0 0 0-0.1-0.1-0.2-0.1-0.4 0.1-0.2 0.2-0.3 0.9-0.7 1.6-1.4 0.1-0.1 0.1-0.1 0.8-0.7 1.1-1.2 0.2-0.2 0.3 0 0.3-0.4 0.6-0.7 0.8-0.9 1.6-1.9 0 0 0.1-0.1 1.4-1.9 3.1-3.7 0.2-0.2 0.4-0.4z"/>
	<path id="Layer" fill-rule="evenodd" class="s37" d="m314.8 221q-1.7 0.1-3.4-0.1-1.1-0.1-2-0.6-0.8-0.4-1.3-1-0.5 0.3-1 0.7-1.8 1.3-2.5 2-0.6 0.2-1.1 0.5-3.3 1.6-4.8 3.1-0.2 0.2-0.4 0.5-0.9 0.9-1.4 1.5-1 1.2-1.6 2.3-0.2 0.4-0.3 0.9-0.1 0.3-0.1 0.7 0 0.1 0 0.3 0.1 0.6 0.6 1.2 0.7 0.7 1.9 1 0.9 0.2 2.3 0.2 3.8-0.1 6.7-1.6 0.2-0.3 0.6-0.8 0 0 0 0 0.8-1.1 2.6-2.9 1.8-1.9 2.2-2.2 0.2-0.8 0.9-1.7 1.4-1.8 2-2.7 0-0.2 0-0.4 0.1-0.5 0.1-0.9z"/>
	<path id="Layer" fill-rule="evenodd" class="s38" d="m327.5 225q0.2 1.6-0.8 3.3-0.8 1.3-2.3 2.5-1 0.1-1.4 0.3-0.6 0.6-1.3 2-0.7 1.5-1.2 2.1-1.6 2.1-4.1 3.4-2.3 1.2-5.1 1.7-1.8 0.2-2.7 0.2-1.6-0.1-2.7-0.7-1-0.5-1-1.9 0-0.3 0.1-0.6 0.4 1.1 1.5 1.5 1.1 0.5 2.7 0.4 0.9 0 2.7-0.4 0.9-0.1 1.8-0.4 1.3-0.4 2.5-1 1.8-0.9 3-2.2 0.3-0.3 0.6-0.7 0.6-0.7 1.7-2.8 0.2-0.5 0.5-0.8 0.1-0.1 0.2-0.3 0.3-0.2 0.4-0.5 0.5-0.7 2.2-2.2 1.4-1.4 1.9-2.4 0.5-0.8 0.5-2 0.4 0.7 0.3 1.5zm-27 10.3q-3.2 0.2-4.9-1.1-0.8-0.5-0.8-1.7 0-0.4 0.1-0.7 0.1 0.6 0.6 1.2 0.7 0.7 1.9 1 0.9 0.2 2.3 0.2 3.8-0.1 6.7-1.6-0.2 0.3-0.2 0.4-0.6 0.7-1 1.3-2.1 0.8-4.7 1z"/>
	<path id="Layer" fill-rule="evenodd" class="s39" d="m311.9 226.6q0.1-0.1 0.2-0.1h-0.1q0 0.1-0.1 0.1z"/>
	<g id="Clip-Path" clip-path="url(#cp3)">
		<g id="Layer">
			<path id="Layer" fill-rule="evenodd" class="s40" d="m239.9 317.1q0.4-0.2 0.9-0.4v4.3q-0.2 0.4-0.2 1.5v1q0.2 0.7 1.1 0.7 0.6 0 1-0.1 0.3 0 1-0.1 0-0.5-0.1-1-0.1-1.4-0.2-2.2-0.2-2 0-3.3 0.1-0.8 1-1.7 1.2-1.1 1.4-1.5 0.4-1.1 0.2-2.1-0.1-1.1-0.7-1.8-0.6-0.7-2-1.5-0.3-0.2-0.6-0.4-0.9-0.6-1.3-1.2-0.5-0.6-1-1.1 0 0.2 0 0.3 0.1 0.3 0.1 0.6-0.4 0.9-1 2.5-0.8 1.8-1.4 2.8-0.8 1.6-2 2.9-2.2 2.3-4.7 2.3-1.1 0-1.4-0.7 0.3-0.8 1-1.5 0.4-0.5 0.5-0.6v-0.1l-1.8 0.1-0.9 0.1q-0.7 0-1.4 0-0.6 0-1 0-3.3 1 0 4.8 0.9 1.1 1.3 1.4 1.6 1.6 3.3 2.2 0.7 0.3 1.3 0.3 0.8-0.1 1.2-0.6 0.4-0.4 0.8-1 0.3-0.3 0.7-0.7 1.5-1.9 1.8-2.4 0.6-0.6 2.8-1.7 0.2 0 0.3-0.1z"/>
		</g>
	</g>
	<path id="Layer" fill-rule="evenodd" class="s41" d="m24.1 200.5q1.6 6.9 3.8 13.6 1.2 3.5 2.5 7 1.7 4.5 3.1 9 0-0.1 0.1-0.1l0.6 2q0.1 0.3 0.1 0.6l1.5 4.7q0.2 1.2 0 2.4-0.9 11.3-2.2 22.7 0 0.5-0.1 0.9l-0.2 5.8v1.2q-0.7 8.2-1.4 16.2 0.2 0.3 0.3 0.6 0.3 2 1.3 3.1 1.3 1.5 3.7 1.1 0-1.3 0.1-2 0.2-2.6 0.9-8.3 0.7-5.9 1-8.6 0.3-2.6 1-7.8 0.6-4 1.5-9.7 1.4-9.3 1.4-16.2 0-1.9-0.3-4-0.5-3.9-2-8.3-2.9-8-4.3-13-0.3-0.9-2.1-6-0.7-2.1-1.2-3.8-4.8 0.2-9.1-3.1z"/>
</svg>