<svg version="1.2" xmlns="http://www.w3.org/2000/svg" viewBox="0 0 162 144" width="162" height="144">
	<title>2-svg</title>
	<defs>
		<clipPath clipPathUnits="userSpaceOnUse" id="cp1">
			<path d="m72.86 93.69h39.24v49.56h-39.24z"/>
		</clipPath>
	</defs>
	<style>
		.s0 { fill: #f2f2f2 } 
		.s1 { fill: #404040 } 
		.s2 { fill: #ffffff } 
		.s3 { fill: #ed1442 } 
	</style>
	<path id="Layer" class="s0" d="m53.8 117.8v-0.4c0-4.3-0.9-8.6-2.5-12.6-1.7-4.1-4.1-7.7-7.2-10.8-6.2-6.4-9.7-14.9-9.7-23.9-0.1-18.8 15.1-34.4 34-34.5q0.1 0 0.3 0c9.2 0 17.8 3.6 24.3 10 6.5 6.5 10 15.2 10 24.3 0 9.2-3.5 17.8-9.9 24.2-3 3.1-5.4 6.7-7 10.7-1.7 4-2.5 8.3-2.5 12.6v0.4z"/>
	<path id="Layer" fill-rule="evenodd" class="s1" d="m103.2 69.9c0 9.5-3.8 18.1-10 24.4-6.1 6.1-9.4 14.5-9.4 23.1v0.5h-30.2v-0.5c0-8.7-3.5-17.1-9.6-23.3-6-6.2-9.7-14.6-9.8-24-0.1-18.9 15.2-34.5 34.2-34.7q0.1 0 0.3 0c19 0 34.5 15.5 34.5 34.5zm-34.8-34.2c-18.8 0.2-34 15.6-33.9 34.4 0.1 9 3.5 17.4 9.8 23.8 3 3.1 5.4 6.8 7.1 10.8 1.7 4.1 2.5 8.3 2.5 12.7v0.2h29.6v-0.2c0-4.4 0.8-8.6 2.4-12.6 1.7-4.1 4-7.7 7.1-10.8 3.1-3.1 5.5-6.7 7.2-10.8 1.8-4.2 2.7-8.7 2.7-13.3 0-4.6-0.9-9.1-2.7-13.3-1.7-4-4.2-7.7-7.3-10.8-3.2-3.2-6.8-5.7-10.9-7.4-4.2-1.8-8.7-2.7-13.3-2.7q-0.2 0-0.3 0z"/>
	<path id="Layer" class="s1" d="m79.9 123.9h-22.4c0 0 0.9 8.1 7 11 0.5 1.4 1.7 3.4 4.3 3.4 2.6 0 3.7-1.8 4.2-3.2 6.6-2.6 6.9-11.2 6.9-11.2z"/>
	<path id="Layer" class="s1" d="m84.6 120.5h-31.8c-1 0-1.8-0.8-1.8-1.8v-0.3c0-0.9 0.8-1.8 1.8-1.8h31.8c1 0 1.8 0.9 1.8 1.8v0.3c0 1-0.8 1.8-1.8 1.8z"/>
	<path id="Layer" class="s1" d="m84.6 125.4h-31.8c-1 0-1.8-0.8-1.8-1.8v-0.3c0-1 0.8-1.8 1.8-1.8h31.8c1 0 1.8 0.8 1.8 1.8v0.3c0 1-0.8 1.8-1.8 1.8z"/>
	<path id="Layer" fill-rule="evenodd" class="s1" d="m74.8 116.8q0 0 0 0c-0.1 0-0.2-0.1-0.1-0.2l7.9-21.1c-1 0.3-2.2 0.6-3.5 0.6-1.4 0.1-2.6-0.2-3.6-0.7q-0.5-0.4-1.1-0.8c-1.4 1.1-3.1 1.7-4.9 1.7-2 0-4-0.8-5.6-2.1q-1.1 1.1-2.4 1.8c-2.2 1.1-4.7 0.9-6.6-0.3l7.8 20.9c0.1 0.1 0 0.2-0.1 0.2 0 0-0.1 0-0.2-0.1l-8-21.4q0-0.1 0.1-0.1 0.1-0.1 0.2 0c1.8 1.4 4.4 1.6 6.7 0.5q1.2-0.6 2.2-1.7c-1-0.9-1.9-2-2.5-3.2q-0.9-2-0.5-3.6c0.2-1.1 1.2-2.3 2.5-2.4 1.3-0.1 2.4 0.9 2.8 2q0.6 1.4 0.1 3.5c-0.4 1.4-1.1 2.6-1.9 3.7 1.5 1.2 3.4 2 5.4 2q0 0 0 0c1.7 0 3.4-0.6 4.7-1.6-1.4-1.2-2.4-2.9-2.8-4.8-0.4-1.7-0.1-3.7 1.4-4.6 1.2-0.7 3-0.2 4 1.1 0.8 1.1 1 2.7 0.6 4.3-0.4 1.6-1.4 3-2.7 4q0.5 0.4 1 0.7c2 1.2 4.8 0.7 7.1 0q0.1 0 0.1 0.1 0.1 0.1 0.1 0.1l-8 21.4q-0.1 0.1-0.2 0.1zm-0.8-31.8q-0.5 0-1.1 0.3c-1.4 0.8-1.6 2.7-1.2 4.3 0.4 1.8 1.4 3.4 2.8 4.6 1.2-1 2.2-2.3 2.6-3.9 0.4-1.5 0.2-3-0.6-4-0.5-0.8-1.5-1.3-2.5-1.3zm-10.7 0.1q-0.1 0-0.2 0c-1.1 0.1-2 1.2-2.2 2.2q-0.4 1.5 0.5 3.3c0.6 1.3 1.4 2.3 2.4 3.2 0.9-1 1.5-2.2 1.9-3.6q0.5-1.9 0-3.3c-0.4-0.9-1.3-1.8-2.4-1.8z"/>
	<path id="Layer" class="s2" d="m58.9 45.2c1.4 1.5-0.9 5.8-5.1 9.5-4.2 3.7-8.6 5.4-10 3.9-1.4-1.6 0.9-5.8 5.1-9.5 4.2-3.7 8.7-5.5 10-3.9z"/>
	<path id="Layer" class="s1" d="m20 115.8l0.2 20.9h-3.1c-0.9 0-1.6 0.7-1.6 1.6h1q-0.3 0.2-0.3 0.7c0 0.5 0.4 0.9 1 0.9 0.5 0 0.9-0.4 0.9-0.9 0-0.3-0.1-0.6-0.2-0.7h2.3v0.7q-0.2 0.3-0.1 0.7c0 0.4 0.4 0.8 0.8 0.8 0.6 0.1 1.1-0.4 1.1-0.9q0-0.3-0.2-0.6v-0.7h2.2q-0.1 0.2-0.1 0.5c0 0.4 0.4 0.8 0.8 0.8 0.6 0.1 1.1-0.3 1.1-0.9q0-0.2-0.1-0.4h1.2l-0.4-1.1c-0.3-0.3-0.7-0.5-1.2-0.5h-3.5l-0.2-20.9z"/>
	<path id="Layer" class="s2" d="m28.4 114.8h-15.6v-13.1c0-1.9 1.6-3.5 3.5-3.5h8.6c1.9 0 3.5 1.6 3.5 3.5z"/>
	<path id="Layer" fill-rule="evenodd" class="s1" d="m28.4 114.9h-15.6q-0.1 0-0.1-0.1v-13.1c0-2 1.6-3.6 3.6-3.6h8.6c2 0 3.6 1.6 3.6 3.6v13.1q0 0.1-0.1 0.1zm-15.5-0.2h15.4v-13c0-1.9-1.5-3.4-3.4-3.4h-8.6c-1.9 0-3.4 1.5-3.4 3.4z"/>
	<path id="Layer" class="s2" d="m12.4 114.8h16.9c0.9 0 1.6 0.7 1.6 1.6 0 0.9-0.7 1.6-1.6 1.6h-16.9c-0.9 0-1.6-0.7-1.6-1.6 0-0.9 0.7-1.6 1.6-1.6z"/>
	<path id="Layer" fill-rule="evenodd" class="s1" d="m29.3 118.1h-16.9c-0.9 0-1.7-0.8-1.7-1.7 0-0.9 0.8-1.7 1.7-1.7h16.9c0.9 0 1.7 0.8 1.7 1.7 0 0.9-0.8 1.7-1.7 1.7zm-16.9-3.2c-0.8 0-1.5 0.7-1.5 1.5 0 0.8 0.7 1.5 1.5 1.5h16.9c0.8 0 1.5-0.7 1.5-1.5 0-0.8-0.7-1.5-1.5-1.5z"/>
	<path id="Layer" class="s3" d="m16.7 111.9c-0.1-0.1-0.2-0.7-0.4-3.5q0 0 0 0 0-0.1-0.1-0.1 0 0 0 0c0 0-1.3 0.3-2.3 0.3q-0.9 0-1-0.3c-1-6.7 1.2-10.3 3.2-12.1 0.7-0.6 2-0.8 2.1-0.8l3.3-0.5c0.2 0 1.6 0 3.2 1.4 2.1 1.8 3.5 5 4.2 9.4 0.1 0.8-0.1 1.5-0.6 2-0.4 0.5-0.9 0.8-1.6 0.8h-2.1q-0.1 0-0.1 0.1c-0.3 2.4-0.4 3.1-0.5 3.3z"/>
	<path id="Layer" fill-rule="evenodd" class="s1" d="m29 105.7c0.2 1.5-0.8 2.9-2.3 2.9h-2.1c-0.4 3-0.5 3.4-0.5 3.4h-7.5c0 0-0.2 0-0.4-3.6 0 0-1.3 0.3-2.3 0.3-0.6 0-1-0.1-1.1-0.4-1.1-7.3 1.6-10.7 3.2-12.2 0.7-0.6 2.1-0.8 2.1-0.8l3.4-0.5q0 0 0 0c0.5 0 5.8 0.2 7.5 10.9zm-7.5-10.7l-3.3 0.5c0 0-1.4 0.1-2.1 0.8-1.9 1.8-4.1 5.4-3.1 12 0 0.1 0.3 0.3 0.9 0.3 1 0 2.3-0.3 2.3-0.3q0 0 0 0 0.1 0 0.1 0 0.1 0 0.1 0.1c0.1 2.5 0.3 3.2 0.3 3.4h7.2c0.1-0.2 0.2-1.1 0.5-3.3 0 0 0.1-0.1 0.2-0.1h2.1c0.6 0 1.2-0.3 1.6-0.7 0.4-0.5 0.6-1.2 0.5-2-0.4-2.4-1-4.5-1.8-6.1q-1-2-2.3-3.2-1-0.9-2.1-1.2c-0.6-0.2-1-0.2-1.1-0.2q0 0 0 0z"/>
	<path id="Layer" class="s2" d="m21.8 90.2l-0.3-1.6-2.1-0.7-2.6 2.4 0.3 2.4c0 0.8 0.5 1.5 1.2 1.7l0.1 0.9 1.2 2.2 2.2-2.6 0.2-2.9c0 0 1.4 0.2 1.2-1.1-0.1-1.3-1.4-0.7-1.4-0.7z"/>
	<path id="Layer" fill-rule="evenodd" class="s1" d="m19.6 97.6q0 0-0.1 0 0-0.1 0-0.1l-1.2-2.2q0 0 0 0l-0.1-0.8c-0.7-0.3-1.2-1-1.2-1.8l-0.3-2.4q0-0.1 0-0.1l2.6-2.3q0.1-0.1 0.1-0.1l2.1 0.7q0 0 0.1 0.1l0.3 1.5c0.2-0.1 0.6-0.2 1 0q0.4 0.2 0.4 0.8 0.1 0.5-0.2 0.9c-0.3 0.3-0.8 0.3-1 0.3l-0.2 2.8q0 0 0 0l-2.3 2.6q0 0.1 0 0.1zm-1.1-2.4l1.1 2.1 2.1-2.4 0.2-2.9q0-0.1 0-0.1 0.1 0 0.1 0c0 0 0.7 0.1 1-0.3q0.2-0.2 0.2-0.7-0.1-0.5-0.4-0.7c-0.4-0.2-0.9 0.1-0.9 0.1q-0.1 0-0.1 0 0-0.1-0.1-0.1l-0.3-1.6-2-0.6-2.5 2.3 0.2 2.4c0.1 0.7 0.6 1.4 1.2 1.6q0.1 0.1 0.1 0.1z"/>
	<path id="Layer" class="s1" d="m17.7 90.9c0 0.1-0.1 0.2-0.1 0.2-0.1 0-0.2-0.1-0.2-0.2 0-0.1 0-0.2 0.1-0.3 0.1 0 0.2 0.1 0.2 0.3z"/>
	<path id="Layer" class="s1" d="m19.1 90.7c0.1 0.1 0 0.2-0.1 0.2 0 0-0.1-0.1-0.1-0.2 0-0.1 0-0.2 0.1-0.2 0.1 0 0.1 0.1 0.1 0.2z"/>
	<path id="Layer" class="s1" d="m18.3 92.6q-0.2 0-0.3-0.1-0.1-0.2-0.1-0.4l0.1-0.3-0.1-0.9q0-0.1 0.1-0.1 0.1 0 0.1 0.1l0.1 0.9q0 0 0 0l-0.1 0.4q0 0.1 0 0.2 0.1 0 0.2 0 0.1 0 0.1 0.1 0 0.1-0.1 0.1 0 0 0 0z"/>
	<path id="Layer" class="s1" d="m23 91.1q-0.1 0-0.1 0-0.1-0.4-0.3-0.5c-0.2-0.1-0.4-0.1-0.4-0.1q-0.1 0.1-0.1 0-0.1-0.1 0-0.1c0 0 0.3-0.1 0.6 0q0.3 0.2 0.4 0.6 0 0.1-0.1 0.1 0 0 0 0z"/>
	<path id="Layer" class="s1" d="m22.3 91.5q0 0 0 0-0.1 0-0.1-0.1c0.1-0.6 0.5-0.9 0.5-0.9q0.1 0 0.2 0.1 0 0.1-0.1 0.1c0 0-0.4 0.2-0.4 0.7q-0.1 0.1-0.1 0.1z"/>
	<path id="Layer" class="s1" d="m21.8 90.3q0 0 0 0c-2.2-0.2-2.1-2.3-2.1-2.3q0-0.1 0.1-0.1 0 0 0 0.1c0 0.1-0.1 1.9 2 2.1q0.1 0 0.1 0.1 0 0.1-0.1 0.1z"/>
	<path id="Layer" class="s1" d="m16.6 88.8c0-0.8 0.4-1.6 1.1-2 0.8-0.4 2-0.7 3.6-0.3 0.8 0.2 1.4 1 1.5 1.8l0.1 1.9c-0.4-0.3-1.1 0-1.1 0-1.6-0.7-2-1.8-2-1.8 0 0-1.4 1.8-3.1 1.9z"/>
	<path id="Layer" class="s1" d="m18.7 90.3q0 0-0.1 0 0-0.1 0-0.1c0.2-0.2 0.5-0.4 0.9 0q0.1 0 0 0.1 0 0-0.1 0c-0.3-0.3-0.6 0-0.6 0q-0.1 0-0.1 0z"/>
	<path id="Layer" class="s1" d="m17 90.5q0 0 0 0-0.1-0.1-0.1-0.1c0.3-0.3 0.6-0.2 0.8-0.1q0 0 0 0.1-0.1 0-0.1 0c-0.1 0-0.3-0.2-0.5 0.1q0 0-0.1 0z"/>
	<path id="Layer" class="s1" d="m18.5 94.5q-0.1 0-0.2 0-0.1 0-0.1-0.1 0-0.1 0.1-0.1 0.5 0.1 0.9-0.1l0.5-0.1q0.1-0.1 0.1 0 0 0.1-0.1 0.1l-0.4 0.2q-0.4 0.1-0.8 0.1z"/>
	<path id="Layer" class="s1" d="m18.8 93.6q-0.1 0-0.3-0.1 0 0 0-0.1 0-0.1 0.1-0.1c0.2 0.1 0.4 0.1 0.4 0q0.2-0.1 0.2-0.1 0.1-0.1 0.2-0.1 0 0 0 0.1c0 0.1-0.1 0.2-0.3 0.3q-0.1 0.1-0.3 0.1z"/>
	<path id="Layer" class="s2" d="m17.3 106l-0.3 1.6 4.3-0.7z"/>
	<path id="Layer" fill-rule="evenodd" class="s1" d="m17 107.7q-0.1 0-0.1 0 0 0 0-0.1l0.3-1.6q0-0.1 0-0.1 0.1 0 0.1 0l4 0.9q0.1 0 0.1 0.1 0 0.1-0.1 0.1l-4.3 0.7q0 0 0 0zm0.4-1.6l-0.3 1.4 3.7-0.6z"/>
	<path id="Layer" class="s2" d="m23.5 105.2l-6.5 1.9c0 0-2.9-0.3-3 1.3h9.3z"/>
	<path id="Layer" fill-rule="evenodd" class="s1" d="m23.3 108.5h-9.3q-0.1 0-0.1 0 0 0 0-0.1c0-0.7 0.6-1.1 1.6-1.3 0.7-0.1 1.4-0.1 1.5-0.1l6.5-1.9q0.1 0 0.1 0 0 0 0 0.1l-0.2 3.3q0 0-0.1 0zm-9.2-0.1h9.1l0.2-3.1-6.4 1.9q0 0 0 0c-0.1 0-2.7-0.2-2.9 1.2z"/>
	<path id="Layer" class="s1" d="m23.7 105.2q-0.1 0-0.1-0.1 0 0 0-0.1l3.3-1.1q0.1-0.1 0.1 0 0 0.1 0 0.1l-3.3 1.2q0 0 0 0z"/>
	<path id="Layer" class="s1" d="m24.7 104.7q0 0 0 0 0 0 0-0.1l0.1-2.6q0-0.1 0.1-0.1 0.1 0 0.1 0.1l-0.2 2.7q0 0-0.1 0z"/>
	<path id="Layer" class="s1" d="m16 105.8q0 0 0 0-0.1 0-0.1-0.1l0.9-5.7q0-0.1 0.1-0.1 0.1 0.1 0.1 0.2l-0.9 5.6q0 0.1-0.1 0.1z"/>
	<path id="Layer" class="s1" d="m17.3 106.1q0 0 0 0l-2.5-0.5q-0.1 0-0.1-0.1 0 0 0.1 0l2.5 0.4q0.1 0 0.1 0.1 0 0.1-0.1 0.1z"/>
	<path id="Layer" class="s1" d="m20.7 98.1q0 0-0.1 0c-0.4 0-0.8-0.2-1-0.5h-0.1c-0.3 0.3-0.8 0.4-1.2 0.2-0.5-0.1-0.8-0.4-1-0.9l-0.3-1.2q-0.1 0 0-0.1 0.1 0 0.1 0.1l0.4 1.2c0.1 0.4 0.4 0.6 0.8 0.8 0.4 0.1 0.8 0 1.1-0.2l0.1-0.1q0.1-0.1 0.1 0 0 0 0.1 0c0.2 0.3 0.5 0.5 0.9 0.5 0.4 0.1 0.8-0.1 1-0.4l1.7-2.1q0.1-0.1 0.1 0 0.1 0 0.1 0.1l-1.7 2.1c-0.3 0.3-0.7 0.5-1.1 0.5z"/>
	<path id="Layer" class="s2" d="m19.8 138.6l-0.6-3.6h2.8l-0.5 3.6v1.5l-1.7-0.2z"/>
	<path id="Layer" fill-rule="evenodd" class="s1" d="m21.5 140.2q0 0 0 0l-1.8-0.2q0 0 0-0.1v-1.3l-0.6-3.6q0 0 0 0 0-0.1 0.1-0.1h2.8q0 0 0.1 0.1 0 0 0 0l-0.5 3.6v1.5q0 0.1 0 0.1 0 0-0.1 0zm-1.6-0.4l1.5 0.2v-1.4q0 0 0 0l0.5-3.5h-2.6l0.6 3.5q0 0 0 0z"/>
	<path id="Layer" class="s1" d="m19.8 138.3l-1 2.3h4.2l-1.5-2.2c0 0-0.3 1-0.8 1-0.6 0-0.9-1.1-0.9-1.1z"/>
	<path id="Layer" class="s0" d="m18.4 135.1q-0.1 0-0.1-0.1l-0.8-19.8c0-1 0.3-1.9 1-2.6 0.5-0.5 1.2-0.8 1.9-0.8 0.7 0 1.4 0.3 1.9 0.8 0.6 0.7 1 1.6 1 2.6l-0.6 19.8q0 0.1-0.1 0.1z"/>
	<path id="Layer" fill-rule="evenodd" class="s1" d="m22.4 112.6c0.6 0.6 1 1.6 1 2.6l-0.6 19.8c0 0.1-0.1 0.2-0.2 0.2h-4.2c-0.1 0-0.2-0.1-0.2-0.2l-0.8-19.8c0-1 0.3-1.9 1-2.6 0.5-0.6 1.3-0.9 2-0.9 0.7 0 1.4 0.3 2 0.9zm-4.8 2.6l0.8 19.8h4.2l0.6-19.8c0-1.8-1.2-3.3-2.8-3.3-1.6 0-2.9 1.5-2.8 3.3z"/>
	<path id="Layer" class="s2" d="m12.9 134.8l1.8-3.1-2.6-1-0.8 3.5-0.6 1.4 1.8 0.4z"/>
	<path id="Layer" fill-rule="evenodd" class="s1" d="m12.5 136.1q-0.1 0-0.1 0l-1.7-0.4q0 0-0.1 0 0-0.1 0-0.1l0.6-1.4 0.8-3.6q0 0 0 0 0 0 0.1 0l2.6 1q0.1 0 0.1 0 0 0.1 0 0.1l-1.9 3.2-0.4 1.2q0 0 0 0zm-1.7-0.5l1.6 0.3 0.4-1.1q0 0 0 0l1.8-3.1-2.5-0.9-0.7 3.5q0 0 0 0z"/>
	<path id="Layer" class="s1" d="m13 134.5l0.1 2.5-3.9-1.4 2.1-1.5c0 0 0 0.9 0.4 1.1 0.6 0.2 1.3-0.7 1.3-0.7z"/>
	<path id="Layer" class="s0" d="m15.6 132.1q0 0 0 0l-4.2-1.6q0 0 0-0.1l6.3-18.7c0.6-1.4 1.8-2.4 3.1-2.4q0.5 0 0.9 0.2 0.2 0 0.3 0.1c0.3 0.1 2.4 0.9 3 1.2 1.3 0.6 3.2 2.4 2.4 5.2-0.4 1.6-1.6 1.9-2.5 1.9-0.9 0-1.6-0.2-1.6-0.3q-0.1 0-0.1 0l0.1-3.1-7.6 17.5q0 0.1-0.1 0.1z"/>
	<path id="Layer" fill-rule="evenodd" class="s1" d="m21.8 109.4q0.1 0 0.3 0.1c0.1 0.1 2.3 0.9 3 1.2 0.3 0.2 1.3 0.7 2 1.8 0.6 1.1 0.8 2.3 0.4 3.6-0.4 1.6-1.6 1.9-2.6 1.9-0.9 0-1.6-0.3-1.6-0.3q-0.2 0-0.2-0.1l0.1-2.6-7.4 17.1q-0.1 0.1-0.2 0.1 0 0 0 0l-4.2-1.6c-0.1 0-0.1-0.1-0.1-0.2l6.4-18.8c0.5-1.4 1.8-2.4 3.1-2.4q0.5 0 1 0.2zm-4 2.3l-6.3 18.8 4.1 1.5 7.8-17.9-0.1 3.5c0 0 0.7 0.2 1.6 0.2 1 0 2.1-0.3 2.4-1.8 0.8-2.8-1-4.5-2.3-5.1-0.7-0.4-3-1.2-3-1.2q-0.1-0.1-0.3-0.1-0.4-0.2-0.9-0.2c-1.2 0-2.5 0.9-3 2.3z"/>
	<path id="Layer" class="s1" d="m23.3 114.6q0 0 0 0-0.1 0-0.1-0.1l0.5-1.6q0.1-0.1 0.2-0.1 0 0 0 0.1l-0.5 1.7q0 0-0.1 0z"/>
	<path id="Layer" class="s0" d="m15.9 116.9q-0.1 0-0.1 0c-0.9-2.9 0.7-4.9 0.8-4.9q0-0.1 0-0.1h0.9q0.1 0 0.1 0.1 0 0 0 0l-1.7 4.9q0 0 0 0z"/>
	<path id="Layer" fill-rule="evenodd" class="s1" d="m17.7 112q0 0.1 0 0.1l-1.7 4.8q0 0.1-0.1 0.1-0.2 0-0.2-0.1c-0.9-2.9 0.7-4.9 0.8-5q0-0.1 0.1-0.1h0.9c0.1 0 0.2 0.1 0.2 0.2zm-1.1 0c0 0-1.7 2-0.7 4.9l1.6-4.9z"/>
	<path id="Layer" class="s1" d="m22.8 93.5c0.4 0.4 1 0.6 1.5 0.8 0.6 0.3 1.2 0.9 1.4 1.6 0.3 0.8 0 1.8-0.6 2.5-0.6 0.6-1.5 1-2.4 1-0.6-0.1-1.2-0.2-1.7-0.5-0.5-0.3-0.9-0.8-1.1-1.4-0.2-0.9 0.2-1.7 0.5-2.6q0.3-0.7 0.6-1.5c0.1-0.4 0.3-1 0.6-1.3 0.9-0.8 1 1.1 1.2 1.4z"/>
	<path id="Layer" class="s2" d="m27.1 140.7v-31q0 0-0.1 0h-19.3q-0.1 0-0.1 0l-1 31h-1v-31q0 0 0 0h-4.2v-1.5h43.6v32.5z"/>
	<path id="Layer" fill-rule="evenodd" class="s1" d="m45.1 140.8h-18.1v-31.1h-19.3l-1 31.1h-1.1v-31.1h-4.3v-1.6h43.8zm-43.6-32.6v1.3h4.1c0.1 0 0.1 0.1 0.1 0.2v30.9h0.8l1-30.9c0-0.1 0.1-0.2 0.2-0.2h19.3c0.1 0 0.2 0.1 0.2 0.2v30.9h17.7v-32.4z"/>
	<path id="Layer" class="s1" d="m31.7 109.7h-4.7v31.1h4.7z"/>
	<path id="Layer" class="s2" d="m4.8 105c-0.6 0-1-0.4-1-1v-7.5c0-0.6 0.4-1 1-1h14.5c0.6 0 1 0.4 1 1v7.5c0 0.6-0.4 1-1 1z"/>
	<path id="Layer" fill-rule="evenodd" class="s1" d="m20.4 96.5v7.5c0 0.6-0.5 1.1-1.1 1.1h-14.5c-0.7 0-1.1-0.5-1.1-1.1v-7.5c0-0.6 0.4-1.1 1.1-1.1h14.5c0.6 0 1.1 0.5 1.1 1.1zm-15.6-0.9c-0.5 0-1 0.4-1 0.9v7.5c0 0.5 0.5 0.9 1 0.9h14.5c0.5 0 0.9-0.4 0.9-0.9v-7.5c0-0.5-0.4-0.9-0.9-0.9z"/>
	<path id="Layer" class="s2" d="m10.1 108.1l1.1-4.8c0-0.1 0.2-0.2 0.3-0.2h1c0.2 0 0.3 0.1 0.3 0.2l1.1 4.8z"/>
	<path id="Layer" fill-rule="evenodd" class="s1" d="m12.9 103.3l1.1 4.9h-4l1.1-4.9c0.1-0.2 0.2-0.3 0.4-0.3h1c0.2 0 0.4 0.1 0.4 0.3zm-1.4-0.1c-0.1 0-0.2 0-0.2 0.1l-1.1 4.7h3.6l-1-4.7c-0.1-0.1-0.2-0.1-0.3-0.1z"/>
	<path id="Layer" class="s1" d="m45.1 109.8h-18.1q0 0-0.1-0.1 0.1 0 0.1 0h18.1q0.1 0 0.1 0 0 0.1-0.1 0.1z"/>
	<path id="Layer" fill-rule="evenodd" class="s1" d="m12.9 106.3c0 0.5-0.4 0.9-0.9 0.9-0.5 0-1-0.4-1-0.9 0-0.5 0.5-0.9 1-0.9 0.5 0 0.9 0.4 0.9 0.9zm-1.7 0c0 0.4 0.4 0.8 0.8 0.8 0.4 0 0.7-0.4 0.7-0.8 0-0.4-0.3-0.8-0.7-0.8-0.4 0-0.8 0.4-0.8 0.8z"/>
	<path id="Layer" class="s1" d="m9.4 103.5h-2.2q-0.1 0-0.1-0.1 0-0.1 0.1-0.1h2.2q0.1 0 0.1 0.1 0 0.1-0.1 0.1z"/>
	<path id="Layer" class="s1" d="m9.4 102.8h-2.2q-0.1 0-0.1-0.1 0 0 0.1 0h2.2q0.1 0 0.1 0 0 0.1-0.1 0.1z"/>
	<path id="Layer" class="s1" d="m9.4 104.1h-2.2q-0.1 0-0.1-0.1 0 0 0.1 0h2.2q0.1 0 0.1 0 0 0.1-0.1 0.1z"/>
	<path id="Layer" class="s2" d="m78.8 33.6l4.4-0.1h2.1c1.3 0 2.4 1.1 2.4 2.4l0.7 23.3h-7.4z"/>
	<path id="Layer" fill-rule="evenodd" class="s1" d="m88.4 59.3h-7.4q-0.1 0-0.1-0.1l-2.2-25.6q0 0 0.1 0 0-0.1 0-0.1l4.4-0.1h2.1c1.4 0 2.5 1.1 2.5 2.5l0.7 23.3q0 0 0 0 0 0.1-0.1 0.1zm-7.3-0.2h7.2l-0.7-23.2c0-1.3-1-2.3-2.3-2.3h-2.1l-4.3 0.1z"/>
	<path id="Layer" class="s3" d="m64.8 9.8c0 0 0.6 0.9 1.9 0.7 0.8-0.1 1.1-1 1.1-1 0 0 4.8-0.6 8 6.8l-3.2 1.5c0 0 1.3 5.4 0.5 14.5l-12.5 0.2c-0.4-4.8-0.2-12.5-0.2-12.5 0 0-2.7 0-2.7 0 0 0-1-9.4 7.1-10.2z"/>
	<path id="Layer" fill-rule="evenodd" class="s1" d="m60.6 32.6q-0.1 0-0.1-0.1c-0.4-4.4-0.2-11.5-0.2-12.4-0.4 0-1.8 0-2.6 0q-0.1 0-0.1-0.1c0-0.1-0.4-4.7 2-7.7q1.9-2.2 5.2-2.6 0 0 0 0.1c0.1 0 0.7 0.8 1.9 0.6 0.8-0.1 1.1-0.9 1.1-1q0 0 0 0c0.1 0 1.3-0.2 2.9 0.6 2.6 1.3 4.2 4.2 5.1 6.3q0.1 0.1 0 0.1l-3.1 1.5c0.1 0.6 1.2 6 0.5 14.4q0 0.1-0.1 0.1zm-2.8-12.7h1.3c1.3 0 1.3 0 1.4 0.1q0 0 0 0c0 0.1-0.2 7.7 0.2 12.4l12.4-0.2c0.7-8.9-0.6-14.3-0.6-14.4q0 0 0.1-0.1l3.1-1.4c-0.9-2.1-2.5-4.8-5.1-6.1-1.3-0.7-2.4-0.7-2.7-0.6 0 0.2-0.4 0.9-1.2 1-1.1 0.1-1.8-0.5-1.9-0.7q-3.2 0.3-5 2.5c-2.3 2.8-2.1 6.9-2 7.5z"/>
	<path id="Layer" class="s1" d="m85.8 59.1l3.7 4.2-7.3-1.9 0.8-2.2z"/>
	<path id="Layer" class="s1" d="m76.7 59.1l3.8 4.2-7.3-1.9 0.8-2.3z"/>
	<path id="Layer" class="s2" d="m69.3 3.5v3.4c0 0.9-0.5 1.6-1.3 1.9v1.4c-0.1 1.1-1.3 1.6-2.2 0.9-0.5-0.2-1-1.3-1-1.3v-3.1c0 0-1.4 0.3-1.3-1 0-1.2 1.2-0.6 1.2-0.6 0 0-1-2.7 1.1-3.1 2-0.3 3.5-0.5 3.5 1.5z"/>
	<path id="Layer" fill-rule="evenodd" class="s1" d="m66.6 11.5q-0.4 0-0.8-0.3c-0.6-0.2-1.1-1.3-1.1-1.3q0-0.1 0-0.1v-3c-0.2 0-0.7 0-1-0.2q-0.4-0.3-0.3-0.9 0-0.6 0.3-0.8c0.3-0.1 0.7-0.1 0.9 0-0.2-0.4-0.4-1.5 0-2.2q0.3-0.6 1.1-0.7c1.4-0.2 2.6-0.4 3.2 0.1q0.5 0.4 0.5 1.4v3.4c0 0.9-0.5 1.6-1.3 1.9v1.4q0 0 0 0c-0.1 0.6-0.4 1-0.9 1.2q-0.3 0.1-0.6 0.1zm-1.7-1.7c0 0.1 0.5 1.1 0.9 1.3q0 0 0.1 0c0.3 0.2 0.8 0.3 1.2 0.1 0.5-0.2 0.8-0.5 0.8-1v-1.4q0.1-0.1 0.1-0.1c0.7-0.3 1.2-1 1.2-1.8v-3.4q0-0.9-0.4-1.2c-0.5-0.5-1.7-0.4-3-0.2q-0.8 0.1-1.1 0.7c-0.4 0.8 0.1 2.2 0.1 2.2q0 0.1 0 0.1-0.1 0.1-0.1 0c0 0-0.5-0.2-0.9 0q-0.2 0.2-0.2 0.6-0.1 0.5 0.2 0.7c0.3 0.3 0.9 0.2 0.9 0.2q0.1 0 0.1 0 0 0 0 0.1zm4.5-6.3z"/>
	<path id="Layer" class="s1" d="m67.8 6.9q0 0 0 0-0.1-0.1 0-0.2l0.4-0.2q0-0.1 0-0.2 0-0.1 0-0.1l-0.3-0.4q0 0 0 0v-0.8q0-0.1 0.1-0.1 0.1 0 0.1 0.1v0.7l0.2 0.3q0.1 0.2 0.1 0.3 0 0.2-0.1 0.3l-0.4 0.3q0 0-0.1 0z"/>
	<path id="Layer" class="s1" d="m67 4.6q0 0 0 0c0 0-0.2-0.3-0.6-0.1q-0.1 0-0.1 0-0.1-0.1 0-0.2c0.4-0.2 0.7 0.1 0.8 0.2q0.1 0.1 0 0.1 0 0-0.1 0z"/>
	<path id="Layer" class="s1" d="m68.8 4.6q0 0 0 0c-0.1 0-0.3-0.2-0.6 0q-0.1 0.1-0.2 0 0-0.1 0.1-0.1c0.3-0.3 0.7-0.1 0.8 0q0 0.1 0 0.1 0 0-0.1 0z"/>
	<path id="Layer" class="s1" d="m63.7 5.9q-0.1 0-0.1 0 0-0.4 0.2-0.6c0.3-0.2 0.6-0.2 0.7-0.2q0 0.1 0 0.2 0 0-0.1 0c0 0-0.3 0-0.4 0.1q-0.2 0.2-0.2 0.5 0 0-0.1 0 0 0 0 0z"/>
	<path id="Layer" class="s1" d="m64.4 6.2q0 0 0-0.1c-0.2-0.4-0.6-0.6-0.6-0.6q0 0 0-0.1 0-0.1 0.1-0.1c0 0 0.5 0.3 0.6 0.8q0 0.1 0 0.1 0 0-0.1 0z"/>
	<path id="Layer" class="s1" d="m64.8 4.2v0.9c0 0-0.3-0.2-0.7-0.2 0 0-0.1-1.4-0.1-1.9 0-0.9 0.1-1.8 2.9-2 3.2-0.2 2.8 2.1 2.4 2.5-0.4 0.4-1.7 0.3-2.3 0.2-0.4-0.1-0.6-0.3-0.9-0.4-0.6-0.1-1.2 0.3-1.3 0.9z"/>
	<path id="Layer" class="s2" d="m70.7 33.5h7.9c1.4 0 2.5 1.2 2.4 2.7l-1.7 23h-6.7v-17.7c-14.3 1.7-11.6-9.1-11.6-9.1l5.7-0.3z"/>
	<path id="Layer" fill-rule="evenodd" class="s1" d="m79.3 59.3h-6.7q-0.1 0-0.1-0.1v-17.6c-4.8 0.6-8.2-0.2-10.2-2.4-2.4-2.8-1.4-6.8-1.4-6.8q0-0.1 0.1-0.1l5.7-0.3q0 0 0 0l4 1.4h7.9c0.7 0 1.4 0.3 1.8 0.9 0.5 0.5 0.8 1.2 0.7 1.9l-1.7 23q0 0.1-0.1 0.1zm-6.6-0.2h6.5l1.7-22.9c0.1-0.7-0.1-1.3-0.6-1.8-0.4-0.5-1.1-0.8-1.7-0.8h-7.9q0 0 0 0l-4-1.4-5.6 0.3c-0.2 0.5-0.8 4.1 1.4 6.6 1.9 2.1 5.3 2.9 10.1 2.3q0 0 0.1 0.1 0 0 0 0z"/>
	<path id="Layer" class="s2" d="m76.4 23.8c0.4-5.6-1.1-7.3-1.1-7.3l-2.7 1.3c0 0 0.5 3.4 0.5 6z"/>
	<path id="Layer" fill-rule="evenodd" class="s1" d="m76.4 23.9h-3.3q0 0-0.1-0.1 0 0 0 0c0-2.6-0.5-5.9-0.5-6q0 0 0.1-0.1l2.7-1.3q0.1 0 0.1 0.1c0.1 0 1.5 1.7 1.1 7.3q0 0.1-0.1 0.1zm-3.2-0.2h3.1c0.3-4.9-0.8-6.7-1-7.1l-2.6 1.3c0.1 0.5 0.5 3.4 0.5 5.8z"/>
	<path id="Layer" class="s2" d="m66.9 32.2c-9.7-1.6-9.1-12.2-9.1-12.2l5.3-0.1c0 0-1.3 6.2 4.5 10.2h1.7c0 0-0.1 2.2-0.1 2.1 0-0.1-2.3 0-2.3 0z"/>
	<path id="Layer" fill-rule="evenodd" class="s1" d="m69.2 32.3q0 0 0 0 0 0 0 0c-0.2 0-1.3 0-2.3 0q0 0 0 0c-5.1-0.8-7.3-4.1-8.3-6.8-1-2.8-0.9-5.5-0.9-5.6q0 0 0.1 0l5.3-0.1q0 0 0 0.1 0.1 0 0.1 0c0 0.1-0.4 1.6 0 3.6 0.4 1.8 1.5 4.5 4.4 6.5h1.7q0 0 0 0 0.1 0.1 0.1 0.1l-0.1 1.8q0 0.2 0 0.3 0 0 0 0c0 0.1 0 0.1-0.1 0.1zm-11.3-12.3c0 0.5 0 2.9 0.9 5.5q0.9 2.5 2.6 4.1 2.2 2 5.5 2.6c1.5-0.1 2-0.1 2.2-0.1 0-0.3 0.1-1.4 0.1-1.9h-1.6q0 0 0 0c-3.1-2.1-4.2-4.8-4.5-6.7-0.4-1.7-0.2-3.1-0.1-3.5z"/>
	<path id="Layer" class="s1" d="m66.7 5.3q0 0-0.1 0-0.2 0-0.3-0.2-0.1-0.1 0-0.1 0.1-0.1 0.1 0 0.1 0.2 0.3 0.2c0.1 0 0.3-0.2 0.3-0.2q0-0.1 0.1 0 0.1 0 0 0.1c0 0-0.2 0.2-0.4 0.2z"/>
	<path id="Layer" class="s1" d="m68.6 5.3q0 0 0 0-0.2 0-0.4-0.2 0-0.1 0-0.1 0.1-0.1 0.2 0 0.1 0.2 0.2 0.2c0.2 0 0.3-0.2 0.3-0.2q0.1-0.1 0.1 0 0.1 0 0.1 0.1c-0.1 0-0.3 0.2-0.5 0.2z"/>
	<path id="Layer" class="s1" d="m67.6 7.9c-0.4 0-0.8-0.1-1-0.6q0-0.1 0.1-0.1 0 0 0.1 0c0.3 0.8 1.1 0.5 1.2 0.5q0 0 0.1 0 0 0.1-0.1 0.2c0 0-0.2 0-0.4 0z"/>
	<path id="Layer" class="s1" d="m67.4 9h-0.5q-0.1 0-0.1-0.1 0-0.1 0.1-0.1h0.5q0.3 0 0.6-0.1 0.1 0 0.1 0 0 0.1 0 0.2-0.4 0.1-0.7 0.1z"/>
	<path id="Layer" class="s1" d="m62.8 32.3h3v1.4h-3z"/>
	<path id="Layer" class="s1" d="m63.6 20h-1.5q-0.1 0-0.1-0.1 0 0 0.1-0.1h1.4l0.3-3.4q0-0.1 0.1-0.1 0.1 0 0.1 0.1l-0.3 3.5q0 0.1-0.1 0.1z"/>
	<path id="Layer" class="s1" d="m72.6 17.9q-0.1 0-0.1-0.1c0 0-0.5-2.2-1.2-3.8q-0.1-0.1 0-0.1 0.1-0.1 0.1 0c0.8 1.7 1.3 3.9 1.3 3.9q0 0.1-0.1 0.1 0 0 0 0z"/>
	<path id="Layer" class="s1" d="m72.6 41.6q-0.1 0-0.1-0.1v-3.6q0 0 0.1 0 0.1 0 0.1 0v3.6q0 0.1-0.1 0.1z"/>
	<path id="Layer" class="s1" d="m65.8 33.7h16.1v-9.4c0-0.3-0.2-0.5-0.5-0.5h-15.1c-0.3 0-0.5 0.2-0.5 0.5z"/>
	<path id="Layer" class="s2" d="m73.2 28.7c0 0.4 0.3 0.7 0.6 0.7 0.4 0 0.7-0.3 0.7-0.7 0-0.3-0.3-0.6-0.7-0.6-0.3 0-0.6 0.3-0.6 0.6z"/>
	<path id="Layer" class="s2" d="m137.3 78.3q-0.1 0-0.1 0l-0.3-0.6-1.5-0.7q-0.2-0.1-0.3-0.3-0.1-0.2 0-0.4l0.5-0.8-0.7-0.5c-0.2-0.1-0.2-0.3-0.1-0.5q0.1-0.1 0.3-0.1 0.1 0 0.2 0l0.9 0.7q0.1-0.2 0.2-0.2 0.2 0 0.3 0.2l0.6 0.8 0.4 0.4 0.7 0.1q0 0 0 0.1 0 0 0 0.1l-1 1.7q-0.1 0-0.1 0 0 0 0 0z"/>
	<path id="Layer" fill-rule="evenodd" class="s1" d="m135.4 74.4l0.7 0.6q0.2-0.1 0.3-0.1 0.2 0 0.4 0.1l0.5 0.8 0.4 0.4 0.7 0.1q0.1 0 0.1 0.1 0 0.1 0 0.2l-1.1 1.7q0 0.1-0.1 0.1 0 0 0 0-0.1 0-0.2-0.1l-0.3-0.6-1.4-0.6q-0.3-0.1-0.4-0.3-0.1-0.3 0.1-0.5l0.3-0.8-0.6-0.4c-0.2-0.2-0.2-0.4-0.1-0.6q0.2-0.2 0.4-0.2 0.2 0 0.3 0.1zm-0.5 0.2c-0.1 0.1-0.1 0.2 0 0.3l0.8 0.6-0.5 0.9c-0.1 0.2 0 0.4 0.2 0.5l1.5 0.7 0.4 0.7 1-1.8-0.7-0.1-0.4-0.4-0.6-0.9q-0.1-0.1-0.2-0.1-0.1 0-0.2 0.1v0.1l-0.9-0.7q-0.1 0-0.2 0-0.1 0-0.2 0.1z"/>
	<path id="Layer" class="s1" d="m136.9 76.9q-0.1 0-0.1 0c-0.2-0.3-0.3-0.5-0.3-0.8q-0.1 0.2-0.2 0.2-0.2 0-0.4-0.1c-0.1-0.1-0.2-0.3-0.1-0.5l0.4-0.7q0-0.1 0.1 0 0.1 0 0 0.1l-0.3 0.6c-0.1 0.2-0.1 0.3 0 0.4q0.1 0 0.2 0 0.1 0 0.2-0.1l0.2-0.2q0-0.1 0.1-0.1 0 0 0 0.1c0 0-0.1 0.6 0.2 0.9q0.1 0.1 0 0.2 0 0 0 0z"/>
	<path id="Layer" class="s1" d="m135.9 75.8q0 0-0.1 0l-0.2-0.2q-0.1 0-0.1-0.1 0.1-0.1 0.2 0l0.2 0.1q0.1 0 0.1 0.1-0.1 0.1-0.1 0.1z"/>
	<path id="Layer" class="s1" d="m136.3 77.1q-0.1 0-0.1-0.1l-0.7-0.3q-0.1 0 0-0.1 0 0 0.1 0l0.6 0.3q0.2 0 0.2-0.1c0.1-0.1 0.1-0.2 0-0.2l-0.1-0.1q-0.1 0 0-0.1 0-0.1 0.1 0h0.1c0.1 0.1 0.2 0.3 0.1 0.5q-0.1 0.1-0.3 0.2z"/>
	<path id="Layer" class="s1" d="m136.4 76.6q0 0 0 0l-0.8-0.5q-0.1-0.1-0.1-0.1 0.1-0.1 0.2-0.1l0.7 0.5q0.1 0 0.1 0.1-0.1 0.1-0.1 0.1z"/>
	<path id="Layer" class="s3" d="m153.3 85.1q0 0 0 0c-0.1 0-8.3-1.3-16.1-6.8q0 0 0-0.1l1.1-1.7q0-0.1 0-0.1 0.1 0 0.1 0c0.1 0.1 13.1 4.7 16.3 4.8q0 0 0.1 0.1 0 0 0 0.1l-1.4 3.7q0 0-0.1 0z"/>
	<path id="Layer" fill-rule="evenodd" class="s1" d="m138.4 76.3c0.1 0.1 13.1 4.8 16.3 4.8q0.1 0 0.1 0.1 0.1 0.1 0.1 0.2l-1.4 3.7q-0.1 0.1-0.2 0.1 0 0 0 0c-0.1 0-2.1-0.3-5.1-1.3-2.8-0.9-7-2.6-11-5.5-0.1-0.1-0.1-0.2-0.1-0.2l1.1-1.8q0-0.1 0.1-0.1 0.1 0 0.1 0zm-1.1 2c7.8 5.5 16 6.7 16 6.7l1.4-3.7c-3.3-0.1-16.4-4.8-16.4-4.8z"/>
	<path id="Layer" class="s2" d="m152.5 139.9l1.4-1.6q0-0.1 0-0.1l-3.2-25.1 6.9 0.5-2.3 25.3-0.7 1.3z"/>
	<path id="Layer" fill-rule="evenodd" class="s1" d="m157.7 113.5l-2.3 25.4-0.7 1.4-2.4-0.3 1.5-1.8-3.2-25.2zm-3.7 24.7q0 0 0 0.1l-1.2 1.5 1.9 0.2 0.6-1.2 2.2-25.2-6.6-0.5z"/>
	<path id="Layer" class="s1" d="m152.6 139.7c1.1 0.6 2.8-0.8 2.8-0.8l0.6 1.9-5.4 0.1z"/>
	<path id="Layer" class="s2" d="m154.9 139.9l1.3-1.6q0-0.1 0-0.1l-3.1-25.1 6.8 0.5-2.3 25.3-0.6 1.3z"/>
	<path id="Layer" fill-rule="evenodd" class="s1" d="m160 113.5l-2.3 25.4-0.7 1.4-2.3-0.3 1.4-1.8-3.1-25.2zm-3.7 24.7q0 0-0.1 0.1l-1.2 1.5 1.9 0.2 0.6-1.2 2.3-25.2-6.6-0.5z"/>
	<path id="Layer" class="s1" d="m155 139.7c1 0.6 2.7-0.8 2.7-0.8l0.7 2h-5.4z"/>
	<path id="Layer" class="s3" d="m152.8 81.3c0.8-0.5 2.3-0.5 2.3-0.5 5.4 1.1 2.6 16.9 2.6 16.9h-5.7l-1.1-7.3q0 0 0 0c-1.1-0.2-1.7-1.3-1.3-2.2z"/>
	<path id="Layer" fill-rule="evenodd" class="s1" d="m151 90.4q0-0.1-0.1-0.1 0 0 0 0c-0.5-0.1-0.9-0.3-1.1-0.7-0.3-0.5-0.3-1-0.1-1.4l3.1-6.8c0.8-0.5 2.2-0.5 2.3-0.5 5.1 1.1 2.7 15.6 2.5 16.7h-5.5zm6.7 7.4c0.1-0.1 0.7-4 0.8-8.1 0-5.5-1.1-8.5-3.4-9q-0.1 0-0.1 0c0 0-1.5 0.1-2.4 0.6q0 0 0 0l-3.1 6.9c-0.2 0.5-0.2 1 0 1.5 0.3 0.4 0.8 0.7 1.3 0.8q0 0 0 0l1 7.2q0 0.1 0.1 0.1l5.8 0.1q0 0 0-0.1z"/>
	<path id="Layer" class="s0" d="m150.4 114.9q0 0-0.1-0.1c-0.4-9.9 1.5-17.1 1.6-17.1q0-0.1 0-0.1l5.8 0.1q0 0 0 0c0.1 0 1.3 1 2.3 3.6 0.9 2.4 1.6 6.7 0.2 13.5q0 0.1 0 0.1z"/>
	<path id="Layer" fill-rule="evenodd" class="s1" d="m157.7 97.6q0 0 0.1 0c0 0 1.3 1 2.3 3.7q0.8 2.3 1 5.3c0.1 2.4-0.2 5.2-0.8 8.3q0 0.1-0.1 0.1h-9.8c-0.1 0-0.1-0.1-0.1-0.2-0.5-9.9 1.4-17.1 1.5-17.2q0-0.1 0.1-0.1zm-7.2 17.3h9.7c2.6-13.3-2.5-17.1-2.5-17.1l-5.7-0.1c0 0-1.9 7.1-1.5 17.2z"/>
	<path id="Layer" class="s2" d="m157.3 75.9c0.1-0.4 1.4-3.2-1.5-3.7-2.9-0.6-3 3-3 3l-0.2 0.8h-0.1c-0.3 0.1-0.4 0.5-0.2 0.7l0.2 0.1-0.1 0.3c-0.2 0.8 0.2 1.6 0.7 2h0.1l-0.3 1.7-0.3 0.7c-0.3 0.9 0.8 1.6 1.5 0.9l2-1c0 0 1.2-5.2 1.2-5.5z"/>
	<path id="Layer" fill-rule="evenodd" class="s1" d="m153.5 82.8q-0.3 0-0.6-0.2c-0.3-0.2-0.5-0.6-0.4-1.1l0.3-0.7 0.3-1.6q0 0 0 0c-0.6-0.5-0.9-1.3-0.8-2.1l0.1-0.2-0.2-0.2c-0.1-0.1-0.1-0.3-0.1-0.4 0.1-0.2 0.2-0.3 0.4-0.4h0.1l0.1-0.7c0-0.1 0.1-1.9 1.2-2.8q0.8-0.6 1.9-0.3 1.2 0.2 1.7 1c0.5 0.9 0.2 2 0 2.6q-0.1 0.2-0.1 0.2c0 0.3-1.2 5.3-1.3 5.5q0 0 0 0l-2 1.1q-0.3 0.3-0.6 0.3zm-0.3-3.8q0 0 0.1 0 0 0.1 0 0.1l-0.3 1.7q0 0 0 0.1l-0.3 0.6c-0.1 0.5 0.1 0.8 0.3 1 0.3 0.1 0.7 0.2 1-0.1q0 0 0.1 0l1.9-1.1c0.1-0.5 1.2-5.2 1.2-5.4q0.1-0.1 0.1-0.3c0.2-0.5 0.5-1.6 0-2.4q-0.4-0.7-1.5-1-1.1-0.2-1.8 0.4c-1 0.8-1.1 2.6-1.1 2.6q0 0 0 0l-0.2 0.8q0 0.1-0.1 0.1h-0.1q-0.2 0.1-0.2 0.2-0.1 0.2 0.1 0.3l0.1 0.2q0.1 0 0 0.1v0.3c-0.2 0.7 0.1 1.4 0.7 1.8z"/>
	<path id="Layer" class="s1" d="m153.9 75.4c-0.1 0.1-0.1 0.2-0.2 0.2-0.1 0-0.1-0.1-0.1-0.2 0-0.2 0.1-0.2 0.2-0.2 0 0 0.1 0.1 0.1 0.2z"/>
	<path id="Layer" class="s1" d="m154.1 75.2q0 0-0.1 0c-0.1-0.4-0.5-0.3-0.5-0.3q0 0-0.1-0.1 0-0.1 0.1-0.1c0.1 0 0.5 0 0.7 0.4q0 0.1 0 0.1-0.1 0-0.1 0z"/>
	<path id="Layer" class="s1" d="m152.5 77.6c0.3 0.1 0.9 0.1 1.2 0.1 0 0-0.3 0.5-0.7 0.4-0.3-0.1-0.5-0.5-0.5-0.5z"/>
	<path id="Layer" class="s1" d="m154.2 79.4q0 0 0 0c-0.4-0.1-1-0.2-1-0.2q-0.1 0-0.1-0.1 0-0.1 0.1-0.1c0 0 0.7 0.2 1 0.2q0.1 0 0.1 0.1 0 0-0.1 0.1z"/>
	<path id="Layer" class="s3" d="m157.5 99.8c2.4-6.4 0.5-14.9 0.5-14.9-0.2-1.8-0.9-2.6-1.8-2.9-1.6-0.6-3.1 0.8-2.8 2.5 0.1 1 0.5 2.3 1 3.9 1 2.8 0.9 9.1 0.8 11z"/>
	<path id="Layer" fill-rule="evenodd" class="s1" d="m157.5 99.9q0 0 0 0l-2.3-0.4q-0.1-0.1-0.1-0.1c0.1-2 0.2-8.2-0.8-11q-0.7-2-1-3.9c-0.2-0.8 0.1-1.6 0.8-2.2 0.6-0.5 1.4-0.7 2.1-0.4q1.6 0.5 1.9 3c0.1 0.1 1.9 8.6-0.5 15q0 0-0.1 0zm-2.2-0.6l2.2 0.4c2.3-6.3 0.5-14.7 0.5-14.7q-0.4-2.4-1.8-2.9c-0.7-0.3-1.5-0.1-2 0.4-0.6 0.5-0.9 1.2-0.7 2q0.3 1.8 1 3.9c1 2.7 0.9 8.9 0.8 10.9z"/>
	<path id="Layer" class="s2" d="m157.3 99.9c-0.1 0.4-0.5 2.7-0.5 2.7 0.1 0.6-0.4 0.2-0.4 0.2 0.1 0.2-0.1 0.4-0.3 0.4-0.4-0.2-1.1-0.5-1.1-1.3 0-1.1 0.3-2.5 0.3-2.5z"/>
	<path id="Layer" fill-rule="evenodd" class="s1" d="m156.2 103.3q0 0-0.1-0.1c-0.8-0.2-1.2-0.6-1.2-1.3 0-1.1 0.3-2.5 0.3-2.5q0 0 0.1-0.1 0 0 0 0l2.1 0.5q0 0 0 0 0 0 0 0.1c-0.1 0.4-0.4 2.6-0.5 2.7q0.1 0.3-0.1 0.4-0.1 0.1-0.3 0 0 0.1-0.1 0.1-0.1 0.2-0.2 0.2zm-0.8-3.8c-0.1 0.3-0.3 1.5-0.3 2.4 0 0.7 0.6 1 1.1 1.2q0.1 0 0.1-0.1 0.1 0 0-0.1 0-0.1 0.1-0.1 0-0.1 0.1 0c0 0 0.2 0.1 0.2 0.1q0.1-0.1 0.1-0.3 0 0 0 0c0-0.1 0.3-2.1 0.4-2.7z"/>
	<path id="Layer" class="s1" d="m156.1 103.3q0 0-0.1 0l-0.4-0.7q-0.1-0.2-0.1-0.5v-0.2q0-0.1 0.1-0.1 0.1 0 0.1 0.1v0.2q0 0.2 0.1 0.4l0.4 0.7q0 0 0 0.1-0.1 0-0.1 0z"/>
	<path id="Layer" class="s1" d="m156.4 103q-0.1 0-0.1-0.1l-0.2-0.6q0 0 0 0v-0.4q0-0.1 0.1-0.1 0.1 0 0.1 0.1v0.4l0.2 0.6q0 0-0.1 0.1 0 0 0 0z"/>
	<path id="Layer" class="s1" d="m158.5 72.8c0.8 0.8 1.7 2 1.7 4.3 0.1 2.7-2.9 3.6-5.4 2 0 0 0.7-3.8-1.1-6.3 0 0 2.3-2.2 4.8 0z"/>
	<path id="Layer" class="s1" d="m114.4 137.5l-5.1 3.3 8.1 0.1-0.2-3.4z"/>
	<path id="Layer" class="s1" d="m125.1 137.5l-5.1 3.3 8.1 0.1-0.2-3.4z"/>
	<path id="Layer" class="s3" d="m108.2 103.1l3.9 34.7h6.5l-2.9-28.1 6.9 28 6.2 0.1-6.2-34.7z"/>
	<path id="Layer" fill-rule="evenodd" class="s1" d="m128.8 137.9q0 0 0 0l-6.2-0.1q0 0 0-0.1l-6.7-26.8 2.8 26.9q0 0 0 0.1-0.1 0-0.1 0h-6.5q-0.1 0-0.1-0.1l-3.9-34.7q0-0.1 0.1-0.1 0 0 0 0h14.4q0.1 0 0.1 0l6.2 34.8q0 0-0.1 0.1 0 0 0 0zm-16.7-0.2h6.4l-2.9-28q0-0.1 0.1-0.1 0.1 0 0.1 0.1l6.9 27.9 6 0.1-6.2-34.6h-14.2z"/>
	<path id="Layer" class="s1" d="m123.1 105.8c0 0-2.6 0-3.2-2.7q0-0.1 0.1-0.1 0.1 0 0.1 0.1c0.6 2.5 2.9 2.5 3 2.5q0.1 0 0.1 0.1 0 0.1-0.1 0.1z"/>
	<path id="Layer" class="s1" d="m108.5 105.3q-0.1 0-0.1-0.1-0.1 0 0-0.1c1-0.5 0.8-2 0.8-2q0-0.1 0.1-0.1 0.1 0 0.1 0c0 0.1 0.1 0.5 0 0.9q-0.2 1-0.9 1.4 0 0 0 0z"/>
	<path id="Layer" class="s1" d="m115.7 109.8q-0.1 0-0.1-0.1l-0.4-1.8-1.3-1.5q0 0 0.1-0.1 0 0 0.1 0l1.2 1.5q0 0 0 0l0.5 1.9q0 0-0.1 0.1 0 0 0 0z"/>
	<path id="Layer" class="s0" d="m111.7 103.3c-3.6 0-3.6-0.1-3.6-0.2 0-0.1-0.5-10.8 1.2-18.1-0.6 0.4-2.7 1.6-5.9 1.6-2.7 0-5.5-0.7-8.4-2.2q-0.1-0.1-0.1-0.1l1.4-3q0 0 0.1 0 0 0 0 0c0 0 4.4 0.6 7.2 0.6q1 0 1.6-0.1c2.6-0.5 3.8-1.4 4.8-2.1 1-0.7 1.9-1.3 3.8-1.5q0 0 0 0h4q0 0 0.1 0c0 0 1.3 0.2 1.7 0.2 3.5 0.1 3.5 3.6 3.5 5.7v0.3c-0.1 5.5-0.4 18.5-0.4 18.6q-0.1 0.1-0.1 0.1c-0.1 0-6.8 0.2-10.9 0.2z"/>
	<path id="Layer" fill-rule="evenodd" class="s1" d="m117.8 78.1q0.1 0 0.1 0c0 0 1.3 0.2 1.7 0.2q2.4 0.1 3.1 2.2c0.5 1.2 0.5 2.6 0.4 3.6q0 0.2 0 0.3c0 5.5-0.3 18.5-0.4 18.6 0 0.1 0 0.2-0.1 0.2-0.1 0-6.8 0.2-10.9 0.2q-1.6 0-2.5-0.1-0.5 0-0.7 0c-0.2 0-0.4 0-0.5-0.2 0-0.1-0.4-10.6 1.2-17.9q-0.4 0.3-1.2 0.6c-1.8 0.8-3.5 0.9-4.6 0.9-2.7 0-5.5-0.8-8.5-2.2-0.1-0.1-0.1-0.2-0.1-0.3l1.4-2.9q0-0.1 0.2-0.1 0 0 0 0c0 0 4.4 0.6 7.2 0.6q1 0 1.6-0.1c2.6-0.5 3.7-1.3 4.8-2.1 1-0.7 1.9-1.3 3.8-1.5q0 0 0 0zm-12.6 3.7c-0.4 0.1-1 0.2-1.7 0.2-2.8 0-7.2-0.6-7.2-0.6l-1.3 2.9c3.3 1.7 6.1 2.2 8.3 2.2 4 0 6.1-1.7 6.1-1.7-1.7 7.3-1.2 18.1-1.2 18.2 0 0.1 1.4 0.2 3.4 0.2 4.3 0 10.9-0.2 10.9-0.2 0 0 0.4-13 0.4-18.6 0-2.1 0.2-5.8-3.3-5.9-0.5 0-1.8-0.3-1.8-0.3h-4c-3.8 0.5-3.6 2.7-8.6 3.6z"/>
	<path id="Layer" class="s2" d="m114.9 80.7q-0.1 0-0.1 0 0 0 0 0l-0.8-2.4q0 0 0-0.1v-1.2c-0.9-0.3-1.5-1.2-1.5-2.1v-3.9c0-1.3 1.6-1.3 3-1.3q0.6 0 1.2-0.1 0.1 0 0.1 0 0.5 0 0.8 0.4c0.6 0.6 0.6 2 0.6 2.4q0.2 0 0.4 0c0.3 0 0.9 0.1 0.9 1 0 0.7-0.4 1-1.1 1q-0.1 0-0.2 0l0.1 4q0 0-0.1 0.1l-3.3 2.2q0 0 0 0z"/>
	<path id="Layer" fill-rule="evenodd" class="s1" d="m117.7 69.9c0.6 0.6 0.6 1.9 0.6 2.4q0.1 0 0.3 0c0.6 0 1 0.4 1 1.1 0 0.7-0.4 1.1-1.2 1.1q-0.1 0-0.1 0l0.1 3.9q0 0.1-0.1 0.1l-3.3 2.3q-0.1 0-0.1 0-0.1 0-0.1 0-0.1 0-0.1-0.1l-0.8-2.4q0 0 0-0.1v-1.1-0.1c-0.9-0.3-1.4-1.2-1.4-2.1v-3.9c0-1.4 1.6-1.4 3-1.4q0.6 0 1.2 0 0.1-0.1 0.1-0.1 0.5 0 0.9 0.4zm-1-0.2c-1.6 0.2-4.1-0.3-4.1 1.3v3.9c0 0.9 0.6 1.7 1.5 2v0.2l-0.1 1.1 0.9 2.4 3.3-2.2-0.1-4.1c0 0 0.1 0 0.3 0 0.4 0 1-0.1 1-0.9 0-0.8-0.4-0.9-0.8-0.9-0.3 0-0.5 0.1-0.5 0.1 0 0 0.2-2.9-1.3-2.9q0 0-0.1 0z"/>
	<path id="Layer" class="s1" d="m114.3 74.8q0 0 0 0l-0.4-0.3q-0.2-0.2-0.2-0.3 0-0.2 0.1-0.4l0.3-0.3v-0.9q0-0.1 0.1-0.1 0 0 0.1 0.1v0.9q0 0.1 0 0.1l-0.4 0.4q0 0 0 0.1 0 0.2 0.1 0.2l0.4 0.3q0 0.1 0 0.2 0 0-0.1 0z"/>
	<path id="Layer" class="s1" d="m114 77.1q-0.1 0-0.1-0.1 0-0.1 0.1-0.1c0 0 1.1 0 1.6-0.2q0.1-0.1 0.1 0 0.1 0.1 0 0.1c-0.5 0.3-1.6 0.3-1.7 0.3z"/>
	<path id="Layer" class="s1" d="m115 72q-0.1 0-0.1 0 0-0.1 0-0.2c0.1-0.1 0.4-0.4 0.9-0.1q0.1 0 0 0.1 0 0.1-0.1 0c-0.4-0.2-0.7 0.1-0.7 0.1q0 0.1 0 0.1z"/>
	<path id="Layer" class="s1" d="m112.9 72q0 0 0 0-0.1-0.1 0-0.2c0.1-0.1 0.5-0.3 0.9 0q0.1 0.1 0 0.1 0 0.1-0.1 0c-0.4-0.2-0.7 0-0.7 0.1q0 0-0.1 0z"/>
	<path id="Layer" class="s1" d="m119 74.1q0 0 0 0-0.1-0.1-0.1-0.1c0.5-0.7-0.1-1.2-0.1-1.2q-0.1 0 0-0.1 0-0.1 0.1 0c0 0 0.8 0.5 0.2 1.4q0 0-0.1 0z"/>
	<path id="Layer" class="s1" d="m118.5 73.6q-0.1 0-0.1 0 0 0 0-0.1c0.2-0.4 0.7-0.4 0.7-0.4q0.1 0 0.1 0.1 0 0.1-0.1 0.1c0 0-0.4 0-0.6 0.3q0 0 0 0z"/>
	<path id="Layer" class="s1" d="m115.1 72.6c0 0.2 0.1 0.3 0.2 0.3 0.1 0 0.1-0.1 0.1-0.2 0.1-0.2 0-0.3-0.1-0.3-0.1 0-0.1 0.1-0.2 0.2z"/>
	<path id="Layer" class="s1" d="m113.1 72.6c0 0.2 0.1 0.3 0.2 0.3 0.1 0 0.1-0.1 0.1-0.2 0.1-0.2 0-0.3-0.1-0.3-0.1 0-0.2 0.1-0.2 0.2z"/>
	<path id="Layer" class="s1" d="m117.7 68.7c0-0.1 0.6 0.8 0.7 2.1 0 0.7 0 1.6 0 1.6-0.4 0.1-0.8 0.6-0.8 0.6l-0.2-2.8c-0.8 0.4-3.8 1.5-5.1 0.5-0.8-0.6-1.1-1.2-1.1-1.8 1.5 0.4 2-0.7 2.8-1.1 0.7-0.2 1.1-0.3 1.8-0.3 0.2 0 0.8 0.1 1.1 0.2 0.4 0.2 0.8 0.5 0.8 1z"/>
	<path id="Layer" class="s1" d="m115.6 75.1c0 0-0.9 0.5-1.6 0.2 0 0 0.6 0.7 1 0.7 0.4-0.1 0.6-0.9 0.6-0.9z"/>
	<path id="Layer" class="s2" d="m92.8 84.5l-6.3-6.6c-0.6-0.6-0.6-1.5 0-2.1l5.7-5.5c0.6-0.6 1.6-0.6 2.2 0l6.3 6.6c0.6 0.6 0.6 1.5 0 2.1l-5.7 5.5c-0.6 0.6-1.6 0.6-2.2 0z"/>
	<path id="Layer" fill-rule="evenodd" class="s1" d="m93.9 85q0 0 0 0c-0.4 0-0.8-0.1-1.1-0.4l-6.4-6.6c-0.3-0.3-0.4-0.7-0.4-1.1 0-0.5 0.2-0.9 0.5-1.2l5.7-5.5c0.6-0.6 1.6-0.6 2.2 0l6.4 6.6c0.6 0.6 0.6 1.7-0.1 2.3l-5.6 5.5c-0.3 0.3-0.7 0.4-1.2 0.4zm-0.6-15.1c-0.4 0-0.7 0.2-1 0.4l-5.7 5.6q-0.4 0.4-0.4 1c0 0.4 0.1 0.7 0.4 1l6.3 6.5c0.6 0.6 1.5 0.6 2 0.1l5.7-5.6c0.6-0.5 0.6-1.4 0-2l-6.3-6.5c-0.3-0.3-0.6-0.5-1-0.5z"/>
	<path id="Layer" class="s0" d="m93.7 85.1q-0.4 0-0.5-0.1c-0.7-0.7 0.9-3.1 2.9-5 1.8-1.8 3.6-3 4.6-3q0.3 0 0.5 0.2c0.4 0.4 0 1.3-0.4 2-0.6 0.9-1.5 2-2.5 3-1.8 1.8-3.7 2.9-4.6 2.9z"/>
	<path id="Layer" fill-rule="evenodd" class="s1" d="m101.3 77.1c0.7 0.8-1 3.3-3 5.2-1.8 1.8-3.7 2.9-4.6 2.9q-0.4 0-0.6-0.2c-0.7-0.7 0.9-3.2 2.9-5.1 1.8-1.8 3.7-3 4.7-3q0.4 0 0.6 0.2zm-5.2 2.9c-2.1 2.1-3.4 4.3-2.9 4.9q0.2 0.2 0.5 0.2c0.8 0 2.7-1.2 4.5-3 2.2-2.1 3.5-4.3 2.9-4.8q-0.1-0.2-0.4-0.2c-0.9 0-2.7 1.2-4.6 2.9z"/>
	<path id="Layer" class="s1" d="m99.1 80.3c-0.2 0.2-0.6 0.2-0.8 0-0.2-0.2-0.2-0.5 0.1-0.7 0.2-0.2 0.5-0.2 0.7 0 0.2 0.2 0.2 0.5 0 0.7z"/>
	<path id="Layer" class="s1" d="m96.7 82.6c-0.2 0.2-0.6 0.2-0.8 0-0.2-0.2-0.2-0.5 0.1-0.7 0.2-0.2 0.5-0.2 0.7 0 0.2 0.2 0.2 0.5 0 0.7z"/>
	<path id="Layer" class="s1" d="m102.9 85.2l-3.2-3.2c-0.1-0.1-0.1-0.4 0-0.6l0.2-0.1c0.1-0.2 0.4-0.2 0.6 0l3.1 3.1c0.1 0.2 0.1 0.5 0 0.6l-0.2 0.2c-0.1 0.1-0.4 0.1-0.5 0z"/>
	<path id="Layer" class="s1" d="m100.5 87.5l-3.1-3.1c-0.2-0.2-0.2-0.4 0-0.6l0.1-0.1c0.2-0.2 0.4-0.2 0.6 0l3.1 3.1c0.2 0.2 0.2 0.4 0 0.6l-0.1 0.1c-0.2 0.2-0.4 0.2-0.6 0z"/>
	<path id="Layer" class="s2" d="m104.9 96.6l-6.4-6.4c-0.6-0.6-0.6-1.6 0-2.2l5.6-5.6c0.6-0.6 1.5-0.6 2.1 0l6.5 6.5c0.6 0.6 0.6 1.5 0 2.1l-5.6 5.6c-0.6 0.6-1.6 0.6-2.2 0z"/>
	<path id="Layer" fill-rule="evenodd" class="s1" d="m106 97.2c-0.4 0-0.8-0.2-1.1-0.5l-6.5-6.4c-0.6-0.7-0.6-1.7 0-2.3l5.6-5.6c0.7-0.7 1.7-0.7 2.3 0l6.4 6.4c0.7 0.6 0.7 1.7 0 2.3l-5.6 5.6c-0.3 0.3-0.7 0.5-1.1 0.5zm-0.8-15.1c-0.4 0-0.8 0.1-1.1 0.4l-5.5 5.6c-0.6 0.6-0.6 1.5 0 2l6.4 6.5c0.5 0.5 1.5 0.5 2 0l5.6-5.6c0.3-0.3 0.4-0.7 0.4-1.1 0-0.3-0.1-0.7-0.4-1l-6.4-6.4c-0.3-0.3-0.7-0.4-1-0.4z"/>
	<g id="Clip-Path" clip-path="url(#cp1)">
		<g id="Layer">
			<path id="Layer" class="s1" d="m91.2 143.3q-0.9 0-1.7-0.1c-1.3-0.1-2-1.1-1.9-2.1 0-1 0.7-2 2-2q1.5 0 2.9 0.1c1.3 0 2.5 0.1 3.5-0.6 0.4-0.3 0.7-1 0.7-1.6-0.1-0.3-0.2-0.7-0.6-0.9-0.3-0.1-0.6-0.1-0.9-0.1l-22 0.1c-0.2 0-0.3-0.2-0.3-0.4 0-0.2 0.1-0.4 0.3-0.4h22c0.3 0 0.8 0 1.2 0.1 0.5 0.3 0.9 0.8 1 1.5 0.1 0.8-0.3 1.8-1 2.3-1.1 0.8-2.6 0.7-3.9 0.7q-1.4-0.1-2.9-0.1c-0.9 0-1.3 0.7-1.3 1.3 0 0.7 0.4 1.3 1.2 1.4 2.8 0.1 5.7-0.1 8.2-0.4 2.2-0.2 4.5-0.5 6.6-1.2 2.3-0.9 4-2.3 4.9-4 1.1-2 1-4.5 1-6.8q-0.1-0.3-0.1-0.6c-0.1-4.2 0.3-8.5 0.6-12.6 0.7-7.9 1.3-15.3-0.9-22.7-0.1-0.2 0-0.4 0.2-0.5 0.2 0 0.4 0.1 0.5 0.3 2.3 7.5 1.6 15.4 1 23-0.4 4.1-0.7 8.3-0.6 12.5q0 0.3 0 0.6c0 2.4 0.1 4.9-1 7.1-1 1.9-2.9 3.4-5.4 4.3-2.1 0.8-4.4 1.1-6.7 1.3-2 0.2-4.3 0.5-6.6 0.5z"/>
		</g>
	</g>
	<path id="Layer" class="s2" d="m103.2 90.7q-0.8 0.2-1.1 0.2l-2.1 1.1c-0.2 0.1-0.6 0.2-0.7-0.1q-0.2-0.3 0-0.5c-0.2 0-0.4 0.1-0.6-0.2-0.1-0.2 0-0.4 0.2-0.5-0.2 0-0.4-0.1-0.5-0.3-0.1-0.2 0-0.4 0.2-0.5l2.1-0.9c0 0-0.1-0.1-0.6-0.5-0.3-0.1-0.3-0.7 0.7-0.5 0.5 0.1 1.6 0.3 1.6 0.3z"/>
	<path id="Layer" fill-rule="evenodd" class="s1" d="m99.6 92.2q-0.3 0-0.4-0.3-0.1-0.2-0.1-0.4c-0.1 0.1-0.3 0-0.5-0.2q-0.1-0.3 0.1-0.5-0.3-0.1-0.4-0.3-0.1-0.2 0-0.4 0.1-0.2 0.3-0.3l1.9-0.8q-0.1-0.1-0.5-0.4c-0.2-0.1-0.2-0.3-0.2-0.5 0.1-0.1 0.3-0.3 1-0.2 0.4 0.1 1.4 0.3 1.6 0.3q0 0 0.1 0.1l0.7 2.3q0.1 0.1 0 0.1 0 0 0 0c-0.5 0.2-0.9 0.3-1.1 0.3l-2 1.1q-0.3 0.1-0.5 0.1zm-0.3-0.9q0.1 0 0.1 0.1 0 0 0 0.1c-0.1 0-0.2 0.1-0.1 0.4q0.2 0.2 0.7 0l2.1-1q0 0 0 0c0.1-0.1 0.5-0.2 0.9-0.3l-0.7-2.2c-0.3 0-1.1-0.2-1.5-0.3-0.5-0.1-0.7 0-0.8 0.1 0 0.1 0 0.2 0.1 0.3 0.5 0.3 0.7 0.4 0.7 0.4q0 0.1 0 0.1 0 0.1-0.1 0.1l-2 0.9c-0.2 0-0.3 0.2-0.2 0.4 0 0.2 0.2 0.2 0.4 0.2q0.1 0 0.1 0 0 0.1-0.1 0.2c-0.1 0-0.2 0.2-0.1 0.4 0.1 0.2 0.3 0.2 0.4 0.1q0.1 0 0.1 0 0 0 0 0z"/>
	<path id="Layer" class="s1" d="m99.3 91.5q0 0 0-0.1-0.1 0 0-0.1l1-0.5q0.1 0 0.1 0 0 0.1 0 0.2l-1 0.5q0 0-0.1 0z"/>
	<path id="Layer" class="s1" d="m98.8 90.8q0 0 0-0.1-0.1 0 0-0.1l1-0.5q0 0 0.1 0 0 0.1 0 0.1l-1 0.6q0 0-0.1 0z"/>
	<path id="Layer" class="s0" d="m105.1 91q-1.1 0-2.3-0.1-0.1 0-0.1 0l-0.6-3q0-0.1 0.1-0.1c0.1-0.1 9-3.6 12.2-5.6 0.4-0.3 0.9-0.7 1.5-1.1 1.3-1.1 2.9-2.5 4.4-2.5q0.5 0 1 0.3c0.8 0.5 1.3 1.3 1.4 2.2 0.2 1.4-0.8 3.2-2.4 4.7q-1.8 1.7-4.3 2.9c-3.2 1.5-6.9 2.3-10.9 2.3z"/>
	<path id="Layer" fill-rule="evenodd" class="s1" d="m121.4 78.9c0.8 0.5 1.3 1.2 1.4 2.2 0.1 1.4-0.8 3.3-2.4 4.8h-0.1q-1.8 1.7-4.3 2.9c-3.2 1.5-6.9 2.3-10.9 2.3q-1.1 0-2.3-0.1-0.1 0-0.2-0.1l-0.5-3q-0.1-0.2 0.1-0.2c0-0.1 9-3.6 12.2-5.6 0.4-0.3 0.9-0.7 1.4-1.1 1.3-1.1 3-2.5 4.5-2.5q0.6 0 1.1 0.4zm-6.9 3.4c-3.3 2-12.3 5.5-12.3 5.5l0.6 3q1.2 0.1 2.3 0.1c9.7 0 14.4-4.5 15.2-5.2 2.3-2.1 3.4-5.2 1-6.7q-0.5-0.3-1-0.3c-2 0-4.4 2.6-5.8 3.6z"/>
	<path id="Layer" class="s2" d="m91.1 82.7l0.3-0.2c0.2-0.2 0.2-0.4 0.1-0.6-0.2-0.1-0.4-0.1-0.6 0l-0.3 0.2c-0.1 0.1-0.1 0.4 0 0.5 0.1 0.2 0.3 0.2 0.5 0.1z"/>
	<path id="Layer" fill-rule="evenodd" class="s1" d="m90.9 82.9q0 0-0.1 0-0.2-0.1-0.3-0.2-0.1-0.2-0.1-0.3 0-0.2 0.2-0.4l0.3-0.2c0.2-0.1 0.5-0.1 0.6 0.1 0.2 0.2 0.2 0.5 0 0.6l-0.3 0.3q-0.2 0.1-0.3 0.1zm0.3-1q-0.1 0-0.2 0.1l-0.3 0.2q-0.1 0.1-0.1 0.2 0 0.1 0.1 0.2c0.1 0.1 0.2 0.1 0.4 0l0.2-0.2q0.1-0.1 0.1-0.2 0.1-0.1 0-0.2-0.1-0.1-0.2-0.1z"/>
	<path id="Layer" class="s2" d="m91.6 83.3l0.3-0.2c0.1-0.2 0.2-0.4 0-0.6-0.1-0.1-0.3-0.1-0.5 0l-0.3 0.2c-0.1 0.1-0.2 0.4 0 0.5 0.1 0.2 0.3 0.2 0.5 0.1z"/>
	<path id="Layer" fill-rule="evenodd" class="s1" d="m91.3 83.5q-0.2 0-0.3-0.2-0.1-0.2-0.1-0.4 0-0.1 0.2-0.3l0.3-0.2c0.2-0.1 0.4-0.1 0.6 0.1q0.1 0.1 0.1 0.3 0 0.2-0.2 0.3l-0.3 0.3q-0.1 0.1-0.3 0.1zm0.3-1q-0.1 0-0.1 0.1l-0.3 0.2q-0.1 0.1-0.1 0.2 0 0.1 0 0.2c0.1 0.1 0.3 0.1 0.4 0l0.3-0.2c0.1-0.1 0.1-0.3 0.1-0.4q-0.1-0.1-0.3-0.1z"/>
	<path id="Layer" class="s2" d="m92.1 83.9l0.2-0.2c0.2-0.2 0.2-0.4 0.1-0.6-0.1-0.1-0.4-0.1-0.5 0l-0.3 0.2c-0.2 0.1-0.2 0.4-0.1 0.5 0.2 0.2 0.4 0.2 0.6 0.1z"/>
	<path id="Layer" fill-rule="evenodd" class="s1" d="m91.8 84.1q-0.2 0-0.3-0.2c-0.2-0.2-0.2-0.5 0-0.7l0.3-0.2c0.2-0.1 0.5-0.1 0.7 0.1q0.1 0.1 0.1 0.3-0.1 0.2-0.2 0.3l-0.3 0.3q-0.1 0.1-0.3 0.1zm0.3-1q-0.1 0-0.2 0l-0.3 0.3c-0.1 0.1-0.1 0.3 0 0.4 0.1 0.1 0.3 0.1 0.4 0l0.3-0.2q0.1-0.1 0.1-0.2 0-0.1-0.1-0.2-0.1-0.1-0.2-0.1z"/>
	<path id="Layer" class="s1" d="m102.2 81.9c-0.2 0-0.3-0.1-0.3-0.3-0.1-2.4-0.2-4-0.7-6.1-0.4-1.6-1.3-4-3.1-5.6-1.7-1.5-4.1-2-6-1.4-2 0.7-3.2 2.6-2.8 4.5 0 0.2-0.1 0.4-0.3 0.5-0.2 0-0.4-0.1-0.4-0.3-0.5-2.3 0.9-4.5 3.3-5.3 2.1-0.8 4.7-0.2 6.6 1.5 1.6 1.4 2.8 3.4 3.4 5.9 0.5 2.2 0.6 3.9 0.7 6.3 0 0.2-0.2 0.3-0.4 0.3q0 0 0 0z"/>
	<path id="Layer" class="s1" d="m95.9 131.4q-1.1 0-2.1-0.1l-16-0.2c-0.2 0-0.3-0.1-0.3-0.3 0-0.2 0.1-0.4 0.3-0.4q0 0 0 0l16 0.2q0 0 0.1 0c2.2 0.1 5.1 0.3 6.5-1.5 1-1.2 1.1-2.9 1-4.7-0.1-5-0.3-10.4-0.4-15.7-0.2-5.3-0.3-10.7-0.5-15.7 0-0.2 0.2-0.4 0.4-0.4q0 0 0 0c0.2 0 0.4 0.1 0.4 0.3 0.1 5.1 0.2 10.5 0.4 15.8 0.2 5.2 0.3 10.7 0.4 15.7 0.1 2 0 3.8-1.1 5.2-1.2 1.5-3.2 1.8-5.1 1.8z"/>
</svg>