<?xml version="1.0" encoding="UTF-8" standalone="no"?>
<svg
   width="752.72638"
   zoomAndPan="magnify"
   viewBox="0 0 564.54478 386.68336"
   height="515.57782"
   preserveAspectRatio="xMidYMid"
   version="1.0"
   id="svg13"
   sodipodi:docname="ai_vetting_3.svg"
   inkscape:version="1.3.2 (091e20e, 2023-11-25, custom)"
   xmlns:inkscape="http://www.inkscape.org/namespaces/inkscape"
   xmlns:sodipodi="http://sodipodi.sourceforge.net/DTD/sodipodi-0.dtd"
   xmlns="http://www.w3.org/2000/svg"
   xmlns:svg="http://www.w3.org/2000/svg">
  <sodipodi:namedview
     id="namedview13"
     pagecolor="#505050"
     bordercolor="#eeeeee"
     borderopacity="1"
     inkscape:showpageshadow="0"
     inkscape:pageopacity="0"
     inkscape:pagecheckerboard="0"
     inkscape:deskcolor="#505050"
     showgrid="false"
     inkscape:zoom="1.1210938"
     inkscape:cx="377.3101"
     inkscape:cy="260.90592"
     inkscape:window-width="1920"
     inkscape:window-height="1057"
     inkscape:window-x="1672"
     inkscape:window-y="-8"
     inkscape:window-maximized="1"
     inkscape:current-layer="svg13" />
  <defs
     id="defs5">
    <filter
       x="0"
       y="0"
       width="1"
       height="1"
       id="aa04a83b78">
      <feColorMatrix
         values="0 0 0 0 1 0 0 0 0 1 0 0 0 0 1 0 0 0 1 0"
         color-interpolation-filters="sRGB"
         id="feColorMatrix1" />
    </filter>
    <clipPath
       id="983fcb1675">
      <path
         d="M 229,92.132812 H 480.17578 V 480 H 229 Z m 0,0"
         clip-rule="nonzero"
         id="path1" />
    </clipPath>
    <mask
       id="ee3c3a9eb3">
      <g
         filter="url(#aa04a83b78)"
         id="g1">
        <rect
           x="-102.45"
           width="1229.4"
           fill="#000000"
           y="-57.599998"
           height="691.20001"
           fill-opacity="0.35"
           id="rect1" />
      </g>
    </mask>
    <clipPath
       id="f4c6ff6e38">
      <path
         d="M 1.089844,0.601562 H 132.12109 V 150.57031 H 1.089844 Z m 0,0"
         clip-rule="nonzero"
         id="path2" />
    </clipPath>
    <clipPath
       id="855c69ad0e">
      <path
         d="M 1.089844,75.695312 132.12109,0.824219 V 150.57031 Z m 0,0"
         clip-rule="nonzero"
         id="path3" />
    </clipPath>
    <clipPath
       id="134d853148">
      <rect
         x="0"
         width="133"
         y="0"
         height="151"
         id="rect3" />
    </clipPath>
    <clipPath
       id="097b39f34f">
      <path
         d="m 604,307 h 190 v 38.10156 H 604 Z m 0,0"
         clip-rule="nonzero"
         id="path4" />
    </clipPath>
    <clipPath
       id="63c4b9b475">
      <path
         d="M 606,132.59766 H 792 V 270 H 606 Z m 0,0"
         clip-rule="nonzero"
         id="path5" />
    </clipPath>
  </defs>
  <g
     clip-path="url(#983fcb1675)"
     id="g6"
     transform="translate(-229.22295,-92.323237)">
    <path
       fill="#4e7896"
       d="m 343.17578,93.527344 c -12.06641,2.628906 -19.73437,5.765625 -29.20312,11.933596 -35.08594,22.87109 -47.9961,70.77343 -30.26563,112.27734 1.58984,3.71875 2.89063,6.9375 2.89063,7.15625 0,0.21484 -0.73829,0.6875 -1.63672,1.05078 -1.49219,0.59766 -1.42578,0.66016 0.70703,0.70313 2.0625,0.0391 2.78515,0.67187 5.98828,5.23437 2.00391,2.85156 5.20312,7.84375 7.10937,11.08985 l 3.46875,5.90625 -0.0351,12.0039 c -0.0391,12.98828 -0.54297,15.9961 -5.67969,33.83594 -5.01953,17.41797 -14.13672,40.1875 -19.35156,48.3125 -1.25,1.94922 -8.4961,10.03906 -16.09766,17.97656 -7.84375,8.1875 -15.51953,16.95703 -17.74219,20.26563 -6.36718,9.47656 -10.05859,18.80859 -12.42968,31.4375 -1.60157,8.54687 -2.24219,39.53125 -1.08594,52.6875 1.22266,13.89062 0.76172,12.96484 6.42187,12.96484 h 4.75782 l -0.46875,-7.45703 c -0.25782,-4.09766 -0.79688,-11.71094 -1.19532,-16.91016 -1.42578,-18.5625 1.94532,-43.16406 7.89063,-57.57812 1.93359,-4.69922 6.90234,-13.33985 7.66797,-13.33985 0.17187,0 2.28125,3.6836 4.6875,8.1836 2.40234,4.5 4.90234,8.83594 5.55078,9.63672 1.15234,1.42187 1.17187,1.41406 0.70703,-0.36328 -0.26172,-1 -2.40625,-5.5 -4.76562,-9.9961 -2.35938,-4.5 -4.29297,-8.72265 -4.29297,-9.38672 0,-1.59375 4.57422,-9.84375 8.07031,-14.55468 2.40234,-3.23438 3.41016,-3.95313 7.35937,-5.24219 15.59375,-5.09766 32.53516,-3.50781 51.83594,4.86328 13.33203,5.78125 19.48828,9.77734 27.65625,17.95703 7.20313,7.21484 20.41406,23.46484 19.67188,24.20703 -0.56641,0.5625 -12.66407,-7.67969 -28.39844,-19.35547 -20.55469,-15.24609 -29.03125,-19.90234 -40.52344,-22.25781 -6.51172,-1.33594 -12.125,-1.44531 -18.75781,-0.37109 -5.63672,0.91406 -17.60547,4.77343 -19.43359,6.26953 -1.39844,1.14844 -1.31641,1.14062 3.61328,-0.22656 1.61328,-0.44922 1.61718,-0.4375 0.18359,0.70312 -0.80078,0.63672 -1.08984,1.16797 -0.64453,1.18359 0.44531,0.0117 1.64062,-0.63281 2.66016,-1.43359 1.5,-1.17969 2.94921,-1.45312 7.69921,-1.45312 11.58985,0 18.125,2.58203 32.46875,12.8164 9.77735,6.98047 12.59375,8.54688 21.46485,11.94141 11.67969,4.46875 14.82031,6.98437 42.17969,33.78515 9,8.81641 19.14843,18.07813 22.55078,20.57813 11.53515,8.48437 11.80859,8.78906 16.76953,18.86719 2.55469,5.18359 4.70312,8.76172 4.85547,8.08984 0.15234,-0.66406 -1.01563,-3.77344 -2.58985,-6.91016 -1.57812,-3.13671 -3.38281,-6.94531 -4.01953,-8.46484 l -1.15234,-2.76172 3.76953,2.03516 3.76562,2.03515 1.96875,6.8086 c 1.08204,3.75 2.32032,7.16797 2.75391,7.60156 1.19141,1.19141 0.99609,-0.60547 -0.64844,-6.00781 -0.78515,-2.58203 -1.30859,-4.8086 -1.16797,-4.94922 0.14454,-0.14453 2,2.375 4.125,5.59766 2.125,3.22265 4.13672,5.85937 4.47266,5.85937 0.72656,0 -0.16406,-1.74609 -4.01172,-7.85547 -1.58203,-2.51953 -2.70312,-4.75781 -2.48437,-4.97656 0.22265,-0.21875 1.39843,-0.17969 2.61718,0.0859 1.75782,0.38672 2.90235,1.58984 5.54688,5.83203 3.21875,5.16797 5.43359,7.78906 5.43359,6.4414 0,-0.80859 -6.75781,-13.01171 -15.44531,-27.89453 -14.33203,-24.55468 -19.42578,-31.83593 -25.29297,-36.17187 -8.85937,-6.54688 -10.15234,-8.17188 -13.13672,-16.55469 -1.79297,-5.02734 -1.73828,-2.33203 0.0703,3.51953 1.29687,4.19531 2.0039,5.23047 5.92578,8.6211 7.97265,6.89453 13.3164,12.10937 12.87109,12.55078 -0.23828,0.24218 -2.78906,-0.4336 -5.66406,-1.5 l -5.23047,-1.9375 -5.30859,-8.08594 c -2.91797,-4.44531 -6.71875,-10.53906 -8.44532,-13.53906 -5.36718,-9.33203 -10.24218,-16.17188 -15.1875,-21.32032 l -4.76172,-4.95312 3.39063,1.45312 c 1.86328,0.80079 6.10937,2.01954 9.43359,2.71094 3.32422,0.6875 6.3086,1.47656 6.625,1.75 0.32032,0.27344 0.66016,1.75391 0.75782,3.28516 0.0976,1.53515 0.57421,2.92187 1.05859,3.08203 1.08203,0.36328 1.10547,-0.88672 0.0898,-5.61328 l -0.78906,-3.67188 -4.48437,-0.008 c -7.41016,-0.0156 -7.375,0.0117 -7.52344,-6.18359 -0.0703,-2.95703 -0.45703,-5.96875 -0.85938,-6.6836 -0.69922,-1.24609 -0.75781,-1.24218 -1.26562,0.0742 -0.29297,0.75781 -0.22266,3.625 0.15625,6.36328 0.3789,2.74219 0.60937,4.98438 0.50781,4.98438 -0.42187,0 -20.71484,-9.48047 -25.92578,-12.10938 l -5.69141,-2.875 3.26563,-4.32812 c 1.79687,-2.37891 4.19922,-5.21485 5.33984,-6.30078 l 2.07422,-1.97266 3.90625,1.97266 c 2.14844,1.08593 5.46484,3.36328 7.37109,5.0664 3.6211,3.23438 5.55469,4.1836 3.1875,1.56641 -1.28125,-1.41406 -1.07812,-1.39063 2.87891,0.35937 3.60938,1.59766 12.97266,4.80079 14.03125,4.80079 0.17969,0 0.14063,-0.30469 -0.0898,-0.67969 -0.23047,-0.375 -2.16016,-1.1836 -4.28907,-1.80469 l -3.86718,-1.125 0.55468,-4.08984 c 0.65625,-4.8125 0.29688,-6.1211 -1.66015,-6.1211 -1.3086,0 -1.41797,0.42188 -1.19531,4.64453 l 0.24218,4.64844 -6.54297,-3.28125 c -3.60156,-1.80469 -10.96484,-5.91406 -16.36718,-9.13281 -11.69922,-6.96875 -21.32032,-11.64453 -27.28516,-13.26172 -2.39453,-0.64844 -7.88281,-1.36719 -12.19531,-1.59375 -4.3125,-0.23047 -8,-0.67187 -8.19141,-0.98437 -0.19531,-0.3125 0.0508,-1.45313 0.54688,-2.53907 l 0.89453,-1.96875 9.63281,0.36719 c 11.91797,0.45313 14.91797,-0.0469 17.96094,-2.99609 2.87109,-2.78516 4.125,-2.82032 14.63672,-0.44922 9.08593,2.05078 38.23828,10.44531 39.15234,11.27344 0.32813,0.30078 1.05469,7.3789 1.61719,15.73046 2.6875,40.1211 5.26953,48.48438 20.76953,67.1875 2.81641,3.40235 7.46094,9.94532 10.31641,14.54688 2.85937,4.60156 7.4414,11.96484 10.18359,16.36719 2.74609,4.39843 8.47656,14.13672 12.74219,21.63672 8.52343,14.99218 12.53125,19.04687 5.17968,5.23437 -4.30859,-8.08984 -5.07421,-10.89844 -2.16406,-7.91797 0.76172,0.77735 3.06641,4.35938 5.125,7.95703 3.73828,6.54688 6.54688,10.20703 6.54688,8.53516 0,-0.48438 -2.03516,-4.96094 -4.51953,-9.94922 -2.48438,-4.98828 -4.27735,-9.30859 -3.98047,-9.60156 0.94531,-0.94531 2.6914,1.53906 7.27734,10.36719 3.98438,7.67187 4.72656,8.67968 6.55469,8.88671 4.0625,0.46485 4.30078,-0.0898 2.3125,-5.37109 -3.02735,-8.04687 -11.03125,-22.86719 -15.88281,-29.41406 -2.51954,-3.40235 -10.07032,-12.56641 -16.77735,-20.36719 -16.75,-19.47266 -24.39453,-29.73047 -27.23047,-36.53906 -2.30468,-5.54297 -4.75,-14.85938 -5.4414,-20.74219 -0.32813,-2.78125 -0.19141,-3.14062 1.33203,-3.52344 3.21094,-0.80468 4.23437,-2.76172 3.72265,-7.12109 -1.38671,-11.80078 -1.89062,-18.30469 -1.51171,-19.5 0.23437,-0.73438 1.51562,-1.79297 2.84765,-2.34766 1.33203,-0.55859 2.65625,-1.75 2.94141,-2.65234 0.28906,-0.90234 0.0976,-5.68359 -0.42188,-10.625 -0.83984,-8.02734 -0.8164,-9.25 0.23047,-11.44922 2.21485,-4.64453 6.54688,-4.94922 24.90625,-1.76562 9.98828,1.73437 22.74219,2.09765 26.60938,0.75781 3.16797,-1.09766 6.02734,-3.96094 7.51562,-7.52344 0.99219,-2.375 0.99219,-3.05469 -0.004,-6.54687 -0.60938,-2.14063 -1.29297,-5.58204 -1.51563,-7.65235 l -0.40625,-3.75781 3.64844,-2.62109 c 2.00781,-1.44141 3.84765,-3.13282 4.08594,-3.75782 0.6914,-1.79687 0.50781,-5.33984 -0.35938,-6.95312 -0.64844,-1.21875 -0.47266,-1.82422 1.00391,-3.41016 3.28125,-3.51953 3.65234,-4.88281 2.69922,-9.9375 -1.32813,-7.03125 -1.01172,-7.48047 7.4414,-10.5625 4.49219,-1.64062 7.10547,-4.21875 7.10547,-7.01562 0,-2.375 -1.36719,-4.89844 -8.21094,-15.14063 -7.74609,-11.59375 -10.08203,-16.67187 -10.52734,-22.875 -0.31641,-4.4414 -0.10938,-5.46094 2.19922,-10.65625 1.89453,-4.26953 2.66406,-7.1875 2.98828,-11.34765 0.23828,-3.08204 0.16016,-5.77344 -0.17969,-5.98047 -0.33594,-0.21094 -0.80469,-1.78125 -1.04297,-3.49219 -0.76953,-5.53516 -4.14843,-16.00391 -7.15625,-22.16406 -11.89453,-24.34375 -37.1914,-43.50391 -68.23047,-51.667971 -6.25781,-1.648438 -8.62109,-1.851563 -24.03515,-2.097657 -14.75391,-0.230468 -17.96094,-0.07812 -23.42969,1.113282 z m 30.05469,4.46875 c 33.68359,3.457036 62.50781,20.238286 77.69531,45.238276 5.44531,8.96094 9.57031,21.94141 9.46875,29.78516 -0.0352,2.95703 -0.11328,2.83984 -1.4375,-2.21094 -1.68359,-6.43359 -6.59375,-17 -11.21875,-24.15234 -1.94531,-3.00391 -8.10937,-10.05469 -14.44141,-16.50781 L 422.25,118.88672 l -9.83203,-4.92969 c -17.60547,-8.83203 -29.02735,-12 -46.17578,-12.80859 -10.9961,-0.51563 -20.58203,0.54297 -31.08203,3.4375 -6.03907,1.66797 -19.40235,7.32812 -18.22266,7.72265 0.42969,0.14454 3.89844,-1.07031 7.71094,-2.69921 11.89843,-5.08204 16.40625,-5.95704 32.89453,-6.375 16.23828,-0.41016 23.72265,0.29296 33.63281,3.15625 6.97266,2.01562 17.30469,6.35546 23.27734,9.78125 l 3.83985,2.20312 -4.14063,3.48438 -7.6914,-3.94532 c -9.05469,-4.64453 -24.17188,-10.6914 -25.89453,-10.35937 -0.66407,0.1289 2.55078,1.64062 7.14453,3.35937 4.59375,1.71875 9.82812,3.89453 11.625,4.83985 l 3.27343,1.71093 -2.17968,0.83594 c -2.92969,1.125 -6.13672,4.21875 -7.37891,7.1211 -0.89062,2.08593 -1.25391,2.3125 -3,1.88281 l -1.98828,-0.49219 2.40625,2.03516 c 4.01953,3.39843 9.24219,14.95703 11.44922,25.33984 1.60547,7.53516 1.04687,40.09375 -0.98438,57.57812 l -0.5039,4.34375 -7.05469,5.28125 c -8.16016,6.10547 -10.26563,9.11719 -11.53906,16.49219 -1.07813,6.23047 -0.51563,18.40235 1.08593,23.52735 1.35547,4.34375 6.92579,10.85156 13.02735,15.22656 2.0625,1.48047 5.11328,3.77734 6.78125,5.10156 2.86719,2.28516 2.98437,2.53125 2.21484,4.57031 -1.11328,2.95313 -0.004,5.79297 2.92969,7.50782 2.00781,1.17187 2.72266,1.24609 4.91797,0.52343 2.4375,-0.80468 2.82812,-0.67968 7.77734,2.48438 2.86719,1.83594 5.54297,3.33594 5.94922,3.33594 0.84375,0 -2.33203,-2.4336 -7.16797,-5.48829 -3.05078,-1.92968 -3.28515,-2.29687 -3.28515,-5.15234 0,-2.45703 -0.38672,-3.37891 -1.91797,-4.58203 -1.05078,-0.82813 -2.53516,-1.50781 -3.29297,-1.50781 -2.71094,0 -6.55078,-2.19922 -13.16797,-7.53907 -12.34766,-9.96875 -13.26953,-11.5039 -14.44141,-23.95703 -1.59375,-16.93359 0.59766,-22.34375 12.41016,-30.61718 3.16016,-2.21485 5.98828,-4.41797 6.28125,-4.89063 0.67187,-1.08984 2.38672,-25.41797 2.97656,-42.28125 l 0.44922,-12.91016 1.89844,-0.10937 1.89453,-0.10938 -1.96484,-0.30078 c -2.11329,-0.32031 -2.22266,-0.54687 -3.51172,-7.02734 -1.21094,-6.11328 -3.15235,-11.41406 -6.99219,-19.10156 l -3.35938,-6.71875 1.4336,-2.77344 c 1.04297,-2.01562 2.54687,-3.34766 5.5,-4.86328 l 4.0664,-2.08984 3.29297,1.59375 c 1.8086,0.875 4.27735,2.79687 5.48047,4.26953 3.98438,4.86718 5.33594,5.95312 7.42578,5.95312 3.01953,0 3.94141,1.96094 7.33985,15.59766 3.37109,13.53125 3.38672,13.41797 -1.98047,13.53906 -1.60156,0.0352 -4.38281,0.32812 -6.1836,0.64844 -2.7539,0.48828 -2.14843,0.59375 3.82032,0.67187 3.89843,0.0508 7.32422,0.0664 7.60937,0.0391 0.85547,-0.0898 1.51953,2.5625 0.76172,3.05079 -0.42578,0.27343 -0.25781,1.14062 0.42578,2.18359 1.63281,2.49609 2.32422,7.64844 1.20703,8.99609 -0.79687,0.96094 -0.12109,1.09766 5.54297,1.10547 3.55078,0.004 7.76563,0.15235 9.36328,0.33203 l 2.91016,0.32813 -2.70703,-0.82422 c -2.61719,-0.79297 -2.78906,-1.05469 -5,-7.69141 -2.70313,-8.11328 -2.69531,-8.1289 4.91015,-8.14453 l 5.20704,-0.0117 2.16406,6 c 1.1914,3.30078 2.69922,8.58985 3.34765,11.75 1.14454,5.5625 1.13282,5.92578 -0.36328,11.25782 -1.16406,4.15234 -1.46484,6.85546 -1.22656,10.99218 0.38672,6.65625 1.92578,10.26563 9.49219,22.26953 8.41797,13.34766 9.07812,15.13672 6.61328,17.86329 -1.57422,1.73828 -3.16406,1.69921 -3.16406,-0.0781 0,-1.13281 -0.67969,-1.50391 -3.45313,-1.875 -5.18359,-0.69922 -5.24609,-0.79687 -0.92578,-1.37109 4.8125,-0.64063 5.83594,-1.39063 5.83594,-4.28125 0,-1.21875 -0.2461,-1.96875 -0.54688,-1.66407 -0.30078,0.30079 -0.54297,1.25782 -0.54297,2.1211 0,1.37109 -0.64453,1.6875 -5.09375,2.48437 -5.78906,1.04297 -11.84375,2.75 -13.45703,3.79688 -0.94922,0.61719 -0.90234,1.05859 0.38672,3.45312 1.44531,2.69141 1.55078,2.74219 5.27344,2.54297 2.08984,-0.11328 3.79687,-0.082 3.79687,0.0703 0,0.14844 -0.47656,1.22657 -1.05859,2.39454 -0.92969,1.86718 -0.92187,2.71875 0.0703,7.0664 0.91407,4.01563 0.96094,5.35156 0.23828,7.09375 -1.02734,2.47656 -1.5039,2.61328 -11.25,3.22656 -4.0039,0.25 -7.58593,0.75782 -7.96484,1.13282 -0.43359,0.42187 -0.13281,0.67578 0.79297,0.67578 0.81641,0 3.96094,2.0039 6.99219,4.45312 l 5.5039,4.45703 -2.84375,2.70704 c -3.30078,3.13671 -3.5625,5.10156 -1.67578,12.46484 1.38672,5.42578 0.97266,9.73828 -1.13672,11.84766 -1.40625,1.40625 -2.32422,1.52734 -11.14843,1.5 -14.89844,-0.0469 -32.09375,-4.26563 -43.4375,-10.65625 -19.69141,-11.09375 -30.79688,-33.4336 -24.70313,-49.6836 2.25,-6 6.90234,-13.01953 12.71484,-19.18359 2.69141,-2.85156 4.56641,-5.1836 4.16797,-5.1836 -2.23047,0 -17.63672,18.97657 -17.63672,21.72266 0,0.75391 -0.59375,0.88281 -2.36328,0.50781 -4.26562,-0.90234 -10.51953,-1.23437 -8.91015,-0.47265 0.80078,0.3789 2.10937,0.71093 2.91015,0.74218 0.79688,0.0312 2.63282,0.38282 4.07032,0.78125 l 2.61718,0.72657 -0.34765,7.1875 c -0.41797,8.65625 0.45312,12.92578 4.23828,20.8125 5.37109,11.1914 12.28125,17.71484 26.34765,24.88281 4.35938,2.22266 6.77735,3.80469 5.83985,3.82031 -4.86328,0.0781 -9.39453,1.76172 -12.14453,4.51172 l -2.83985,2.83594 0.48438,9.02344 c 0.26562,4.96093 0.67187,9.96484 0.90234,11.11718 l 0.41797,2.09375 -5.28125,-0.5625 c -2.90234,-0.3125 -5.73437,-1.01953 -6.28906,-1.57422 -0.5586,-0.55468 -1.31641,-3.43359 -1.69141,-6.39453 -2.64062,-20.91015 -3.05078,-21.92968 -12.28515,-30.44531 -5.01563,-4.62109 -7.53125,-7.51953 -8.38672,-9.66016 -0.67188,-1.67968 -2.51953,-10.75781 -4.09766,-20.17187 -1.58203,-9.41406 -3.19141,-18.26563 -3.57812,-19.66406 -0.38282,-1.39844 -0.69922,-2.7461 -0.70313,-2.98828 0,-0.2461 2.94922,-0.61329 6.5625,-0.82032 5.42578,-0.30859 7.37109,-0.77343 11.21094,-2.66406 4.85547,-2.38672 8.80859,-6.16016 9.54687,-9.10156 0.23828,-0.94922 -0.12109,-3.64453 -0.80078,-5.98828 -0.67969,-2.34375 -1.2539,-5.32032 -1.27734,-6.6211 -0.0391,-2.23828 -0.10938,-2.29687 -1.3711,-1.15625 -1.27343,1.15235 -1.28515,1.11328 -0.30859,-0.91406 2.24219,-4.65625 2.16797,-5.15234 -0.81641,-5.64453 -1.51171,-0.25 -4.13671,-0.45703 -5.83984,-0.46094 -5.71094,-0.0156 -3.16016,-1.24219 3.57813,-1.71875 7.05078,-0.5 7.57812,-0.64453 6.8164,-1.8789 -0.28515,-0.46485 -3.40625,-0.77344 -7.83203,-0.77344 -7.71875,0 -9.54297,-0.53125 -2.72656,-0.79688 2.1914,-0.082 4.39453,-0.46875 4.89453,-0.85937 0.60547,-0.47266 0.90625,-0.4336 0.90625,0.10937 0,0.44922 0.65625,0.81641 1.45703,0.81641 1.64063,0 1.76563,-0.54297 0.73047,-3.26563 -0.48438,-1.26953 -0.48438,-1.75781 0,-1.46093 0.39844,0.25 0.72266,-0.043 0.72266,-0.64063 0,-0.60156 -0.32813,-1.29297 -0.72657,-1.54297 -0.39843,-0.24609 -0.73047,-0.0195 -0.73047,0.50391 0,0.52344 -0.60156,-0.0312 -1.33593,-1.23438 -1.50391,-2.46875 -5.48438,-5.70312 -9.01953,-7.33984 l -2.3711,-1.09375 2.16797,0.45703 2.16406,0.45703 -2.03515,-1.88672 c -1.95313,-1.8125 -3.76563,-1.90625 -3.1836,-0.16796 0.15235,0.46093 -0.16015,1.27343 -0.6914,1.80468 -1.13672,1.13672 -1.26563,6.01172 -0.25,9.55078 0.82031,2.86329 0.73437,3.1211 -0.73828,2.21485 -0.77735,-0.48047 -1.16797,-2.59766 -1.4336,-7.78125 -0.28906,-5.6836 -0.58203,-7.1211 -1.45312,-7.1211 -0.85938,0 -1.19532,1.45313 -1.57032,6.8086 -0.66406,9.41015 -2.0664,10.53515 -2.0664,1.65234 0,-6.65234 -0.0234,-6.73437 -1.63672,-6.24609 -3.07031,0.92969 -6.27344,3.30078 -10.07813,7.45703 -2.08984,2.28125 -3.4414,3.49219 -3.00781,2.69531 0.92578,-1.69922 7.00391,-7.61719 9.60938,-9.35156 1.28515,-0.85547 1.46093,-1.19531 0.61328,-1.19531 -2.41406,0 -10.05469,7.46484 -11.48438,11.21875 -0.83203,2.1914 -0.98437,3.80859 -0.29687,3.11718 0.42187,-0.42187 2.46094,1.15625 2.46094,1.90625 0,0.1875 -0.98438,0.6875 -2.1836,1.10547 -1.19922,0.41797 -2.17969,1.08203 -2.17969,1.47657 0,0.91796 1.48438,1.32421 7.08985,1.92187 3.14062,0.33984 4.54687,0.79688 4.54687,1.48828 0,0.77735 -0.42187,0.84375 -1.86718,0.29297 -3.125,-1.1875 -7.85938,-0.87891 -8.76563,0.57422 -1.00391,1.60156 -0.12109,4.17969 1.77734,5.19531 1.5586,0.83594 2.91797,3.3711 1.39063,2.59766 -0.49609,-0.25391 -0.17969,0.17969 0.70312,0.96094 0.88672,0.78125 1.46094,1.57031 1.27735,1.75 -0.17969,0.18359 0.55469,1.125 1.6289,2.08984 l 1.96485,1.76172 -1.3711,-2.17578 -1.36718,-2.17578 2.21875,1.8125 c 1.21875,0.99609 2.83203,2.23437 3.58593,2.75 0.75391,0.51171 0.96094,0.73828 0.46094,0.5 -0.5,-0.23829 -0.91015,-0.0859 -0.91015,0.33984 0,0.42187 0.13671,0.76953 0.30468,0.76953 0.16797,0 0.875,0.21875 1.57422,0.48438 0.81641,0.3164 1.09766,0.20703 0.78516,-0.29297 -0.3086,-0.5 0.0469,-0.64453 0.97265,-0.40235 1.27735,0.33203 1.47266,-0.008 1.59766,-2.79687 0.41406,-9.07813 0.33984,-9.69922 -1.36719,-11.77735 -2.34375,-2.85937 -2.18359,-5.92187 0.44141,-8.54687 4.58203,-4.58203 10.22656,-1.79688 10.25,5.0625 0.008,2.4375 0.20312,3.05859 0.71484,2.26562 0.39063,-0.59765 0.70703,-0.76171 0.70313,-0.36328 0,0.39844 -0.97656,2.16797 -2.16797,3.92969 -2.59375,3.82422 -2.74219,5.55859 -0.53516,6.17969 1.60547,0.45312 1.60938,0.48437 0.22266,1.54297 -2.03125,1.55078 -2.77734,0.35937 -2.48047,-3.97266 0.23438,-3.38672 0.125,-3.71484 -1.19531,-3.52344 -1.29297,0.1836 -1.4961,0.91407 -1.83985,6.61328 -0.26953,4.51954 -0.69921,6.60157 -1.45312,7.07813 -0.76172,0.48047 -0.17188,0.67969 2.01953,0.69141 3.05078,0.008 3.08984,-0.0234 3.08984,-2.53516 0,-2.30859 0.19141,-2.54297 2,-2.48828 1.10157,0.0312 1.59375,0.22265 1.09375,0.42187 -1.28125,0.51563 -1.13281,1.69922 0.21094,1.69922 0.61328,0 2.4375,-0.67187 4.05469,-1.49609 1.61328,-0.82422 3.31641,-1.33985 3.78906,-1.14844 0.52344,0.21484 0.4336,0.37891 -0.23828,0.42188 -1.28125,0.0859 -5.08984,2.91015 -3.95703,2.9375 0.42578,0.008 1.40625,-0.46485 2.18359,-1.05469 2.07813,-1.57031 2.50391,-1.36719 2.50391,1.20312 0,5.25 -5.01953,11.67188 -9.88281,12.64453 -1.875,0.375 -2.22266,0.15625 -2.98828,-1.86718 -0.71875,-1.89844 -1.19922,-2.25 -2.83594,-2.05469 -2.06641,0.24609 -3.92188,2.30859 -2.94922,3.28125 0.3125,0.3125 1.16406,-0.21484 1.88672,-1.17578 l 1.3164,-1.7461 0.84766,1.58985 c 1.15234,2.15234 0.44141,3.01562 -2.47266,3.01562 -3.5664,0 -4.74609,-0.66406 -4.74609,-2.66797 0,-1.0039 -0.31641,-1.58593 -0.72656,-1.33593 -0.39844,0.25 -0.72656,1.08593 -0.72656,1.86328 0,1.93359 -1.21094,1.78125 -6.36329,-0.79297 -9.07812,-4.53906 -18.0625,-17.12891 -21.55078,-30.19141 -3.33203,-12.5039 -4.39843,-33.33203 -2.27343,-44.4414 1.76562,-9.24219 3.19531,-12.67969 6.66796,-16.05469 2.53907,-2.46875 3.15235,-3.5625 3.15235,-5.62109 0,-4.9375 -6.09375,-6.25391 -8.39063,-1.8125 -1.45703,2.8164 -1.33984,4.29296 0.4961,6.24609 l 1.5625,1.66016 -1.57422,3.78906 c -2.56641,6.17578 -3.78516,11.94531 -4.375,20.71875 -1.01953,15.21875 0.77734,30.25 5.0039,41.83594 1.97657,5.41406 2.00391,5.66796 0.67579,6.08984 -0.76172,0.24219 -1.66797,0.26562 -2.01172,0.0547 -0.34375,-0.21485 -1.89063,0.25781 -3.4336,1.04297 -1.54297,0.78906 -3.21093,1.42968 -3.69922,1.42968 -0.49218,0 -1.1289,0.375 -1.41015,0.83594 -0.57031,0.92188 0.33984,0.78516 7.18359,-1.07812 4.90235,-1.33204 5.61719,-1.16797 7.30469,1.68359 3.97656,6.73828 13.74219,14.74609 20.85937,17.10937 2.90625,0.96485 3.67969,1.59766 4.29297,3.5 0.91797,2.85938 5.15625,28.01563 5.15625,30.61329 v 1.89062 h -8.36328 c -4.60156,0 -8.36719,-0.24609 -8.37109,-0.54687 -0.004,-0.30079 -0.31641,-3.25 -0.69531,-6.55079 -0.9375,-8.13281 -2.82422,-12.26562 -6.26563,-13.70312 l -2.65625,-1.10938 1.52344,-1.625 c 2.22656,-2.37109 3.20703,-5.66406 2.35547,-7.91015 -0.51953,-1.35938 -2.45703,-2.73438 -7.11328,-5.03516 -7.92579,-3.91406 -11.16016,-7.14062 -16,-15.95312 -6.97657,-12.69922 -10.12891,-24.49219 -10.92188,-40.85157 l -0.44922,-9.27343 2.11328,-0.0859 c 1.22657,-0.0469 1.57813,-0.22266 0.83594,-0.41406 -0.9375,-0.2461 -1.29297,-1.13282 -1.34766,-3.3711 l -0.0742,-3.03906 -0.89454,2.91016 c -0.79687,2.58203 -1.17187,2.92968 -3.3789,3.09765 -4.22266,0.32422 -4.63672,-0.38281 -3.57031,-6.10937 1.15234,-6.19922 3.59375,-13.82031 6.53515,-20.39453 1.74219,-3.89844 2.72656,-5.21094 4.36719,-5.82813 2.42969,-0.91797 3.59766,-3.97265 2.17578,-5.6875 -2.1875,-2.64062 -5.67578,-0.17969 -5.6875,4.00781 -0.004,1.40235 -1.15234,5.04688 -2.55469,8.10547 -6.92578,15.09375 -9.40234,33.70313 -6.69922,50.34766 1.47266,9.08594 2.94532,13.31641 8.3711,24.10156 4.17187,8.28516 5.0039,9.48438 6.71094,9.6836 2.79687,0.32031 4.0664,-2.17188 2.39843,-4.71094 -0.95703,-1.46485 -1.65625,-1.77735 -3.39453,-1.52344 -1.94531,0.28516 -2.42187,-0.0508 -4.29297,-3.01953 -5.55468,-8.80859 -8.35547,-20.33594 -9.14453,-37.63281 l -0.47265,-10.4375 h 6.66796 l 0.38672,3.82031 c 0.21094,2.09766 0.5586,7.60156 0.77344,12.23047 0.22266,4.76172 1.02734,10.90625 1.85938,14.15625 1.83984,7.1914 8.14453,20.40234 13.17578,27.60937 l 3.83203,5.49219 -1.59766,1.11719 c -0.8789,0.61719 -1.59765,1.79297 -1.59765,2.61719 0,1.43359 -0.11719,1.41015 -2.54297,-0.44141 -1.40235,-1.06641 -2.54688,-1.75781 -2.54688,-1.53125 0,0.22656 1.48047,2.23047 3.29297,4.45703 3.75781,4.61328 3.49219,2.80469 3.55859,24.08984 0.0274,8.55469 0.32422,15.14844 0.67188,14.80079 0.33984,-0.33985 0.83203,-7.71875 1.09375,-16.39844 l 0.47656,-15.77735 3.26953,2.60547 c 1.80078,1.42969 5.07422,3.125 7.27344,3.76563 5.04297,1.46484 6.19922,2.51172 7.21094,6.52734 1.16015,4.60938 1.24609,21.39453 0.11719,23.5 -1.14844,2.14844 -4.42188,3.5 -10.00782,4.13281 -4.23437,0.48047 -4.46484,0.42188 -4.96484,-1.21875 -1.47266,-4.8164 -5.55859,-5.70312 -8.77344,-1.90625 -1.88281,2.22657 -1.97265,2.25782 -1.54687,0.54297 3.08203,-12.47656 4.03515,-32.92187 1.76953,-38.04687 -0.67578,-1.52735 -4.46485,-7.7461 -8.42578,-13.82031 -3.96094,-6.07422 -8.01953,-12.6836 -9.01953,-14.6836 -12.8125,-25.64453 -10.72657,-62.82031 4.8789,-86.94531 15.29297,-23.64062 44.36328,-35.996094 76.84766,-32.660156 z m -5.35156,7.710936 c 0.5,0.20313 1.32031,0.20313 1.82031,0 0.5,-0.20312 0.0898,-0.36719 -0.91016,-0.36719 -1,0 -1.41015,0.16407 -0.91015,0.36719 z m 3.68359,0.74219 c 0.52344,0.21094 1.15234,0.18359 1.39453,-0.0586 0.23828,-0.23829 -0.1875,-0.41016 -0.95703,-0.37891 -0.84766,0.0352 -1.01953,0.20703 -0.4375,0.4375 z m 4.36328,0.72656 c 0.52344,0.21094 1.15234,0.1836 1.39453,-0.0547 0.24219,-0.24218 -0.1875,-0.41406 -0.95703,-0.38281 -0.84375,0.0352 -1.01953,0.20703 -0.4375,0.4375 z m -40.73047,11.64063 c 0.52344,0.20703 1.14844,0.18359 1.39063,-0.0586 0.24218,-0.24218 -0.1875,-0.41406 -0.95313,-0.38281 -0.84765,0.0352 -1.01953,0.20703 -0.4375,0.44141 z m -5.42969,0.95312 c -1.59375,0.64063 -3,2.21094 -1.93359,2.15625 0.32422,-0.0195 1.73438,-0.66015 3.13281,-1.42578 2.5586,-1.39844 1.72266,-1.91016 -1.19922,-0.73047 z m 96.27344,5.32813 c 7.40625,6.17187 15.22656,14.41015 19.10938,20.13281 4.08593,6.01953 7.52343,12.37109 6.98437,12.91015 -0.26172,0.26172 -2.97656,0.49219 -6.03515,0.51172 l -5.55469,0.0352 -1.71094,-4.36328 c -2.68359,-6.83594 -3.15625,-7.85156 -3.51562,-7.49219 -0.1836,0.18359 0.48046,2.73828 1.48046,5.67578 1,2.9375 1.81641,5.46875 1.81641,5.6211 0,0.15234 -1.36328,0.17578 -3.02734,0.0547 l -3.03125,-0.22265 -2.71485,-10.54688 c -1.48828,-5.80078 -3.39062,-12.26172 -4.22656,-14.35547 -0.95703,-2.40625 -1.35547,-4.58984 -1.08594,-5.9414 0.42578,-2.13281 0.42188,-2.13672 -2.5625,-1.73438 -2.10547,0.28125 -2.98828,0.13672 -2.98828,-0.5 0,-0.51953 0.48438,-0.71484 1.14453,-0.46093 0.8125,0.30859 1.07032,0.0703 0.89844,-0.83204 -0.34375,-1.79296 -2.21094,-1.57812 -3.17969,0.35938 -0.9375,1.88672 -1.77343,1.41797 -1.77343,-0.98828 0,-1.46485 1.58593,-3.10156 3.0625,-3.16797 0.28515,-0.0117 3.39453,2.375 6.91015,5.30469 z m -107.1875,0.41797 c -7.61719,5.34765 -15.10156,14.23437 -18.11328,21.49999 -1.07812,2.60157 -1.08203,2.78516 -0.0312,1.91016 0.64063,-0.53125 1.16406,-1.27344 1.16406,-1.65625 0,-0.38281 1.5,-3.01562 3.33594,-5.85156 4.05078,-6.26172 10.23047,-12.57031 15.80078,-16.13281 2.27735,-1.45703 4.13672,-2.80078 4.13672,-2.98828 0,-0.89063 -1.62891,-0.0586 -6.29297,3.21875 z m 5.92188,1.13281 c -1.39453,2.17968 -2.53516,4.38281 -2.53516,4.89062 0,1.04688 1.0625,-0.40625 3.95703,-5.40234 2.74219,-4.74219 1.69922,-4.36328 -1.42187,0.51172 z m 93.85937,0.98437 c -0.22656,0.22657 -0.8125,0 -1.30469,-0.49609 -0.71484,-0.71875 -0.6289,-0.80078 0.40625,-0.40625 0.71875,0.27344 1.1211,0.67969 0.89844,0.90234 z M 301,133.375 c 0.27344,1.83594 -1.62109,2.69141 -2.80078,1.26562 -0.67578,-0.8164 -0.66406,-1.29687 0.0547,-2.16406 1.18359,-1.42578 2.46484,-1.00781 2.74609,0.89844 z m -2.03906,0.21875 c 0,0.39844 0.32812,0.72656 0.72656,0.72656 0.40234,0 0.73047,-0.32812 0.73047,-0.72656 0,-0.40234 -0.32813,-0.72656 -0.73047,-0.72656 -0.39844,0 -0.72656,0.32422 -0.72656,0.72656 z m 23.73047,1.86328 c 2.12109,3.19531 -3.03516,7.375 -5.29297,4.28906 -0.7461,-1.01953 -0.72266,-1.63281 0.125,-3.27343 1.625,-3.14063 3.51172,-3.51172 5.16797,-1.01563 z m -3.36329,2.13672 c 0,1.13281 0.41016,1.81641 1.08985,1.81641 0.67969,0 1.08984,-0.6836 1.08984,-1.81641 0,-1.13281 -0.41015,-1.82031 -1.08984,-1.82031 -0.67969,0 -1.08985,0.6875 -1.08985,1.82031 z m -21.03515,17.51562 c 0.0351,0.84766 0.20703,1.01954 0.4375,0.44141 0.21094,-0.52734 0.18359,-1.15234 -0.0586,-1.39453 -0.23828,-0.24219 -0.41015,0.1875 -0.3789,0.95312 z m -0.96875,2.17579 c -0.29688,0.30468 -0.53516,1.5625 -0.52344,2.79687 0.0195,1.89844 0.14063,2.04297 0.77734,0.94922 0.83204,-1.42969 0.61719,-4.62891 -0.2539,-3.74609 z m 144.14062,8.1289 c 0.92969,3.10156 1.85157,6.21094 2.05078,6.91016 0.3125,1.10156 -0.17968,1.27344 -3.66406,1.27344 h -4.02344 l -0.82421,-3.82032 c -0.45313,-2.09765 -1.01563,-5.20703 -1.25,-6.91015 l -0.42969,-3.08985 h 6.45312 z m -141.41015,3.82031 c -0.28516,0.45704 1.25,0.70704 4.13672,0.67579 3.23828,-0.0352 4.16015,-0.23438 3.13281,-0.67579 -2.03125,-0.875 -6.73047,-0.875 -7.26953,0 z m 136.55859,7.77344 c 0.70313,0.1836 1.84766,0.1836 2.54688,0 0.69921,-0.18359 0.1289,-0.33203 -1.27344,-0.33203 -1.39844,0 -1.97266,0.14844 -1.27344,0.33203 z m 17.73828,1.34766 c 1.08985,1.09375 1.67578,2.3125 1.42188,2.97265 -0.23828,0.61329 -0.42969,1.375 -0.42969,1.69141 0,0.31641 -5.89063,0.53125 -13.08984,0.48438 -12.91016,-0.0859 -13.08594,-0.10938 -13.08985,-1.66407 -0.004,-0.875 0.88281,-2.23828 1.9961,-3.0664 2.40234,-1.79297 0.64843,-2.14844 -1.87891,-0.37891 -1.28516,0.89844 -1.60547,1.73047 -1.43359,3.69531 l 0.21875,2.53516 14.18359,0.12109 14.18359,0.125 0.23047,-2.79687 c 0.23828,-2.89063 -1.30859,-5.56641 -3.21875,-5.56641 -0.53515,0 -0.14844,0.79688 0.90625,1.84766 z m 6.58594,1.60547 c -0.18359,0.70312 -0.33203,0.1289 -0.33203,-1.27344 0,-1.39844 0.14844,-1.97266 0.33203,-1.26953 0.18359,0.69922 0.18359,1.84375 0,2.54297 z m -15.91406,-2.23047 c 0.52734,0.21094 1.15234,0.18359 1.39453,-0.0586 0.24219,-0.23828 -0.1875,-0.41015 -0.95313,-0.3789 -0.84765,0.0352 -1.01953,0.20703 -0.4414,0.4375 z m -96.28907,4.21484 c -0.77343,0.58594 -1.07421,1.06641 -0.67578,1.07422 1.08203,0.0156 2.92969,-1.28125 2.47266,-1.73828 -0.21875,-0.21875 -1.02734,0.082 -1.79688,0.66406 z m 15.75,2.76953 c 0.16797,0.11328 0.95704,0.6836 1.75782,1.27344 1.34765,0.98438 1.3789,0.96875 0.45703,-0.20703 -0.55078,-0.69922 -1.33985,-1.27344 -1.75781,-1.27344 -0.41797,0 -0.625,0.0937 -0.45704,0.20703 z m 74.85938,10.44141 c -2.60156,1.01562 -6.30469,2.32812 -8.23047,2.91406 -1.92578,0.58985 -3.37891,1.4336 -3.23047,1.87891 0.30078,0.90234 6.92188,4.48047 12.64844,6.83203 l 3.73828,1.53516 0.90234,5.37109 c 1.17188,6.96875 2.34375,9.71484 1.82422,4.27734 -0.21093,-2.19922 -0.58203,-5.20312 -0.83203,-6.67578 -0.4375,-2.60937 -0.39062,-2.67969 2,-2.90625 2.07813,-0.19922 2.48828,-0.54687 2.6875,-2.27734 0.19922,-1.74219 0.51953,-2.01172 2.17969,-1.82031 1.58594,0.18359 2.45312,1.17187 4.65234,5.3164 3.29688,6.20313 3.56641,4.76563 0.33985,-1.80469 -2.06641,-4.21484 -2.60938,-4.78515 -5.0586,-5.35156 l -2.74218,-0.63281 0.46484,-3.48828 c 0.40234,-3.04297 0.26953,-3.59375 -1.03125,-4.28906 -2.27344,-1.21875 -5.12109,-0.91016 -10.3125,1.12109 z m 9.69531,0.0195 c 0.26563,0.26563 -1.19922,1.07422 -3.2539,1.80078 -4.53516,1.59375 -4.98047,1.98047 -3.34375,2.89844 0.86718,0.48437 1.26562,1.60547 1.26562,3.57031 v 2.86328 l -3.82031,-1.5039 c -2.09766,-0.82422 -4.35547,-1.98438 -5.01172,-2.57422 -0.65625,-0.59375 -2.06641,-1.3086 -3.13281,-1.59375 -1.61719,-0.4336 -0.52735,-0.95313 6.65234,-3.16406 9.375,-2.89063 9.93359,-3.01172 10.64453,-2.29688 z m -102.73828,2.42578 c 0.76563,0 1.39453,0.30469 1.39453,0.6836 0,1.34765 -3.30859,2.61718 -3.98437,1.52734 -0.19141,-0.3125 -1.66797,-0.41797 -3.27344,-0.23047 -1.89844,0.21875 -2.92578,0.0469 -2.92578,-0.49219 0,-0.45312 0.41015,-0.77343 0.91015,-0.70703 3.23438,0.41797 5.64063,-0.14062 5.69532,-1.32812 0.0312,-0.76172 0.20312,-0.90625 0.42187,-0.36328 0.20313,0.5 0.9961,0.91015 1.76172,0.91015 z m 100.89844,4.125 c -0.12891,2.3711 -0.58985,4.2461 -1.08594,4.41016 -1.25,0.41015 -2.03516,-4.62891 -1.05859,-6.77344 1.41406,-3.10156 2.375,-2.04297 2.14453,2.36328 z m -94.41406,-2.84375 c -3.79297,1.25391 -5.01563,6.39453 -2.01954,8.4961 2.20313,1.54296 4.34375,1.42187 6.2461,-0.35157 2.04687,-1.90625 2.03125,-4.41797 -0.043,-6.28125 -2.19531,-1.97656 -2.89453,-2.28906 -4.18359,-1.86328 z m 3.35937,2.7461 c 1.625,2.48046 0.41797,5.42578 -2.22656,5.42578 -3.26172,0 -4.02735,-4.11719 -1.17578,-6.33985 1.625,-1.26953 2.04687,-1.15625 3.40234,0.91407 z m -3.57422,0.0664 c -1.02344,1.02344 -0.46875,1.72266 1.36719,1.72266 1.17969,0 1.76562,-0.33594 1.57812,-0.90625 -0.35156,-1.05469 -2.19921,-1.5625 -2.94531,-0.81641 z m 0.21485,3.54297 c 0,0.75 0.47656,1.10547 1.27343,0.95313 1.53516,-0.29688 1.4375,-1.58594 -0.14453,-1.91407 -0.65625,-0.14062 -1.1289,0.26172 -1.1289,0.96094 z m 21.15234,3.69531 c 0.0352,0.84766 0.20703,1.01953 0.4375,0.44141 0.21094,-0.52344 0.1875,-1.15234 -0.0547,-1.39453 -0.24219,-0.24219 -0.41406,0.1875 -0.38281,0.95312 z m 87.22656,7.42188 c 0,0.36328 0.69922,1.28125 1.5586,2.04297 1.55078,1.3789 1.55468,1.375 0.72265,-0.21094 -0.92578,-1.76563 -2.28125,-2.85547 -2.28125,-1.83203 z m -57.46094,3.33984 c 1,1.12891 3.86329,3.6836 6.36329,5.67969 4.15234,3.3125 4.54687,3.86719 4.54687,6.41016 0,2.22656 0.45703,3.16406 2.28906,4.71093 1.9336,1.625 2.73047,1.85157 5.09375,1.45313 2.1875,-0.36719 2.80078,-0.23828 2.80078,0.59375 0,0.58594 0.50782,1.48828 1.13282,2.00781 0.62109,0.51563 3.4414,4.01172 6.26172,7.76563 2.82421,3.7539 5.29296,6.66406 5.49218,6.46484 0.19532,-0.19531 -1.98437,-3.57031 -4.85156,-7.49609 -5.80859,-7.95313 -8.375,-11.86329 -7.78906,-11.86329 0.21875,0 3.11328,3.81641 6.4375,8.47657 6.33203,8.8789 11.41797,14.95312 11.46875,13.69531 0.0156,-0.40625 -1.32813,-2.37109 -2.98828,-4.36328 -3.8711,-4.64453 -14.4375,-20.5586 -14.4375,-21.74219 0,-1.1875 -2.85938,-3.77344 -4.82813,-4.36719 -0.85156,-0.25781 -2.38281,-0.0937 -3.39844,0.3711 -1.69921,0.77343 -2.29687,0.47656 -7.53906,-3.74219 -7.38281,-5.94922 -8.2539,-6.53125 -6.05469,-4.05469 z m 60.3711,1.09375 c 0,0.34766 0.48828,1.04297 1.08984,1.54297 1.1836,0.98047 1.33203,0.74609 0.64844,-1.03125 -0.46875,-1.21875 -1.73828,-1.59375 -1.73828,-0.51172 z m -161.47656,1.39453 c 0,0.32032 -0.39063,0.97657 -0.8711,1.45703 -0.67969,0.67969 -0.50781,0.8711 0.76953,0.8711 0.91016,0 1.44141,0.32422 1.19141,0.73047 -1.26563,2.04687 -3.91406,-0.19141 -3.00781,-2.54688 0.43359,-1.13281 1.91797,-1.52734 1.91797,-0.51172 z m 144.74609,2.61328 c 0,1.79297 1.96875,13.11329 2.58984,14.91407 0.19532,0.55468 0.52344,0.83984 0.73438,0.63281 0.20703,-0.21094 -0.125,-3.52734 -0.7461,-7.37109 -1.41406,-8.78907 -1.43359,-8.45704 0.51172,-8.46875 1.32422,-0.0117 1.42969,-0.14844 0.54688,-0.71875 -2.01172,-1.30079 -3.63672,-0.84766 -3.63672,1.01171 z m -25.83984,4.9336 c 2.17187,0.98828 3.125,3.77734 1.82812,5.33984 -1.07812,1.29688 -4.44922,1.42188 -5.66406,0.20703 -1.15235,-1.14843 -1.125,-5.44922 0.0351,-5.91797 1.42579,-0.57421 1.8086,-0.53906 3.80079,0.3711 z m -0.70313,2.04297 c -0.53516,0.87109 0.14453,2.19531 1.12891,2.19531 0.88281,0 0.89062,-1.96875 0.008,-2.51563 -0.375,-0.23046 -0.88281,-0.0859 -1.13672,0.32032 z m -2.55078,1.42578 c 0,0.375 0.32422,0.88672 0.72656,1.13281 0.39844,0.24609 0.72656,-0.0625 0.72656,-0.68359 0,-0.625 -0.32812,-1.13282 -0.72656,-1.13282 -0.40234,0 -0.72656,0.30469 -0.72656,0.6836 z m -93.53906,5.49219 c 1.76562,1.03515 3.42578,2.4375 3.68359,3.10937 0.34375,0.89453 -0.004,0.77734 -1.28906,-0.42578 l -1.75781,-1.65234 -0.40235,3 c -0.22265,1.64843 -0.92187,3.57031 -1.55469,4.26953 -2.41406,2.66797 -0.73828,3.07031 2.73438,0.66015 l 2.29297,-1.59375 -1.36719,1.57422 c -2.71484,3.1211 -4.64453,2.82031 -10.11719,-1.5664 -1.51953,-1.21485 -3.45703,-3.33594 -4.3125,-4.71485 l -1.54687,-2.50781 2.28906,-2.04688 c 2.22656,-1.98828 2.375,-2.01953 5.21094,-1.01953 1.60547,0.56641 4.36719,1.87891 6.13672,2.91407 z m 143.64062,1.02734 c 1.35156,0.85547 -0.36719,1.76172 -6.21875,3.28125 -6.10156,1.57812 -7.01172,1.47266 -8.46484,-0.98828 l -1.26563,-2.14063 3.10938,-0.27734 c 6.16797,-0.55469 11.85547,-0.5 12.83984,0.125 z m -150.69531,0.52734 c -0.88281,0.88282 -0.55469,2.96094 0.61719,3.9375 1.64062,1.35938 3.9414,-0.92968 2.78125,-2.77343 -0.86719,-1.375 -2.59375,-1.96875 -3.39844,-1.16407 z m 132.65234,2.14844 c 0.0352,0.84766 0.20703,1.01953 0.44141,0.4375 0.21094,-0.52344 0.18359,-1.15234 -0.0586,-1.39453 -0.24219,-0.23828 -0.41407,0.19141 -0.38282,0.95703 z m -123.45703,2.87891 c -0.23828,0.61718 -0.58594,0.96875 -0.77734,0.77734 -0.19141,-0.19141 -0.12891,-0.69531 0.13281,-1.12109 0.71875,-1.16407 1.13672,-0.9375 0.64453,0.34375 z m -6.57031,21.0625 c 0.004,2.40234 0.14062,3.29297 0.30078,1.98828 0.16016,-1.3086 0.16016,-3.27344 -0.008,-4.36328 -0.16406,-1.09375 -0.29688,-0.0234 -0.29297,2.375 z m 137.07031,1.27343 c 1.14063,1.41407 1.69922,5.16016 0.94922,6.33204 -0.92578,1.4375 -3.27734,0.14843 -7.40625,-4.05469 l -3.125,-3.1875 h 4.42578 c 2.66406,0 4.71875,0.36328 5.15625,0.91015 z m -103.82031,8.36329 c 0.0312,4.20703 2.83984,8.44921 10.48437,15.82031 7.03516,6.78906 7.63672,7.59765 9.01172,12.08594 1.625,5.3164 3.375,16.00781 2.85938,17.50781 -0.41797,1.21875 -5.12891,-8.04297 -6.58594,-12.95313 -3.03125,-10.20312 -5.125,-11.1914 -29.24219,-13.79687 -6.42968,-0.69141 -15.91797,-1.125 -23.09375,-1.05078 -7.7539,0.082 -12.18359,-0.14063 -12.18359,-0.60157 0,-0.40234 0.33203,-1.60546 0.73828,-2.67187 0.50781,-1.33594 1.08984,-1.80078 1.88281,-1.5 1.73047,0.66406 2.6875,-0.24219 1.61719,-1.53516 -0.77344,-0.92968 -0.57422,-1.39062 1.23828,-2.83984 1.1875,-0.94922 2.71094,-1.73047 3.38281,-1.73047 1.47657,-0.008 2.33594,2.31641 1.64844,4.47266 -0.48828,1.54687 -0.40234,1.5625 5.51172,1.10547 C 331,287.5 335.32812,284.23047 335.32812,277.31641 v -3.34375 h 18.1836 z m 59.8125,10.46484 c 1.27734,1.71484 1.32031,2.13672 0.42969,4 -0.8086,1.69141 -1.46875,2.08203 -3.47657,2.08203 -1.55468,0 -2.60937,-0.40234 -2.83593,-1.08984 -0.3086,-0.94141 -0.19141,-0.95313 0.87109,-0.0742 1.98047,1.63281 4.98828,-0.0703 4.69141,-2.66016 -0.19532,-1.67187 -0.6211,-2.03125 -2.67188,-2.22656 -1.77344,-0.17188 -2.35156,0.0273 -2.11328,0.72656 0.17969,0.52735 1.03125,0.85938 1.89453,0.73438 1.17578,-0.17188 1.57031,0.14843 1.57031,1.27343 0,1.5625 -0.71093,1.77735 -3.45703,1.04297 -3.23437,-0.86718 -1.16797,-6.44922 2.19922,-5.94531 0.8125,0.12109 2.11719,1.08203 2.89844,2.13672 z m -101.10938,-1.03906 c -1.25781,0.46093 -1.14453,2.39453 0.14063,2.39453 1.32422,0 2.22656,-1.39453 1.39844,-2.15235 -0.34766,-0.3164 -1.03907,-0.42578 -1.53907,-0.24218 z m 15.21094,4.57812 c 0,1 0.16406,1.41016 0.36328,0.90625 0.20313,-0.49609 0.20313,-1.3164 0,-1.8164 -0.19922,-0.5 -0.36328,-0.0899 -0.36328,0.91015 z m 118.53906,2.73047 c -0.48046,0.89844 -2.58203,2.50391 -4.66796,3.56641 -2.08594,1.0625 -3.39063,2.0664 -2.90235,2.23437 1.11328,0.38281 8.2461,-3.4414 8.71875,-4.66797 0.70703,-1.83593 -0.26172,-2.78906 -1.14844,-1.13281 z m -119.01953,3.36328 c 23.09766,0.53125 34.22266,2.24219 37.78516,5.80078 0.96484,0.96875 2.14062,3.73047 2.89453,6.80469 0.84375,3.44922 2.58203,7.32422 5.20313,11.60547 3.27734,5.35156 3.72265,6.46094 2.66015,6.63672 -0.69922,0.11328 -8.43359,-1.9375 -17.18359,-4.5586 -8.75391,-2.62109 -19.71485,-5.44921 -24.36328,-6.28125 -8.2461,-1.47265 -9.50391,-2.03906 -9.53125,-4.28125 -0.0312,-2.25 -2.88672,-5.67187 -5.98828,-7.17578 -2.59766,-1.25781 -4.54688,-1.55468 -10.22266,-1.55468 h -7.01172 l 1.07031,-3.08985 c 0.58985,-1.69922 1.23828,-3.54297 1.4375,-4.09375 0.26953,-0.74219 1.25782,-0.89453 3.80469,-0.58984 1.89453,0.22265 10.64453,0.57422 19.44531,0.77734 z m 59.28125,2.41797 c -4.32031,1.58203 -7.42968,7.51953 -7.73437,14.76172 l -0.22656,5.45703 0.98437,-5.51953 c 1.28906,-7.24219 1.65234,-8.27734 3.77734,-10.80469 1.73829,-2.0664 5.01954,-3.18359 11.5625,-3.9375 1.19922,-0.13672 0.0547,-0.27344 -2.54687,-0.30078 -2.59766,-0.0312 -5.21875,0.125 -5.81641,0.34375 z m 59.33985,3.58984 c -0.38282,1 -0.27735,1.04688 0.64843,0.27735 1.26172,-1.04688 1.39454,-1.46875 0.46094,-1.46875 -0.35937,0 -0.85547,0.53515 -1.10937,1.1914 z m -126.85157,4.38672 c 1.59766,0.92969 2.72266,2.35157 3.33594,4.20313 0.50781,1.53515 0.78125,2.9414 0.60156,3.11719 -0.5,0.5 -22.02343,-1.39454 -23.05468,-2.03516 -0.73047,-0.44922 -0.74219,-1.16797 -0.0469,-3.48438 1.04688,-3.48828 1.73828,-3.71484 10.4375,-3.41796 4.625,0.15625 6.96485,0.58984 8.72656,1.61718 z m -7.55078,8.24219 c 10.81641,0.83984 11.80078,1.22656 9.25,3.625 -1.79297,1.67969 -2.15234,1.72266 -12.89843,1.56641 -6.07813,-0.0859 -11.19141,-0.29297 -11.35547,-0.45703 -0.16797,-0.16797 -0.0859,-1.46485 0.18359,-2.88282 0.56641,-3.01953 0.27344,-2.98047 14.82031,-1.85156 z m -4.19922,14.14453 c 3.8125,0.57422 9.37891,1.91016 12.36719,2.96485 5.14453,1.8164 21.07031,10.28906 21.07031,11.20703 0,0.83593 -10.30859,13.22265 -10.82031,13 -0.28515,-0.1211 -4.84375,-1.97657 -10.13281,-4.1211 -8.45703,-3.43359 -9.65625,-4.1289 -10,-5.82031 -0.66016,-3.27344 -2.08203,-5.45312 -4.70703,-7.23828 -2.22656,-1.50781 -3.17578,-1.67578 -7.98047,-1.42188 -3.05078,0.16407 -6.57813,0.83204 -8.00391,1.51954 -2.5039,1.21093 -2.51172,1.22265 -0.36328,0.82421 5.76563,-1.0664 10.08985,-1.17187 13.13281,-0.32031 3.48047,0.97656 6.14454,3.57422 6.14454,6 0,1.2461 -0.33204,1.37891 -2.36719,0.96875 -9.70313,-1.96094 -14.38281,-2.03125 -20.05078,-0.29687 -3.10938,0.95312 -3.54297,0.43359 -1.75782,-2.09375 0.79688,-1.1211 2.83204,-4.82422 4.52735,-8.22266 1.69922,-3.40234 3.41406,-6.59375 3.8164,-7.09375 0.96875,-1.19922 6.54688,-1.14844 15.125,0.14453 z m 75.5,1.76172 c 0.67579,0.42969 1.16016,3.76172 1.61719,11.08203 0.35547,5.75781 0.82422,11.69922 1.04297,13.19922 0.36328,2.54688 0.26563,2.72656 -1.48828,2.72656 -1.82813,0 -1.87109,0.11719 -1.76953,4.54688 0.14062,5.91797 -0.008,6.53906 -0.83985,3.45312 -0.375,-1.39843 -0.82421,-7.32812 -1,-13.17578 -0.17578,-5.84765 -0.46093,-11.08594 -0.63671,-11.64062 -0.17579,-0.55078 -0.51954,-3.21485 -0.76172,-5.91407 -0.42969,-4.75781 -0.39453,-4.91015 1.21093,-4.89843 0.91407,0.004 2.09375,0.28515 2.625,0.62109 z m -81.19531,16.90234 c 2.1211,0.44141 4.11719,1.05079 4.44141,1.34766 0.32031,0.30078 -1.40235,2.26563 -3.82813,4.36719 l -4.41015,3.82031 -9.9961,0.59766 c -5.73828,0.34765 -11.35547,1.08984 -13.19531,1.75 -1.76172,0.6289 -3.32031,1.03125 -3.46484,0.88672 -0.51172,-0.51172 5.6914,-6.98829 9.0625,-9.46094 1.89062,-1.39063 4.58203,-2.85547 5.97656,-3.25391 3.48437,-1 10.77344,-1.02344 15.41406,-0.0547 z m 17.85547,6.85547 c 4.50391,2.14063 8.18359,4.23047 8.18359,4.64844 0,0.41797 -0.89843,1.76172 -2,2.98438 l -2,2.22265 -4.36328,-1.51172 c -3.80078,-1.3164 -10.35937,-3.08984 -17.35547,-4.6875 l -2.08203,-0.47656 4.26563,-3.92578 c 3.08984,-2.84375 4.66015,-3.81641 5.71484,-3.53516 0.80078,0.21485 5.13672,2.14063 9.63672,4.28125 z M 331.375,359 c -0.51172,0.83203 1.65625,1.6875 2.67969,1.05469 0.46093,-0.28516 0.55859,-0.13282 0.24218,0.38281 -0.35937,0.57812 1.5625,1.83203 5.82032,3.79687 9.8164,4.53516 17.5664,9.26172 21.28515,12.98047 3.54297,3.54297 4.78125,5.36328 16.65625,24.46094 10.26563,16.51172 9.86719,15.19922 3.79297,12.51563 -5.625,-2.48438 -5.96094,-2.82032 -15.8164,-15.64844 -12.92969,-16.83594 -18.125,-21.4336 -33.2461,-29.39453 -3.80469,-2 -6.91406,-3.97657 -6.91406,-4.38672 0,-1.0586 4.33984,-6.41406 5.19531,-6.41406 0.39063,0 0.52735,0.29296 0.30469,0.65234 z m -26.42578,10.20703 c 9.58984,2.45313 17.52734,7.03516 36.66015,21.16797 7.14844,5.27344 17.44141,12.51562 22.8711,16.08984 9.01562,5.92969 10.32812,7.08203 15.04687,13.19532 2.84375,3.68359 7.82032,9.96875 11.0625,13.96875 6.33203,7.80859 14.56641,19.60156 14.56641,20.85937 0,0.42188 -0.89844,0.19531 -2,-0.5 -6.63281,-4.19141 -14.96094,-11.51562 -31.42969,-27.63672 -23.98437,-23.48047 -27.3164,-26.04297 -40.76172,-31.33594 -7.17578,-2.82421 -11.82422,-5.59765 -22.91015,-13.67578 -3.60157,-2.625 -8.34766,-5.72265 -10.54688,-6.88672 -3.89844,-2.0664 -12.00781,-4.46875 -15.08203,-4.46875 -0.83984,0 -2.12891,-0.23437 -2.85937,-0.52343 -2.23438,-0.88282 2.10156,-1.47657 11.46093,-1.57032 6.17969,-0.0625 9.89453,0.28907 13.92188,1.31641 z m 77.66015,2.24219 c 0,0.80469 0.29297,2.03515 0.65235,2.73047 0.35547,0.6914 1.74609,4.68359 3.08203,8.86718 2.32812,7.28907 8.40625,18.9336 11.58984,22.21485 3.25,3.34765 34.86328,52.44531 34.86328,54.14453 0,2.5 -2.60156,-0.99609 -10.55468,-14.19141 -10.17188,-16.87109 -20.07032,-31.58203 -25.42578,-37.76953 -5.98438,-6.92578 -7.40625,-9.10547 -9.69532,-14.91015 -3.15625,-8.00391 -6.52734,-22.55079 -5.22265,-22.55079 0.39062,0 0.71093,0.66016 0.71093,1.46485 z m -72.59375,16.13672 c -0.47656,0.48047 -0.87109,1.23437 -0.87109,1.67578 0,0.4375 -0.38281,1.17969 -0.84766,1.64844 -1.33593,1.33203 -2.8125,6.2539 -2.09765,6.96875 0.36719,0.36718 1.13672,-0.32422 1.8125,-1.625 0.64453,-1.2461 1.48828,-2.26563 1.8789,-2.26563 0.39063,0 0.70704,-0.66016 0.70704,-1.46484 0,-0.80469 0.40234,-2.10547 0.89453,-2.89063 1.10156,-1.76562 -0.0937,-3.42578 -1.47657,-2.04687 z m -32.1289,16.25 c -10.55078,2.96093 -18.4336,11.71875 -22.25781,24.73828 -0.86719,2.95312 -1.26563,6.75781 -1.2461,11.96484 0.043,11.60156 3.75391,21.69141 11,29.88672 3.04297,3.44922 10.73828,9.19531 11.41016,8.52734 0.21094,-0.21093 -1.82031,-2.14843 -4.51172,-4.30468 -6.03125,-4.83985 -11.91797,-13.23438 -14.08203,-20.08203 -2.14453,-6.78125 -2.60547,-15.8086 -1.1875,-23.28907 2.17578,-11.49218 7.90625,-19.86328 16.59375,-24.25 3.91406,-1.97265 4.80859,-2.1289 12.32031,-2.1289 7.53516,0 8.42578,0.15625 12.76563,2.22656 12.88671,6.15234 23.42968,20.07422 27.24609,35.98828 1.89844,7.91016 2.21875,20.45313 0.75391,29.27734 -1.02735,6.17579 -0.73047,8.47266 0.63281,4.88672 2.375,-6.23828 2.57422,-26.33593 0.34765,-34.88672 -3.51171,-13.47265 -12.0039,-26.04296 -22.08984,-32.68359 -9.17187,-6.03906 -19.38281,-8.20312 -27.69531,-5.87109 z m 38.92969,0.9375 c 0.38281,0.33203 2.82812,2.09765 5.4414,3.92187 2.61328,1.82813 7.8125,6.52344 11.55078,10.4336 11.78125,12.32421 15.89063,23.83203 16.60157,46.5 0.46093,14.66015 1.51953,15.34765 1.59765,1.04296 0.12891,-23.13671 -6.45703,-39.85156 -20.67969,-52.47656 -3.59375,-3.19531 -13.44921,-10.02344 -14.45703,-10.02344 -0.46484,0 -0.48437,0.22657 -0.0547,0.60157 z m 67.80468,12.40625 c 5.30078,2.70312 16.97266,16.42968 23.7461,27.92578 4.35937,7.39453 7.88281,14.40625 7.45703,14.83203 -0.1875,0.1875 -2.00391,-0.50391 -4.03906,-1.53516 -2.76563,-1.40234 -4.08985,-2.64843 -5.25782,-4.95703 -2.60156,-5.1289 -9.55468,-14.83203 -19.16015,-26.72656 -5.00391,-6.19922 -9.10547,-11.51172 -9.11328,-11.80078 -0.0117,-0.61719 2.42968,0.25 6.36718,2.26172 z m 35.24219,12.76562 c 6,7.46094 7.71484,10.23828 6.84766,11.10156 -0.78907,0.78907 -2.65235,-1.5625 -10.1875,-12.87109 -7.28125,-10.92578 -6.57422,-10.55078 3.33984,1.76953 z m -19.5625,-5.96484 c 2.875,1.23828 4.13281,2.4414 6.97266,6.67187 5.95703,8.86719 18.25,29.96485 18.25,31.31641 0,0.21484 -1.30078,0.39062 -2.89063,0.39062 -3.44922,0 -3.98047,-0.79687 -6.89453,-10.36328 -2.01172,-6.60156 -3.08594,-8.30859 -2.34375,-3.72265 0.37109,2.26953 -0.29687,1.52343 -4.71094,-5.27344 -2.82812,-4.35156 -7.60937,-10.99219 -10.625,-14.75 -6.03906,-7.52734 -5.91015,-7.77344 2.24219,-4.26953 z m 31.98438,22.92187 c 3.57031,5.41407 5.60156,9.16016 5.60156,10.33203 0,1.34766 -2.10156,0.8125 -2.9375,-0.75 -0.75781,-1.41406 -0.70313,-1.44921 0.8789,-0.60546 1.125,0.60156 0.46485,-0.52344 -1.99218,-3.40235 -6.47657,-7.57812 -8.08985,-10.48047 -5.82422,-10.48047 0.57031,0 2.49219,2.20703 4.27344,4.90625 z m 0,0"
       fill-opacity="1"
       fill-rule="evenodd"
       id="path6" />
  </g>
  <g
     mask="url(#ee3c3a9eb3)"
     id="g11"
     transform="translate(-229.22295,-92.323237)">
    <g
       transform="translate(459,124)"
       id="g10">
      <g
         clip-path="url(#134d853148)"
         id="g9">
        <g
           clip-path="url(#f4c6ff6e38)"
           id="g8">
          <g
             clip-path="url(#855c69ad0e)"
             id="g7">
            <path
               fill="#d9d9d9"
               d="M 1.089844,150.57031 V 0.601562 H 132.12109 V 150.57031 Z m 0,0"
               fill-opacity="1"
               fill-rule="nonzero"
               id="path7" />
          </g>
        </g>
      </g>
    </g>
  </g>
  <path
     fill="#4e7896"
     d="m 420.65205,182.86035 -6.33594,16.02344 h 111.12891 l -6.33594,-16.02344 h -98.45703"
     fill-opacity="1"
     fill-rule="nonzero"
     id="path11" />
  <g
     clip-path="url(#097b39f34f)"
     id="g12"
     transform="translate(-229.22295,-92.323237)">
    <path
       fill="#4e7896"
       d="m 776.84766,307.32031 16.08984,29.03125 c 2.41797,4.35938 -0.73438,9.71875 -5.72656,9.71875 H 610.99609 c -4.99218,0 -8.14453,-5.35937 -5.72656,-9.71875 l 16.08594,-29.03125 h 155.49219"
       fill-opacity="1"
       fill-rule="nonzero"
       id="path12" />
  </g>
  <g
     clip-path="url(#63c4b9b475)"
     id="g13"
     transform="translate(-229.22295,-92.323237)">
    <path
       fill="#4e7896"
       d="m 768.58984,235.55078 h -10.95312 c -1.07813,0 -2.03516,-0.66016 -2.4336,-1.66016 l -4.4375,-11.26953 -8.21093,29.55078 c -0.29688,1.08204 -1.25782,1.85938 -2.375,1.91407 -0.0508,0 -0.0899,0 -0.14063,0 -1.0664,0 -2.03515,-0.64844 -2.43359,-1.65625 l -6.65235,-16.87891 h -14.92968 c -0.75,0 -1.46485,-0.32812 -1.96485,-0.89453 L 701.00391,219.76172 692,252.17187 c -0.29688,1.08204 -1.25781,1.85938 -2.375,1.91407 -1.125,0.0586 -2.16016,-0.60547 -2.57422,-1.65625 l -6.64453,-16.87891 h -9.17578 c -1.07813,0 -2.04297,-0.66016 -2.4336,-1.66016 l -4.44531,-11.26953 -8.20312,29.55078 c -0.29688,1.08204 -1.25782,1.85938 -2.38282,1.91407 -1.125,0.0586 -2.16015,-0.60547 -2.5664,-1.65625 l -6.65235,-16.87891 h -14.92968 c -1.44922,0 -2.61719,-1.16797 -2.61719,-2.61719 0,-1.44531 1.16797,-2.60937 2.61719,-2.60937 h 16.71484 c 1.06641,0 2.03125,0.65625 2.42578,1.65625 l 4.44141,11.26953 8.20312,-29.54688 c 0.30078,-1.08593 1.25782,-1.85937 2.38282,-1.91796 1.125,-0.0586 2.16015,0.60937 2.5664,1.66015 l 6.65235,16.87891 h 9.17968 c 1.07422,0 2.03907,0.65625 2.4336,1.65625 l 4.4414,11.26953 8.20313,-29.54688 c 0.25781,-0.92578 1,-1.63671 1.93359,-1.85156 0.9336,-0.21875 1.91797,0.10156 2.55078,0.82422 l 15.46094,17.64844 h 15.53125 c 1.07422,0 2.04297,0.65625 2.43359,1.65625 l 4.44141,11.26953 8.20313,-29.54688 c 0.30078,-1.08593 1.25781,-1.85937 2.38281,-1.91796 1.13281,-0.0586 2.15234,0.60937 2.5664,1.64843 l 6.65235,16.89063 h 9.17187 c 1.44922,0 2.61719,1.16406 2.61719,2.60937 0,1.44922 -1.16797,2.61719 -2.61719,2.61719 z M 638.44531,169.58984 h 22.16406 c 1.44141,0 2.60938,1.16797 2.60938,2.61719 0,1.44141 -1.16797,2.60938 -2.60938,2.60938 h -8.46875 v 25.13281 c 0,1.4414 -1.16796,2.60937 -2.61718,2.60937 -1.44141,0 -2.60938,-1.16797 -2.60938,-2.60937 v -25.13281 h -8.46875 c -1.4414,0 -2.60937,-1.16797 -2.60937,-2.60938 0,-1.44922 1.16797,-2.61719 2.60937,-2.61719 z m 34.47656,2.61719 c 0,-1.44922 1.16797,-2.61719 2.60938,-2.61719 h 16.40234 c 1.44141,0 2.60938,1.16797 2.60938,2.61719 0,1.44141 -1.16797,2.60938 -2.60938,2.60938 h -13.78515 v 8.64453 h 13.78515 c 1.44141,0 2.60938,1.16797 2.60938,2.61718 0,1.44141 -1.16797,2.60938 -2.60938,2.60938 h -13.78515 v 8.64453 h 13.78515 c 1.44141,0 2.60938,1.17578 2.60938,2.61719 0,1.4414 -1.16797,2.60937 -2.60938,2.60937 h -16.40234 c -1.44141,0 -2.60938,-1.16797 -2.60938,-2.60937 z m 42.77735,16.39844 c -3.31641,-0.92578 -8.88672,-3.94531 -8.88672,-9.46094 0,-5.26953 4.28516,-9.55469 9.55469,-9.55469 5.26562,0 9.55078,4.28516 9.55078,9.55469 0,1.44141 -1.17578,2.60547 -2.61719,2.60547 -1.44141,0 -2.61719,-1.16406 -2.61719,-2.60547 0,-2.38672 -1.93359,-4.32812 -4.3164,-4.32812 -2.38672,0 -4.32032,1.9414 -4.32032,4.32812 0,2.84766 4.97657,4.39844 5.02735,4.41406 3.25781,0.85938 8.84375,3.83594 8.84375,9.45313 0,5.26172 -4.28516,9.54687 -9.55078,9.54687 -5.26953,0 -9.55469,-4.28515 -9.55469,-9.54687 0,-1.44922 1.17578,-2.61719 2.61719,-2.61719 1.4414,0 2.61718,1.16797 2.61718,2.61719 0,2.38672 1.9336,4.32031 4.32032,4.32031 2.38281,0 4.3164,-1.93359 4.3164,-4.32031 0,-2.95703 -4.93359,-4.39063 -4.98437,-4.40625 z m 21.89844,-19.01563 h 22.16406 c 1.4414,0 2.60937,1.16797 2.60937,2.61719 0,1.44141 -1.16797,2.60938 -2.60937,2.60938 h -8.46875 v 25.13281 c 0,1.4414 -1.16797,2.60937 -2.60938,2.60937 -1.44922,0 -2.61718,-1.16797 -2.61718,-2.60937 v -25.13281 h -8.46875 c -1.44141,0 -2.60938,-1.16797 -2.60938,-2.60938 0,-1.44922 1.16797,-2.61719 2.60938,-2.61719 z m 40.18359,-36.91015 H 620.42187 c -7.60937,0 -13.76953,6.16797 -13.76953,13.77734 V 256.1875 c 0,7.60156 6.16016,13.76953 13.76953,13.76953 h 157.35938 c 7.61328,0 13.78125,-6.16797 13.78125,-13.76953 V 146.45703 c 0,-7.60937 -6.16797,-13.77734 -13.78125,-13.77734"
       fill-opacity="1"
       fill-rule="nonzero"
       id="path13" />
  </g>
</svg>
