<svg version="1.2" xmlns="http://www.w3.org/2000/svg" viewBox="0 0 272 274" width="272" height="274">
	<title>1-svg</title>
	<style>
		.s0 { fill: #1a87ef } 
		.s1 { fill: #ffffff } 
	</style>
	<path class="s0" d="m229.1 219.7c-8.7 1.3-15.8 7.7-17.9 16.3-3 12.1-15.6 19.2-27.5 15.4-8.4-2.7-17.6 0-23.1 6.8-8 9.7-22.4 10.6-31.5 2-6.4-6-15.8-7.6-23.8-3.9-11.3 5.3-24.7-0.1-29.2-11.8-3.1-8.3-11-13.7-19.8-13.9-12.5-0.1-22.2-10.9-21.1-23.3 0.7-8.8-4-17.2-11.9-21.1-11.1-5.6-15.2-19.5-8.9-30.2 4.5-7.6 3.9-17.2-1.5-24.1-7.6-9.9-5.3-24.2 5.1-31.1 7.3-4.9 10.9-13.8 9.1-22.4-2.7-12.3 5.6-24.1 18-25.9 8.7-1.2 15.8-7.6 17.9-16.2 2.9-12.1 15.6-19.2 27.4-15.4 8.4 2.7 17.6-0.1 23.2-6.9 7.9-9.6 22.4-10.5 31.4-2 6.4 6.1 15.9 7.6 23.9 3.9 11.3-5.2 24.7 0.2 29.2 11.9 3.1 8.2 11 13.7 19.8 13.8 12.4 0.2 22.2 10.9 21.1 23.4-0.7 8.8 4 17.1 11.8 21.1 11.2 5.5 15.3 19.4 9 30.2-4.5 7.6-3.9 17.1 1.5 24.1 7.6 9.9 5.3 24.2-5.1 31.1-7.3 4.9-10.9 13.8-9.1 22.4 2.6 12.2-5.6 24.1-18 25.8z"/>
	<path class="s1" d="m190.7 83.3l-78.2 78.2c-1.1 1.1-3 1.1-4.2 0l-22.8-22.8c-3.9-4-10.2-4-14.1 0-3.9 3.9-3.9 10.2 0 14.1l24.9 24.9 7.3 7.4c3.8 3.7 9.9 3.7 13.7 0l7.3-7.4 80.2-80.2c3.9-3.9 3.9-10.3 0-14.2-3.9-3.9-10.2-3.9-14.1 0z"/>
</svg>