<svg version="1.2" xmlns="http://www.w3.org/2000/svg" viewBox="0 0 133 130" width="133" height="130"><defs><clipPath clipPathUnits="userSpaceOnUse" id="cp1"><path d="m6.46 5.46h119.2v119.2h-119.2z"/></clipPath></defs><style>.a{fill:#1a87ef}</style><g clip-path="url(#cp1)"><path fill-rule="evenodd" class="a" d="m125.5 65c0 32.9-26.6 59.5-59.5 59.5-32.9 0-59.5-26.6-59.5-59.5 0-32.9 26.6-59.5 59.5-59.5 32.9 0 59.5 26.6 59.5 59.5zm-26-21.8c-3.5-3.5-9.1-3.5-12.6 0l-28.6 28.6-11.1-11.2c-3.5-3.4-9-3.4-12.5 0-3.5 3.5-3.5 9.1 0 12.6l17.4 17.4c1.6 1.7 3.9 2.7 6.2 2.7 2.4 0 4.7-1 6.4-2.7l34.8-34.8c3.5-3.5 3.5-9.1 0-12.6z"/></g><path  d="m99.5 55.8l-34.8 34.8c-1.7 1.7-4 2.7-6.4 2.7-2.3 0-4.6-1-6.2-2.7l-17.4-17.4c-3.5-3.4-3.5-9.1 0-12.6 3.5-3.4 9-3.4 12.5 0l11.1 11.2 28.6-28.6c3.5-3.5 9.1-3.5 12.6 0 3.5 3.5 3.5 9.1 0 12.6z"/></svg>