<svg version="1.2" xmlns="http://www.w3.org/2000/svg" viewBox="0 0 206 219" width="206" height="219">
	<title>6-svg</title>
	<defs>
		<clipPath clipPathUnits="userSpaceOnUse" id="cp1">
			<path d="m100 10.45h6v21.55h-6z"/>
		</clipPath>
		<clipPath clipPathUnits="userSpaceOnUse" id="cp2">
			<path d="m100 195h6v22.35h-6z"/>
		</clipPath>
		<clipPath clipPathUnits="userSpaceOnUse" id="cp3">
			<path d="m181 111h21.63v6h-21.63z"/>
		</clipPath>
		<clipPath clipPathUnits="userSpaceOnUse" id="cp4">
			<path d="m2.48 111h21.52v6h-21.52z"/>
		</clipPath>
	</defs>
	<style>
		.s0 { fill: #7c73c0 } 
	</style>
	<path id="Layer" class="s0" d="m102.7 45.1c-10.5 0-18.9 8.5-18.9 18.9 0 10.4 8.4 18.9 18.9 18.9 10.4 0 18.9-8.5 18.9-18.9 0-10.4-8.5-18.9-18.9-18.9z"/>
	<path id="Layer" class="s0" d="m152.5 105.9c-8.5-3.2-27-12.5-30.4-14.7-6.7-4.4-12.9-6.5-19.4-6.5-6.6 0-12.8 2.1-19.5 6.5-3.3 2.2-21.9 11.5-30.4 14.7-3.6 1.3-5.7 5.1-4.9 9 0.5 2.2 1.9 4.2 3.9 5.3 1.2 0.6 2.6 1 3.9 1q1.3 0 2.7-0.5l22.6-7.8c0.8-0.2 1.6 0.4 1.5 1.2-1.8 16.4-6.2 55.3-7.2 65.4-0.6 5.6 3.2 10.4 8.7 11 5 0.6 9.6-2.9 10.9-8.4 0.9-3.4 5.4-25 6.9-32 0.1-0.5 0.7-0.5 0.8 0 1.5 7 6 28.6 6.9 32 1.2 5.1 5.2 8.5 9.8 8.5q0.6 0 1.2-0.1c5.4-0.6 9.2-5.4 8.6-11-1-10.1-5.4-49.5-7.3-65.7-0.1-0.8 0.7-1.4 1.5-1.2l23.6 8.1q1.4 0.5 2.8 0.5c1.3 0 2.6-0.4 3.8-1 2-1.1 3.4-3.1 3.9-5.3 0.8-3.9-1.2-7.7-4.9-9z"/>
	<g id="Clip-Path" clip-path="url(#cp1)">
		<g id="Layer">
			<path id="Layer" class="s0" d="m102.7 32c-1.4 0-2.5-1.1-2.5-2.5v-16.3c0-1.3 1.1-2.4 2.5-2.4 1.4 0 2.5 1.1 2.5 2.4v16.3c0 1.4-1.1 2.5-2.5 2.5z"/>
		</g>
	</g>
	<g id="Clip-Path" clip-path="url(#cp2)">
		<g id="Layer">
			<path id="Layer" class="s0" d="m102.7 217c-1.4 0-2.5-1.1-2.5-2.5v-16.2c0-1.4 1.1-2.5 2.5-2.5 1.4 0 2.5 1.1 2.5 2.5v16.2c0 1.4-1.1 2.5-2.5 2.5z"/>
		</g>
	</g>
	<path id="Layer" class="s0" d="m170.1 48.8c-0.6 0-1.2-0.2-1.7-0.7-1-1-1-2.5 0-3.5l11.4-11.5c1-1 2.6-1 3.5 0 1 0.9 1 2.5 0 3.5l-11.4 11.5c-0.5 0.5-1.2 0.7-1.8 0.7z"/>
	<path id="Layer" class="s0" d="m182.2 195.7c-0.6 0-1.3-0.3-1.7-0.8l-11.6-11.4c-0.9-1-0.9-2.6 0-3.5 1-1 2.5-1 3.5 0l11.5 11.4c1 1 1 2.6 0 3.5-0.4 0.5-1.1 0.8-1.7 0.8z"/>
	<g id="Clip-Path" clip-path="url(#cp3)">
		<g id="Layer">
			<path id="Layer" class="s0" d="m184.1 116.2c-1.3 0-2.4-1.1-2.4-2.4 0-1.4 1.1-2.5 2.4-2.5h16.3q0 0 0 0c1.4 0 2.5 1.1 2.5 2.4 0 1.4-1.1 2.5-2.5 2.5h-16.3q0 0 0 0z"/>
		</g>
	</g>
	<path id="Layer" class="s0" d="m35.2 48.8c-0.6 0-1.3-0.2-1.7-0.7l-11.5-11.5c-1-1-1-2.6 0-3.5 1-1 2.5-1 3.5 0l11.5 11.5c0.9 1 0.9 2.5 0 3.5-0.5 0.5-1.2 0.7-1.8 0.7z"/>
	<path id="Layer" class="s0" d="m23.1 195.7c-0.6 0-1.2-0.3-1.7-0.8-1-0.9-1-2.5 0-3.5l11.5-11.4c1-1 2.5-1 3.5 0 1 0.9 1 2.5 0 3.5l-11.5 11.4c-0.5 0.5-1.1 0.8-1.8 0.8z"/>
	<g id="Clip-Path" clip-path="url(#cp4)">
		<g id="Layer">
			<path id="Layer" class="s0" d="m21.2 116.2q0 0 0 0h-16.3c-1.3 0-2.5-1.1-2.4-2.5 0-1.3 1.1-2.4 2.4-2.4h16.3c1.4 0 2.5 1.1 2.4 2.5 0 1.3-1.1 2.4-2.4 2.4z"/>
		</g>
	</g>
</svg>