<svg version="1.2" xmlns="http://www.w3.org/2000/svg" viewBox="0 0 271 295" width="271" height="295"><defs><clipPath clipPathUnits="userSpaceOnUse" id="cp1"><path d="m11.24 6.36h247.38v279.61h-247.38z"/></clipPath></defs><style>.a{fill:#fff}</style><g clip-path="url(#cp1)"><path fill-rule="evenodd" class="a" d="m256.5 285.6h-101.1c-2.3 0-4.1-1.9-4.1-4.2v-27.2c-14.5 1.8-27.6-9.8-27.6-24.4 0-14.7 13.1-26.3 27.6-24.5v-25c0-2.3 1.8-4.3 4.1-4.3h26.2c-1.8-14.5 9.6-27.6 24.4-27.6 14.7 0 26.1 13.1 24.3 27.6h26.2c2.3 0 4.3 2 4.3 4.3v101.1c0 2.3-2 4.2-4.3 4.2zm-138.1-142.1h-31.2c-3 0-5.1-3-4.1-5.6 3.8-10.3-4.1-21.6-15.1-21.6-11.9 0-18.9 12.6-15.3 21.1 1.1 2.8-0.5 6.1-4 6.1h-31.2c-2.5 0-4.3-1.8-4.3-4.1v-101.1c0-2.3 1.8-4.3 4.3-4.3h26c-1.8-14.5 9.7-27.6 24.5-27.6 14.8 0 26.2 13.1 24.4 27.6h26c2.5 0 4.3 2 4.3 4.3v30.4c0 2.9-3 5.1-5.7 3.9-10.3-3.9-22 4-22 15.1 0 11.3 11.7 19.1 22 15.2 2.7-1.2 5.7 1 5.7 3.9v32.6c0 2.3-1.8 4.1-4.3 4.1zm-26-8.4h21.8v-22.9c-14.4 1.8-27.7-9.8-27.7-24.5 0-14.8 13.3-26.2 27.7-24.4v-20.8h-27.2c-2.9 0-5.1-3.1-3.9-5.7 3.9-10.3-3.9-21.9-15.1-21.9-11.2 0-19.1 11.6-15.2 21.9 1.2 2.6-1 5.7-3.9 5.7h-27.2v92.6h21.8c-1.5-14.4 9.8-27.3 24.5-27.3 14.6 0 25.9 12.9 24.4 27.3zm26 149.5h-100.9c-2.5 0-4.3-1.9-4.3-4.2v-101.1c0-2.3 1.8-4.1 4.3-4.1h26c-1.8-14.6 9.7-27.8 24.5-27.8 14.8 0 26.2 13.2 24.4 27.8h26c2.5 0 4.3 1.8 4.3 4.1v30.4c0 3-3 5.1-5.7 4.1-10.3-3.9-22 3.8-22 15.1 0 11.1 11.7 18.9 22 15 2.7-1 5.7 1 5.7 3.9v32.6c0 2.3-1.8 4.2-4.3 4.2zm-96.7-8.5h92.5v-22.9c-14.4 1.8-27.7-9.6-27.7-24.3 0-14.8 13.3-26.2 27.7-24.4v-21h-27.2c-2.9 0-5.1-2.9-3.9-5.7 3.9-10.3-3.9-21.9-15.1-21.9-11.2 0-19.1 11.6-15.2 21.9 1.2 2.8-1 5.7-3.9 5.7h-27.2zm234.8-132.6h-32.6c-2.9 0-4.9-3-3.9-5.8 3.9-10.3-3.9-21.7-15-21.7-12.1 0-19 12.7-15.2 21.2 1.1 3-0.5 6.3-4 6.3h-30.4c-2.3 0-4.1-1.8-4.1-4.1v-26.2c-14.5 1.8-27.8-9.7-27.8-24.4 0-14.7 13.3-26.1 27.8-24.3v-26.2c0-2.3 1.8-4.3 4.1-4.3h101.1c2.3 0 4.3 2 4.3 4.3v101.1c0 2.3-2 4.1-4.3 4.1zm-27.2-8.4h22.9v-92.6h-92.5v27.3c0 3-3 5-5.8 4-10.3-4.1-21.9 3.7-21.9 15 0 11.2 11.6 19 21.9 15.1 2.8-1.2 5.8 1 5.8 3.9v27.3h20.9c-1.8-14.5 9.6-27.6 24.4-27.6 14.7 0 26.1 13.1 24.3 27.6zm-69.6 142h92.5v-92.6h-27.3c-2.9 0-4.9-2.9-3.9-5.7 4.1-10.3-3.8-21.9-15-21.9-11.2 0-19 11.6-15.1 21.9 1.1 2.8-1 5.7-3.9 5.7h-27.3v26.2c0 3-3 5.1-5.8 3.9-10.3-3.7-21.9 4-21.9 15.2 0 11.2 11.6 19 21.9 15.1 2.8-1.1 5.8 1 5.8 3.9z"/></g></svg>