<svg version="1.2" xmlns="http://www.w3.org/2000/svg" viewBox="0 0 217 195" width="217" height="195"><defs><clipPath clipPathUnits="userSpaceOnUse" id="cp1"><path d="m109.41 91.46h101.79v98.52h-101.79z"/></clipPath><clipPath clipPathUnits="userSpaceOnUse" id="cp2"><path d="m6.55 7.82h129.45v165.18h-129.45z"/></clipPath></defs><style>.a{fill:#fff}</style><g clip-path="url(#cp1)"><path fill-rule="evenodd" class="a" d="m192.8 154.4q-0.3 0.3-0.3 0.9l4 21.5c0.7 4-0.8 8.1-4.2 10.6-3.3 2.4-7.6 2.8-11.3 0.9l-19.5-9.9q-0.4-0.3-0.9 0l-19.2 10.4c-1.6 0.9-3.4 1.3-5.2 1.3-2.1 0-4.3-0.7-6.2-2-3.3-2.4-5-6.4-4.4-10.4l3.5-21.7c0-0.3-0.1-0.6-0.3-0.8l-15.9-15.1c-3-2.9-4.1-7.1-2.9-11 1.3-3.9 4.6-6.8 8.6-7.4l21.7-3.4c0.3-0.1 0.5-0.3 0.7-0.6l9.4-19.7c1.8-3.8 5.5-6.1 9.6-6.2 4 0 7.8 2.2 9.7 5.9l10 19.5c0.1 0.3 0.4 0.5 0.7 0.6l21.7 2.8c4.1 0.6 7.4 3.3 8.8 7.3 1.3 3.9 0.3 8.1-2.6 11zm-6.3 25.1q0.5-0.3 0.4-0.9l-4-21.5c-0.7-3.5 0.5-7.1 3-9.6l15.4-15.5q0.5-0.4 0.3-1-0.2-0.6-0.8-0.6l-21.7-2.9c-3.5-0.5-6.6-2.6-8.2-5.8l-9.9-19.5q-0.3-0.5-0.9-0.5-0.6 0-0.9 0.5l-9.4 19.8c-1.5 3.2-4.5 5.4-8 5.9l-21.7 3.5q-0.6 0.1-0.7 0.6-0.2 0.6 0.2 1l15.9 15.1c2.6 2.5 3.7 6 3.2 9.5l-3.4 21.6q-0.1 0.6 0.4 1 0.5 0.3 1 0l19.2-10.4c3.2-1.7 6.9-1.7 10.1-0.1l19.4 9.9q0.6 0.3 1.1-0.1z"/></g><g clip-path="url(#cp2)"><path class="a" d="m100.4 81.1c-2 1-3.1 3-2.8 5.2 0.3 2.1 2 3.8 4.1 4.1 8.8 1.4 17.5 5.3 25.8 11.5 2.2 1.7 5.2 1.2 6.9-0.9 1.6-2.2 1.2-5.2-1-6.9-6.1-4.6-12.4-8.1-18.9-10.4 9.9-8.2 16-20.4 16-32.9 0-23.7-19-42.9-42.3-42.9-23.5 0-42.6 19.1-42.6 42.7 0 12.8 4.7 24 12.9 31.8-29.9 9.1-52 37.5-52 69.2 0 10.1 11.3 21.1 21.6 21.1h76.4c2.7 0 4.9-2.2 4.9-4.9 0-2.7-2.2-4.9-4.9-4.9h-76.4c-4.9 0-11.8-6.6-11.8-11.3 0-30.8 24.1-58 54.9-62 2.2-0.3 3.9-1.9 4.2-4.1 0.4-2.1-0.7-4.2-2.7-5.1-10.8-5.2-17.3-16.4-17.3-29.8 0-18.2 14.7-33 32.8-33 17.9 0 32.5 14.9 32.5 33.2 0 12.6-8.2 24.8-20.3 30.3z"/></g></svg>