<svg version="1.2" xmlns="http://www.w3.org/2000/svg" viewBox="0 0 365 300" width="365" height="300">
	<title>42-svg</title>
	<defs>
		<clipPath clipPathUnits="userSpaceOnUse" id="cp1">
			<path d="m17 22h326.79v263h-326.79z"/>
		</clipPath>
	</defs>
	<style>
		.s0 { fill: #3055ff } 
	</style>
	<g id="Clip-Path" clip-path="url(#cp1)">
		<g>
			<path class="s0" d="m343.8 29v-1.7q0.1-0.7 0-1.3-0.3-0.6-0.8-1.1l-0.9-1.4h-1.1q-0.6-0.5-1.4-0.8h-71.8q-0.8 0-1.5 0.2-0.8 0.1-1.5 0.4-0.7 0.3-1.3 0.7-0.7 0.5-1.2 1-0.5 0.6-1 1.2-0.4 0.6-0.7 1.3-0.3 0.8-0.4 1.5-0.2 0.8-0.2 1.5 0 0.8 0.2 1.5 0.1 0.8 0.4 1.5 0.3 0.7 0.7 1.4 0.5 0.6 1 1.1 0.5 0.6 1.2 1 0.6 0.4 1.3 0.7 0.7 0.3 1.5 0.5 0.7 0.1 1.5 0.1h51l-121.5 140.2-45.9-49q-1.1-1.3-2.6-1.9-1.6-0.6-3.3-0.5-1.6 0.1-3.1 0.8-1.5 0.8-2.5 2l-121.1 142q-0.4 0.6-0.8 1.2-0.4 0.7-0.6 1.5-0.2 0.7-0.3 1.5-0.1 0.7 0 1.5 0 0.8 0.2 1.5 0.2 0.7 0.6 1.4 0.3 0.7 0.8 1.3 0.5 0.6 1.1 1.1 0.6 0.5 1.2 0.9 0.7 0.4 1.4 0.6 0.8 0.3 1.5 0.3 0.8 0.1 1.5 0.1 0.8-0.1 1.5-0.3 0.8-0.2 1.5-0.6 0.6-0.3 1.2-0.8 0.6-0.5 1.1-1.1l115.4-135.6 45.9 47.6q0.6 0.6 1.2 1 0.7 0.5 1.4 0.8 0.8 0.3 1.6 0.5 0.8 0.1 1.6 0.1 0.8 0 1.6-0.1 0.8-0.2 1.5-0.5 0.8-0.3 1.4-0.8 0.7-0.4 1.2-1l124.8-143.5v49.8q0 0.8 0.2 1.5 0.1 0.8 0.4 1.5 0.3 0.7 0.8 1.4 0.4 0.6 0.9 1.1 0.6 0.6 1.2 1 0.6 0.4 1.4 0.7 0.7 0.3 1.4 0.5 0.8 0.1 1.5 0.1 0.8 0 1.6-0.1 0.7-0.2 1.4-0.5 0.7-0.3 1.4-0.7 0.6-0.4 1.2-1 0.5-0.5 0.9-1.1 0.5-0.7 0.7-1.4 0.3-0.7 0.5-1.5 0.1-0.7 0.1-1.5v-71.3z"/>
		</g>
	</g>
</svg>