<svg version="1.2" xmlns="http://www.w3.org/2000/svg" viewBox="0 0 244 243" width="244" height="243"><defs><clipPath clipPathUnits="userSpaceOnUse" id="cp1"><path d="m10.83 10.83h222.64v222.64h-222.64z"/></clipPath></defs><style>.a{fill:#fff}</style><g clip-path="url(#cp1)"><path fill-rule="evenodd" class="a" d="m225.9 119.4c-0.2 0.4-0.6 1.7 0.5 2.8 1 1 1.5 2.2 1.5 3.5 0 1.3-0.5 2.5-1.5 3.4l-3.6 3.7c-1 0.9-2.2 1.4-3.5 1.4-1.3 0-2.5-0.5-3.4-1.4-1.2-1.2-2.5-0.7-2.9-0.6-0.3 0.2-1.6 0.8-1.6 2.4 0 2.7-2.2 4.9-4.8 4.9h-2.1l-1.9 20.8c1.5 0.9 2.4 2.6 2.4 4.4 0 2.7 2 3.7 2.7 4 0.6 0.3 2.8 1 4.7-0.9 2.1-2.1 5.5-2.1 7.6 0l4.7 4.7c2.1 2.1 2.1 5.5 0 7.6-1.9 1.9-1.2 4.1-0.9 4.7 0.3 0.7 1.3 2.7 4 2.7 2.9 0 5.4 2.4 5.4 5.4v6.7c0 3-2.5 5.4-5.4 5.4-2.7 0-3.7 2-4 2.7-0.3 0.6-1 2.8 0.9 4.7 2.1 2.1 2.1 5.5 0 7.6l-4.7 4.7c-2.1 2.1-5.5 2.1-7.6 0-1.9-1.9-4.1-1.2-4.7-0.9-0.7 0.3-2.7 1.3-2.7 4 0 2.9-2.4 5.4-5.4 5.4h-6.7c-3 0-5.4-2.5-5.4-5.4 0-2.7-2-3.7-2.7-4-0.6-0.3-2.8-1-4.7 0.9-1 1-2.3 1.6-3.8 1.6-1.4 0-2.7-0.6-3.8-1.6l-4.7-4.7c-2.1-2.1-2.1-5.5 0-7.6 1.9-1.9 1.2-4.1 0.9-4.7-0.3-0.7-1.3-2.7-4-2.7-2.3 0-4.4-1.5-5.1-3.7l-81.4 4.3v1c0 2.6-2.1 4.8-4.8 4.8-1.6 0-2.3 1.3-2.4 1.6-0.2 0.4-0.6 1.7 0.5 2.9 1.9 1.9 1.9 5 0 6.9l-3.7 3.6c-1.9 1.9-4.9 1.9-6.8 0-1.2-1.1-2.5-0.7-2.9-0.5-0.4 0.1-1.6 0.8-1.6 2.4 0 2.7-2.2 4.9-4.9 4.9h-5.2c-2.6 0-4.8-2.2-4.8-4.9 0-1.6-1.3-2.3-1.6-2.4-0.4-0.2-1.7-0.6-2.9 0.5-1.9 1.9-5 1.9-6.9 0l-3.7-3.6c-1.9-1.9-1.9-5 0-6.9 1.2-1.2 0.8-2.5 0.6-2.9-0.2-0.3-0.8-1.6-2.4-1.6-2.7 0-4.9-2.2-4.9-4.8v-5.2c0-2.7 2.2-4.9 4.9-4.9 1.6 0 2.2-1.2 2.4-1.6 0.2-0.4 0.6-1.7-0.6-2.9-0.9-0.9-1.4-2.1-1.4-3.4 0-1.3 0.5-2.5 1.4-3.4l3.7-3.7c1.9-1.9 5-1.9 6.9 0 1.1 1.1 2.5 0.7 2.8 0.5 0.4-0.1 1.7-0.8 1.7-2.4 0-1.7 0.9-3.2 2.2-4.1l-4.8-64.6h-1.6c-2.7 0-4.8-2.1-4.8-4.8 0-1.6-1.3-2.3-1.6-2.4-0.4-0.2-1.8-0.6-2.9 0.5-1.9 1.9-5 1.9-6.9 0l-3.7-3.6c-1.9-1.9-1.9-5 0-6.9 1.2-1.2 0.8-2.5 0.6-2.9-0.2-0.3-0.8-1.6-2.4-1.6-2.7 0-4.9-2.2-4.9-4.8v-5.3c0-2.6 2.2-4.8 4.9-4.8 1.6 0 2.2-1.3 2.4-1.6 0.2-0.4 0.6-1.7-0.6-2.9-1.9-1.9-1.9-5 0-6.9l3.7-3.6c1.9-1.9 5-1.9 6.9 0 1.1 1.1 2.5 0.7 2.8 0.5 0.4-0.1 1.7-0.8 1.7-2.4 0-2.7 2.2-4.8 4.8-4.8h5.2c2.7 0 4.9 2.1 4.9 4.8 0 1.6 1.2 2.3 1.6 2.4 0.4 0.2 1.7 0.6 2.9-0.5 1.9-1.9 4.9-1.9 6.8 0l3.7 3.6c0.9 0.9 1.4 2 1.4 3.2l35.4-18c-0.4-0.4-0.9-0.6-1.6-0.6-2.7 0-4.9-2.2-4.9-4.9v-5.2c0-2.7 2.2-4.8 4.9-4.8 1.6 0 2.2-1.3 2.4-1.7 0.1-0.3 0.5-1.7-0.6-2.8-1.9-1.9-1.9-5 0-6.9l3.7-3.7c1.9-1.9 5-1.9 6.9 0 1.1 1.2 2.4 0.8 2.8 0.6 0.4-0.2 1.6-0.8 1.6-2.4 0-2.7 2.2-4.9 4.9-4.9h5.2c2.7 0 4.9 2.2 4.9 4.9 0 1.6 1.2 2.2 1.6 2.4 0.4 0.2 1.7 0.6 2.8-0.6 1.9-1.9 5-1.9 6.9 0l3.7 3.7c0.9 0.9 1.4 2.2 1.4 3.5 0 1.3-0.5 2.5-1.4 3.4-1.2 1.1-0.7 2.5-0.6 2.8 0.2 0.4 0.8 1.7 2.4 1.7 2.7 0 4.9 2.1 4.9 4.8v5.2c0 2.7-2.2 4.9-4.9 4.9-1.6 0-2.2 1.2-2.4 1.6-0.1 0.4-0.6 1.7 0.6 2.9 0.9 0.9 1.4 2.1 1.4 3.4q0 0.5-0.1 0.9l38.2 32.7 1.2-1.2c1.9-1.9 4.9-1.9 6.8 0 1.2 1.2 2.5 0.7 2.9 0.6 0.4-0.2 1.6-0.8 1.6-2.4 0-2.7 2.2-4.9 4.9-4.9h5.2c2.6 0 4.8 2.2 4.8 4.9 0 1.6 1.3 2.2 1.6 2.4 0.4 0.1 1.7 0.6 2.9-0.6 1.9-1.9 5-1.9 6.9 0l3.6 3.7c1 0.9 1.5 2.1 1.5 3.4 0 1.3-0.5 2.6-1.5 3.5-1.1 1.1-0.7 2.4-0.5 2.8 0.1 0.4 0.8 1.6 2.4 1.6 2.7 0 4.9 2.2 4.9 4.9v5.2c0 2.7-2.2 4.9-4.9 4.9-1.6 0-2.3 1.2-2.4 1.6zm-126.8-80.6v2.5c3 0.5 5.6 2.5 6.8 5.4 1.2 2.9 0.8 6.1-1 8.6l1.8 1.8c2.5-1.8 5.7-2.2 8.6-1 3 1.3 4.9 3.8 5.4 6.8h2.6c0.4-3 2.4-5.5 5.4-6.8 2.9-1.2 6.1-0.8 8.6 1l1.8-1.8c-1.8-2.5-2.2-5.7-1-8.6 1.2-2.9 3.8-4.9 6.8-5.4v-2.5c-3-0.5-5.6-2.5-6.8-5.4-1.2-3-0.8-6.2 1-8.7l-1.8-1.8c-2.5 1.8-5.7 2.2-8.6 1-3-1.2-5-3.7-5.4-6.8h-2.6c-0.5 3.1-2.4 5.6-5.4 6.8-2.9 1.2-6.1 0.8-8.6-1l-1.8 1.8c1.8 2.5 2.2 5.7 1 8.7-1.2 2.9-3.8 4.9-6.8 5.4zm121 78.2c1.2-3 3.7-4.9 6.8-5.4v-2.6c-3.1-0.4-5.6-2.4-6.8-5.4-1.3-2.9-0.9-6.1 1-8.6l-1.9-1.8c-2.4 1.8-5.6 2.2-8.6 1-2.9-1.2-4.9-3.8-5.4-6.8h-2.5c-0.5 3-2.5 5.6-5.4 6.8-3 1.2-6.1 0.8-8.6-1l-1.8 1.8c1.8 2.5 2.2 5.7 1 8.6-1.3 3-3.8 5-6.8 5.4v2.6c3 0.5 5.5 2.4 6.8 5.4 1.2 2.9 0.8 6.1-1 8.6l1.8 1.8c2.5-1.8 5.6-2.2 8.6-1 2.9 1.2 4.9 3.8 5.4 6.8h2.5c0.5-3 2.5-5.6 5.4-6.8 3-1.2 6.2-0.8 8.6 1l1.9-1.8c-1.9-2.5-2.3-5.7-1-8.6zm-0.5-6.7c0 8.6-7 15.7-15.6 15.7-8.7 0-15.7-7.1-15.7-15.7 0-8.6 7-15.7 15.7-15.7 8.6 0 15.6 7.1 15.6 15.7zm-6.3 0c0-5.2-4.2-9.4-9.3-9.4-5.2 0-9.4 4.2-9.4 9.4 0 5.2 4.2 9.4 9.4 9.4 5.1 0 9.3-4.2 9.3-9.4zm-14.6 55.4h-4.9c-0.4 3.9-2.8 7.3-6.6 8.8-3.7 1.6-7.8 0.9-10.8-1.6l-3.5 3.5c2.5 3 3.2 7.1 1.6 10.8-1.5 3.8-4.9 6.2-8.8 6.6v4.9c3.9 0.4 7.3 2.8 8.8 6.6 1.6 3.7 0.9 7.8-1.6 10.8l3.5 3.5c3-2.5 7.1-3.2 10.9-1.6 3.7 1.5 6.1 4.9 6.5 8.9h4.9c0.4-4 2.8-7.4 6.6-8.9 3.7-1.6 7.8-0.9 10.8 1.6l3.5-3.5c-2.5-3-3.2-7.1-1.6-10.8 1.5-3.8 4.9-6.2 8.9-6.6v-4.9c-4-0.4-7.4-2.8-8.9-6.6-1.6-3.7-0.9-7.8 1.6-10.8l-3.5-3.5c-3 2.5-7.1 3.2-10.8 1.6-3.8-1.5-6.2-4.9-6.6-8.8zm-39.4 27.2c0-3 2.5-5.4 5.4-5.4 2.7 0 3.7-2 4-2.7 0.2-0.5 0.8-2.3-0.4-4l-19.7-13.6-2.7 2.7c-1.1 1.1-2.6 1.7-4.2 1.7-1.6 0-3.1-0.6-4.2-1.7-1.9-1.9-4.5-2.4-7-1.4-2.4 1-3.9 3.2-3.9 5.9 0 3.3-2.7 5.9-6 5.9h-8.6c-3.3 0-6-2.6-6-5.9 0-2.7-1.4-4.9-3.9-5.9-2.5-1-5.1-0.5-7 1.4-1.1 1.1-2.6 1.7-4.2 1.7q-1.1 0-2.2-0.4l-16.3 15.2c0.4 0.7 0.5 1.4 0.5 2.2 0 1.3-0.5 2.5-1.4 3.4-1.1 1.2-0.7 2.5-0.5 2.9 0.1 0.4 0.8 1.6 2.4 1.6 1.9 0 3.6 1.1 4.4 2.8l81.5-4.3zm-87.4 9.8c-3-0.4-5.5-2.4-6.8-5.4-1.2-2.9-0.8-6.1 1-8.6l-1.8-1.8c-2.5 1.8-5.7 2.2-8.6 1-2.9-1.2-4.9-3.7-5.4-6.8h-2.5c-0.5 3.1-2.5 5.6-5.4 6.8-3 1.2-6.2 0.8-8.7-1l-1.8 1.8c1.9 2.5 2.2 5.7 1 8.6-1.2 3-3.7 5-6.8 5.4v2.6c3.1 0.5 5.6 2.4 6.8 5.4 1.2 2.9 0.9 6.1-1 8.6l1.8 1.8c2.5-1.8 5.7-2.2 8.7-1 2.9 1.2 4.9 3.8 5.4 6.8h2.5c0.5-3 2.5-5.6 5.4-6.8 2.9-1.2 6.1-0.8 8.6 1l1.8-1.8c-1.8-2.5-2.2-5.7-1-8.6 1.3-3 3.8-4.9 6.8-5.4zm-33.1-98h2.5c0.5-3.1 2.5-5.6 5.4-6.8 2.9-1.3 6.1-0.9 8.6 0.9l1.8-1.8c-1.8-2.4-2.2-5.6-1-8.6 1.3-2.9 3.8-4.9 6.8-5.4v-2.5c-3-0.5-5.5-2.5-6.8-5.4-1.2-3-0.8-6.1 1-8.6l-1.8-1.8c-2.5 1.8-5.7 2.2-8.6 0.9-2.9-1.2-4.9-3.7-5.4-6.7h-2.5c-0.5 3-2.5 5.5-5.4 6.7-3 1.3-6.2 0.9-8.7-0.9l-1.8 1.8c1.9 2.5 2.2 5.6 1 8.6-1.2 2.9-3.7 4.9-6.8 5.4v2.5c3.1 0.5 5.6 2.5 6.8 5.4 1.2 3 0.9 6.2-1 8.6l1.8 1.8c2.5-1.8 5.7-2.2 8.7-0.9 2.9 1.2 4.9 3.7 5.4 6.8zm67.5-64.7c0-8.6 7.1-15.6 15.7-15.6 8.6 0 15.7 7 15.7 15.6 0 8.7-7.1 15.7-15.7 15.7-8.6 0-15.7-7-15.7-15.7zm68.5 72.9v-5.2c0-2.7 2.1-4.9 4.8-4.9 1.6 0 2.3-1.2 2.4-1.6 0.2-0.4 0.6-1.7-0.5-2.8-0.9-0.9-1.5-2.2-1.5-3.5q0-0.4 0.1-0.9l-38.1-32.7-1.2 1.2c-0.9 0.9-2.1 1.4-3.4 1.4-1.3 0-2.6-0.5-3.5-1.4-1.1-1.1-2.4-0.7-2.8-0.5-0.4 0.1-1.6 0.8-1.6 2.4 0 2.7-2.2 4.8-4.9 4.8h-1.1l-1.1 19c2.4 0.8 4.2 3.1 4.2 5.7 0 2.7 1.5 4.9 3.9 5.9 2.5 1 5.1 0.5 7-1.4 2.3-2.3 6.1-2.3 8.4 0l6.1 6.1c1.2 1.2 1.8 2.7 1.8 4.3 0 1.5-0.6 3-1.8 4.2-1.9 1.9-2.4 4.5-1.3 6.9 0.9 2.3 2.8 3.7 5.2 3.9l20.6-7.2c-1.1-0.9-1.7-2.2-1.7-3.7zm-83.9 52.3c3.7-3.5 8.9-4.5 13.6-2.5 4.7 1.9 7.7 6.3 7.8 11.4h8c0.1-5.1 3.1-9.5 7.8-11.4 4.8-2 9.9-1 13.6 2.5l5.6-5.7c-3.5-3.6-4.4-8.8-2.5-13.5 2-4.8 6.3-7.7 11.4-7.9v-7.9c-5.1-0.2-9.4-3.1-11.4-7.9-1.9-4.7-1-9.9 2.5-13.5l-5.6-5.7c-3.7 3.5-8.8 4.5-13.6 2.5-4.7-1.9-7.7-6.3-7.8-11.4h-8c-0.1 5.1-3.1 9.5-7.8 11.4-4.7 2-9.9 1-13.6-2.5l-5.6 5.7c3.5 3.6 4.5 8.8 2.5 13.5-2 4.8-6.3 7.7-11.4 7.9v7.9c5.1 0.2 9.4 3.1 11.4 7.9 2 4.7 1 9.9-2.5 13.5zm-26.6-90.8c2.7 0 4.9 2.1 4.9 4.8v5.2c0 2.7-2.2 4.9-4.9 4.9-1.6 0-2.2 1.2-2.4 1.6-0.1 0.4-0.6 1.7 0.6 2.8 0.7 0.8 1.2 1.7 1.3 2.7l15.1 11.6c0.1-1.2 0.7-2.4 1.7-3.4l6.1-6.1c2.3-2.3 6.1-2.3 8.4 0 1.9 1.9 4.5 2.4 7 1.4 2.4-1 3.9-3.2 3.9-5.9 0-3.3 2.7-6 6-6h4.1l1.1-19.2c-1.6-0.8-2.7-2.5-2.7-4.4 0-1.6-1.2-2.2-1.6-2.4-0.4-0.1-1.7-0.6-2.9 0.6-0.9 0.9-2.1 1.4-3.4 1.4-1.3 0-2.5-0.5-3.4-1.4l-3.7-3.7c-0.9-0.9-1.4-2-1.4-3.1l-35.4 18c0.4 0.3 0.9 0.6 1.6 0.6zm19.6 92.7l-3.3-3.3c-2.4-2.3-2.4-6.1 0-8.4 1.9-1.9 2.4-4.5 1.3-7-1-2.4-3.2-3.9-5.8-3.9-3.3 0-6-2.7-6-6v-8.6c0-3.3 2.7-6 6-6 2.6 0 4.8-1.4 5.8-3.9q0.3-0.6 0.4-1.3l-21.3-16.6-2.2 2.2c-1.9 1.9-5 1.9-6.9 0-1.1-1.1-2.4-0.7-2.8-0.6-0.4 0.2-1.6 0.8-1.6 2.5 0 1.7-0.9 3.2-2.2 4l4.7 64.6h1.6c2.7 0 4.9 2.2 4.9 4.9 0 1.6 1.2 2.2 1.6 2.4 0.4 0.2 1.7 0.6 2.8-0.6 1.9-1.9 5-1.9 6.9 0l0.3 0.3zm112.5-7.7l1.9-20.9c-1.1-0.9-1.8-2.3-1.8-3.8 0-1.6-1.2-2.2-1.6-2.4-0.4-0.2-1.7-0.6-2.9 0.6-0.9 0.9-2.1 1.4-3.4 1.4-1.3 0-2.5-0.5-3.4-1.4l-3.7-3.7c-0.9-0.9-1.4-2.1-1.4-3.4 0-1.3 0.5-2.6 1.4-3.5q0.4-0.4 0.6-0.9l-19.8 6.9q0.2 0.8 0.2 1.6v8.6c0 3.3-2.6 6-5.9 6-2.7 0-4.9 1.5-5.9 3.9-1 2.5-0.5 5.1 1.3 7 1.2 1.1 1.8 2.6 1.8 4.2 0 1.1-0.3 2.1-0.8 3l14.7 10.2q0-0.1 0.1-0.2l4.8-4.7c1-1.1 2.3-1.6 3.8-1.6 1.4 0 2.7 0.5 3.8 1.6 1.8 1.8 4 1.1 4.7 0.9 0.6-0.3 2.6-1.3 2.6-4 0-3 2.4-5.4 5.4-5.4zm-83.8-119.3c0 5.2 4.2 9.4 9.4 9.4 5.2 0 9.4-4.2 9.4-9.4 0-5.2-4.2-9.4-9.4-9.4-5.2 0-9.4 4.2-9.4 9.4zm-72.6 57.4c-8.6 0-15.6-7-15.6-15.7 0-8.6 7-15.6 15.6-15.6 8.7 0 15.7 7 15.7 15.6 0 8.7-7 15.7-15.7 15.7zm0-6.3c5.2 0 9.4-4.2 9.4-9.4 0-5.1-4.2-9.3-9.4-9.3-5.1 0-9.3 4.2-9.3 9.3 0 5.2 4.2 9.4 9.3 9.4zm156.3 85.8c10.6 0 19.3 8.7 19.3 19.3 0 10.7-8.7 19.4-19.3 19.4-10.7 0-19.4-8.7-19.4-19.4 0-10.6 8.7-19.3 19.4-19.3zm13 19.3c0-7.2-5.8-13-13-13-7.3 0-13.1 5.8-13.1 13 0 7.2 5.8 13.1 13.1 13.1 7.2 0 13-5.9 13-13.1zm-144.6 7.7c0 8.7-7 15.7-15.7 15.7-8.6 0-15.6-7-15.6-15.7 0-8.6 7-15.6 15.6-15.6 8.7 0 15.7 7 15.7 15.6zm-15.7 9.4c5.2 0 9.4-4.2 9.4-9.4 0-5.1-4.2-9.3-9.4-9.3-5.1 0-9.3 4.2-9.3 9.3 0 5.2 4.2 9.4 9.3 9.4zm43.5-79.2c0-13.1 10.7-23.8 23.8-23.8 13.2 0 23.8 10.7 23.8 23.8 0 13.2-10.6 23.9-23.8 23.9-13.1 0-23.8-10.7-23.8-23.9zm23.8-17.5c-9.7 0-17.5 7.9-17.5 17.5 0 9.7 7.8 17.6 17.5 17.6 9.7 0 17.5-7.9 17.5-17.6 0-9.6-7.8-17.5-17.5-17.5z"/></g></svg>