<svg version="1.2" xmlns="http://www.w3.org/2000/svg" viewBox="0 0 81 80" width="81" height="80">
	<title>11-svg</title>
	<defs>
		<clipPath clipPathUnits="userSpaceOnUse" id="cp1">
			<path d=""/>
		</clipPath>
		<clipPath clipPathUnits="userSpaceOnUse" id="cp2">
			<path d="m11-12h243v95h-243z"/>
		</clipPath>
		<clipPath clipPathUnits="userSpaceOnUse" id="cp3">
			<path d="m24.55 1.89h214.45v77.06h-214.45z"/>
		</clipPath>
		<clipPath clipPathUnits="userSpaceOnUse" id="cp4">
			<path d="m63.08 1.89h137.36c21.27 0 38.53 17.25 38.53 38.53 0 21.28-17.26 38.53-38.53 38.53h-137.36c-21.28 0-38.53-17.25-38.53-38.53 0-21.28 17.25-38.53 38.53-38.53z"/>
		</clipPath>
		<clipPath clipPathUnits="userSpaceOnUse" id="cp5">
			<path d="m1 1h79.16v77.96h-79.16z"/>
		</clipPath>
		<clipPath clipPathUnits="userSpaceOnUse" id="cp6">
			<path d="m8.52 1.04h64.03c1.99 0 3.9 0.79 5.3 2.2 1.41 1.4 2.2 3.31 2.2 5.3v62.92c0 1.99-0.79 3.9-2.2 5.3-1.4 1.41-3.31 2.2-5.3 2.2h-64.03c-1.99 0-3.89-0.79-5.3-2.2-1.41-1.4-2.2-3.31-2.2-5.3v-62.92c0-1.99 0.79-3.9 2.2-5.3 1.41-1.41 3.31-2.2 5.3-2.2z"/>
		</clipPath>
		<clipPath clipPathUnits="userSpaceOnUse" id="cp7">
			<path d="m8.1 9.69h64.86v60.4h-64.86z"/>
		</clipPath>
	</defs>
	<style>
		.s0 { fill: none;stroke: #000000;stroke-width: 1.5 } 
		.s1 { fill: #76c2af } 
		.s2 { fill: #ffffff } 
	</style>
	<g id="Clip-Path" clip-path="url(#cp1)">
		<g>
			<g>
				<g id="Clip-Path" clip-path="url(#cp2)">
					<g>
						<g id="Clip-Path" clip-path="url(#cp3)">
							<g>
								<g id="Clip-Path" clip-path="url(#cp4)">
									<g>
										<path fill-rule="evenodd" class="s0" d="m63.1 1.9h137.3c21.3 0 38.6 17.2 38.6 38.5 0 21.3-17.3 38.6-38.6 38.6h-137.3c-21.3 0-38.6-17.3-38.6-38.6 0-21.3 17.3-38.5 38.6-38.5z"/>
									</g>
								</g>
							</g>
						</g>
					</g>
				</g>
			</g>
		</g>
	</g>
	<g id="Clip-Path" clip-path="url(#cp5)">
		<g>
			<g id="Clip-Path" clip-path="url(#cp6)">
				<g>
					<path class="s1" d="m1 1h79.2v78h-79.2z"/>
				</g>
			</g>
		</g>
	</g>
	<g id="Clip-Path" clip-path="url(#cp7)">
		<g>
			<path fill-rule="evenodd" class="s2" d="m8.1 69v-46.4c0-0.4 0.2-0.7 0.4-0.9l0.1-0.2 11.3-11.3 0.2-0.1c0.2-0.3 0.6-0.4 0.9-0.4h27.8c0.7 0 1.3 0.6 1.3 1.3v27.5l9.8-9.9 3.5-3.7c1.7-1.6 4.4-1.6 6 0l2.3 2.2c1.7 1.7 1.7 4.4 0.1 6l-5.3 5.3-16.4 16.7q0 0 0 0.1v13.8c0 0.7-0.6 1.3-1.3 1.3h-39.4c-0.7 0-1.3-0.6-1.3-1.3zm39.6-57h-25.6v10.5c0 0.7-0.5 1.2-1.2 1.2h-10.5v44.3h37.3v-10.5l-4.3 4.4h-0.3q-0.1 0.1-0.2 0.1l-8.6 2.5q-0.2 0-0.4 0c-0.3 0-0.6-0.1-0.9-0.4-0.3-0.3-0.4-0.8-0.3-1.2l2.3-8.7q0-0.2 0.1-0.3 0.1-0.3 0.3-0.5l12.3-12.5zm18.8 23.1l3.6-3.7c0.7-0.7 0.7-1.9 0-2.6l-2.3-2.3c-0.8-0.7-2-0.7-2.7 0l-3.6 3.7zm-31.1 26.6l5.2-1.5-1.1-1-0.3-0.3-1.4-1.4-0.5-0.5-0.5-0.5zm3.2-6.6l0.9 0.8 15.8-16.1 6.2-6.3-0.5-0.6-1.1-1.1-22.1 22.5zm25.2-19.4l-0.6-0.6-6 6.1-16.1 16.4 1.7 1.6 22.1-22.4zm-51.7-14.4h7.7v-7.7z"/>
		</g>
	</g>
	<path fill-rule="evenodd" class="s2" d="m24.9 26.2l1.3 1.9-2.2 1.5q0.4 1.1 0.4 2.2c0 3.3-2.6 5.9-5.8 5.9-3.2 0-5.8-2.6-5.8-5.9 0-3.2 2.6-5.8 5.8-5.8 1.6 0 3 0.7 4.1 1.7zm-3 4.8l-2.7 1.8-1.3-1.9 2.7-1.9c-0.5-0.4-1.3-0.7-2.1-0.7-1.9 0-3.4 1.6-3.4 3.5 0 2 1.5 3.5 3.4 3.5 2 0 3.5-1.5 3.5-3.5q0-0.4-0.1-0.8z"/>
	<path fill-rule="evenodd" class="s2" d="m24.9 40.2l1.3 1.9-2.2 1.5q0.4 1.1 0.4 2.2c0 3.2-2.6 5.9-5.8 5.9-3.2 0-5.8-2.7-5.8-5.9 0-3.2 2.6-5.8 5.8-5.8 1.6 0 3 0.6 4.1 1.7zm-3 4.8l-2.7 1.8-1.3-1.9 2.7-1.9c-0.5-0.4-1.3-0.7-2.1-0.7-1.9 0-3.4 1.6-3.4 3.5 0 1.9 1.5 3.5 3.4 3.5 2 0 3.5-1.6 3.5-3.5q0-0.4-0.1-0.8z"/>
	<path fill-rule="evenodd" class="s2" d="m26.2 56.1l-2.2 1.5q0.4 1 0.4 2.2c0 3.2-2.6 5.8-5.8 5.8-3.2 0-5.8-2.6-5.8-5.8 0-3.2 2.6-5.8 5.8-5.8 1.6 0 3 0.6 4.1 1.7l2.2-1.5zm-4.2 2.8l-2.8 1.8-1.2-1.9 2.7-1.8c-0.6-0.5-1.3-0.7-2.1-0.7-1.9 0-3.5 1.5-3.5 3.5 0 1.9 1.6 3.5 3.5 3.5 1.9 0 3.5-1.6 3.5-3.5q0-0.5-0.1-0.9z"/>
	<path class="s2" d="m45.4 16.7v-2.3h-21v2.3z"/>
	<path class="s2" d="m32.6 28.3v-2.3h-4.7v2.3z"/>
	<path class="s2" d="m34.9 28.3h10.5v-2.3h-10.5z"/>
	<path class="s2" d="m40.7 37.7h4.7v-2.4h-4.7z"/>
	<path class="s2" d="m38.4 35.3h-10.5v2.4h10.5z"/>
	<path class="s2" d="m27.9 33h17.5v-2.3h-17.5z"/>
	<path class="s2" d="m27.9 42.3h4.7v-2.3h-4.7z"/>
	<path class="s2" d="m27.9 61h3.5v-2.3h-3.5z"/>
	<path class="s2" d="m27.9 65.6h3.5v-2.3h-3.5z"/>
	<path class="s2" d="m34.9 42.3h9.3v-2.3h-9.3z"/>
	<path class="s2" d="m27.9 56.3h4.7v-2.3h-4.7z"/>
	<path class="s2" d="m27.9 51.7h7v-2.4h-7z"/>
	<path class="s2" d="m27.9 47h11.7v-2.3h-11.7z"/>
	<path class="s2" d="m43.1 19h-16.3v2.3h16.3z"/>
	<g>
		<g>
			<g>
			</g>
		</g>
	</g>
	<g>
		<g>
			<g>
			</g>
		</g>
	</g>
	<g>
		<g>
			<g>
			</g>
		</g>
	</g>
	<g>
		<g>
			<g>
			</g>
		</g>
	</g>
	<g>
		<g>
			<g>
			</g>
		</g>
	</g>
	<g>
		<g>
			<g>
			</g>
		</g>
	</g>
</svg>