<svg version="1.2" xmlns="http://www.w3.org/2000/svg" viewBox="0 0 192 153" width="192" height="153">
	<title>2-svg</title>
	<defs>
		<clipPath clipPathUnits="userSpaceOnUse" id="cp1">
			<path d="m7 26h113v124.78h-113z"/>
		</clipPath>
		<clipPath clipPathUnits="userSpaceOnUse" id="cp2">
			<path d="m-9.64 102h24.64v21h-24.64z"/>
		</clipPath>
		<clipPath clipPathUnits="userSpaceOnUse" id="cp3">
			<path d="m112 102h81.48v21h-81.48z"/>
		</clipPath>
	</defs>
	<style>
		.s0 { fill: #85d3c1 } 
	</style>
	<g id="Clip-Path" clip-path="url(#cp1)">
		<g id="Layer">
			<path id="Layer" class="s0" d="m44.4 90.3c3.2-1.8 4.9-5.1 5.9-8.4-4.5-4-8.5-11-11-22.9-6.4-30.1 17.9-32.6 24.2-32.6 6.3 0 30.6 2.5 24.2 32.6-2.5 11.9-6.4 18.9-10.9 22.9 0.9 3.3 2.6 6.6 5.9 8.4 7.5 4 23.2 8.1 27.2 18 4.1 9.8 9.3 41.8 9.3 41.8h-111.4c0 0 5.2-32 9.3-41.8 4-9.9 19.7-14 27.3-18z"/>
		</g>
	</g>
	<path id="Layer" class="s0" d="m123.6 54.2c4.2 2.3 12.8 4.5 15 10 2.3 5.4 5.2 23 5.2 23h-55.8c-1.1-0.5-2.1-0.9-2.9-1.4-0.9-0.5-1.6-1.2-2.2-2.3q0.1-0.4 0.2-0.9c4.3-5.3 7.5-12.6 9.6-22.5 0.1-0.5 0.1-0.9 0.2-1.4 3.3-1.9 7.1-3.2 9.5-4.5 1.8-0.9 2.8-2.8 3.3-4.6-2.5-2.2-4.7-6.1-6.1-12.6-3.5-16.7 9.9-18 13.4-18 3.5 0 16.9 1.3 13.4 18-1.4 6.5-3.6 10.4-6.1 12.6 0.5 1.8 1.5 3.7 3.3 4.6z"/>
	<g id="Clip-Path" clip-path="url(#cp2)">
		<g id="Layer">
			<path id="Layer" class="s0" d="m14.4 102.6c-0.8 1.2-1.5 2.4-2 3.7-1.5 3.6-3.1 9.7-4.5 16.2-9.9-0.7-17.7-8.8-17.7-18.9v-1c0 0 24.2 0 24.2 0z"/>
		</g>
	</g>
	<g id="Clip-Path" clip-path="url(#cp3)">
		<g id="Layer">
			<path id="Layer" class="s0" d="m114.6 106.3c-0.5-1.3-1.2-2.5-2-3.7h81v1c0 10.5-8.5 19-19 19h-55.5c-1.4-6.5-3-12.7-4.5-16.3z"/>
		</g>
	</g>
	<path id="Layer" class="s0" d="m166.9 27.2c0-6-1-9.5-3.8-11.3-2-1.3-5-1.8-9.3-1.8h-123.7c-4.4 0-7.3 0.5-9.4 1.8-2.8 1.8-3.7 5.3-3.7 11.3v69h-8.8v-69c0-6.8 1.4-11.8 4.1-15.4 3.5-4.4 9.3-6.4 17.8-6.4h123.7c8.5 0 14.2 2 17.7 6.4 2.8 3.6 4.1 8.6 4.1 15.4v69h-8.7z"/>
</svg>