<svg version="1.2" xmlns="http://www.w3.org/2000/svg" viewBox="0 0 16 16" width="16" height="16"><style>.a{fill:#fff}</style><path fill-rule="evenodd" class="a" d="m0 1.1c0-0.6 0.5-1.1 1.2-1.1h13.6c0.7 0 1.2 0.5 1.2 1.1v13.8c0 0.6-0.5 1.1-1.2 1.1h-13.6c-0.7 0-1.2-0.5-1.2-1.1zm4.9 12.2v-7.2h-2.4v7.2zm-1.2-8.2c0.9 0 1.4-0.6 1.4-1.3 0-0.7-0.5-1.2-1.3-1.2-0.9 0-1.4 0.5-1.4 1.2 0 0.7 0.5 1.3 1.3 1.3zm4.9 8.2v-4c0-0.2 0-0.5 0.1-0.6 0.2-0.5 0.6-0.9 1.2-0.9 0.9 0 1.3 0.7 1.3 1.6v3.9h2.4v-4.1c0-2.3-1.2-3.3-2.8-3.3-1.3 0-1.8 0.7-2.2 1.2v-1h-2.4c0.1 0.7 0 7.2 0 7.2z"/></svg>