<svg version="1.2" xmlns="http://www.w3.org/2000/svg" viewBox="0 0 1025 531" width="1025" height="531">
	<title>64-svg</title>
	<defs>
		<clipPath clipPathUnits="userSpaceOnUse" id="cp1">
			<path d="m389 54h635v298h-635z"/>
		</clipPath>
		<clipPath clipPathUnits="userSpaceOnUse" id="cp2">
			<path d="m905 485h60v21.95h-60z"/>
		</clipPath>
		<clipPath clipPathUnits="userSpaceOnUse" id="cp3">
			<path d="m604 30.18h34v6.82h-34z"/>
		</clipPath>
		<clipPath clipPathUnits="userSpaceOnUse" id="cp4">
			<path d="m1017 473h7v7h-7z"/>
		</clipPath>
		<clipPath clipPathUnits="userSpaceOnUse" id="cp5">
			<path d="m451.8 87.64h23.99v35.24h-23.99z"/>
		</clipPath>
		<clipPath clipPathUnits="userSpaceOnUse" id="cp6">
			<path d="m734.13 188.79h23.99v35.21h-23.99z"/>
		</clipPath>
		<clipPath clipPathUnits="userSpaceOnUse" id="cp7">
			<path d="m535.75 278.03h23.98v34.97h-23.98z"/>
		</clipPath>
		<clipPath clipPathUnits="userSpaceOnUse" id="cp8">
			<path d="m421.09 185.97h23.99v35.03h-23.99z"/>
		</clipPath>
		<clipPath clipPathUnits="userSpaceOnUse" id="cp9">
			<path d="m93.57 304.51h23.99v35.24h-23.99z"/>
		</clipPath>
		<clipPath clipPathUnits="userSpaceOnUse" id="cp10">
			<path d="m217.98 278.03h23.99v34.97h-23.99z"/>
		</clipPath>
		<clipPath clipPathUnits="userSpaceOnUse" id="cp11">
			<path d="m93.57 242.62h23.99v35.23h-23.99z"/>
		</clipPath>
		<clipPath clipPathUnits="userSpaceOnUse" id="cp12">
			<path d="m877.77 378.55h23.99v35.24h-23.99z"/>
		</clipPath>
		<clipPath clipPathUnits="userSpaceOnUse" id="cp13">
			<path d="m810.18 269.09h23.99v34.91h-23.99z"/>
		</clipPath>
		<clipPath clipPathUnits="userSpaceOnUse" id="cp14">
			<path d="m865.62 203.68h23.99v35.23h-23.99z"/>
		</clipPath>
	</defs>
	<style>
		.s0 { fill: #ffffff } 
	</style>
	<path class="s0" d="m224.3 180.8c-0.1 0.4-0.9 0.8-0.6 1.2 0.2 0.3 0.5 0 1.3-0.4 0.7-0.4 0.7-1.1 0.5-1.7-0.2-0.6-1 0.5-1.2 0.9z"/>
	<path class="s0" d="m394.8 84.7c5.2 0.1 8-0.4 10-3.4 2-3-3.4-1.1-4.3-2-0.9-0.9-5.3-0.5-8.5 1.2-3.2 1.8-7.5 2.3-14 2.7-8.6 0.5-3.1 0.6-9.6 4.1-6.5 3.6 4.8-0.7 5.5 1.6 0.7 2.2 4.7-0.2 14.7-1.5 9.9-1.2 0.9-2.7 6.2-2.7z"/>
	<path class="s0" d="m414.1 116.2c2.7 0.5 2.9-0.7 5.3-2.1 2.4-1.4 1.4-0.9 5.2-1.7 3.8-0.8 4.8-1.5 1.9-3.2-2.9-1.7-0.3-0.6 0.3-1.9 0.5-1.3 1.3-1.6 1-3-0.3-1.5-3.6-0.4-6.4-0.2-2.9 0.1-4.1 0.4-4.1 1.6-0.1 1.3-0.3 0.4-4.1 2.5-3.8 2.2-0.7 2.5 0.5 3 0 0 2 0.4-0.5 2.3-2.5 2-1.8 2.1 0.9 2.7z"/>
	<path class="s0" d="m428.5 96.4c-2.8 0.5-3.4 1.7-0.3 2 3 0.3 0.1 0.7-2.9 1.9-2.9 1.3 0.9 1 5 0.6 4.1-0.3 2.5 0.3 0.4 1.7-2.1 1.3 0.4 1.1 2.2 0.9 0 0 0 0-0.2 0.5-0.2 0.5 1.7-0.1 2.3 0.8 0.5 0.9 0.9 0.8 3.6 1.5 2.6 0.7 1.4 0.8-2.3 1.2-3.6 0.4-1.3 0.3-3.6 0.1-2.3-0.2-1.2-0.1-0.8 0.9 0.5 1.1 0.1 0.6-1.3 2.6-1.4 1.9 0.4 1 4.5 1.4 4 0.4 0 1.1-2.9 2.4-3 1.3-4.4 2.3-2.4 3.5 2 1.2 3-0.9 5.4-2.6 2.5-1.8 3.2-0.9 5.9-2.2 2.8-1.2 2.6-0.9 7.9-1.1 5.4-0.3 3.9-0.7 3.8-2.5-0.1-1.9 5.2-2.6 0.7-3.4-4.4-0.7-1.2-0.8-4.7-2.5-3.4-1.6-3.7-1.4-4.5-3-0.7-1.5-2.2-0.7-5.1-1.7-2.8-1.1 0.9-0.7 1.3-3.2 0.4-2.6-1.1-0.8-2.9-1.9-1.9-1.1 0.3-0.7 2.6-1.9 2.3-1.2 0.6-1.4-1.1-2-1.8-0.6-2 0.3-2 1.9 0.1 1.5-1.6 0.4-5.2 2.3-3.5 1.9-0.6 1.3-3.4 1.8z"/>
	<g id="Clip-Path" clip-path="url(#cp1)">
		<g>
			<path fill-rule="evenodd" class="s0" d="m813.4 246.2c-5.5 1.3-6.5-2.3-6-7.6 0.5-5.2 2.6-12.8-7.4-15.6-10-2.8-9.3-4.7-16.3-0.7-6.9 4-18.6 8.5-24.3 9.7-5.8 1.2-5.3 1.8-5.1 6.3 0.1 4.6-1.2 7 0 8.6 1.2 1.6 6.8 3.6 4.6 7.3-2.2 3.8 0 8.7-4.3 5.6-4.3-3 0.7-9-2.1-10.4-2.9-1.5-3.2-2-7.1 0-3.9 1.9-4.7 3.1-5.1-2.2 0-5.3-16.2-34.9-10.3-38.6-4.7 0.7-10.7 0.2-12.6-4-1.9-4.2-0.6-10.6-12.8-13.1-12.2-2.4-24.7-2.2-29.3-5.2-4.7-3-2.6-4.6-11-4.7-8.3 0-18.5-13.6-23.6-12.9-5 0.7-5.5 1.7 0.2 7.9 5.6 6.2 8.8 12.2 16.2 11.6 7.3-0.7 5.1-5.9 9.8-2.8 4.6 3 5.7 4.7 12.5 7.9 6.7 3.3-10.4 16.4-26.3 18-16.1 1.5-27.6 7.9-30.9 5.6-3.3-2.3-6.9-15.9-12.1-20.1-5.2-4.3-15.1-15.7-18.2-20.2-3-4.4-9.1-7.7-8.6-4.1 0.5 3.5 12 14.8 12.2 21.9 5.4 6.5 11.7 10.4 9.5 13.2 0.5 2.8 4.5 0.7 7.2 3.7 2.7 3 6.7 5.6 7.3 9.2 0.6 3.5 5.9 3.2 11.9 2.4 5.9-0.8 13-0.9 17.8-2.3 0 3.9-9.9 23.9-20.6 26.4-11 2.4-27.9 18.5-26.3 23.1 1.5 4.5 4 12.8 2.9 19.9-1.2 7.2-8 14.4-21.2 17.8 1.6 6.8 2.8 15.7-5.1 18-7.8 2.3 0.7 8.6-8.3 12.6-8.9 4.2-4.4 9.5-15.9 10.5-11.5 1.1-9.6-0.9-16.6 1.2-7 2.2-7.9 1.2-8.1-3-0.2-4.1-0.2-3.8-4.7-8.6-4.5-4.7-8.4-10.9-8.3-15.9 0.2-5-4.1-10.2-9-16-4.9-5.8 1.3-9.6 1.8-13 0.3-3.5 5.8-14.3-0.8-20.6-6.6-6.3-17.3-12-15.3-17.9 2.1-5.9 7.4-15.2-4-13.7-11.4 1.7-8.1-1.9-14.3-3.1-6.2-1.2-8.4-0.7-16.7 3.7-8.2 4.4-4.8 0.7-13.6 2.8-8.8 2.1-8.2 7.3-16.7 4.3-8.5-2.9-18.3-3.3-19-7.2-0.6-3.9 0.8-4.2-6-6-6.8-1.8-9.1-4.2-9-9.7 0.2-5.5 0.8-14.8-3.2-17.9-4-3.1 0.4-3.8 3.2-8.8 2.8-5.1 3.7-9.1 9.4-13.3 5.7-4.3 13-8.9 11.9-14.6-1.1-5.7 4.8-4.4 8.9-8.2 4.1-4 10.4-2.1 5.1-4.7-5.3-2.6-3.6-3.6-8.9-2.8-5.3 0.8-3.2 0.7-3.4-2.3-0.2-3-3-0.5-3.4-4-0.5-3.6 2.5-1 1.3-5.5-1.3-4.5-1.2-7.3 9.8-8.5 11.1-1.2 16.1 2 17-1.4 1.1-3.3 6.4 0.4 2.2-3.7 0-3.6 3.5-2.2-1.7-6.3-3-1.4-7.7 2.1-9.4-1.4-1.6-3.4 5.7-2.9 5.7-2.9 0 0 11.5-0.3 7.2-1.8-4.3-1.5-5.4-2.9 1.4-1.6 6.8 1.4 3.9 0.3 6.5-2.7 2.6-3.1 9.9-3.8 9.7-6.3-0.3-2.5 0.8-4.9 9.2-5.5 8.5-0.6 8.9 0.1 7.3-2.7-1.6-2.8-6.1-3.9-0.9-6.5 5.1-2.6 6.8-4.4 7.4-1.3 0.6 3 5.5 3.8 4.8 1.4-0.6-2.3 3.3-8.4-6.3-6-9.6 2.5-11 3.7-17.8 2.1-5.3-1.2 3.1-3.3-0.7-6.1-3.7-2.8-5-4.1 5.3-6.2 10.3-2.1 12.9-2.1 16.8-6.6 3.9-4.5 12.8-4.7 16.8-9.7 3.9-5 9.3-5.9 23.2-6.1 13.9 0 11.1-1 26.5 2.4 15.3 3.6 12 3.9 20.2 3.4 8.2-0.5 10.7-1.2 11 1.8 0.2 3 4.7 7.7-4.8 5.3-9.4-2.4-11.9-1.6-15.8-1.6q-0.2 0-0.4-0.1c0.5 0.3 1.2 0.7 1.8 1.4 2.1 2.6 1.7 2.5 5.6 2.3 3.9-0.2 4.9-0.1 8.8 0.2 3.8 0.2 9.8-1.1 9.9-3.3 0.1-2.2 6.9 2 5.5-1.4-1.4-3.5-6.5-2.7-3.1-4.9 3.4-2.3 9.5 1.8 9.5 1.8 0 0-4.6 0.3-2.6 2 2.1 1.7 6.5 4.7 6.4 1.1-0.2-3.5-6.3-1.9 5.4-3.1 11.8-1.1 13.2-0.1 17.4 0.8 4.2 0.9-1.7-0.8 8.2 0.2 9.9 1.1 15.9 2.3 10.4-0.4-5.5-2.8-16.5-3.1-9.7-3.7 6.9-0.7 25.4 4.6 30.9 6.1 5.6 1.5 9.1 2 3.7-0.9-5.4-2.9-8.8-1.3-7-4.7 1.9-3.4 1.2-4.4 3.8-4.7 2.6-0.3 3.1-0.7 7 2.6 3.9 3.3 3 1.8 6.5 5.2 3.5 3.4 6.6 4.2 4.9 6.6-1.8 2.3-8.7 0.6-5.1 3.1 3.6 2.5 5.7 7.7 8.5 3.2 2.8-4.4 4.4-5.4 1.3-8.9-3.1-3.5-10.6-4-9.2-6.6 0.1 0-0.9-3.5 2.6-1.2 3.5 2.4 5.1 5.2 6.4 3.6 1.3-1.6-2.8-3.4 2.3-3 5.1 0.4 4.7 1.4 6.5 1.7 1.9 0.3 4.3 0.5 2.1-1-2.2-1.5-8.5-2.4-3-2.2 5.5 0.3 3.5 2.1 8.8 2.2 5.4 0.2 9.2 2.4 7.4 0.3-1.7-2.1-2-4.1 7.3-2.4 9.3 1.8 8.2 2.1 8.6 0.8 0.4-1.3 12.6 2.6 16.5 2.4 3.9-0.3-1.3-2.5 4.6-1.9 6 0.7 16.9 2.4 16.8 5.1-0.1 2.7 9.2 0.3 19.8 5.7 10.6 5.4 7.8 5.7 2.5 4.7-5.2-0.9-11.2-1.7-10.7 0.3 0.6 2 4.2 1.5 12.8 2.2 8.5 0.7 18.9 5.6 22.9 6.6 4 0.9-0.7 1.9 13.7 5.7 0.7-2-0.3-3 9.8 0.6 10 3.8 11.8 5.7 18.5 12.6 5.1 1.8 28.8 9.4 29.2 9.6-0.2-0.1-5.5-4.4-1.4-3.6 0-0.2 30.2 10.7 32 15.1 1.9 4 35.1 14.1 38 19.8 3 5.3 21.7 14.6 23.5 13.7 1.8-0.9 4.8 1 7.7 3.6 2.9 2.6 1.6 6.1 4.1 4.4 2.5-1.6-6.6-9.5 16.9 6.8 23.4 16.5 33.6 24.3 38.3 28.7 4.5 4.5 13.8 8.8 16 13.9 2.2 5.2 2.6 6.2-3.8 1.4-6.3-4.8-19.7-17.7-21.9-16.4-2.3 1.3-5.8 0-0.8 5 5.1 4.9 15.7 12.8 8.8 9.3-6.9-3.5-4.9-5.2-9.6-4.8-4.8 0.4-4.8 0.8-6.6 1.8-1.8 0.9 2.1 2.1-6.8-4-8.9-6.2-9.7-5.8-10.9-5.5-1.2 0.3-2.3-1.9-3.1-0.8-0.9 1.2-6.6-0.7 1 4.6 7.5 5.3 7.1 7.4 6.8 9.6-0.3 2.2-4.6-1.7-2.3 1.5 2.3 3.3-1.1 1.3-0.8 4.8 0.3 3.6 1.1 11.8-3.2 7.8-4.2-4.1-23-28.1-16.9-30.4 6.1-2.4 12.4-4.9 7.8-7.8-4.6-2.8-5 2.3-7.5-1.5-2.5-3.8-9-9.8-11.9-8.7-2.9 1.1-0.8 8.7-4.8 5.5-3.9-3.4-28.8-17.2-35.1-17.5-6.2-0.4-4.9 5.8-10.3 5.7-5.4 0-6.4 0.3 1.3 3.3 7.8 3 3 1.7 6.1 4.6 3.1 3-0.7-4 6.2 0.8 6.9 4.8 12.9 14.9 13 20.9 0.2 6.1-5.6 17.7-10.4 16-4.9-1.7-9.1-5.7-11.6-4.6-2.6 1.1-2.2 4.9-6.5 4.8-4.2-0.2-4.7 0.5-0.7 5.3 3.9 4.8 9 9.6 7.6 11.7-1.4 2.1 1 3.1-4.2 1.8-5.3-1.3-4.8 3.7-7.1-1.5-2.2-5.2-2.1-4.8-2.3-9.1-0.3-4.3 1-1.4-2.5-5.8-3.4-4.4 1.8-1.9-3-5.7-4.8-3.8-2.9-3.7-6.9-3.8-4.1-0.1-6.7 1.1-6.1-1.9 0.6-2.9 3.1-5-0.9-4.7-4 0.3-4.3 1.8-8.9 1.4-4.5-0.5-8.2-2.4-3.3 1.6 5 4 5.1 7.1 8.5 6.7 3.3-0.4 5.7-1.5 6.9 0.9 1.2 2.5 7.5 5.1 1.2 4.8-6.3-0.3-10.7-4.2-7.2 0.8 3.5 5.1 7.7 8.9 9.1 13.7 1.4 4.8 7.7 9.1-2.5 11.5-10.2 2.4-2.5 9.3-11.3 7.5-8.9-1.6-18.7-1.9-23.5-3.6-4.9-1.7-5.5 0.2-5 2.5 0.5 2.2-1.9 6.7-4.6 5.1-2.7-1.6-3-2.8-0.4-5.3 2.7-2.5 7.2-2.4 0.4-4.8-6.9-2.4-15.8-3.5-13.4 1.4 2.5 4.8 12.2 14.9 10.4 20.6-1.7 5.5-15.6 10.1-20.4 9-1.1-3.5-1-5.3-6.8-11.3-5.9-5.9-2.8-10.1-5.2-8.5-2.5 1.5-9.8 6.4-6.7 11.1 3.1 4.6 8.4 8.2 9.5 15.5 1 7.2 3.5 8.2 0.5 11.4-2.8 3.2-10.8-13.2-11.5-20.3-0.6-7.1-4.1-15.5-0.3-22.9 3.9-7.4-1.4-9.9-7-8.6zm76.3-134.3q0 0 0 0 0 0 0 0 0 0 0 0zm0 0q0 0 0 0 0 0 0 0 0 0 0 0zm-162.1 22c-3.3 1.2-1.1 1.3-1.2 3.4 0 0 0.1 0 1.5-0.3 1.4-0.4 0.3-1.6 4.4-2.7 4.1-1.2-1.3-1.6-4.7-0.4zm-1.2 3.4q0 0 0 0 0 0 0 0zm-70.2 8.9c-1.5-3.9-6.3-4.9-7.6-8.6-1.3-3.6 1.5-1-4.7-6.8-6.2-5.8-2.9-2.8-2.6-5.2 0.2-2.3 1.2-0.8 4.5-0.8 3.3 0.1 7.6-1.9 0.4-3.6-7.2-1.6-2.7-0.2-9.4 0.6-6.7 0.8-3.9 0.7-8.6 2.8-4.6 2.2 0.3 1.2 2.1 3.3 1.8 2 0.5 0-0.7 1.8-1.1 1.8 2.2 2.6 4.7 4.9 0 0 4.1 1.8 3.9 6.2-0.3 4.5-1.6 2.9 0.6 5.8 2.2 2.8 3.1-0.3 6.4 2.1 3.4 2.3 0.6 0.7 8.4 2 7.8 1.2 4.1-0.7 2.6-4.5zm-59.8-19.4c-6.8-2.2-3.2-2.8-4.7-5.7-1.6-2.8 1.4-1.5 1.6-2.5 0.2-1-0.3-1.2-3.9-1-3.6 0.1-4.8 1-10.1 2.1-5.3 1 2.7 0.9 4.6 1.2 4 0.5-0.6 1.2 3.7 2.8 4 1.5-5.2 0.8-10.5 1.5-5.3 0.7-3.6-1.5-6.7-1.6-3.2-0.2 4.5-0.6 3.3-2.4-1.2-1.8 1.3-0.8 0.8-1.8-0.6-1-2.2 1.4-2.3 0.4-0.2-1-1.8-0.5-5.1-1.5-3.3-1-1.9 0.1-3.7 1.6-1.8 1.6-0.2 1.4-4.4 2.9-4.2 1.5-0.6 0.5-0.1 2.4 0.5 1.9-1.3 2.1-3.4 4-2.1 1.9 0.2 1.4 3.4 2.6 0 0 1 0.2 3.3 0.6 2.3 0.4 7.2 0.2 12.1-1.4 4.9-1.6 2.5-0.3 9.1 0.4 6.7 0.7 4.6 0.5 9.1 1.8 4.5 1.3 4.3 0.1 10.1 0.4 5.9 0.3 2.3-0.5 3.8-2.4 1.4-1.9-3.2-2.2-10-4.4zm-8.2 25.4c0.1-1.2-0.5-3.2-3.3-5.2-2.7-2.1-1.9 0.5-4.6 1-2.8 0.6 0.1 0.9 2.3 1.6 2.1 0.8-0.8 0.9-2.1 3.2-1.4 2.3-2.8-0.3-5.2-1.3-2.3-1.1 6.1-1.7 2.1-2-3.9-0.3-0.4-1.7-2.8-1.8-2.2 0-7-1.6-10.1-0.6-3.1 0.9-6.7-2.6-8.9-4.9-2.1-2.3-3.2-1.3-6.8-5.8-3.6-4.4-2.4-0.6-6.6 0.4-4.2 1-2.6 1.9 2 3.4 4.5 1.6 4 4.3 1.1 3.1-3-1.2-3.1-0.1-4.6 1.8-1.5 1.9-0.3 1.2-3.6 1.6-3.3 0.3-2.3-1.1-6.5-3-4.2-1.9 0-2-3-4.5-3-2.5-5-5-5.1-7.6-0.1-2.5-2.3-1.7-8.1-2.5-5.8-0.9-8.3-2.6-10.6-4.4-2.2-1.9-1.2-1.2-5.1-1.8-4-0.5-2.1 0.3-3.3 1.7-1.1 1.4 1.7 0.3 1.5 2.3-0.3 2 0.7 0.7 3 1.5 2.2 0.8 2.4 2 3.5 3.6 1.2 1.6 2.1 0.8 6 0.3 3.8-0.6 5.5 2.5 9.5 3.3 4.1 0.8 1.6 0.9-0.6 1.9-2.1 1-1-0.8-4-0.4-3 0.5-0.7 1 1.3 1.8 2 0.9 1.4 0.6-0.5 2.3-1.8 1.7-0.1 1.2-1.9 2.4-1.8 1.1-4.5 0-4.5 1.7 0.1 1.6-0.6 1-5.9 0.6-5.3-0.4-5.2-0.6-12.1-1.7-6.9-1 1.3-0.5 8.4-0.5 7-0.1 3.5-0.6 7.5-1.8 4-1.1-0.2-1.9 0.8-2.6 1.1-0.7 1.5-0.7 1.1-1.4-0.3-0.8-2.7-2.3-6.7-1.5-4 0.9-3.9 0.5-7.3 0.2-3.3-0.3 4.1-0.8 2-1.6-2.1-0.8 0.4-2.9-4.5-2.9-5 0-1.5-2.2-4.5-4.4-3.1-2.1-1.6 0-5.8 0.8-4.3 0.8-3.8 1.6-5.8 2.6-2.1 1-0.5 0.9-6 1.7-5.5 0.8-5.2 0.1-8 0.8-2.8 0.8 2.1 0.2 1.1 1.7-1 1.5-1.6 0.8-0.9 1.9 0.7 1.1 3.9-0.1 9.6-1.1 5.7-0.9 2 1.1-1.7 2.1-3.8 1-4.8 0.8-10.3 0.6-5.5-0.2-1.8 0.6-5.8 2.6-3.9 2-1.7 2-1.7 4.3 0 2.3-2.2 0.3-3.4 2.3-1.2 2-1.7 2.8-4.2 4.1-2.4 1.3-0.5 1.2-3.7 1.5-3.2 0.3-8.1 1-8.5 1.6-0.4 0.7-0.7 1.2-1.5 2.1 0.6 0.5 2.1 2.1 3.3 2.5 0.6 0 7.8-2.5 13-4.1 5.1-1.7 9.6-2.6 15.3-5.2 5.7-2.6 4.4-0.7 9.8-1.9 5.4-1.1 8.3-0.2 11.7-1.1 3.4-0.8 1.7-0.1 5.4-1 3.6-1 2.2 0.1 4.6 0.9 2.4 0.9 0.1 1.2-1.4 3.2-1.5 2.1 0 0 2.6 1.6 2.6 1.6 0.4 1-4 3-4.4 2.1-0.5 0.9 2 1.2 2.6 0.2 2.7-0.2 4.8 1.8 2.1 2 2.9-0.6 7.4-0.5 4.6 0 1.2-1.3 10-1 8.8 0.3 5.1 0.1 4.3 2-0.7 1.8-6.4-1.2-7 1.7-0.6 3-0.1 1 5.4 1.7 1.8 0.2 2.3 0.2 2.5 0.1 0.2 0.1 0.9 0.4 2.6 1 5.7 2.1 1.7 0.6 4.3 0.2 2.6-0.3 1.3-2.1 1.1-5.6-0.2-3.5 3.4-0.8 8.6-0.9 5.2-0.1 1.5 1.5 6 1.8 4.6 0.3 4.2 1.4 11.5 1.8 7.2 0.5 7.1 1.5 9.2 2.2 2.1 0.7 2.3-1 6.5-2.5 4.3-1.5 2.5 0 9.3 1 6.8 1 1.8-1.3 4.7-3.7 2.9-2.5 3.6-4.1 3.8-5.3zm-91.8-54.2q0.4 0 0.7 0c0 0 3.6-0.2 7.7-0.9 4.1-0.6 3.3-1.1 11.3-0.7 8 0.4 3.2-0.6 8.3-2.6 5.2-1.9 0.6-2.3-0.2-5.6-0.7-3.4 3-0.9 7.8 0.5 4.8 1.4 3-0.6 1.3-2.5-1.7-1.8-6.7-1.4-1.4-2.1 5.2-0.7 12.3-1.5 19.5-3.7 7.2-2.2-4.8-1.7-13.2 0-8.4 1.7-6 0.3-9.6-0.2-3.6-0.5-4.2-2.7-6.5-5.5-2.4-2.7 0-1.8 5.1-3.1 5.1-1.3 4.7-1.7 5.1-4.2 0.4-2.5-3.2 0.1-7.9 0.3-4.8 0.1-1.4 0.9-1.9 2.6-0.5 1.7 1.7 0.9-2.5 2.9-4.1 2-6.3 1.9-12 4.7-5.7 2.8 2.2 1.6 5.9 3 3.7 1.5 2.6 2.3-1.2 3.8-3.8 1.5-2.3 1.5-0.6 4.4 1.6 3-3.6 3.1-9.1 5.1-5.5 2-5.7 0.2-10.7 2.4-4.7 2.1-0.3 1.5 4.1 1.4zm349.2 43.6c1.3-3.4-0.9-2.6-5.1-4.8-4.2-2.2-0.2 1.1 0.9 4.7 1 3.5-3.5 1.2-7.6 2.4 0 0-3.7 0.4-3.2 2.3 0.5 2 2.2 0.3 8.4 1.1 6.2 0.7 5.3-2.2 6.6-5.7z"/>
		</g>
	</g>
	<path class="s0" d="m520.6 162.2c0.1-0.1-0.3-0.2 0 0"/>
	<path class="s0" d="m634.6 289.3c-1.7-1.8-3.4 2.6-5.6 5.6-2.3 3-1.7 2.3-11.2 4.2-9.5 1.9-3.5 1.5-3.4 5.8 0.2 4.3 2.4 3-2.8 5.9-5.1 2.8-2.2 5-2 10.6 0 0 2.2 2.7 4.6 5.9 2.5 3.3 1.2 0.5 3.1-0.6 1.9-1.1 3.4 0.6 4-2 0.7-2.6 7.8-7.7 10.4-14.4 2.6-6.8 1.5-2.9 3.9-7.9 2.5-4.9 1.5-2.7 2.5-6.7 0.9-4.1-1.7-4.6-3.5-6.4z"/>
	<path class="s0" d="m935.8 426.8c-1.7-7.4-1-8.6 1.8-16.4 2.7-7.9-0.5-7.5-1-11.9-0.5-4.5 3-11.1 3-11.1 0 0-7.1 0-9.9 4.7-2.9 4.7-3.9 4-10.4 10.2-6.6 6.2-0.6-2.7-8.7-12.5-8.2-9.7 1.2-3.7 3.9-4.4 2.7-0.7 6-1.5-1.8-9-7.8-7.4-9.4-7.9-13.8-4.1-4.4 3.9-7.2 3.4-8-0.3-0.7-3.7-4-4.4-10.7-1.7-6.7 2.7-10.1-0.2-9.7-1 0.4-0.8-4.8-1.7-8.1 5-3.3 6.8-6.4-0.2-17.4-3.1-11-2.7-11-3.6-17.4 3.7-6.5 7.3-2.5 4.9-4.3 2.5-1.8-2.3-1.6-3.1-1.9 2.4-0.3 5.5-3.1 7.2-6 14.1 0 0 0 0-4.5 7.6-4.6 7.7 0.5 1.6 11.3 4.9 10.8 3.4 7.9 2.8 17.1 2.9 9.2 0.3 11.4 0.7 23 6.4 11.6 5.7 1.5 3.6 1.8 13 0.4 9.4 3.6 0.3 9.4-0.5 5.9-0.7-0.6 2.7-3.7 6.9-3.2 4.2 0.2 5.6 5.7 12.5 5.6 6.9 6 2.4 15.9 3.7 9.8 1.3 9.9-2.5 24.8-2.1 15.1 0.6 8.6-5 20-7.1 11.6-2 1.3-8-0.4-15.3z"/>
	<path class="s0" d="m880.7 453.6c-0.7 2.1-4.5 0.7-7.9-1.9-3.4-2.7-5-0.6-6 1.2 0 0-4.7 4.7 0.1 5.4 4.9 0.8 3.5-0.4 10 1.8 6.6 2.2 4.5-8.5 3.8-6.5z"/>
	<g id="Clip-Path" clip-path="url(#cp2)">
		<g>
			<path class="s0" d="m961.5 498.5c-3-5.1 0.1-6.6-0.3-11-0.4-4.3-2.5 1.4-4.7 5.5-2.3 4.1-1.4 2.9-6.9 2-5.4-1-3.6 0.1-3.7 3.7-0.1 3.7-1.2-1.4-5.4-3.1-4.2-1.7 2-1.4-3.7-2.8-5.8-1.4-13.3-0.4-22.1-3.9-10.2-3.9-10.3-1.8-9 2.9 1.3 4.7 2.9 1.6 6.1 1.4 3.1-0.2 9.5 1.7 18.3 4.3 8.8 2.6 4.7 3.9 9.1 2.2 4.5-1.7 3 0.8 7 2.8 3.9 2 3.2 1.8 7.8 1.3 4.6-0.4 4.3 1 7.7 2.1 3.4 1.1 2.9-2.3-0.2-7.4z"/>
		</g>
	</g>
	<path class="s0" d="m845.8 335c0.2 1.6 2.5 2 8 4.5 5.6 2.5 5.8 1.9 11.7 5 5.8 3.2 5.9 3.1 10.7 5.2 4.8 2.2 6.2 0.6-4.4-4.8-10.7-5.3-10.1-4.1-15.9-7.4-5.8-3.2 8 1.9-2.3-3.6-10.4-5.4-4.8-5.8-16.5-10.9-11.8-5-7.1-4.8-5.4-7.5 1.7-2.8 3.6-2.9-0.4-8.3-4-5.3-0.1-5.8-5.8-10.1-5.7-4.2-7.1-6.4-9.6-12.8-2.7-6.4-5.7-5.8-10.8-9.6-5.1-3.8-0.2 3.4 3.1 7.9 3.3 4.5 7.1 15.1 9 22 0 0 3.5 8.3 6.1 9.3 2.6 1 3.5 4.1 5.9 6.3 2.4 2.2-1.4-1-3.8 0.4-2.3 1.5 9.1 6.6 15.2 9.6 6.1 3.1 5 3.2 5.2 4.8z"/>
	<path class="s0" d="m887.3 309.8c-2.8-1.6-2.1-3.9-3.1-6.5-1-2.7-4.1-3-7.7-0.8-3.6 2.2-6.4 2.8-11.8 3.4-4.1-2-6.3-1.4-7.1 0.4-0.7 1.8-2.6 1-6.1-2-3.5-2.9-4.4 7-4.2 9.9 0 0 0 0-0.8 2-0.8 2 3 3.2 6.7 4.6 3.7 1.4 3.1 1.3 5.2 3.6 2.1 2.2 6.8 4.9 8.7 1.5 1.9-3.5 6.6-2.2 8.4-4.8 1.9-2.7 2.5-3.2 4.1-1.2 1.6 2.1 1.4-3 0.8-7.2-0.5-4.2 3.9-2.2 6.9-2.9z"/>
	<path class="s0" d="m891.4 327.3c4.5 2.1 5.4 3.7 8.1 4.4 2.7 0.7 2.9-1.3 1.1-2.1-1.8-0.8-4.8-2-8.8-5.2-4-3.3-6.7-2.4-8.4-1-1.7 1.4-0.8 1.7-3 2.8-2.3 1.1-4.9 11.3-5.4 13 0 0 0.9 0.4 2.8 0.8 1.9 0.5 2.4-3.8 3.2-5.5 0.8-1.7 0.1 2 0.3 4.9 0.2 2.9 7 4.2 6.5 1.6-0.5-2.7-1.5-3.4-0.7-7.1 0.8-3.7 4.2 2.2 5.6 0.9 1.5-1.2 3.4-2-2.5-3.1-5.8-1-5.9-4.3-5.5-5.8 0.4-1.6 2.2-0.7 6.7 1.4z"/>
	<path class="s0" d="m918.3 348.3c0 0 1.6 2 3.8 4 2.1 2.1 5.2-1.5 5.2-1.5 0 0-0.1-2.4-6.2-4.2-6-1.8-4-0.2-2.8 1.7z"/>
	<path class="s0" d="m950.9 372.7c-2.5-4.9-3.9-4-8.3-8.2-4.3-4.3 0-1.7-2.5-4.6-2.5-2.9-5.1-1.2-6.9 0-1.7 1.2-3.4-0.6-7.4-4-4-3.4-4.6-1.7-6.4-0.9-1.8 0.8 1 2.2 4 2.6 3 0.5 1.6 2.1 3.6 5.5 7 4.9 5.4 9.7 4.7 12.2 0 0-4.8-0.3-2.8 1.5 2.1 1.8 5.6 0.8 6.9 4.4 1.3 3.6 7.6 6.5 9.7 5.7 2.1-0.9 3.1-0.8 7 3.7 3.8 4.5 1.8 5.9 2.8 8.1 1 2.2 4.5 4.9 5 2.1-2.8-5.2-1.8-8.3-1-9.7 0.8-1.5 4.8 0 2.1-2-2.6-2-2.6-2.8-2.2-6 0.5-3.3-3.9-6.9-8.3-10.4z"/>
	<path class="s0" d="m963.1 387.9c0 0 2 3.6 7.8 7.7 5.7 4.2 8.4 1.6 10.7 0.5 2.2-1-1.8-5.2-2.5-4-0.7 1.2 0.6 3.2-4.9 2.2-5.6-1.1-8.3-4.7-11.1-6.4z"/>
	<path class="s0" d="m937.1 245.5c1.7 1.8 1.7 2.2 3.3 6.5 0 0 1.2 2.7 3.8 3.1 2.7 0.3 3.2-5.4 1.3-8-1.9-2.6-7.1-2-8.4-1.6z"/>
	<path class="s0" d="m954.9 252.9c2-0.5 0.7-2.8 0.5-5.4-0.1-2.5-3.1-2.1-7.2-4.5-4.2-2.3-1.6 1.9-0.3 4.9 0.1 0 0.5 5.3 0.9 3.6 0.4-1.8 4.1 1.9 6.1 1.4z"/>
	<path class="s0" d="m957.6 253c-1.2 2.8 0.9 2.5 1.5 2.3 0.6-0.3 3-2.1 5.6 0.6 2.7 2.6 11.8 4.2 10.6 1.2-1.3-3.1 0.1-6 2.8-9.3 2.8-3.4-4.9-10.8-5.8-13.6-0.9-2.8 1.5 0.1 5.3 3.1 3.8 3 5.4 0.6 9.9 1.2 4.6 0.6-1.8-3.7-5.9-5.8-4-2-7.1-5.3-10.6-8.9-3.5-3.7-3-1.1-1 1.5 2 2.7 0.5 1.7-2.2 4.4-2.6 2.7 1.8 3.9 1.2 7.1-0.7 3.2 1.6 8.9-0.8 10.5-2.3 1.5-9.2-3.7-9.2-1.1 0.1 1.7-0.3 4-1.4 6.8z"/>
	<path class="s0" d="m975.7 214.7c-1.4-2.1-6.8-9.4-12.7-18.5-5.9-9-3.8-3.6-4.4-2.3-0.6 1.2 3.6 6.9 5.1 11 1.5 4 3 6.5 3.6 8.5 0.6 2.1 0.7 4.4 1.9 7.2 0 0 1.9 0.1 2.4-0.9 0.5-0.9 3.9 4.5 4.9 3.8 1.1-0.7-5.9-6.6-7.7-11-1.7-4.3 4.6 1.8 6.9 2.2z"/>
	<path class="s0" d="m909.5 261.4c2.4-3.5 2.1-3.4-1.2-5-3.2-1.6-5 3.6-5.3 5.3 0.1 0.2 0.3 0.6 0.5 1.2 1 2.4 3.7 2 6-1.5z"/>
	<path class="s0" d="m903 261.9q0-0.1 0-0.2c-0.2-0.6 0 0.2 0 0.2z"/>
	<path class="s0" d="m901.6 288.1c2.5 2.9 0.8-1 2.7-3.2 1.9-2.2 5 0.1 2.6-1.8-2.4-1.9 5-8.9-1.6-7.1-6.7 1.8-3.5-0.1-5 2.2-1.5 2.3-1.6 0.6-2.3 2.9 0 0 1.1 4.1 3.6 7z"/>
	<path class="s0" d="m913.2 304.8c-2.1-4.6 2.6 1.6 1.4-2.7-1.2-4.3-1.3-3-3.2-7.1-2-4.1-4.1-4.3-6.3-3.7-2.2 0.5-3.8-1.5-5.6-0.5 0 0 1 1.3 4.7 2.6 3.7 1.4 5.2 5.5 5.3 7.7 0.1 2.3-0.1 2.1-2.1 1.7-2.1-0.4-0.4-0.1-0.8-2.7-0.4-2.5-0.4-2.4-4.1-5.4-3.7-3-0.9 1.6 0.7 4.9 1.6 3.3 0.7 1.8-0.6 2.8-1.3 1-1.4 1.3 2.9 2.7 4.2 1.6 3.5 1 6.5 2.7 2.9 1.7 0.3 1.8-3.7 2.7-3.9 0.8-3.2 1.3-2.2 6.3 0.9 4.9 6.4-0.8 8.6-2.2 2.2-1.3 0.7-5.1-1.5-9.8z"/>
	<path class="s0" d="m987.2 407.2c0.7-1.4-0.7-4.4-1.5-6.5-1.6 1.5-2.3 4.6-1.7 7.2 0.8 0.1 2.7 0.3 3.2-0.7z"/>
	<path class="s0" d="m984.1 408.2q-0.1-0.2-0.1-0.3c-0.2 0-0.4-0.1-0.4-0.1q0.2 0.2 0.5 0.4z"/>
	<path fill-rule="evenodd" class="s0" d="m374.9 71.5c-4.4 2.1-7.9 5.9-12.7 7.8-5.8 2.4-12.4 2.5-16.6 2.2-0.1 1.5-3.2 5.4-7.7 7.6-4.5 2.2-10.4 2.7-12.1 3.2-2.1 0.5-2.6 1.8-4.4 2.8-1 0.5-4.2 0.5-5.6 2.1-2 2.3-0.1 3.9-1 5.2-0.9 1.2-4.6 2-6.9 4.2-2 2.1-0.4 3.8-1.3 4.7-1 1.1-4.2 1.2-6.7 3.2-2.6 2.1-2.5 3.6-4 3.6-1 0-2.3-1.8-5.2-1-3.4 0.9-6.8 2.7-8.6 2-1.9-0.6-0.5-3.3-1.3-4.9-0.7-1.6-5.8-1.7-7.2-3.2-1.6-1.6 0.1-3.5 3.5-5.6 2.3-1.5 2.6-3.8 4.2-4.6 2.7-1.5 6.6-2 7.1-3.4 0.3-1 0.8-3.3 3.1-5 2.6-1.9 5.1-3.8-0.7-2.6-3.5 0.7-6.3 3.4-8.6 4.1-4.9 1.5-5.8 1.4-4.3-1.4 1.1-2 0.1-4.4 0.7-6.3 0.6-2 1.1-4.3-4.8-3.2-4.9 0.9-8.4 4.2-11.8 5.6-4.6 1.9-8.1 1.8-12 1.7-3.4-0.1-7.9 1.5-8.7 0.9-0.8-0.7 2.5-2.1 7-4.4 4-2 6-4.7 8.9-5.8 3.3-1.3 7.6-1.1 11.1-3.4 0.1 0-1.6-1.2-1.5-1.3 0.1 0 1.9-0.5 2-0.6-1.9-0.1-5.2 2.4-8.9 3.6-2.3 0.8-5.8 0.2-9 1.4-4.7 1.8-7.7 5.8-11.7 8.4-4.8 3.1-10.2 4.7-13.9 6-4 1.5-1.6 4-2.8 5.8-0.9 1.2-4.2 1.6-8.7 3.2-5.4 1.9-9.9 5.6-14.8 7.4-5.2 1.8-10 1.4-15.1 2-5.7 0.7-3.2-0.2 1-1.4 3-0.9 7-0.1 8.6-0.8 1.7-0.7 2-2.5 2.9-3.6-1.3 0.4-3.7 0.3-6 1.1-7.1 2.4-10.5 3.1-10.2 1.3 0.2-2 6.3-5.4 8.5-7.3 2.1-1.8 4.3-4 7.3-4.5 2.9-0.4 5.1 1.6 7.5 1.3 3.3-0.4 2.5-0.9 0.5-1.3-1-0.3-0.6-2.5-2.3-2.7-3.5-0.4-0.2-2 9-5.7 3.9-1.5 9.4-1.8 14.7-4 7-3 9.3-5.7 11.1-6.2 2.8-0.8 3.5 1.2 12.5-2.1 9.1-3.3 9.1-5.4 12.7-6.5 2.2-0.7 6.2 0 13.9-2 3-0.8 2.7-2.5 6-2.9 2-0.3 4.1 1.3 6 1.1 2.9-1.2 5.4-4.1 8.6-5.2 3.1-1 6.8-0.2 9.9-0.8 12-2.3 6.5-2.7 12.6-5.1 2.3-0.9 7.1-0.8 14-3 9.5-3.2 16.1-6.5 21.8-7.4 9.3-1.6 15.4 0.3 23-1.1 5.2-1 9-3 12-3 4.2 0 7.4 1.9 11.9 0.6 3.1-0.9 5.7-3.6 8.9-4.3 4.7-1.2 7.4-0.5 7.9 0.9 0.4 1.2-4.3 2.7-10.8 4-5.6 1.1-13 1.4-14.3 3.1-1 1.4 0.2 3.1-0.9 4-1.9 1.4-4.4 2.6-0.6 2.6 2.3 0 5.5-0.9 6.4-0.2 1.5 1.2 1 2.6-1.2 1-1.3-0.9-4.8-0.1-5.6-0.4-1.4-0.6-2.4-0.6-1.4 1.4 0.6 1 4.5 1 5.2 1.9 1.5 1.5 1.7 2.1-1 1.7-1.8-0.3-4.9 1.2-6.4 1.2-2-0.1-4 0.1-2 1.8 1.6 1.2 4.9 1.7 4.5 2.4-0.5 0.9-3.5 0.3-6.4 0.2-2 0-5.3 1.7-7.3 1.8-2.9 0.1-5.7 0.4-3 2 1.6 0.8 5.7 0 7.4 0.5 3.2 1.1 4.4 1.7 1.2 2.1-0.7 0.1-1.7 1.9-2.3 1.9-0.3 0-0.4-0.8-0.5-1.4q0.2 0 0.4-0.1-0.2-0.1-0.4-0.1c-0.1-0.3-0.2-0.5-0.4-0.5-0.1 0-0.1 0.2-0.2 0.5-1.4-0.1-3.7 0.2-4.4 0-1-0.3-1.9-2-3.2-1.4-1.6 0.6-2.5 2.8-3.9 3.4-1.9 0.8-3.2 1.5 1.6 1 1.6-0.2 3.1-2.2 4.5-2.5 1.4-0.3 3.9-0.2 5.4-0.3-0.1 0.6-0.2 1.4-0.6 1.6-0.4 0.2-2.5-0.9-3.1-0.6zm-175.4 32.3c-1.3-1.1-0.4 0.7-1.7 2.6 1.2-0.9 2.5-2 1.7-2.6z"/>
	<path class="s0" d="m378.6 70.3q0 0.1 0 0.2 0.3 0 0.6 0 0-0.1 0-0.2-0.3 0-0.6 0z"/>
	<path class="s0" d="m148.8 135.5c4.2-0.3 0.4 0.4 6.8-3.2 6.4-3.5 7.1-1.5 14.8-4.9 7.7-3.3-0.3-2.3 2.7-4.9 2.9-2.6 3.4-0.9 3.5 0.4 0.1 1.4-2 2.5 1.9 0.9 3.9-1.6 11.4-4.8 16.8-7.1 5.4-2.2 12.1-3.7 15.4-6.1 3.3-2.5-12.3 3.2-14.9 4.2-0.1 0-3 0.9-6.4 2.3-3.5 1.5-4.3 0.2-6.6 1.2-2.4 1-5.1 0.2-6.7 0.4-1.7 0.1 1.5-2.9 2.4-4 1-1.1-4.3 1-7.4 2.7-3.2 1.7 1.8 1.2 2.3 2.4 0.6 1.3-2.8 1.2-5.7 3.9-2.9 2.7 1.3 0 2.1 1.8 0.7 1.7-2.8 1.2-5.9 1.8-3.1 0.6-2.5-0.4-8.2 1.9-5.6 2.4-5.3 2.6-9.1 5-3.8 2.4-2 1.7 2.2 1.3z"/>
	<path class="s0" d="m152.1 127.1c3.1-0.6 5-2.8 4.2-1.1-0.7 1.8 4-0.8 4-0.8 5.3-2.6 8.6-4.5 6.3-5.1-2.4-0.6-2.3-0.5-7.7 1.9-5.4 2.5-9.9 5.6-6.8 5.1z"/>
	<path class="s0" d="m128.8 140.3c0 0 3.1-0.6 3.2-1.6 0.1-0.9 2.6-2.2 8.2-5.9 5.6-3.6 0.5-2.1-3.8-0.1-4.3 1.9-6.9 4.7-10.7 7.2-3.7 2.6 0.2 2.5 3.1 0.4z"/>
	<path class="s0" d="m101.4 159.8c1.9 0.5 4.7-2.3 8.9-2.5 4.1-0.1 10.8-5.7 15.3-9.2 4.6-3.5 4.5-2.2 9.6-3.6 5-1.3 7.9-5.2 6-4.7-1.8 0.5-5.2 2.1-3.9-0.4 1.4-2.6-3.7 0.3-8.9 3.2-5.1 2.9-0.8 2.1-3.4 4.2-0.1 0-4.9 2.4-6.6 1.7-1.7-0.7 3-2.4 0.9-3.4-2.1-1-12.5 7.4-16 10.3-3.5 3-11 5.6-9.8 6.8 1.3 1.2 6-3 7.9-2.4z"/>
	<path class="s0" d="m143.9 148.1c4.5-1 10.3-8.2 11-10.2 0.6-2 1.7-2.4 1.5-2.8-0.3-0.5-4.7 2.7-8.7 4.1-4 1.5-2.4 2.6-5 4.8-2.5 2.2-2.5 1.1-5.6 2.8-3.1 1.7-1.8 2.3 2 0.9 0 0 0.4 1.3 4.8 0.4z"/>
	<path class="s0" d="m181.7 285.4c-4.3 0.2-4.5 0.3-13 0.8-8.5 0.6-6.2 1.1-12.4 3.8-6.2 2.8-4.9 4.1-10.1 10.4-5.3 6.4 3.7-0.2 7.6-4.4 0 0 2.4-2 10.9-4.8 8.5-2.7 2.4 2.7 9.5 0.2 7.1-2.4 11.7-6.2 7.5-6z"/>
	<path class="s0" d="m205.9 280.3c6.5-3.4 5.4-4.1-0.3-3.5-5.6 0.6-7.7 1.1-15.8 6-8 4.9 1.6 1.9-1.1 4.4-2.7 2.5-3.9 1.9-4 3.9q-0.5 0.4-1.1 0.7c0 0 2.7-0.4 6.4-3.1 3.8-2.7 0 0 2.5 0.9 2.5 1 2.1-0.4 9.4-2 7.4-1.7 6.6-3.3 6-5.6-0.5-2.2-4.4 1.4-11 2.8-6.7 1.4 2.5-1.1 9-4.5z"/>
	<path class="s0" d="m3.3 287.9c-2.9 1.5-5.5 4.4-6.6 6.2 0 0.1 1 2.6 5.3 3.8-1.4-1.4 0-8.1 1.3-10z"/>
	<path class="s0" d="m172.9 114.7c2.1-0.4 1.6-1 2.8-2.3 1.1-1.3-2.3 0.7-4.2 1.8 0 0-0.7 0.9 1.4 0.5z"/>
	<path class="s0" d="m176.3 155.6c1.8-3.6-6.3 3.9-10.2 7.5 0 0 1.1-0.2 4.2-0.9 3.1-0.7 4.2-3 6-6.6z"/>
	<path class="s0" d="m173.2 174.3c-1 1.8-8.1 3-4.4 3.9 2.4 0.6 6-1.9 9-5.2 3.1-3.3-3.5-0.6-4.6 1.3z"/>
	<path class="s0" d="m178.5 159c0 0 2-0.9 3.2-1.4 1.2-0.5 1.9-2.4 2-3.8 0.2-1.5-3.4 2.5-5.2 5.2z"/>
	<path class="s0" d="m420.5 97.5c0 0 0.9 0.6 2.3-0.3 1.4-1 3.1-1.8 4.7-2.3 1.6-0.5 0.4-1-1.8-0.4-2.3 0.5-3.8 1.9-5.2 3z"/>
	<path class="s0" d="m445.5 87.6c1.4-1.1 0.6-1.3-0.8-1.5-1.3-0.3-2.4 0.9-2.2 1.5 0 0 1.6 1 3 0z"/>
	<path class="s0" d="m425.1 86.1c0 0 1.6-0.7 1.7-1.5 0.1-0.8-1.4-0.2-2.6 0-1.2 0.2-1 1.1 0.9 1.5z"/>
	<path class="s0" d="m607.6 58.3c0 0 0.8 1.3 3.3 1.9 2.6 0.6 3.7-0.8 3.5-1.5-0.2-0.8-1.8-1.4-6.8-0.4z"/>
	<path class="s0" d="m617.4 49.9c-5.4 3.2-3.6 1.4-2.6 3.8 0 0 3.9 1.6 10.1 3.5 6.1 2 9.2 1.1 1-2.8-8.2-3.9 4-2.7 10.1-6.6 6.2-4 8.7-0.6 19.7 0 11 0.7 3.5-1.3 0.4-4.6-3-3.2-3.7 0.7-9.5 1-5.9 0.2-10.9-0.1-22.3 1.4-11.4 1.5-1.5 1.1-6.9 4.3z"/>
	<path class="s0" d="m601.1 34.3c5.5 0.1 0-1.6-8.1-1.5-8.1 0.1-5.8-1.7-14.5-0.4 0 0 4.2 0.9 8.9 1.4 4.7 0.4 8.1 0.4 13.7 0.5z"/>
	<g id="Clip-Path" clip-path="url(#cp3)">
		<g>
			<path class="s0" d="m610.2 34.9c5.6 0.6 4.2-0.1 12 0.7 7.8 0.8 9.9 1.3 14-0.9 4.1-2.1-5 0.1-12.7-2.3-7.7-2.3-4-2.2-10.9-1.5 0 0 0-0.1-5 1.5-5 1.6-2.9 1.9 2.6 2.5z"/>
		</g>
	</g>
	<path class="s0" d="m716.4 47.7c5.9 1.8 5.9 1.8 14.9 4.3 8.9 2.5 8.2 1.4 6.8-1.6-1.5-3-3.4-2-10.7-4.1-7.3-2.1-6.1-2.1-12.1-2 0 0-4.8 1.7 1.1 3.4z"/>
	<path class="s0" d="m758.5 56.5c-4.4-2.3 7.9 0.5 0.6-3.1-7.2-3.5-3.6-0.6-7.6-0.2-4.1 0.3-2.6 0.1-7.2 1.6 0-0.1 6.2 1.6 10.6 2.6 4.3 0.9 7.9 1.5 3.6-0.9z"/>
	<path class="s0" d="m876.2 97.8c7.7 1.6 5.1 2.5 13.9 5 8.9 2.7 1.3-1-5.7-3.8-7-2.9-1.1-0.1-9.7-3.5-8.6-3.3-5-2.8-10.6-3.6 0 0 0 0 1.3 2.3 1.2 2.4 3.1 2.1 10.8 3.6z"/>
	<path class="s0" d="m898.6 107.3c1.9 1.1 10.3 4.3 10.8 2.3 0.4-2-7.1-3.5-12.3-5.5 0 0-0.5 2 1.5 3.2z"/>
	<path class="s0" d="m884.7 104.6c1.4 2 5.5 2.9 12.3 4.5 6.8 1.7-4.6-3.7-12.9-7 0.1 0-0.7 0.5 0.6 2.5z"/>
	<path class="s0" d="m156.2 373.2c0.1 0 0.2 0.4 1.6-0.2 1.4-0.6 0.5-0.8-0.3-1.3-0.8-0.5-1.3 0.6-1.3 1.5z"/>
	<path class="s0" d="m159.9 367c-2.2 0.6-1.1 1.4-1.2 2.8 0 0 1.9-1.1 2.9-1.8 1-0.8 0.4-1.7-1.7-1z"/>
	<path class="s0" d="m210.7 234c-1.4-0.6-3 2.6-1.7 2.2 1.4-0.3 3.1-1.6 1.7-2.2z"/>
	<path class="s0" d="m352.4 167.3c1.2 1.9 5.1-0.7 5.3-1.3 0.1-0.2-6.9-1.4-5.3 1.3z"/>
	<path class="s0" d="m332.4 168.4c1.3 0.1 1.8-0.4 1.6-0.6-0.2-0.3-2.2 0.5-1.6 0.6z"/>
	<path class="s0" d="m211.5 277.4c0 0 1.2 0.3 2.9 0 1.8-0.3 2.2-1.5 1-2-1.3-0.4-2.3 0.7-3.9 2z"/>
	<path class="s0" d="m986.9 463.8c-2.9-1.8-4.6-4.3-6.4-8.8-1.8-4.6 0.1-3.4-2.8-5.8 0 0-0.4 3-0.9 5.9-0.5 2.9 3 5.9 14 14.5 11 8.8-0.9-4.1-3.9-5.8z"/>
	<g id="Clip-Path" clip-path="url(#cp4)">
		<g>
			<path class="s0" d="m1018 474c0 0-1 0.4-0.5 3.2 0.6 2.7 4.3 3.5 6.6 0.9 2.3-2.6-0.8-1.9-6.1-4.1z"/>
		</g>
	</g>
	<path class="s0" d="m992.7 421.4c0-0.1-1.6-1.1-2 0.3-0.4 1.4 0.6 2.3 3.4 2.5 2.7 0.2-0.6-2.4-1.4-2.8z"/>
	<path class="s0" d="m964.8 405.5c1.1-1.2-1.9-1.7-3.8-1.6 0 0 0 0 0.6 1.6 0.5 1.6 2.1 1.2 3.2 0z"/>
	<path class="s0" d="m955.8 407.9c0 0-0.6-0.7-1.2 0-0.6 0.7 2.8 1.8 3.2 0.8 0.3-0.9-1.9-1.1-2-0.8z"/>
	<path class="s0" d="m998 451.2c0 0-0.8 0 0 1.1 0.7 1 2-1.4 1-2.4-1.1-0.9-1.3 1-1 1.3z"/>
	<path class="s0" d="m998 456.1c-0.4-1.2-1.9-0.2-1.8 0.2 0 0-0.8-0.4-0.7 0.7 0.1 1 3 0.3 2.5-0.9z"/>
	<path class="s0" d="m422 64.9c-0.3-1.5 6.1-2.2 4.5-2.5-1.6-0.3-1.6-0.8-5.8 0.9 0 0 0 0 1.3 1.6z"/>
	<path class="s0" d="m479.3 37.6c0 0 7.5 2.5 10.5 4.6 2.9 2 5.1 0.9 9.4 0.8 4.3-0.2 4.6-2 5.2-4.4 0.5-1.4 0.6-1.4 3.4-1.5 2.4 1.1 3.8 3.6 13.8 3.8 12.4 0.4 4.5-1.7-2.8-2.1-5.8-0.4-6.4-1-7.9-1.7 1.4 0 2.4 0 4.7-0.1 10.7-0.6 5.4-0.9 12.9-3.1 7.4-2.1-2.5 0-11.7 0.5-9.2 0.6-4.4-1.1-8.1-0.4-3.8 0.7-8.3 1.2-20.1 1.9-11.9 0.7-12.9 1.7-9.3 1.7z"/>
	<path class="s0" d="m546.6 34.2c3.8 0.6 2.1-0.5 1.6-1.6-0.6-1-3-0.1-5.7 0.5 0 0 0.3 0.5 4.1 1.1z"/>
	<path class="s0" d="m1010.6 168.7c1.7 1.4 1.7 0.5 5.4 2.6 3.8 2 4.2 2 4.4 0.9 0.1-1-1.7-0.9-5.3-3.5-3.6-2.6-3.3-2.1-5.3-2.3-2.2-0.2-0.8 0.8 0.8 2.3z"/>
	<path class="s0" d="m224.7 271.6c0 0 0.5 0.5 1.5-0.1 1.1-0.6-0.5-0.5-1.5 0.1z"/>
	<path class="s0" d="m228.3 271.8c0 0 0.5 0.5 1.5-0.2 1.1-0.6-0.4-0.5-1.5 0.2z"/>
	<path class="s0" d="m230.9 272.9c0 0 0.5 0.5 1.5-0.1 1.1-0.7-0.5-0.6-1.5 0.1z"/>
	<path class="s0" d="m235.1 274.3c1.1-0.4-0.3-0.6-1.4-0.1 0 0 0.2 0.6 1.4 0.1z"/>
	<path class="s0" d="m367.5 231.6c0 0 0.1 0.7 1.3 0.4 1.2-0.2-0.1-0.7-1.3-0.4z"/>
	<path class="s0" d="m361.9 227.4c0 0 0.9 0.2 1.4-0.7 0.5-0.8-1-0.1-1.4 0.7z"/>
	<path class="s0" d="m368.8 227.1c0 0 0.3 0.8 1.4 0.5 1.2-0.4-0.2-0.9-1.4-0.5z"/>
	<path class="s0" d="m386.2 188.2c0 0 0.8-0.1 1.9 0 1.1 0.1 2.4-0.8 1.5-1.7-0.9-1-2.6 0.9-3.4 1.7z"/>
	<path fill-rule="evenodd" class="s0" d="m346.8 300.8c-0.5 3.6-0.2 12.6-4.5 18.9-4.3 6.3-2.2 6.3-0.1 11.4 2.1 5.1-0.4 13.8-0.2 17.6 0.2 3.7-0.1 2.7-6.7 6.4-6.5 3.8-11.6 9.5-10.6 12.1 1 2.7 3.1 18.6 1.2 20.7-2 2.1-5.2 8.2-12.1 10.5-6.9 2.4 2-0.3 4.2 3.7 2.3 4-3.4 8-8.3 11.1 0.2 3 2.7 7-2.5 8.3-5.3 1.3-0.5 0.9 2.3 2.6 2.8 1.7-0.8 7.9 0.5 9.9 1.3 2 1.9 0.6 4.8 3.1q0 0.1 0.1 0.2c0.1 0 7.6 4.3 7.1 11-0.1 2.5 6.4 3.8 9.6 8.9 3.7 6 7.3 4.6 11.8 5.8 2.1 0.5 3.5 2.3 3.5 2.3-0.1 0.1 2.4 5.2-23.9 4.9-8.5 0-15.4-0.3-18.7-5.4-8.9-6.5-9.5-16.6-9.5-16.6q-0.4-0.4-0.8-0.8c-2.6-2.8-3.9-5.1-3.5-7.2 0.5-2.1 1.6-1.8 0.1-4.2-1.6-2.4-3.3-5.4-3.2-3.5 0.1 1.8 2.5 5.9 0.9 5.1-1.7-0.8-4.3-3.1-5.3-4.7-1-1.6-2.8-6.2-5.7-7.2-2.9-1-5.1-11.8-10.2-15.3-5.1-3.4-4.6-12-8.8-17.7-4.2-5.6-6.9-16-16.9-14.6-9.9 1.2-39-2.9-43.5-12.9-4.7 0.6-11.3-6.1-7.5-7.2 3.8-1.1 1.8-2.5 0-2.4-1.8 0.1-5.7-2.4-0.5-10.9 5.3-8.6 2.2-7.5 0.5-11.6-1.8-4.1-4-6.6-5.9-6.8-2-0.1-2.5-3.9-5.1-0.7-2.5 3.2-0.4 7.8-3.9 6.9-3.5-0.9-19.4 4.9-20.2 1.4-0.7-3.6-10.6-4.1-19.3 0.8-8.7 4.9-9.2-1.2-15.4 2.7-6.2 4-6.6 6.7-11.2 7.6-4.6 0.9-13.3 2.1-17.1 4.6-3.7 2.4-11.9 4.4-12.5-0.6-0.5-5.1-13.7-6.3-18.6-6-4.9 0.2-10.2-4.6-13.9-5.6-3.7-0.9-6.4 1.3-5.2 2.7 1.1 1.5 4.9 1.2 8.2 3.8 3.3 2.5 12.1 2.5 13.5 5.3 1.5 2.8 0.3 7-1.7 5.3-1.9-1.6-5.1 1.3-6.8-0.8-1.6-2.1-1.2-2.9-4.2-2.1-3 0.8-11.9 2.9-7.7-0.5 4.3-3.4 1.5-3.2-4.6-2.9-2.4-3.8-0.8-8.5-4.5-7.7-3.7 0.8-13.1 3.6-17.1-1.2-4-4.9-9.1-12.3-5-20.3 4.1-8 7.5-18.5 2.1-20.1-5.4-1.5-10.8-0.6-5.5-4.7 5.4-4-6-0.4-3.8-5.3 2.2-5 3.7-8.7-0.7-4.6-4.4 4-5.7 4.6-6.5-0.1-0.9-4.7-8.3-6.3-17.1 1.6-8.8 8-8.7 7.2-8.4 5.7 0.3-1.4-1-2.5-3.2 1.2-2.2 3.7-4 9.2-7.6 11.2-3.5 2.1-4.1 1.5-8.5 7.5-4.4 5.9 2.1 2.3-2.4 7.7-4.4 5.5-7.9 13.2-9.1 11.5-1.3-1.7-18.4 26.6-21.3 28.1-3 1.5 8.3-12.6 11.3-18.4 2.9-5.8 8.1-12.2 3.9-8.9-4.1 3.2-11 12-9.6 8 1.4-4 3.8-7.5 1.4-5.7-2.3 1.8-7.6 11.1-6.4 5.2 1.2-6 1.2-6 1.2-6 2.4-5 6.8-13.6 11.6-16.9 4.8-3.3 1.7-3.9 4.4-5.5 2.7-1.6 4-2.3 5.3-4.9 1.3-2.6 5.2-7.9 2.6-5.8-2.6 2.1-8.7 5.7-9.1 8.1-0.4 2.2-3.4 6.1-5.2 5.3-1.7-0.8-3-2.3-1.3-3.8 1.6-1.5 9.1-12 13.7-13.1 4.6-1.3 8.1-4.6 7-5.3-1-0.8-5.6 3.6-5.3 1.7 0.3-2-1.5-1.7-2.7-1.3-1.3 0.4 0.6-3.1 3.7-5.6 3-2.4 15.2-18.8 22.2-23.3 6.9-4.5 0.3-4 0.3-4 0 0 7.6-6.2 10.5-6 2.8 0.3 1.6-3.7 6.6-5.3 4.9-1.6 24.7-17.5 32.2-20 7.3-2.6 5.9 0.2 12.4-7.3 6.6-7.3 8.5-4.5 12-7.9 3.5-3.5 6.3-8 10.2-9 4-1 0.7-2.3 3.9-3.9 3.2-1.7-0.7 4.4 3.1 1 3.9-3.4 5.4-6 5.4-6q0.7 1 1.3 2.1 0 0 0 0 0 0 0 0 0 0 0 0c0 0 1.8-4.1 12-7.1 10.4-2.9 4-0.9 7-3.4 3-2.5 3.2-1.1 3.4 0.5 0.2 1.5 5.6-1.4 10-5 4.5-3.6 4.2 0.8 5.2 1.3 1 0.6 4.7-6.1 2.5-6.5-2.3-0.4-4.2 0.5-6.9 2.9-2.7 2.4-5.1 4.7-6.1 3.6-1-1.1-0.2-2.1-3.8-0.6-3.5 1.5-8.5 3.7-7.1 1.4 1.4-2.4 3.5-2.4 3.5-4.1 0.1-1.7-4.3-0.3-5.6 1.6-1.4 1.9-4.6 5.7-5.7 6.2-1.1 0.4-3.4 1.2-4.7 0.9-1.3-0.4-7.3 3.5-3.7-0.3 3.7-3.7 6.6-5.4 9-8.3 2.4-3 7-7.7 10.7-9.2 3.6-1.5 9.9-6.4 13.8-6.7 3.9-0.3 10.2-0.6 12.4-2.8 2.1-2.3 6.7-5.1 7.5-3.6 0.7 1.4 7.8-8.3 11.5-8.8 3.7-0.6 1 1.6-1.6 4.6-2.7 3-5.2 7.5 0 5.2 5.1-2.2 5.7 0.2 0.9 1.7-4.9 1.6-2.7 5.2-8.3 6.5-5.7 1.3-13.7 3.9-10.1 3.7 3.7-0.1 13.5-1.6 19-6.1 5.4-4.4 4.2-4.3 7.1-5.1 2.9-0.7-4.9 0.7-1.4-2.7 3.6-3.4 7-4 8.7-3.8 1.7 0.3-3.8 5-1.3 4.1 2.5-0.9 5-1.2 5.5-3.4 0.6-2.3-2 0.4-1.4-2.9 0.7-3.4 5.2-6.3 7.7-9.2 2.6-3 1.9-4.3 7.1-8.1 5.1-3.8 8.3-5.3 9.9-5.5 1.5-0.2 4.8 0 0.9 2.2-3.8 2.2-8.9 5.3-9.6 6.8-0.6 1.5-6.1 5.1-3.3 6.2 2.8 1-1.6 4.8 3.3 3.6 4.9-1.2-0.8 0.4 2 0.7 2.7 0.3 2.7 2.5 3.7-0.9 1.1-3.3 2.6-1.3 5.7-5.2 3.1-3.8 4.7-5.2 2.1-4.8-2.7 0.5-9.3 3.1-7.9 0.4 1.3-2.8 0.2-3 4.2-5.6 4-2.7 9.6-7.7 14.7-8.5 5.1-0.8 16.7-9.3 21.2-8.3 4.6 1 8.5 2.2 14.5-0.9 6.1-3.1 12.5-0.7 7.6 2.7-5 3.4 0.5 4.6 6.7 2.2 6.2-2.4 8.6 7.8-3.6 7.1-12.3-0.6-9.2 0.9-8.1 2.4 1.2 1.4 10.7 1.3 5.7 4.4-4.9 3-8.9 0.8-11.9 3.5-2.9 2.7 6.3 1 4.5 2.9-1.7 1.9-3.8 1.8-9.6 2-5.8 0.3-8.6 3.4-9.4 1.3-0.9-2.1-2.6-2.3-6.3-0.1-3.8 2.3-9.8 7.2-8 3.4 1.9-3.8 14.5-8 13.9-9.5-0.6-1.5 3.4-3.3 5.7-5.2 2.4-2 4.5-4.5 2.1-3.6-2.5 0.9-5.1 2.3-7.2 4.8-2.2 2.4-8.4 5.5-6.7 2.9 1.7-2.7 4.4-5.3 4-6.4-0.4-1-2.2-2.2-3.1-1.3-0.9 0.9-0.6 6.1-2.4 4.8-1.8-1.3 1.5-3.2-0.3-3-1.8 0.2-4.4 0.1-7.5 2.6-3.1 2.5-4.1 2.3-2.7 4 1.3 1.7 1.7 0.4-0.5 3.3-2.3 2.9-3 2.8-3.3 4.3-0.3 1.5-1.9 2.2-4.3 3.2-2.4 1.1-2.7 0.3-4.2 1.9-1.5 1.6-7 2.2-4.1 2.8 2.8 0.7 7.9-1.4 8.2 0 0.3 1.5 5.4-0.6 0.3 1.5-5 2.1-6.9 0.6-8.2 2.8-1.2 2.2-0.8 2.5-4.1 4.2-3.3 1.8-6.8 3.2-5.7 0.9 1.2-2.3 0.1 0.2 2.3-4 2.3-4.1 5.4-6.4 2.3-4.1-3.1 2.4-1.8 2.3-4.2 3.5-2.4 1.1-0.5-0.5-2.4 1.1q-0.4 0.4-0.5 0.4c0.2-0.1 1.4-0.9 0.6 1-1.3 2.7 1.1 1.6-3.6 4.6-4.7 2.9-1.3 1.3-9.2 7.5-7.9 6.3-11 5.9-15.4 11.9-4.4 5.9-6.3 8.4-3.2 8.7 3.1 0.4-2.4 4.6 1.2 4.7 3.6 0.1-1.1-0.2 5.1-1.8 6.3-1.7 10.1-2.9 12.8-3.3 2.6-0.5 2 0.3 8.5-2.7 6.4-3 4.8-1.1 4.8-1.1 0 0-2.4 6-0.9 8.5 1.6 2.5 3.7 3.6 5.1 0.2 1.5-3.4 4.3-2.1 4.5-4.3 0.2-2.3-4.2-5.4-0.2-8.2 4-2.8 17.3-13.7 13.1-14.8-4.2-1.1-4.2-1.1-4.2-1.1 0 0 4.5-2.5 5.3-4.1 0.9-1.6-1.7-7.2 5.4-10.5 7-3.3 14.1-8 16.5-6 2.4 2 6.8-0.7 3.8 6.3 2.6 6.5 17.7-10.8 17.8-10.8 0 0 9.3 4.4 5.1 9.3-4.1 4.9 13.1 0.5 13.1 0.6q-2.4 2.2-4.9 4.4 4.9-1.4 9.7-2.7 0 0 0 0 0 0 0 0 0 0 0 0c0 0-3.1 4.4-2.5 6 0.6 1.7-9 9.1-4.5 7.7 4.5-1.3 7.3-5.6 9.8-3.6 2.5 2 7.1 6.7 2.5 8.2-4.7 1.6-3.2 0.8-4.9 0.3-1.7-0.6-1.2-1.7-3 0.6-1.8 2.2-0.7 3.4-3.1 3.2-2.4-0.1 1.6-2.5-0.2-2.8-1.9-0.3 1.5-1.5-4.9 1.1-6.3 2.7-7.9 3.1-7.9 3.1 0 0 8.5-10.6 8.2-11.5-0.3-0.9 5.2-5.8-2.9 0.1-8.1 5.9-17.5 7.1-16.9 8.5 0.5 1.3 8.6-0.9 6 0.8-2.6 1.8-7.2 1.4-10.8 2-3.7 0.7-5.3 2.6-7.7 4.5-2.5 2-9.1 7.7-6.8 6.1 2.4-1.6 11-8.1 13.2-7.9 2.1 0.1 2.4 2.1 0.7 3.7-1.8 1.6-7.1 5.1-1.7 3.9 5.4-1.3 7.3-2.6 8.6-2.1 1.4 0.5 3.5-0.9 5.8-3.4 2.2-2.5 4.6-3 4.3-0.2-0.3 2.9-1.5 3.4-6 5.5 0-0.1-9.4 3.2-5.7 3.7 3.6 0.5 13.2-4.3 7.8-0.7-5.4 3.6-8.9 3.6-12.5 5.2-3.6 1.8-3.2 1.3-4.4 3.3-1.1 2-5.2 5.9-4.8 2.1 0.4-3.8 10-8.9 3.6-6.3-6.4 2.6-8.2 3.7-10.9 7.5-2.7 3.8-8.1 2.7-5.4 6.6 2.6 3.8 5.9 2.8-1.9 6.6-7.8 3.8-8.2 4.2-9.4 6.4-1.3 2.2-3.4-0.1-7 5-3.6 5.1-3.8 5.3-3 9.1 0.8 3.8 3.3 4.1-0.5 7.6-3.7 3.5-4.8 4.2-10.6 10.9-5.8 6.7-8.3 12.7-8.1 14.6 2.1 1.2 11.2 11.4 7.1 13.8-4.1 2.5-11.2-0.3-10.2-5.2-3-1.2-5.8-3-7-0.9-1.1 2.1-1.3 2.8-2.5 2.3-1.1-0.4-10.6 1.7-13 5.7-2.3 4 4.5 1.4 0.8 4.3-3.6 2.9-5.1 2.4-10.6 4.7-5.5 2.4-2.9-0.7-6.9 3.5-4 4.2-3.8 4.1-5.2 7.5-1.5 3.4-6 3.5-4.9 7 1 3.4 1.4 7.7 2 11.3 0.6 3.6 8.7 13.6 17.3 6.9 8.6-6.6 10.7-9.8 9.6-14.4 4.3-4.8 11-8.6 11-8.6 0 0-0.6 14.2 0.4 16.1 0.9 2 13.4-10.3 15.8-7.7 2.3 2.5 3.5 9.8 4.8 11.9 1.3 2.2 7 7.7 14.9-2.3 9.2-6.7 9.7-1.4 9.7-1.1 0.3-0.3 4.8-5.1 3.7-8.1-1.2-3.1 4.6-6 7.2-8.8 2.6-2.7 5.2-6.6 6.2-5.6 1 0.8-3.3 5 0.9 2.8 4.2-2.1 8.2-5.5 9.8-3.8 1.6 1.6 8.7-6.4 11-5.5 2.2 0.8 9-4.8 12.5-2.9 3.4 1.9 13.1 1.7 19.3 4 6.3 2.3 3.8-4.2 12.6-4.1 8.8 0.1 11.9 2.5 14.8 5.4 2.8 2.9-0.7 5 8.7 3 9.4-1.9 18.2-2.5 17.6 0.4-0.7 2.9 14.6-7.7 20.1-4.3 5.6 3.3 16.5 1.5 16 5.1zm-269.8-89.5c-3.3-0.1-4.4 2-5.9 5-1.6 3.1-4.6 2.7-8.3 5.7 0 0-0.2 4 4.3 0.6 4.4-3.3 2.3-2.9 7.5-6.7 5.2-3.8 5.6-4.4 2.4-4.6zm30.2 12.8c0 0 0 0 2.6 0.1 2.6 0.1 0.7-1.8 1.2-3.8 0.5-2-1.2-2.7-4-1-2.8 1.6-1.9 3.3 0.2 4.7zm29.1 14.3c0.6-4.1 1.3-6.7 3.8-9.7 2.5-3 2-3.9-0.9-1.7-3 2.1-9.2 9.8-8.5 12.8 1.1 4.2 5 2.6 5.6-1.4zm-8.3-9.8c2.7-2.5 3.9-1 6.8-2.7 2.8-1.8 2.4-1.4 9.5-5.2 7.2-3.8-0.4-2.7-3.8-4.2-3.4-1.6-5.8 2.3-7.9 5.9-2.2 3.6-1.9 0.7-7.7 7 0 0 0.4 1.8 3.1-0.8zm18.9-6c-5.8 2.6-0.7 1 1.8 3.3 1.4 1.2 3.9 0.3 4.5-1.7 0.6-1.9 4.7-4 4.6-7.2-0.1-3.2-5 3-10.9 5.6zm15.8-3.8c-7.6 5.7-0.1 2.8-4.5 6.3-4.3 3.5-4.1 3.3-9.4 7.6 0 0-1.2 2.3 1.1 2.1 2.3-0.2 10.9-8.3 15.5-14.4 4.7-6.1 2.8-1.8 8.4-5.4 5.6-3.5-3.4-1.9-11.1 3.8zm-108.5-1.9c0.1 0 1 0.3 3.3-2.1 2.3-2.5 2.4-2.9 6.8-5.3 4.5-2.4 8.7-6.4 8.6-9.3-0.1-3-2.9 0.9-9.6 5.9-6.7 5-2.7 3.7-5.9 5.7-3.3 2.1-4 2.6-3.2 5.1z"/>
	<path class="s0" d="m357.1 414c0.2 0.5 0 1.1-0.5 1.5q0.1 0.2 0.1 0.4c0.5 1.2 4.8 0 4.3-1.5-0.4-1.2-2.3-1.4-3.9-0.4z"/>
	<g id="Clip-Path" clip-path="url(#cp5)">
		<g>
		</g>
	</g>
	<g id="Clip-Path" clip-path="url(#cp6)">
		<g>
		</g>
	</g>
	<g id="Clip-Path" clip-path="url(#cp7)">
		<g>
		</g>
	</g>
	<g id="Clip-Path" clip-path="url(#cp8)">
		<g>
		</g>
	</g>
	<g id="Clip-Path" clip-path="url(#cp9)">
		<g>
		</g>
	</g>
	<g id="Clip-Path" clip-path="url(#cp10)">
		<g>
		</g>
	</g>
	<g id="Clip-Path" clip-path="url(#cp11)">
		<g>
		</g>
	</g>
	<g id="Clip-Path" clip-path="url(#cp12)">
		<g>
		</g>
	</g>
	<g id="Clip-Path" clip-path="url(#cp13)">
		<g>
		</g>
	</g>
	<g id="Clip-Path" clip-path="url(#cp14)">
		<g>
		</g>
	</g>
</svg>