<svg version="1.2" xmlns="http://www.w3.org/2000/svg" viewBox="0 0 79 78" width="79" height="78">
	<title>10-svg</title>
	<defs>
		<clipPath clipPathUnits="userSpaceOnUse" id="cp1">
			<path d=""/>
		</clipPath>
		<clipPath clipPathUnits="userSpaceOnUse" id="cp2">
			<path d="m25-13h239v94h-239z"/>
		</clipPath>
		<clipPath clipPathUnits="userSpaceOnUse" id="cp3">
			<path d="m38.95 0.84h210.05v75.82h-210.05z"/>
		</clipPath>
		<clipPath clipPathUnits="userSpaceOnUse" id="cp4">
			<path d="m76.69 0.84h134.54c20.84 0 37.74 16.89 37.74 37.74 0 20.84-16.9 37.74-37.74 37.74h-134.54c-20.84 0-37.74-16.9-37.74-37.74 0-20.85 16.9-37.74 37.74-37.74z"/>
		</clipPath>
		<clipPath clipPathUnits="userSpaceOnUse" id="cp5">
			<path d="m1.01 0.84h77.52v76.32h-77.52z"/>
		</clipPath>
		<clipPath clipPathUnits="userSpaceOnUse" id="cp6">
			<path d="m8.51 0.84h62.42c1.98 0 3.89 0.79 5.3 2.2 1.4 1.4 2.19 3.31 2.19 5.3v61.32c0 1.99-0.79 3.9-2.19 5.3-1.41 1.41-3.32 2.2-5.3 2.2h-62.42c-1.99 0-3.9-0.79-5.3-2.2-1.41-1.4-2.2-3.31-2.2-5.3v-61.32c0-1.99 0.79-3.9 2.2-5.3 1.4-1.41 3.31-2.2 5.3-2.2z"/>
		</clipPath>
		<clipPath clipPathUnits="userSpaceOnUse" id="cp7">
			<path d="m20 9.31h50.96v48.69h-50.96z"/>
		</clipPath>
		<clipPath clipPathUnits="userSpaceOnUse" id="cp8">
			<path d="m8.07 13h55.93v55.75h-55.93z"/>
		</clipPath>
	</defs>
	<style>
		.s0 { fill: none;stroke: #000000;stroke-width: 1.5 } 
		.s1 { fill: #5271ff } 
		.s2 { fill: #ffffff } 
	</style>
	<g id="Clip-Path" clip-path="url(#cp1)">
		<g>
			<g>
				<g id="Clip-Path" clip-path="url(#cp2)">
					<g>
						<g id="Clip-Path" clip-path="url(#cp3)">
							<g>
								<g id="Clip-Path" clip-path="url(#cp4)">
									<g>
										<path fill-rule="evenodd" class="s0" d="m76.7 0.8h134.5c20.9 0 37.8 16.9 37.8 37.8 0 20.8-16.9 37.7-37.8 37.7h-134.5c-20.8 0-37.7-16.9-37.7-37.7 0-20.9 16.9-37.8 37.7-37.8z"/>
									</g>
								</g>
							</g>
						</g>
					</g>
				</g>
			</g>
		</g>
	</g>
	<g id="Clip-Path" clip-path="url(#cp5)">
		<g>
			<g id="Clip-Path" clip-path="url(#cp6)">
				<g>
					<path class="s1" d="m78.5 0.8v76.4h-77.5v-76.4z"/>
				</g>
			</g>
		</g>
	</g>
	<g id="Clip-Path" clip-path="url(#cp7)">
		<g>
			<path class="s2" d="m20.3 37.3c0-0.8 0.3-1.5 0.8-2.1 1.7-2.3 5.5-3.3 8.2-1.7 1.6 1 2.8 2.3 3.9 3.7 0.8 1.3 1.6 2.6 2.5 3.8q0.8-1.2 1.7-2.5c5.3-7.3 11-14.1 17.7-20.2 4.1-3.7 8.8-6.4 13.9-8.6 0.8-0.4 1.6-0.2 2.3 0.5q-0.5 0.5-1 1c-4.4 4.1-8.7 8.4-12.7 13-2.2 2.7-4.3 5.5-6.4 8.2-4.3 5.5-7.6 11.7-11.2 17.7q-2.1 3.4-4.3 6.8c-0.5 0.9-1.3 0.9-1.8 0-1.9-3-3.3-6.2-4.7-9.5-1.1-2.7-2.4-5.3-4-7.8-0.8-1.2-1.8-2.2-3.3-2.3-0.5-0.1-1.1 0-1.7 0z"/>
		</g>
	</g>
	<g id="Clip-Path" clip-path="url(#cp8)">
		<g>
			<path class="s2" d="m59.9 27.8l-4.3 4.3c1.2 2.8 1.9 5.8 1.9 9 0 12.1-9.7 21.8-21.8 21.8-12.1 0-21.8-9.7-21.8-21.8 0-12.1 9.7-21.8 21.8-21.8 3 0 5.9 0.6 8.5 1.7l4.3-4.3c-3.8-2-8.2-3.2-12.8-3.2-15.2 0-27.6 12.4-27.6 27.6 0 15.2 12.4 27.6 27.6 27.6 15.2 0 27.6-12.4 27.6-27.6 0-4.8-1.2-9.3-3.4-13.3z"/>
		</g>
	</g>
	<g>
		<g>
			<g>
			</g>
		</g>
	</g>
	<g>
		<g>
			<g>
			</g>
		</g>
	</g>
	<g>
		<g>
			<g>
			</g>
		</g>
	</g>
	<g>
		<g>
			<g>
			</g>
		</g>
	</g>
	<g>
		<g>
			<g>
			</g>
		</g>
	</g>
	<g>
		<g>
			<g>
			</g>
		</g>
	</g>
	<g>
		<g>
			<g>
			</g>
		</g>
	</g>
	<g>
		<g>
			<g>
			</g>
		</g>
	</g>
</svg>