<svg version="1.2" xmlns="http://www.w3.org/2000/svg" viewBox="0 0 208 169" width="208" height="169">
	<title>2-svg</title>
	<defs>
		<clipPath clipPathUnits="userSpaceOnUse" id="cp1">
			<path d="m8.54 1.15h192.46v156.85h-192.46z"/>
		</clipPath>
		<clipPath clipPathUnits="userSpaceOnUse" id="cp2">
			<path d="m8.54 1.15h192.46v157.42h-192.46z"/>
		</clipPath>
	</defs>
	<style>
		.s0 { fill: #eeeeee } 
		.s1 { fill: #fe696e } 
		.s2 { fill: #0a0147 } 
	</style>
	<g id="Clip-Path" clip-path="url(#cp1)">
		<g id="Layer">
			<path id="Layer" fill-rule="evenodd" class="s0" d="m200.7 117.7l-2.2 7.5-5.5-1.6c-1.1 1.9-2.4 3.5-4 4.9l2.7 5.1-4.5 2.4h-0.2v21.9h-54.7l-7.7-0.4v0.3h-94.5v-3.6h25.7v-2.2c0-0.5 0.4-1 1-1h5l5.9-10.6h-24.6c-1.5 0-2.7-1.2-2.7-2.7v-35.6c-3.7 0.7-7.7-0.4-10.5-3.3q-1.4-1.3-2.2-3h-18.9v-49h63.9v41.4h30c2.1 0 3.8 1.7 3.8 3.7v38.7l1.1 0.4c0 0 7.1-16.5 13.1-26.5 3.8-6.5 9.7-10.3 16.2-12.1 0.4-1.5 1.7-2.3 1.7-2.3 0 0-1.4-4.3-1.7-5.5-0.7 0.3-4.6 0.7-7.7 0.2-2.2-1.7-3-8-3-8 0 0-1.8-0.6-2-1.8-0.3-1.2 2.1-3.4 2.1-3.4 0 0 0.6-5.5 1.4-7.7 6.4 2.6 13.4 1.5 14.3 1.6-0.1 1.3 0.1 5.8 0.7 6.2 3.6-1.6 6.4 0.3 6.3 3.5-0.2 3.2-3.5 3.6-5.7 3.3 0.6 2.7 5.3 5 5.3 5 0 0 0.8 2.6 1.3 5.1 5.9 0.7 6.4 2.5 6.4 3.1 2.8 0.5 5.8 1.4 8.5 2.9l4.5-2.4 2.7 5c2-0.5 4.2-0.8 6.4-0.6l1.6-5.5 7.5 2.2-1.6 5.5c1.9 1.1 3.5 2.4 4.9 4l5.1-2.7 3.7 6.9-5.1 2.7c0.6 2 0.9 4.2 0.7 6.3zm-160.3-18.5v-3.3h-9.3q0.4 0.5 0.8 1c2.3 2.3 5.5 3 8.5 2.3zm38.1 52.9v2.1h44.9v-14.2c0 0-7.2 12.3-13.7 12.7-4.3 0.2-20.5-7.2-30.9-12.2h-0.5l-6 10.6h5.2c0.6 0 1 0.5 1 1zm101.9-48.7c-2.8-0.8-5.7-0.6-8.2 0.5l-0.1 0.2c0.7 2.3 1.1 5 1.1 8.2v0.1h3.1c5.4 0 9.8 3.9 10.6 9.1q1-1.5 1.6-3.3c1.8-6.3-1.8-12.9-8.1-14.8zm-84.4-47.8c4.6 0 8.3 3.7 8.3 8.3 0 4.5-3.7 8.2-8.3 8.2-4.5 0-8.2-3.7-8.2-8.2 0-4.6 3.7-8.3 8.2-8.3zm-64.9 44.5l-14 14c-0.9 0.9-1.9 0.8-2.6 0.1-0.6-0.6-0.7-1.6 0.2-2.5l13.9-13.9zm98.2-85.5c0-7.2 5.9-13 13.1-13 7.2 0 13 5.8 13 13 0 7.2-5.8 13-13 13-7.2 0-13.1-5.8-13.1-13zm-72.4 14.4c0-4.9 4-8.9 9-8.9h44.2c5 0 9 4 9 8.9 0 4.7-3.7 8.6-8.4 8.9l2.3 8.6-14.3-8.5h-32.8c-5 0-9-4.1-9-9z"/>
		</g>
	</g>
	<path id="Layer" fill-rule="evenodd" class="s1" d="m96 63.2c1 0 1.8-0.8 1.8-1.8 0-1-0.8-1.8-1.8-1.8-1 0-1.8 0.8-1.8 1.8 0 1 0.8 1.8 1.8 1.8zm3.2 4.8c0-2-1.4-3.6-3.2-3.6-1.7 0-3.2 1.6-3.2 3.6zm43.9-62.2v7.8h8c0 0 0.3-2.5-2.3-5.6-2.6-3.1-5.7-2.2-5.7-2.2zm-128.3 105.8c0 0-1.4 1.3-0.1 2.5 1.2 1.2 2.3 0.1 2.3 0.1l6.7-6.9-2.1-2.4zm37.8-8.3h40.5c0 0-0.2-1.4-1.4-1.4-1.2 0-38.3 0-38.3 0 0 0-0.8 0.3-0.8 1.4zm123.8 9h-33.4c-5.9 0-10.7 4.8-10.7 10.7v34.8h54.8v-34.8c0-5.9-4.8-10.7-10.7-10.7z"/>
	<g id="Clip-Path" clip-path="url(#cp2)">
		<g id="Layer">
			<path id="Layer" fill-rule="evenodd" class="s2" d="m200.9 117.7l-2.2 7.6q0 0-0.1 0.1-0.1 0-0.2 0l-5.3-1.6q-1.5 2.7-3.8 4.8l2.6 4.8c0.1 0.2 0 0.3-0.1 0.4l-4.5 2.4q0 0 0 0v21.7c0 0.1-0.2 0.2-0.3 0.2h-156.8c-0.2 0-0.3-0.1-0.3-0.2v-3.7c0-0.1 0.1-0.2 0.3-0.2h25.5v-1.8c0-0.7 0.6-1.3 1.4-1.3h4.7q0-0.1 0-0.1l5.6-10h-23.2c-2.3 0-4.1-1.9-4.1-4.1v-34.3q-0.9 0.1-1.8 0.1c-2.5 0-5-0.7-7.1-2.3l-14 14c-0.4 0.5-1 0.7-1.5 0.7q-0.7 0-1.3-0.6c-0.8-0.8-0.8-1.9 0.1-2.8l14-14q-0.6-0.7-1-1.4h-18.7c-0.2 0-0.3-0.2-0.3-0.3v-49c0-0.1 0.1-0.2 0.3-0.2h63.9c0.1 0 0.2 0.1 0.2 0.2v40.9h29.9c2.2 0 4 1.8 4 4.1v38.7l0.7 0.2c0.8-1.9 7.4-17 13-26.3 3.5-5.9 9.1-10.1 16.2-12.1q0 0 0 0c0-0.1 0.2-1.1 1.5-2.1q0 0 0 0l-1.4-5.3c-1.4 0.2-7.2 1.1-8.2-0.4-1.3-1.8-2.4-5.1-2.7-7.5-0.5-0.3-2.2-1.3-2.1-2.3 0.2-1 1.8-2.8 2.2-3.2 0.3-3 0.8-5.6 1.4-7.4-1.8-0.8-3-1.7-3.4-2.6-0.2-0.5-0.3-1.1 0.2-1.8q0 0-0.1 0c-2.4 0-3.8-1.1-3.9-2.4-0.1-1.2 1-2.7 3.9-3.1 0.2-0.7 0.8-1.3 1.5-1.7 1.7-1 5.4-1.8 13.3 0.4 11.4 3.1 17.5 6 16.8 12.7-0.4 5.1-6.4 16.7-7 17.9l1.4 4.9q0 0 0 0c5.6 0.6 6.3 2.6 6.5 3.1 2.7 0.5 5.5 1.4 8.1 2.9l4.5-2.4q0.1 0 0.1 0 0.1 0 0.2 0.1l2.6 4.9q3-0.9 6.1-0.7l1.6-5.3q0-0.1 0.1-0.1 0.1-0.1 0.2 0l7.5 2.2c0.1 0 0.2 0.1 0.1 0.3l-1.6 5.3q2.7 1.5 4.8 3.8l4.8-2.6c0.2-0.1 0.3 0 0.4 0.1l3.7 6.9q0 0 0 0.1 0 0.1-0.1 0.2l-4.9 2.6q0.8 3 0.7 6.1l5.3 1.6c0.1 0 0.2 0.1 0.1 0.2zm-62.3-27.7c1.5-0.9 4-1.7 8.3-1.7q1.5 0 2.8 0.1l-1.4-4.7c-1.9-0.8-3.5-2.1-4.6-3.7l-1-1.5q0-0.1 0-0.3 0.1-0.1 0.3 0c2.7 0.7 4.5-0.4 5.3-1.6 0.8-1.3 0.7-2.8-0.2-3.9-2.1-2.6-5.3-0.9-5.4-0.8q-0.1 0-0.2 0-0.1 0-0.1-0.1c-0.9-2.1-0.8-5.2-0.8-6.2-5.4 0.6-10.5-0.1-13.8-1.4-0.6 1.9-1.1 4.4-1.4 7.5q0 0-0.1 0.1c-0.5 0.6-1.9 2.2-2 3-0.1 0.6 1.1 1.4 1.9 1.8q0.1 0.1 0.2 0.2c0.2 2.4 1.3 5.6 2.5 7.5 0.7 1 5.3 0.6 8 0.1 0.1 0 0.3 0.1 0.3 0.2zm-60.7 30.8l-7.6 15.1c2.7 1.4 32.6 16.5 39.2 16.5q0.1 0 0.2 0c6.3-0.3 13.4-12.4 13.5-12.5q0.1-0.2 0.3-0.1c0.1 0 0.1 0.1 0.1 0.2v17.5q0 0.1 0 0.2h8.4v-34.6c0-6.1 4.9-11 11-11h29.9c0.1-9.3-3.6-14.4-8.3-17.2q-0.1 0-0.1 0c-5.6-3.4-12.7-3.5-16.4-3.5h-0.6c-6.9-0.1-19.7 1.5-26.7 13.2-5.9 9.9-12.9 26.4-13 26.6 0 0.1-0.2 0.1-0.3 0.1zm122.5-2.9l-5.3-1.6c-0.1 0-0.2-0.1-0.1-0.2q0.2-3.2-0.7-6.3c0-0.1 0-0.2 0.1-0.3l4.8-2.6-3.5-6.5-4.8 2.6c-0.1 0.1-0.2 0.1-0.3 0q-2.1-2.4-4.9-4c-0.1 0-0.1-0.1-0.1-0.2l1.6-5.3-7.1-2.1-1.6 5.3c0 0.1-0.1 0.1-0.2 0.1q-3.2-0.2-6.3 0.7c-0.1 0-0.2 0-0.2-0.1l-2.6-4.9-4 2.2c3 1.9 5.5 4.7 7 8.9 2.6-1.1 5.5-1.3 8.3-0.5 6.4 1.9 10.1 8.7 8.2 15.1q-0.6 1.8-1.6 3.3 0.1 0.8 0.1 1.6v12.6l4.2-2.2-2.7-4.9c0-0.1 0-0.2 0.1-0.3q2.4-2.1 4-4.8c0-0.1 0.1-0.2 0.2-0.1l5.3 1.5zm-158.3 18c0 0.9 0.8 1.7 1.7 1.7h8.4v-34.1c0-1 0.7-1.7 1.6-1.7h37.8c0.9 0 1.7 0.7 1.7 1.7v7h5.1c0.1 0 0.2 0.1 0.2 0.2v17l6.1 2.1v-37.3c0-1.4-1.1-2.5-2.5-2.5h-29.3v5.9c0 0.1-0.1 0.2-0.2 0.2h-23.7q-0.8 1.6-2.2 3c-1.3 1.4-3 2.3-4.7 2.9zm30.8-47.7v1.3h29.3c1.6 0 2.9 1.3 2.9 2.9v37.4q0 0.1 0 0.1l1.2 0.5v-38.6c0-2-1.6-3.6-3.5-3.6zm18.7 14h-37.8c-0.6 0-1.1 0.4-1.2 1h40.2c-0.2-0.6-0.6-1-1.2-1zm-39 35.3h19.8c-1.5-0.7-2.4-1.1-2.6-1.2-0.1-0.1-0.1-0.2-0.1-0.4l3.3-6.5c-4.8-0.9-7.7-5.7-8.1-6.4q-0.7-0.3-1.4-0.5c0 0.2 0 0.5-0.1 0.7q-0.2 0.3-0.6 0.4 0 0-0.1 0 0 0 0 0c-3.4-0.2-4.2-1.6-4.2-2.7 0-1.2 0.4-1.8 0.6-2.1-0.8-0.5-0.8-1.1-0.8-1.4 0-0.5 0.3-0.8 0.6-1.1q-0.3-0.2-0.4-0.4c-0.3-0.6-0.2-1.3 0.1-1.8 0.4-0.5 0.9-0.7 1.6-0.7 1.2 0.1 2.2 0.3 3 0.4-1.7-0.6-4-0.9-5.4-1.1q-0.7-0.1-1.2-0.2c-1.4-0.2-1.9-1.1-1.8-1.7 0.1-0.8 1-1.6 3.3-1.4 3.2 0.3 7.6 1 10.4 3.2 3.6 2.7 8.3 7.8 8.8 8.4l0.3-0.6c0-0.1 0.2-0.1 0.3-0.1l2.4 0.9v-10.5c0-0.1 0.1-0.2 0.2-0.2h12.3v-6.9h-40.2zm-8.5 2.8h33.9c-1.8-0.9-3.5-1.7-4.9-2.4q0 0.1-0.1 0.1h-29.3c-1.1 0-2.1-0.9-2.1-2.1v-33.8q-0.5 0.2-1.1 0.3v34.4c0 1.9 1.6 3.5 3.6 3.5zm36.6-29.4v10.4l17.5 6.2v-16.6zm-53.5-15.3c-0.7-1.4-1.1-2.9-1.2-4.5h-11.5c-0.1 0-0.2-0.1-0.2-0.2v-3.8c0-0.1 0.1-0.2 0.2-0.2h12.1c0.4-1.5 1.1-2.8 2.1-4h-1.6c-0.2 0-0.3-0.1-0.3-0.2v-7.2c0-0.2 0.1-0.3 0.3-0.3h39.8c0.1 0 0.2 0.1 0.2 0.3v7.2c0 0.1-0.1 0.2-0.2 0.2h-19.3c1 1.2 1.7 2.5 2.1 4h17.2c0.1 0 0.2 0.1 0.2 0.2v3.8c0 0.1-0.1 0.2-0.2 0.2h-16.7c0 1.6-0.4 3.1-1.1 4.5h23.2v-48.5h-63.4v48.5zm23-5h16.4v-3.3h-16.8q0.5 1.7 0.4 3.3zm-20.6-8.7c4.7-4.7 12.4-4.7 17.1 0q0.3 0.3 0.5 0.6h19.4v-6.8h-39.3v6.8h1.7q0.3-0.3 0.6-0.6zm-3.2 5.4h-11.7v3.3h11.3q0-1.6 0.4-3.3zm-3.1 20.1l-2.1-2.1-6.5 6.5c-0.7 0.8-0.8 1.6-0.1 2.2 0.6 0.7 1.4 0.6 2.2-0.1zm-1.8-2.4l2.1 2.1 7-7.1q-0.5-0.4-1.1-0.9-0.5-0.6-0.9-1.1zm20.1-3.4q0 0 0 0c1.7-0.6 3.3-1.5 4.7-2.9 4.5-4.5 4.5-11.9 0-16.5-2.3-2.3-5.3-3.4-8.3-3.4-3 0-5.9 1.1-8.2 3.4-4.6 4.6-4.6 12 0 16.5 3.2 3.2 7.7 4.1 11.8 2.9zm35.3 19.8q-0.1 0-0.1 0c-0.1-0.1-5-5.5-8.8-8.4-2.7-2.1-7-2.8-10.2-3.1-1.7-0.1-2.6 0.4-2.7 0.9 0 0.5 0.5 1 1.4 1.2q0.5 0 1.2 0.1c2.2 0.3 5.9 0.9 7.2 2.3q0 0 0 0 0 0 0 0 0 0 0 0 0.1 0.1 0.1 0.1 0 0 0 0 0 0.1 0 0.1 0 0 0 0 0 0.1 0 0.1 0 0 0 0 0 0-0.1 0 0 0.1 0 0.1 0 0 0 0 0 0 0 0-0.1 0-0.1 0 0 0 0 0.1-0.1 0-0.1 0 0 0 0-0.1-0.1 0-0.1 0c0 0-2-0.6-4.6-0.8-0.6-0.1-1 0.2-1.1 0.4-0.2 0.4-0.3 0.9-0.1 1.2 0.1 0.2 0.2 0.4 0.5 0.4 3.3 0.2 4.6 0.8 4.7 0.8 0.1 0.1 0.2 0.2 0.1 0.4q0 0.1-0.2 0.1-0.1 0-0.1 0c0 0-1.3-0.6-4.4-0.8-0.3 0.1-0.7 0.5-0.7 0.9-0.1 0.5 0.4 0.9 0.8 1.1 2.7 0.4 4.3 1 4.4 1 0.2 0.1 0.2 0.2 0.2 0.4q-0.1 0.1-0.3 0.1 0 0-0.1 0c0 0-1.7-0.6-4.3-0.9q0 0 0 0c-0.1 0-0.6 0.5-0.5 1.8 0 1.5 2 2 3.6 2.2q0.2-0.1 0.2-0.2c0.1-0.1 0.1-0.4 0.1-0.5q0 0 0-0.1c-0.9-0.2-1.6-0.3-2.3-0.4-0.2-0.1-0.3-0.2-0.3-0.3 0-0.2 0.2-0.3 0.3-0.3 1.4 0.2 2.6 0.4 4.6 1.2q0 0.1 0.1 0.2c0 0 2.9 5.3 7.9 6.2zm-14.9 29.5h10q0 0 0-0.1l5.5-9.9h-9.9zm-6.1 3h22.1v-1.7c0-0.5-0.4-0.9-0.9-0.9h-20.3c-0.5 0-0.9 0.4-0.9 0.9zm22.6-1.7v1.7h44.4v-13.1c-1.6 2.6-7.7 11.7-13.4 12q-0.1 0-0.3 0c-4.6 0-20.2-7.1-30.4-12.1h-0.7l-5.6 10.2h4.6c0.8 0 1.4 0.6 1.4 1.3zm-48.4 5.4h92.9q-0.1 0-0.1-0.1v-3.1h-92.8zm156.4-34.6q0-0.5 0-1.1-0.1 0-0.1 0-0.1 0-0.1 0c-0.1-0.1-0.2-0.2-0.1-0.3q0.1-0.1 0.2-0.3c-0.8-4.9-5.2-8.7-10.4-8.7h-33.3c-5.7 0-10.4 4.7-10.4 10.4v34.6h54.2zm-10.5-10.9c5.3 0 9.7 3.7 10.7 8.7q0.8-1.3 1.3-2.8c1.8-6.2-1.7-12.7-7.9-14.5-2.7-0.8-5.5-0.6-8 0.5 0.7 2.3 1.1 4.9 1.1 8.1zm-80.3-56.8c4.6 0 8.4 3.8 8.4 8.4 0 4.7-3.8 8.5-8.4 8.5-4.7 0-8.5-3.8-8.5-8.5 0-4.6 3.8-8.4 8.5-8.4zm0 0.4c-4.5 0-8.1 3.6-8.1 8 0 4.5 3.6 8.1 8.1 8.1 4.4 0 8-3.6 8-8.1 0-4.4-3.6-8-8-8zm0 8.5c1.8 0 3.4 1.7 3.4 3.7 0 0.2-0.2 0.3-0.3 0.3h-6.3c-0.1 0-0.2-0.1-0.2-0.3 0-2 1.5-3.7 3.4-3.7zm0 0.4c-1.6 0-2.9 1.4-3 3.1h5.9c-0.1-1.7-1.4-3.1-2.9-3.1zm0-5.3c1.1 0 2 0.9 2 2.1 0 1.1-0.9 2-2 2-1.2 0-2.1-0.9-2.1-2 0-1.2 0.9-2.1 2.1-2.1zm0 0.5c-0.9 0-1.6 0.7-1.6 1.6 0 0.8 0.7 1.5 1.6 1.5 0.8 0 1.5-0.7 1.5-1.5 0-0.9-0.7-1.6-1.5-1.6zm-81.7-3.9c0-2.2 1.8-3.9 3.9-3.9 2.1 0 3.8 1.7 3.8 3.9 0 2.1-1.7 3.8-3.8 3.8-2.1 0-3.9-1.7-3.9-3.8zm12.6 3.6v-7.3c0-0.1 0.1-0.2 0.2-0.2h39.9c0.1 0 0.2 0.1 0.2 0.2v7.3c0 0.1-0.1 0.2-0.2 0.2h-39.9c-0.1 0-0.2-0.1-0.2-0.2zm0.5-0.3h39.3v-6.7h-39.3zm-13.1 8.2c0-2.2 1.8-3.9 3.9-3.9 2.1 0 3.8 1.7 3.8 3.9 0 2.1-1.7 3.8-3.8 3.8-2.1 0-3.9-1.7-3.9-3.8zm12.6 3.6v-7.3c0-0.1 0.1-0.2 0.2-0.2h39.9c0.1 0 0.2 0.1 0.2 0.2v7.3c0 0.1-0.1 0.2-0.2 0.2h-39.9c-0.1 0-0.2-0.1-0.2-0.2zm0.5-0.3h39.3v-6.7h-39.3zm-13.1 8.1c0-2.1 1.8-3.8 3.9-3.8 2.1 0 3.8 1.7 3.8 3.8 0 2.2-1.7 3.9-3.8 3.9-2.1 0-3.9-1.7-3.9-3.9zm85 15.3l0.7-0.7-0.7-0.7c-0.1-0.1-0.1-0.2 0-0.3 0.1-0.1 0.3-0.1 0.4 0l0.7 0.7 0.7-0.7c0-0.1 0.2-0.1 0.3 0 0.1 0.1 0.1 0.2 0 0.3l-0.7 0.7 0.7 0.7c0.1 0.1 0.1 0.3 0 0.4q-0.1 0-0.2 0-0.1 0-0.1 0l-0.7-0.7-0.7 0.7q-0.1 0-0.2 0-0.1 0-0.2 0c-0.1-0.1-0.1-0.3 0-0.4zm-42.7-65.3c0-5.1 4.1-9.2 9.2-9.2h44.2c5.1 0 9.2 4.1 9.2 9.2 0 4.7-3.6 8.7-8.3 9.1l2.2 8.3q0.1 0.1 0 0.2-0.1 0.1-0.2 0.1 0 0-0.1-0.1l-14.2-8.4h-32.8c-5.1 0-9.2-4.1-9.2-9.2zm0.4 0c0 4.8 4 8.7 8.8 8.7h32.8q0.1 0 0.1 0l13.8 8.3-2.1-8q0-0.1 0-0.2 0.1-0.1 0.2-0.1c4.5-0.3 8.1-4.1 8.1-8.7 0-4.8-3.9-8.7-8.7-8.7h-44.2c-4.8 0-8.8 3.9-8.8 8.7zm72-14.4c0-7.3 5.9-13.3 13.2-13.3 7.4 0 13.3 6 13.3 13.3 0 7.3-5.9 13.2-13.3 13.2-7.3 0-13.2-5.9-13.2-13.2zm0.4 0c0 7 5.8 12.8 12.8 12.8 7.1 0 12.8-5.8 12.8-12.8 0-7.1-5.7-12.8-12.8-12.8-7 0-12.8 5.7-12.8 12.8zm3.7 0.8c0-4.6 3.7-8.3 8.3-8.3 0.2 0 0.3 0.1 0.3 0.2v7.8h7.8c0.1 0 0.2 0.2 0.2 0.3 0 4.6-3.7 8.3-8.3 8.3-4.6 0-8.3-3.7-8.3-8.3zm9.7-1.6v-8.1c0-0.1 0.1-0.2 0.2-0.2 4.6 0 8.4 3.7 8.4 8.3 0 0.1-0.1 0.2-0.3 0.2h-8.1c-0.1 0-0.2-0.1-0.2-0.2zm0.5-0.3h7.6c-0.1-4.1-3.5-7.5-7.6-7.6zm-98.5 83.5c-1.8 1.8-4.2 2.7-6.6 2.7-2.3 0-4.7-0.9-6.5-2.7-3.6-3.6-3.6-9.5 0-13.1 3.6-3.6 9.5-3.6 13.1 0 3.6 3.6 3.6 9.5 0 13.1zm-4.3-0.9v2.8q0.6-0.2 1.1-0.4v-2.4zm4.8-0.5c1-1.4 1.5-2.9 1.7-4.5h-17.5c0.1 1.6 0.6 3.1 1.6 4.5 0 0 14.2 0 14.2 0zm-7.1-14c-1.2 0-2.4 0.3-3.6 0.8h7.2c-1.1-0.5-2.4-0.8-3.6-0.8zm-8 5.2h16q-0.6-1.4-1.8-2.6-0.8-0.8-1.7-1.3 0 0 0 0h-8.9q-1 0.5-1.8 1.3-1.1 1.2-1.8 2.6zm-0.7 3.8h17.5c0-1.1-0.2-2.3-0.6-3.3h-16.4c-0.4 1-0.6 2.2-0.5 3.3zm10.6 8.4v-2.9h-8.6q0.2 0.3 0.5 0.5c2.2 2.2 5.2 3 8.1 2.4zm4.3-2.4q0.3-0.2 0.5-0.5h-2.8v2.2q1.3-0.6 2.3-1.7zm21.1-64.3c0-0.2 0.1-0.3 0.2-0.2 0.1 0 2.7 0.2 4.7-0.7q-0.1-0.1-0.2-0.3c-0.4-0.5-0.5-1.3-0.3-2 0.4-1.6 1.2-2.3 1.8-2.4 0.5-0.1 0.9 0 1.1 0.3 0.5 0.5 0.4 1.5 0 2.6-0.4 0.8-0.9 1.4-1.6 1.9q0.8 0.4 2 0.6c1.1 0.1 2.3-0.2 3.3-0.7q0-0.1-0.1-0.1-0.8-1-0.5-2.5c0.5-2.2 1.6-3.2 2.4-3.4 0.5-0.1 0.9 0 1.2 0.3 0.5 0.7 0.4 2-0.3 3.6-0.5 0.9-1.1 1.6-1.9 2.2 0.7 0.4 1.8 0.6 3 0.6q1.1-0.1 2-0.5-0.5-0.3-0.7-0.8-0.4-0.7-0.1-1.5c0.4-1.4 1.2-2.1 1.9-2.2 0.4-0.1 0.8 0 1 0.3 0.3 0.3 0.6 1 0.1 2.4q-0.4 1.1-1.3 1.8 0.2 0.1 0.4 0.1c1.4 0.4 3.4 0 3.9-0.8 0.1-0.1 0.3-0.1 0.4 0 0.1 0 0.1 0.2 0 0.3-0.7 1-3 1.4-4.4 1q-0.4-0.1-0.8-0.3-1 0.6-2.4 0.7-0.2 0-0.4 0c-1.2 0-2.3-0.3-3-0.9-1.2 0.7-2.5 0.9-3.7 0.8q-1.6-0.1-2.4-0.8c-2.2 1.1-5 0.8-5.1 0.8-0.1 0-0.2-0.1-0.2-0.2zm17.2-1c0.6-0.4 1.1-1 1.4-1.7 0.3-0.8 0.3-1.5 0-1.8q-0.2-0.2-0.5-0.2-0.1 0-0.1 0c-0.5 0.1-1.2 0.6-1.6 1.8q-0.2 0.7 0.1 1.2 0.2 0.4 0.7 0.7zm-6-0.3q0.1 0.1 0.2 0.2c0.8-0.5 1.4-1.2 1.8-2.1 0.8-1.7 0.7-2.7 0.4-3.1-0.1-0.2-0.3-0.2-0.5-0.2q-0.1 0-0.2 0c-0.7 0.2-1.7 1.2-2.1 3.1q-0.2 1.2 0.4 2.1zm-6.2-0.1q0.1 0.1 0.3 0.3c0.7-0.4 1.2-1 1.6-1.8 0.3-0.9 0.4-1.7 0.1-2.1q-0.2-0.2-0.5-0.2-0.1 0-0.2 0c-0.5 0.2-1.2 0.7-1.5 2.1-0.2 0.6-0.1 1.2 0.2 1.7zm22.1-5.3c0-0.1 0.1-0.2 0.3-0.2h17.1c0.2 0 0.3 0.1 0.3 0.2 0 0.1-0.1 0.2-0.3 0.2h-17.1c-0.2 0-0.3-0.1-0.3-0.2zm0 3.4c0-0.1 0.1-0.2 0.3-0.2h17.1c0.2 0 0.3 0.1 0.3 0.2 0 0.1-0.1 0.2-0.3 0.2h-17.1c-0.2 0-0.3-0.1-0.3-0.2zm0 3.4c0-0.1 0.1-0.2 0.3-0.2h17.1c0.2 0 0.3 0.1 0.3 0.2 0 0.1-0.1 0.2-0.3 0.2h-17.1c-0.2 0-0.3-0.1-0.3-0.2zm-10.5 82.5c0-1.5 0.6-2.6 2-2.6 1.1 0 1.7 0.6 1.7 1.7 0 0.8-0.2 1.8-1 1.8-0.3 0-0.5-0.1-0.5-0.4-0.2 0.3-0.4 0.4-0.6 0.4-0.4 0-0.6-0.2-0.6-0.6q0-0.1 0-0.2l0.1-0.8c0-0.5 0.3-0.7 0.6-0.7q0.4 0 0.6 0.3v-0.3h0.6l-0.2 1.6q0 0 0 0.1 0 0.1 0.1 0.1c0.3 0 0.4-0.8 0.4-1.3 0-0.8-0.4-1.2-1.2-1.2-1.1 0-1.5 0.9-1.5 2.2 0 0.9 0.6 1.4 1.5 1.4 0.4 0 0.7 0 1.1-0.3l-0.1 0.6c-0.3 0.2-0.6 0.2-1 0.2-1.3 0-2-0.7-2-2zm2.1 0l0.1-0.5v-0.1c0-0.2-0.1-0.4-0.3-0.4-0.2 0-0.3 0.2-0.3 0.4v0.7q-0.1 0-0.1 0.1 0 0.2 0.3 0.2c0.2 0 0.3-0.1 0.3-0.4z"/>
		</g>
	</g>
</svg>