<svg version="1.2" xmlns="http://www.w3.org/2000/svg" viewBox="0 0 326 283" width="326" height="283"><style>.a{fill:#fff}</style><path fill-rule="evenodd" class="a" d="m232.1 186.7q-1.2 1.1-2.4 2.1-2.6 2.1-5.2 4-0.4 0.3-0.7 0.5c-0.6 0.4-1.1 0.8-1.8 1.3q-0.5 0.3-1 0.6l-0.6 0.4q-3.5 2.3-7.1 4.3c-31.2 17.1-68.7 17-99.9-0.2q-4.4-2.4-8.6-5.3-0.9-0.6-1.8-1.3-0.3-0.2-0.6-0.4c-4.3-3-8.3-6.5-12.2-10.3-11.5-11.5-19.9-25.1-24.9-39.6q-1.7-5-2.9-10.1-0.1-0.4-0.2-0.9-1.1-4.7-1.7-9.6c-2.1-16.3-0.4-33 5.2-48.6q1.9-5.4 4.5-10.6c4.8-9.9 11.3-19.2 19.6-27.5 19.5-19.7 45.6-30.6 73.3-30.7h0.4c27.6 0 53.6 10.7 73.2 30.1 8.5 8.5 15.4 18.1 20.4 28.4q2.5 5.2 4.4 10.6c5.6 15.6 7.3 32.3 5.1 48.6-0.4 3.2-1 6.4-1.7 9.6q-0.1 0.4-0.3 0.9-1.2 5.1-3 10.1c-3.9 11-9.7 21.6-17.5 31.1-2.1 2.6-4.4 5.2-6.9 7.7-1.4 1.4-2.8 2.8-4.6 4.3q-0.2 0.3-0.5 0.5zm-1.6-9.9l0.8-0.8q3.3-3.4 6.3-7 0.3-0.5 0.7-0.9 1.1-1.4 2.2-2.8c0-0.1 0.1-0.2 0.2-0.3q0.7-1 1.4-2 0.6-1 1.3-1.9 0.7-1.1 1.4-2.3 1.2-1.9 2.3-3.9 3.3-6 5.7-12.3h0.1q1.8-4.8 3-9.7 0.1-0.3 0.2-0.6 1.3-5 2-10.1 1-6.9 0.9-13.9c0-11.7-2.1-23.1-6.2-33.7q-1.9-5-4.4-9.8-2.9-5.7-6.6-11-1.4-1.9-2.9-3.8-1.1-1.5-2.3-2.9-1.2-1.4-2.4-2.7-0.9-1-1.8-1.9-0.8-0.8-1.6-1.7c-7.9-7.8-17-14.1-26.7-18.6q-4.2-2-8.5-3.6c-13.4-4.7-27.7-6.5-42.1-4.9-1.3 0.1-2.6 0.3-3.6 0.4-1.1 0.1-2.2 0.3-3.5 0.6q-0.4 0.1-0.9 0.1-0.4 0.1-0.8 0.2-0.1 0-0.1 0-0.4 0.1-0.7 0.2-0.4 0.1-0.7 0.1c-1.1 0.2-2.2 0.5-2.8 0.7-1.5 0.3-2.9 0.7-4.2 1.1q-1.8 0.5-3.8 1.2l-0.7 0.3c-1 0.3-2 0.7-3.2 1.2q-0.1 0-0.3 0.1-0.5 0.2-0.9 0.3-0.5 0.2-1 0.5c-0.1 0-0.3 0.1-0.3 0.1-1.4 0.5-2.7 1.2-4.1 1.9-1.3 0.6-2.6 1.2-3.7 1.9q-2.9 1.5-5.7 3.3-1.9 1.2-3.8 2.4-2.2 1.6-4.4 3.4-2.2 1.7-4.3 3.6c-0.9 0.8-1.9 1.6-2.6 2.4q-0.4 0.3-0.6 0.6-0.6 0.5-1.2 1.1c-5.7 5.8-10.6 12.2-14.5 18.9q-0.3 0.6-0.7 1.1-0.9 1.6-1.7 3.2-1 2-2 4-0.9 2.1-1.8 4.2-0.3 0.8-0.6 1.6-0.9 2.5-1.7 5c-0.5 1.4-0.9 2.9-1.3 4.3q-0.8 3.1-1.4 6.2-1 4.6-1.4 9.4c-0.8 7.5-0.6 15.1 0.4 22.6q0.7 5.1 2 10.1 0 0.3 0.1 0.6 1.3 4.9 3.1 9.7c4.4 11.8 11.2 23 20.5 32.6q0.7 0.7 1.4 1.4c0.1 0.1 0.7 0.7 0.7 0.7q0.1 0.1 0.2 0.2c1.8 1.7 3.6 3.4 5.6 5q2 1.7 4 3.1 1.9 1.5 3.8 2.7 0 0 0.1 0.1 0.5 0.3 0.9 0.6c0.8 0.5 1.6 1 2.3 1.5q0.3 0.1 0.4 0.2 0.5 0.3 1 0.6 0.5 0.3 1 0.6 1 0.5 1.9 1 0.5 0.3 0.9 0.5 0 0 0.1 0 0.5 0.3 1 0.6 0.2 0.1 0.4 0.2 0.5 0.3 1 0.5 0.2 0.1 0.4 0.2c0.1 0.1 0.2 0.1 0.2 0.1l0.3 0.1 0.7 0.4q1.3 0.6 2.7 1.2 0.1 0 0.3 0.1l0.3 0.1c1.4 0.6 2.7 1.2 3.9 1.6q0.2 0 0.3 0.1 0.1 0 0.3 0.1c1.1 0.4 2.2 0.8 3.4 1.1 0.4 0.2 0.9 0.4 1.2 0.4q1.2 0.4 2.4 0.7 2.2 0.7 4.5 1.2 1.1 0.3 2.3 0.5l4.6 0.8q0.9 0.1 1.9 0.3c1.7 0.2 3.5 0.4 5.5 0.5q1.8 0.2 3.7 0.2 0.6 0.1 1.2 0.1 1.1 0 2.2 0c0.2 0 1.2 0 1.4 0q0.4 0 0.8 0 0.6 0 1.3 0 3.5-0.1 7.2-0.6 0.9-0.1 1.8-0.2 0.9-0.1 1.8-0.3c6.2-0.9 12.1-2.4 17.8-4.4q1.4-0.5 2.7-1.1 1.4-0.5 2.8-1.1c1.3-0.5 2.6-1.1 3.8-1.8 0.1 0 0.2 0 0.2 0l0.1-0.1c2.6-1.3 5.2-2.7 7.6-4.2q1.3-0.8 2.5-1.6c3.2-2 6.4-4.3 9.3-6.8q1-0.8 2-1.7 1.7-1.4 3.3-3.1 0.3-0.2 0.5-0.4zm85.4 89.3c2.2 2.2 2.2 5.8 0.1 8l-4.9 4.9c-2.2 2.2-5.8 2.2-8 0l-46.5-46.2c-1.1-1-1.7-2.4-1.7-3.9q0-0.3 0-0.5c0.1-1.4 0.7-2.6 1.6-3.5l4.9-4.9c1-1 2-1.6 3.5-1.7q0.2 0 0.5 0c1.5 0 2.9 0.6 4 1.6l46.5 46.3zm-63.7-51.9l1 0.9-3.6 3.6-8.7-8.7-9.3-9.2q1.3-0.9 2.5-2 0.7-0.5 1.4-1.1c0.1 0 0.1 0 0.1 0l0.1 0.1 13.6 13.5zm5.5-13c-1.2 0-2.3 0-3.6-0.1l-10.5-10.5q0.6-0.6 1.2-1.2c2.8-2.8 5.3-5.7 7.6-8.5 10-12.2 17-26 21.2-40.3q4-1.4 7.6-3.8c7.4 3 14.3 7.5 20.1 13.2 8 8 13.4 17.9 15.8 28.9q-1.5 1.3-3 2.6c-3.3 2.8-6.9 5.3-10.5 7.5-2.3 1.3-4.6 2.6-6.8 3.7l-0.7 0.4c-1 0.4-1.9 0.8-3 1.3-6.4 2.8-13.3 4.8-20.6 5.9q-3.2 0.5-6.5 0.7-2.1 0.2-4.1 0.2zm-19.4-52.2q-1.5 2.7-3.2 5.4-0.9 1.3-1.8 2.6-0.6 0.8-1.2 1.7-0.6 0.9-1.3 1.7-0.6 0.9-1.3 1.7 0 0-0.1 0.1c-1.8-5.6-4.3-10.9-7.5-15.8q7.2-6 16.2-9.6 2.2 1.5 4.6 2.6-1.4 3.4-3 6.8-0.7 1.4-1.4 2.8zm39.9-40.3c0-10.5-1.5-21-4.4-31.2 9.1 5 15.2 14.7 15.2 25.7 0 8.6-3.8 16.4-9.7 21.8q-1.2 1.1-2.6 2.1 0.2-1.4 0.4-2.7 1.1-7.8 1.1-15.7zm-38.2 16.3c-6-5.4-9.7-13.2-9.7-21.8 0-10 5-18.9 12.7-24.2 5.3 14.2 6.7 29.5 4.1 44.3q-0.5 2.9-1.2 5.8c-2.2-1.1-4.1-2.5-5.9-4.1zm-96.2-7.7c-6-5.4-9.7-13.2-9.7-21.8 0-16.2 13.2-29.3 29.4-29.3 16.2 0 29.3 13.1 29.3 29.3 0 8.7-3.7 16.4-9.7 21.8-5.2 4.7-12.1 7.6-19.6 7.6-7.6 0-14.5-2.9-19.7-7.6zm70.4 36.8c3.1 5.3 5.4 11 6.7 17.1q-0.2 0.2-0.5 0.5-0.2 0.2-0.5 0.4-0.3 0.3-0.6 0.5-0.7 0.6-1.4 1.2c-2.7 2.2-5.4 4.3-8.3 6.2q-1.1 0.7-2.2 1.3-0.7 0.4-1.4 0.9c-1.8 1-3.6 2-5.3 2.8l-0.2 0.1-0.7 0.3c-0.9 0.4-1.8 0.9-2.8 1.3q-0.7 0.3-1.4 0.6c-6 2.5-12.5 4.3-19.3 5.3q-0.8 0.1-1.6 0.2-2.4 0.4-4.8 0.6-1.2 0-2.3 0.1c-0.3 0-0.7 0-1 0q-0.4 0.1-0.9 0.1h-0.6q-1.7 0.1-3.6 0-0.6 0-1.1-0.1c-0.3 0-0.7 0-1.1 0q-0.6 0-1.1-0.1-1.7-0.1-3.4-0.3-1.2-0.1-2.3-0.2-0.3 0-0.5-0.1-0.6-0.1-1.2-0.2l-4.3-0.7h-0.1q-2.2-0.4-4.4-1-1.7-0.5-3.4-1.1c-0.1 0-0.6-0.1-0.6-0.1q-0.2-0.1-0.3-0.2-0.2 0-0.3-0.1-0.1 0-0.2 0c-1.1-0.4-2.1-0.7-3.2-1.1q0 0-0.1 0-1.4-0.5-2.7-1.1-0.3-0.1-0.5-0.2l-0.7-0.3q-0.1 0-0.1 0-1.3-0.6-2.5-1.2l-0.9-0.4c-1.2-0.5-2.3-1.1-3.5-1.8q-0.5-0.2-0.9-0.5-0.6-0.3-1.3-0.7-0.6-0.4-1.3-0.8-0.1-0.1-0.2-0.1c-1-0.6-1.9-1.2-3-2-1.8-1.1-3.5-2.4-5.3-3.7q-0.9-0.8-1.8-1.5-0.6-0.5-1.1-1-1.1-0.9-2.1-1.9c1.4-6.1 3.7-11.9 6.8-17.2q2.8-4.7 6.4-8.8c6.1-6.9 13.8-12.5 22.7-15.9 6.3 4 13.7 6.3 21.6 6.3 7.9 0 15.3-2.3 21.5-6.3 7.5 2.9 14.4 7.4 20.1 13.1q1.4 1.4 2.7 3c2.4 2.7 4.6 5.7 6.4 8.8zm-125.3-17.5c5.8 2.2 11.3 5.5 16.2 9.6-3.2 4.9-5.8 10.2-7.6 15.9q-1.2-1.5-2.4-3-0.6-0.9-1.2-1.7-1.8-2.7-3.5-5.4-3.6-6.2-6.2-12.9 2.5-1.1 4.7-2.5zm-1.9-11.9c-1.8 1.6-3.8 3-5.9 4.2q-0.2-0.5-0.3-1-0.1-0.4-0.2-0.9-0.4-2-0.8-4-0.4-2.8-0.7-5.7-0.1-0.4-0.1-0.7c-0.4-3.9-0.5-7.7-0.3-11.5q0.1-1.8 0.2-3.5v-0.1q0.2-1.7 0.4-3.4 0.5-4.5 1.6-8.8 0.4-1.8 0.8-3.5 0.5-1.7 1.1-3.4 0.3-0.9 0.5-1.7 0.4-1 0.7-1.9c7.7 5.3 12.7 14.1 12.7 24.1 0 8.7-3.7 16.4-9.7 21.8zm-39.3 0c-6-5.4-9.7-13.1-9.7-21.8 0-11.1 6.3-20.8 15.4-25.8-4.3 15.3-5.5 31.3-3.4 47q0.2 1.4 0.4 2.8-1.4-1-2.7-2.2zm35.1 65.3q4.1 4 8.5 7.6-5.4 1.5-11.1 2.4c-2.1 0.3-4.2 0.6-6.5 0.7-1.3 0.1-2.7 0.3-4.1 0.3h-4.2c-1.4-0.1-2.8-0.2-4.5-0.3-2.1-0.1-4.2-0.4-6.2-0.7l-4.4-0.8q-3.8-0.7-7.8-2c-0.1 0-0.6-0.2-0.6-0.2q-0.3-0.1-0.6-0.2-1.7-0.5-3.4-1.1c-1.1-0.4-2.1-0.8-3.2-1.3l-0.8-0.3c-0.9-0.4-1.8-0.8-2.8-1.2l-0.8-0.4c-1.1-0.5-2.2-1.1-3.4-1.8-1.1-0.6-2.2-1.2-3.5-2-1.1-0.6-2.1-1.3-3.2-2.1-2.4-1.5-4.7-3.2-7.1-5.2q-1.7-1.4-3.2-2.9c4.2-19 17.6-34.8 35.9-41.9q3.6 2.3 7.6 3.8c5.2 18.2 15 35.3 29.4 49.6z"/></svg>