<svg version="1.2" xmlns="http://www.w3.org/2000/svg" viewBox="0 0 250 251" width="250" height="251"><defs><clipPath clipPathUnits="userSpaceOnUse" id="cp1"><path d="m246.7 4.1v243h-242.61v-243z"/></clipPath></defs><style>.a{fill:#fff}</style><g clip-path="url(#cp1)"><path fill-rule="evenodd" class="a" d="m146.5 18.7l25.2-5.4 14.1 21.6 25.2 4.8 4.7 25.2 21.6 14.1-5.2 25.3 14.4 21.2-14.4 21.3 5.2 25.2-21.6 14.1-4.7 25.2-25.2 4.9-14.1 21.4-25.2-5.2-21.2 14.5-21.2-14.5-25.2 5.2-14.1-21.4-25.2-4.9-4.7-25.2-21.6-14.1 5.2-25.2-14.4-21.3 14.4-21.2-5.2-25.3 21.6-14.1 4.7-25.2 25.2-4.8 14.1-21.6 25.2 5.4 21.2-14.6zm62.1 106.8c0-46.1-37.2-83.4-83.3-83.4-46.1 0-83.3 37.3-83.3 83.4 0 46.2 37.2 83.5 83.3 83.5 46.1 0 83.3-37.3 83.3-83.5zm-29.9-22.6l-56.8 60.7-7.6 8-8.3-7.3-34.1-30.4 15.2-16.9 25.8 23 49.2-52.7z"/></g></svg>