<svg version="1.2" xmlns="http://www.w3.org/2000/svg" viewBox="0 0 378 281" width="378" height="281"><defs><clipPath clipPathUnits="userSpaceOnUse" id="cp1"><path d="m3.08 7h373.92v269.82h-373.92z"/></clipPath></defs><style>.a{fill:#fff}</style><g clip-path="url(#cp1)"><path fill-rule="evenodd" class="a" d="m341.9 30.5l-181.8 107.3c-1.7 1-3.9 1.1-5.8 0.1l-54.4-28-56.3 47.3c-2.6 2.2-6.4 1.8-8.5-0.7-2.2-2.6-1.8-6.4 0.7-8.5l59.4-49.9c1.9-1.6 4.5-1.9 6.6-0.8l55.1 28.4 178.6-105.4-3.1-0.9c-3.1-0.9-5-4.2-4.1-7.4 0.9-3.2 4.2-5.1 7.4-4.2l17.4 4.9c3.2 0.9 5.1 4.2 4.2 7.4l-4.9 17.5c-0.9 3.2-4.2 5.1-7.4 4.2-3.2-0.9-5.1-4.3-4.2-7.5zm-172.3 234.2l11.7 0.2c3.3 0.1 6 2.8 5.9 6.2 0 3.3-2.8 5.9-6.1 5.9l-171.9-3c-3.3-0.1-6-2.8-5.9-6.1 0-3.4 2.8-6 6.1-6l11.7 0.2 1-54.4 31.5 0.6-1 54.4 27 0.5 1.9-107.6 31.5 0.5-1.9 107.6 27 0.5 1.5-86.1 31.5 0.5zm187.1-109.1h14.1c3.4 0 6.1 2.7 6.1 6.1 0 3.3-2.7 6-6.1 6h-165.8c-3.4 0-6.1-2.7-6.1-6 0-3.4 2.7-6.1 6.1-6.1h15.5v-29.3l28.9-16.7v46h24.7v-60.3l28.9-16.6v76.9h24.8v-91.2l28.9-16.7z"/></g></svg>