<svg version="1.2" xmlns="http://www.w3.org/2000/svg" viewBox="0 0 79 78" width="79" height="78">
	<title>9-svg</title>
	<defs>
		<clipPath clipPathUnits="userSpaceOnUse" id="cp1">
			<path d=""/>
		</clipPath>
		<clipPath clipPathUnits="userSpaceOnUse" id="cp2">
			<path d="m11-13h239v94h-239z"/>
		</clipPath>
		<clipPath clipPathUnits="userSpaceOnUse" id="cp3">
			<path d="m24.77 0.79h210.48v75.92h-210.48z"/>
		</clipPath>
		<clipPath clipPathUnits="userSpaceOnUse" id="cp4">
			<path d="m62.55 0.79h134.72c20.87 0 37.8 16.92 37.8 37.79 0 20.87-16.93 37.79-37.8 37.79h-134.72c-20.87 0-37.78-16.92-37.78-37.79 0-20.87 16.91-37.79 37.78-37.79z"/>
		</clipPath>
		<clipPath clipPathUnits="userSpaceOnUse" id="cp5">
			<path d="m0.92 0.79h77.62v76.42h-77.62z"/>
		</clipPath>
		<clipPath clipPathUnits="userSpaceOnUse" id="cp6">
			<path d="m8.41 0.79h62.52c1.99 0 3.9 0.79 5.3 2.19 1.41 1.41 2.2 3.32 2.2 5.31v61.42c0 1.99-0.79 3.9-2.2 5.31-1.4 1.4-3.31 2.19-5.3 2.19h-62.52c-1.98 0-3.89-0.79-5.3-2.19-1.4-1.41-2.19-3.32-2.19-5.31v-61.42c0-1.99 0.79-3.9 2.19-5.31 1.41-1.4 3.32-2.19 5.3-2.19z"/>
		</clipPath>
		<clipPath clipPathUnits="userSpaceOnUse" id="cp7">
			<path d="m11.79 11.12h49.21v48.88h-49.21z"/>
		</clipPath>
		<clipPath clipPathUnits="userSpaceOnUse" id="cp8">
			<path d="m34 33h33.87v34h-33.87z"/>
		</clipPath>
	</defs>
	<style>
		.s0 { fill: none;stroke: #000000;stroke-width: 1.5 } 
		.s1 { fill: #f4505d } 
		.s2 { fill: #ffffff } 
	</style>
	<g id="Clip-Path" clip-path="url(#cp1)">
		<g>
			<g>
				<g id="Clip-Path" clip-path="url(#cp2)">
					<g>
						<g id="Clip-Path" clip-path="url(#cp3)">
							<g>
								<g id="Clip-Path" clip-path="url(#cp4)">
									<g>
										<path fill-rule="evenodd" class="s0" d="m62.6 0.8h134.7c20.8 0 37.8 16.9 37.8 37.8 0 20.8-17 37.8-37.8 37.8h-134.7c-20.9 0-37.8-17-37.8-37.8 0-20.9 16.9-37.8 37.8-37.8z"/>
									</g>
								</g>
							</g>
						</g>
					</g>
				</g>
			</g>
		</g>
	</g>
	<g id="Clip-Path" clip-path="url(#cp5)">
		<g>
			<g id="Clip-Path" clip-path="url(#cp6)">
				<g>
					<path class="s1" d="m0.9 0.8h77.6v76.4h-77.6z"/>
				</g>
			</g>
		</g>
	</g>
	<g id="Clip-Path" clip-path="url(#cp7)">
		<g>
			<path fill-rule="evenodd" class="s2" d="m17.5 51.1c-3.6-4.3-5.7-9.7-5.7-15.6 0-13.5 11-24.3 24.4-24.3 13.5 0 24.4 10.9 24.4 24.4 0 3.6-0.8 7-2.2 10.1 0.1-1.4 0-2.8-0.3-4.1 0.5-1.9 0.8-4 0.8-6.1 0-1.2-0.1-2.4-0.3-3.6-0.7 0-1.3-0.4-1.8-0.7-0.4-0.3-0.8-0.6-1.1-0.5-0.1 0-0.2 0.2-0.3 0.4-0.2 0.2-0.4 0.5-0.7 0.7-0.4 0.4-1 0.6-1.6 0.6-0.8 0-1.7-0.4-2.1-0.9-0.9-1-1.2-2.2-1.4-3.2-0.1-0.5-0.2-1.1-0.5-1.5-0.2-0.2-0.6-0.4-1-0.5-0.6-0.2-1.2-0.5-1.6-0.9-0.5-0.6-0.6-1.3-0.6-1.9 0-0.2-0.1-0.5-0.1-0.7-0.5-0.3-1.2-0.1-1.7 0.1q-0.3 0.1-0.6 0.2c0-0.5-0.2-1.1-0.4-1.7 0.1 0 0.2 0 0.3-0.1 1.3-0.5 2.6-0.5 3.5 0.2 0.5 0.5 0.6 1.2 0.7 1.8 0 0.3 0 0.8 0.2 0.9 0.1 0.1 0.5 0.3 0.8 0.4 0.7 0.2 1.4 0.5 1.9 1.1 0.5 0.8 0.6 1.5 0.8 2.3 0.1 0.8 0.3 1.7 0.8 2.2 0.5 0.5 1.2 0.6 1.5 0.3q0.1-0.1 0.3-0.4c0.2-0.3 0.5-0.7 1.1-1 1-0.5 2 0.1 2.7 0.6q0.2 0.1 0.4 0.2c-2.4-9.8-11.3-17.1-21.9-17.1-2.4 0-4.8 0.4-6.9 1.1 0 1.1 0.3 1.3 2 1.3 0.9 0 1.8 0 2.6 0.5 0.8 0.4 1.2 1 1.5 1.6q-0.9 0.1-1.7 0.5-0.1-0.4-0.6-0.6c-0.4-0.3-1.1-0.3-1.8-0.3-1.3 0-3.4 0-3.7-2.4-3.6 1.5-6.7 3.9-9.2 6.9 1.1 0.5 1.8 1.6 2.3 2.4 0.3 0.4 0.7 1.2 0.9 1.1 2-0.1 3.5 0.9 4.3 2.9 0.3 0.7 0.1 1.4-0.1 1.9-0.2 0.7 0.1 1.5 0.6 1.9 1.2 1 1.7 2.3 1.3 3.5-0.1 0.4-0.4 0.8-0.6 1q-0.2 0.3-0.3 0.6c-0.2 0.5-0.1 1 0 1.7 0.1 0.7 0.2 1.5 0 2.3-0.3 1.3-1.2 2.5-2.3 3.3-1 0.7-1.1 1.8-1 3.6 0.1 1.6 0.1 3.3-1.1 4.6-0.2 0.2-0.5 0.4-0.8 0.5 3.9 3.3 9 5.4 14.6 5.4q3.7 0 7-1.2c0.9 0.2 1.7 0.3 2.6 0.3 0.5 0 1.1 0 1.6-0.1-3.4 1.8-7.2 2.8-11.2 2.8-7.4 0-14-3.3-18.5-8.5 0-0.1-0.1-0.2-0.2-0.2q0-0.1 0-0.1zm-4-15.6c0 5.6 2.1 10.7 5.5 14.7 0.6 0.6 1.2 0.9 1.8 0.9 0.2 0 0.4 0 0.4-0.1 0.7-0.7 0.7-1.9 0.6-3.2 0-1.8-0.1-3.9 1.7-5.2 0.8-0.6 1.4-1.5 1.7-2.3 0.1-0.5 0-1-0.1-1.6-0.1-0.8-0.2-1.8 0.2-2.7 0.1-0.3 0.3-0.6 0.4-0.8q0.2-0.4 0.4-0.6c0.2-0.6-0.3-1.2-0.8-1.6-1-0.9-1.5-2.4-1.1-3.8v-0.1c0.1-0.3 0.2-0.6 0.1-0.8-0.6-1.6-1.7-1.8-2.4-1.7-1.3 0.2-2-0.9-2.6-1.9-0.6-1-1.1-1.7-1.9-1.8-2.5 3.6-3.9 7.9-3.9 12.6z"/>
		</g>
	</g>
	<path class="s2" d="m44.9 45.2c0.4-0.4 0.5-0.8 0.7-1.1 0-0.1 0.1-0.4 0.2-0.4 0.1-0.1 0.4-0.1 0.6-0.1 0.5-0.1 1.3-0.1 1.8-0.7 0.3-0.4 0.4-0.8 0.5-1.1 0.3-1.2 0.6-2.5 0.4-3.8q-0.9-0.4-1.9-0.6c0.4 1.1 0.1 2.6-0.2 4-0.1 0.1-0.1 0.3-0.1 0.3-0.1 0.1-0.5 0.1-0.7 0.1-0.4 0.1-1.1 0.1-1.6 0.6-0.4 0.3-0.5 0.7-0.7 1.1 0 0.2-0.1 0.3-0.2 0.4-0.1 0.1-0.5 0.1-0.8-0.1-0.3-0.1-0.6-0.4-1-0.7-0.7-0.6-1.5-1.3-2.6-1.3-0.1 0-0.1 0-0.1 0q-0.1 0-0.3 0c-0.2 0.6-0.4 1.2-0.5 1.8 0.2 0 0.3-0.1 0.4-0.1 0.1 0 0.3 0 0.4 0 0.5 0 1 0.4 1.6 0.9 0.4 0.3 0.7 0.7 1.3 1 0.4 0.2 0.9 0.3 1.4 0.3 0.5 0 1.1-0.1 1.4-0.5z"/>
	<path fill-rule="evenodd" class="s2" d="m35 34.4c-2.4-5.4-3.6-8.8-3.6-10.3 0-2.8 2.3-5.2 5.2-5.2 2.9 0 5.2 2.4 5.2 5.2 0 1.5-1.2 4.9-3.5 10.3-0.3 0.7-0.9 1.1-1.7 1.1-0.7 0-1.3-0.4-1.6-1.1zm-1.9-10.3c0 1.2 1.3 4.7 3.4 9.6 0.1 0 0.2 0 0.2 0 2.1-4.9 3.4-8.4 3.4-9.6 0-1.9-1.6-3.4-3.5-3.4-1.9 0-3.5 1.5-3.5 3.4z"/>
	<path fill-rule="evenodd" class="s2" d="m36.6 26.8c-1.4 0-2.6-1.2-2.6-2.7 0-1.4 1.2-2.6 2.6-2.6 1.5 0 2.6 1.2 2.6 2.6 0 1.5-1.1 2.7-2.6 2.7zm0-1.8c0.5 0 0.9-0.4 0.9-0.9 0-0.4-0.4-0.8-0.9-0.8-0.5 0-0.9 0.4-0.9 0.8 0 0.5 0.4 0.9 0.9 0.9z"/>
	<g id="Clip-Path" clip-path="url(#cp8)">
		<g>
			<path fill-rule="evenodd" class="s2" d="m67 62.6c0.4 0.3 0.5 0.7 0.5 1.2q0 0.7-0.5 1.2l-1.2 1.3c-0.3 0.4-0.8 0.5-1.3 0.5q0 0 0 0c-0.5 0-0.9-0.2-1.2-0.5l-12.2-12.2c-1.7 0.9-3.5 1.4-5.3 1.4-2.8 0-5.6-1-7.7-3.2-4.3-4.2-4.3-11.2 0-15.4 4.2-4.2 11.2-4.2 15.4 0 3.6 3.7 4.2 9.3 1.5 13.6zm-14.8-11.6c3.6-3.6 3.6-9.4 0-12.9-3.6-3.6-9.4-3.6-12.9 0-3.6 3.5-3.6 9.3 0 12.9 3.5 3.6 9.3 3.6 12.9 0zm1.6 0.8l-1.3 1.3 12 11.9 1.2-1.3z"/>
		</g>
	</g>
	<path fill-rule="evenodd" class="s2" d="m49.8 50.8q-0.2 0.3-0.5 0.4-0.2 0.1-0.4 0.1c-0.2 0-0.3 0.1-0.3 0.1-0.1 0-0.2 0-0.3 0 0 0-0.2 0.1-0.3 0.3-1.8 0.5-3.9 0.4-5.7-0.6 0.1-0.4 0.3-0.8 0.6-1.3 0.1-0.2 0.1-0.8 0.1-1.1 0-0.4 0-0.8 0.2-1.1 0.5-0.8 1.4-0.9 2-0.9 0.1 0 0.3-0.1 0.4-0.1 0.1 0 0.1-0.1 0.3-0.3 0.2-0.3 0.5-0.8 1.1-1 1.3-0.6 1.9 0.8 2.1 1.3 0.1 0.2 0.2 0.4 0.2 0.4 0 0 0.2 0.1 0.3 0.1 0.3 0 1.2 0.2 1.3 1.2 0.1 0.9-0.3 1.9-1.1 2.5zm-0.6-2c-0.3 0-0.7-0.1-1-0.5-0.3-0.2-0.5-0.6-0.6-1-0.1 0-0.1-0.1-0.1-0.2-0.1 0-0.1 0.1-0.1 0.1-0.2 0.4-0.5 0.9-1.3 1.1q-0.4 0.1-0.8 0.1c-0.2 0.1-0.4 0.1-0.5 0.1 0 0.1 0 0.2 0 0.3 0 0.6 0 1.4-0.4 2-0.4 0.5-0.5 0.8-0.5 1 0.1 0 0.3 0 0.3 0 0.8 0 1.5-0.1 1.9-0.5 0.1-0.1 0.2-0.2 0.4-0.4 0.2-0.4 0.6-0.9 1.2-1.1 0.2-0.1 0.4-0.1 0.6-0.2 0 0 0.1 0 0.2 0 0.3-0.1 0.6-0.5 0.7-0.8z"/>
	<path class="s2" d="m44.6 31.6q0.2 0.1 0.3 0.3v0.1c1.4-0.1 2.9 0 4.2 0.4q-0.2-0.5-0.6-0.9c-0.6-0.5-1.3-0.7-2.1-0.5q-0.1-0.1-0.2-0.2c-0.1-0.2-0.3-0.3-0.4-0.5-0.6-0.6-1.8-0.9-2.7-0.7-0.4 0.2-0.7 0.2-1 0.3q-0.4 0.7-0.7 1.7c0.6 0 1.3 0 2.2-0.3 0.3-0.1 0.7 0.1 1 0.3z"/>
	<path class="s2" d="m30.2 34.4c0.5 1.2 1.5 2.1 2.5 2.4 0.1 0.1 0.2 0.1 0.3 0.8 0 0.5 0 1 0.3 1.5 0.2 0.4 0.4 0.6 0.7 0.9q0.3-0.9 0.8-1.7 0 0 0 0c-0.1-0.2-0.1-0.5-0.1-0.8 0-0.2-0.1-0.6-0.2-1q-0.7-0.5-1.1-1.3-0.1-0.1-0.3-0.1c-0.4-0.1-1-0.6-1.3-1.4-0.2-0.4-0.5-1.4-0.1-2.5-0.8-2.1-1.4-3.6-1.7-4.6-0.3 0.7-0.1 1.6 0.1 2.2 0.1 0.4 0.3 0.9 0.2 1.1-0.6 1.5-0.7 3.1-0.1 4.5z"/>
	<g>
		<g>
			<g>
			</g>
		</g>
	</g>
	<g>
		<g>
			<g>
			</g>
		</g>
	</g>
	<g>
		<g>
			<g>
			</g>
		</g>
	</g>
	<g>
		<g>
			<g>
			</g>
		</g>
	</g>
	<g>
		<g>
			<g>
			</g>
		</g>
	</g>
	<g>
		<g>
			<g>
			</g>
		</g>
	</g>
	<g>
		<g>
			<g>
			</g>
		</g>
	</g>
	<g>
		<g>
			<g>
			</g>
		</g>
	</g>
</svg>