<svg version="1.2" xmlns="http://www.w3.org/2000/svg" viewBox="0 0 200 190" width="200" height="190">
	<title>54-svg</title>
	<defs>
		<clipPath clipPathUnits="userSpaceOnUse" id="cp1">
			<path d="m195.38 6.19v180.63h-188.19v-180.63z"/>
		</clipPath>
	</defs>
	<style>
		.s0 { fill: #76c2af } 
	</style>
	<g id="Clip-Path" clip-path="url(#cp1)">
		<g>
			<path fill-rule="evenodd" class="s0" d="m150.5 70.7c0 4.3-0.4 8.4-1.3 12.3v0.1c-6.6 29.6-36.3 50.3-70.7 50.3-5.5 0-11.1-0.4-16.4-1.6l-0.1-0.1 1.2 0.4-3.2 1.9h-0.2c-9.5 4.8-25.2 11.8-38.6 11.7-3.5-0.1-8.4 0.3-12.1-3.5-1.6-1.5-2.3-4.6-1.2-6.8 1.1-2.2 3-3.5 5.3-4.3 4.1-1.4 10.8-6 13.6-14.1l0.3-1.9c-12.2-11.5-19.8-27.1-19.8-44.4 0-35.8 32.6-64.3 71.8-64.3 39.2 0 71.4 28.5 71.4 64.3zm-135.1 0c0 15.7 7.2 29.9 18.9 40.1l1.8 1.6-1.5 7v0.2c-3.2 9.5-9.9 14.6-15.8 17.5 1 0.1 1.1 0.4 2.5 0.4 10.2 0.1 25.8-6.2 34.8-10.8l6.1-3.5 1.8 0.6c4.4 1 9.4 1.4 14.5 1.4 31.2 0 57.1-18.6 62.7-43.9q1.1-5.1 1.1-10.6c0-30.9-27.9-56.1-63.2-56.1-35.3 0-63.7 25.3-63.7 56.1zm98.3-27.5v8.2h-69.6v-8.2zm0 20.5v8.2h-69.6v-8.2zm81.8 63.6c0 13.2-6.5 25.9-17.9 35.4 2.2 3.9 7 6.5 10.7 8.5 3.7 2 6.4 3.4 7.1 6.4 0.3 1.4 0 2.9-0.8 4.2-2 2.8-6.6 4.4-13.5 4.8q-1.1 0-2.3 0c-11.9 0-26.6-4-35.7-13.1-3.7 0.6-7.8 0.8-12.5 0.8-31.5 0-55.9-13.3-63.5-33.4q4.3 0.5 9.3 0.6c8.1 14.8 28.7 24.6 54.2 24.6 5.2 0 9.5-0.3 13.2-1.1l2.4-0.4 1.5 1.8c9.3 11 27.8 12.9 36.3 11.8-5.4-2.9-13.1-7.3-15.3-15.8l-0.7-2.7 2.2-1.6c11.1-8.2 17.1-19.1 17.1-30.8 0-16.3-12.4-31-31.2-38.3 0.4-1.4 0.8-2.8 1.1-4.2 0.3-1.3 0.5-2.6 0.7-3.9 22.6 8.3 37.6 26.3 37.6 46.4zm-102.3-43.1v8.2h-49.1v-8.2zm65.5 24.6v8.2h-19c2.5-2.6 4.8-5.3 6.8-8.2zm0 20.5v8.2h-52.8c6.6-2.1 12.7-4.8 18.4-8.2z"/>
		</g>
	</g>
</svg>