<svg version="1.2" xmlns="http://www.w3.org/2000/svg" viewBox="0 0 200 150" width="200" height="150">
	<title>55-svg</title>
	<defs>
		<clipPath clipPathUnits="userSpaceOnUse" id="cp1">
			<path d="m198.12 9.62v134.72h-197.36v-134.72z"/>
		</clipPath>
	</defs>
	<style>
		.s0 { fill: #76c2af } 
	</style>
	<g id="Clip-Path" clip-path="url(#cp1)">
		<g>
			<path fill-rule="evenodd" class="s0" d="m63.4 10.4c6 1.1 10.8 5.8 12.1 11.8 0.6 2.7 0.1 5.2-0.7 7.5h45.5c-0.6-1.5-1.4-2.8-1.4-4.7 0-9.4 9.2-16.6 19.2-14.6 6 1.1 10.7 5.8 12 11.8 0.7 2.7 0.2 5.2-0.6 7.5h24.6q0.4 0 0.8 0.1 0.4 0.1 0.7 0.2 0.4 0.2 0.7 0.4 0.3 0.2 0.6 0.5 0.3 0.3 0.5 0.6 0.2 0.3 0.4 0.7 0.1 0.3 0.2 0.7 0.1 0.4 0.1 0.8v25.5l2.3 0.6 0.2 0.1c3 1.2 5.4 3.4 7.1 6l9.3 12.7q0.2 0.3 0.4 0.7 0.1 0.3 0.2 0.7 0.1 0.4 0.1 0.8 0 0.4 0 0.7-0.1 0.4-0.2 0.8-0.2 0.4-0.4 0.7-0.2 0.3-0.4 0.6-0.3 0.3-0.6 0.5-0.3 0.2-0.7 0.4-0.3 0.2-0.7 0.3-0.4 0-0.8 0.1-0.4 0-0.7-0.1-0.4 0-0.8-0.2-0.3-0.1-0.7-0.3-0.3-0.2-0.6-0.5-0.3-0.3-0.5-0.6l-9.3-12.9h-0.1c-0.9-1.5-1.9-2.2-3.1-2.8v22.4l-10.2 6.8-21.4-18.3h-0.1c-1.8-1.6-4.3-1.5-6 0.3v0.1l-0.1 0.1c-1.9 1.8-2.1 5-0.4 7.4v0.1l20.9 30.2c3.4 4.6 8.1 7.7 13.4 9h0.1l20.5 5.7q0.4 0.1 0.8 0.2 0.3 0.2 0.7 0.4 0.3 0.3 0.5 0.6 0.3 0.3 0.5 0.6 0.2 0.4 0.3 0.7 0.2 0.4 0.2 0.8 0.1 0.4 0 0.8 0 0.4-0.1 0.8-0.1 0.4-0.3 0.7-0.2 0.4-0.4 0.7-0.2 0.3-0.6 0.5-0.3 0.3-0.6 0.5-0.4 0.2-0.7 0.3-0.4 0.1-0.8 0.1-0.4 0.1-0.8 0-0.4 0-0.8-0.1l-20.3-5.7c-5.8-1.4-11.2-4.5-15.4-8.9h-7.5c0.8 2.3 1.3 4.8 0.6 7.5-1.3 6-6 10.6-12 11.8-10 2-19.2-5.2-19.2-14.6 0-1.9 0.8-3.2 1.4-4.7h-45.5c0.8 2.3 1.3 4.8 0.7 7.5-1.3 6-6.1 10.6-12.1 11.8-10 2-19.2-5.2-19.2-14.6 0-1.9 0.8-3.2 1.4-4.7h-3.7c-4.2 4.4-9.6 7.5-15.4 8.9l-20.4 5.7q-0.4 0.1-0.7 0.1-0.4 0.1-0.8 0.1-0.4-0.1-0.8-0.2-0.4-0.1-0.8-0.3-0.3-0.2-0.6-0.4-0.3-0.3-0.6-0.6-0.2-0.3-0.4-0.7-0.2-0.3-0.3-0.7-0.1-0.4-0.1-0.8-0.1-0.4 0-0.8 0.1-0.4 0.2-0.8 0.1-0.4 0.3-0.7 0.2-0.3 0.5-0.6 0.3-0.3 0.6-0.6 0.3-0.2 0.7-0.4 0.4-0.1 0.7-0.2l20.6-5.7h0.1c5.2-1.3 10-4.4 13.4-9l20.8-30.2 0.1-0.1c1.7-2.4 1.5-5.6-0.4-7.4l-0.1-0.1h-0.1c-1.7-1.9-4.2-2-6-0.4l-21.5 18.3-10.1-6.8v-22.4c-1.2 0.6-2.2 1.3-3.1 2.7l-0.1 0.1-9.3 12.9q-0.3 0.3-0.5 0.6-0.3 0.3-0.7 0.5-0.3 0.2-0.6 0.3-0.4 0.1-0.8 0.2-0.4 0.1-0.8 0.1-0.3-0.1-0.7-0.1-0.4-0.1-0.8-0.3-0.3-0.2-0.6-0.4-0.3-0.2-0.6-0.5-0.3-0.3-0.5-0.6-0.2-0.3-0.3-0.7-0.1-0.4-0.2-0.8-0.1-0.3 0-0.7 0-0.4 0.1-0.8 0-0.4 0.2-0.7 0.2-0.4 0.4-0.7l9.2-12.7c1.7-2.6 4.1-4.8 7.1-6l0.3-0.1 2.3-0.6v-25.5q0-0.4 0.1-0.8 0.1-0.4 0.2-0.7 0.2-0.4 0.4-0.7 0.2-0.3 0.5-0.6 0.2-0.3 0.6-0.5 0.3-0.2 0.6-0.4 0.4-0.1 0.8-0.2 0.4-0.1 0.7-0.1h20.9c-0.6-1.5-1.4-2.8-1.4-4.7 0-8.2 7.1-14.7 15.5-14.9q1.8-0.1 3.7 0.3zm-11.3 14.6c0 1.3 0.3 2.3 1.1 3.7 1 1.6 1.2 3.8 0.4 5.4-0.8 1.8-2.5 3-4.3 3.4q-0.4 0.1-0.8 0.1h-19.8v48.1l1.7 1.1 16.8-14.3c4.9-4.3 12.4-3.9 16.9 0.8 4.7 4.7 5.1 12.3 1.2 17.6l-17.5 25.5h0.7q0.4 0 0.8 0.1c1.8 0.4 3.5 1.6 4.3 3.3 0.8 1.7 0.6 3.9-0.4 5.5-0.8 1.4-1.1 2.4-1.1 3.7 0 4.2 4.1 8 9.8 6.9q0 0 0 0c2.9-0.6 5.3-2.9 5.9-5.8q0 0 0-0.1c0.4-1.7 0.1-3.1-0.9-4.6-1.1-1.6-1.2-3.8-0.5-5.5 0.7-1.7 2.2-3 4-3.4q0.5-0.1 1-0.1h20.2v-27.9q0-0.6 0.1-1.2 0.2-0.6 0.6-1.1 0.4-0.5 0.9-0.9 0.5-0.4 1.1-0.6c1.8-1.2 4-1.7 6-0.6 1.6 0.8 3.2 1.2 5 0.8q0.1 0 0.1 0c3.1-0.6 5.2-2.6 5.7-4.6q0 0 0 0c0.4-2-0.1-3.6-1.4-4.9-1.2-1.4-3.2-2.3-5.6-2.3-1.4 0-2.5 0.3-3.9 0.9-2 1.1-4.2 0.4-5.9-0.8q-0.6-0.2-1.1-0.6-0.5-0.4-0.9-0.9-0.4-0.5-0.6-1.1-0.1-0.6-0.1-1.2v-31.8h-20.2q-0.5 0-1-0.1c-1.8-0.4-3.3-1.7-4-3.5-0.7-1.6-0.6-3.8 0.5-5.5 1-1.4 1.3-2.8 0.9-4.5q0-0.1 0-0.1c-0.6-2.9-3-5.2-5.9-5.8q0 0 0 0-1.1-0.2-2.1-0.2c-4.6 0-7.7 3.4-7.7 7.1zm14.8 3.6l0.2-0.2q-0.1 0.1-0.2 0.1 0 0.1 0 0.1zm33.6 45.3l-0.4 0.2q0 0 0.1-0.1 0.1 0 0.3-0.1zm-0.2 10.2l0.2 0.1q-0.1-0.1-0.2-0.1 0 0 0 0zm-33.2 41.5l-0.2-0.2q0 0 0 0 0.1 0.1 0.2 0.2zm-13.8-0.4l-0.3 0.3q0.1-0.1 0.2-0.2 0-0.1 0.1-0.1zm-0.3-96.7l0.3 0.3q-0.1 0-0.1-0.1-0.1-0.1-0.2-0.2zm73.8-3.5c0 1.3 0.3 2.3 1.1 3.7 1 1.6 1.2 3.8 0.4 5.4-0.8 1.8-2.5 3-4.3 3.4q-0.4 0.1-0.8 0.1h-23.8v28.7c1.5-0.5 2.9-1.1 4.7-1.1 4.5 0 8.6 1.8 11.4 4.8 2.8 3.1 4.3 7.6 3.2 12.1-1.3 5.6-6.1 9.4-11.8 10.5-2.7 0.5-5.2 0.1-7.5-0.6v24.4h23.8q0.4 0 0.8 0.1c1.8 0.4 3.5 1.6 4.3 3.3 0.8 1.7 0.6 3.9-0.4 5.5-0.8 1.4-1.1 2.4-1.1 3.7 0 4.2 4.1 8 9.8 6.9q0 0 0 0c2.9-0.6 5.3-2.9 5.9-5.8q0 0 0-0.1c0.4-1.7 0.1-3.1-0.9-4.6-1.1-1.6-1.3-3.8-0.6-5.5 0.8-1.7 2.3-3 4.1-3.4q0.5-0.1 1-0.1h5l-17.6-25.5c-3.8-5.3-3.5-12.9 1.3-17.6 4.4-4.7 12-5.1 16.8-0.8h0.1l16.8 14.3 1.7-1.1v-48.1h-24.1q-0.5 0-1-0.1c-1.8-0.4-3.3-1.7-4.1-3.5-0.7-1.6-0.5-3.8 0.6-5.5 1-1.4 1.3-2.8 0.9-4.5q0-0.1 0-0.1c-0.6-2.9-3-5.2-5.9-5.8q0 0 0 0-1.1-0.2-2.1-0.2c-4.6 0-7.7 3.4-7.7 7.1zm14.8 3.6l0.1-0.2q0 0.1-0.1 0.1 0 0.1 0 0.1zm0.1 97l-0.1-0.2q0 0 0 0 0.1 0.1 0.1 0.2zm-13.7-0.4l-0.3 0.3q0.1-0.1 0.2-0.2 0-0.1 0.1-0.1zm-0.3-96.7l0.3 0.3q-0.1 0-0.1-0.1-0.1-0.1-0.2-0.2z"/>
		</g>
	</g>
</svg>