<svg version="1.2" xmlns="http://www.w3.org/2000/svg" viewBox="0 0 200 132" width="200" height="132">
	<title>49-svg</title>
	<defs>
		<clipPath clipPathUnits="userSpaceOnUse" id="cp1">
			<path d="m196.06 6.98v121.33h-191.42v-121.33z"/>
		</clipPath>
	</defs>
	<style>
		.s0 { fill: #76c2af } 
	</style>
	<g id="Clip-Path" clip-path="url(#cp1)">
		<g>
			<path fill-rule="evenodd" class="s0" d="m37.8 7.6l23 13.6c1.1 0.6 1.4 1.9 0.8 3q-0.2 0.4-0.6 0.6-1.1 1-2.2 1.9c1.5 1.7 3.2 2.7 5.3 3.2 2.8 0.7 6.4 0.8 11.5 0.7 2.8-2.8 4.9-4.4 9.5-5.6 2.6-0.7 5.9-1.3 9.3-1.7 3.8-0.4 7.9-0.7 11.4-0.8 3.3-0.1 6.1 0 8.6 0.3 2.6 0.2 4.7 0.6 6.8 1 0.9 0.1 1.8 0.4 2.8 0.6 3 0.6 5.9 1.2 9 1.3 2 0.1 4.2-0.1 6.2-0.3q0.5 0 1.1-0.1-0.3-0.2-0.6-0.5-0.4-0.2-0.6-0.6c-0.6-1.1-0.3-2.4 0.8-3l23-13.6c0.7-0.5 1.7-0.4 2.4 0.2 8 6.6 14 14.4 18.8 23 4.8 8.4 8.4 17.5 11.6 26.9 0.4 1 0 2.1-0.9 2.7l-23 13.6q-0.2 0.1-0.5 0.2c-1.1 0.4-2.3-0.2-2.7-1.4l-0.3-0.8q-2.3 2.6-5 4.7-2.9 2.3-6.1 4c1.7 2.1 2.3 4.6 2.1 7-0.2 1.5-0.7 2.9-1.4 4.1-0.8 1.3-1.7 2.4-2.9 3.3-1.7 1.2-3.7 1.9-5.8 1.8q0 0.6 0 1.2c0 3-1.2 5.6-3.1 7.5-1.9 2-4.6 3.2-7.5 3.2q-1.2 0-2.3-0.3c0 1.8-0.5 3.5-1.4 5-0.9 1.5-2.3 2.8-3.9 3.7-1.4 0.7-2.9 1.1-4.6 1.1q-1.3 0-2.5-0.3c-0.3 1.5-0.8 2.9-1.7 4.1-1.1 1.6-2.7 2.9-4.6 3.5q-1.5 0.6-3.2 0.6c-2.4 0-7.1-0.4-12.3-1.5-3.1-0.7-6.5-1.6-9.6-2.9l-2.1 2.5c-1.8 2.3-4.4 3.6-7 3.9-2.7 0.3-5.5-0.4-7.7-2.2v-0.1l-0.1 0.1c-2-1.7-3.2-3.9-3.7-6.2-1.1 0.6-2.4 0.9-3.6 1.1-2.7 0.3-5.5-0.4-7.9-2q-0.4-0.2-0.7-0.5c-2.2-1.7-3.3-4.1-3.4-6.6q-0.1-0.4-0.1-0.8-1 0.3-2.1 0.4c-2.7 0.3-5.6-0.4-7.8-2 0 0 0 0-0.2-0.2-2.3-1.8-3.5-4.4-3.7-7-0.2-1.8 0.1-3.6 0.8-5.2-2.3 0-4.7-0.7-6.6-2.3-2.3-1.8-3.6-4.3-3.9-7-0.3-2.7 0.4-5.5 2.3-7.7l0.7-0.9c-0.5-1.2-1.1-2.2-1.8-3.2-0.5-0.8-1.2-1.6-2.1-2.4-0.6 0.7-1.5 1-2.4 0.7q-0.3-0.1-0.5-0.2l-23-13.6c-0.9-0.6-1.3-1.7-0.9-2.7 3.2-9.4 6.8-18.5 11.6-26.9 4.8-8.6 10.8-16.4 18.7-23 0.8-0.6 1.8-0.7 2.5-0.2zm125.9 4.5l-19.1 11.3c6.8 6.2 12.1 13.3 16.5 21 4.4 7.7 7.7 16 10.7 24.5l19.2-11.4c-3-8.6-6.3-17-10.7-24.6-4.3-7.7-9.7-14.8-16.6-20.8zm-108 17.7c-4.9 5-8.9 10.7-12.3 16.7-4 7.1-7.2 14.7-10 22.6 1.8 1.6 3.1 2.9 4 4.2q0.8 1 1.3 2l2.8-3.5c1.8-2.2 4.4-3.5 7-3.8 2.7-0.3 5.5 0.4 7.7 2.2h0.1l0.1 0.1c1.7 1.4 2.9 3.3 3.4 5.3l0.5-0.6c3.6-4.5 7.8-5.6 11.4-4.7 1.5 0.3 2.8 1 4 1.9 1.1 1 2 2.1 2.7 3.5 1.3 2.6 1.6 5.7 0.4 8.9 2.3-0.1 4.7 0.7 6.7 2.2q0.2 0.1 0.3 0.2c2 2.1 3.3 4.6 3.6 7.2 0.2 2.6-0.4 5.2-2.1 7.4l-0.3 0.3c2.1 0.1 4.3 0.9 6.1 2.3 2.2 1.8 3.5 4.4 3.8 7.1 0.3 2.3-0.2 4.8-1.6 6.9 2.5 1 5.2 1.7 7.7 2.2 4.8 1.1 9.2 1.4 11.4 1.4q1 0 1.8-0.2c1-0.4 1.8-1.1 2.5-1.9 0.6-0.9 0.9-1.9 0.9-3q0-0.3 0-0.7-7-1.8-13.8-4.9-7.5-3.5-14.9-8.5c-1-0.7-1.2-2-0.5-3 0.6-1 2-1.2 3-0.6q7 4.8 14.2 8.1 7.1 3.3 14.3 5.1 0.5 0.1 0.9 0.4 0.7 0.7 1.7 1 0.9 0.3 1.9 0.3c1 0 1.8-0.2 2.6-0.6 0.9-0.5 1.7-1.2 2.2-2.1 0.5-0.8 0.8-1.8 0.8-2.9q0-0.9-0.3-1.8-16.3-5.3-36-17.8c-1-0.7-1.3-2-0.7-3 0.6-1 2-1.3 3-0.7q19.9 12.6 35.9 17.7 0.5 0.1 0.8 0.4 0.8 0.6 1.8 1 0.9 0.3 2.1 0.3c1.7 0 3.3-0.7 4.4-1.8 1.2-1.2 1.9-2.7 1.9-4.5q0-0.9-0.2-1.6-0.2-0.5-0.3-0.9-4.6-1.7-13.9-6.5-10.1-5.3-25.7-14.3c-1-0.6-1.4-1.9-0.8-2.9 0.6-1 1.9-1.4 3-0.8q15.6 9 25.5 14.2 9.7 5.1 14 6.4 0.2 0.1 0.4 0.2c2.1 1.1 4.1 0.7 5.5-0.3 0.7-0.5 1.3-1.2 1.7-1.9 0.5-0.8 0.8-1.6 0.8-2.5 0.2-1.8-0.5-3.7-2.4-5h-0.1q-0.1-0.1-0.1-0.1h-0.1v-0.1l-0.2-0.1q-0.1-0.1-0.1-0.2c-3.6-3-7.2-6-11-9-3.9-3.1-8-6.2-12.4-9.3-8.8-6-19.2-12-29.6-18.1-1 0.2-2.1 0.4-3.2 0.8-1.3 0.4-2.6 1.1-4.2 2.3-1.6 1.2-3.6 3.1-5.6 5-2 2-4.1 4-6.1 5.7-2.2 1.7-4.4 3-6.5 3.7-2.3 0.8-4.5 0.9-6.7 0.1-2.3-0.8-4.5-2.6-5.6-5.1-1-2.2-1.2-4.8-0.3-7.7 1.6-5 6.7-10.8 10.7-15.1-3.3-0.1-6-0.3-8.3-0.9-3-0.7-5.3-2.1-7.4-4.3zm0.4-6.4l-19.1-11.3c-7 6-12.3 13.1-16.6 20.8-4.4 7.6-7.8 16-10.7 24.6l18.8 11.2q0.1-0.3 0.3-0.5 0.2-0.3 0.5-0.5c2.9-8.1 6.1-16 10.3-23.3 4.3-7.7 9.7-14.8 16.5-21zm-8.1 67q0.1-0.2 0.3-0.3l6-7.6q0.1-0.1 0.2-0.3c1.1-1.3 1.5-2.9 1.3-4.5-0.2-1.5-0.9-3-2.2-4l-0.1-0.1c-1.3-1.1-2.9-1.5-4.5-1.3-1.6 0.1-3.1 0.9-4.1 2.2l-0.1 0.1-4.9 6.1q-0.1 0.1-0.2 0.3l-1.4 1.7c-1 1.3-1.4 2.9-1.3 4.5 0.2 1.6 1 3.1 2.3 4.2 1.3 1 3 1.4 4.5 1.3 1.6-0.2 3.1-1 4.2-2.3zm30 15.9q0.1-0.2 0.3-0.4 0.4-0.5 0.7-0.9l4.8-6.1c1-1.2 1.4-2.7 1.2-4.2-0.1-1.6-0.9-3.2-2.2-4.5-1.3-1-2.9-1.4-4.5-1.2-1.4 0.1-2.8 0.8-3.8 1.9l-12.2 15.3q-0.1 0.3-0.3 0.5-0.2 0.3-0.3 0.5c-0.8 1.2-1.2 2.8-1.1 4.2 0.1 1.4 0.6 2.7 1.8 3.6q0.2 0.2 0.3 0.3c1.6 1 3.4 1.4 5.1 1.3 1.4-0.2 2.8-0.9 3.8-2.1l1.5-1.9q0.4-0.7 0.9-1.4 0.2-0.3 0.5-0.5zm-1.3 8.7c-0.5 1.1-0.7 2.3-0.6 3.5 0.2 1.5 1 3 2.3 4.1 1.3 1 2.9 1.5 4.5 1.3 1.6-0.2 3.1-1 4.2-2.3l2.9-3.6q0.1-0.2 0.3-0.4l1-1.3c1.1-1.3 1.5-3 1.3-4.6-0.1-1.5-0.9-3-2.2-4.1-1.3-1-3-1.5-4.6-1.3-1.2 0.2-2.5 0.7-3.5 1.6zm-6-26.3q0.1-0.1 0.2-0.2 0.1-0.1 0.1-0.2l2.4-2.9c2.2-2.8 2.3-5.6 1.2-7.8-0.4-0.8-1-1.5-1.6-2-0.7-0.6-1.5-0.9-2.3-1.1-2.1-0.5-4.6 0.3-6.9 3.1l-15.7 19.7-0.1 0.2c-0.9 1.2-1.4 2.8-1.3 4.3 0.2 1.5 0.8 3 2.1 4.1 0.1 0 0-0.1 0.2 0.1 1.2 0.9 3 1.3 4.7 1.1 1.5-0.1 3-0.8 4-2.1zm73.6-59.5c-1.2 0.1-2.8 0.4-4.7 0.6-2.1 0.2-4.5 0.4-6.8 0.3-3.5-0.1-6.6-0.8-9.7-1.5-0.9-0.1-1.8-0.3-2.8-0.5-2-0.4-4-0.7-6.3-1-2.3-0.2-5-0.3-8.1-0.2-3.3 0.1-7.3 0.3-11 0.8-3.3 0.4-6.4 0.9-8.7 1.5-4.6 1.3-6.3 3.1-10 7l-0.1 0.2c-3.9 4.1-9.8 10.4-11.3 15-0.6 1.9-0.4 3.4 0.1 4.7 0.6 1.4 1.8 2.4 3.1 2.8 1.2 0.4 2.5 0.3 3.9-0.1 1.6-0.6 3.3-1.6 5.2-3.1 1.9-1.5 3.9-3.4 5.8-5.3 2.1-2 4.1-3.9 6-5.4 2-1.5 3.7-2.4 5.4-3 1.6-0.5 3.1-0.8 4.6-1 0.5-0.1 1 0 1.5 0.2v0.1c10.7 6.2 21.4 12.3 30.5 18.6 4.6 3.2 8.8 6.3 12.7 9.5 3.5 2.7 6.8 5.5 10 8.3 2.6-1.3 4.9-2.7 7-4.3 2.2-1.7 4.2-3.7 6-6-2.6-7.3-5.6-14.3-9.3-20.8-3.5-6.3-7.8-12.2-13-17.4z"/>
		</g>
	</g>
</svg>