<svg version="1.2" xmlns="http://www.w3.org/2000/svg" viewBox="0 0 393 390" width="393" height="390">
	<title>values-svg</title>
	<defs>
		<clipPath clipPathUnits="userSpaceOnUse" id="cp1">
			<path d="m10.07 332h219.93v53h-219.93z"/>
		</clipPath>
	</defs>
	<style>
		.s0 { fill: #dbbb9c } 
		.s1 { fill: #82d3f2 } 
		.s2 { fill: #52a7d7 } 
		.s3 { fill: #2f84b9 } 
		.s4 { fill: #349370 } 
		.s5 { fill: #8bcb8f } 
		.s6 { fill: #8ecaef } 
		.s7 { fill: #65b39f } 
		.s8 { fill: #c2e6f9 } 
		.s9 { fill: #115e98 } 
	</style>
	<g id="Clip-Path" clip-path="url(#cp1)">
		<g id="Layer">
			<path id="Layer" class="s0" d="m229.7 384.7h-219.6c0 0 16.6-27.3 55-42.5 14.9-5.9 33-10 54.8-10 24.7 0 44.8 5.3 60.7 12.5 34.2 15.6 49.1 40 49.1 40z"/>
		</g>
	</g>
	<path id="Layer" class="s1" d="m63.9 271.9c1.7 4.7-0.1 21.5-1.9 25.8-1.8 4.2-6.7 6.2-11 4.4-4.2-1.8-6.2-6.7-4.4-10.9 1.8-4.3 13.1-17.1 17.3-19.3z"/>
	<path id="Layer" class="s2" d="m95.6 296.1c2.2 3.1 4.2 15.5 3.8 18.9-0.4 3.4-3.6 5.8-6.9 5.3-3.4-0.4-5.8-3.5-5.4-6.9 0.5-3.4 6-14.8 8.5-17.3z"/>
	<path id="Layer" class="s3" d="m177.2 303.8c1 3.3-0.8 6.8-4.1 7.8-3.2 1-6.7-0.8-7.7-4-1.1-3.3-0.9-16 0.4-19.3 3.3 1.9 10.3 12.3 11.4 15.5z"/>
	<path id="Layer" class="s4" d="m129.1 254.8c-2.6 3.9-4.8 8.2-6.4 12.9-13.4-22.2-38.7-34.8-69.3-43q56.3-7.5 75.7 30.1z"/>
	<path id="Layer" class="s4" d="m119.9 283.5c20.7-22.2 46-38.9 76.3-49.8-10.5 37.2-36.5 53-76.3 49.8z"/>
	<path id="Layer" class="s5" d="m122.7 267.7c-1.6 4.8-2.6 10.1-2.8 15.8-38-3-58.7-24.1-66.5-58.8 30.6 8.2 55.9 20.8 69.3 43z"/>
	<path id="Layer" class="s5" d="m129.1 254.8c14.1-20.6 41.9-29.5 67.1-21.1-30.3 10.9-55.6 27.6-76.3 49.8 0.2-5.7 1.2-11 2.8-15.8 1.6-4.7 3.8-9 6.4-12.9z"/>
	<path id="Layer" class="s5" d="m305.8 128.5c-21.2 4.7-41.9-12.6-44.5-36.6 13.5 15.4 28.1 28 44.5 36.6z"/>
	<path id="Layer" class="s5" d="m314.6 72.5c-5 18.2-7.8 36.9-8.8 56 0.3-12.2-4.2-21.6-11.3-27.8 0-12.4 9-24.9 20.1-28.2z"/>
	<path id="Layer" class="s4" d="m314.6 72.5c11.9 20.6 9 39.3-8.8 56 1-19.1 3.8-37.8 8.8-56z"/>
	<path id="Layer" class="s4" d="m294.5 100.7c7.1 6.2 11.6 15.6 11.3 27.8-16.4-8.6-31-21.2-44.5-36.6 12.1-1.9 24.6 1.1 33.2 8.8z"/>
	<path id="Layer" fill-rule="evenodd" class="s6" d="m379.9 103c2.8 3 2.7 7.8-0.3 10.6l-17.2 16.5-57.8 55.5c-3 2.8-7.8 2.7-10.7-0.3l-26.7-27.9c-19.8 11.3-39.4 19.2-59.8 15.3l2.1 16.5-13.1-1.5-5.4-42.1 12.3-4.7 2 15.4c17.4 3.6 31.3 0.2 48.9-12.4l-37.9-39.5c-4-4.2-6.9-9.3-8.5-14.8l-8.7-30.6c19.5-13.8 38.1-13.5 56.2-4.1l18.9-18.2 16.5-15.8c3.1-2.9 7.8-2.8 10.7 0.2l3.6 3.7 13.6-13c7.6-7.3 19.5-7 26.8 0.5l33.4 35c12.8 13.3 12.3 34.4-1 47.1l-3.2 3.1zm-59.7-17.7q-1.8-6.2-5.5-12.7-2.4 0.7-4.7 2c-8.8 4.8-15.4 15.6-15.4 26.1-8.7-7.6-21.1-10.7-33.2-8.7 2.6 24 23.3 41.3 44.4 36.5 14.1-13.2 18.9-27.5 14.4-43.2zm47.7 3.3c10.7-10.2 11.1-27.2 0.8-37.9l-21-21.9c-8.1-8.5-21.6-8.7-30.1-0.6l-4.9 4.7 54.3 56.6z"/>
	<path id="Layer" class="s3" d="m255.3 54.9c-1.2-1.3-3.1-1.3-4.3-0.1l-23.5 22.5c-1.2 1.1-1.3 3.1-0.1 4.3 0.6 0.6 1.4 0.9 2.2 0.9 0.8 0 1.5-0.3 2.1-0.8l23.5-22.5c1.2-1.2 1.2-3.1 0.1-4.3z"/>
	<path id="Layer" class="s7" d="m116.8 286.5v42.6c0 1.7 1.4 3.1 3.1 3.1 1.7 0 3-1.4 3-3.1v-42.6c0-1.7-1.3-3-3-3-1.7 0-3.1 1.3-3.1 3z"/>
	<path id="Layer" class="s8" d="m74.1 217.1q-0.7 0-1.3-0.3c-1.5-0.7-2.2-2.5-1.5-4 2.3-5.2 4.9-10.1 7.5-14.5 0.9-1.4 2.7-1.9 4.2-1.1 1.4 0.9 1.9 2.8 1 4.2-2.5 4.2-4.9 8.9-7.2 13.9-0.5 1.1-1.6 1.8-2.7 1.8z"/>
	<path id="Layer" class="s8" d="m88.3 192.6c-0.6 0-1.3-0.2-1.8-0.6-1.4-1-1.6-2.9-0.6-4.2 3-4.1 6.3-7.9 9.8-11.5 1.2-1.2 3.1-1.2 4.3 0 1.2 1.2 1.2 3.1 0.1 4.3-3.4 3.4-6.5 7-9.3 10.8-0.6 0.8-1.6 1.2-2.5 1.2z"/>
	<path id="Layer" class="s6" d="m105.5 174.5c-0.8 0-1.7-0.3-2.3-1.1-1.1-1.3-0.9-3.2 0.4-4.3 4.4-3.6 9.3-7 14.5-9.9 1.5-0.9 3.3-0.4 4.2 1.1 0.8 1.5 0.3 3.3-1.2 4.2-4.9 2.8-9.5 5.9-13.6 9.3-0.6 0.5-1.3 0.7-2 0.7z"/>
	<path id="Layer" class="s3" d="m132 158.9c-1.2 0-2.4-0.7-2.8-1.9-0.7-1.5 0.1-3.3 1.6-3.9 5.3-2.2 10.8-3.9 16.6-5.3 1.6-0.4 3.3 0.6 3.7 2.2 0.3 1.7-0.7 3.3-2.3 3.7-5.4 1.3-10.7 3-15.7 5q-0.5 0.2-1.1 0.2z"/>
	<path id="Layer" class="s9" d="m162.5 151.1c-1.5 0-2.8-1.1-3-2.6-0.3-1.7 0.9-3.2 2.6-3.4 6-0.8 12.3-1.2 18.7-1.3 1.8 0 3.1 1.3 3.1 3 0.1 1.7-1.3 3-3 3.1-6.2 0.1-12.3 0.5-18 1.2q-0.2 0-0.4 0z"/>
	<path id="Layer" class="s6" d="m110.8 223.1q-0.6 0-1.2-0.3c-1.6-0.7-2.3-2.5-1.6-4 3.3-7.3 7.3-14 11.9-20 1.1-1.3 3-1.6 4.3-0.5 1.3 1 1.6 2.9 0.6 4.2-4.3 5.6-8.1 11.9-11.2 18.8-0.5 1.1-1.6 1.8-2.8 1.8z"/>
	<path id="Layer" class="s3" d="m132.5 192.6c-0.8 0-1.7-0.3-2.3-1-1.1-1.2-1-3.1 0.2-4.3 4.7-4.3 9.8-8.1 15.3-11.4 1.4-0.9 3.3-0.4 4.2 1 0.8 1.4 0.4 3.3-1.1 4.2-5.1 3.1-9.9 6.7-14.3 10.7-0.5 0.6-1.3 0.8-2 0.8z"/>
	<path id="Layer" class="s9" d="m162.5 174c-1.2 0-2.4-0.7-2.8-1.9-0.7-1.5 0.1-3.3 1.6-4 5.8-2.3 12-4.2 18.9-5.8 1.6-0.3 3.3 0.7 3.7 2.3 0.3 1.7-0.7 3.3-2.3 3.7-6.6 1.5-12.5 3.3-18 5.5q-0.5 0.2-1.1 0.2z"/>
	<path id="Layer" class="s3" d="m159.5 225.1q-0.3 0-0.6 0c-1.6-0.4-2.7-2-2.4-3.6 1.4-6.4 3.5-12.2 6.3-17.4 0.8-1.5 2.6-2 4.1-1.2 1.5 0.8 2 2.6 1.2 4.1-2.5 4.7-4.4 9.9-5.6 15.7-0.3 1.5-1.6 2.4-3 2.4z"/>
	<path id="Layer" class="s9" d="m173 198c-0.8 0-1.5-0.3-2.1-0.8-1.2-1.2-1.3-3.1-0.2-4.3 3.9-4.3 8.5-8.1 13.6-11.3 1.4-0.8 3.3-0.4 4.2 1 0.9 1.5 0.4 3.3-1 4.2-4.6 2.9-8.8 6.3-12.3 10.2-0.6 0.6-1.4 1-2.2 1z"/>
</svg>