<svg xmlns="http://www.w3.org/2000/svg" xmlns:xlink="http://www.w3.org/1999/xlink" width="1366" zoomAndPan="magnify" viewBox="0 0 1024.5 514.499985" height="686" preserveAspectRatio="xMidYMid meet" version="1.0"><defs><clipPath id="6b8d5f873f"><path d="M 435 181.070312 L 588.621094 181.070312 L 588.621094 332.339844 L 435 332.339844 Z M 435 181.070312 " clip-rule="nonzero"/></clipPath><clipPath id="d5c7a682fc"><path d="M 443.078125 181.660156 L 580.921875 181.660156 C 585.058594 181.660156 588.414062 185.015625 588.414062 189.152344 L 588.414062 324.847656 C 588.414062 328.984375 585.058594 332.339844 580.921875 332.339844 L 443.078125 332.339844 C 438.941406 332.339844 435.585938 328.984375 435.585938 324.847656 L 435.585938 189.152344 C 435.585938 185.015625 438.941406 181.660156 443.078125 181.660156 Z M 443.078125 181.660156 " clip-rule="nonzero"/></clipPath><clipPath id="cc5b33bfdb"><path d="M 473 198.378906 L 573.683594 198.378906 L 573.683594 294 L 473 294 Z M 473 198.378906 " clip-rule="nonzero"/></clipPath><clipPath id="aa221a77a2"><path d="M 449.515625 206 L 559 206 L 559 315.742188 L 449.515625 315.742188 Z M 449.515625 206 " clip-rule="nonzero"/></clipPath></defs><g clip-path="url(#6b8d5f873f)"><g clip-path="url(#d5c7a682fc)"><path fill="#5271ff" d="M 435.585938 181.660156 L 588.621094 181.660156 L 588.621094 332.339844 L 435.585938 332.339844 Z M 435.585938 181.660156 " fill-opacity="1" fill-rule="nonzero"/></g></g><g clip-path="url(#cc5b33bfdb)"><path fill="#ffffff" d="M 473.566406 253.578125 C 473.703125 252.027344 474.347656 250.65625 475.300781 249.40625 C 478.648438 245.003906 486.15625 242.988281 491.40625 246.234375 C 494.5 248.148438 496.980469 250.609375 499.046875 253.523438 C 500.761719 255.941406 502.308594 258.480469 503.976562 261.035156 C 505.144531 259.382812 506.316406 257.683594 507.523438 256.003906 C 517.867188 241.601562 529.226562 228.078125 542.402344 216.15625 C 550.484375 208.84375 559.757812 203.414062 569.738281 199.117188 C 571.460938 198.375 572.898438 198.664062 574.378906 200.15625 C 573.703125 200.789062 573.027344 201.414062 572.359375 202.046875 C 563.644531 210.273438 555.117188 218.695312 547.378906 227.851562 C 542.949219 233.085938 538.84375 238.597656 534.617188 244.003906 C 526.109375 254.894531 519.742188 267.144531 512.507812 278.847656 C 509.71875 283.367188 506.953125 287.902344 504.15625 292.417969 C 503.046875 294.214844 501.582031 294.1875 500.46875 292.355469 C 496.851562 286.402344 494 280.074219 491.304688 273.667969 C 489.054688 268.316406 486.527344 263.097656 483.316406 258.234375 C 481.730469 255.828125 479.859375 253.851562 476.78125 253.589844 C 475.742188 253.503906 474.6875 253.578125 473.566406 253.578125 Z M 473.566406 253.578125 " fill-opacity="1" fill-rule="nonzero"/></g><g clip-path="url(#aa221a77a2)"><path fill="#ffffff" d="M 551.816406 234.941406 L 543.339844 243.417969 C 545.789062 248.824219 547.148438 254.824219 547.148438 261.144531 C 547.148438 284.945312 527.859375 304.234375 504.058594 304.234375 C 480.257812 304.234375 460.96875 284.945312 460.96875 261.144531 C 460.96875 237.34375 480.257812 218.054688 504.058594 218.054688 C 510.007812 218.054688 515.671875 219.261719 520.824219 221.441406 L 529.363281 212.902344 C 521.804688 208.925781 513.191406 206.679688 504.058594 206.679688 C 473.976562 206.679688 449.589844 231.066406 449.589844 261.144531 C 449.589844 291.226562 473.976562 315.609375 504.058594 315.609375 C 534.136719 315.609375 558.523438 291.222656 558.523438 261.144531 C 558.523438 251.648438 556.09375 242.714844 551.816406 234.941406 Z M 551.816406 234.941406 " fill-opacity="1" fill-rule="nonzero"/></g></svg>