<svg xmlns="http://www.w3.org/2000/svg" xmlns:xlink="http://www.w3.org/1999/xlink" width="1366" zoomAndPan="magnify" viewBox="0 0 1024.5 566.249966" height="755" preserveAspectRatio="xMidYMid meet" version="1.0"><defs><clipPath id="360bf8d089"><path d="M 566 337 L 633 337 L 633 404.386719 L 566 404.386719 Z M 566 337 " clip-rule="nonzero"/></clipPath><clipPath id="0c05722d2f"><path d="M 390.207031 160.957031 L 582 160.957031 L 582 351 L 390.207031 351 Z M 390.207031 160.957031 " clip-rule="nonzero"/></clipPath></defs><path fill="#231f20" d="M 523.285156 315 C 522.582031 315 521.871094 314.734375 521.328125 314.195312 L 505.734375 298.597656 C 504.648438 297.515625 504.648438 295.753906 505.734375 294.671875 L 511.835938 288.566406 C 516.289062 284.117188 523.523438 284.125 527.972656 288.566406 C 529.058594 289.652344 529.058594 291.410156 527.972656 292.484375 C 526.890625 293.570312 525.132812 293.570312 524.046875 292.484375 C 521.765625 290.203125 518.046875 290.203125 515.753906 292.496094 L 511.617188 296.628906 L 525.253906 310.265625 C 526.328125 311.351562 526.328125 313.109375 525.253906 314.195312 C 524.710938 314.734375 524 315 523.285156 315 " fill-opacity="1" fill-rule="nonzero"/><path fill="#231f20" d="M 603.894531 337.347656 C 602.847656 337.347656 601.847656 336.75 601.375 335.742188 C 601.363281 335.722656 600.414062 333.675781 598.0625 329.085938 C 590.761719 314.847656 581.394531 301.671875 570.222656 289.90625 C 569.175781 288.796875 569.214844 287.035156 570.328125 285.980469 C 571.4375 284.933594 573.1875 284.972656 574.246094 286.085938 C 585.777344 298.238281 595.449219 311.84375 603 326.554688 C 605.40625 331.261719 606.367188 333.316406 606.402344 333.402344 C 607.050781 334.789062 606.449219 336.433594 605.0625 337.082031 C 604.683594 337.261719 604.28125 337.347656 603.894531 337.347656 " fill-opacity="1" fill-rule="nonzero"/><path fill="#231f20" d="M 564.714844 376.515625 C 564.183594 376.515625 563.652344 376.363281 563.175781 376.046875 C 563.0625 375.972656 551.527344 368.382812 536.636719 367.558594 C 532.578125 367.328125 528.242188 366.644531 523.753906 365.523438 C 513.332031 362.898438 503.707031 357.410156 495.9375 349.640625 C 493.484375 347.179688 492.136719 343.917969 492.136719 340.4375 C 492.136719 336.957031 493.484375 333.695312 495.949219 331.242188 C 499.722656 327.457031 505.542969 326.382812 510.429688 328.550781 L 525.597656 335.292969 C 526.996094 335.921875 527.621094 337.558594 526.996094 338.953125 C 526.375 340.351562 524.742188 340.988281 523.34375 340.363281 L 508.175781 333.621094 C 505.371094 332.375 502.035156 332.992188 499.867188 335.160156 C 498.457031 336.566406 497.679688 338.441406 497.679688 340.4375 C 497.679688 342.433594 498.457031 344.308594 499.867188 345.714844 C 506.921875 352.78125 515.652344 357.761719 525.101562 360.140625 C 529.25 361.1875 533.222656 361.8125 536.941406 362.011719 C 553.402344 362.9375 565.742188 371.09375 566.265625 371.4375 C 567.53125 372.292969 567.875 374.015625 567.027344 375.277344 C 566.484375 376.085938 565.609375 376.515625 564.714844 376.515625 " fill-opacity="1" fill-rule="nonzero"/><path fill="#231f20" d="M 504.972656 321.105469 C 504.257812 321.105469 503.546875 320.832031 503.011719 320.296875 L 477.300781 294.585938 C 475.144531 292.4375 473.964844 289.566406 473.964844 286.523438 C 473.964844 283.46875 475.152344 280.609375 477.300781 278.449219 C 479.460938 276.300781 482.320312 275.113281 485.363281 275.113281 L 485.375 275.113281 C 488.417969 275.113281 491.28125 276.300781 493.4375 278.460938 L 509.652344 294.671875 C 510.742188 295.753906 510.742188 297.515625 509.652344 298.597656 C 508.574219 299.671875 506.816406 299.671875 505.734375 298.597656 L 489.511719 282.375 C 488.40625 281.273438 486.933594 280.65625 485.375 280.65625 C 485.363281 280.65625 485.363281 280.65625 485.363281 280.65625 C 483.804688 280.65625 482.332031 281.265625 481.230469 282.375 C 480.117188 283.480469 479.507812 284.953125 479.507812 286.523438 C 479.507812 288.082031 480.117188 289.554688 481.230469 290.667969 L 506.929688 316.371094 C 508.015625 317.453125 508.015625 319.214844 506.929688 320.296875 C 506.390625 320.832031 505.675781 321.105469 504.972656 321.105469 " fill-opacity="1" fill-rule="nonzero"/><path fill="#231f20" d="M 540.058594 307.347656 C 539.355469 307.347656 538.644531 307.082031 538.101562 306.539062 L 522.507812 290.945312 C 521.984375 290.421875 521.699219 289.71875 521.699219 288.984375 C 521.699219 288.253906 521.984375 287.550781 522.507812 287.027344 L 528.609375 280.921875 C 533.0625 276.472656 540.296875 276.472656 544.746094 280.921875 L 559.523438 295.699219 C 560.609375 296.78125 560.609375 298.542969 559.523438 299.625 C 558.449219 300.710938 556.691406 300.710938 555.605469 299.625 L 540.820312 284.839844 C 538.539062 282.558594 534.820312 282.558594 532.527344 284.839844 L 528.394531 288.984375 L 542.019531 302.621094 C 543.101562 303.707031 543.101562 305.453125 542.019531 306.539062 C 541.476562 307.082031 540.773438 307.347656 540.058594 307.347656 " fill-opacity="1" fill-rule="nonzero"/><path fill="#231f20" d="M 572.277344 290.726562 C 571.574219 290.726562 570.859375 290.460938 570.316406 289.917969 L 560.828125 280.425781 C 559.722656 279.316406 558.25 278.707031 556.679688 278.707031 C 555.121094 278.707031 553.648438 279.316406 552.546875 280.425781 L 546.429688 286.53125 C 545.355469 287.617188 543.597656 287.617188 542.511719 286.53125 C 541.429688 285.449219 541.429688 283.6875 542.511719 282.605469 L 548.617188 276.507812 C 550.777344 274.351562 553.640625 273.164062 556.679688 273.164062 C 556.679688 273.164062 556.679688 273.164062 556.691406 273.164062 C 559.734375 273.164062 562.597656 274.351562 564.753906 276.507812 L 574.246094 285.988281 C 575.320312 287.074219 575.320312 288.832031 574.246094 289.917969 C 573.691406 290.460938 572.988281 290.726562 572.277344 290.726562 " fill-opacity="1" fill-rule="nonzero"/><g clip-path="url(#360bf8d089)"><path fill="#231f20" d="M 582.667969 404.386719 C 581.945312 404.386719 581.222656 404.109375 580.683594 403.546875 L 567.457031 389.988281 C 566.390625 388.90625 566.398438 387.164062 567.472656 386.089844 L 614.820312 338.746094 C 615.34375 338.230469 616.046875 337.9375 616.777344 337.9375 C 616.789062 337.9375 616.796875 337.9375 616.796875 337.9375 C 617.539062 337.945312 618.25 338.242188 618.765625 338.773438 L 631.992188 352.332031 C 633.066406 353.425781 633.039062 355.1875 631.945312 356.25 C 630.851562 357.324219 629.101562 357.296875 628.027344 356.203125 L 616.757812 344.660156 L 573.339844 388.078125 L 584.648438 399.679688 C 585.722656 400.773438 585.703125 402.53125 584.601562 403.597656 C 584.066406 404.117188 583.363281 404.386719 582.667969 404.386719 " fill-opacity="1" fill-rule="nonzero"/></g><path fill="#231f20" d="M 618.785156 357.496094 C 617.0625 355.777344 614.25 355.777344 612.519531 357.496094 C 610.796875 359.226562 610.796875 362.03125 612.527344 363.761719 C 613.382812 364.617188 614.523438 365.046875 615.65625 365.046875 C 616.789062 365.046875 617.917969 364.617188 618.785156 363.753906 C 620.503906 362.03125 620.503906 359.226562 618.785156 357.496094 " fill-opacity="1" fill-rule="nonzero"/><path fill="#231f20" d="M 485.972656 201.960938 C 476.671875 201.960938 469.105469 209.527344 469.105469 218.828125 C 469.105469 228.128906 476.671875 235.699219 485.972656 235.699219 C 495.28125 235.699219 502.84375 228.128906 502.84375 218.828125 C 502.84375 209.527344 495.28125 201.960938 485.972656 201.960938 Z M 485.972656 241.242188 C 473.621094 241.242188 463.5625 231.191406 463.5625 218.828125 C 463.5625 206.46875 473.621094 196.417969 485.972656 196.417969 C 498.335938 196.417969 508.394531 206.46875 508.394531 218.828125 C 508.394531 231.191406 498.335938 241.242188 485.972656 241.242188 " fill-opacity="1" fill-rule="nonzero"/><path fill="#231f20" d="M 448.585938 315.828125 C 447.0625 315.828125 445.816406 314.582031 445.816406 313.050781 L 445.816406 263.425781 C 445.816406 254.859375 452.789062 247.878906 461.363281 247.878906 L 510.59375 247.878906 C 519.167969 247.878906 526.140625 254.859375 526.140625 263.425781 C 526.140625 264.957031 524.902344 266.203125 523.371094 266.203125 C 521.832031 266.203125 520.59375 264.957031 520.59375 263.425781 C 520.59375 257.910156 516.105469 253.421875 510.59375 253.421875 L 461.363281 253.421875 C 455.847656 253.421875 451.359375 257.910156 451.359375 263.425781 L 451.359375 313.050781 C 451.359375 314.582031 450.117188 315.828125 448.585938 315.828125 " fill-opacity="1" fill-rule="nonzero"/><path fill="#231f20" d="M 485.972656 267.304688 C 484.441406 267.304688 483.207031 266.070312 483.207031 264.539062 L 483.207031 250.65625 C 483.207031 249.125 484.441406 247.878906 485.972656 247.878906 C 487.503906 247.878906 488.75 249.125 488.75 250.65625 L 488.75 264.539062 C 488.75 266.070312 487.503906 267.304688 485.972656 267.304688 " fill-opacity="1" fill-rule="nonzero"/><g clip-path="url(#0c05722d2f)"><path fill="#231f20" d="M 474.34375 350.554688 C 474.230469 350.554688 474.117188 350.546875 474 350.535156 C 426.582031 344.574219 390.816406 303.980469 390.816406 256.121094 C 390.816406 203.644531 433.503906 160.957031 485.972656 160.957031 C 538.453125 160.957031 581.136719 203.644531 581.136719 256.121094 C 581.136719 261.371094 580.710938 266.628906 579.855469 271.753906 C 579.609375 273.265625 578.171875 274.285156 576.667969 274.039062 C 575.15625 273.789062 574.140625 272.363281 574.386719 270.851562 C 575.1875 266.019531 575.59375 261.066406 575.59375 256.121094 C 575.59375 206.703125 535.390625 166.5 485.972656 166.5 C 436.566406 166.5 396.363281 206.703125 396.363281 256.121094 C 396.363281 301.195312 430.03125 339.421875 474.6875 345.03125 C 476.207031 345.222656 477.292969 346.609375 477.09375 348.128906 C 476.921875 349.527344 475.722656 350.554688 474.34375 350.554688 " fill-opacity="1" fill-rule="nonzero"/></g></svg>