<svg xmlns="http://www.w3.org/2000/svg" xmlns:xlink="http://www.w3.org/1999/xlink" width="1366" zoomAndPan="magnify" viewBox="0 0 1024.5 566.249966" height="755" preserveAspectRatio="xMidYMid meet" version="1.0"><defs><clipPath id="c3e1a45da3"><path d="M 403.480469 178.164062 L 620.691406 178.164062 L 620.691406 386 L 403.480469 386 Z M 403.480469 178.164062 " clip-rule="nonzero"/></clipPath></defs><path fill="#000000" d="M 545.105469 284.035156 C 544.628906 284.234375 544.210938 284.519531 543.851562 284.882812 C 543.488281 285.25 543.210938 285.667969 543.015625 286.144531 C 542.824219 286.621094 542.726562 287.113281 542.730469 287.628906 C 542.730469 288.140625 542.832031 288.632812 543.03125 289.109375 C 556.339844 318.714844 532.644531 354.332031 500.171875 353.617188 C 467.683594 354.355469 443.914062 318.753906 457.25 289.101562 C 469.242188 259.179688 510.613281 250.996094 533.054688 274.296875 C 533.421875 274.648438 533.839844 274.917969 534.3125 275.105469 C 534.785156 275.289062 535.273438 275.382812 535.78125 275.375 C 536.289062 275.371094 536.777344 275.269531 537.246094 275.074219 C 537.710938 274.878906 538.125 274.601562 538.484375 274.242188 C 538.84375 273.882812 539.121094 273.46875 539.316406 273.003906 C 539.515625 272.535156 539.613281 272.050781 539.621094 271.542969 C 539.625 271.035156 539.535156 270.546875 539.347656 270.074219 C 539.160156 269.605469 538.890625 269.1875 538.539062 268.820312 C 537.28125 267.566406 535.964844 266.378906 534.589844 265.253906 C 533.214844 264.128906 531.789062 263.074219 530.308594 262.089844 C 528.832031 261.105469 527.308594 260.195312 525.738281 259.359375 C 524.171875 258.523438 522.566406 257.765625 520.921875 257.085938 C 519.28125 256.410156 517.609375 255.8125 515.90625 255.300781 C 514.207031 254.785156 512.484375 254.355469 510.742188 254.011719 C 508.996094 253.664062 507.242188 253.40625 505.472656 253.230469 C 503.703125 253.058594 501.929688 252.972656 500.152344 252.972656 C 498.375 252.972656 496.601562 253.0625 494.832031 253.234375 C 493.0625 253.410156 491.308594 253.671875 489.5625 254.019531 C 487.820312 254.363281 486.097656 254.796875 484.398438 255.3125 C 482.695312 255.828125 481.023438 256.425781 479.382812 257.101562 C 477.742188 257.78125 476.136719 258.539062 474.570312 259.378906 C 473 260.214844 471.476562 261.125 470 262.113281 C 468.523438 263.097656 467.097656 264.152344 465.722656 265.277344 C 464.347656 266.40625 463.03125 267.59375 461.777344 268.851562 C 460.519531 270.105469 459.328125 271.417969 458.199219 272.789062 C 457.070312 274.160156 456.015625 275.585938 455.027344 277.058594 C 454.039062 278.535156 453.125 280.054688 452.289062 281.621094 C 451.449219 283.183594 450.691406 284.785156 450.011719 286.425781 C 449.328125 288.066406 448.730469 289.734375 448.214844 291.433594 C 447.699219 293.128906 447.265625 294.847656 446.917969 296.589844 C 446.574219 298.328125 446.3125 300.082031 446.136719 301.847656 C 445.960938 303.613281 445.875 305.382812 445.875 307.160156 C 445.875 308.933594 445.960938 310.703125 446.132812 312.46875 C 446.308594 314.234375 446.566406 315.988281 446.914062 317.730469 C 447.257812 319.46875 447.691406 321.1875 448.203125 322.886719 C 448.71875 324.585938 449.316406 326.253906 449.996094 327.894531 C 450.675781 329.535156 451.433594 331.136719 452.273438 332.703125 C 453.109375 334.265625 454.019531 335.789062 455.007812 337.265625 C 455.992188 338.738281 457.050781 340.164062 458.175781 341.535156 C 459.304688 342.910156 460.496094 344.222656 461.753906 345.476562 C 504.261719 386.890625 572.558594 341.042969 550.183594 286.105469 C 549.980469 285.632812 549.699219 285.214844 549.332031 284.855469 C 548.96875 284.496094 548.546875 284.21875 548.070312 284.027344 C 547.59375 283.832031 547.101562 283.734375 546.585938 283.738281 C 546.070312 283.738281 545.578125 283.839844 545.105469 284.035156 Z M 545.105469 284.035156 " fill-opacity="1" fill-rule="nonzero"/><path fill="#000000" d="M 496.855469 291.328125 L 513.296875 291.328125 C 513.804688 291.316406 514.292969 291.210938 514.757812 291.011719 C 515.222656 290.808594 515.636719 290.527344 515.992188 290.167969 C 516.347656 289.804688 516.621094 289.390625 516.8125 288.917969 C 517.003906 288.449219 517.101562 287.960938 517.101562 287.457031 C 517.101562 286.949219 517.003906 286.460938 516.8125 285.992188 C 516.621094 285.519531 516.347656 285.105469 515.992188 284.742188 C 515.636719 284.382812 515.222656 284.101562 514.757812 283.898438 C 514.292969 283.699219 513.804688 283.59375 513.296875 283.582031 L 504.019531 283.582031 L 504.019531 280.175781 C 504.019531 279.664062 503.921875 279.167969 503.726562 278.695312 C 503.527344 278.21875 503.25 277.800781 502.882812 277.4375 C 502.519531 277.074219 502.101562 276.796875 501.625 276.597656 C 501.152344 276.402344 500.65625 276.304688 500.140625 276.304688 C 499.628906 276.304688 499.132812 276.402344 498.65625 276.597656 C 498.183594 276.796875 497.761719 277.074219 497.398438 277.4375 C 497.035156 277.800781 496.753906 278.21875 496.558594 278.695312 C 496.359375 279.167969 496.261719 279.664062 496.261719 280.175781 L 496.261719 283.644531 C 495.378906 283.6875 494.511719 283.820312 493.65625 284.03125 C 492.796875 284.246094 491.96875 284.539062 491.167969 284.914062 C 490.367188 285.289062 489.613281 285.734375 488.898438 286.253906 C 488.183594 286.773438 487.527344 287.355469 486.925781 288 C 486.324219 288.648438 485.789062 289.34375 485.324219 290.09375 C 484.859375 290.84375 484.46875 291.628906 484.15625 292.453125 C 483.839844 293.277344 483.609375 294.125 483.457031 294.992188 C 483.308594 295.863281 483.242188 296.738281 483.261719 297.621094 C 483.28125 298.5 483.382812 299.371094 483.570312 300.234375 C 483.757812 301.097656 484.027344 301.933594 484.375 302.742188 C 484.726562 303.550781 485.148438 304.320312 485.648438 305.046875 C 486.144531 305.777344 486.710938 306.449219 487.335938 307.070312 C 487.964844 307.691406 488.648438 308.246094 489.382812 308.730469 C 490.117188 309.21875 490.894531 309.632812 491.710938 309.972656 C 492.527344 310.3125 493.367188 310.570312 494.230469 310.746094 C 495.097656 310.921875 495.972656 311.015625 496.855469 311.023438 L 503.433594 311.023438 C 503.824219 311.03125 504.207031 311.074219 504.589844 311.152344 C 504.96875 311.234375 505.339844 311.351562 505.695312 311.503906 C 506.054688 311.65625 506.394531 311.84375 506.714844 312.0625 C 507.039062 312.28125 507.335938 312.527344 507.609375 312.804688 C 507.882812 313.082031 508.125 313.382812 508.339844 313.707031 C 508.554688 314.03125 508.734375 314.375 508.882812 314.734375 C 509.03125 315.09375 509.144531 315.464844 509.21875 315.84375 C 509.292969 316.226562 509.332031 316.609375 509.332031 317 C 509.332031 317.386719 509.292969 317.773438 509.21875 318.15625 C 509.144531 318.535156 509.03125 318.90625 508.882812 319.265625 C 508.734375 319.625 508.554688 319.96875 508.339844 320.292969 C 508.125 320.617188 507.882812 320.917969 507.609375 321.195312 C 507.335938 321.472656 507.039062 321.71875 506.714844 321.9375 C 506.394531 322.15625 506.054688 322.34375 505.695312 322.496094 C 505.339844 322.648438 504.96875 322.765625 504.589844 322.847656 C 504.207031 322.925781 503.824219 322.96875 503.433594 322.976562 L 486.988281 322.976562 C 486.480469 322.984375 485.996094 323.089844 485.527344 323.292969 C 485.0625 323.492188 484.652344 323.773438 484.296875 324.136719 C 483.941406 324.5 483.667969 324.914062 483.472656 325.382812 C 483.28125 325.851562 483.1875 326.339844 483.1875 326.847656 C 483.1875 327.355469 483.28125 327.84375 483.472656 328.3125 C 483.667969 328.78125 483.941406 329.199219 484.296875 329.558594 C 484.652344 329.921875 485.0625 330.203125 485.527344 330.402344 C 485.996094 330.605469 486.484375 330.710938 486.992188 330.71875 L 496.261719 330.71875 L 496.261719 334.125 C 496.261719 334.640625 496.359375 335.132812 496.558594 335.609375 C 496.753906 336.082031 497.035156 336.5 497.398438 336.863281 C 497.761719 337.226562 498.183594 337.507812 498.65625 337.703125 C 499.132812 337.902344 499.628906 338 500.140625 338 C 500.65625 338 501.152344 337.902344 501.625 337.703125 C 502.101562 337.507812 502.519531 337.226562 502.882812 336.863281 C 503.25 336.5 503.527344 336.082031 503.726562 335.609375 C 503.921875 335.132812 504.019531 334.640625 504.019531 334.125 L 504.019531 330.660156 C 504.902344 330.613281 505.773438 330.484375 506.628906 330.269531 C 507.484375 330.058594 508.316406 329.765625 509.117188 329.390625 C 509.914062 329.015625 510.671875 328.570312 511.386719 328.050781 C 512.101562 327.53125 512.757812 326.949219 513.359375 326.304688 C 513.960938 325.65625 514.496094 324.960938 514.960938 324.210938 C 515.425781 323.460938 515.816406 322.675781 516.132812 321.851562 C 516.445312 321.027344 516.675781 320.179688 516.828125 319.3125 C 516.976562 318.441406 517.042969 317.566406 517.023438 316.6875 C 517.007812 315.804688 516.902344 314.933594 516.714844 314.070312 C 516.527344 313.210938 516.257812 312.375 515.910156 311.5625 C 515.5625 310.753906 515.136719 309.984375 514.640625 309.253906 C 514.140625 308.527344 513.578125 307.851562 512.949219 307.234375 C 512.320312 306.613281 511.640625 306.058594 510.902344 305.570312 C 510.167969 305.082031 509.394531 304.667969 508.578125 304.332031 C 507.761719 303.992188 506.921875 303.734375 506.054688 303.558594 C 505.191406 303.378906 504.316406 303.289062 503.433594 303.28125 L 496.855469 303.28125 C 496.464844 303.273438 496.078125 303.230469 495.699219 303.148438 C 495.316406 303.070312 494.949219 302.953125 494.589844 302.800781 C 494.234375 302.644531 493.894531 302.460938 493.570312 302.242188 C 493.25 302.023438 492.953125 301.773438 492.679688 301.496094 C 492.40625 301.222656 492.160156 300.921875 491.945312 300.597656 C 491.734375 300.269531 491.550781 299.929688 491.402344 299.570312 C 491.257812 299.210938 491.144531 298.839844 491.070312 298.457031 C 490.996094 298.078125 490.957031 297.691406 490.957031 297.304688 C 490.957031 296.914062 490.996094 296.53125 491.070312 296.148438 C 491.144531 295.765625 491.257812 295.398438 491.402344 295.035156 C 491.550781 294.675781 491.734375 294.335938 491.945312 294.011719 C 492.160156 293.6875 492.40625 293.386719 492.679688 293.109375 C 492.953125 292.832031 493.25 292.585938 493.570312 292.367188 C 493.894531 292.148438 494.234375 291.960938 494.589844 291.808594 C 494.949219 291.65625 495.316406 291.539062 495.699219 291.457031 C 496.078125 291.375 496.464844 291.332031 496.855469 291.328125 Z M 496.855469 291.328125 " fill-opacity="1" fill-rule="nonzero"/><g clip-path="url(#c3e1a45da3)"><path fill="#000000" d="M 593.613281 192.132812 C 583.144531 192.210938 564.972656 192.078125 554.601562 192.132812 C 554.375 191.164062 554.070312 190.21875 553.683594 189.296875 C 553.296875 188.378906 552.839844 187.5 552.304688 186.65625 C 551.773438 185.8125 551.171875 185.023438 550.503906 184.28125 C 549.839844 183.539062 549.113281 182.859375 548.332031 182.238281 C 547.550781 181.617188 546.722656 181.066406 545.847656 180.585938 C 544.972656 180.105469 544.066406 179.699219 543.121094 179.371094 C 542.179688 179.042969 541.214844 178.796875 540.230469 178.628906 C 539.246094 178.464844 538.253906 178.378906 537.257812 178.378906 C 536.257812 178.378906 535.265625 178.464844 534.28125 178.628906 C 533.296875 178.796875 532.335938 179.042969 531.390625 179.371094 C 530.449219 179.699219 529.542969 180.105469 528.667969 180.585938 C 527.792969 181.066406 526.964844 181.617188 526.183594 182.238281 C 525.402344 182.859375 524.675781 183.539062 524.007812 184.28125 C 523.34375 185.023438 522.742188 185.8125 522.207031 186.65625 C 521.675781 187.5 521.214844 188.378906 520.832031 189.300781 C 520.445312 190.21875 520.140625 191.164062 519.914062 192.132812 L 480.371094 192.132812 C 480.148438 191.164062 479.839844 190.21875 479.457031 189.300781 C 479.070312 188.378906 478.609375 187.5 478.078125 186.65625 C 477.542969 185.816406 476.945312 185.023438 476.277344 184.28125 C 475.609375 183.539062 474.886719 182.859375 474.101562 182.242188 C 473.320312 181.621094 472.492188 181.070312 471.621094 180.589844 C 470.746094 180.109375 469.835938 179.703125 468.894531 179.375 C 467.953125 179.046875 466.988281 178.800781 466.003906 178.636719 C 465.019531 178.46875 464.027344 178.386719 463.03125 178.386719 C 462.03125 178.386719 461.039062 178.46875 460.054688 178.636719 C 459.070312 178.800781 458.109375 179.046875 457.164062 179.378906 C 456.222656 179.707031 455.316406 180.109375 454.441406 180.589844 C 453.566406 181.070312 452.738281 181.621094 451.957031 182.242188 C 451.175781 182.859375 450.449219 183.542969 449.785156 184.28125 C 449.117188 185.023438 448.515625 185.816406 447.980469 186.65625 C 447.449219 187.5 446.988281 188.378906 446.605469 189.300781 C 446.21875 190.21875 445.914062 191.164062 445.6875 192.136719 L 426.75 192.132812 C 425.988281 192.136719 425.230469 192.171875 424.472656 192.25 C 423.710938 192.324219 422.960938 192.4375 422.214844 192.585938 C 421.464844 192.734375 420.726562 192.917969 420 193.140625 C 419.269531 193.363281 418.554688 193.617188 417.847656 193.910156 C 417.144531 194.199219 416.457031 194.527344 415.785156 194.886719 C 415.113281 195.242188 414.460938 195.632812 413.828125 196.058594 C 413.195312 196.480469 412.582031 196.933594 411.996094 197.414062 C 411.40625 197.898438 410.839844 198.410156 410.300781 198.945312 C 409.765625 199.484375 409.253906 200.046875 408.769531 200.636719 C 408.285156 201.222656 407.832031 201.832031 407.410156 202.464844 C 406.984375 203.097656 406.59375 203.75 406.234375 204.417969 C 405.875 205.089844 405.550781 205.777344 405.257812 206.480469 C 404.964844 207.183594 404.707031 207.898438 404.488281 208.625 C 404.265625 209.351562 404.078125 210.089844 403.929688 210.835938 C 403.78125 211.582031 403.667969 212.332031 403.59375 213.089844 C 403.519531 213.847656 403.480469 214.605469 403.480469 215.367188 L 403.480469 361.890625 C 403.480469 362.652344 403.519531 363.410156 403.59375 364.167969 C 403.667969 364.925781 403.78125 365.675781 403.929688 366.421875 C 404.078125 367.167969 404.265625 367.90625 404.488281 368.632812 C 404.707031 369.359375 404.964844 370.078125 405.257812 370.777344 C 405.550781 371.480469 405.875 372.167969 406.234375 372.839844 C 406.59375 373.507812 406.984375 374.160156 407.410156 374.792969 C 407.832031 375.425781 408.285156 376.035156 408.769531 376.625 C 409.253906 377.210938 409.765625 377.773438 410.300781 378.3125 C 410.839844 378.851562 411.40625 379.359375 411.996094 379.84375 C 412.582031 380.324219 413.195312 380.777344 413.828125 381.199219 C 414.460938 381.625 415.113281 382.015625 415.785156 382.375 C 416.457031 382.730469 417.144531 383.058594 417.847656 383.347656 C 418.554688 383.640625 419.269531 383.898438 420 384.117188 C 420.726562 384.339844 421.464844 384.523438 422.214844 384.671875 C 422.960938 384.824219 423.710938 384.933594 424.472656 385.011719 C 425.230469 385.085938 425.988281 385.125 426.75 385.125 C 447.050781 385.21875 576.625 385.054688 593.617188 385.125 C 594.5 385.125 595.386719 385.078125 596.269531 384.992188 C 597.148438 384.902344 598.027344 384.773438 598.894531 384.597656 C 599.765625 384.425781 600.625 384.210938 601.472656 383.953125 C 602.320312 383.695312 603.152344 383.398438 603.972656 383.058594 C 604.789062 382.71875 605.589844 382.339844 606.371094 381.921875 C 607.152344 381.503906 607.914062 381.050781 608.648438 380.558594 C 609.386719 380.066406 610.097656 379.539062 610.78125 378.980469 C 611.46875 378.417969 612.125 377.824219 612.75 377.199219 C 613.378906 376.574219 613.972656 375.917969 614.535156 375.234375 C 615.097656 374.550781 615.625 373.839844 616.117188 373.105469 C 616.609375 372.367188 617.066406 371.609375 617.484375 370.832031 C 617.902344 370.050781 618.28125 369.25 618.621094 368.433594 C 618.960938 367.617188 619.257812 366.785156 619.519531 365.9375 C 619.777344 365.089844 619.992188 364.234375 620.164062 363.367188 C 620.339844 362.5 620.46875 361.625 620.558594 360.746094 C 620.644531 359.863281 620.691406 358.980469 620.691406 358.097656 L 620.691406 219.164062 C 620.691406 218.277344 620.644531 217.394531 620.558594 216.515625 C 620.46875 215.632812 620.339844 214.757812 620.164062 213.890625 C 619.992188 213.023438 619.777344 212.167969 619.519531 211.320312 C 619.261719 210.472656 618.960938 209.640625 618.621094 208.824219 C 618.28125 208.007812 617.902344 207.207031 617.484375 206.429688 C 617.066406 205.648438 616.609375 204.890625 616.117188 204.152344 C 615.625 203.417969 615.097656 202.707031 614.535156 202.023438 C 613.972656 201.339844 613.378906 200.6875 612.75 200.058594 C 612.125 199.433594 611.46875 198.839844 610.78125 198.28125 C 610.097656 197.71875 609.386719 197.191406 608.648438 196.699219 C 607.914062 196.207031 607.152344 195.753906 606.371094 195.335938 C 605.589844 194.917969 604.789062 194.539062 603.972656 194.199219 C 603.152344 193.859375 602.320312 193.5625 601.472656 193.304688 C 600.625 193.046875 599.765625 192.832031 598.894531 192.660156 C 598.027344 192.484375 597.148438 192.355469 596.269531 192.265625 C 595.386719 192.179688 594.5 192.136719 593.613281 192.132812 Z M 593.613281 377.378906 L 590.832031 377.378906 C 592.753906 375.257812 594.230469 372.859375 595.261719 370.191406 C 596.292969 367.519531 596.808594 364.753906 596.808594 361.890625 L 596.808594 351.375 C 596.808594 350.863281 596.710938 350.371094 596.511719 349.894531 C 596.316406 349.421875 596.035156 349 595.671875 348.640625 C 595.308594 348.277344 594.890625 347.996094 594.414062 347.800781 C 593.9375 347.601562 593.445312 347.503906 592.929688 347.503906 C 592.414062 347.503906 591.921875 347.601562 591.445312 347.800781 C 590.96875 347.996094 590.550781 348.277344 590.1875 348.640625 C 589.824219 349 589.542969 349.421875 589.347656 349.894531 C 589.148438 350.371094 589.050781 350.863281 589.050781 351.375 L 589.050781 361.890625 C 589.050781 362.910156 588.949219 363.914062 588.75 364.914062 C 588.550781 365.910156 588.253906 366.878906 587.867188 367.816406 C 587.476562 368.757812 586.996094 369.648438 586.429688 370.492188 C 585.863281 371.339844 585.222656 372.121094 584.503906 372.839844 C 583.78125 373.558594 583 374.199219 582.152344 374.765625 C 581.304688 375.332031 580.410156 375.808594 579.46875 376.195312 C 578.53125 376.585938 577.558594 376.882812 576.5625 377.082031 C 575.5625 377.277344 574.554688 377.378906 573.535156 377.378906 L 426.75 377.378906 C 425.734375 377.378906 424.722656 377.277344 423.726562 377.082031 C 422.726562 376.882812 421.757812 376.585938 420.816406 376.195312 C 419.875 375.808594 418.980469 375.332031 418.136719 374.765625 C 417.289062 374.199219 416.503906 373.558594 415.785156 372.839844 C 415.066406 372.121094 414.421875 371.339844 413.855469 370.492188 C 413.289062 369.648438 412.8125 368.757812 412.421875 367.816406 C 412.03125 366.878906 411.738281 365.910156 411.535156 364.914062 C 411.335938 363.914062 411.238281 362.910156 411.234375 361.890625 L 411.234375 236.925781 L 422.871094 236.925781 C 423.378906 236.917969 423.867188 236.8125 424.335938 236.609375 C 424.800781 236.410156 425.210938 236.128906 425.566406 235.765625 C 425.925781 235.40625 426.199219 234.988281 426.390625 234.519531 C 426.582031 234.050781 426.679688 233.5625 426.679688 233.054688 C 426.679688 232.546875 426.582031 232.058594 426.390625 231.589844 C 426.199219 231.121094 425.925781 230.703125 425.566406 230.34375 C 425.210938 229.980469 424.800781 229.699219 424.335938 229.5 C 423.867188 229.296875 423.378906 229.191406 422.871094 229.183594 L 411.234375 229.183594 L 411.234375 215.367188 C 411.238281 214.351562 411.335938 213.34375 411.535156 212.347656 C 411.738281 211.347656 412.03125 210.378906 412.421875 209.441406 C 412.8125 208.503906 413.289062 207.609375 413.855469 206.765625 C 414.421875 205.921875 415.066406 205.136719 415.785156 204.417969 C 416.503906 203.699219 417.289062 203.058594 418.136719 202.492188 C 418.980469 201.929688 419.875 201.449219 420.816406 201.0625 C 421.757812 200.671875 422.726562 200.378906 423.726562 200.179688 C 424.722656 199.980469 425.734375 199.878906 426.75 199.878906 L 445.6875 199.878906 C 445.90625 200.855469 446.207031 201.808594 446.585938 202.734375 C 446.964844 203.660156 447.421875 204.546875 447.953125 205.398438 C 448.484375 206.246094 449.082031 207.046875 449.746094 207.792969 C 450.414062 208.542969 451.136719 209.230469 451.917969 209.859375 C 452.703125 210.484375 453.53125 211.039062 454.40625 211.527344 C 455.285156 212.015625 456.195312 212.425781 457.140625 212.757812 C 458.085938 213.089844 459.054688 213.34375 460.042969 213.511719 C 461.03125 213.683594 462.023438 213.769531 463.027344 213.769531 C 463.539062 213.761719 464.027344 213.660156 464.496094 213.460938 C 464.964844 213.261719 465.378906 212.980469 465.734375 212.617188 C 466.09375 212.253906 466.367188 211.839844 466.5625 211.367188 C 466.753906 210.898438 466.851562 210.40625 466.851562 209.898438 C 466.851562 209.390625 466.753906 208.898438 466.5625 208.429688 C 466.367188 207.957031 466.09375 207.542969 465.734375 207.179688 C 465.378906 206.816406 464.964844 206.535156 464.496094 206.335938 C 464.027344 206.136719 463.539062 206.035156 463.027344 206.027344 C 462.425781 206.027344 461.824219 205.972656 461.230469 205.867188 C 460.636719 205.757812 460.058594 205.597656 459.496094 205.386719 C 458.929688 205.175781 458.386719 204.914062 457.871094 204.605469 C 457.351562 204.292969 456.867188 203.941406 456.414062 203.542969 C 455.957031 203.148438 455.542969 202.714844 455.167969 202.242188 C 454.792969 201.769531 454.460938 201.269531 454.175781 200.738281 C 453.890625 200.207031 453.65625 199.65625 453.472656 199.082031 C 453.285156 198.507812 453.152344 197.921875 453.074219 197.324219 C 452.996094 196.730469 452.96875 196.128906 453 195.527344 C 453.027344 194.925781 453.109375 194.332031 453.246094 193.746094 C 453.382812 193.15625 453.570312 192.589844 453.808594 192.035156 C 454.046875 191.480469 454.332031 190.953125 454.667969 190.453125 C 455.003906 189.953125 455.378906 189.484375 455.796875 189.050781 C 456.214844 188.617188 456.671875 188.222656 457.160156 187.871094 C 457.648438 187.519531 458.167969 187.214844 458.710938 186.953125 C 459.257812 186.695312 459.820312 186.488281 460.402344 186.332031 C 460.984375 186.171875 461.578125 186.070312 462.179688 186.019531 C 462.78125 185.96875 463.382812 185.96875 463.980469 186.027344 C 464.582031 186.085938 465.171875 186.195312 465.753906 186.359375 C 466.335938 186.523438 466.898438 186.738281 467.4375 187.003906 C 467.980469 187.265625 468.496094 187.578125 468.980469 187.933594 C 469.464844 188.292969 469.917969 188.691406 470.332031 189.128906 C 470.746094 189.566406 471.117188 190.039062 471.445312 190.542969 C 471.773438 191.046875 472.054688 191.578125 472.289062 192.132812 L 468.503906 192.132812 C 467.996094 192.144531 467.511719 192.25 467.042969 192.449219 C 466.578125 192.652344 466.164062 192.933594 465.808594 193.292969 C 465.453125 193.65625 465.179688 194.070312 464.988281 194.542969 C 464.796875 195.011719 464.699219 195.5 464.699219 196.007812 C 464.699219 196.511719 464.796875 197 464.988281 197.472656 C 465.179688 197.941406 465.453125 198.355469 465.808594 198.71875 C 466.164062 199.082031 466.578125 199.363281 467.042969 199.5625 C 467.511719 199.761719 467.996094 199.867188 468.503906 199.878906 L 519.914062 199.878906 C 520.132812 200.855469 520.433594 201.808594 520.8125 202.734375 C 521.195312 203.660156 521.648438 204.546875 522.179688 205.398438 C 522.710938 206.246094 523.308594 207.046875 523.972656 207.792969 C 524.640625 208.542969 525.363281 209.230469 526.144531 209.859375 C 526.929688 210.484375 527.757812 211.039062 528.632812 211.527344 C 529.511719 212.015625 530.421875 212.425781 531.367188 212.757812 C 532.3125 213.089844 533.28125 213.34375 534.269531 213.511719 C 535.257812 213.683594 536.253906 213.769531 537.253906 213.769531 C 537.769531 213.769531 538.265625 213.671875 538.738281 213.476562 C 539.214844 213.277344 539.632812 213 539.996094 212.636719 C 540.363281 212.273438 540.640625 211.855469 540.839844 211.378906 C 541.035156 210.90625 541.132812 210.410156 541.132812 209.898438 C 541.132812 209.386719 541.035156 208.890625 540.839844 208.417969 C 540.640625 207.941406 540.363281 207.523438 539.996094 207.160156 C 539.632812 206.796875 539.214844 206.519531 538.738281 206.320312 C 538.265625 206.125 537.769531 206.027344 537.253906 206.027344 C 536.652344 206.027344 536.054688 205.972656 535.460938 205.863281 C 534.867188 205.757812 534.285156 205.597656 533.722656 205.386719 C 533.15625 205.171875 532.617188 204.914062 532.097656 204.605469 C 531.578125 204.292969 531.09375 203.941406 530.640625 203.542969 C 530.1875 203.148438 529.769531 202.714844 529.394531 202.242188 C 529.019531 201.769531 528.691406 201.269531 528.40625 200.738281 C 528.121094 200.207031 527.882812 199.65625 527.699219 199.082031 C 527.515625 198.507812 527.382812 197.921875 527.300781 197.324219 C 527.222656 196.730469 527.195312 196.128906 527.226562 195.527344 C 527.253906 194.925781 527.335938 194.332031 527.472656 193.746094 C 527.609375 193.15625 527.796875 192.585938 528.035156 192.035156 C 528.273438 191.480469 528.5625 190.953125 528.894531 190.453125 C 529.230469 189.949219 529.605469 189.484375 530.023438 189.050781 C 530.445312 188.617188 530.898438 188.222656 531.386719 187.871094 C 531.878906 187.519531 532.394531 187.214844 532.941406 186.953125 C 533.484375 186.695312 534.046875 186.488281 534.628906 186.332031 C 535.214844 186.171875 535.804688 186.070312 536.40625 186.019531 C 537.007812 185.96875 537.609375 185.96875 538.210938 186.027344 C 538.808594 186.085938 539.402344 186.195312 539.980469 186.359375 C 540.5625 186.523438 541.125 186.738281 541.664062 187 C 542.207031 187.265625 542.722656 187.578125 543.207031 187.933594 C 543.695312 188.292969 544.144531 188.691406 544.558594 189.128906 C 544.972656 189.566406 545.34375 190.039062 545.671875 190.542969 C 546 191.046875 546.28125 191.578125 546.515625 192.132812 L 542.734375 192.132812 C 542.222656 192.144531 541.738281 192.25 541.269531 192.449219 C 540.804688 192.648438 540.390625 192.929688 540.035156 193.292969 C 539.679688 193.65625 539.40625 194.070312 539.214844 194.539062 C 539.019531 195.011719 538.925781 195.5 538.925781 196.007812 C 538.925781 196.515625 539.019531 197.003906 539.214844 197.472656 C 539.40625 197.941406 539.679688 198.355469 540.035156 198.71875 C 540.390625 199.082031 540.804688 199.363281 541.269531 199.5625 C 541.738281 199.765625 542.222656 199.867188 542.734375 199.878906 C 544.257812 199.84375 572.875 199.902344 573.535156 199.878906 C 574.554688 199.878906 575.5625 199.980469 576.5625 200.179688 C 577.558594 200.378906 578.53125 200.671875 579.472656 201.0625 C 580.410156 201.449219 581.304688 201.929688 582.152344 202.492188 C 583 203.058594 583.78125 203.699219 584.503906 204.417969 C 585.222656 205.136719 585.867188 205.921875 586.429688 206.765625 C 586.996094 207.609375 587.476562 208.503906 587.867188 209.441406 C 588.257812 210.378906 588.550781 211.347656 588.75 212.34375 C 588.949219 213.34375 589.050781 214.347656 589.050781 215.367188 L 589.050781 229.183594 L 442.265625 229.183594 C 441.757812 229.191406 441.273438 229.296875 440.804688 229.5 C 440.339844 229.699219 439.929688 229.980469 439.574219 230.34375 C 439.21875 230.707031 438.945312 231.121094 438.753906 231.589844 C 438.5625 232.058594 438.464844 232.546875 438.464844 233.054688 C 438.464844 233.5625 438.5625 234.050781 438.753906 234.519531 C 438.945312 234.988281 439.21875 235.402344 439.574219 235.765625 C 439.929688 236.128906 440.339844 236.410156 440.804688 236.609375 C 441.273438 236.8125 441.757812 236.917969 442.265625 236.925781 L 589.050781 236.925781 L 589.050781 332.015625 C 589.058594 332.523438 589.164062 333.011719 589.363281 333.480469 C 589.5625 333.945312 589.847656 334.359375 590.207031 334.714844 C 590.570312 335.070312 590.988281 335.34375 591.460938 335.539062 C 591.929688 335.730469 592.421875 335.828125 592.929688 335.828125 C 593.4375 335.828125 593.929688 335.730469 594.398438 335.539062 C 594.871094 335.34375 595.289062 335.070312 595.652344 334.714844 C 596.011719 334.359375 596.296875 333.945312 596.496094 333.480469 C 596.695312 333.011719 596.800781 332.523438 596.808594 332.015625 L 596.808594 236.925781 L 612.933594 236.925781 L 612.933594 358.097656 C 612.933594 358.726562 612.902344 359.355469 612.839844 359.984375 C 612.777344 360.613281 612.683594 361.238281 612.558594 361.855469 C 612.433594 362.476562 612.28125 363.085938 612.097656 363.691406 C 611.914062 364.296875 611.699219 364.890625 611.457031 365.472656 C 611.214844 366.054688 610.945312 366.625 610.644531 367.183594 C 610.347656 367.738281 610.023438 368.28125 609.671875 368.804688 C 609.320312 369.328125 608.941406 369.835938 608.542969 370.324219 C 608.140625 370.8125 607.714844 371.277344 607.269531 371.726562 C 606.820312 372.171875 606.351562 372.59375 605.863281 372.996094 C 605.375 373.398438 604.867188 373.773438 604.34375 374.125 C 603.816406 374.472656 603.273438 374.796875 602.71875 375.097656 C 602.160156 375.394531 601.589844 375.664062 601.003906 375.90625 C 600.421875 376.148438 599.824219 376.359375 599.21875 376.542969 C 598.617188 376.730469 598.003906 376.882812 597.382812 377.007812 C 596.761719 377.128906 596.136719 377.222656 595.507812 377.285156 C 594.878906 377.347656 594.246094 377.378906 593.613281 377.378906 Z M 612.933594 229.183594 L 596.808594 229.183594 L 596.808594 215.367188 C 596.808594 212.503906 596.292969 209.738281 595.261719 207.070312 C 594.230469 204.398438 592.753906 202 590.832031 199.878906 L 593.613281 199.878906 C 594.246094 199.878906 594.878906 199.910156 595.507812 199.972656 C 596.136719 200.035156 596.761719 200.128906 597.382812 200.253906 C 598.003906 200.375 598.617188 200.53125 599.21875 200.714844 C 599.824219 200.898438 600.421875 201.109375 601.003906 201.351562 C 601.589844 201.59375 602.160156 201.863281 602.71875 202.164062 C 603.273438 202.460938 603.816406 202.785156 604.34375 203.136719 C 604.867188 203.484375 605.375 203.863281 605.863281 204.261719 C 606.351562 204.664062 606.820312 205.085938 607.269531 205.535156 C 607.714844 205.980469 608.140625 206.445312 608.542969 206.933594 C 608.941406 207.421875 609.320312 207.929688 609.671875 208.453125 C 610.023438 208.980469 610.347656 209.519531 610.644531 210.078125 C 610.945312 210.632812 611.214844 211.203125 611.457031 211.785156 C 611.699219 212.371094 611.914062 212.964844 612.097656 213.566406 C 612.28125 214.171875 612.433594 214.78125 612.558594 215.402344 C 612.683594 216.019531 612.777344 216.644531 612.839844 217.273438 C 612.902344 217.902344 612.933594 218.53125 612.933594 219.164062 Z M 612.933594 229.183594 " fill-opacity="1" fill-rule="nonzero"/></g></svg>