<svg xmlns="http://www.w3.org/2000/svg" xmlns:xlink="http://www.w3.org/1999/xlink" width="1366" zoomAndPan="magnify" viewBox="0 0 1024.5 566.249966" height="755" preserveAspectRatio="xMidYMid meet" version="1.0"><defs><clipPath id="9fdfeeab53"><path d="M 397.617188 168.367188 L 626.066406 168.367188 L 626.066406 396.816406 L 397.617188 396.816406 Z M 397.617188 168.367188 " clip-rule="nonzero"/></clipPath></defs><path fill="#ffffff" d="M 511.839844 171.152344 C 504.210938 171.152344 496.753906 171.953125 489.554688 173.417969 L 489.554688 190.65625 C 479.871094 192.992188 470.832031 196.742188 462.5625 201.796875 L 450.375 189.609375 C 444.128906 193.75 438.417969 198.609375 433.136719 203.886719 C 427.859375 209.167969 423 214.878906 418.859375 221.125 L 431.046875 233.316406 C 425.992188 241.582031 422.242188 250.621094 419.90625 260.304688 L 402.667969 260.304688 C 401.203125 267.503906 400.402344 274.960938 400.402344 282.589844 C 400.402344 290.222656 401.203125 297.675781 402.667969 304.878906 L 419.90625 304.878906 C 422.242188 314.558594 425.992188 323.597656 431.046875 331.867188 L 418.859375 344.054688 C 423 350.304688 427.859375 356.015625 433.136719 361.292969 C 438.417969 366.574219 444.128906 371.429688 450.375 375.570312 L 462.5625 363.382812 C 470.832031 368.441406 479.871094 372.191406 489.554688 374.527344 L 489.554688 391.765625 C 496.753906 393.230469 504.210938 394.027344 511.839844 394.027344 C 519.472656 394.027344 526.925781 393.230469 534.128906 391.765625 L 534.128906 374.527344 C 543.808594 372.191406 552.847656 368.441406 561.117188 363.382812 L 573.304688 375.570312 C 579.554688 371.429688 585.261719 366.574219 590.542969 361.292969 C 595.824219 356.015625 600.679688 350.304688 604.820312 344.054688 L 592.632812 331.867188 C 597.691406 323.597656 601.441406 314.558594 603.777344 304.878906 L 621.015625 304.878906 C 622.476562 297.675781 623.277344 290.222656 623.277344 282.589844 C 623.277344 274.960938 622.476562 267.503906 621.015625 260.304688 L 603.777344 260.304688 C 601.441406 250.621094 597.691406 241.582031 592.632812 233.316406 L 604.820312 221.125 C 600.679688 214.878906 595.824219 209.167969 590.542969 203.886719 C 585.261719 198.609375 579.554688 193.75 573.304688 189.609375 L 561.117188 201.796875 C 552.847656 196.742188 543.808594 192.992188 534.128906 190.65625 L 534.128906 173.417969 C 526.925781 171.953125 519.472656 171.152344 511.839844 171.152344 Z M 511.839844 226.871094 C 542.597656 226.871094 567.558594 251.835938 567.558594 282.589844 C 567.558594 313.347656 542.597656 338.308594 511.839844 338.308594 C 481.082031 338.308594 456.121094 313.347656 456.121094 282.589844 C 456.121094 251.835938 481.082031 226.871094 511.839844 226.871094 Z M 511.839844 226.871094 " fill-opacity="1" fill-rule="nonzero"/><g clip-path="url(#9fdfeeab53)"><path stroke-linecap="round" transform="matrix(2.785944, 0, 0, 2.785944, 397.617095, 168.367233)" fill="none" stroke-linejoin="round" d="M 40.999658 0.999701 C 38.261302 0.999701 35.584639 1.287137 33.000518 1.812935 L 33.000518 8.000526 C 29.524642 8.838999 26.280118 10.185041 23.311813 11.999395 L 18.937174 7.624756 C 16.695171 9.111011 14.64526 10.855259 12.749583 12.749534 C 10.855308 14.645211 9.111061 16.695122 7.624805 18.937124 L 11.999445 23.313166 C 10.185091 26.280069 8.839048 29.524593 8.000576 33.000468 L 1.812985 33.000468 C 1.287187 35.58459 0.999751 38.261252 0.999751 40.999608 C 0.999751 43.739366 1.287187 46.414627 1.812985 49.000151 L 8.000576 49.000151 C 8.839048 52.474624 10.185091 55.719148 11.999445 58.687453 L 7.624805 63.062092 C 9.111061 65.305497 10.855308 67.355408 12.749583 69.249683 C 14.64526 71.14536 16.695171 72.888205 18.937174 74.374461 L 23.311813 69.999821 C 26.280118 71.815577 29.524642 73.16162 33.000518 74.000092 L 33.000518 80.187683 C 35.584639 80.713481 38.261302 80.999515 40.999658 80.999515 C 43.739416 80.999515 46.414676 80.713481 49.0002 80.187683 L 49.0002 74.000092 C 52.474673 73.16162 55.719197 71.815577 58.687502 69.999821 L 63.062142 74.374461 C 65.305546 72.888205 67.354055 71.14536 69.249732 69.249683 C 71.145409 67.355408 72.888255 65.305497 74.37451 63.062092 L 69.999871 58.687453 C 71.815627 55.719148 73.161669 52.474624 74.000142 49.000151 L 80.187733 49.000151 C 80.712129 46.414627 80.999565 43.739366 80.999565 40.999608 C 80.999565 38.261252 80.712129 35.58459 80.187733 33.000468 L 74.000142 33.000468 C 73.161669 29.524593 71.815627 26.280069 69.999871 23.313166 L 74.37451 18.937124 C 72.888255 16.695122 71.145409 14.645211 69.249732 12.749534 C 67.354055 10.855259 65.305546 9.111011 63.062142 7.624756 L 58.687502 11.999395 C 55.719197 10.185041 52.474673 8.838999 49.0002 8.000526 L 49.0002 1.812935 C 46.414676 1.287137 43.739416 0.999701 40.999658 0.999701 Z M 40.999658 20.999655 C 52.040013 20.999655 60.999611 29.960655 60.999611 40.999608 C 60.999611 52.039964 52.040013 60.999562 40.999658 60.999562 C 29.959302 60.999562 20.999704 52.039964 20.999704 40.999608 C 20.999704 29.960655 29.959302 20.999655 40.999658 20.999655 Z M 40.999658 20.999655 " stroke="#2c2c2c" stroke-width="2" stroke-opacity="1" stroke-miterlimit="4"/></g></svg>