<svg xmlns="http://www.w3.org/2000/svg" xmlns:xlink="http://www.w3.org/1999/xlink" width="1366" zoomAndPan="magnify" viewBox="0 0 1024.5 566.249966" height="755" preserveAspectRatio="xMidYMid meet" version="1.0"><defs><clipPath id="658df18eb9"><path d="M 409.230469 177.6875 L 614.457031 177.6875 L 614.457031 388.160156 L 409.230469 388.160156 Z M 409.230469 177.6875 " clip-rule="nonzero"/></clipPath></defs><g clip-path="url(#658df18eb9)"><path fill="#f3be4a" d="M 584.703125 299.214844 C 584.703125 299.214844 580.183594 314.566406 575.230469 319.539062 C 570.273438 324.511719 554.96875 329.046875 554.96875 329.046875 C 554.96875 329.046875 570.273438 333.582031 575.230469 338.550781 C 580.183594 343.523438 584.703125 358.875 584.703125 358.875 C 584.703125 358.875 589.226562 343.523438 594.179688 338.550781 C 599.136719 333.582031 614.441406 329.046875 614.441406 329.046875 C 614.441406 329.046875 599.136719 324.511719 594.179688 319.539062 C 589.226562 314.566406 584.703125 299.214844 584.703125 299.214844 Z M 454.328125 297.554688 C 454.328125 297.554688 447.472656 320.839844 439.953125 328.378906 C 432.441406 335.917969 409.230469 342.796875 409.230469 342.796875 C 409.230469 342.796875 432.441406 349.675781 439.953125 357.214844 C 447.472656 364.753906 454.328125 388.039062 454.328125 388.039062 C 454.328125 388.039062 461.183594 364.753906 468.699219 357.214844 C 476.21875 349.675781 499.425781 342.796875 499.425781 342.796875 C 499.425781 342.796875 476.21875 335.917969 468.699219 328.378906 C 461.183594 320.839844 454.328125 297.554688 454.328125 297.554688 Z M 523.503906 177.824219 C 523.503906 177.824219 512.988281 213.535156 501.457031 225.101562 C 489.929688 236.667969 454.328125 247.21875 454.328125 247.21875 C 454.328125 247.21875 489.929688 257.765625 501.457031 269.332031 C 512.988281 280.898438 523.503906 316.613281 523.503906 316.613281 C 523.503906 316.613281 534.019531 280.898438 545.550781 269.332031 C 557.082031 257.765625 592.679688 247.21875 592.679688 247.21875 C 592.679688 247.21875 557.082031 236.667969 545.550781 225.101562 C 534.019531 213.535156 523.503906 177.824219 523.503906 177.824219 " fill-opacity="1" fill-rule="evenodd"/></g></svg>