<svg xmlns="http://www.w3.org/2000/svg" xmlns:xlink="http://www.w3.org/1999/xlink" width="1366" zoomAndPan="magnify" viewBox="0 0 1024.5 566.249966" height="755" preserveAspectRatio="xMidYMid meet" version="1.0"><defs><clipPath id="f2158d2c9f"><path d="M 398.898438 169.648438 L 625.101562 169.648438 L 625.101562 395.851562 L 398.898438 395.851562 Z M 398.898438 169.648438 " clip-rule="nonzero"/></clipPath></defs><g clip-path="url(#f2158d2c9f)"><path fill="#000000" d="M 512 169.648438 C 449.492188 169.648438 398.898438 220.234375 398.898438 282.75 C 398.898438 345.257812 449.484375 395.851562 512 395.851562 C 574.507812 395.851562 625.101562 345.265625 625.101562 282.75 C 625.101562 220.242188 574.515625 169.648438 512 169.648438 Z M 512 382.542969 C 456.972656 382.542969 412.207031 337.777344 412.207031 282.75 C 412.207031 227.722656 456.972656 182.957031 512 182.957031 C 567.027344 182.957031 611.792969 227.722656 611.792969 282.75 C 611.792969 337.777344 567.027344 382.542969 512 382.542969 Z M 512 382.542969 " fill-opacity="1" fill-rule="nonzero"/></g><path fill="#000000" d="M 571.875 322.667969 L 504.203125 322.667969 C 501.457031 314.925781 494.0625 309.363281 485.386719 309.363281 C 476.714844 309.363281 469.320312 314.925781 466.574219 322.667969 L 452.125 322.667969 C 448.449219 322.667969 445.472656 325.648438 445.472656 329.320312 C 445.472656 332.996094 448.449219 335.972656 452.125 335.972656 L 466.574219 335.972656 C 469.320312 343.71875 476.714844 349.28125 485.386719 349.28125 C 494.0625 349.28125 501.457031 343.71875 504.203125 335.972656 L 571.875 335.972656 C 575.550781 335.972656 578.53125 332.996094 578.53125 329.320312 C 578.53125 325.648438 575.550781 322.667969 571.875 322.667969 Z M 571.875 322.667969 " fill-opacity="1" fill-rule="nonzero"/><path fill="#000000" d="M 571.875 236.179688 L 504.203125 236.179688 C 501.457031 228.4375 494.0625 222.875 485.386719 222.875 C 476.714844 222.875 469.320312 228.4375 466.574219 236.179688 L 452.125 236.179688 C 448.449219 236.179688 445.472656 239.160156 445.472656 242.832031 C 445.472656 246.507812 448.449219 249.484375 452.125 249.484375 L 466.574219 249.484375 C 469.320312 257.230469 476.714844 262.792969 485.386719 262.792969 C 494.0625 262.792969 501.457031 257.230469 504.203125 249.484375 L 571.875 249.484375 C 575.550781 249.484375 578.53125 246.507812 578.53125 242.832031 C 578.53125 239.160156 575.550781 236.179688 571.875 236.179688 Z M 571.875 236.179688 " fill-opacity="1" fill-rule="nonzero"/><path fill="#000000" d="M 571.875 276.097656 L 557.425781 276.097656 C 554.679688 268.355469 547.285156 262.792969 538.613281 262.792969 C 529.9375 262.792969 522.542969 268.355469 519.796875 276.097656 L 452.125 276.097656 C 448.449219 276.097656 445.472656 279.078125 445.472656 282.75 C 445.472656 286.425781 448.449219 289.402344 452.125 289.402344 L 519.796875 289.402344 C 522.542969 297.148438 529.9375 302.710938 538.613281 302.710938 C 547.285156 302.710938 554.679688 297.148438 557.425781 289.402344 L 571.875 289.402344 C 575.550781 289.402344 578.53125 286.425781 578.53125 282.75 C 578.53125 279.078125 575.550781 276.097656 571.875 276.097656 Z M 571.875 276.097656 " fill-opacity="1" fill-rule="nonzero"/></svg>