<svg xmlns="http://www.w3.org/2000/svg" xmlns:xlink="http://www.w3.org/1999/xlink" width="1366" zoomAndPan="magnify" viewBox="0 0 1024.5 566.249966" height="755" preserveAspectRatio="xMidYMid meet" version="1.0"><defs><clipPath id="ffd31794a9"><path d="M 411.957031 182.707031 L 611.945312 182.707031 L 611.945312 382.695312 L 411.957031 382.695312 Z M 411.957031 182.707031 " clip-rule="nonzero"/></clipPath></defs><g clip-path="url(#ffd31794a9)"><path fill="#000000" d="M 511.933594 382.683594 C 456.800781 382.683594 411.941406 337.824219 411.941406 282.6875 C 411.941406 227.554688 456.800781 182.691406 511.933594 182.691406 C 567.070312 182.691406 611.929688 227.550781 611.929688 282.683594 C 611.929688 337.820312 567.070312 382.679688 511.933594 382.679688 Z M 511.933594 192.214844 C 462.050781 192.214844 421.460938 232.804688 421.460938 282.6875 C 421.460938 332.574219 462.050781 373.160156 511.933594 373.160156 C 561.820312 373.160156 602.40625 332.574219 602.40625 282.6875 C 602.40625 232.804688 561.820312 192.214844 511.933594 192.214844 Z M 511.933594 192.214844 " fill-opacity="1" fill-rule="nonzero"/></g><path fill="#000000" d="M 441.234375 218.71875 L 447.96875 211.984375 L 582.636719 346.652344 L 575.902344 353.386719 Z M 441.234375 218.71875 " fill-opacity="1" fill-rule="nonzero"/></svg>