<svg xmlns="http://www.w3.org/2000/svg" xmlns:xlink="http://www.w3.org/1999/xlink" width="1366" zoomAndPan="magnify" viewBox="0 0 1024.5 514.499985" height="686" preserveAspectRatio="xMidYMid meet" version="1.0"><defs><clipPath id="f02719b1f2"><path d="M 417.160156 163.492188 L 607 163.492188 L 607 350.507812 L 417.160156 350.507812 Z M 417.160156 163.492188 " clip-rule="nonzero"/></clipPath><clipPath id="af0d433fae"><path d="M 424.652344 163.492188 L 599.347656 163.492188 C 601.335938 163.492188 603.242188 164.28125 604.644531 165.6875 C 606.050781 167.089844 606.839844 168.996094 606.839844 170.984375 L 606.839844 343.015625 C 606.839844 345.003906 606.050781 346.910156 604.644531 348.316406 C 603.242188 349.71875 601.335938 350.507812 599.347656 350.507812 L 424.652344 350.507812 C 422.664062 350.507812 420.761719 349.71875 419.355469 348.316406 C 417.949219 346.910156 417.160156 345.003906 417.160156 343.015625 L 417.160156 170.984375 C 417.160156 168.996094 417.949219 167.089844 419.355469 165.6875 C 420.761719 164.28125 422.664062 163.492188 424.652344 163.492188 Z M 424.652344 163.492188 " clip-rule="nonzero"/></clipPath><clipPath id="e639066391"><path d="M 434.144531 184.242188 L 589.851562 184.242188 L 589.851562 329.222656 L 434.144531 329.222656 Z M 434.144531 184.242188 " clip-rule="nonzero"/></clipPath></defs><g clip-path="url(#f02719b1f2)"><g clip-path="url(#af0d433fae)"><path fill="#76c2af" d="M 417.160156 163.492188 L 607.101562 163.492188 L 607.101562 350.507812 L 417.160156 350.507812 Z M 417.160156 163.492188 " fill-opacity="1" fill-rule="nonzero"/></g></g><g clip-path="url(#e639066391)"><path fill="#ffffff" d="M 462.128906 193.796875 L 462.128906 212.226562 L 443.699219 212.226562 Z M 529.292969 259.125 L 499.675781 289.1875 C 499.371094 289.503906 499.152344 289.886719 499.003906 290.296875 C 498.855469 290.542969 498.734375 290.804688 498.65625 291.09375 L 493.128906 311.972656 C 492.855469 313.035156 493.164062 314.171875 493.949219 314.945312 C 494.53125 315.515625 495.3125 315.828125 496.109375 315.828125 C 496.386719 315.828125 496.664062 315.789062 496.9375 315.714844 L 517.714844 309.878906 C 517.890625 309.832031 518.046875 309.746094 518.210938 309.667969 L 518.808594 309.648438 L 529.292969 299.003906 L 529.292969 324.164062 L 439.742188 324.164062 L 439.742188 217.824219 L 464.929688 217.824219 C 466.476562 217.824219 467.726562 216.570312 467.726562 215.023438 L 467.726562 189.839844 L 529.292969 189.839844 Z M 562.398438 233.496094 L 570.988281 224.777344 C 572.75 222.992188 575.636719 222.972656 577.417969 224.726562 L 582.902344 230.128906 C 584.6875 231.886719 584.710938 234.773438 582.953125 236.558594 L 574.359375 245.28125 L 570.371094 241.351562 L 566.382812 237.425781 Z M 502.957031 296.71875 L 504.125 297.871094 L 505.503906 299.226562 L 505.5 299.226562 L 508.738281 302.417969 L 509.488281 303.15625 L 512.03125 305.664062 L 499.671875 309.132812 Z M 505.441406 291.3125 L 558.46875 237.484375 L 561.128906 240.105469 L 562.457031 241.414062 L 547.429688 256.664062 L 509.429688 295.238281 L 507.371094 293.210938 Z M 570.433594 249.269531 L 517.402344 303.09375 L 513.417969 299.167969 L 552.101562 259.902344 L 566.445312 245.339844 L 567.773438 246.652344 Z M 437.222656 329.761719 L 531.8125 329.761719 C 533.511719 329.761719 534.890625 328.378906 534.890625 326.683594 L 534.890625 293.382812 C 534.890625 293.363281 534.878906 293.347656 534.878906 293.332031 L 574.417969 253.195312 L 586.941406 240.488281 C 590.863281 236.5 590.8125 230.066406 586.832031 226.144531 L 581.347656 220.742188 C 577.363281 216.8125 570.929688 216.867188 567.003906 220.847656 L 558.410156 229.570312 L 534.890625 253.445312 L 534.890625 187.320312 C 534.890625 185.625 533.511719 184.242188 531.8125 184.242188 L 465.042969 184.242188 C 464.300781 184.242188 463.390625 184.617188 462.867188 185.144531 L 435.046875 212.964844 C 434.523438 213.488281 434.144531 214.398438 434.144531 215.140625 L 434.144531 326.683594 C 434.144531 328.378906 435.527344 329.761719 437.222656 329.761719 " fill-opacity="1" fill-rule="nonzero"/></g><path fill="#ffffff" d="M 467.726562 237.410156 C 467.726562 242.042969 463.960938 245.808594 459.332031 245.808594 C 454.703125 245.808594 450.9375 242.042969 450.9375 237.410156 C 450.9375 232.78125 454.703125 229.015625 459.332031 229.015625 C 461.214844 229.015625 462.933594 229.664062 464.335938 230.710938 L 457.777344 235.085938 L 460.882812 239.742188 L 467.445312 235.367188 C 467.613281 236.023438 467.726562 236.703125 467.726562 237.410156 Z M 469.175781 227.488281 C 466.644531 224.976562 463.167969 223.421875 459.332031 223.421875 C 451.617188 223.421875 445.339844 229.699219 445.339844 237.410156 C 445.339844 245.125 451.617188 251.40625 459.332031 251.40625 C 467.046875 251.40625 473.324219 245.125 473.324219 237.410156 C 473.324219 235.546875 472.941406 233.773438 472.277344 232.144531 L 477.675781 228.546875 L 474.570312 223.890625 L 469.175781 227.488281 " fill-opacity="1" fill-rule="nonzero"/><path fill="#ffffff" d="M 467.726562 270.992188 C 467.726562 275.625 463.960938 279.390625 459.332031 279.390625 C 454.703125 279.390625 450.9375 275.625 450.9375 270.992188 C 450.9375 266.363281 454.703125 262.597656 459.332031 262.597656 C 461.214844 262.597656 462.933594 263.246094 464.335938 264.292969 L 457.777344 268.664062 L 460.882812 273.324219 L 467.445312 268.949219 C 467.613281 269.605469 467.726562 270.285156 467.726562 270.992188 Z M 469.175781 261.066406 C 466.644531 258.558594 463.167969 257.003906 459.332031 257.003906 C 451.617188 257.003906 445.339844 263.277344 445.339844 270.992188 C 445.339844 278.707031 451.617188 284.988281 459.332031 284.988281 C 467.046875 284.988281 473.324219 278.707031 473.324219 270.992188 C 473.324219 269.128906 472.941406 267.355469 472.277344 265.726562 L 477.675781 262.128906 L 474.570312 257.472656 L 469.175781 261.066406 " fill-opacity="1" fill-rule="nonzero"/><path fill="#ffffff" d="M 467.726562 304.574219 C 467.726562 309.207031 463.960938 312.972656 459.332031 312.972656 C 454.703125 312.972656 450.9375 309.207031 450.9375 304.574219 C 450.9375 299.945312 454.703125 296.179688 459.332031 296.179688 C 461.214844 296.179688 462.933594 296.824219 464.335938 297.875 L 457.777344 302.246094 L 460.882812 306.90625 L 467.445312 302.53125 C 467.613281 303.1875 467.726562 303.867188 467.726562 304.574219 Z M 474.570312 291.054688 L 469.175781 294.652344 C 466.644531 292.140625 463.167969 290.582031 459.332031 290.582031 C 451.617188 290.582031 445.339844 296.859375 445.339844 304.574219 C 445.339844 312.292969 451.617188 318.570312 459.332031 318.570312 C 467.046875 318.570312 473.324219 312.292969 473.324219 304.574219 C 473.324219 302.710938 472.941406 300.9375 472.277344 299.308594 L 477.675781 295.710938 L 474.570312 291.054688 " fill-opacity="1" fill-rule="nonzero"/><path fill="#ffffff" d="M 523.695312 201.03125 L 523.695312 195.4375 L 473.324219 195.4375 L 473.324219 201.03125 L 523.695312 201.03125 " fill-opacity="1" fill-rule="nonzero"/><path fill="#ffffff" d="M 492.914062 229.015625 L 492.914062 223.421875 L 481.71875 223.421875 L 481.71875 229.015625 L 492.914062 229.015625 " fill-opacity="1" fill-rule="nonzero"/><path fill="#ffffff" d="M 498.511719 229.015625 L 523.695312 229.015625 L 523.695312 223.421875 L 498.511719 223.421875 L 498.511719 229.015625 " fill-opacity="1" fill-rule="nonzero"/><path fill="#ffffff" d="M 512.503906 251.40625 L 523.695312 251.40625 L 523.695312 245.808594 L 512.503906 245.808594 L 512.503906 251.40625 " fill-opacity="1" fill-rule="nonzero"/><path fill="#ffffff" d="M 506.90625 245.808594 L 481.71875 245.808594 L 481.71875 251.40625 L 506.90625 251.40625 L 506.90625 245.808594 " fill-opacity="1" fill-rule="nonzero"/><path fill="#ffffff" d="M 481.71875 240.210938 L 523.695312 240.210938 L 523.695312 234.613281 L 481.71875 234.613281 L 481.71875 240.210938 " fill-opacity="1" fill-rule="nonzero"/><path fill="#ffffff" d="M 481.71875 262.597656 L 492.914062 262.597656 L 492.914062 257.003906 L 481.71875 257.003906 L 481.71875 262.597656 " fill-opacity="1" fill-rule="nonzero"/><path fill="#ffffff" d="M 481.71875 307.375 L 490.113281 307.375 L 490.113281 301.777344 L 481.71875 301.777344 L 481.71875 307.375 " fill-opacity="1" fill-rule="nonzero"/><path fill="#ffffff" d="M 481.71875 318.570312 L 490.113281 318.570312 L 490.113281 312.972656 L 481.71875 312.972656 L 481.71875 318.570312 " fill-opacity="1" fill-rule="nonzero"/><path fill="#ffffff" d="M 498.511719 262.597656 L 520.898438 262.597656 L 520.898438 257.003906 L 498.511719 257.003906 L 498.511719 262.597656 " fill-opacity="1" fill-rule="nonzero"/><path fill="#ffffff" d="M 481.71875 296.179688 L 492.914062 296.179688 L 492.914062 290.582031 L 481.71875 290.582031 L 481.71875 296.179688 " fill-opacity="1" fill-rule="nonzero"/><path fill="#ffffff" d="M 481.71875 284.988281 L 498.511719 284.988281 L 498.511719 279.390625 L 481.71875 279.390625 L 481.71875 284.988281 " fill-opacity="1" fill-rule="nonzero"/><path fill="#ffffff" d="M 481.71875 273.792969 L 509.703125 273.792969 L 509.703125 268.195312 L 481.71875 268.195312 L 481.71875 273.792969 " fill-opacity="1" fill-rule="nonzero"/><path fill="#ffffff" d="M 518.097656 206.628906 L 478.921875 206.628906 L 478.921875 212.226562 L 518.097656 212.226562 L 518.097656 206.628906 " fill-opacity="1" fill-rule="nonzero"/></svg>