<svg xmlns="http://www.w3.org/2000/svg" xmlns:xlink="http://www.w3.org/1999/xlink" width="1366" zoomAndPan="magnify" viewBox="0 0 1024.5 566.249966" height="755" preserveAspectRatio="xMidYMid meet" version="1.0"><defs><clipPath id="07e79e9b3e"><path d="M 374.003906 170 L 636 170 L 636 396 L 374.003906 396 Z M 374.003906 170 " clip-rule="nonzero"/></clipPath></defs><path fill="#040606" d="M 566.71875 313.675781 C 569.15625 315.070312 572.265625 314.234375 573.65625 311.796875 C 575.050781 309.355469 574.214844 306.265625 571.800781 304.875 L 527.640625 279.34375 L 527.640625 223.242188 C 527.640625 220.433594 525.367188 218.15625 522.558594 218.15625 C 519.753906 218.15625 517.480469 220.433594 517.480469 223.242188 L 517.480469 285.21875 L 566.71875 313.675781 " fill-opacity="1" fill-rule="nonzero"/><g clip-path="url(#07e79e9b3e)"><path fill="#040606" d="M 466.058594 282.96875 L 431.921875 282.96875 C 431.921875 232.511719 472.785156 191.601562 523.1875 191.601562 C 573.585938 191.601562 614.449219 232.511719 614.449219 282.96875 C 614.449219 333.421875 573.585938 374.332031 523.1875 374.332031 C 513.09375 374.332031 503.070312 372.660156 493.507812 369.359375 C 488.054688 367.476562 482.089844 370.382812 480.210938 375.863281 C 478.332031 381.324219 481.257812 387.292969 486.710938 389.175781 C 545.300781 409.339844 609.136719 378.140625 629.277344 319.484375 C 649.421875 260.828125 618.28125 196.945312 559.6875 176.757812 C 501.097656 156.59375 437.261719 187.792969 417.117188 246.449219 C 413.082031 258.203125 411.015625 270.539062 411.015625 282.96875 L 376.882812 282.96875 C 375.28125 282.96875 374.003906 284.246094 374.003906 285.847656 C 374.003906 286.566406 374.28125 287.265625 374.769531 287.800781 L 419.367188 335.976562 C 420.4375 337.140625 422.269531 337.210938 423.429688 336.117188 C 423.476562 336.070312 423.523438 336.023438 423.570312 335.976562 L 468.167969 287.800781 C 469.257812 286.636719 469.191406 284.800781 468.03125 283.734375 C 467.496094 283.246094 466.800781 282.96875 466.058594 282.96875 " fill-opacity="1" fill-rule="nonzero"/></g></svg>