<svg xmlns="http://www.w3.org/2000/svg" xmlns:xlink="http://www.w3.org/1999/xlink" width="1366" zoomAndPan="magnify" viewBox="0 0 1024.5 566.249966" height="755" preserveAspectRatio="xMidYMid meet" version="1.0"><defs><clipPath id="b2a107fb6f"><path d="M 379.722656 172 L 622 172 L 622 414.871094 L 379.722656 414.871094 Z M 379.722656 172 " clip-rule="nonzero"/></clipPath></defs><g clip-path="url(#b2a107fb6f)"><path fill="#000000" d="M 601.738281 394.6875 L 399.90625 394.6875 L 399.90625 192.855469 L 521.003906 192.855469 L 521.003906 172.671875 L 399.90625 172.671875 C 388.765625 172.671875 379.722656 181.714844 379.722656 192.855469 L 379.722656 394.6875 C 379.722656 405.828125 388.765625 414.871094 399.90625 414.871094 L 601.738281 414.871094 C 612.878906 414.871094 621.921875 405.828125 621.921875 394.6875 L 621.921875 273.589844 L 601.738281 273.589844 Z M 601.738281 394.6875 " fill-opacity="1" fill-rule="nonzero"/></g><path fill="#000000" d="M 460.453125 334.460938 L 502.941406 334.460938 L 605.914062 231.488281 L 563.105469 188.679688 L 460.453125 291.332031 Z M 460.453125 334.460938 " fill-opacity="1" fill-rule="nonzero"/><path fill="#000000" d="M 636.191406 172.671875 L 621.921875 158.402344 C 614.027344 150.511719 601.253906 150.511719 593.382812 158.402344 L 577.375 174.410156 L 620.183594 217.21875 L 636.191406 201.210938 C 644.082031 193.320312 644.082031 180.546875 636.191406 172.671875 Z M 636.191406 172.671875 " fill-opacity="1" fill-rule="nonzero"/></svg>