<svg xmlns="http://www.w3.org/2000/svg" xmlns:xlink="http://www.w3.org/1999/xlink" width="1366" zoomAndPan="magnify" viewBox="0 0 1024.5 566.249966" height="755" preserveAspectRatio="xMidYMid meet" version="1.0"><defs><clipPath id="4e7bb25499"><path d="M 450.992188 221.742188 L 573.078125 221.742188 L 573.078125 343.828125 L 450.992188 343.828125 Z M 450.992188 221.742188 " clip-rule="nonzero"/></clipPath></defs><g clip-path="url(#4e7bb25499)"><path fill="#000000" d="M 512.035156 221.742188 C 510.035156 221.742188 508.042969 221.839844 506.050781 222.035156 C 504.0625 222.230469 502.085938 222.523438 500.125 222.914062 C 498.164062 223.304688 496.230469 223.789062 494.316406 224.371094 C 492.402344 224.949219 490.523438 225.625 488.675781 226.386719 C 486.828125 227.152344 485.023438 228.007812 483.261719 228.949219 C 481.496094 229.890625 479.785156 230.917969 478.121094 232.03125 C 476.460938 233.140625 474.855469 234.328125 473.308594 235.597656 C 471.765625 236.867188 470.285156 238.207031 468.871094 239.621094 C 467.457031 241.035156 466.117188 242.515625 464.847656 244.058594 C 463.578125 245.605469 462.390625 247.210938 461.28125 248.871094 C 460.167969 250.535156 459.140625 252.246094 458.199219 254.011719 C 457.257812 255.773438 456.402344 257.578125 455.636719 259.425781 C 454.875 261.273438 454.199219 263.152344 453.621094 265.066406 C 453.039062 266.980469 452.554688 268.914062 452.164062 270.875 C 451.773438 272.835938 451.480469 274.8125 451.285156 276.800781 C 451.089844 278.792969 450.992188 280.785156 450.992188 282.785156 C 450.992188 284.785156 451.089844 286.78125 451.285156 288.769531 C 451.480469 290.757812 451.773438 292.734375 452.164062 294.695312 C 452.554688 296.65625 453.039062 298.59375 453.621094 300.507812 C 454.199219 302.417969 454.875 304.300781 455.636719 306.148438 C 456.402344 307.992188 457.257812 309.796875 458.199219 311.5625 C 459.140625 313.324219 460.167969 315.039062 461.28125 316.699219 C 462.390625 318.363281 463.578125 319.964844 464.847656 321.511719 C 466.117188 323.058594 467.457031 324.535156 468.871094 325.949219 C 470.285156 327.363281 471.765625 328.707031 473.308594 329.972656 C 474.855469 331.242188 476.460938 332.429688 478.121094 333.542969 C 479.785156 334.652344 481.496094 335.679688 483.261719 336.621094 C 485.023438 337.566406 486.828125 338.417969 488.675781 339.183594 C 490.523438 339.949219 492.402344 340.621094 494.316406 341.203125 C 496.230469 341.78125 498.164062 342.265625 500.125 342.65625 C 502.085938 343.046875 504.0625 343.339844 506.050781 343.535156 C 508.042969 343.730469 510.035156 343.828125 512.035156 343.828125 C 514.035156 343.828125 516.03125 343.730469 518.019531 343.535156 C 520.007812 343.339844 521.984375 343.046875 523.945312 342.65625 C 525.90625 342.265625 527.84375 341.78125 529.757812 341.203125 C 531.667969 340.621094 533.550781 339.949219 535.394531 339.183594 C 537.242188 338.417969 539.046875 337.566406 540.8125 336.621094 C 542.574219 335.679688 544.289062 334.652344 545.949219 333.542969 C 547.613281 332.429688 549.214844 331.242188 550.761719 329.972656 C 552.308594 328.707031 553.785156 327.363281 555.199219 325.949219 C 556.613281 324.535156 557.957031 323.058594 559.222656 321.511719 C 560.492188 319.964844 561.679688 318.363281 562.792969 316.699219 C 563.902344 315.039062 564.929688 313.324219 565.871094 311.5625 C 566.8125 309.796875 567.667969 307.992188 568.433594 306.148438 C 569.199219 304.300781 569.871094 302.417969 570.453125 300.507812 C 571.03125 298.59375 571.515625 296.65625 571.90625 294.695312 C 572.296875 292.734375 572.589844 290.757812 572.785156 288.769531 C 572.980469 286.78125 573.078125 284.785156 573.078125 282.785156 C 573.078125 280.785156 572.980469 278.792969 572.785156 276.800781 C 572.589844 274.8125 572.296875 272.835938 571.90625 270.875 C 571.515625 268.914062 571.03125 266.980469 570.453125 265.066406 C 569.871094 263.152344 569.199219 261.273438 568.433594 259.425781 C 567.667969 257.578125 566.8125 255.773438 565.871094 254.011719 C 564.929688 252.246094 563.902344 250.535156 562.792969 248.871094 C 561.679688 247.210938 560.492188 245.605469 559.222656 244.058594 C 557.957031 242.515625 556.613281 241.035156 555.199219 239.621094 C 553.785156 238.207031 552.308594 236.867188 550.761719 235.597656 C 549.214844 234.328125 547.613281 233.140625 545.949219 232.03125 C 544.289062 230.917969 542.574219 229.890625 540.8125 228.949219 C 539.046875 228.007812 537.242188 227.152344 535.394531 226.386719 C 533.550781 225.625 531.667969 224.949219 529.757812 224.371094 C 527.84375 223.789062 525.90625 223.304688 523.945312 222.914062 C 521.984375 222.523438 520.007812 222.230469 518.019531 222.035156 C 516.03125 221.839844 514.035156 221.742188 512.035156 221.742188 Z M 478.394531 324.242188 C 479.460938 323.082031 480.585938 321.980469 481.769531 320.941406 C 482.949219 319.898438 484.183594 318.917969 485.464844 318.003906 C 486.75 317.085938 488.074219 316.242188 489.445312 315.464844 C 490.816406 314.683594 492.222656 313.980469 493.667969 313.347656 C 495.109375 312.714844 496.582031 312.15625 498.082031 311.675781 C 499.585938 311.195312 501.105469 310.796875 502.648438 310.472656 C 504.191406 310.148438 505.746094 309.90625 507.3125 309.742188 C 508.882812 309.582031 510.453125 309.5 512.027344 309.5 C 513.605469 309.5 515.175781 309.582031 516.746094 309.742188 C 518.3125 309.90625 519.867188 310.148438 521.410156 310.472656 C 522.953125 310.796875 524.472656 311.195312 525.972656 311.675781 C 527.476562 312.15625 528.949219 312.714844 530.390625 313.347656 C 531.835938 313.980469 533.242188 314.683594 534.613281 315.464844 C 535.984375 316.242188 537.308594 317.085938 538.59375 318.003906 C 539.875 318.917969 541.109375 319.898438 542.289062 320.941406 C 543.472656 321.980469 544.597656 323.082031 545.664062 324.242188 C 544.488281 325.199219 543.273438 326.105469 542.015625 326.960938 C 540.761719 327.816406 539.472656 328.613281 538.152344 329.359375 C 536.828125 330.101562 535.476562 330.789062 534.09375 331.417969 C 532.714844 332.046875 531.308594 332.617188 529.878906 333.125 C 528.449219 333.632812 527 334.078125 525.53125 334.464844 C 524.0625 334.847656 522.582031 335.167969 521.085938 335.429688 C 519.589844 335.6875 518.085938 335.878906 516.574219 336.007812 C 515.0625 336.136719 513.546875 336.203125 512.027344 336.203125 C 510.511719 336.203125 508.996094 336.136719 507.484375 336.007812 C 505.972656 335.878906 504.46875 335.6875 502.972656 335.429688 C 501.476562 335.167969 499.996094 334.847656 498.527344 334.464844 C 497.058594 334.078125 495.609375 333.632812 494.179688 333.125 C 492.75 332.617188 491.34375 332.046875 489.960938 331.417969 C 488.582031 330.789062 487.230469 330.101562 485.90625 329.359375 C 484.582031 328.613281 483.296875 327.816406 482.039062 326.960938 C 480.785156 326.105469 479.570312 325.199219 478.394531 324.242188 Z M 551.238281 319.019531 C 550.617188 318.34375 549.976562 317.6875 549.320312 317.046875 C 548.664062 316.40625 547.992188 315.78125 547.304688 315.175781 C 546.613281 314.570312 545.910156 313.984375 545.191406 313.414062 C 544.472656 312.84375 543.742188 312.292969 542.992188 311.761719 C 542.246094 311.226562 541.484375 310.714844 540.710938 310.222656 C 539.9375 309.730469 539.152344 309.257812 538.355469 308.804688 C 537.554688 308.351562 536.746094 307.921875 535.925781 307.511719 C 535.105469 307.101562 534.277344 306.710938 533.433594 306.34375 C 532.59375 305.976562 531.746094 305.628906 530.886719 305.304688 C 530.027344 304.980469 529.164062 304.679688 528.289062 304.402344 C 527.414062 304.121094 526.535156 303.863281 525.648438 303.632812 C 524.761719 303.398438 523.867188 303.1875 522.96875 303 C 522.074219 302.8125 521.171875 302.644531 520.265625 302.503906 C 519.359375 302.363281 518.449219 302.246094 517.535156 302.152344 C 516.625 302.058594 515.707031 301.984375 514.792969 301.9375 C 513.875 301.890625 512.960938 301.867188 512.042969 301.867188 C 511.125 301.867188 510.207031 301.890625 509.292969 301.9375 C 508.375 301.984375 507.460938 302.058594 506.550781 302.152344 C 505.636719 302.246094 504.726562 302.363281 503.820312 302.503906 C 502.914062 302.644531 502.011719 302.8125 501.113281 303 C 500.21875 303.1875 499.324219 303.398438 498.4375 303.632812 C 497.550781 303.863281 496.667969 304.121094 495.796875 304.402344 C 494.921875 304.679688 494.054688 304.980469 493.199219 305.304688 C 492.339844 305.628906 491.492188 305.976562 490.648438 306.34375 C 489.808594 306.710938 488.980469 307.101562 488.160156 307.511719 C 487.339844 307.921875 486.527344 308.351562 485.730469 308.804688 C 484.933594 309.257812 484.148438 309.730469 483.375 310.222656 C 482.601562 310.714844 481.839844 311.226562 481.09375 311.761719 C 480.34375 312.292969 479.613281 312.84375 478.890625 313.414062 C 478.171875 313.984375 477.46875 314.570312 476.78125 315.175781 C 476.09375 315.78125 475.421875 316.40625 474.765625 317.046875 C 474.109375 317.6875 473.46875 318.34375 472.84375 319.019531 C 471.675781 317.757812 470.570312 316.441406 469.527344 315.070312 C 468.484375 313.699219 467.511719 312.285156 466.609375 310.820312 C 465.703125 309.355469 464.871094 307.851562 464.109375 306.308594 C 463.351562 304.765625 462.667969 303.1875 462.058594 301.578125 C 461.453125 299.964844 460.921875 298.332031 460.472656 296.667969 C 460.023438 295.007812 459.65625 293.328125 459.371094 291.632812 C 459.082031 289.933594 458.878906 288.226562 458.757812 286.511719 C 458.632812 284.792969 458.59375 283.078125 458.640625 281.355469 C 458.683594 279.636719 458.8125 277.921875 459.019531 276.210938 C 459.230469 274.503906 459.523438 272.8125 459.894531 271.128906 C 460.269531 269.449219 460.722656 267.792969 461.257812 266.15625 C 461.789062 264.519531 462.402344 262.914062 463.089844 261.335938 C 463.78125 259.757812 464.542969 258.21875 465.378906 256.714844 C 466.21875 255.210938 467.128906 253.753906 468.105469 252.339844 C 469.085938 250.921875 470.128906 249.558594 471.242188 248.242188 C 472.351562 246.929688 473.523438 245.671875 474.753906 244.46875 C 475.988281 243.269531 477.277344 242.128906 478.617188 241.050781 C 479.960938 239.976562 481.351562 238.964844 482.792969 238.023438 C 484.230469 237.082031 485.714844 236.210938 487.238281 235.410156 C 488.761719 234.613281 490.320312 233.886719 491.914062 233.238281 C 493.511719 232.589844 495.132812 232.023438 496.78125 231.53125 C 498.429688 231.039062 500.097656 230.628906 501.789062 230.296875 C 503.476562 229.964844 505.179688 229.71875 506.890625 229.550781 C 508.605469 229.386719 510.320312 229.304688 512.042969 229.304688 C 513.761719 229.304688 515.480469 229.386719 517.195312 229.550781 C 518.90625 229.71875 520.609375 229.964844 522.296875 230.296875 C 523.984375 230.628906 525.65625 231.039062 527.304688 231.53125 C 528.953125 232.023438 530.574219 232.589844 532.167969 233.238281 C 533.761719 233.886719 535.324219 234.613281 536.847656 235.410156 C 538.371094 236.210938 539.851562 237.082031 541.292969 238.023438 C 542.734375 238.964844 544.125 239.976562 545.46875 241.050781 C 546.808594 242.128906 548.097656 243.269531 549.328125 244.46875 C 550.5625 245.671875 551.734375 246.929688 552.84375 248.242188 C 553.957031 249.558594 555 250.921875 555.980469 252.339844 C 556.957031 253.753906 557.867188 255.210938 558.703125 256.714844 C 559.542969 258.21875 560.304688 259.757812 560.996094 261.335938 C 561.683594 262.914062 562.296875 264.519531 562.828125 266.15625 C 563.363281 267.792969 563.816406 269.449219 564.191406 271.128906 C 564.5625 272.8125 564.855469 274.503906 565.066406 276.210938 C 565.273438 277.921875 565.402344 279.636719 565.445312 281.355469 C 565.488281 283.078125 565.449219 284.792969 565.328125 286.511719 C 565.207031 288.226562 565.003906 289.933594 564.714844 291.632812 C 564.429688 293.328125 564.058594 295.007812 563.609375 296.667969 C 563.160156 298.332031 562.632812 299.964844 562.027344 301.578125 C 561.417969 303.1875 560.734375 304.765625 559.976562 306.308594 C 559.214844 307.851562 558.382812 309.355469 557.476562 310.820312 C 556.574219 312.285156 555.597656 313.699219 554.558594 315.070312 C 553.515625 316.441406 552.410156 317.757812 551.238281 319.019531 Z M 551.238281 319.019531 " fill-opacity="1" fill-rule="nonzero"/></g><path fill="#000000" d="M 512.035156 244.640625 C 511.160156 244.640625 510.289062 244.683594 509.417969 244.769531 C 508.546875 244.855469 507.683594 244.984375 506.824219 245.152344 C 505.964844 245.324219 505.117188 245.535156 504.28125 245.789062 C 503.445312 246.042969 502.621094 246.339844 501.8125 246.671875 C 501.003906 247.007812 500.214844 247.382812 499.445312 247.792969 C 498.671875 248.207031 497.921875 248.65625 497.195312 249.140625 C 496.46875 249.628906 495.765625 250.148438 495.089844 250.703125 C 494.414062 251.257812 493.765625 251.847656 493.148438 252.464844 C 492.527344 253.082031 491.941406 253.730469 491.386719 254.40625 C 490.832031 255.082031 490.3125 255.785156 489.824219 256.511719 C 489.339844 257.242188 488.890625 257.992188 488.476562 258.761719 C 488.066406 259.535156 487.691406 260.324219 487.359375 261.132812 C 487.023438 261.941406 486.726562 262.761719 486.476562 263.601562 C 486.222656 264.4375 486.007812 265.285156 485.839844 266.144531 C 485.667969 267 485.539062 267.867188 485.453125 268.738281 C 485.367188 269.605469 485.324219 270.480469 485.324219 271.355469 C 485.324219 272.230469 485.367188 273.101562 485.453125 273.972656 C 485.539062 274.84375 485.667969 275.707031 485.839844 276.566406 C 486.011719 277.425781 486.222656 278.273438 486.476562 279.109375 C 486.730469 279.945312 487.027344 280.769531 487.359375 281.578125 C 487.695312 282.386719 488.070312 283.175781 488.480469 283.945312 C 488.894531 284.71875 489.34375 285.46875 489.832031 286.195312 C 490.316406 286.921875 490.835938 287.625 491.394531 288.300781 C 491.949219 288.976562 492.535156 289.625 493.152344 290.242188 C 493.773438 290.859375 494.421875 291.445312 495.097656 292.003906 C 495.773438 292.558594 496.476562 293.078125 497.203125 293.5625 C 497.929688 294.050781 498.679688 294.496094 499.453125 294.910156 C 500.222656 295.324219 501.011719 295.695312 501.820312 296.03125 C 502.628906 296.363281 503.453125 296.660156 504.289062 296.914062 C 505.128906 297.167969 505.976562 297.378906 506.832031 297.550781 C 507.691406 297.71875 508.554688 297.847656 509.425781 297.933594 C 510.296875 298.019531 511.171875 298.0625 512.042969 298.058594 C 512.917969 298.058594 513.792969 298.015625 514.664062 297.929688 C 515.535156 297.84375 516.398438 297.714844 517.257812 297.546875 C 518.113281 297.375 518.960938 297.160156 519.796875 296.90625 C 520.636719 296.652344 521.457031 296.359375 522.265625 296.023438 C 523.074219 295.6875 523.863281 295.3125 524.636719 294.902344 C 525.40625 294.488281 526.15625 294.039062 526.882812 293.554688 C 527.613281 293.066406 528.3125 292.546875 528.988281 291.992188 C 529.664062 291.433594 530.3125 290.847656 530.929688 290.230469 C 531.550781 289.609375 532.136719 288.960938 532.691406 288.285156 C 533.246094 287.609375 533.765625 286.90625 534.25 286.179688 C 534.738281 285.453125 535.1875 284.703125 535.597656 283.929688 C 536.011719 283.160156 536.382812 282.367188 536.71875 281.558594 C 537.050781 280.75 537.347656 279.929688 537.597656 279.089844 C 537.851562 278.253906 538.066406 277.40625 538.234375 276.546875 C 538.40625 275.691406 538.535156 274.824219 538.617188 273.957031 C 538.703125 273.085938 538.746094 272.210938 538.746094 271.335938 C 538.746094 270.460938 538.703125 269.589844 538.617188 268.71875 C 538.53125 267.847656 538.402344 266.984375 538.230469 266.128906 C 538.058594 265.269531 537.847656 264.421875 537.59375 263.585938 C 537.339844 262.75 537.042969 261.925781 536.707031 261.121094 C 536.375 260.3125 536 259.523438 535.585938 258.75 C 535.175781 257.980469 534.726562 257.230469 534.238281 256.503906 C 533.753906 255.777344 533.234375 255.074219 532.679688 254.398438 C 532.125 253.722656 531.535156 253.078125 530.917969 252.457031 C 530.300781 251.839844 529.652344 251.253906 528.976562 250.699219 C 528.300781 250.144531 527.597656 249.625 526.871094 249.140625 C 526.144531 248.652344 525.394531 248.203125 524.625 247.792969 C 523.851562 247.378906 523.0625 247.007812 522.253906 246.671875 C 521.445312 246.335938 520.625 246.042969 519.785156 245.789062 C 518.949219 245.535156 518.101562 245.324219 517.246094 245.152344 C 516.386719 244.984375 515.523438 244.855469 514.652344 244.769531 C 513.78125 244.683594 512.910156 244.640625 512.035156 244.640625 Z M 512.035156 290.421875 C 511.410156 290.421875 510.789062 290.394531 510.167969 290.332031 C 509.546875 290.269531 508.929688 290.179688 508.316406 290.058594 C 507.703125 289.933594 507.097656 289.785156 506.5 289.601562 C 505.902344 289.421875 505.316406 289.210938 504.738281 288.972656 C 504.160156 288.734375 503.597656 288.464844 503.046875 288.171875 C 502.496094 287.878906 501.960938 287.558594 501.441406 287.210938 C 500.921875 286.863281 500.421875 286.492188 499.9375 286.09375 C 499.453125 285.699219 498.992188 285.28125 498.550781 284.839844 C 498.109375 284.398438 497.691406 283.933594 497.292969 283.453125 C 496.898438 282.96875 496.527344 282.46875 496.179688 281.949219 C 495.832031 281.429688 495.511719 280.894531 495.214844 280.34375 C 494.921875 279.792969 494.65625 279.230469 494.417969 278.652344 C 494.175781 278.074219 493.964844 277.488281 493.785156 276.890625 C 493.605469 276.292969 493.453125 275.6875 493.332031 275.074219 C 493.207031 274.460938 493.117188 273.84375 493.054688 273.222656 C 492.992188 272.601562 492.964844 271.980469 492.960938 271.355469 C 492.960938 270.730469 492.992188 270.105469 493.054688 269.484375 C 493.117188 268.863281 493.207031 268.246094 493.328125 267.632812 C 493.449219 267.023438 493.601562 266.417969 493.78125 265.820312 C 493.964844 265.222656 494.171875 264.632812 494.414062 264.058594 C 494.652344 263.480469 494.917969 262.914062 495.210938 262.363281 C 495.507812 261.8125 495.828125 261.277344 496.171875 260.757812 C 496.519531 260.238281 496.890625 259.738281 497.289062 259.253906 C 497.683594 258.773438 498.101562 258.308594 498.542969 257.867188 C 498.984375 257.425781 499.449219 257.007812 499.929688 256.609375 C 500.414062 256.214844 500.914062 255.84375 501.433594 255.496094 C 501.953125 255.148438 502.488281 254.828125 503.039062 254.53125 C 503.589844 254.238281 504.152344 253.972656 504.730469 253.730469 C 505.304688 253.492188 505.894531 253.28125 506.492188 253.101562 C 507.089844 252.917969 507.695312 252.769531 508.304688 252.644531 C 508.917969 252.523438 509.535156 252.429688 510.15625 252.371094 C 510.777344 252.308594 511.402344 252.277344 512.027344 252.277344 C 512.652344 252.277344 513.273438 252.308594 513.894531 252.367188 C 514.515625 252.429688 515.132812 252.519531 515.746094 252.640625 C 516.359375 252.761719 516.964844 252.914062 517.5625 253.097656 C 518.160156 253.277344 518.75 253.488281 519.324219 253.726562 C 519.902344 253.964844 520.464844 254.230469 521.015625 254.523438 C 521.570312 254.820312 522.105469 255.140625 522.625 255.484375 C 523.144531 255.832031 523.644531 256.203125 524.128906 256.601562 C 524.609375 256.996094 525.074219 257.414062 525.515625 257.855469 C 525.957031 258.296875 526.375 258.757812 526.773438 259.242188 C 527.167969 259.722656 527.539062 260.226562 527.886719 260.742188 C 528.234375 261.261719 528.554688 261.796875 528.851562 262.347656 C 529.144531 262.898438 529.414062 263.464844 529.652344 264.039062 C 529.890625 264.617188 530.101562 265.203125 530.285156 265.800781 C 530.464844 266.398438 530.617188 267.003906 530.738281 267.617188 C 530.863281 268.230469 530.953125 268.847656 531.015625 269.46875 C 531.078125 270.089844 531.109375 270.710938 531.109375 271.335938 C 531.109375 271.960938 531.078125 272.585938 531.015625 273.207031 C 530.953125 273.828125 530.863281 274.445312 530.738281 275.058594 C 530.617188 275.671875 530.464844 276.277344 530.285156 276.875 C 530.101562 277.472656 529.894531 278.058594 529.652344 278.636719 C 529.414062 279.210938 529.148438 279.777344 528.851562 280.328125 C 528.558594 280.878906 528.238281 281.414062 527.890625 281.933594 C 527.542969 282.453125 527.171875 282.953125 526.777344 283.4375 C 526.378906 283.917969 525.960938 284.382812 525.519531 284.824219 C 525.078125 285.265625 524.617188 285.683594 524.132812 286.082031 C 523.648438 286.476562 523.148438 286.851562 522.628906 287.199219 C 522.109375 287.546875 521.574219 287.867188 521.023438 288.160156 C 520.472656 288.457031 519.910156 288.722656 519.332031 288.960938 C 518.757812 289.203125 518.167969 289.414062 517.570312 289.59375 C 516.972656 289.777344 516.367188 289.929688 515.757812 290.050781 C 515.144531 290.175781 514.527344 290.265625 513.90625 290.328125 C 513.285156 290.390625 512.660156 290.421875 512.035156 290.421875 Z M 512.035156 290.421875 " fill-opacity="1" fill-rule="nonzero"/></svg>