<svg xmlns="http://www.w3.org/2000/svg" xmlns:xlink="http://www.w3.org/1999/xlink" width="1366" zoomAndPan="magnify" viewBox="0 0 1024.5 566.249966" height="755" preserveAspectRatio="xMidYMid meet" version="1.0"><defs><clipPath id="46a7880ca1"><path d="M 469.207031 224.78125 L 554.59375 224.78125 L 554.59375 340.878906 L 469.207031 340.878906 Z M 469.207031 224.78125 " clip-rule="nonzero"/></clipPath></defs><g clip-path="url(#46a7880ca1)"><path fill="#000000" d="M 550.320312 271.847656 L 544.417969 271.847656 L 544.417969 257.449219 C 544.441406 239.433594 529.84375 224.78125 511.890625 224.78125 C 493.9375 224.78125 479.339844 239.433594 479.339844 257.449219 L 479.339844 271.847656 L 473.460938 271.847656 C 471.125 271.847656 469.226562 273.75 469.226562 276.09375 L 469.226562 336.652344 C 469.226562 338.972656 471.125 340.878906 473.460938 340.878906 L 550.34375 340.878906 C 552.679688 340.878906 554.574219 338.972656 554.574219 336.628906 L 554.574219 276.09375 C 554.550781 273.75 552.65625 271.847656 550.320312 271.847656 Z M 487.804688 257.449219 C 487.804688 244.121094 498.609375 233.28125 511.890625 233.28125 C 525.171875 233.28125 535.972656 244.121094 535.972656 257.449219 L 535.972656 271.847656 L 487.804688 271.847656 Z M 516.125 309.414062 L 516.125 320.582031 C 516.125 322.929688 514.226562 324.832031 511.890625 324.832031 C 509.554688 324.832031 507.65625 322.929688 507.65625 320.582031 L 507.65625 309.414062 C 504.742188 307.882812 502.75 304.816406 502.75 301.3125 C 502.75 296.25 506.847656 292.164062 511.867188 292.164062 C 516.910156 292.164062 520.984375 296.273438 520.984375 301.3125 C 521.027344 304.816406 519.039062 307.882812 516.125 309.414062 Z M 516.125 309.414062 " fill-opacity="1" fill-rule="nonzero"/></g></svg>