<svg xmlns="http://www.w3.org/2000/svg" xmlns:xlink="http://www.w3.org/1999/xlink" width="1366" zoomAndPan="magnify" viewBox="0 0 1024.5 514.499985" height="686" preserveAspectRatio="xMidYMid meet" version="1.0"><defs><clipPath id="0df08b6565"><path d="M 387 157 L 637.492188 157 L 637.492188 358.542969 L 387 358.542969 Z M 387 157 " clip-rule="nonzero"/></clipPath></defs><g clip-path="url(#0df08b6565)"><path fill="#0277bd" d="M 637.515625 161.964844 L 637.515625 160.652344 C 637.554688 160.332031 637.554688 160.015625 637.515625 159.695312 C 637.382812 159.367188 637.183594 159.089844 636.917969 158.859375 L 636.199219 157.78125 L 635.363281 157.78125 C 635.042969 157.511719 634.6875 157.3125 634.289062 157.183594 L 579.300781 157.183594 C 578.90625 157.183594 578.519531 157.222656 578.132812 157.300781 C 577.75 157.375 577.375 157.488281 577.011719 157.640625 C 576.648438 157.789062 576.304688 157.972656 575.980469 158.191406 C 575.652344 158.410156 575.351562 158.65625 575.074219 158.933594 C 574.796875 159.210938 574.546875 159.515625 574.332031 159.839844 C 574.113281 160.167969 573.929688 160.511719 573.777344 160.875 C 573.628906 161.238281 573.515625 161.609375 573.4375 161.996094 C 573.359375 162.378906 573.324219 162.769531 573.324219 163.160156 C 573.324219 163.554688 573.359375 163.941406 573.4375 164.328125 C 573.515625 164.710938 573.628906 165.085938 573.777344 165.449219 C 573.929688 165.8125 574.113281 166.15625 574.332031 166.480469 C 574.546875 166.808594 574.796875 167.109375 575.074219 167.386719 C 575.351562 167.664062 575.652344 167.914062 575.980469 168.132812 C 576.304688 168.347656 576.648438 168.535156 577.011719 168.683594 C 577.375 168.832031 577.75 168.945312 578.132812 169.023438 C 578.519531 169.101562 578.90625 169.136719 579.300781 169.136719 L 618.390625 169.136719 L 525.269531 276.722656 L 490.125 239.066406 C 489.550781 238.429688 488.863281 237.953125 488.0625 237.640625 C 487.265625 237.324219 486.4375 237.203125 485.582031 237.273438 C 484.746094 237.316406 483.953125 237.523438 483.203125 237.898438 C 482.457031 238.273438 481.8125 238.78125 481.277344 239.425781 L 388.515625 348.324219 C 388.265625 348.628906 388.046875 348.957031 387.859375 349.300781 C 387.671875 349.648438 387.519531 350.011719 387.402344 350.386719 C 387.285156 350.761719 387.207031 351.148438 387.164062 351.539062 C 387.121094 351.929688 387.113281 352.324219 387.148438 352.714844 C 387.179688 353.109375 387.25 353.492188 387.359375 353.871094 C 387.46875 354.253906 387.613281 354.617188 387.789062 354.96875 C 387.96875 355.320312 388.179688 355.652344 388.421875 355.960938 C 388.667969 356.269531 388.9375 356.554688 389.234375 356.8125 C 389.53125 357.070312 389.847656 357.292969 390.191406 357.484375 C 390.53125 357.679688 390.886719 357.835938 391.257812 357.957031 C 391.632812 358.078125 392.011719 358.160156 392.402344 358.203125 C 392.789062 358.25 393.179688 358.253906 393.570312 358.222656 C 393.960938 358.1875 394.34375 358.117188 394.71875 358.007812 C 395.09375 357.894531 395.457031 357.75 395.800781 357.566406 C 396.148438 357.382812 396.472656 357.167969 396.777344 356.921875 C 397.078125 356.675781 397.355469 356.398438 397.601562 356.09375 L 486.058594 252.097656 L 521.203125 288.558594 C 521.488281 288.855469 521.800781 289.125 522.140625 289.363281 C 522.480469 289.597656 522.839844 289.796875 523.21875 289.960938 C 523.601562 290.125 523.992188 290.25 524.398438 290.332031 C 524.804688 290.414062 525.214844 290.457031 525.628906 290.457031 C 526.042969 290.457031 526.449219 290.414062 526.855469 290.332031 C 527.261719 290.25 527.652344 290.125 528.035156 289.960938 C 528.414062 289.796875 528.773438 289.597656 529.113281 289.363281 C 529.453125 289.125 529.765625 288.855469 530.050781 288.558594 L 625.679688 178.460938 L 625.679688 216.714844 C 625.679688 217.105469 625.71875 217.496094 625.796875 217.878906 C 625.871094 218.265625 625.984375 218.640625 626.136719 219 C 626.285156 219.363281 626.46875 219.707031 626.6875 220.035156 C 626.90625 220.363281 627.152344 220.664062 627.429688 220.941406 C 627.707031 221.21875 628.011719 221.464844 628.335938 221.683594 C 628.664062 221.902344 629.007812 222.085938 629.371094 222.238281 C 629.734375 222.386719 630.105469 222.5 630.492188 222.578125 C 630.875 222.652344 631.265625 222.691406 631.65625 222.691406 C 632.050781 222.691406 632.4375 222.652344 632.824219 222.578125 C 633.207031 222.5 633.582031 222.386719 633.945312 222.238281 C 634.308594 222.085938 634.652344 221.902344 634.976562 221.683594 C 635.304688 221.464844 635.605469 221.21875 635.882812 220.941406 C 636.160156 220.664062 636.410156 220.363281 636.628906 220.035156 C 636.84375 219.707031 637.027344 219.363281 637.179688 219 C 637.328125 218.640625 637.441406 218.265625 637.519531 217.878906 C 637.597656 217.496094 637.632812 217.105469 637.632812 216.714844 L 637.632812 161.964844 Z M 637.515625 161.964844 " fill-opacity="1" fill-rule="nonzero"/></g></svg>