<svg xmlns="http://www.w3.org/2000/svg" xmlns:xlink="http://www.w3.org/1999/xlink" width="1366" zoomAndPan="magnify" viewBox="0 0 1024.5 566.249966" height="755" preserveAspectRatio="xMidYMid meet" version="1.0"><defs><clipPath id="0b90345099"><path d="M 409.375 180.125 L 614.605469 180.125 L 614.605469 385.355469 L 409.375 385.355469 Z M 409.375 180.125 " clip-rule="nonzero"/></clipPath></defs><g clip-path="url(#0b90345099)"><path fill="#000000" d="M 511.992188 180.125 C 455.410156 180.125 409.375 226.160156 409.375 282.742188 C 409.375 339.320312 455.410156 385.355469 511.992188 385.355469 C 517.140625 385.355469 521.320312 381.183594 521.320312 376.027344 C 521.320312 370.871094 517.140625 366.699219 511.992188 366.699219 C 465.699219 366.699219 428.035156 329.039062 428.035156 282.742188 C 428.035156 236.445312 465.699219 198.785156 511.992188 198.785156 C 558.28125 198.785156 595.949219 236.445312 595.949219 282.742188 L 595.949219 309.394531 C 595.949219 318.941406 588.175781 326.714844 578.625 326.714844 C 569.074219 326.714844 561.296875 318.941406 561.296875 309.394531 L 561.296875 242.757812 C 561.296875 237.601562 557.121094 233.429688 551.96875 233.429688 C 546.820312 233.429688 542.640625 237.601562 542.640625 242.757812 L 542.640625 244.421875 C 534.195312 237.652344 523.628906 233.429688 511.992188 233.429688 C 484.800781 233.429688 462.683594 255.546875 462.683594 282.742188 C 462.683594 309.933594 484.804688 332.050781 511.992188 332.050781 C 524.414062 332.050781 535.640625 327.28125 544.320312 319.675781 C 548.777344 334.480469 562.382812 345.371094 578.625 345.371094 C 598.46875 345.371094 614.605469 329.230469 614.605469 309.398438 L 614.605469 282.742188 C 614.605469 226.160156 568.574219 180.128906 511.992188 180.128906 Z M 511.992188 313.394531 C 495.09375 313.394531 481.339844 299.640625 481.339844 282.742188 C 481.339844 265.84375 495.09375 252.085938 511.992188 252.085938 C 528.890625 252.085938 542.640625 265.84375 542.640625 282.742188 C 542.640625 299.640625 528.890625 313.394531 511.992188 313.394531 Z M 511.992188 313.394531 " fill-opacity="1" fill-rule="nonzero"/></g></svg>