<svg xmlns="http://www.w3.org/2000/svg" xmlns:xlink="http://www.w3.org/1999/xlink" width="1366" zoomAndPan="magnify" viewBox="0 0 1024.5 566.249966" height="755" preserveAspectRatio="xMidYMid meet" version="1.0"><defs><clipPath id="df780f8003"><path d="M 449.523438 177.984375 L 574.605469 177.984375 L 574.605469 387.707031 L 449.523438 387.707031 Z M 449.523438 177.984375 " clip-rule="nonzero"/></clipPath></defs><g clip-path="url(#df780f8003)"><path fill="#000000" d="M 551.253906 177.984375 L 472.882812 177.984375 C 460.027344 177.984375 449.566406 188.445312 449.566406 201.300781 L 449.566406 364.378906 C 449.566406 377.234375 460.027344 387.691406 472.882812 387.691406 L 551.253906 387.691406 C 564.113281 387.691406 574.570312 377.234375 574.570312 364.378906 L 574.570312 201.300781 C 574.570312 188.445312 564.113281 177.984375 551.253906 177.984375 Z M 456.359375 204.695312 L 567.78125 204.695312 L 567.78125 345.605469 L 456.359375 345.605469 Z M 472.882812 184.777344 L 551.253906 184.777344 C 559.203125 184.777344 565.859375 190.417969 567.429688 197.90625 L 456.710938 197.90625 C 458.28125 190.417969 464.9375 184.777344 472.882812 184.777344 Z M 551.253906 380.902344 L 472.882812 380.902344 C 463.773438 380.902344 456.359375 373.488281 456.359375 364.378906 L 456.359375 352.394531 L 567.78125 352.394531 L 567.78125 364.378906 C 567.78125 373.488281 560.367188 380.902344 551.253906 380.902344 Z M 551.253906 380.902344 " fill-opacity="1" fill-rule="nonzero"/></g><path fill="#000000" d="M 512.070312 356.761719 C 506.667969 356.761719 502.269531 361.15625 502.269531 366.558594 C 502.269531 371.960938 506.667969 376.355469 512.070312 376.355469 C 517.472656 376.355469 521.867188 371.960938 521.867188 366.558594 C 521.867188 361.15625 517.472656 356.761719 512.070312 356.761719 Z M 512.070312 369.566406 C 510.410156 369.566406 509.0625 368.21875 509.0625 366.558594 C 509.0625 364.898438 510.410156 363.550781 512.070312 363.550781 C 513.730469 363.550781 515.078125 364.898438 515.078125 366.558594 C 515.078125 368.21875 513.730469 369.566406 512.070312 369.566406 Z M 512.070312 369.566406 " fill-opacity="1" fill-rule="nonzero"/></svg>