<svg xmlns="http://www.w3.org/2000/svg" xmlns:xlink="http://www.w3.org/1999/xlink" width="1366" zoomAndPan="magnify" viewBox="0 0 1024.5 566.249966" height="755" preserveAspectRatio="xMidYMid meet" version="1.0"><defs><clipPath id="1ba4724d55"><path d="M 396.175781 166.925781 L 627.621094 166.925781 L 627.621094 398.371094 L 396.175781 398.371094 Z M 396.175781 166.925781 " clip-rule="nonzero"/></clipPath></defs><path fill="#000000" d="M 487.1875 251.558594 C 485.644531 251.714844 484.539062 253.101562 484.539062 254.671875 L 484.539062 260.738281 C 484.539062 262.28125 485.617188 263.695312 487.1875 263.851562 C 489.0625 264.003906 490.605469 262.617188 490.605469 260.738281 L 490.605469 254.671875 C 490.605469 252.792969 489.039062 251.25 487.1875 251.558594 Z M 487.1875 251.558594 " fill-opacity="1" fill-rule="nonzero"/><path fill="#000000" d="M 487.1875 286.53125 C 485.644531 286.6875 484.539062 288.074219 484.539062 289.644531 L 484.539062 295.558594 C 484.539062 297.101562 485.617188 298.515625 487.1875 298.671875 C 489.0625 298.824219 490.605469 297.4375 490.605469 295.558594 L 490.605469 289.644531 C 490.605469 287.792969 489.039062 286.222656 487.1875 286.53125 Z M 487.1875 286.53125 " fill-opacity="1" fill-rule="nonzero"/><path fill="#000000" d="M 487.1875 269.121094 C 485.644531 269.277344 484.539062 270.664062 484.539062 272.234375 L 484.539062 278.148438 C 484.539062 279.691406 485.617188 281.105469 487.1875 281.261719 C 489.0625 281.414062 490.605469 280.027344 490.605469 278.148438 L 490.605469 272.234375 C 490.605469 270.355469 489.039062 268.8125 487.1875 269.121094 Z M 487.1875 269.121094 " fill-opacity="1" fill-rule="nonzero"/><path fill="#000000" d="M 487.1875 234.304688 C 485.644531 234.457031 484.539062 235.847656 484.539062 237.414062 L 484.539062 243.328125 C 484.539062 244.871094 485.617188 246.285156 487.1875 246.441406 C 489.0625 246.59375 490.605469 245.207031 490.605469 243.328125 L 490.605469 237.414062 C 490.605469 235.539062 489.039062 233.96875 487.1875 234.304688 Z M 487.1875 234.304688 " fill-opacity="1" fill-rule="nonzero"/><path fill="#000000" d="M 503.488281 303.941406 C 501.945312 304.097656 500.839844 305.484375 500.839844 307.054688 L 500.839844 312.96875 C 500.839844 314.511719 501.921875 315.925781 503.488281 316.078125 C 505.367188 316.234375 506.910156 314.84375 506.910156 312.96875 L 506.910156 307.054688 C 506.9375 305.203125 505.367188 303.632812 503.488281 303.941406 Z M 503.488281 303.941406 " fill-opacity="1" fill-rule="nonzero"/><path fill="#000000" d="M 503.488281 286.53125 C 501.945312 286.6875 500.839844 288.074219 500.839844 289.644531 L 500.839844 295.558594 C 500.839844 297.101562 501.921875 298.515625 503.488281 298.671875 C 505.367188 298.824219 506.910156 297.4375 506.910156 295.558594 L 506.910156 289.644531 C 506.9375 287.792969 505.367188 286.222656 503.488281 286.53125 Z M 503.488281 286.53125 " fill-opacity="1" fill-rule="nonzero"/><path fill="#000000" d="M 471.628906 286.53125 C 470.085938 286.6875 468.980469 288.074219 468.980469 289.644531 L 468.980469 295.558594 C 468.980469 297.101562 470.058594 298.515625 471.628906 298.671875 C 473.503906 298.824219 475.046875 297.4375 475.046875 295.558594 L 475.046875 289.644531 C 475.046875 287.792969 473.503906 286.222656 471.628906 286.53125 Z M 471.628906 286.53125 " fill-opacity="1" fill-rule="nonzero"/><path fill="#000000" d="M 487.1875 303.941406 C 485.644531 304.097656 484.539062 305.484375 484.539062 307.054688 L 484.539062 312.96875 C 484.539062 314.511719 485.617188 315.925781 487.1875 316.078125 C 489.0625 316.234375 490.605469 314.84375 490.605469 312.96875 L 490.605469 307.054688 C 490.605469 305.203125 489.039062 303.632812 487.1875 303.941406 Z M 487.1875 303.941406 " fill-opacity="1" fill-rule="nonzero"/><path fill="#000000" d="M 471.628906 303.941406 C 470.085938 304.097656 468.980469 305.484375 468.980469 307.054688 L 468.980469 312.96875 C 468.980469 314.511719 470.058594 315.925781 471.628906 316.078125 C 473.503906 316.234375 475.046875 314.84375 475.046875 312.96875 L 475.046875 307.054688 C 475.046875 305.203125 473.503906 303.632812 471.628906 303.941406 Z M 471.628906 303.941406 " fill-opacity="1" fill-rule="nonzero"/><path fill="#000000" d="M 471.628906 251.558594 C 470.085938 251.714844 468.980469 253.101562 468.980469 254.671875 L 468.980469 260.738281 C 468.980469 262.28125 470.058594 263.695312 471.628906 263.851562 C 473.503906 264.003906 475.046875 262.617188 475.046875 260.738281 L 475.046875 254.671875 C 475.046875 252.792969 473.503906 251.25 471.628906 251.558594 Z M 471.628906 251.558594 " fill-opacity="1" fill-rule="nonzero"/><path fill="#000000" d="M 471.628906 269.121094 C 470.085938 269.277344 468.980469 270.664062 468.980469 272.234375 L 468.980469 278.148438 C 468.980469 279.691406 470.058594 281.105469 471.628906 281.261719 C 473.503906 281.414062 475.046875 280.027344 475.046875 278.148438 L 475.046875 272.234375 C 475.046875 270.355469 473.503906 268.8125 471.628906 269.121094 Z M 471.628906 269.121094 " fill-opacity="1" fill-rule="nonzero"/><path fill="#000000" d="M 554.972656 290.105469 C 553.429688 290.261719 552.324219 291.648438 552.324219 293.21875 L 552.324219 299.75 C 552.324219 301.628906 553.867188 303.171875 555.746094 302.863281 C 557.289062 302.707031 558.394531 301.320312 558.394531 299.75 L 558.394531 293.21875 C 558.394531 291.367188 556.824219 289.796875 554.972656 290.105469 Z M 554.972656 290.105469 " fill-opacity="1" fill-rule="nonzero"/><path fill="#000000" d="M 540.675781 290.105469 C 539.132812 290.261719 538.027344 291.648438 538.027344 293.21875 L 538.027344 299.75 C 538.027344 301.628906 539.570312 303.171875 541.445312 302.863281 C 542.988281 302.707031 544.09375 301.320312 544.09375 299.75 L 544.09375 293.21875 C 544.09375 291.367188 542.527344 289.796875 540.675781 290.105469 Z M 540.675781 290.105469 " fill-opacity="1" fill-rule="nonzero"/><path fill="#000000" d="M 555.746094 327.730469 C 553.867188 327.574219 552.324219 328.964844 552.324219 330.839844 L 552.324219 337.527344 C 552.324219 339.402344 553.867188 340.945312 555.746094 340.636719 C 557.289062 340.484375 558.394531 339.09375 558.394531 337.527344 L 558.394531 330.839844 C 558.394531 329.296875 557.3125 327.910156 555.746094 327.730469 Z M 555.746094 327.730469 " fill-opacity="1" fill-rule="nonzero"/><path fill="#000000" d="M 555.746094 309.085938 C 553.867188 308.929688 552.324219 310.320312 552.324219 312.195312 L 552.324219 318.730469 C 552.324219 320.605469 553.867188 322.148438 555.746094 321.839844 C 557.289062 321.6875 558.394531 320.296875 558.394531 318.730469 L 558.394531 312.195312 C 558.394531 310.628906 557.3125 309.238281 555.746094 309.085938 Z M 555.746094 309.085938 " fill-opacity="1" fill-rule="nonzero"/><path fill="#000000" d="M 541.445312 309.085938 C 539.570312 308.929688 538.027344 310.320312 538.027344 312.195312 L 538.027344 318.730469 C 538.027344 320.605469 539.570312 322.148438 541.445312 321.839844 C 542.988281 321.6875 544.09375 320.296875 544.09375 318.730469 L 544.09375 312.195312 C 544.09375 310.628906 542.988281 309.238281 541.445312 309.085938 Z M 541.445312 309.085938 " fill-opacity="1" fill-rule="nonzero"/><path fill="#000000" d="M 541.445312 327.730469 C 539.570312 327.574219 538.027344 328.964844 538.027344 330.839844 L 538.027344 337.527344 C 538.027344 339.402344 539.570312 340.945312 541.445312 340.636719 C 542.988281 340.484375 544.09375 339.09375 544.09375 337.527344 L 544.09375 330.839844 C 544.09375 329.296875 542.988281 327.910156 541.445312 327.730469 Z M 541.445312 327.730469 " fill-opacity="1" fill-rule="nonzero"/><g clip-path="url(#1ba4724d55)"><path fill="#000000" d="M 511.898438 166.925781 C 447.996094 166.925781 396.175781 218.746094 396.175781 282.648438 C 396.175781 346.554688 447.996094 398.371094 511.898438 398.371094 C 575.804688 398.371094 627.621094 346.554688 627.621094 282.648438 C 627.621094 218.746094 575.804688 166.925781 511.898438 166.925781 Z M 502.101562 352.621094 L 475.046875 352.621094 L 475.046875 329.144531 L 502.101562 329.144531 Z M 522.777344 352.621094 L 507.554688 352.621094 L 507.554688 326.828125 C 507.554688 325.105469 506.164062 323.71875 504.441406 323.71875 L 472.707031 323.71875 C 470.984375 323.71875 469.597656 325.105469 469.597656 326.828125 L 469.597656 352.648438 L 454.0625 352.648438 L 454.0625 238.339844 C 454.0625 237.722656 454.371094 237.105469 454.835938 236.617188 C 457.019531 234.433594 462.292969 229.777344 470.703125 225.277344 C 480.808594 219.824219 497.601562 213.292969 521.234375 212.675781 C 522.160156 212.675781 522.777344 213.292969 522.777344 214.398438 Z M 569.734375 352.621094 L 527.457031 352.621094 L 527.457031 282.957031 C 527.457031 281.570312 528.539062 280.464844 529.953125 280.464844 L 567.265625 280.464844 C 568.652344 280.464844 569.761719 281.542969 569.761719 282.957031 L 569.761719 352.621094 Z M 569.734375 352.621094 " fill-opacity="1" fill-rule="nonzero"/></g><path fill="#000000" d="M 503.488281 234.304688 C 501.945312 234.457031 500.839844 235.847656 500.839844 237.414062 L 500.839844 243.328125 C 500.839844 244.871094 501.921875 246.285156 503.488281 246.441406 C 505.367188 246.59375 506.910156 245.207031 506.910156 243.328125 L 506.910156 237.414062 C 506.9375 235.539062 505.367188 233.96875 503.488281 234.304688 Z M 503.488281 234.304688 " fill-opacity="1" fill-rule="nonzero"/><path fill="#000000" d="M 503.488281 251.558594 C 501.945312 251.714844 500.839844 253.101562 500.839844 254.671875 L 500.839844 260.738281 C 500.839844 262.28125 501.921875 263.695312 503.488281 263.851562 C 505.367188 264.003906 506.910156 262.617188 506.910156 260.738281 L 506.910156 254.671875 C 506.9375 252.792969 505.367188 251.25 503.488281 251.558594 Z M 503.488281 251.558594 " fill-opacity="1" fill-rule="nonzero"/><path fill="#000000" d="M 503.488281 269.121094 C 501.945312 269.277344 500.839844 270.664062 500.839844 272.234375 L 500.839844 278.148438 C 500.839844 279.691406 501.921875 281.105469 503.488281 281.261719 C 505.367188 281.414062 506.910156 280.027344 506.910156 278.148438 L 506.910156 272.234375 C 506.9375 270.355469 505.367188 268.8125 503.488281 269.121094 Z M 503.488281 269.121094 " fill-opacity="1" fill-rule="nonzero"/></svg>