<svg xmlns="http://www.w3.org/2000/svg" xmlns:xlink="http://www.w3.org/1999/xlink" width="1366" zoomAndPan="magnify" viewBox="0 0 1024.5 566.249966" height="755" preserveAspectRatio="xMidYMid meet" version="1.0"><defs><clipPath id="b0b27cb2fb"><path d="M 260.613281 90.4375 L 763.195312 90.4375 L 763.195312 475 L 260.613281 475 Z M 260.613281 90.4375 " clip-rule="nonzero"/></clipPath></defs><g clip-path="url(#b0b27cb2fb)"><path fill="#f2eeff" d="M 475.375 325.023438 L 446.761719 325.023438 C 434.648438 325.023438 424.738281 334.9375 424.738281 347.046875 L 424.738281 375.660156 C 424.738281 387.769531 434.648438 397.683594 446.761719 397.683594 L 475.375 397.683594 C 487.484375 397.683594 497.394531 387.769531 497.394531 375.660156 L 497.394531 347.046875 C 497.394531 334.882812 487.535156 325.023438 475.375 325.023438 M 690.617188 90.648438 L 690.617188 474.679688 L 763.382812 474.679688 L 763.382812 90.648438 Z M 511.113281 194.921875 C 529.601562 261.957031 517.917969 217.480469 563.355469 393.878906 L 584.199219 474.84375 L 661.523438 474.84375 L 588.808594 194.28125 C 570.914062 125.210938 533.671875 90.648438 476.445312 90.648438 L 445.046875 90.648438 C 388.140625 90.648438 350.523438 125.210938 332.628906 194.496094 L 260.613281 474.679688 L 337.71875 474.679688 L 409.734375 194.386719 C 415.683594 171.398438 429.078125 160.039062 449.546875 160.039062 L 471.675781 160.039062 C 491.664062 159.988281 504.738281 171.613281 511.113281 194.921875 " fill-opacity="1" fill-rule="evenodd"/></g></svg>