<svg xmlns="http://www.w3.org/2000/svg" xmlns:xlink="http://www.w3.org/1999/xlink" width="1366" zoomAndPan="magnify" viewBox="0 0 1024.5 566.249966" height="755" preserveAspectRatio="xMidYMid meet" version="1.0"><defs><clipPath id="0b809175d9"><path d="M 436 183.171875 L 588.496094 183.171875 L 588.496094 382.40625 L 436 382.40625 Z M 436 183.171875 " clip-rule="nonzero"/></clipPath></defs><g clip-path="url(#0b809175d9)"><path fill="#000000" d="M 498.933594 381.023438 C 497.644531 380.476562 496.589844 377.886719 496.589844 375.265625 C 496.589844 371.921875 495.542969 370.503906 493.070312 370.503906 C 491.132812 370.503906 488.621094 369.332031 487.488281 367.898438 C 485.21875 365.023438 484.011719 345.617188 485.972656 343.558594 C 488.558594 340.839844 525.53125 340.660156 530.320312 343.34375 C 540.375 348.96875 539.015625 364.546875 527.992188 370.101562 C 524.460938 371.878906 522.851562 374.199219 522.851562 377.511719 C 522.851562 382.082031 522.296875 382.320312 512.066406 382.175781 C 506.132812 382.089844 500.222656 381.570312 498.933594 381.023438 Z M 518.160156 374.445312 C 518.160156 372.375 515.769531 371.308594 510.1875 370.882812 C 504.15625 370.425781 502.21875 370.984375 502.21875 373.183594 C 502.21875 376.859375 505.382812 378.273438 512.535156 377.785156 C 516.121094 377.539062 518.160156 376.332031 518.160156 374.445312 Z M 529.882812 362.195312 C 531.171875 361.082031 532.230469 358.035156 532.230469 355.429688 C 532.230469 349.195312 526.140625 346.84375 510.066406 346.878906 C 492.519531 346.917969 489.082031 348.164062 489.117188 354.472656 C 489.160156 361.765625 491.066406 364.132812 497.535156 364.90625 C 507.0625 366.042969 527.410156 364.339844 529.882812 362.195312 Z M 482.339844 338.1875 C 481.703125 336.449219 481.683594 333.660156 482.296875 331.988281 C 483.554688 328.542969 477.167969 307.832031 472.019531 298.667969 C 458.605469 274.777344 463.816406 242.195312 483.234375 228.554688 C 492.742188 221.875 514.496094 220.683594 526.621094 226.179688 C 544.617188 234.339844 554.738281 248.488281 554.738281 265.496094 C 554.738281 274.328125 552.039062 284.066406 544.617188 302.007812 C 542.9375 306.070312 541.027344 316.046875 540.371094 324.179688 L 539.183594 338.96875 L 514.289062 338.96875 C 500.597656 338.96875 488.070312 339.503906 486.445312 340.15625 C 484.679688 340.871094 483.03125 340.078125 482.339844 338.1875 Z M 534.761719 321.066406 C 535.410156 314.566406 538.972656 301.605469 542.722656 292.105469 C 551.433594 270.046875 551.789062 259.179688 544.167969 247.601562 C 531.039062 227.652344 497.347656 221.972656 481.871094 237.097656 C 474.339844 244.460938 469.636719 256.230469 469.519531 268.011719 C 469.429688 276.761719 470.96875 282.421875 477.492188 297.367188 C 481.9375 307.550781 486.035156 319.96875 486.597656 324.960938 L 487.617188 334.039062 L 533.59375 332.835938 Z M 489.085938 266.835938 C 489.085938 262.101562 495.167969 252.242188 498.089844 252.242188 C 499.5 252.242188 500.351562 252.910156 499.980469 253.722656 C 492.796875 269.46875 489.085938 273.9375 489.085938 266.835938 Z M 478.570312 262.921875 C 479.195312 261.207031 479.707031 259.019531 479.707031 258.0625 C 479.707031 255.050781 491.230469 242.386719 493.972656 242.386719 C 497.90625 242.386719 497.226562 244.125 490.023438 252.503906 C 486.414062 256.703125 483.460938 261.464844 483.460938 263.089844 C 483.460938 264.710938 482.105469 266.039062 480.445312 266.039062 C 478.46875 266.039062 477.824219 264.96875 478.570312 262.921875 Z M 574.902344 287.320312 C 571.03125 286.242188 567.867188 284.265625 567.867188 282.933594 C 567.867188 281.070312 570.253906 280.964844 578.183594 282.472656 C 584.59375 283.695312 588.5 285.433594 588.5 287.066406 C 588.5 290.0625 584.960938 290.128906 574.902344 287.320312 Z M 437.539062 285.808594 C 435.699219 282.675781 436.03125 282.53125 448.289062 281.078125 C 454.703125 280.320312 459.078125 280.5625 459.078125 281.675781 C 459.078125 284.40625 457.246094 285.210938 447.574219 286.734375 C 441.722656 287.652344 438.449219 287.351562 437.539062 285.808594 Z M 450.179688 238.90625 C 442.277344 233.558594 440.195312 230.5625 444.375 230.5625 C 447.699219 230.5625 462.828125 240.328125 462.828125 242.472656 C 462.828125 245.730469 458.421875 244.488281 450.179688 238.90625 Z M 564.113281 240.53125 C 564.113281 237.273438 576.699219 232.175781 582.597656 233.039062 C 587.503906 233.761719 587.484375 233.804688 580.890625 236.957031 C 570.828125 241.773438 564.113281 243.203125 564.113281 240.53125 Z M 474.996094 207.21875 C 469.621094 196.835938 469.046875 194.546875 471.597656 193.65625 C 474.28125 192.71875 484.078125 212.964844 481.996094 215.148438 C 480.75 216.457031 478.410156 213.804688 474.996094 207.21875 Z M 542.804688 215.238281 C 541.238281 212.574219 550.949219 197.234375 554.269531 197.128906 C 558.273438 197.003906 556.816406 201.660156 550.332031 209.714844 C 546.417969 214.574219 543.621094 216.625 542.804688 215.238281 Z M 508.890625 205.296875 C 506.84375 198.523438 508.277344 183.257812 510.960938 183.257812 C 512.777344 183.257812 513.472656 186.503906 513.472656 194.96875 C 513.472656 206.625 510.984375 212.230469 508.890625 205.296875 Z M 508.890625 205.296875 " fill-opacity="1" fill-rule="nonzero"/></g></svg>