<svg xmlns="http://www.w3.org/2000/svg" xmlns:xlink="http://www.w3.org/1999/xlink" width="1366" zoomAndPan="magnify" viewBox="0 0 1024.5 587.999999" height="784" preserveAspectRatio="xMidYMid meet" version="1.0"><defs><clipPath id="6fb1c34c95"><path d="M 823 466 L 871 466 L 871 482.824219 L 823 482.824219 Z M 823 466 " clip-rule="nonzero"/></clipPath><clipPath id="6472d0093a"><path d="M 585 105.007812 L 612 105.007812 L 612 110 L 585 110 Z M 585 105.007812 " clip-rule="nonzero"/></clipPath></defs><path fill="#ffffff" d="M 283.992188 224.378906 C 283.878906 224.714844 283.277344 225.046875 283.476562 225.347656 C 283.632812 225.597656 283.878906 225.335938 284.488281 225.007812 C 285.101562 224.675781 285.074219 224.160156 284.925781 223.699219 C 284.777344 223.242188 284.097656 224.050781 283.992188 224.378906 " fill-opacity="1" fill-rule="nonzero"/><path fill="#ffffff" d="M 419.070312 148.253906 C 423.203125 148.296875 425.476562 147.910156 427.039062 145.542969 C 428.609375 143.175781 424.335938 144.664062 423.621094 143.9375 C 422.902344 143.210938 419.402344 143.523438 416.890625 144.917969 C 414.378906 146.316406 410.949219 146.714844 405.820312 147.011719 C 398.960938 147.429688 403.328125 147.503906 398.164062 150.300781 C 393.007812 153.113281 402.007812 149.714844 402.566406 151.511719 C 403.125 153.304688 406.296875 151.402344 414.15625 150.375 C 422.023438 149.375 414.9375 148.222656 419.070312 148.253906 " fill-opacity="1" fill-rule="nonzero"/><path fill="#ffffff" d="M 434.421875 173.175781 C 436.574219 173.617188 436.71875 172.671875 438.628906 171.539062 C 440.539062 170.414062 439.707031 170.847656 442.742188 170.207031 C 445.769531 169.578125 446.503906 168.953125 444.21875 167.628906 C 441.925781 166.3125 443.996094 167.136719 444.4375 166.109375 C 444.886719 165.085938 445.464844 164.871094 445.222656 163.722656 C 445 162.578125 442.394531 163.445312 440.15625 163.566406 C 437.914062 163.691406 436.96875 163.890625 436.902344 164.90625 C 436.839844 165.921875 436.710938 165.148438 433.683594 166.867188 C 430.664062 168.585938 433.109375 168.796875 434.070312 169.210938 C 434.070312 169.210938 435.695312 169.515625 433.699219 171.0625 C 431.722656 172.617188 432.269531 172.746094 434.421875 173.175781 " fill-opacity="1" fill-rule="nonzero"/><path fill="#ffffff" d="M 445.796875 157.488281 C 443.566406 157.878906 443.144531 158.863281 445.554688 159.101562 C 447.953125 159.351562 445.648438 159.613281 443.292969 160.621094 C 440.941406 161.636719 443.976562 161.367188 447.230469 161.101562 C 450.492188 160.84375 449.1875 161.289062 447.527344 162.371094 C 445.871094 163.457031 447.878906 163.25 449.332031 163.113281 C 449.332031 163.113281 449.332031 163.113281 449.164062 163.53125 C 449 163.945312 450.507812 163.410156 450.949219 164.140625 C 451.382812 164.871094 451.707031 164.757812 453.816406 165.328125 C 455.917969 165.902344 454.914062 165.96875 452.035156 166.28125 C 449.148438 166.601562 450.941406 166.511719 449.113281 166.371094 C 447.289062 166.234375 448.203125 166.304688 448.542969 167.113281 C 448.890625 167.921875 448.605469 167.5625 447.480469 169.109375 C 446.355469 170.660156 447.832031 169.976562 451.015625 170.257812 C 454.191406 170.542969 451.019531 171.109375 448.707031 172.164062 C 446.394531 173.21875 445.285156 173.980469 446.875 174.933594 C 448.460938 175.886719 449.226562 174.257812 451.152344 172.871094 C 453.082031 171.484375 453.625 172.136719 455.835938 171.140625 C 458.058594 170.160156 457.84375 170.457031 462.082031 170.25 C 466.324219 170.054688 465.136719 169.6875 465.074219 168.242188 C 465.015625 166.804688 469.207031 166.25 465.660156 165.613281 C 462.105469 164.988281 464.679688 164.9375 461.933594 163.628906 C 459.183594 162.324219 458.972656 162.488281 458.359375 161.25 C 457.753906 160.011719 456.5625 160.683594 454.328125 159.863281 C 452.089844 159.042969 455.046875 159.300781 455.355469 157.300781 C 455.65625 155.296875 454.472656 156.679688 452.992188 155.832031 C 451.507812 154.976562 453.257812 155.261719 455.074219 154.300781 C 456.894531 153.34375 455.585938 153.179688 454.175781 152.710938 C 452.769531 152.242188 452.609375 152.984375 452.664062 154.226562 C 452.714844 155.472656 451.328125 154.53125 448.523438 156.042969 C 445.714844 157.5625 448.027344 157.101562 445.796875 157.488281 " fill-opacity="1" fill-rule="nonzero"/><path fill="#ffffff" d="M 771.195312 197.800781 C 766.253906 197.238281 764.964844 198.546875 764.558594 197.003906 C 764.160156 195.457031 767.066406 195.125 767.070312 195.125 C 770.3125 194.222656 773.90625 196.054688 773.066406 193.21875 C 772.226562 190.382812 769.042969 187.78125 772.371094 189.539062 C 775.675781 191.289062 777.460938 190.613281 776.421875 193.332031 C 775.386719 196.0625 776.140625 198.394531 771.195312 197.800781 Z M 686.601562 187.523438 C 683.328125 188.449219 684.242188 189.390625 683.09375 189.652344 C 681.957031 189.917969 681.949219 189.917969 681.957031 189.917969 C 682.007812 188.253906 680.289062 188.1875 682.925781 187.234375 C 685.5625 186.277344 689.894531 186.613281 686.601562 187.523438 Z M 624.234375 200.503906 C 618.0625 199.515625 620.238281 200.785156 617.601562 198.929688 C 614.960938 197.082031 614.210938 199.546875 612.496094 197.246094 C 610.78125 194.957031 611.820312 196.234375 612.023438 192.703125 C 612.222656 189.164062 608.96875 187.769531 608.964844 187.769531 C 606.917969 185.925781 604.339844 185.335938 605.253906 183.910156 C 606.144531 182.476562 607.207031 184.03125 605.761719 182.433594 C 604.316406 180.828125 600.453125 181.5625 604.128906 179.871094 C 607.824219 178.191406 605.574219 178.242188 610.910156 177.597656 C 616.242188 176.972656 612.652344 175.882812 618.359375 177.164062 C 624.054688 178.46875 620.695312 180.0625 618.074219 180.023438 C 615.441406 179.976562 614.632812 178.800781 614.453125 180.679688 C 614.265625 182.5625 611.613281 180.175781 616.550781 184.753906 C 621.457031 189.347656 619.246094 187.300781 620.285156 190.179688 C 621.308594 193.0625 625.113281 193.867188 626.3125 196.9375 C 627.511719 200.003906 630.417969 201.519531 624.234375 200.503906 Z M 586.800781 185.105469 C 585.671875 186.617188 588.503906 187.238281 583.839844 187 C 579.195312 186.777344 579.410156 187.664062 575.835938 186.648438 C 572.246094 185.652344 573.925781 185.777344 568.625 185.222656 C 563.332031 184.695312 565.226562 183.640625 561.339844 184.902344 C 557.472656 186.175781 553.597656 186.378906 551.789062 186.0625 C 549.976562 185.738281 549.195312 185.585938 549.195312 185.582031 C 546.613281 184.636719 544.792969 184.96875 546.472656 183.464844 C 548.160156 181.964844 549.59375 181.808594 549.191406 180.320312 C 548.804688 178.816406 545.9375 179.613281 549.265625 178.425781 C 552.597656 177.246094 551.296875 177.402344 552.734375 176.152344 C 554.1875 174.90625 553.023438 174.027344 555.636719 174.839844 C 558.253906 175.644531 559.582031 175.277344 559.695312 176.066406 C 559.8125 176.851562 561.085938 174.90625 561.5 175.699219 C 561.914062 176.492188 559.984375 175.742188 560.910156 177.15625 C 561.839844 178.566406 555.765625 178.925781 558.257812 179.035156 C 560.738281 179.152344 559.433594 180.84375 563.625 180.292969 C 567.808594 179.734375 575.113281 180.324219 571.921875 179.113281 C 568.546875 177.851562 572.15625 177.347656 568.96875 176.910156 C 567.492188 176.695312 561.128906 176.78125 565.339844 175.933594 C 569.558594 175.09375 570.457031 174.414062 573.320312 174.273438 C 576.1875 174.144531 576.578125 174.316406 576.410156 175.089844 C 576.25 175.875 573.921875 174.878906 575.148438 177.113281 C 576.371094 179.347656 573.5 179.855469 578.902344 181.574219 C 584.308594 183.300781 587.914062 183.597656 586.800781 185.105469 Z M 569.398438 205.902344 C 567.078125 207.855469 571.039062 209.628906 565.644531 208.847656 C 560.25 208.085938 561.726562 206.851562 558.324219 208.035156 C 554.929688 209.234375 554.8125 210.617188 553.121094 210.046875 C 551.449219 209.472656 551.546875 208.671875 545.808594 208.300781 C 540.046875 207.953125 540.375 207.152344 536.746094 206.886719 C 533.121094 206.644531 536.105469 205.402344 531.960938 205.46875 C 527.832031 205.539062 524.980469 203.414062 525.132812 206.175781 C 525.292969 208.9375 526.359375 210.371094 524.28125 210.632812 C 522.203125 210.90625 525.410156 212.082031 520.839844 210.464844 C 519.503906 209.988281 518.96875 209.757812 518.792969 209.660156 C 518.683594 209.691406 518.226562 209.703125 516.84375 209.542969 C 512.472656 209.054688 512.050781 210.582031 512.539062 208.246094 C 513.039062 205.898438 517.527344 208.332031 518.132812 206.859375 C 518.742188 205.378906 521.699219 205.546875 514.710938 205.285156 C 507.699219 205.070312 510.386719 206.09375 506.792969 206.058594 C 503.214844 206.042969 502.5625 208.089844 500.921875 206.492188 C 499.269531 204.910156 499.121094 205.242188 497.101562 205.042969 C 495.089844 204.839844 492.023438 205.769531 495.492188 204.132812 C 498.96875 202.511719 500.726562 202.953125 498.679688 201.71875 C 496.628906 200.488281 495.441406 202.109375 496.628906 200.488281 C 497.824219 198.867188 499.597656 198.628906 497.699219 197.953125 C 495.804688 197.285156 496.945312 196.417969 494.066406 197.171875 C 491.175781 197.945312 492.515625 197.332031 489.8125 198.027344 C 487.097656 198.730469 484.832031 197.972656 480.519531 198.90625 C 476.222656 199.859375 477.273438 198.320312 472.761719 200.382812 C 468.257812 202.472656 464.707031 203.164062 460.605469 204.484375 C 456.492188 205.808594 450.835938 207.722656 450.320312 207.730469 C 449.414062 207.433594 448.207031 206.160156 447.683594 205.808594 C 448.328125 205.066406 448.566406 204.644531 448.898438 204.128906 C 449.230469 203.613281 453.097656 203.039062 455.617188 202.839844 C 458.152344 202.632812 456.648438 202.695312 458.59375 201.640625 C 460.539062 200.59375 460.917969 199.945312 461.886719 198.382812 C 462.855469 196.832031 464.570312 198.398438 464.578125 196.578125 C 464.582031 194.753906 462.828125 194.753906 465.960938 193.15625 C 469.117188 191.558594 466.164062 190.945312 470.527344 191.113281 C 474.890625 191.300781 475.71875 191.429688 478.6875 190.617188 C 481.640625 189.816406 484.546875 188.253906 480.039062 188.988281 C 475.53125 189.722656 473.015625 190.722656 472.445312 189.859375 C 471.875 189 472.339844 189.484375 473.15625 188.320312 C 473.96875 187.15625 470.0625 187.59375 472.304688 187.019531 C 474.535156 186.457031 474.242188 186.980469 478.597656 186.347656 C 482.953125 185.730469 481.71875 185.824219 483.359375 185.027344 C 484.984375 184.234375 484.570312 183.585938 487.945312 182.929688 C 491.308594 182.277344 490.101562 180.609375 492.554688 182.320312 C 494.992188 184.050781 492.183594 185.761719 496.121094 185.773438 C 500.054688 185.800781 498.007812 187.445312 499.695312 188.066406 C 501.371094 188.6875 495.496094 189.085938 498.152344 189.351562 C 500.800781 189.625 500.746094 189.875 503.921875 189.234375 C 507.082031 188.601562 508.96875 189.773438 509.230469 190.355469 C 509.5 190.945312 509.207031 190.964844 508.367188 191.511719 C 507.53125 192.0625 510.925781 192.679688 507.738281 193.570312 C 504.558594 194.484375 507.351562 194.902344 501.75 194.957031 C 496.152344 195.027344 489.679688 194.582031 495.140625 195.417969 C 500.589844 196.277344 500.476562 196.4375 504.710938 196.746094 C 508.933594 197.078125 509.421875 197.558594 509.402344 196.238281 C 509.382812 194.925781 511.5 195.800781 512.957031 194.875 C 514.410156 193.941406 512.988281 194.335938 514.480469 192.980469 C 515.96875 191.628906 516.441406 191.855469 514.851562 191.1875 C 513.246094 190.519531 511.425781 190.15625 513.789062 189.785156 C 516.160156 189.421875 515.300781 190.882812 516.996094 190.089844 C 518.703125 189.308594 520.742188 189.179688 517.507812 188.542969 C 514.285156 187.914062 512.976562 185.457031 509.910156 185.917969 C 506.828125 186.378906 506.101562 186.992188 505.203125 185.738281 C 504.308594 184.480469 504.1875 183.457031 502.375 182.835938 C 500.5625 182.210938 499.804688 183.257812 499.992188 181.683594 C 500.175781 180.109375 497.933594 180.945312 498.863281 179.847656 C 499.785156 178.75 498.316406 178.066406 501.429688 178.527344 C 504.542969 178.992188 503.742188 178.441406 505.539062 179.894531 C 507.34375 181.34375 509.320312 182.707031 513.929688 183.386719 C 518.535156 184.082031 520.265625 183.382812 520.347656 185.402344 C 520.429688 187.417969 521.972656 189.441406 524.363281 191.417969 C 526.746094 193.390625 523.398438 193.503906 526.738281 194.988281 C 530.066406 196.476562 529.238281 197.636719 531.863281 197.351562 C 534.5 197.078125 533.589844 197.597656 534.765625 196.078125 C 535.941406 194.566406 536.050781 193.746094 538.359375 194.667969 C 540.683594 195.585938 541.121094 193.457031 537.511719 192.230469 C 533.914062 191.023438 532.609375 190.347656 535.964844 189.527344 C 539.300781 188.722656 538.339844 185.6875 541.179688 189.234375 C 543.988281 192.785156 544.910156 191.996094 546.585938 193.800781 C 548.269531 195.597656 551.140625 198.433594 553.59375 197.675781 C 556.070312 196.90625 559.835938 198.160156 561.65625 198.191406 C 563.496094 198.234375 560.738281 199.382812 563.871094 199.589844 C 567.007812 199.800781 560.316406 200.335938 562.179688 201.152344 C 564.050781 201.960938 565.195312 204.023438 566.265625 202.195312 C 567.328125 200.382812 569.621094 200.269531 567.921875 199.6875 C 566.230469 199.109375 563.9375 198.875 566.128906 198.429688 C 568.3125 198.003906 567.628906 195.957031 569.820312 197.578125 C 572.003906 199.203125 572.457031 200.789062 572.367188 201.738281 C 572.277344 202.695312 571.71875 203.949219 569.398438 205.902344 Z M 496.390625 157.640625 C 500.382812 155.914062 500.476562 157.347656 504.847656 155.773438 C 509.222656 154.199219 513.335938 154.070312 512.042969 151.742188 C 510.742188 149.410156 509.546875 149.410156 512.570312 148.230469 C 515.59375 147.054688 516.40625 146.402344 513.492188 145.246094 C 510.570312 144.074219 504.289062 145.0625 508.828125 142.820312 C 513.371094 140.597656 515.066406 140.652344 518.359375 139.074219 C 521.660156 137.511719 519.925781 138.132812 520.308594 136.8125 C 520.699219 135.5 518.054688 134.851562 521.796875 134.707031 C 525.535156 134.570312 528.371094 132.511719 528.066406 134.503906 C 527.773438 136.492188 528.128906 136.8125 524.078125 137.832031 C 520.023438 138.867188 518.085938 138.136719 519.96875 140.3125 C 521.855469 142.492188 522.277344 144.242188 525.140625 144.632812 C 528.019531 145.023438 526.140625 146.152344 532.773438 144.824219 C 539.410156 143.503906 548.949219 143.058594 543.242188 144.796875 C 537.542969 146.558594 531.871094 147.21875 527.742188 147.753906 C 523.609375 148.296875 527.519531 147.972656 528.851562 149.433594 C 530.199219 150.894531 531.652344 152.496094 527.847656 151.375 C 524.03125 150.253906 521.121094 148.328125 521.6875 150.96875 C 522.277344 153.605469 525.929688 153.953125 521.859375 155.464844 C 517.816406 157.003906 521.613281 157.789062 515.265625 157.457031 C 508.914062 157.152344 509.523438 157.550781 506.269531 158.078125 C 503.023438 158.613281 500.222656 158.753906 500.222656 158.757812 C 500.027344 158.753906 499.820312 158.765625 499.613281 158.765625 C 496.148438 158.839844 492.625 159.289062 496.390625 157.640625 Z M 756.472656 283.050781 C 753.449219 288.910156 756.21875 295.582031 756.679688 301.226562 C 757.230469 306.867188 763.574219 319.855469 765.835938 317.300781 C 768.148438 314.738281 766.203125 313.972656 765.386719 308.238281 C 764.566406 302.496094 760.304688 299.589844 757.867188 295.941406 C 755.421875 292.28125 761.191406 288.398438 763.152344 287.152344 C 765.074219 285.902344 762.648438 289.25 767.289062 293.929688 C 771.90625 298.632812 771.804688 300.097656 772.703125 302.832031 C 776.488281 303.71875 787.523438 300.105469 788.894531 295.699219 C 790.273438 291.253906 782.59375 283.246094 780.628906 279.378906 C 778.6875 275.5 785.757812 276.40625 791.203125 278.300781 C 796.644531 280.195312 793.039062 280.128906 790.945312 282.089844 C 788.851562 284.066406 789.121094 284.996094 791.269531 286.296875 C 793.421875 287.597656 795.3125 283.984375 794.890625 282.226562 C 794.460938 280.464844 794.972656 278.914062 798.816406 280.285156 C 802.664062 281.652344 810.449219 281.828125 817.453125 283.164062 C 824.460938 284.523438 818.351562 279.089844 826.414062 277.148438 C 834.523438 275.269531 829.558594 271.910156 828.425781 268.085938 C 827.296875 264.265625 824 261.242188 821.21875 257.246094 C 818.441406 253.253906 821.890625 256.347656 826.910156 256.589844 C 831.9375 256.839844 826.914062 254.734375 825.964844 252.796875 C 825.023438 250.867188 823.105469 251.699219 820.46875 252.046875 C 817.828125 252.414062 817.6875 249.902344 813.777344 246.75 C 809.859375 243.605469 812.816406 245.089844 816.40625 245.441406 C 819.992188 245.808594 820.246094 244.578125 823.410156 244.367188 C 826.582031 244.164062 824.609375 245.8125 824.144531 248.128906 C 823.675781 250.4375 825.757812 249.5 828.9375 249.585938 C 832.132812 249.683594 830.636719 249.578125 834.460938 252.597656 C 838.257812 255.621094 834.125 253.625 836.859375 257.105469 C 839.585938 260.589844 838.546875 258.316406 838.765625 261.734375 C 838.960938 265.140625 838.847656 264.824219 840.636719 268.929688 C 842.421875 273.035156 842.082031 269.109375 846.234375 270.121094 C 850.375 271.144531 848.496094 270.386719 849.609375 268.707031 C 850.734375 267.03125 846.671875 263.210938 843.539062 259.414062 C 840.410156 255.621094 840.792969 255.042969 844.140625 255.191406 C 847.488281 255.34375 847.226562 252.320312 849.242188 251.417969 C 851.265625 250.511719 854.59375 253.761719 858.429688 255.085938 C 862.253906 256.402344 866.824219 247.1875 866.707031 242.394531 C 866.605469 237.609375 861.90625 229.597656 856.394531 225.800781 C 850.90625 222.027344 853.945312 227.53125 851.492188 225.191406 C 849.027344 222.867188 852.816406 223.933594 846.679688 221.535156 C 840.546875 219.175781 841.367188 218.964844 845.644531 218.949219 C 849.933594 218.96875 848.886719 214.09375 853.820312 214.414062 C 858.804688 214.648438 878.546875 225.605469 881.609375 228.273438 C 884.742188 230.847656 883.105469 224.808594 885.40625 223.921875 C 887.734375 223.042969 892.859375 227.820312 894.835938 230.820312 C 896.8125 233.808594 897.117188 229.777344 900.761719 232.035156 C 904.398438 234.308594 899.472656 236.316406 894.574219 238.195312 C 889.796875 240.046875 904.691406 259.0625 907.976562 262.296875 C 911.410156 265.480469 910.761719 258.941406 910.515625 256.121094 C 910.269531 253.308594 912.96875 254.890625 911.164062 252.324219 C 909.351562 249.757812 912.761719 252.816406 912.988281 251.078125 C 913.203125 249.347656 913.53125 247.726562 907.570312 243.507812 C 901.609375 239.328125 906.101562 240.816406 906.796875 239.882812 C 907.484375 238.945312 908.34375 240.765625 909.28125 240.503906 C 910.210938 240.257812 910.871094 239.957031 917.945312 244.816406 C 924.992188 249.703125 921.855469 248.753906 923.28125 247.988281 C 924.707031 247.226562 924.746094 246.890625 928.511719 246.566406 C 932.28125 246.261719 930.660156 247.589844 936.144531 250.355469 C 941.632812 253.160156 933.1875 246.945312 929.191406 243.023438 C 925.195312 239.09375 928.015625 240.078125 929.773438 239.070312 C 931.539062 238.03125 942.125 248.222656 947.15625 252.0625 C 952.21875 255.871094 951.914062 255.058594 950.1875 250.980469 C 948.445312 246.902344 941.089844 243.535156 937.457031 239.964844 C 933.785156 236.433594 925.699219 230.253906 907.164062 217.152344 C 888.480469 204.242188 895.675781 210.542969 893.75 211.8125 C 891.792969 213.132812 892.769531 210.347656 890.496094 208.3125 C 888.21875 206.273438 885.847656 204.734375 884.378906 205.457031 C 882.933594 206.128906 868.136719 198.8125 865.789062 194.574219 C 863.492188 190.09375 837.140625 182.078125 835.628906 178.882812 C 834.171875 175.394531 810.285156 166.773438 810.257812 166.898438 C 806.992188 166.257812 811.371094 169.78125 811.367188 169.785156 C 811.378906 169.710938 792.320312 163.589844 788.222656 162.152344 C 782.902344 156.667969 781.476562 155.167969 773.535156 152.210938 C 765.582031 149.292969 766.324219 150.101562 765.835938 151.742188 C 754.402344 148.675781 758.144531 147.941406 754.960938 147.171875 C 751.78125 146.417969 743.515625 142.515625 736.753906 141.964844 C 730.011719 141.402344 727.136719 141.8125 726.667969 140.226562 C 726.210938 138.652344 730.96875 139.257812 735.148438 140.007812 C 739.3125 140.769531 741.507812 140.535156 733.136719 136.257812 C 724.710938 132.003906 717.363281 133.90625 717.449219 131.769531 C 717.515625 129.613281 708.859375 128.238281 704.152344 127.730469 C 699.46875 127.230469 703.609375 128.996094 700.5 129.203125 C 697.398438 129.390625 687.71875 126.253906 687.378906 127.277344 C 687.0625 128.289062 687.9375 128.050781 680.566406 126.664062 C 673.1875 125.308594 673.480469 126.902344 674.847656 128.566406 C 676.214844 130.238281 673.21875 128.511719 668.96875 128.363281 C 664.734375 128.226562 666.328125 126.804688 661.972656 126.597656 C 657.601562 126.402344 662.585938 127.144531 664.308594 128.320312 C 666.054688 129.5 664.148438 129.351562 662.679688 129.132812 C 661.210938 128.910156 661.605469 128.050781 657.550781 127.769531 C 653.480469 127.488281 656.710938 128.855469 655.707031 130.152344 C 654.707031 131.449219 653.394531 129.210938 650.644531 127.324219 C 647.890625 125.445312 648.609375 128.265625 648.605469 128.265625 C 647.472656 130.34375 653.375 130.738281 655.828125 133.488281 C 658.289062 136.246094 657.015625 137.011719 654.8125 140.550781 C 652.601562 144.09375 650.945312 140 648.082031 137.992188 C 645.238281 135.996094 650.707031 137.394531 652.117188 135.519531 C 653.515625 133.640625 651.054688 132.976562 648.269531 130.300781 C 645.457031 127.632812 646.171875 128.824219 643.101562 126.210938 C 639.996094 123.59375 639.605469 123.871094 637.574219 124.109375 C 635.53125 124.34375 636.015625 125.191406 634.554688 127.886719 C 633.109375 130.585938 635.828125 129.292969 640.101562 131.566406 C 644.378906 133.84375 641.578125 133.484375 637.171875 132.324219 C 632.792969 131.125 618.128906 126.921875 612.675781 127.464844 C 607.242188 127.960938 616.03125 128.199219 620.351562 130.375 C 624.679688 132.546875 619.960938 131.574219 612.113281 130.742188 C 604.265625 129.945312 608.960938 131.28125 605.636719 130.542969 C 602.300781 129.828125 601.207031 129.070312 591.847656 129.949219 C 582.515625 130.863281 587.359375 129.558594 587.5 132.398438 C 587.625 135.25 584.121094 132.863281 582.488281 131.527344 C 580.855469 130.1875 584.523438 129.882812 584.527344 129.886719 C 584.535156 129.882812 579.683594 126.652344 576.980469 128.460938 C 574.308594 130.265625 578.347656 129.613281 579.449219 132.34375 C 580.539062 135.074219 575.183594 131.707031 575.105469 133.488281 C 575.039062 135.261719 570.28125 136.28125 567.222656 136.078125 C 564.152344 135.863281 563.328125 135.8125 560.253906 135.941406 C 557.191406 136.070312 557.472656 136.210938 555.820312 134.136719 C 555.355469 133.570312 554.832031 133.230469 554.378906 133.039062 C 554.484375 133.046875 554.597656 133.046875 554.707031 133.046875 C 557.789062 133.078125 559.757812 132.410156 567.269531 134.328125 C 574.753906 136.261719 571.234375 132.539062 571.023438 130.160156 C 570.804688 127.792969 568.816406 128.335938 562.324219 128.695312 C 555.835938 129.089844 558.425781 128.898438 546.289062 126.0625 C 534.117188 123.332031 536.367188 124.089844 525.332031 124.148438 C 514.277344 124.296875 510.042969 125.035156 506.894531 128.992188 C 503.734375 132.953125 496.710938 133.105469 493.625 136.671875 C 490.539062 140.242188 488.457031 140.179688 480.285156 141.84375 C 472.132812 143.535156 473.121094 144.542969 476.121094 146.765625 C 479.105469 149.003906 472.453125 150.707031 476.609375 151.636719 C 482.015625 152.867188 483.128906 151.933594 490.734375 149.988281 C 498.359375 148.082031 495.238281 152.878906 495.773438 154.757812 C 496.316406 156.640625 492.421875 156.015625 491.964844 153.589844 C 491.5 151.160156 490.136719 152.574219 486.054688 154.625 C 481.984375 156.675781 485.539062 157.59375 486.777344 159.804688 C 488.023438 162.015625 487.71875 161.472656 481.03125 161.941406 C 474.347656 162.441406 473.492188 164.332031 473.699219 166.3125 C 473.910156 168.289062 468.066406 168.851562 465.992188 171.273438 C 463.929688 173.683594 466.269531 174.558594 460.894531 173.457031 C 455.515625 172.382812 456.320312 173.488281 459.738281 174.667969 C 463.152344 175.855469 454.058594 176.109375 454.054688 176.121094 C 454.050781 176.113281 448.246094 175.6875 449.550781 178.453125 C 450.863281 181.210938 454.589844 178.410156 456.949219 179.527344 C 461.117188 182.777344 458.304688 181.699219 458.300781 184.539062 C 461.691406 187.738281 457.441406 184.808594 456.628906 187.46875 C 455.839844 190.144531 451.921875 187.613281 443.148438 188.566406 C 434.386719 189.550781 434.359375 191.707031 435.34375 195.269531 C 436.335938 198.835938 433.941406 196.824219 434.296875 199.648438 C 434.648438 202.46875 436.847656 200.460938 437.003906 202.851562 C 437.148438 205.242188 435.519531 205.28125 439.710938 204.667969 C 443.917969 204.058594 442.527344 204.828125 446.746094 206.890625 C 450.953125 208.96875 445.949219 207.46875 442.683594 210.5625 C 439.433594 213.640625 434.765625 212.582031 435.667969 217.097656 C 436.558594 221.621094 430.78125 225.265625 426.261719 228.644531 C 421.734375 232.015625 421.023438 235.214844 418.800781 239.191406 C 416.574219 243.179688 413.058594 243.699219 416.246094 246.160156 C 419.425781 248.628906 418.921875 256.039062 418.800781 260.378906 C 418.667969 264.726562 420.507812 266.671875 425.917969 268.074219 C 431.300781 269.5 430.175781 269.734375 430.683594 272.839844 C 431.191406 275.9375 439.03125 276.207031 445.765625 278.558594 C 452.476562 280.917969 451.984375 276.792969 458.949219 275.097656 C 465.925781 273.460938 463.28125 276.386719 469.773438 272.871094 C 476.292969 269.402344 478.089844 269.042969 483.007812 269.957031 C 487.9375 270.914062 485.316406 273.777344 494.328125 272.453125 C 503.355469 271.203125 499.148438 278.589844 497.503906 283.269531 C 495.871094 287.953125 504.410156 292.519531 509.613281 297.496094 C 514.8125 302.464844 510.507812 311.054688 510.222656 313.773438 C 509.878906 316.484375 504.90625 319.550781 508.816406 324.109375 C 512.710938 328.675781 516.144531 332.855469 515.988281 336.785156 C 515.851562 340.722656 519.003906 345.671875 522.574219 349.414062 C 526.128906 353.160156 526.101562 352.9375 526.253906 356.238281 C 526.40625 359.539062 527.175781 360.324219 532.699219 358.601562 C 538.230469 356.917969 536.753906 358.527344 545.832031 357.65625 C 554.925781 356.875 551.410156 352.644531 558.460938 349.351562 C 565.574219 346.121094 558.820312 341.132812 565.03125 339.289062 C 571.257812 337.5 570.304688 330.484375 569.078125 325.054688 C 579.546875 322.378906 584.949219 316.636719 585.84375 310.984375 C 586.742188 305.339844 584.757812 298.753906 583.566406 295.148438 C 582.316406 291.519531 595.6875 278.789062 604.382812 276.855469 C 612.902344 274.863281 620.714844 259.023438 620.777344 255.9375 C 616.96875 257.035156 611.351562 257.136719 606.609375 257.785156 C 601.875 258.417969 597.660156 258.636719 597.1875 255.828125 C 596.722656 253.015625 593.558594 250.921875 591.410156 248.558594 C 589.257812 246.171875 586.140625 247.839844 585.699219 245.660156 C 587.449219 243.457031 582.433594 240.308594 578.195312 235.203125 C 578.03125 229.566406 568.929688 220.613281 568.496094 217.789062 C 568.09375 214.929688 572.984375 217.542969 575.355469 221.09375 C 577.757812 224.632812 585.628906 233.699219 589.71875 237.058594 C 593.871094 240.402344 596.769531 251.167969 599.359375 252.992188 C 601.953125 254.824219 611.082031 249.765625 623.84375 248.558594 C 636.472656 247.339844 650.03125 236.917969 644.695312 234.308594 C 639.308594 231.734375 638.398438 230.453125 634.742188 228.027344 C 631.070312 225.617188 632.8125 229.699219 627 230.222656 C 621.179688 230.769531 618.621094 226.015625 614.140625 221.09375 C 609.652344 216.179688 610.058594 215.371094 614.03125 214.828125 C 618.046875 214.285156 626.101562 225.042969 632.714844 225.054688 C 639.378906 225.070312 637.746094 226.414062 641.40625 228.789062 C 645.054688 231.160156 654.992188 231.007812 664.652344 232.914062 C 674.308594 234.832031 673.304688 239.9375 674.808594 243.277344 C 676.320312 246.621094 681.042969 246.964844 684.789062 246.4375 C 680.089844 249.382812 692.921875 272.847656 692.976562 277.050781 C 693.253906 281.226562 693.929688 280.28125 697 278.742188 C 700.066406 277.214844 700.328125 277.597656 702.613281 278.738281 C 704.886719 279.882812 700.859375 284.621094 704.285156 287.03125 C 707.707031 289.449219 705.953125 285.5625 707.6875 282.613281 C 709.417969 279.648438 705.011719 278.085938 704.046875 276.808594 C 703.082031 275.523438 704.175781 273.589844 704.039062 269.980469 C 703.898438 266.382812 703.511719 265.960938 708.085938 265.003906 C 712.640625 264.027344 721.851562 260.5 727.363281 257.3125 C 732.878906 254.125 732.335938 255.609375 740.269531 257.804688 C 748.214844 260.042969 746.503906 266.082031 746.140625 270.226562 C 745.773438 274.394531 746.507812 277.296875 750.925781 276.273438 C 755.347656 275.242188 759.539062 277.210938 756.472656 283.050781 " fill-opacity="1" fill-rule="nonzero"/><path fill="#ffffff" d="M 518.792969 209.660156 C 518.933594 209.609375 518.558594 209.519531 518.792969 209.660156 " fill-opacity="1" fill-rule="nonzero"/><path fill="#ffffff" d="M 609.199219 310.429688 C 607.800781 309 606.476562 312.425781 604.710938 314.816406 C 602.949219 317.222656 603.371094 316.652344 595.832031 318.136719 C 588.316406 319.664062 593.09375 319.339844 593.1875 322.757812 C 593.296875 326.183594 595.042969 325.179688 590.953125 327.421875 C 586.878906 329.679688 589.175781 331.414062 589.390625 335.835938 C 589.386719 335.835938 591.070312 337.949219 593.042969 340.527344 C 595.011719 343.113281 593.921875 340.886719 595.453125 340.023438 C 596.984375 339.15625 598.140625 340.542969 598.652344 338.457031 C 599.160156 336.359375 604.796875 332.347656 606.871094 327.007812 C 608.949219 321.667969 608.054688 324.710938 609.992188 320.785156 C 611.945312 316.863281 611.195312 318.632812 611.925781 315.433594 C 612.671875 312.234375 610.597656 311.859375 609.199219 310.429688 " fill-opacity="1" fill-rule="nonzero"/><path fill="#ffffff" d="M 847.894531 419.371094 C 846.542969 413.550781 847.144531 412.597656 849.304688 406.355469 C 851.449219 400.109375 848.96875 400.425781 848.554688 396.917969 C 848.125 393.40625 850.96875 388.167969 850.96875 388.167969 C 850.960938 388.15625 845.3125 388.15625 843.046875 391.882812 C 840.78125 395.589844 839.960938 395.085938 834.800781 399.980469 C 829.636719 404.902344 834.355469 397.796875 827.921875 390.066406 C 821.433594 382.390625 828.855469 387.152344 831.035156 386.578125 C 833.199219 386 835.8125 385.363281 829.632812 379.4375 C 823.402344 373.542969 822.125 373.15625 818.664062 376.207031 C 815.191406 379.273438 812.949219 378.84375 812.34375 375.933594 C 811.746094 373.03125 809.160156 372.4375 803.824219 374.589844 C 798.503906 376.75 795.863281 374.425781 796.164062 373.808594 C 796.472656 373.1875 792.320312 372.425781 789.730469 377.789062 C 787.125 383.152344 784.699219 377.589844 775.972656 375.355469 C 767.265625 373.179688 767.238281 372.480469 762.128906 378.226562 C 757.042969 384.015625 760.140625 382.109375 758.730469 380.257812 C 757.308594 378.417969 757.464844 377.734375 757.226562 382.109375 C 756.976562 386.476562 754.789062 387.84375 752.488281 393.273438 C 752.488281 393.273438 752.484375 393.273438 748.882812 399.320312 C 745.289062 405.398438 749.347656 400.585938 757.90625 403.226562 C 766.441406 405.9375 764.132812 405.414062 771.410156 405.542969 C 778.695312 405.75 780.503906 406.078125 789.691406 410.5625 C 798.835938 415.128906 790.808594 413.476562 791.121094 420.894531 C 791.371094 428.3125 793.929688 421.105469 798.570312 420.519531 C 803.210938 419.953125 798.066406 422.597656 795.582031 425.925781 C 793.09375 429.261719 795.726562 430.421875 800.152344 435.855469 C 804.539062 441.324219 804.898438 437.804688 812.695312 438.765625 C 820.507812 439.828125 820.554688 436.835938 832.402344 437.121094 C 844.324219 437.582031 839.167969 433.136719 848.273438 431.472656 C 857.457031 429.925781 849.253906 425.179688 847.894531 419.371094 " fill-opacity="1" fill-rule="nonzero"/><path fill="#ffffff" d="M 804.257812 440.640625 C 803.699219 442.269531 800.664062 441.167969 797.96875 439.09375 C 795.257812 437.007812 793.996094 438.667969 793.210938 440.066406 C 793.207031 440.066406 789.53125 443.761719 793.34375 444.355469 C 797.160156 444.964844 796.074219 444.058594 801.253906 445.777344 C 806.445312 447.535156 804.832031 439.019531 804.257812 440.640625 " fill-opacity="1" fill-rule="nonzero"/><g clip-path="url(#6fb1c34c95)"><path fill="#ffffff" d="M 868.3125 476.226562 C 865.878906 472.214844 868.359375 470.984375 868.050781 467.523438 C 867.726562 464.0625 866.09375 468.601562 864.289062 471.84375 C 862.488281 475.089844 863.191406 474.171875 858.871094 473.40625 C 854.546875 472.667969 855.992188 473.492188 855.933594 476.398438 C 855.867188 479.304688 854.960938 475.285156 851.652344 473.921875 C 848.351562 472.570312 853.214844 472.804688 848.671875 471.667969 C 844.113281 470.558594 838.171875 471.347656 831.214844 468.636719 C 823.105469 465.53125 823.0625 467.195312 824.085938 470.925781 C 825.097656 474.667969 826.34375 472.203125 828.863281 472.007812 C 831.382812 471.820312 836.421875 473.394531 843.386719 475.429688 C 850.351562 477.5 847.101562 478.519531 850.644531 477.152344 C 854.191406 475.8125 853.007812 477.832031 856.144531 479.410156 C 859.28125 481.007812 858.679688 480.824219 862.316406 480.441406 C 865.957031 480.078125 865.777344 481.234375 868.46875 482.085938 C 871.160156 482.949219 870.75 480.253906 868.3125 476.226562 " fill-opacity="1" fill-rule="nonzero"/></g><path fill="#ffffff" d="M 776.609375 346.65625 C 776.777344 347.925781 778.570312 348.175781 782.957031 350.15625 C 787.332031 352.160156 787.550781 351.6875 792.1875 354.1875 C 796.8125 356.71875 796.875 356.585938 800.699219 358.265625 C 804.503906 359.980469 805.632812 358.726562 797.167969 354.460938 C 788.679688 350.269531 789.207031 351.246094 784.601562 348.636719 C 779.976562 346.050781 790.933594 350.097656 782.753906 345.75 C 774.539062 341.480469 778.984375 341.15625 769.671875 337.09375 C 760.332031 333.132812 764.050781 333.316406 765.402344 331.132812 C 766.738281 328.96875 768.238281 328.875 765.109375 324.609375 C 761.953125 320.351562 764.980469 320 760.480469 316.597656 C 755.953125 313.214844 754.894531 311.496094 752.847656 306.421875 C 750.78125 301.351562 748.394531 301.839844 744.339844 298.804688 C 740.261719 295.773438 744.160156 301.546875 746.773438 305.109375 C 749.410156 308.679688 752.394531 317.089844 753.933594 322.515625 C 753.945312 322.515625 756.707031 329.070312 758.753906 329.871094 C 760.824219 330.671875 761.515625 333.132812 763.417969 334.902344 C 765.324219 336.671875 762.308594 334.121094 760.445312 335.246094 C 758.601562 336.355469 767.597656 340.417969 772.449219 342.835938 C 777.308594 345.234375 776.445312 345.390625 776.609375 346.65625 " fill-opacity="1" fill-rule="nonzero"/><path fill="#ffffff" d="M 809.464844 326.617188 C 807.230469 325.382812 807.828125 323.585938 807.015625 321.472656 C 806.203125 319.359375 803.746094 319.085938 800.894531 320.859375 C 798.046875 322.636719 795.828125 323.0625 791.582031 323.585938 C 788.273438 321.964844 786.585938 322.433594 785.96875 323.871094 C 785.34375 325.3125 783.886719 324.679688 781.097656 322.308594 C 778.296875 319.949219 777.644531 327.835938 777.808594 330.117188 C 777.808594 330.113281 777.808594 330.117188 777.140625 331.703125 C 776.46875 333.296875 779.539062 334.246094 782.472656 335.351562 C 785.40625 336.457031 784.9375 336.425781 786.601562 338.1875 C 788.265625 339.953125 791.921875 342.132812 793.433594 339.378906 C 794.941406 336.621094 798.6875 337.660156 800.160156 335.582031 C 801.632812 333.5 802.113281 333.027344 803.359375 334.65625 C 804.605469 336.289062 804.511719 332.242188 804.042969 328.910156 C 803.574219 325.578125 807.117188 327.226562 809.464844 326.617188 " fill-opacity="1" fill-rule="nonzero"/><path fill="#ffffff" d="M 812.730469 340.511719 C 816.3125 342.203125 817.011719 343.484375 819.164062 344.027344 C 821.308594 344.570312 821.460938 342.976562 820.027344 342.332031 C 818.589844 341.695312 816.234375 340.769531 813.074219 338.191406 C 809.910156 335.617188 807.695312 336.300781 806.371094 337.40625 C 805.050781 338.507812 805.726562 338.753906 803.972656 339.648438 C 802.21875 340.554688 800.09375 348.597656 799.691406 349.960938 C 799.691406 349.960938 800.464844 350.238281 801.976562 350.605469 C 803.492188 350.976562 803.84375 347.566406 804.492188 346.226562 C 805.144531 344.886719 804.523438 347.796875 804.707031 350.097656 C 804.894531 352.386719 810.234375 353.476562 809.859375 351.355469 C 809.46875 349.21875 808.703125 348.65625 809.339844 345.746094 C 809.988281 342.835938 812.605469 347.460938 813.765625 346.472656 C 814.933594 345.496094 816.449219 344.859375 811.796875 344.015625 C 807.15625 343.1875 807.09375 340.601562 807.417969 339.382812 C 807.734375 338.164062 809.144531 338.832031 812.730469 340.511719 " fill-opacity="1" fill-rule="nonzero"/><path fill="#ffffff" d="M 834.027344 357.175781 C 834.027344 357.175781 835.34375 358.753906 837.042969 360.371094 C 838.734375 361.988281 841.1875 359.113281 841.1875 359.113281 C 841.199219 359.121094 841.132812 357.261719 836.304688 355.792969 C 831.476562 354.351562 833.105469 355.628906 834.027344 357.175781 " fill-opacity="1" fill-rule="nonzero"/><path fill="#ffffff" d="M 859.851562 376.535156 C 857.925781 372.601562 856.765625 373.335938 853.34375 369.96875 C 849.898438 366.613281 853.269531 368.691406 851.300781 366.363281 C 849.328125 364.039062 847.261719 365.398438 845.875 366.351562 C 844.484375 367.3125 843.128906 365.84375 839.980469 363.179688 C 836.820312 360.523438 836.335938 361.871094 834.902344 362.472656 C 833.480469 363.082031 835.675781 364.238281 838.089844 364.574219 C 840.5 364.902344 839.375 366.160156 840.953125 368.886719 C 846.511719 372.789062 845.203125 376.578125 844.695312 378.574219 C 844.691406 378.570312 840.894531 378.324219 842.488281 379.757812 C 844.085938 381.1875 846.90625 380.382812 847.917969 383.226562 C 848.925781 386.058594 853.921875 388.40625 855.613281 387.730469 C 857.296875 387.039062 858.089844 387.128906 861.128906 390.671875 C 864.152344 394.226562 862.558594 395.359375 863.382812 397.09375 C 864.203125 398.820312 866.972656 400.980469 867.328125 398.777344 C 865.136719 394.671875 865.898438 392.21875 866.523438 391.046875 C 867.152344 389.875 870.332031 391.097656 868.25 389.515625 C 866.15625 387.933594 866.179688 387.257812 866.503906 384.710938 C 866.835938 382.167969 863.34375 379.304688 859.851562 376.535156 " fill-opacity="1" fill-rule="nonzero"/><path fill="#ffffff" d="M 869.523438 388.546875 C 869.523438 388.550781 871.140625 391.371094 875.707031 394.664062 C 880.265625 397.964844 882.4375 395.894531 884.210938 395.078125 C 885.980469 394.261719 882.777344 390.949219 882.242188 391.894531 C 881.707031 392.839844 882.734375 394.441406 878.320312 393.605469 C 873.925781 392.78125 871.785156 389.886719 869.523438 388.546875 " fill-opacity="1" fill-rule="nonzero"/><path fill="#ffffff" d="M 848.964844 275.65625 C 850.265625 277.128906 850.335938 277.457031 851.546875 280.855469 C 851.546875 280.855469 852.484375 283.003906 854.613281 283.269531 C 856.75 283.542969 857.078125 278.980469 855.597656 276.945312 C 854.128906 274.90625 850.011719 275.371094 848.964844 275.65625 " fill-opacity="1" fill-rule="nonzero"/><path fill="#ffffff" d="M 863.066406 281.550781 C 864.667969 281.136719 863.585938 279.292969 863.480469 277.285156 C 863.367188 275.273438 860.980469 275.570312 857.722656 273.71875 C 854.453125 271.871094 856.519531 275.183594 857.550781 277.605469 C 857.558594 277.605469 857.894531 281.773438 858.238281 280.40625 C 858.570312 279.042969 861.46875 281.957031 863.066406 281.550781 " fill-opacity="1" fill-rule="nonzero"/><path fill="#ffffff" d="M 865.167969 281.617188 C 864.257812 283.871094 865.875 283.636719 866.382812 283.429688 C 866.890625 283.226562 868.738281 281.777344 870.867188 283.890625 C 872.992188 285.992188 880.207031 287.273438 879.210938 284.859375 C 878.214844 282.445312 879.28125 280.082031 881.457031 277.464844 C 883.648438 274.84375 877.59375 268.941406 876.871094 266.738281 C 876.160156 264.519531 878.039062 266.792969 881.042969 269.160156 C 884.050781 271.53125 885.3125 269.679688 888.925781 270.148438 C 892.535156 270.625 887.449219 267.167969 884.238281 265.542969 C 881.03125 263.914062 878.605469 261.328125 875.820312 258.441406 C 873.035156 255.558594 873.40625 257.582031 875.011719 259.695312 C 876.613281 261.8125 875.398438 261.027344 873.316406 263.144531 C 871.246094 265.265625 874.734375 266.285156 874.199219 268.816406 C 873.671875 271.347656 875.476562 275.851562 873.613281 277.097656 C 871.765625 278.332031 866.304688 274.164062 866.335938 276.273438 C 866.351562 277.546875 866.078125 279.367188 865.167969 281.617188 " fill-opacity="1" fill-rule="nonzero"/><path fill="#ffffff" d="M 879.582031 251.269531 C 878.449219 249.589844 874.125 243.78125 869.484375 236.628906 C 864.828125 229.484375 866.464844 233.765625 865.980469 234.765625 C 865.488281 235.769531 868.84375 240.25 870.042969 243.476562 C 871.238281 246.695312 872.394531 248.660156 872.890625 250.273438 C 873.382812 251.890625 873.417969 253.753906 874.410156 255.9375 C 874.410156 255.9375 875.875 256.03125 876.28125 255.265625 C 876.691406 254.503906 879.414062 258.792969 880.214844 258.25 C 881.019531 257.695312 875.496094 252.980469 874.101562 249.546875 C 872.722656 246.101562 877.726562 250.949219 879.582031 251.269531 " fill-opacity="1" fill-rule="nonzero"/><path fill="#ffffff" d="M 827.105469 288.320312 C 828.976562 285.546875 828.71875 285.625 826.09375 284.316406 C 823.578125 283.070312 822.152344 287.15625 821.953125 288.515625 C 822.027344 288.675781 822.152344 288.960938 822.347656 289.453125 C 823.109375 291.359375 825.230469 291.09375 827.105469 288.320312 " fill-opacity="1" fill-rule="nonzero"/><path fill="#ffffff" d="M 821.925781 288.691406 C 821.929688 288.644531 821.945312 288.582031 821.953125 288.515625 C 821.738281 288.0625 821.921875 288.691406 821.925781 288.691406 " fill-opacity="1" fill-rule="nonzero"/><path fill="#ffffff" d="M 820.8125 309.460938 C 822.828125 311.78125 821.433594 308.628906 822.929688 306.875 C 824.433594 305.128906 826.917969 306.976562 825.023438 305.484375 C 823.125 304 829.003906 298.417969 823.707031 299.828125 C 818.429688 301.257812 820.988281 299.800781 819.789062 301.628906 C 818.597656 303.457031 818.488281 302.074219 817.949219 303.914062 C 817.949219 303.914062 818.804688 307.148438 820.8125 309.460938 " fill-opacity="1" fill-rule="nonzero"/><path fill="#ffffff" d="M 830.023438 322.710938 C 828.3125 319.050781 832.085938 323.980469 831.125 320.558594 C 830.15625 317.128906 830.070312 318.15625 828.550781 314.894531 C 827.019531 311.644531 825.332031 311.519531 823.609375 311.953125 C 821.882812 312.382812 820.582031 310.832031 819.128906 311.621094 C 819.132812 311.621094 819.957031 312.578125 822.882812 313.65625 C 825.8125 314.730469 826.984375 318.035156 827.074219 319.789062 C 827.160156 321.546875 827.015625 321.398438 825.375 321.078125 C 823.742188 320.753906 825.074219 320.988281 824.773438 318.992188 C 824.476562 316.992188 824.449219 317.046875 821.511719 314.6875 C 818.566406 312.332031 820.796875 315.960938 822.074219 318.582031 C 823.359375 321.203125 822.660156 320.003906 821.625 320.796875 C 820.59375 321.589844 820.5 321.78125 823.871094 322.957031 C 827.234375 324.152344 826.699219 323.738281 829.035156 325.070312 C 831.371094 326.410156 829.273438 326.476562 826.140625 327.164062 C 823 327.863281 823.589844 328.230469 824.339844 332.171875 C 825.082031 336.113281 829.460938 331.523438 831.195312 330.484375 C 832.925781 329.449219 831.726562 326.371094 830.023438 322.710938 " fill-opacity="1" fill-rule="nonzero"/><path fill="#ffffff" d="M 888.675781 403.824219 C 889.210938 402.753906 888.117188 400.359375 887.4375 398.710938 C 886.214844 399.875 885.636719 402.367188 886.125 404.414062 C 886.789062 404.511719 888.269531 404.644531 888.675781 403.824219 " fill-opacity="1" fill-rule="nonzero"/><path fill="#ffffff" d="M 886.167969 404.625 C 886.152344 404.554688 886.140625 404.484375 886.125 404.414062 C 885.9375 404.386719 885.800781 404.359375 885.800781 404.359375 C 885.925781 404.449219 886.046875 404.539062 886.167969 404.625 " fill-opacity="1" fill-rule="nonzero"/><path fill="#ffffff" d="M 262.980469 165.433594 C 263.996094 163.929688 263.261719 162.488281 264.316406 163.355469 C 264.96875 163.859375 263.933594 164.6875 262.980469 165.433594 Z M 405.824219 138.21875 C 406.113281 138.070312 406.171875 137.472656 406.246094 136.996094 C 405.039062 137.0625 403.113281 136.929688 402.003906 137.167969 C 400.839844 137.425781 399.679688 139.0625 398.417969 139.191406 C 394.648438 139.59375 395.605469 139.0625 397.136719 138.429688 C 398.289062 137.953125 398.988281 136.203125 400.246094 135.667969 C 401.296875 135.21875 401.949219 136.535156 402.789062 136.792969 C 403.34375 136.964844 405.136719 136.765625 406.261719 136.800781 C 406.3125 136.59375 406.363281 136.429688 406.457031 136.386719 C 406.578125 136.417969 406.652344 136.601562 406.710938 136.832031 C 406.832031 136.84375 406.941406 136.863281 407.023438 136.894531 C 406.933594 136.921875 406.839844 136.933594 406.734375 136.949219 C 406.824219 137.425781 406.878906 138.042969 407.160156 138.0625 C 407.582031 138.09375 408.425781 136.628906 408.941406 136.5625 C 411.460938 136.234375 410.523438 135.816406 408.003906 134.941406 C 406.683594 134.484375 403.371094 135.175781 402.148438 134.488281 C 400 133.273438 402.207031 133.023438 404.550781 132.929688 C 406.136719 132.863281 408.695312 131.472656 410.320312 131.523438 C 412.582031 131.597656 414.984375 132.0625 415.390625 131.332031 C 415.707031 130.765625 413.050781 130.394531 411.828125 129.402344 C 410.1875 128.078125 411.785156 127.953125 413.410156 128 C 414.578125 128.027344 417.078125 126.820312 418.460938 127.039062 C 420.605469 127.382812 420.417969 126.910156 419.285156 125.679688 C 418.683594 125.027344 415.597656 125.019531 415.167969 124.1875 C 414.378906 122.652344 415.140625 122.621094 416.25 123.082031 C 416.875 123.347656 419.6875 122.714844 420.683594 123.417969 C 422.417969 124.652344 422.816406 123.59375 421.636719 122.617188 C 420.945312 122.054688 418.355469 122.757812 416.597656 122.753906 C 413.574219 122.738281 415.515625 121.804688 417.015625 120.683594 C 417.902344 120.019531 416.925781 118.632812 417.773438 117.542969 C 418.816406 116.207031 424.648438 115.992188 429.089844 115.109375 C 434.25 114.082031 437.929688 112.859375 437.609375 111.894531 C 437.257812 110.8125 435.140625 110.292969 431.355469 111.175781 C 428.863281 111.765625 426.792969 113.875 424.351562 114.582031 C 420.78125 115.632812 418.238281 114.117188 414.914062 114.152344 C 412.5 114.171875 409.5 115.730469 405.382812 116.507812 C 399.335938 117.660156 394.5625 116.152344 387.183594 117.367188 C 382.632812 118.121094 377.417969 120.730469 369.851562 123.21875 C 364.4375 124.988281 360.578125 124.90625 358.773438 125.628906 C 353.976562 127.566406 358.269531 127.8125 348.828125 129.664062 C 346.324219 130.167969 343.421875 129.503906 340.914062 130.339844 C 338.417969 131.171875 336.460938 133.46875 334.144531 134.464844 C 332.632812 134.558594 330.921875 133.316406 329.414062 133.527344 C 326.789062 133.914062 326.992188 135.246094 324.636719 135.835938 C 318.480469 137.476562 315.382812 136.886719 313.570312 137.445312 C 310.726562 138.351562 310.722656 140 303.53125 142.585938 C 296.429688 145.179688 295.804688 143.601562 293.636719 144.238281 C 292.210938 144.671875 290.398438 146.808594 284.792969 149.15625 C 280.59375 150.921875 276.238281 151.125 273.152344 152.355469 C 265.867188 155.289062 263.261719 156.542969 266.074219 156.859375 C 267.410156 157.011719 267.054688 158.789062 267.839844 158.972656 C 269.417969 159.339844 270.066406 159.753906 267.453125 160.046875 C 265.550781 160.265625 263.816406 158.707031 261.550781 159.027344 C 259.148438 159.371094 257.40625 161.125 255.714844 162.550781 C 253.957031 164.042969 249.191406 166.796875 248.964844 168.394531 C 248.765625 169.789062 251.484375 169.265625 257.117188 167.316406 C 258.902344 166.703125 260.789062 166.804688 261.804688 166.453125 C 261.132812 167.320312 260.878906 168.769531 259.535156 169.320312 C 258.289062 169.835938 255.117188 169.21875 252.726562 169.917969 C 249.394531 170.886719 247.417969 171.589844 251.941406 171.042969 C 255.972656 170.582031 259.785156 170.902344 263.921875 169.429688 C 267.753906 168.070312 271.367188 165.078125 275.660156 163.578125 C 279.199219 162.335938 281.84375 162.011719 282.496094 161.050781 C 283.488281 159.601562 281.546875 157.664062 284.773438 156.492188 C 287.671875 155.445312 291.972656 154.148438 295.738281 151.699219 C 298.898438 149.640625 301.347656 146.445312 305.070312 145.054688 C 307.582031 144.117188 310.332031 144.613281 312.210938 143.980469 C 315.136719 142.980469 317.71875 140.976562 319.246094 141.078125 C 319.171875 141.132812 317.699219 141.527344 317.625 141.578125 C 317.53125 141.636719 318.933594 142.566406 318.84375 142.613281 C 316.085938 144.378906 312.664062 144.269531 310.050781 145.289062 C 307.753906 146.1875 306.132812 148.304688 302.941406 149.921875 C 299.382812 151.730469 296.785156 152.808594 297.449219 153.359375 C 298.058594 153.859375 301.667969 152.582031 304.304688 152.671875 C 307.433594 152.769531 310.222656 152.820312 313.804688 151.316406 C 316.511719 150.175781 319.289062 147.589844 323.199219 146.863281 C 327.855469 146.003906 327.441406 147.855469 326.976562 149.4375 C 326.535156 150.917969 327.316406 152.824219 326.429688 154.410156 C 325.214844 156.605469 326.003906 156.71875 329.828125 155.546875 C 331.710938 154.972656 333.851562 152.851562 336.648438 152.253906 C 341.230469 151.285156 339.285156 152.785156 337.195312 154.324219 C 335.429688 155.636719 335.015625 157.519531 334.746094 158.320312 C 334.375 159.421875 331.277344 159.761719 329.132812 160.957031 C 327.878906 161.65625 327.648438 163.464844 325.777344 164.636719 C 323.109375 166.316406 321.800781 167.796875 323.039062 169.085938 C 324.160156 170.242188 328.160156 170.359375 328.722656 171.574219 C 329.34375 172.867188 328.28125 175.03125 329.78125 175.527344 C 331.226562 176.011719 333.875 174.589844 336.609375 173.875 C 338.921875 173.261719 339.898438 174.722656 340.726562 174.699219 C 341.875 174.664062 341.835938 173.480469 343.875 171.84375 C 345.851562 170.257812 348.386719 170.191406 349.210938 169.289062 C 349.871094 168.582031 348.625 167.242188 350.246094 165.613281 C 352.042969 163.800781 354.957031 163.1875 355.65625 162.246094 C 356.417969 161.230469 354.882812 159.945312 356.464844 158.132812 C 357.566406 156.863281 360.15625 156.855469 360.960938 156.4375 C 362.375 155.695312 362.734375 154.632812 364.402344 154.207031 C 365.726562 153.867188 370.410156 153.476562 374.015625 151.714844 C 377.566406 149.972656 380.007812 146.851562 380.132812 145.714844 C 383.433594 145.914062 388.648438 145.808594 393.25 143.960938 C 397.09375 142.410156 399.875 139.410156 403.328125 137.730469 C 403.769531 137.519531 405.46875 138.375 405.824219 138.21875 " fill-opacity="1" fill-rule="nonzero"/><path fill="#ffffff" d="M 406.261719 136.800781 C 406.253906 136.859375 406.246094 136.929688 406.246094 136.996094 C 406.421875 136.988281 406.597656 136.96875 406.734375 136.949219 C 406.722656 136.910156 406.71875 136.871094 406.710938 136.832031 C 406.574219 136.8125 406.429688 136.800781 406.261719 136.800781 " fill-opacity="1" fill-rule="nonzero"/><path fill="#ffffff" d="M 224.117188 188.507812 C 227.476562 188.21875 224.464844 188.808594 229.507812 185.96875 C 234.5625 183.15625 235.09375 184.746094 241.214844 182.082031 C 247.347656 179.449219 240.996094 180.214844 243.347656 178.183594 C 245.707031 176.15625 246.0625 177.4375 246.128906 178.503906 C 246.1875 179.578125 244.570312 180.5 247.660156 179.242188 C 250.753906 177.980469 256.691406 175.382812 260.960938 173.609375 C 265.230469 171.824219 270.523438 170.625 273.144531 168.710938 C 275.765625 166.773438 263.414062 171.277344 261.328125 172.066406 C 261.324219 172.0625 259.027344 172.789062 256.285156 173.9375 C 253.550781 175.089844 252.902344 174.058594 251.023438 174.855469 C 249.144531 175.65625 247.046875 175.027344 245.746094 175.160156 C 244.4375 175.289062 246.929688 172.886719 247.683594 172.019531 C 248.429688 171.144531 244.261719 172.832031 241.773438 174.152344 C 239.285156 175.472656 243.195312 175.058594 243.640625 176.078125 C 244.089844 177.089844 241.375 176.960938 239.082031 179.128906 C 236.78125 181.300781 240.125 179.171875 240.734375 180.546875 C 241.335938 181.910156 238.53125 181.53125 236.074219 181.988281 C 233.625 182.445312 234.089844 181.667969 229.601562 183.519531 C 225.121094 185.386719 225.414062 185.585938 222.382812 187.472656 C 219.355469 189.367188 220.75 188.808594 224.117188 188.507812 " fill-opacity="1" fill-rule="nonzero"/><path fill="#ffffff" d="M 226.738281 181.800781 C 229.21875 181.363281 230.667969 179.589844 230.066406 180.972656 C 229.476562 182.355469 233.25 180.285156 233.253906 180.285156 C 237.460938 178.257812 240.074219 176.777344 238.210938 176.28125 C 236.351562 175.792969 236.390625 175.875 232.125 177.816406 C 227.855469 179.765625 224.253906 182.246094 226.738281 181.800781 " fill-opacity="1" fill-rule="nonzero"/><path fill="#ffffff" d="M 208.285156 192.296875 C 208.289062 192.296875 210.753906 191.792969 210.800781 191.039062 C 210.839844 190.28125 212.863281 189.28125 217.285156 186.367188 C 221.71875 183.464844 217.722656 184.679688 214.296875 186.234375 C 210.875 187.792969 208.792969 189.960938 205.816406 191.988281 C 202.847656 194.027344 205.976562 193.964844 208.285156 192.296875 " fill-opacity="1" fill-rule="nonzero"/><path fill="#ffffff" d="M 186.527344 207.722656 C 188.039062 208.152344 190.242188 205.9375 193.570312 205.808594 C 196.882812 205.671875 202.121094 201.238281 205.753906 198.488281 C 209.386719 195.742188 209.257812 196.710938 213.296875 195.640625 C 217.332031 194.578125 219.5625 191.511719 218.09375 191.890625 C 216.625 192.265625 213.941406 193.585938 215.023438 191.554688 C 216.109375 189.519531 212.027344 191.820312 207.945312 194.128906 C 203.871094 196.441406 207.3125 195.777344 205.207031 197.410156 C 205.203125 197.410156 201.386719 199.375 200.042969 198.824219 C 198.703125 198.273438 202.429688 196.910156 200.757812 196.125 C 199.070312 195.316406 190.847656 201.925781 188.078125 204.296875 C 185.296875 206.636719 179.347656 208.707031 180.3125 209.671875 C 181.273438 210.628906 185.007812 207.296875 186.527344 207.722656 " fill-opacity="1" fill-rule="nonzero"/><path fill="#ffffff" d="M 220.261719 198.445312 C 223.789062 197.714844 228.410156 191.960938 228.90625 190.378906 C 229.394531 188.796875 230.292969 188.527344 230.113281 188.148438 C 229.9375 187.769531 226.425781 190.335938 223.253906 191.457031 C 220.089844 192.585938 221.332031 193.453125 219.304688 195.21875 C 217.277344 196.992188 217.265625 196.109375 214.804688 197.429688 C 212.363281 198.765625 213.429688 199.238281 216.453125 198.183594 C 216.453125 198.1875 216.707031 199.175781 220.261719 198.445312 " fill-opacity="1" fill-rule="nonzero"/><path fill="#ffffff" d="M 250.160156 307.277344 C 246.804688 307.457031 246.632812 307.527344 239.886719 307.960938 C 233.128906 308.433594 234.957031 308.78125 230.050781 310.957031 C 225.160156 313.171875 226.207031 314.199219 222.019531 319.214844 C 217.867188 324.242188 225.019531 319.0625 228.035156 315.691406 C 228.035156 315.703125 229.964844 314.097656 236.703125 311.910156 C 243.433594 309.765625 238.578125 314.011719 244.226562 312.078125 C 249.875 310.175781 253.511719 307.121094 250.160156 307.277344 " fill-opacity="1" fill-rule="nonzero"/><path fill="#ffffff" d="M 269.390625 303.257812 C 274.554688 300.589844 273.628906 300.035156 269.15625 300.492188 C 264.679688 300.972656 263.039062 301.332031 256.621094 305.210938 C 250.230469 309.117188 257.871094 306.738281 255.71875 308.734375 C 253.582031 310.726562 252.625 310.210938 252.582031 311.84375 C 252.289062 312.019531 252.003906 312.191406 251.714844 312.363281 C 251.714844 312.363281 253.828125 312.054688 256.792969 309.921875 C 259.761719 307.800781 256.792969 309.921875 258.753906 310.652344 C 260.710938 311.394531 260.410156 310.355469 266.226562 309.015625 C 272.03125 307.695312 271.402344 306.453125 270.964844 304.640625 C 270.527344 302.84375 267.503906 305.753906 262.210938 306.847656 C 256.914062 307.960938 264.234375 305.929688 269.390625 303.257812 " fill-opacity="1" fill-rule="nonzero"/><path fill="#ffffff" d="M 108.742188 309.320312 C 106.503906 310.5 104.398438 312.75 103.539062 314.238281 C 103.539062 314.242188 104.375 316.296875 107.734375 317.195312 C 106.636719 316.082031 107.761719 310.8125 108.742188 309.320312 " fill-opacity="1" fill-rule="nonzero"/><path fill="#ffffff" d="M 40.875 353.898438 C 43.851562 351.347656 41.488281 351.660156 40.441406 351.683594 C 39.390625 351.707031 38.96875 353.191406 37.496094 355.65625 C 37.5 355.664062 37.894531 356.46875 40.875 353.898438 " fill-opacity="1" fill-rule="nonzero"/><path fill="#ffffff" d="M 42.785156 340.691406 C 42.429688 339.757812 39.714844 343.90625 38.980469 345.910156 C 38.976562 345.910156 40.234375 345.265625 41.628906 344.0625 C 43.023438 342.859375 43.136719 341.621094 42.785156 340.691406 " fill-opacity="1" fill-rule="nonzero"/><path fill="#ffffff" d="M 243.230469 172.007812 C 244.894531 171.710938 244.503906 171.222656 245.417969 170.167969 C 246.328125 169.113281 243.609375 170.734375 242.082031 171.617188 C 242.082031 171.617188 241.558594 172.316406 243.230469 172.007812 " fill-opacity="1" fill-rule="nonzero"/><path fill="#ffffff" d="M 245.917969 204.40625 C 247.359375 201.53125 240.917969 207.53125 237.8125 210.375 C 237.8125 210.378906 238.667969 210.222656 241.160156 209.667969 C 243.648438 209.113281 244.46875 207.277344 245.917969 204.40625 " fill-opacity="1" fill-rule="nonzero"/><path fill="#ffffff" d="M 243.480469 219.207031 C 242.667969 220.695312 237.039062 221.582031 239.96875 222.324219 C 241.859375 222.796875 244.699219 220.851562 247.125 218.238281 C 249.5625 215.621094 244.296875 217.703125 243.480469 219.207031 " fill-opacity="1" fill-rule="nonzero"/><path fill="#ffffff" d="M 247.664062 207.148438 C 247.664062 207.152344 249.25 206.390625 250.191406 206.007812 C 251.140625 205.625 251.707031 204.101562 251.8125 202.964844 C 251.917969 201.835938 249.046875 204.945312 247.664062 207.148438 " fill-opacity="1" fill-rule="nonzero"/><path fill="#ffffff" d="M 439.460938 158.390625 C 439.460938 158.390625 440.179688 158.867188 441.277344 158.117188 C 442.371094 157.359375 443.765625 156.726562 445.011719 156.332031 C 446.253906 155.941406 445.363281 155.53125 443.558594 155.953125 C 441.757812 156.382812 440.621094 157.460938 439.460938 158.390625 " fill-opacity="1" fill-rule="nonzero"/><path fill="#ffffff" d="M 459.308594 150.503906 C 460.414062 149.675781 459.738281 149.484375 458.691406 149.300781 C 457.632812 149.113281 456.738281 150.082031 456.882812 150.488281 C 456.882812 150.488281 458.195312 151.339844 459.308594 150.503906 " fill-opacity="1" fill-rule="nonzero"/><path fill="#ffffff" d="M 443.117188 149.320312 C 443.117188 149.324219 444.386719 148.816406 444.460938 148.160156 C 444.535156 147.507812 443.328125 148 442.402344 148.140625 C 441.484375 148.277344 441.589844 149.007812 443.117188 149.320312 " fill-opacity="1" fill-rule="nonzero"/><path fill="#ffffff" d="M 587.800781 127.300781 C 587.800781 127.300781 588.398438 128.289062 590.414062 128.765625 C 592.4375 129.242188 593.359375 128.207031 593.175781 127.597656 C 592.996094 126.980469 591.722656 126.539062 587.800781 127.300781 " fill-opacity="1" fill-rule="nonzero"/><path fill="#ffffff" d="M 595.550781 120.613281 C 591.261719 123.132812 592.65625 121.773438 593.445312 123.628906 C 593.445312 123.628906 596.597656 124.890625 601.464844 126.4375 C 606.324219 127.992188 608.769531 127.328125 602.273438 124.195312 C 595.746094 121.089844 605.449219 122.097656 610.304688 118.945312 C 615.175781 115.792969 617.152344 118.460938 625.890625 118.960938 C 634.628906 119.507812 628.652344 117.914062 626.253906 115.359375 C 623.859375 112.816406 623.324219 115.914062 618.679688 116.089844 C 614.042969 116.285156 610.085938 116.042969 601.015625 117.222656 C 591.957031 118.449219 599.855469 118.109375 595.550781 120.613281 " fill-opacity="1" fill-rule="nonzero"/><path fill="#ffffff" d="M 582.589844 108.234375 C 587.007812 108.320312 582.644531 107.003906 576.222656 107.078125 C 569.804688 107.171875 571.613281 105.773438 564.734375 106.761719 C 564.730469 106.761719 568.03125 107.488281 571.777344 107.839844 C 575.527344 108.191406 578.167969 108.164062 582.589844 108.234375 " fill-opacity="1" fill-rule="nonzero"/><g clip-path="url(#6472d0093a)"><path fill="#ffffff" d="M 589.863281 108.71875 C 594.257812 109.226562 593.183594 108.632812 599.34375 109.277344 C 605.503906 109.949219 607.230469 110.296875 610.480469 108.59375 C 613.71875 106.894531 606.480469 108.636719 600.398438 106.796875 C 594.296875 104.957031 597.171875 105.011719 591.714844 105.546875 C 591.71875 105.546875 591.707031 105.535156 587.75 106.789062 C 583.792969 108.058594 585.472656 108.234375 589.863281 108.71875 " fill-opacity="1" fill-rule="nonzero"/></g><path fill="#ffffff" d="M 674.03125 118.910156 C 678.726562 120.304688 678.726562 120.292969 685.832031 122.289062 C 692.917969 124.304688 692.316406 123.386719 691.1875 121.019531 C 690.046875 118.667969 688.539062 119.46875 682.761719 117.804688 C 676.964844 116.15625 677.867188 116.128906 673.140625 116.171875 C 673.140625 116.171875 669.328125 117.539062 674.03125 118.910156 " fill-opacity="1" fill-rule="nonzero"/><path fill="#ffffff" d="M 707.359375 125.902344 C 703.898438 124.0625 713.628906 126.238281 707.882812 123.421875 C 702.117188 120.617188 705.035156 122.949219 701.808594 123.234375 C 698.589844 123.519531 699.75 123.351562 696.148438 124.484375 C 696.148438 124.480469 701.058594 125.820312 704.515625 126.550781 C 707.96875 127.277344 710.816406 127.742188 707.359375 125.902344 " fill-opacity="1" fill-rule="nonzero"/><path fill="#ffffff" d="M 800.691406 158.628906 C 806.808594 159.910156 804.695312 160.550781 811.714844 162.601562 C 818.71875 164.703125 812.726562 161.796875 807.179688 159.535156 C 801.628906 157.296875 806.269531 159.453125 799.460938 156.796875 C 792.644531 154.1875 795.546875 154.550781 791.089844 153.929688 C 791.089844 153.929688 791.089844 153.929688 792.097656 155.785156 C 793.097656 157.648438 794.574219 157.382812 800.691406 158.628906 " fill-opacity="1" fill-rule="nonzero"/><path fill="#ffffff" d="M 818.425781 166.117188 C 819.960938 167.042969 826.574219 169.550781 826.960938 167.976562 C 827.34375 166.382812 821.382812 165.1875 817.230469 163.632812 C 817.234375 163.628906 816.886719 165.179688 818.425781 166.117188 " fill-opacity="1" fill-rule="nonzero"/><path fill="#ffffff" d="M 807.441406 163.992188 C 808.519531 165.542969 811.742188 166.320312 817.148438 167.597656 C 822.558594 168.894531 813.542969 164.644531 806.976562 162.039062 C 806.980469 162.039062 806.363281 162.445312 807.441406 163.992188 " fill-opacity="1" fill-rule="nonzero"/><path fill="#ffffff" d="M 230.015625 376.933594 C 230.019531 376.933594 230.121094 377.230469 231.234375 376.753906 C 232.34375 376.28125 231.609375 376.089844 230.996094 375.695312 C 230.386719 375.300781 229.996094 376.21875 230.015625 376.933594 " fill-opacity="1" fill-rule="nonzero"/><path fill="#ffffff" d="M 232.871094 371.953125 C 231.148438 372.445312 232.007812 373.109375 231.996094 374.207031 C 231.996094 374.207031 233.5 373.367188 234.269531 372.761719 C 235.039062 372.15625 234.601562 371.46875 232.871094 371.953125 " fill-opacity="1" fill-rule="nonzero"/><path fill="#ffffff" d="M 273.164062 266.601562 C 272.039062 266.128906 270.820312 268.609375 271.804688 268.34375 C 272.917969 268.042969 274.289062 267.070312 273.164062 266.601562 " fill-opacity="1" fill-rule="nonzero"/><path fill="#ffffff" d="M 385.507812 213.683594 C 386.402344 215.1875 389.550781 213.171875 389.71875 212.652344 C 389.773438 212.476562 384.230469 211.546875 385.507812 213.683594 " fill-opacity="1" fill-rule="nonzero"/><path fill="#ffffff" d="M 369.613281 214.546875 C 370.671875 214.628906 371.0625 214.285156 370.914062 214.0625 C 370.769531 213.835938 369.175781 214.515625 369.613281 214.546875 " fill-opacity="1" fill-rule="nonzero"/><path fill="#ffffff" d="M 273.847656 301.003906 C 273.847656 301.003906 274.78125 301.171875 276.148438 300.949219 C 277.503906 300.722656 277.890625 299.738281 276.882812 299.40625 C 275.875 299.078125 275.042969 299.949219 273.847656 301.003906 " fill-opacity="1" fill-rule="nonzero"/><path fill="#ffffff" d="M 888.421875 448.691406 C 886.09375 447.324219 884.796875 445.304688 883.359375 441.707031 C 881.902344 438.113281 883.394531 439.023438 881.113281 437.144531 C 881.117188 437.148438 880.832031 439.507812 880.425781 441.785156 C 880.011719 444.078125 882.816406 446.5 891.527344 453.347656 C 900.210938 460.269531 890.78125 450.039062 888.421875 448.691406 " fill-opacity="1" fill-rule="nonzero"/><path fill="#ffffff" d="M 913.089844 456.792969 C 913.089844 456.792969 912.265625 457.109375 912.699219 459.3125 C 913.132812 461.507812 916.105469 462.070312 917.925781 460.039062 C 919.746094 458.003906 917.25 458.503906 913.089844 456.792969 " fill-opacity="1" fill-rule="nonzero"/><path fill="#ffffff" d="M 923.238281 460.761719 C 923.230469 460.753906 918.53125 459.042969 919.375 462.75 C 920.214844 466.449219 924.777344 465.21875 926.417969 464.476562 C 928.050781 463.738281 926.828125 462.179688 923.238281 460.761719 " fill-opacity="1" fill-rule="nonzero"/><path fill="#ffffff" d="M 893.011719 415.066406 C 893.011719 415.0625 891.722656 414.222656 891.414062 415.332031 C 891.105469 416.441406 891.941406 417.183594 894.09375 417.355469 C 896.253906 417.523438 893.632812 415.410156 893.011719 415.066406 " fill-opacity="1" fill-rule="nonzero"/><path fill="#ffffff" d="M 870.9375 402.496094 C 871.808594 401.519531 869.40625 401.164062 867.910156 401.269531 C 867.910156 401.269531 867.90625 401.269531 868.335938 402.511719 C 868.753906 403.753906 870.058594 403.46875 870.9375 402.496094 " fill-opacity="1" fill-rule="nonzero"/><path fill="#ffffff" d="M 863.75 404.382812 C 863.75 404.382812 863.265625 403.835938 862.800781 404.414062 C 862.332031 404.992188 865.0625 405.824219 865.339844 405.070312 C 865.621094 404.304688 863.832031 404.160156 863.75 404.382812 " fill-opacity="1" fill-rule="nonzero"/><path fill="#ffffff" d="M 897.191406 438.699219 C 897.191406 438.699219 896.574219 438.757812 897.195312 439.566406 C 897.8125 440.371094 898.808594 438.488281 897.988281 437.726562 C 897.160156 436.964844 896.953125 438.472656 897.191406 438.699219 " fill-opacity="1" fill-rule="nonzero"/><path fill="#ffffff" d="M 897.25 442.59375 C 896.917969 441.652344 895.726562 442.476562 895.824219 442.75 C 895.820312 442.75 895.167969 442.445312 895.265625 443.296875 C 895.355469 444.144531 897.589844 443.53125 897.25 442.59375 " fill-opacity="1" fill-rule="nonzero"/><path fill="#ffffff" d="M 974.667969 304.675781 C 980.066406 307.90625 974.671875 304.671875 973.296875 303.148438 C 971.914062 301.625 972.382812 301.828125 969.410156 299.917969 C 969.410156 299.917969 969.414062 299.917969 968.8125 300.738281 C 968.203125 301.566406 969.265625 301.472656 974.667969 304.675781 " fill-opacity="1" fill-rule="nonzero"/><path fill="#ffffff" d="M 983.695312 309.851562 C 986.546875 311.132812 983.328125 308.984375 980.886719 307.683594 C 980.890625 307.6875 980.035156 306.960938 979.765625 307.824219 C 979.484375 308.6875 980.835938 308.574219 983.695312 309.851562 " fill-opacity="1" fill-rule="nonzero"/><path fill="#ffffff" d="M 946.929688 282.054688 C 947.597656 281.960938 946.871094 281.054688 944.136719 279.363281 C 944.078125 279.453125 944.015625 279.542969 943.957031 279.636719 C 943.40625 280.820312 946.261719 282.144531 946.929688 282.054688 " fill-opacity="1" fill-rule="nonzero"/><path fill="#ffffff" d="M 957.730469 262.753906 C 959.222656 264.285156 960.96875 265.054688 959.960938 263.109375 C 958.953125 261.171875 958.902344 262.214844 956.75 260.6875 C 954.695312 259.234375 955.707031 259.878906 954.148438 258.945312 C 954.074219 258.90625 954.007812 258.859375 953.925781 258.8125 C 954.074219 259.125 954.226562 259.4375 954.375 259.75 C 955.539062 260.582031 956.238281 261.226562 957.730469 262.753906 " fill-opacity="1" fill-rule="nonzero"/><path fill="#ffffff" d="M 440.652344 132.53125 C 440.410156 131.324219 445.523438 130.796875 444.257812 130.570312 C 442.992188 130.339844 442.925781 129.925781 439.65625 131.230469 C 439.652344 131.234375 439.660156 131.234375 440.652344 132.53125 " fill-opacity="1" fill-rule="nonzero"/><path fill="#ffffff" d="M 486.058594 110.90625 C 486.058594 110.902344 492.050781 112.871094 494.394531 114.507812 C 496.738281 116.132812 498.457031 115.28125 501.867188 115.148438 C 505.261719 115.023438 505.480469 113.546875 506.011719 111.722656 C 506.351562 110.550781 506.414062 110.535156 508.65625 110.53125 C 510.609375 111.355469 511.648438 113.324219 519.613281 113.507812 C 529.460938 113.800781 523.15625 112.171875 517.371094 111.808594 C 512.804688 111.535156 512.304688 111.070312 511.136719 110.515625 C 512.242188 110.5 513.027344 110.472656 514.839844 110.375 C 523.320312 109.9375 519.125 109.703125 525.039062 107.984375 C 530.960938 106.308594 523.09375 107.972656 515.792969 108.375 C 508.496094 108.792969 512.3125 107.480469 509.347656 108.03125 C 506.394531 108.601562 502.824219 109.007812 493.433594 109.511719 C 484.035156 110.058594 483.210938 110.914062 486.058594 110.90625 " fill-opacity="1" fill-rule="nonzero"/><path fill="#ffffff" d="M 539.429688 108.191406 C 542.445312 108.675781 541.117188 107.816406 540.664062 106.957031 C 540.210938 106.097656 538.308594 106.84375 536.191406 107.320312 C 536.195312 107.320312 536.421875 107.714844 539.429688 108.191406 " fill-opacity="1" fill-rule="nonzero"/><path fill="#ffffff" d="M 907.226562 214.773438 C 908.535156 215.902344 908.539062 215.199219 911.507812 216.835938 C 914.46875 218.480469 914.828125 218.417969 914.957031 217.617188 C 915.078125 216.808594 913.617188 216.832031 910.765625 214.765625 C 907.925781 212.710938 908.175781 213.109375 906.542969 212.980469 C 904.796875 212.847656 905.910156 213.652344 907.226562 214.773438 " fill-opacity="1" fill-rule="nonzero"/><path fill="#ffffff" d="M 923.019531 260.109375 C 923.011719 260.109375 923.277344 260.914062 924.222656 262.6875 C 925.167969 264.460938 925.378906 262.015625 923.019531 260.109375 " fill-opacity="1" fill-rule="nonzero"/><path fill="#ffffff" d="M 930.367188 267.050781 C 931.933594 267.851562 930.550781 266.039062 929.261719 264.871094 C 929.1875 264.808594 928.433594 264.460938 928.238281 265.214844 C 928.039062 265.976562 928.707031 266.203125 930.367188 267.050781 " fill-opacity="1" fill-rule="nonzero"/><path fill="#ffffff" d="M 284.261719 296.390625 C 284.257812 296.390625 284.636719 296.800781 285.472656 296.304688 C 286.308594 295.804688 285.089844 295.863281 284.261719 296.390625 " fill-opacity="1" fill-rule="nonzero"/><path fill="#ffffff" d="M 287.140625 296.488281 C 287.140625 296.488281 287.503906 296.902344 288.34375 296.40625 C 289.183594 295.914062 287.96875 295.964844 287.140625 296.488281 " fill-opacity="1" fill-rule="nonzero"/><path fill="#ffffff" d="M 289.183594 297.363281 C 289.183594 297.367188 289.546875 297.78125 290.386719 297.289062 C 291.226562 296.796875 290.007812 296.851562 289.183594 297.363281 " fill-opacity="1" fill-rule="nonzero"/><path fill="#ffffff" d="M 292.488281 298.523438 C 293.394531 298.15625 292.277344 297.992188 291.378906 298.398438 C 291.378906 298.398438 291.585938 298.894531 292.488281 298.523438 " fill-opacity="1" fill-rule="nonzero"/><path fill="#ffffff" d="M 397.433594 264.683594 C 397.433594 264.679688 397.546875 265.210938 398.488281 265.015625 C 399.425781 264.8125 398.375 264.457031 397.433594 264.683594 " fill-opacity="1" fill-rule="nonzero"/><path fill="#ffffff" d="M 393.019531 261.34375 C 393.019531 261.34375 393.757812 261.457031 394.160156 260.816406 C 394.5625 260.171875 393.378906 260.6875 393.019531 261.34375 " fill-opacity="1" fill-rule="nonzero"/><path fill="#ffffff" d="M 398.515625 261.101562 C 398.515625 261.101562 398.703125 261.757812 399.621094 261.476562 C 400.542969 261.199219 399.433594 260.792969 398.515625 261.101562 " fill-opacity="1" fill-rule="nonzero"/><path fill="#ffffff" d="M 412.3125 230.25 C 412.316406 230.25 412.941406 230.214844 413.808594 230.273438 C 414.671875 230.339844 415.691406 229.636719 415 228.886719 C 414.300781 228.132812 412.945312 229.59375 412.3125 230.25 " fill-opacity="1" fill-rule="nonzero"/><path fill="#ffffff" d="M 945.667969 472.746094 C 945.667969 472.746094 944.527344 473.035156 944.96875 475.398438 C 945.402344 477.761719 945.941406 474.429688 945.667969 472.746094 " fill-opacity="1" fill-rule="nonzero"/><path fill="#ffffff" d="M 151.652344 248.921875 C 154.238281 247.277344 150.996094 248.339844 156.324219 244.378906 C 161.65625 240.429688 163.898438 237.285156 163.953125 239.65625 C 164.023438 242.03125 160.675781 245.132812 157.152344 247.046875 C 153.640625 248.957031 153.578125 249.308594 151.734375 251.257812 C 149.90625 253.195312 149.171875 252.910156 149.164062 252.914062 C 148.464844 250.96875 149.074219 250.578125 151.652344 248.921875 Z M 165.300781 252.132812 C 161.152344 255.175781 162.871094 254.84375 159.316406 257.476562 C 155.765625 260.125 155.96875 256.980469 155.964844 256.976562 C 158.882812 254.632812 161.257812 254.898438 162.492188 252.484375 C 163.742188 250.070312 164.617188 248.386719 167.167969 248.523438 C 169.710938 248.667969 169.445312 249.117188 165.300781 252.132812 Z M 190.972656 254.882812 C 193.183594 253.601562 194.554688 254.15625 194.144531 255.722656 C 193.757812 257.285156 195.25 258.792969 193.203125 258.71875 C 191.152344 258.652344 191.152344 258.65625 191.152344 258.65625 C 189.464844 257.550781 188.761719 256.167969 190.972656 254.882812 Z M 209.800781 271.097656 C 209.171875 268.671875 214.140625 262.609375 216.492188 260.898438 C 218.824219 259.195312 219.179688 259.882812 217.230469 262.257812 C 215.269531 264.648438 214.683594 266.746094 214.203125 269.957031 C 213.742188 273.160156 210.671875 274.445312 209.800781 271.097656 Z M 205.15625 262.828125 C 209.753906 257.828125 209.535156 260.183594 211.242188 257.3125 C 212.96875 254.457031 214.863281 251.378906 217.527344 252.582031 C 220.195312 253.777344 226.226562 252.917969 220.574219 255.917969 C 214.925781 258.949219 215.257812 258.636719 212.988281 260.03125 C 210.726562 261.421875 209.792969 260.195312 207.613281 262.21875 C 205.445312 264.234375 205.15625 262.828125 205.15625 262.828125 Z M 231.21875 252.988281 C 231.289062 255.519531 228.0625 257.199219 227.597656 258.757812 C 227.125 260.304688 225.105469 261.015625 224.019531 260.066406 C 222.019531 258.28125 218.015625 259.546875 222.640625 257.472656 C 227.28125 255.414062 231.152344 250.449219 231.21875 252.988281 Z M 243.914062 251.425781 C 239.480469 254.25 240.960938 250.871094 237.28125 255.699219 C 233.605469 260.519531 226.835938 266.988281 225.011719 267.121094 C 223.152344 267.242188 224.101562 265.421875 224.101562 265.421875 C 228.28125 262.039062 228.140625 262.242188 231.59375 259.433594 C 235.054688 256.636719 229.128906 258.953125 235.15625 254.417969 C 241.21875 249.886719 248.375 248.617188 243.914062 251.425781 Z M 368.402344 315.359375 C 363.992188 312.675781 351.886719 321.066406 352.425781 318.804688 C 352.933594 316.53125 345.9375 316.996094 338.480469 318.507812 C 331.011719 320.039062 333.839844 318.429688 331.574219 316.101562 C 329.316406 313.789062 326.84375 311.921875 319.875 311.808594 C 312.886719 311.726562 314.851562 316.863281 309.902344 315.046875 C 304.945312 313.238281 297.277344 313.386719 294.546875 311.910156 C 291.808594 310.410156 286.414062 314.839844 284.652344 314.167969 C 282.863281 313.492188 277.183594 319.839844 275.917969 318.539062 C 274.648438 317.222656 271.535156 319.875 268.179688 321.589844 C 264.824219 323.3125 268.222656 320.027344 267.441406 319.316406 C 266.648438 318.601562 264.585938 321.613281 262.535156 323.804688 C 260.480469 325.992188 255.929688 328.296875 256.847656 330.777344 C 257.71875 333.175781 254.167969 336.9375 253.945312 337.175781 C 253.925781 336.941406 253.523438 332.734375 246.253906 338.070312 C 239.960938 345.964844 235.464844 341.621094 234.429688 339.902344 C 233.410156 338.195312 232.445312 332.40625 230.613281 330.425781 C 228.742188 328.410156 218.789062 338.140625 218.0625 336.589844 C 217.289062 335.011719 217.769531 323.78125 217.796875 323.777344 C 217.796875 323.769531 212.492188 326.839844 209.054688 330.636719 C 209.910156 334.226562 208.296875 336.808594 201.421875 342.054688 C 194.597656 347.308594 188.234375 339.367188 187.753906 336.519531 C 187.289062 333.6875 186.964844 330.308594 186.125 327.578125 C 185.28125 324.847656 188.84375 324.722656 190 322.035156 C 191.160156 319.347656 190.984375 319.457031 194.144531 316.09375 C 197.328125 312.746094 195.285156 315.214844 199.632812 313.355469 C 203.996094 311.511719 205.195312 311.941406 208.050781 309.621094 C 210.917969 307.304688 205.539062 309.394531 207.417969 306.222656 C 209.308594 303.027344 216.816406 301.34375 217.707031 301.699219 C 218.613281 302.039062 218.777344 301.515625 219.6875 299.84375 C 220.59375 298.171875 222.824219 299.609375 225.207031 300.546875 C 224.410156 304.4375 230.058594 306.648438 233.277344 304.707031 C 236.519531 302.765625 229.320312 294.671875 227.640625 293.753906 C 227.5 292.273438 229.472656 287.457031 234.078125 282.171875 C 238.679688 276.902344 239.5625 276.332031 242.535156 273.53125 C 245.53125 270.75 243.5 270.53125 242.882812 267.496094 C 242.277344 264.464844 242.453125 264.355469 245.300781 260.292969 C 248.167969 256.238281 249.785156 258.089844 250.789062 256.355469 C 251.804688 254.632812 252.113281 254.3125 258.28125 251.273438 C 264.457031 248.261719 261.855469 249.074219 259.757812 246.015625 C 257.652344 242.964844 261.953125 243.804688 264.0625 240.804688 C 266.171875 237.816406 267.613281 236.894531 272.683594 234.824219 C 277.753906 232.757812 270.128906 236.867188 269.84375 239.859375 C 269.5625 242.839844 272.792969 239.785156 273.679688 238.179688 C 274.585938 236.570312 274.304688 236.960938 277.136719 235.605469 C 279.984375 234.269531 282.730469 234.308594 287.035156 231.46875 C 291.363281 228.628906 283.75 232.402344 280.851562 232.015625 C 277.9375 231.605469 285.347656 229.019531 285.351562 229.035156 C 288.910156 227.441406 289.914062 227.046875 290.164062 224.753906 C 290.414062 222.472656 288.496094 222.929688 286.707031 224.890625 C 284.921875 226.855469 283.269531 227.949219 282.171875 227.574219 C 281.070312 227.195312 279.617188 228.214844 275.320312 229.203125 C 271.011719 230.21875 275.265625 227.417969 276.625 226.160156 C 277.980469 224.890625 277.800781 223.304688 276.085938 223.191406 C 274.371094 223.058594 267.519531 228.234375 265.683594 229.480469 C 263.828125 230.714844 269.019531 226.191406 271 224.660156 C 272.96875 223.121094 274.234375 221.605469 277.109375 221.097656 C 279.996094 220.585938 283.664062 220.878906 285.703125 219.507812 C 287.746094 218.125 281.363281 219.886719 280.925781 218.824219 C 280.492188 217.757812 287.90625 216.777344 294.328125 212.117188 C 300.789062 207.460938 296.378906 211.332031 296.652344 212.042969 C 296.902344 212.75 290.105469 221.164062 290.132812 221.175781 C 290.132812 221.183594 291.398438 220.796875 296.410156 218.71875 C 301.449219 216.644531 298.757812 217.542969 300.25 217.796875 C 301.738281 218.039062 298.515625 219.953125 300.414062 220.058594 C 302.308594 220.160156 301.492188 219.230469 302.914062 217.472656 C 304.339844 215.707031 303.953125 216.535156 305.28125 216.988281 C 306.613281 217.457031 305.4375 218.019531 309.125 216.796875 C 312.832031 215.585938 309.195312 211.878906 307.210938 210.289062 C 305.222656 208.691406 302.992188 212.101562 299.429688 213.179688 C 295.84375 214.257812 303.476562 208.367188 303 207.070312 C 302.503906 205.75 304.972656 202.253906 304.976562 202.257812 C 302.414062 202.960938 299.855469 203.683594 297.292969 204.421875 C 298.585938 203.25 299.886719 202.082031 301.195312 200.917969 C 301.195312 200.871094 287.503906 204.308594 290.789062 200.46875 C 294.101562 196.597656 286.765625 193.109375 286.746094 193.121094 C 286.679688 193.09375 274.714844 206.800781 272.644531 201.632812 C 275.015625 196.109375 271.496094 198.234375 269.609375 196.667969 C 267.726562 195.089844 262.113281 198.808594 256.539062 201.40625 C 250.941406 204.019531 252.925781 208.433594 252.25 209.703125 C 251.597656 210.980469 248.042969 213.015625 248.042969 213.015625 C 248.042969 213.015625 248.050781 213.011719 251.414062 213.875 C 254.738281 214.734375 244.125 223.363281 241.003906 225.613281 C 237.855469 227.824219 241.285156 230.300781 241.144531 232.070312 C 241.003906 233.832031 238.777344 232.789062 237.617188 235.484375 C 236.46875 238.183594 234.800781 237.296875 233.578125 235.339844 C 232.347656 233.375 234.238281 228.59375 234.246094 228.59375 C 234.246094 228.597656 235.515625 227.105469 230.421875 229.476562 C 225.339844 231.875 225.765625 231.242188 223.6875 231.582031 C 221.589844 231.933594 218.542969 232.910156 213.601562 234.210938 C 208.652344 235.527344 212.363281 235.730469 209.496094 235.660156 C 206.636719 235.589844 211.023438 232.238281 208.554688 231.960938 C 206.085938 231.691406 207.59375 229.699219 211.082031 224.992188 C 214.578125 220.289062 217.0625 220.574219 223.289062 215.613281 C 229.554688 210.667969 226.890625 211.988281 230.589844 209.617188 C 234.296875 207.273438 232.4375 208.171875 233.4375 205.992188 C 234.136719 204.480469 233.160156 205.136719 232.988281 205.246094 C 233.03125 205.199219 233.179688 205.082031 233.417969 204.875 C 234.871094 203.628906 233.421875 204.875 235.300781 203.988281 C 237.179688 203.109375 236.175781 203.152344 238.617188 201.273438 C 241.066406 199.410156 238.613281 201.273438 236.828125 204.535156 C 235.058594 207.808594 235.898438 205.820312 234.992188 207.660156 C 234.089844 209.507812 236.835938 208.34375 239.484375 206.964844 C 242.136719 205.59375 241.765625 205.34375 242.742188 203.628906 C 243.730469 201.914062 245.257812 203.035156 249.269531 201.378906 C 253.304688 199.722656 249.273438 201.378906 249.011719 200.230469 C 248.746094 199.085938 244.730469 200.75 242.464844 200.25 C 240.207031 199.734375 244.5625 199.285156 245.757812 198.015625 C 246.945312 196.75 247.21875 197.359375 249.117188 196.511719 C 251.011719 195.671875 252.277344 195.117188 252.515625 193.933594 C 252.757812 192.746094 253.320312 192.882812 255.09375 190.585938 C 256.875 188.285156 256.546875 189.269531 255.460938 187.917969 C 254.382812 186.578125 255.214844 186.769531 257.648438 184.757812 C 260.078125 182.769531 262.140625 182.871094 263.574219 182.695312 C 265.003906 182.519531 262.367188 184.023438 263.8125 185.089844 C 265.253906 186.148438 265.019531 181.960938 265.742188 181.25 C 266.457031 180.546875 267.847656 181.492188 268.1875 182.320312 C 268.519531 183.15625 266.386719 185.265625 265.007812 187.363281 C 263.636719 189.460938 268.585938 186.984375 270.296875 185.054688 C 271.996094 183.117188 274.054688 182.023438 276.003906 181.292969 C 277.925781 180.5625 276.242188 182.535156 274.386719 184.101562 C 272.527344 185.660156 269.378906 187.085938 269.863281 188.269531 C 270.339844 189.421875 260.300781 192.777344 258.839844 195.785156 C 257.386719 198.785156 262.195312 194.898438 265.160156 193.109375 C 268.140625 191.316406 269.445312 191.476562 270.128906 193.128906 C 270.804688 194.792969 273.023438 192.355469 277.609375 192.171875 C 282.1875 192.003906 283.890625 192.039062 285.261719 190.539062 C 286.644531 189.042969 279.347656 190.371094 281.671875 188.230469 C 284.027344 186.078125 287.164062 187.878906 291.105469 185.4375 C 295.0625 183.003906 287.542969 183.082031 286.605469 181.953125 C 285.675781 180.8125 283.28125 179.628906 293.007812 180.097656 C 302.675781 180.636719 300.75 172.535156 295.8125 174.4375 C 290.898438 176.359375 286.578125 175.394531 290.515625 172.695312 C 294.457031 170.023438 289.320312 168.085938 284.523438 170.574219 C 279.738281 173.0625 276.628906 172.085938 273.039062 171.292969 C 269.445312 170.476562 260.289062 177.234375 256.238281 177.863281 C 252.167969 178.464844 247.746094 182.46875 244.582031 184.574219 C 241.410156 186.683594 242.265625 186.863281 241.199219 189.027344 C 240.128906 191.195312 245.328125 189.125 247.460938 188.761719 C 249.582031 188.375 248.285156 189.496094 245.832031 192.550781 C 243.398438 195.601562 242.191406 194.050781 241.347656 196.679688 C 240.515625 199.316406 240.507812 197.625 238.351562 197.386719 C 236.195312 197.148438 240.707031 195.835938 236.800781 196.792969 C 232.886719 197.761719 236.363281 194.742188 234.183594 193.929688 C 231.996094 193.109375 236.347656 190.246094 236.832031 189.042969 C 237.3125 187.839844 241.371094 185.433594 244.433594 183.660156 C 247.5 181.890625 244.894531 181.777344 243.65625 181.90625 C 242.425781 182.03125 239.886719 183.292969 235.824219 186.269531 C 231.757812 189.261719 232.246094 190.3125 230.234375 192.667969 C 228.234375 195.015625 224.660156 197.292969 224.128906 199.960938 C 223.613281 202.632812 225.675781 200.488281 225.246094 202.261719 C 224.804688 204.039062 222.859375 204.273438 220.867188 204.972656 C 218.867188 205.667969 223.269531 201.933594 221.890625 201.761719 C 220.507812 201.585938 217.847656 202.035156 215.023438 204.730469 C 212.214844 207.429688 218.421875 206.316406 216.113281 206.902344 C 213.820312 207.488281 214.785156 207.414062 210.46875 210.949219 C 206.144531 214.476562 198.3125 215.675781 195.445312 215.777344 C 192.5625 215.875 198.941406 213.878906 203.410156 212.84375 C 207.882812 211.804688 206.136719 208.960938 209.976562 207.710938 C 213.796875 206.484375 213.359375 204.566406 209.285156 206.351562 C 205.195312 208.15625 207.183594 204.546875 209.273438 202.191406 C 211.359375 199.84375 213.515625 198.050781 210.578125 198.519531 C 207.632812 198.980469 202.011719 206.632812 201.433594 205.511719 C 200.84375 204.371094 197.1875 206.574219 195.464844 208.367188 C 193.742188 210.152344 188.765625 210.375 185.664062 210.625 C 182.542969 210.871094 177.566406 214.6875 174.699219 215.894531 C 171.824219 217.09375 168.183594 220.835938 166.253906 223.171875 C 164.320312 225.511719 162.078125 226.84375 159.148438 229.820312 C 156.234375 232.800781 161.042969 229.714844 162.046875 230.007812 C 163.050781 230.300781 164.863281 229.660156 165.738281 229.285156 C 166.609375 228.902344 169.21875 225.871094 170.269531 224.371094 C 171.3125 222.871094 174.773438 221.746094 174.734375 223.105469 C 174.695312 224.457031 173.082031 224.503906 171.964844 226.339844 C 170.851562 228.175781 174.769531 226.464844 177.617188 225.277344 C 180.464844 224.082031 179.835938 224.890625 180.609375 225.769531 C 181.382812 226.652344 183.289062 224.824219 185.4375 222.890625 C 187.578125 220.953125 189.082031 220.273438 190.867188 220.605469 C 192.648438 220.933594 189.675781 226.1875 188.921875 225.777344 C 188.15625 225.363281 188.339844 221.847656 184.835938 224.695312 C 181.34375 227.535156 177.03125 229.898438 176.859375 228.667969 C 176.691406 227.4375 176.578125 226.308594 174.195312 228.292969 C 171.808594 230.289062 176.863281 228.640625 168.660156 230.957031 C 160.46875 233.320312 159.105469 236.59375 159.113281 236.582031 C 158.78125 236.039062 158.449219 235.496094 158.113281 234.949219 C 158.113281 234.953125 156.894531 237.035156 153.824219 239.714844 C 150.765625 242.386719 153.878906 237.574219 151.335938 238.867188 C 148.804688 240.164062 151.417969 241.21875 148.285156 242.003906 C 145.136719 242.808594 142.90625 246.371094 140.160156 249.097656 C 137.425781 251.832031 135.925781 249.582031 130.699219 255.425781 C 125.5 261.3125 126.632812 259.144531 120.800781 261.1875 C 114.921875 263.171875 99.164062 275.753906 95.292969 277.042969 C 91.375 278.273438 92.296875 281.445312 90.042969 281.261719 C 87.765625 281.082031 81.761719 285.992188 81.769531 286 C 81.769531 286 86.992188 285.582031 81.511719 289.160156 C 75.980469 292.710938 66.292969 305.683594 63.878906 307.65625 C 61.421875 309.609375 59.976562 312.40625 60.960938 312.054688 C 61.949219 311.707031 63.355469 311.492188 63.121094 313.058594 C 62.875 314.621094 66.535156 311.109375 67.359375 311.707031 C 68.1875 312.304688 65.414062 314.949219 61.800781 315.910156 C 58.167969 316.859375 52.179688 325.113281 50.882812 326.332031 C 49.566406 327.539062 50.585938 328.734375 51.984375 329.347656 C 53.390625 329.96875 55.777344 326.921875 56.085938 325.101562 C 56.382812 323.277344 61.1875 320.347656 63.253906 318.707031 C 65.328125 317.0625 62.292969 321.253906 61.230469 323.300781 C 60.160156 325.34375 59.132812 325.96875 57.003906 327.199219 C 54.875 328.4375 57.324219 328.980469 53.527344 331.582031 C 49.71875 334.195312 46.207031 341.007812 44.332031 344.945312 C 44.335938 344.945312 44.324219 344.945312 43.359375 349.679688 C 42.402344 354.410156 46.621094 347.023438 48.484375 345.613281 C 50.34375 344.191406 48.496094 346.976562 47.351562 350.144531 C 46.214844 353.304688 51.703125 346.296875 54.996094 343.738281 C 58.277344 341.1875 54.148438 346.214844 51.84375 350.824219 C 49.515625 355.386719 40.515625 366.597656 42.945312 365.433594 C 45.21875 364.1875 58.761719 341.761719 59.808594 343.171875 C 60.71875 344.515625 63.515625 338.382812 67.035156 334.050781 C 70.566406 329.730469 65.441406 332.628906 68.925781 327.875 C 72.417969 323.140625 72.839844 323.617188 75.675781 321.976562 C 78.507812 320.347656 79.945312 316.027344 81.699219 313.105469 C 83.453125 310.175781 84.421875 310.996094 84.199219 312.144531 C 83.976562 313.316406 83.921875 313.953125 90.859375 307.628906 C 97.847656 301.324219 103.734375 302.601562 104.390625 306.351562 C 105.054688 310.105469 106.078125 309.597656 109.5625 306.40625 C 113.066406 303.214844 111.90625 306.144531 110.136719 310.058594 C 108.382812 313.949219 117.460938 311.117188 113.179688 314.304688 C 108.914062 317.511719 113.191406 316.820312 117.488281 318.039062 C 121.78125 319.265625 119.113281 327.617188 115.859375 333.9375 C 112.585938 340.273438 116.621094 346.15625 119.777344 349.992188 C 122.945312 353.8125 130.402344 351.625 133.347656 350.980469 C 136.296875 350.3125 135.03125 354.09375 136.890625 357.070312 C 141.746094 356.835938 143.957031 356.679688 140.574219 359.371094 C 137.199219 362.070312 144.28125 360.375 146.652344 359.78125 C 149.027344 359.179688 148.703125 359.753906 150.011719 361.417969 C 151.308594 363.078125 153.871094 360.769531 155.40625 362.097656 C 156.941406 363.425781 157.953125 360.128906 156.773438 357.90625 C 155.59375 355.671875 148.664062 355.675781 146.023438 353.648438 C 143.390625 351.597656 140.433594 351.863281 139.511719 350.695312 C 138.589844 349.527344 140.722656 347.847656 143.648438 348.5625 C 146.570312 349.285156 150.800781 353.085938 154.671875 352.945312 C 158.570312 352.761719 168.992188 353.703125 169.441406 357.710938 C 169.914062 361.691406 176.40625 360.125 179.355469 358.171875 C 182.308594 356.171875 189.222656 355.222656 192.863281 354.53125 C 196.496094 353.855469 196.808594 351.6875 201.726562 348.527344 C 206.648438 345.394531 207.039062 350.234375 213.945312 346.378906 C 220.878906 342.535156 228.703125 342.90625 229.296875 345.738281 C 229.914062 348.527344 242.503906 343.894531 245.269531 344.652344 C 248.042969 345.355469 246.382812 341.714844 248.386719 339.152344 C 250.394531 336.59375 250.816406 339.640625 252.375 339.761719 C 253.929688 339.886719 255.691406 341.902344 257.054688 345.128906 C 258.433594 348.355469 260.875 347.53125 256.71875 354.292969 C 252.609375 361.074219 255.683594 363.054688 257.070312 362.964844 C 258.480469 362.878906 260.117188 363.945312 257.101562 364.816406 C 254.074219 365.707031 259.269531 371.03125 263.0625 370.5625 C 266.582031 378.5 289.636719 381.722656 297.480469 380.765625 C 305.445312 379.644531 307.59375 387.929688 310.917969 392.371094 C 314.203125 396.839844 313.863281 403.683594 317.886719 406.402344 C 321.886719 409.144531 323.664062 417.691406 325.964844 418.496094 C 328.242188 419.316406 329.65625 422.917969 330.453125 424.1875 C 331.246094 425.464844 333.339844 427.347656 334.65625 427.957031 C 335.964844 428.558594 334.042969 425.355469 333.964844 423.871094 C 333.890625 422.390625 335.273438 424.765625 336.5 426.660156 C 337.730469 428.546875 336.792969 428.304688 336.4375 429.988281 C 336.097656 431.679688 337.152344 433.511719 339.195312 435.707031 C 339.40625 435.917969 339.625 436.125 339.835938 436.328125 C 339.8125 436.339844 340.3125 444.324219 347.378906 449.542969 C 349.980469 453.574219 355.441406 453.777344 362.167969 453.785156 C 383.023438 454.019531 381.078125 449.992188 381.121094 449.871094 C 381.121094 449.871094 379.988281 448.496094 378.34375 448.066406 C 374.8125 447.160156 371.902344 448.230469 368.992188 443.515625 C 366.5 439.449219 361.308594 438.441406 361.417969 436.457031 C 361.765625 431.128906 355.816406 427.695312 355.796875 427.707031 C 355.746094 427.640625 355.703125 427.578125 355.652344 427.515625 C 353.371094 425.574219 352.882812 426.660156 351.863281 425.066406 C 350.824219 423.488281 353.722656 418.558594 351.511719 417.214844 C 349.296875 415.878906 345.460938 416.203125 349.640625 415.1875 C 353.816406 414.1875 351.796875 411.003906 351.609375 408.644531 C 355.519531 406.15625 360.023438 403.003906 358.246094 399.839844 C 356.472656 396.648438 349.417969 398.746094 354.886719 396.902344 C 360.328125 395.082031 362.929688 390.226562 364.484375 388.5625 C 366 386.917969 364.324219 374.285156 363.558594 372.175781 C 362.773438 370.078125 366.792969 365.539062 371.957031 362.558594 C 377.132812 359.59375 377.410156 360.4375 377.277344 357.46875 C 377.128906 354.492188 379.039062 347.59375 377.386719 343.550781 C 375.730469 339.519531 374.105469 339.511719 377.480469 334.511719 C 380.871094 329.527344 380.652344 322.324219 381.058594 319.472656 C 381.460938 316.601562 372.78125 317.96875 368.402344 315.359375 " fill-opacity="1" fill-rule="nonzero"/><path fill="#ffffff" d="M 389.21875 409.273438 C 389.382812 409.648438 389.191406 410.109375 388.8125 410.394531 C 388.859375 410.515625 388.898438 410.636719 388.941406 410.757812 C 389.269531 411.710938 392.714844 410.707031 392.335938 409.59375 C 392.019531 408.636719 390.496094 408.414062 389.21875 409.273438 " fill-opacity="1" fill-rule="nonzero"/></svg>