<svg xmlns="http://www.w3.org/2000/svg" xmlns:xlink="http://www.w3.org/1999/xlink" width="1366" zoomAndPan="magnify" viewBox="0 0 1024.5 587.999999" height="784" preserveAspectRatio="xMidYMid meet" version="1.0"><defs><clipPath id="4e0b844ab5"><path d="M 373 303.191406 L 401 303.191406 L 401 357.164062 L 373 357.164062 Z M 373 303.191406 " clip-rule="nonzero"/></clipPath><clipPath id="e9237e4e4c"><path d="M 337 182.5625 L 346.785156 182.5625 L 346.785156 192 L 337 192 Z M 337 182.5625 " clip-rule="nonzero"/></clipPath><clipPath id="8197b5eec0"><path d="M 311 182.5625 L 346.785156 182.5625 L 346.785156 229.789062 L 311 229.789062 Z M 311 182.5625 " clip-rule="nonzero"/></clipPath><clipPath id="f2a5b770e8"><path d="M 338 191 L 346.785156 191 L 346.785156 194 L 338 194 Z M 338 191 " clip-rule="nonzero"/></clipPath><clipPath id="1aba5d431c"><path d="M 305.558594 184 L 334 184 L 334 198 L 305.558594 198 Z M 305.558594 184 " clip-rule="nonzero"/></clipPath><clipPath id="7d3eefa297"><path d="M 642.011719 304.566406 L 689.988281 304.566406 L 689.988281 358.542969 L 642.011719 358.542969 Z M 642.011719 304.566406 " clip-rule="nonzero"/></clipPath><clipPath id="411687b485"><path d="M 446.015625 192.152344 L 490.246094 192.152344 L 490.246094 236.378906 L 446.015625 236.378906 Z M 446.015625 192.152344 " clip-rule="nonzero"/></clipPath><clipPath id="176c08a396"><path d="M 446.015625 192.152344 L 490.246094 192.152344 L 490.246094 204 L 446.015625 204 Z M 446.015625 192.152344 " clip-rule="nonzero"/></clipPath><clipPath id="a4cdbf472d"><path d="M 446.015625 192.152344 L 469 192.152344 L 469 236.378906 L 446.015625 236.378906 Z M 446.015625 192.152344 " clip-rule="nonzero"/></clipPath><clipPath id="07f4603ad9"><path d="M 446.015625 192.152344 L 469 192.152344 L 469 204 L 446.015625 204 Z M 446.015625 192.152344 " clip-rule="nonzero"/></clipPath><clipPath id="18273249bc"><path d="M 791.964844 305.691406 L 848.9375 305.691406 L 848.9375 355.917969 L 791.964844 355.917969 Z M 791.964844 305.691406 " clip-rule="nonzero"/></clipPath><clipPath id="db7e2fb6c8"><path d="M 791.964844 305.691406 L 848.9375 305.691406 L 848.9375 318 L 791.964844 318 Z M 791.964844 305.691406 " clip-rule="nonzero"/></clipPath><clipPath id="3abe412151"><path d="M 216.847656 305.691406 L 269.324219 305.691406 L 269.324219 358.164062 L 216.847656 358.164062 Z M 216.847656 305.691406 " clip-rule="nonzero"/></clipPath><clipPath id="08dc8114f1"><path d="M 179 198 L 217 198 L 217 236.644531 L 179 236.644531 Z M 179 198 " clip-rule="nonzero"/></clipPath><clipPath id="f2937b994a"><path d="M 166.234375 185.667969 L 204 185.667969 L 204 224 L 166.234375 224 Z M 166.234375 185.667969 " clip-rule="nonzero"/></clipPath><clipPath id="161dd5ca0d"><path d="M 741.4375 188.953125 L 791.664062 188.953125 L 791.664062 239.179688 L 741.4375 239.179688 Z M 741.4375 188.953125 " clip-rule="nonzero"/></clipPath><clipPath id="0b1362f95b"><path d="M 589.097656 191 L 608 191 L 608 222 L 589.097656 222 Z M 589.097656 191 " clip-rule="nonzero"/></clipPath><clipPath id="cbfc3bc58e"><path d="M 610 185.113281 L 629 185.113281 L 629 227.089844 L 610 227.089844 Z M 610 185.113281 " clip-rule="nonzero"/></clipPath><clipPath id="718911dfa2"><path d="M 506.539062 304.566406 L 554.515625 304.566406 L 554.515625 357.042969 L 506.539062 357.042969 Z M 506.539062 304.566406 " clip-rule="nonzero"/></clipPath><clipPath id="69021edba5"><path d="M 849.199219 190 L 906.921875 190 L 906.921875 242 L 849.199219 242 Z M 849.199219 190 " clip-rule="nonzero"/></clipPath></defs><path fill="#4e7896" d="M 382.832031 331.8125 C 382.832031 331.8125 381.402344 332.679688 383.824219 332.925781 C 386.742188 333.296875 388.296875 333.234375 391.523438 332.617188 C 391.523438 332.617188 392.394531 333.171875 393.574219 333.605469 C 386.308594 336.695312 377.117188 333.421875 382.832031 331.8125 Z M 381.898438 327.792969 C 381.898438 327.792969 380.347656 328.96875 382.769531 329.214844 C 385.9375 329.527344 388.417969 329.585938 392.703125 328.722656 C 392.703125 328.722656 393.261719 329.339844 394.195312 329.648438 C 385.4375 332.246094 375.628906 329.898438 381.898438 327.792969 Z M 399.039062 334.839844 C 399.039062 334.839844 400.09375 335.707031 397.859375 336.386719 C 393.699219 337.625 380.410156 337.996094 376.683594 336.386719 C 375.378906 335.832031 377.863281 335.027344 378.671875 334.902344 C 379.476562 334.71875 379.914062 334.71875 379.914062 334.71875 C 378.484375 333.730469 370.414062 336.757812 375.816406 337.625 C 390.65625 340.035156 402.886719 336.574219 399.039062 334.839844 Z M 383.515625 323.589844 C 383.515625 323.589844 376.746094 325.199219 381.09375 325.753906 C 382.957031 326 386.621094 325.941406 390.035156 325.691406 C 392.828125 325.445312 395.621094 324.949219 395.621094 324.949219 C 395.621094 324.949219 394.628906 325.382812 393.945312 325.816406 C 387.054688 327.609375 373.828125 326.804688 377.617188 324.949219 C 380.84375 323.40625 383.515625 323.589844 383.515625 323.589844 Z M 395.621094 330.328125 C 402.578125 326.742188 399.347656 323.28125 397.113281 323.714844 C 396.554688 323.835938 396.304688 323.960938 396.304688 323.960938 C 396.304688 323.960938 396.492188 323.589844 396.925781 323.464844 C 401.335938 321.921875 404.8125 328.101562 395.5 330.515625 C 395.5 330.515625 395.5625 330.453125 395.621094 330.328125 Z M 384.199219 340.097656 C 390.902344 340.527344 401.148438 339.847656 401.398438 336.695312 C 401.398438 336.695312 400.902344 337.933594 395.871094 338.859375 C 390.160156 339.910156 383.082031 339.785156 378.921875 339.105469 C 378.921875 339.105469 379.789062 339.847656 384.199219 340.097656 Z M 384.199219 340.097656 " fill-opacity="1" fill-rule="nonzero"/><g clip-path="url(#4e0b844ab5)"><path fill="#f58219" d="M 391.398438 303.191406 C 391.398438 303.191406 395.25 307.085938 387.738281 312.957031 C 381.714844 317.71875 386.371094 320.4375 387.738281 323.527344 C 384.195312 320.375 381.652344 317.59375 383.390625 314.996094 C 385.9375 311.164062 392.953125 309.3125 391.398438 303.191406 Z M 389.414062 320.933594 C 391.214844 322.972656 388.917969 324.828125 388.917969 324.828125 C 388.917969 324.828125 393.511719 322.476562 391.402344 319.574219 C 389.476562 316.789062 387.984375 315.429688 396.058594 310.796875 C 396.058594 310.796875 383.328125 313.949219 389.414062 320.933594 Z M 384.820312 354.128906 L 384.820312 348.070312 C 384.820312 346.523438 383.949219 345.472656 381.777344 345.472656 C 380.535156 345.472656 379.476562 345.78125 378.546875 346.152344 L 378.859375 347.265625 C 379.539062 347.019531 380.410156 346.769531 381.339844 346.769531 C 382.519531 346.769531 383.078125 347.265625 383.078125 348.253906 L 383.078125 349.058594 L 382.460938 349.058594 C 379.480469 349.058594 378.113281 350.171875 378.113281 351.964844 C 378.113281 353.449219 379.042969 354.3125 380.71875 354.3125 C 381.777344 354.3125 382.582031 353.820312 383.328125 353.199219 L 383.453125 354.128906 Z M 383.078125 352.152344 C 382.457031 352.707031 381.777344 353.015625 381.15625 353.015625 C 380.347656 353.015625 379.851562 352.523438 379.851562 351.65625 C 379.851562 350.789062 380.347656 350.171875 382.335938 350.171875 L 383.078125 350.171875 Z M 390.65625 354.128906 L 388.480469 354.128906 L 385.875 345.660156 L 387.738281 345.660156 L 389.351562 350.851562 L 389.722656 352.398438 C 390.53125 350.171875 391.152344 347.886719 391.402344 345.660156 L 393.261719 345.660156 C 392.765625 348.441406 391.898438 351.46875 390.65625 354.128906 Z M 400.714844 354.128906 L 400.714844 348.070312 C 400.714844 346.523438 399.84375 345.472656 397.671875 345.472656 C 396.429688 345.472656 395.375 345.78125 394.441406 346.152344 L 394.691406 347.265625 C 395.4375 347.019531 396.304688 346.769531 397.238281 346.769531 C 398.417969 346.769531 398.976562 347.265625 398.976562 348.253906 L 398.976562 349.058594 L 398.355469 349.058594 C 395.375 349.058594 394.007812 350.171875 394.007812 351.964844 C 394.007812 353.449219 394.878906 354.3125 396.554688 354.3125 C 397.671875 354.3125 398.480469 353.820312 399.222656 353.199219 L 399.347656 354.128906 Z M 398.976562 352.152344 C 398.355469 352.707031 397.671875 353.015625 397.050781 353.015625 C 396.242188 353.015625 395.746094 352.523438 395.746094 351.65625 C 395.746094 350.789062 396.242188 350.171875 398.230469 350.171875 L 398.976562 350.171875 Z M 376.1875 355.550781 C 375.691406 356.292969 374.945312 356.847656 374.015625 357.15625 L 373.207031 356.167969 C 373.828125 355.796875 374.449219 355.242188 374.695312 354.746094 C 374.945312 354.316406 375.007812 353.695312 375.007812 352.273438 L 375.007812 342.632812 L 376.871094 342.632812 L 376.871094 352.152344 C 376.871094 354.066406 376.683594 354.808594 376.1875 355.550781 Z M 376.1875 355.550781 " fill-opacity="1" fill-rule="nonzero"/></g><g clip-path="url(#e9237e4e4c)"><path fill="#ffaf36" d="M 337.621094 182.5625 L 346.777344 191.703125 L 337.621094 191.703125 Z M 337.621094 182.5625 " fill-opacity="1" fill-rule="nonzero"/></g><g clip-path="url(#8197b5eec0)"><path fill="#ff6d00" d="M 346.777344 191.703125 L 346.777344 229.789062 L 311.671875 229.789062 L 311.671875 182.5625 L 337.621094 182.5625 L 337.621094 191.703125 Z M 346.777344 191.703125 " fill-opacity="1" fill-rule="nonzero"/></g><path fill="#f54e00" d="M 313.195312 188.65625 L 313.195312 225.21875 C 313.195312 225.625 313.273438 226.011719 313.429688 226.386719 C 313.582031 226.757812 313.804688 227.089844 314.089844 227.375 C 314.378906 227.660156 314.707031 227.878906 315.082031 228.035156 C 315.457031 228.1875 315.84375 228.265625 316.25 228.265625 L 342.199219 228.265625 C 342.605469 228.265625 342.992188 228.1875 343.367188 228.035156 C 343.742188 227.878906 344.070312 227.660156 344.359375 227.375 C 344.644531 227.089844 344.867188 226.757812 345.019531 226.386719 C 345.175781 226.011719 345.253906 225.625 345.253906 225.21875 L 345.253906 223.601562 C 313.195312 221.628906 313.195312 188.65625 313.195312 188.65625 Z M 313.195312 188.65625 " fill-opacity="1" fill-rule="nonzero"/><g clip-path="url(#f2a5b770e8)"><path fill="#f54e00" d="M 338.382812 191.703125 L 346.777344 191.703125 L 346.777344 193.226562 L 338.382812 193.226562 Z M 338.382812 191.703125 " fill-opacity="1" fill-rule="nonzero"/></g><g clip-path="url(#1aba5d431c)"><path fill="#f54100" d="M 305.5625 184.847656 L 333.039062 184.847656 L 333.039062 197.035156 L 305.5625 197.035156 Z M 305.5625 184.847656 " fill-opacity="1" fill-rule="nonzero"/></g><path fill="#d63900" d="M 311.671875 197.035156 L 331.515625 197.035156 L 331.515625 199.320312 L 311.671875 199.320312 Z M 311.671875 197.035156 " fill-opacity="1" fill-rule="nonzero"/><path fill="#ffffff" d="M 328.460938 193.226562 L 328.460938 187.132812 L 326.933594 187.132812 L 326.933594 193.988281 C 326.933594 194.199219 327.007812 194.378906 327.160156 194.527344 C 327.308594 194.675781 327.488281 194.75 327.699219 194.75 L 330.75 194.75 L 330.75 193.226562 Z M 328.460938 193.226562 " fill-opacity="1" fill-rule="nonzero"/><path fill="#ffffff" d="M 311.671875 190.179688 L 309.378906 190.179688 L 309.378906 187.132812 L 307.855469 187.132812 L 307.855469 194.75 L 309.378906 194.75 L 309.378906 191.703125 L 311.671875 191.703125 L 311.671875 194.75 L 313.195312 194.75 L 313.195312 187.132812 L 311.671875 187.132812 Z M 311.671875 190.179688 " fill-opacity="1" fill-rule="nonzero"/><path fill="#ffffff" d="M 313.960938 188.65625 L 315.484375 188.65625 L 315.484375 194.75 L 317.011719 194.75 L 317.011719 188.65625 L 318.539062 188.65625 L 318.539062 187.132812 L 313.960938 187.132812 Z M 313.960938 188.65625 " fill-opacity="1" fill-rule="nonzero"/><path fill="#ffffff" d="M 324.796875 187.148438 C 324.621094 187.113281 324.449219 187.132812 324.289062 187.21875 C 324.128906 187.300781 324.011719 187.429688 323.941406 187.59375 L 322.355469 191.292969 L 320.765625 187.59375 C 320.695312 187.429688 320.578125 187.304688 320.417969 187.21875 C 320.257812 187.136719 320.089844 187.113281 319.914062 187.148438 C 319.734375 187.183594 319.589844 187.273438 319.472656 187.414062 C 319.359375 187.554688 319.300781 187.714844 319.300781 187.894531 L 319.300781 194.75 L 320.828125 194.75 L 320.828125 191.605469 L 321.652344 193.527344 C 321.785156 193.835938 322.019531 193.988281 322.355469 193.988281 C 322.691406 193.988281 322.925781 193.835938 323.058594 193.527344 L 323.882812 191.605469 L 323.882812 194.75 L 325.410156 194.75 L 325.410156 187.894531 C 325.410156 187.714844 325.351562 187.554688 325.234375 187.414062 C 325.121094 187.273438 324.976562 187.183594 324.796875 187.148438 Z M 324.796875 187.148438 " fill-opacity="1" fill-rule="nonzero"/><path fill="#ffffff" d="M 320.828125 219.886719 L 314.722656 213.03125 L 320.828125 206.175781 L 323.882812 206.175781 L 317.777344 213.03125 L 323.882812 219.886719 Z M 320.828125 219.886719 " fill-opacity="1" fill-rule="nonzero"/><path fill="#ffffff" d="M 337.621094 219.886719 L 343.726562 213.03125 L 337.621094 206.175781 L 334.566406 206.175781 L 340.671875 213.03125 L 334.566406 219.886719 Z M 337.621094 219.886719 " fill-opacity="1" fill-rule="nonzero"/><path fill="#ffffff" d="M 326.171875 219.886719 L 329.988281 206.175781 L 332.277344 206.175781 L 328.460938 219.886719 Z M 326.171875 219.886719 " fill-opacity="1" fill-rule="nonzero"/><path fill="#d63900" d="M 314.722656 213.03125 L 319.472656 207.699219 L 319.300781 207.699219 L 313.195312 214.554688 L 319.300781 221.410156 L 322.355469 221.410156 L 321 219.886719 L 320.828125 219.886719 Z M 314.722656 213.03125 " fill-opacity="1" fill-rule="nonzero"/><path fill="#d63900" d="M 340.671875 213.03125 L 335.925781 207.699219 L 333.039062 207.699219 L 339.148438 214.554688 L 333.039062 221.410156 L 336.09375 221.410156 L 337.449219 219.886719 L 334.566406 219.886719 Z M 340.671875 213.03125 " fill-opacity="1" fill-rule="nonzero"/><path fill="#d63900" d="M 329.5625 207.699219 L 328.460938 207.699219 L 324.644531 221.410156 L 326.933594 221.410156 L 327.359375 219.886719 L 326.171875 219.886719 Z M 329.5625 207.699219 " fill-opacity="1" fill-rule="nonzero"/><path fill="#d63900" d="M 326.933594 193.988281 L 326.933594 187.894531 L 326.171875 187.894531 L 326.171875 194.75 C 326.171875 194.960938 326.246094 195.140625 326.394531 195.289062 C 326.542969 195.4375 326.722656 195.511719 326.933594 195.511719 L 329.988281 195.511719 L 329.988281 194.75 L 327.699219 194.75 C 327.488281 194.75 327.308594 194.675781 327.160156 194.527344 C 327.007812 194.378906 326.933594 194.199219 326.933594 193.988281 Z M 326.933594 193.988281 " fill-opacity="1" fill-rule="nonzero"/><path fill="#d63900" d="M 310.90625 187.894531 L 311.671875 187.894531 L 311.671875 190.179688 L 310.90625 190.179688 Z M 310.90625 187.894531 " fill-opacity="1" fill-rule="nonzero"/><path fill="#d63900" d="M 307.855469 187.894531 L 307.089844 187.894531 L 307.089844 195.511719 L 308.617188 195.511719 L 308.617188 194.75 L 307.855469 194.75 Z M 307.855469 187.894531 " fill-opacity="1" fill-rule="nonzero"/><path fill="#d63900" d="M 311.671875 191.703125 L 309.378906 191.703125 L 309.378906 192.464844 L 310.90625 192.464844 L 310.90625 195.511719 L 312.433594 195.511719 L 312.433594 194.75 L 311.671875 194.75 Z M 311.671875 191.703125 " fill-opacity="1" fill-rule="nonzero"/><path fill="#d63900" d="M 317.011719 188.65625 L 317.777344 188.65625 L 317.777344 189.417969 L 317.011719 189.417969 Z M 317.011719 188.65625 " fill-opacity="1" fill-rule="nonzero"/><path fill="#d63900" d="M 315.484375 188.65625 L 313.960938 188.65625 L 313.960938 187.894531 L 313.195312 187.894531 L 313.195312 189.417969 L 314.722656 189.417969 L 314.722656 195.511719 L 316.25 195.511719 L 316.25 194.75 L 315.484375 194.75 Z M 315.484375 188.65625 " fill-opacity="1" fill-rule="nonzero"/><path fill="#d63900" d="M 319.300781 187.90625 C 319.25 187.902344 319.199219 187.902344 319.148438 187.910156 C 318.972656 187.945312 318.824219 188.035156 318.710938 188.175781 C 318.597656 188.316406 318.539062 188.476562 318.539062 188.65625 L 318.539062 195.511719 L 320.066406 195.511719 L 320.066406 194.75 L 319.300781 194.75 Z M 319.300781 187.90625 " fill-opacity="1" fill-rule="nonzero"/><path fill="#d63900" d="M 323.8125 187.902344 C 323.511719 187.929688 323.300781 188.082031 323.179688 188.359375 L 322.136719 190.789062 L 322.355469 191.296875 Z M 323.8125 187.902344 " fill-opacity="1" fill-rule="nonzero"/><path fill="#d63900" d="M 321.652344 193.527344 L 320.828125 191.605469 L 320.828125 194.140625 L 320.890625 194.285156 C 321.023438 194.59375 321.257812 194.746094 321.59375 194.746094 C 321.925781 194.746094 322.160156 194.59375 322.292969 194.285156 L 322.425781 193.972656 C 322.402344 193.972656 322.378906 193.984375 322.355469 193.984375 C 322.019531 193.984375 321.789062 193.832031 321.652344 193.527344 Z M 321.652344 193.527344 " fill-opacity="1" fill-rule="nonzero"/><path fill="#d63900" d="M 323.882812 191.605469 L 323.117188 193.382812 L 323.117188 195.511719 L 324.644531 195.511719 L 324.644531 194.75 L 323.882812 194.75 Z M 323.882812 191.605469 " fill-opacity="1" fill-rule="nonzero"/><g clip-path="url(#7d3eefa297)"><path fill="#0277bd" d="M 689.976562 304.566406 L 642.023438 304.566406 L 646.253906 352.859375 L 666 358.542969 L 685.746094 352.859375 Z M 689.976562 304.566406 " fill-opacity="1" fill-rule="nonzero"/></g><path fill="#039be5" d="M 666 308.828125 L 666 354.136719 L 681.796875 349.59375 L 685.324219 308.828125 Z M 666 308.828125 " fill-opacity="1" fill-rule="nonzero"/><path fill="#ffffff" d="M 678.835938 315.929688 L 666 315.929688 L 666 321.613281 L 672.910156 321.613281 L 672.488281 327.292969 L 666 327.292969 L 666 332.976562 L 672.207031 332.976562 L 671.78125 339.367188 L 666 341.355469 L 666 347.320312 L 677.140625 343.628906 L 678.128906 327.292969 Z M 678.835938 315.929688 " fill-opacity="1" fill-rule="nonzero"/><path fill="#eeeeee" d="M 666 315.929688 L 666 321.613281 L 653.449219 321.613281 L 653.023438 315.929688 Z M 659.511719 327.292969 L 659.792969 332.976562 L 666 332.976562 L 666 327.292969 Z M 660.078125 335.816406 L 654.433594 335.816406 L 654.859375 343.628906 L 666 347.320312 L 666 341.355469 L 660.21875 339.367188 Z M 660.078125 335.816406 " fill-opacity="1" fill-rule="nonzero"/><g clip-path="url(#411687b485)"><path fill="#5e94ff" d="M 451.570312 192.050781 C 448.445312 192.050781 445.914062 194.582031 445.914062 197.707031 L 445.914062 230.621094 C 445.914062 233.746094 448.445312 236.277344 451.570312 236.277344 L 484.484375 236.277344 C 487.609375 236.277344 490.140625 233.746094 490.140625 230.621094 L 490.140625 197.707031 C 490.140625 194.582031 487.609375 192.050781 484.484375 192.050781 Z M 451.570312 192.050781 " fill-opacity="1" fill-rule="nonzero"/></g><g clip-path="url(#176c08a396)"><path fill="#4dc4ff" d="M 451.570312 192.050781 C 448.445312 192.050781 445.914062 194.582031 445.914062 197.707031 L 445.914062 201.820312 C 445.914062 202.671875 446.605469 203.363281 447.457031 203.363281 L 488.597656 203.363281 C 489.453125 203.363281 490.140625 202.671875 490.140625 201.820312 L 490.140625 197.707031 C 490.140625 194.582031 487.609375 192.050781 484.484375 192.050781 Z M 451.570312 192.050781 " fill-opacity="1" fill-rule="nonzero"/></g><g clip-path="url(#a4cdbf472d)"><path fill="#5485e5" d="M 468.027344 192.050781 L 468.027344 236.277344 L 451.570312 236.277344 C 448.445312 236.277344 445.914062 233.746094 445.914062 230.621094 L 445.914062 197.707031 C 445.914062 194.582031 448.445312 192.050781 451.570312 192.050781 Z M 468.027344 192.050781 " fill-opacity="1" fill-rule="evenodd"/></g><g clip-path="url(#07f4603ad9)"><path fill="#45b0e5" d="M 468.027344 192.050781 L 468.027344 203.363281 L 447.457031 203.363281 C 446.605469 203.363281 445.914062 202.671875 445.914062 201.820312 L 445.914062 197.707031 C 445.914062 194.582031 448.445312 192.050781 451.570312 192.050781 Z M 468.027344 192.050781 " fill-opacity="1" fill-rule="evenodd"/></g><path fill="#eceff1" d="M 469.570312 207.992188 C 469.570312 207.140625 470.261719 206.449219 471.113281 206.449219 L 482.429688 206.449219 C 483.28125 206.449219 483.972656 207.140625 483.972656 207.992188 C 483.972656 208.84375 483.28125 209.535156 482.429688 209.535156 L 472.65625 209.535156 L 472.65625 216.734375 L 482.429688 216.734375 C 483.28125 216.734375 483.972656 217.425781 483.972656 218.277344 L 483.972656 228.5625 C 483.972656 229.414062 483.28125 230.105469 482.429688 230.105469 L 471.113281 230.105469 C 470.261719 230.105469 469.570312 229.414062 469.570312 228.5625 C 469.570312 227.710938 470.261719 227.019531 471.113281 227.019531 L 480.886719 227.019531 L 480.886719 219.820312 L 471.113281 219.820312 C 470.261719 219.820312 469.570312 219.128906 469.570312 218.277344 Z M 469.570312 207.992188 " fill-opacity="1" fill-rule="evenodd"/><path fill="#cfd8dc" d="M 450.027344 207.992188 C 450.027344 207.140625 450.71875 206.449219 451.570312 206.449219 L 465.972656 206.449219 C 466.824219 206.449219 467.515625 207.140625 467.515625 207.992188 C 467.515625 208.84375 466.824219 209.535156 465.972656 209.535156 L 460.3125 209.535156 L 460.3125 228.5625 C 460.3125 229.414062 459.625 230.105469 458.769531 230.105469 C 457.917969 230.105469 457.226562 229.414062 457.226562 228.5625 L 457.226562 209.535156 L 451.570312 209.535156 C 450.71875 209.535156 450.027344 208.84375 450.027344 207.992188 Z M 450.027344 207.992188 " fill-opacity="1" fill-rule="evenodd"/><g clip-path="url(#18273249bc)"><path fill="#7c73c0" d="M 791.964844 308.402344 C 791.964844 306.914062 793.160156 305.703125 794.640625 305.703125 L 846.261719 305.703125 C 847.738281 305.703125 848.9375 306.914062 848.9375 308.402344 L 848.9375 353.203125 C 848.9375 354.695312 847.738281 355.902344 846.261719 355.902344 L 794.640625 355.902344 C 793.160156 355.902344 791.964844 354.695312 791.964844 353.203125 Z M 791.964844 308.402344 " fill-opacity="1" fill-rule="nonzero"/></g><g clip-path="url(#db7e2fb6c8)"><path fill="#e0ae30" d="M 846.261719 305.703125 L 794.640625 305.703125 C 793.160156 305.703125 791.964844 306.914062 791.964844 308.402344 L 791.964844 317.699219 L 848.9375 317.699219 L 848.9375 308.402344 C 848.9375 306.914062 847.738281 305.703125 846.261719 305.703125 Z M 846.261719 305.703125 " fill-opacity="1" fill-rule="nonzero"/></g><path fill="#7c73c0" d="M 801.726562 311.699219 C 801.726562 313.148438 800.589844 314.324219 799.1875 314.324219 C 797.78125 314.324219 796.644531 313.148438 796.644531 311.699219 C 796.644531 310.253906 797.78125 309.078125 799.1875 309.078125 C 800.589844 309.078125 801.726562 310.253906 801.726562 311.699219 Z M 801.726562 311.699219 " fill-opacity="1" fill-rule="nonzero"/><path fill="#7c73c0" d="M 811.089844 311.699219 C 811.089844 313.148438 809.949219 314.324219 808.546875 314.324219 C 807.144531 314.324219 806.007812 313.148438 806.007812 311.699219 C 806.007812 310.253906 807.144531 309.078125 808.546875 309.078125 C 809.949219 309.078125 811.089844 310.253906 811.089844 311.699219 Z M 811.089844 311.699219 " fill-opacity="1" fill-rule="nonzero"/><path fill="#7c73c0" d="M 820.449219 311.699219 C 820.449219 313.148438 819.3125 314.324219 817.910156 314.324219 C 816.503906 314.324219 815.367188 313.148438 815.367188 311.699219 C 815.367188 310.253906 816.503906 309.078125 817.910156 309.078125 C 819.3125 309.078125 820.449219 310.253906 820.449219 311.699219 Z M 820.449219 311.699219 " fill-opacity="1" fill-rule="nonzero"/><path fill="#ffffff" d="M 804.402344 330.777344 C 804.402344 329.972656 805.050781 329.320312 805.847656 329.320312 L 809.3125 329.320312 C 811.695312 329.320312 813.628906 331.269531 813.628906 333.675781 C 813.628906 336.078125 811.695312 338.03125 809.3125 338.03125 L 806.808594 338.03125 L 806.808594 342.410156 C 806.808594 343.078125 806.269531 343.621094 805.605469 343.621094 C 804.941406 343.621094 804.402344 343.078125 804.402344 342.410156 Z M 806.808594 335.601562 L 809.3125 335.601562 C 810.367188 335.601562 811.222656 334.738281 811.222656 333.675781 C 811.222656 332.609375 810.367188 331.746094 809.3125 331.746094 L 806.808594 331.746094 Z M 806.808594 335.601562 " fill-opacity="1" fill-rule="evenodd"/><path fill="#ffffff" d="M 829.542969 330.777344 C 829.542969 329.972656 830.191406 329.320312 830.992188 329.320312 L 834.457031 329.320312 C 836.839844 329.320312 838.773438 331.269531 838.773438 333.675781 C 838.773438 336.078125 836.839844 338.03125 834.457031 338.03125 L 831.953125 338.03125 L 831.953125 342.410156 C 831.953125 343.078125 831.414062 343.621094 830.746094 343.621094 C 830.082031 343.621094 829.542969 343.078125 829.542969 342.410156 Z M 831.953125 335.601562 L 834.457031 335.601562 C 835.511719 335.601562 836.363281 334.738281 836.363281 333.675781 C 836.363281 332.609375 835.511719 331.746094 834.457031 331.746094 L 831.953125 331.746094 Z M 831.953125 335.601562 " fill-opacity="1" fill-rule="evenodd"/><path fill="#ffffff" d="M 817.640625 329.050781 C 818.304688 329.050781 818.84375 329.59375 818.84375 330.261719 L 818.84375 334.714844 L 824.328125 334.714844 L 824.328125 330.261719 C 824.328125 329.59375 824.867188 329.050781 825.53125 329.050781 C 826.195312 329.050781 826.734375 329.59375 826.734375 330.261719 L 826.734375 342.679688 C 826.734375 343.347656 826.195312 343.894531 825.53125 343.894531 C 824.867188 343.894531 824.328125 343.347656 824.328125 342.679688 L 824.328125 337.144531 L 818.84375 337.144531 L 818.84375 342.679688 C 818.84375 343.347656 818.304688 343.894531 817.640625 343.894531 C 816.976562 343.894531 816.4375 343.347656 816.4375 342.679688 L 816.4375 330.261719 C 816.4375 329.59375 816.976562 329.050781 817.640625 329.050781 Z M 817.640625 329.050781 " fill-opacity="1" fill-rule="evenodd"/><path fill="#e0ae30" d="M 801.835938 327.851562 C 802.34375 328.289062 802.40625 329.054688 801.976562 329.566406 L 796.835938 335.675781 L 801.261719 341.832031 C 801.648438 342.375 801.53125 343.132812 800.992188 343.527344 C 800.453125 343.921875 799.703125 343.800781 799.3125 343.257812 L 794.394531 336.417969 C 794.03125 335.914062 794.058594 335.226562 794.457031 334.75 L 800.140625 327.992188 C 800.570312 327.480469 801.328125 327.417969 801.835938 327.851562 Z M 801.835938 327.851562 " fill-opacity="1" fill-rule="evenodd"/><path fill="#e0ae30" d="M 839.074219 327.84375 C 838.5625 328.273438 838.492188 329.039062 838.914062 329.554688 L 843.941406 335.675781 L 839.613281 341.839844 C 839.230469 342.386719 839.359375 343.144531 839.902344 343.535156 C 840.441406 343.921875 841.195312 343.792969 841.578125 343.246094 L 846.382812 336.40625 C 846.730469 335.90625 846.707031 335.234375 846.320312 334.761719 L 840.769531 328.003906 C 840.34375 327.488281 839.585938 327.417969 839.074219 327.84375 Z M 839.074219 327.84375 " fill-opacity="1" fill-rule="evenodd"/><path fill="#ffffff" d="M 824.730469 311.84375 C 824.730469 311.171875 825.269531 310.628906 825.933594 310.628906 L 842.984375 310.628906 C 843.648438 310.628906 844.1875 311.171875 844.1875 311.84375 C 844.1875 312.515625 843.648438 313.058594 842.984375 313.058594 L 825.933594 313.058594 C 825.269531 313.058594 824.730469 312.515625 824.730469 311.84375 Z M 824.730469 311.84375 " fill-opacity="1" fill-rule="evenodd"/><path fill="#000000" d="M 247.285156 336.988281 L 243.613281 339.125 C 243.613281 339.128906 243.644531 339.128906 243.644531 339.128906 L 237.796875 342.503906 C 237.796875 342.503906 237.796875 342.503906 237.796875 342.507812 C 237.777344 342.515625 237.761719 342.527344 237.742188 342.535156 C 237.738281 342.539062 237.734375 342.542969 237.730469 342.546875 C 237.714844 342.550781 237.703125 342.5625 237.691406 342.566406 C 237.679688 342.574219 237.667969 342.589844 237.660156 342.59375 C 237.65625 342.59375 237.65625 342.613281 237.652344 342.617188 C 237.519531 342.667969 237.375 342.738281 237.234375 342.738281 C 237.09375 342.738281 236.957031 342.671875 236.820312 342.617188 C 236.816406 342.617188 236.8125 342.574219 236.808594 342.570312 C 236.800781 342.566406 236.792969 342.5625 236.785156 342.558594 C 236.769531 342.554688 236.753906 342.546875 236.742188 342.539062 C 236.738281 342.539062 236.734375 342.535156 236.730469 342.535156 C 236.710938 342.523438 236.691406 342.515625 236.671875 342.503906 L 234.421875 341.203125 C 234.414062 341.199219 234.40625 341.195312 234.398438 341.191406 C 234.394531 341.1875 234.386719 341.183594 234.378906 341.179688 C 234.378906 341.179688 234.378906 341.179688 234.375 341.179688 L 231.839844 339.714844 C 231.03125 341.183594 231.027344 343.003906 231.882812 344.488281 C 231.894531 344.507812 231.90625 344.523438 231.914062 344.542969 C 233.230469 346.761719 236.03125 347.558594 238.3125 346.363281 C 238.332031 346.351562 238.355469 346.34375 238.375 346.335938 L 242.175781 344.125 C 242.179688 344.125 242.164062 344.125 242.167969 344.121094 L 247.285156 341.148438 Z M 247.285156 336.988281 " fill-opacity="1" fill-rule="nonzero"/><path fill="#000000" d="M 257.980469 328.851562 C 257.964844 328.839844 257.945312 328.824219 257.925781 328.8125 L 254.125 326.617188 C 254.125 326.617188 254.121094 326.617188 254.121094 326.617188 L 248.945312 323.628906 L 245.90625 325.382812 C 245.898438 325.386719 245.894531 325.390625 245.886719 325.394531 L 245.34375 325.707031 L 254.894531 331.222656 C 254.898438 331.222656 254.898438 331.226562 254.902344 331.226562 C 254.914062 331.234375 254.925781 331.242188 254.9375 331.25 C 254.941406 331.25 254.945312 331.253906 254.953125 331.257812 C 254.960938 331.265625 254.96875 331.273438 254.980469 331.277344 C 254.988281 331.28125 254.992188 331.289062 255 331.292969 C 255.007812 331.300781 255.011719 331.304688 255.019531 331.3125 C 255.027344 331.316406 255.039062 331.328125 255.046875 331.335938 C 255.050781 331.339844 255.050781 331.351562 255.054688 331.355469 C 255.066406 331.363281 255.078125 331.402344 255.089844 331.402344 C 255.171875 331.613281 255.238281 331.542969 255.296875 331.632812 C 255.300781 331.640625 255.304688 331.628906 255.308594 331.632812 C 255.3125 331.640625 255.316406 331.652344 255.320312 331.660156 C 255.328125 331.671875 255.335938 331.6875 255.34375 331.703125 C 255.34375 331.703125 255.34375 331.703125 255.34375 331.707031 C 255.382812 331.785156 255.414062 331.871094 255.433594 331.957031 C 255.433594 331.960938 255.433594 331.960938 255.433594 331.960938 C 255.4375 331.976562 255.4375 331.988281 255.441406 332.003906 C 255.441406 332.007812 255.445312 332.011719 255.445312 332.015625 C 255.445312 332.027344 255.449219 332.039062 255.449219 332.050781 C 255.449219 332.058594 255.453125 332.066406 255.453125 332.074219 C 255.453125 332.082031 255.453125 332.089844 255.457031 332.097656 C 255.457031 332.109375 255.457031 332.121094 255.457031 332.132812 C 255.457031 332.140625 255.460938 332.144531 255.460938 332.152344 C 255.460938 332.164062 255.464844 332.179688 255.464844 332.195312 C 255.464844 332.195312 255.46875 332.199219 255.46875 332.199219 L 255.46875 337.78125 C 256.9375 337.742188 258.71875 336.835938 259.578125 335.355469 C 259.589844 335.335938 259.59375 335.316406 259.605469 335.300781 C 260.867188 333.050781 260.160156 330.230469 257.980469 328.851562 Z M 257.980469 328.851562 " fill-opacity="1" fill-rule="nonzero"/><g clip-path="url(#3abe412151)"><path fill="#000000" d="M 243.085938 305.691406 C 228.59375 305.691406 216.847656 317.4375 216.847656 331.929688 C 216.847656 346.417969 228.59375 358.164062 243.085938 358.164062 C 257.578125 358.164062 269.324219 346.417969 269.324219 331.929688 C 269.324219 317.4375 257.578125 305.691406 243.085938 305.691406 Z M 261.527344 336.480469 C 261.515625 336.503906 261.503906 336.527344 261.488281 336.546875 C 260.21875 338.691406 257.671875 339.992188 255.46875 340.03125 L 255.46875 343.332031 C 255.46875 343.386719 255.460938 343.441406 255.453125 343.496094 C 255.351562 345.277344 254.582031 346.941406 253.289062 348.183594 C 251.960938 349.464844 250.210938 350.167969 248.363281 350.167969 C 248.335938 350.167969 248.3125 350.167969 248.285156 350.167969 C 245.792969 350.140625 243.511719 348.789062 242.257812 346.691406 L 239.398438 348.339844 C 239.351562 348.371094 239.300781 348.394531 239.25 348.414062 C 238.253906 348.914062 237.171875 349.167969 236.078125 349.167969 C 235.421875 349.167969 234.757812 349.078125 234.109375 348.890625 C 232.339844 348.378906 230.855469 347.21875 229.929688 345.617188 C 229.917969 345.59375 229.90625 345.570312 229.894531 345.546875 C 228.667969 343.375 228.695312 340.722656 229.886719 338.585938 L 227.027344 336.9375 C 226.980469 336.910156 226.929688 336.878906 226.886719 336.847656 C 225.394531 335.867188 224.328125 334.375 223.894531 332.632812 C 223.453125 330.84375 223.699219 328.976562 224.625 327.375 C 224.636719 327.351562 224.621094 327.332031 224.632812 327.308594 C 225.90625 325.164062 228.078125 323.859375 230.597656 323.824219 L 230.597656 320.523438 C 230.597656 320.46875 230.664062 320.414062 230.671875 320.359375 C 230.773438 318.578125 231.597656 316.914062 232.890625 315.671875 C 234.21875 314.390625 235.96875 313.6875 237.816406 313.6875 C 237.84375 313.6875 237.871094 313.6875 237.894531 313.6875 C 240.386719 313.714844 242.671875 315.066406 243.925781 317.164062 L 246.78125 315.515625 C 246.828125 315.488281 246.878906 315.460938 246.929688 315.441406 C 248.527344 314.640625 250.34375 314.46875 252.070312 314.964844 C 253.839844 315.476562 255.328125 316.640625 256.25 318.238281 C 256.265625 318.261719 256.277344 318.285156 256.285156 318.308594 C 257.511719 320.480469 257.480469 323.132812 256.292969 325.269531 L 259.148438 326.917969 C 259.195312 326.945312 259.238281 326.976562 259.285156 327.011719 C 260.773438 327.992188 261.839844 329.484375 262.269531 331.222656 C 262.714844 333.011719 262.453125 334.878906 261.527344 336.480469 Z M 261.527344 336.480469 " fill-opacity="1" fill-rule="nonzero"/></g><path fill="#000000" d="M 253.054688 343.222656 L 253.054688 332.847656 L 249.488281 330.769531 L 249.488281 341.800781 C 249.488281 341.800781 249.546875 341.804688 249.546875 341.804688 C 249.546875 341.820312 249.601562 341.832031 249.601562 341.847656 C 249.601562 341.855469 249.601562 341.859375 249.601562 341.863281 C 249.601562 341.875 249.597656 341.886719 249.597656 341.898438 C 249.597656 341.90625 249.597656 341.914062 249.597656 341.921875 C 249.59375 341.933594 249.59375 341.941406 249.59375 341.949219 C 249.589844 341.960938 249.589844 341.972656 249.589844 341.980469 C 249.585938 341.988281 249.585938 341.992188 249.585938 341.996094 C 249.582031 342.011719 249.582031 342.023438 249.578125 342.039062 C 249.558594 342.128906 249.527344 342.214844 249.488281 342.292969 C 249.480469 342.308594 249.472656 342.324219 249.464844 342.339844 C 249.460938 342.347656 249.457031 342.355469 249.453125 342.363281 C 249.445312 342.371094 249.441406 342.378906 249.4375 342.386719 C 249.382812 342.476562 249.316406 342.558594 249.234375 342.632812 C 249.222656 342.644531 249.210938 342.652344 249.199219 342.664062 C 249.195312 342.664062 249.195312 342.667969 249.191406 342.671875 C 249.179688 342.679688 249.171875 342.683594 249.164062 342.691406 C 249.15625 342.695312 249.152344 342.703125 249.144531 342.707031 C 249.136719 342.710938 249.128906 342.714844 249.125 342.722656 C 249.113281 342.726562 249.105469 342.734375 249.09375 342.742188 C 249.089844 342.742188 249.085938 342.746094 249.082031 342.75 C 249.066406 342.757812 249.054688 342.765625 249.042969 342.773438 C 249.042969 342.773438 249.039062 342.773438 249.035156 342.773438 L 244.199219 345.566406 C 245.070312 347 246.636719 347.914062 248.351562 347.914062 C 248.371094 347.914062 248.378906 347.914062 248.402344 347.914062 C 250.980469 347.882812 253.023438 345.859375 253.128906 343.285156 C 253.128906 343.265625 253.054688 343.242188 253.054688 343.222656 Z M 253.054688 343.222656 " fill-opacity="1" fill-rule="nonzero"/><path fill="#000000" d="M 235.53125 339.242188 C 235.53125 339.246094 235.535156 339.246094 235.535156 339.246094 C 235.539062 339.246094 235.539062 339.25 235.542969 339.25 L 237.234375 340.226562 L 240.839844 338.148438 L 231.285156 332.632812 C 231.285156 332.632812 231.28125 332.628906 231.28125 332.628906 C 231.269531 332.621094 231.257812 332.613281 231.246094 332.605469 C 231.238281 332.605469 231.234375 332.601562 231.230469 332.597656 C 231.21875 332.589844 231.210938 332.585938 231.203125 332.578125 C 231.195312 332.574219 231.1875 332.570312 231.179688 332.5625 C 231.175781 332.558594 231.167969 332.554688 231.164062 332.550781 C 231.152344 332.542969 231.144531 332.535156 231.132812 332.527344 C 231.132812 332.527344 231.128906 332.523438 231.125 332.519531 C 231.027344 332.441406 230.949219 332.34375 230.886719 332.242188 C 230.882812 332.234375 230.878906 332.230469 230.875 332.222656 C 230.871094 332.214844 230.863281 332.207031 230.859375 332.195312 C 230.851562 332.183594 230.84375 332.167969 230.835938 332.152344 C 230.835938 332.152344 230.835938 332.152344 230.835938 332.148438 C 230.796875 332.070312 230.765625 331.984375 230.75 331.898438 C 230.746094 331.898438 230.746094 331.894531 230.746094 331.894531 C 230.746094 331.882812 230.742188 331.867188 230.738281 331.851562 C 230.738281 331.847656 230.738281 331.84375 230.734375 331.839844 C 230.734375 331.828125 230.730469 331.816406 230.730469 331.804688 C 230.730469 331.796875 230.726562 331.789062 230.726562 331.78125 C 230.722656 331.773438 230.71875 331.765625 230.71875 331.757812 C 230.71875 331.746094 230.710938 331.734375 230.707031 331.722656 C 230.707031 331.714844 230.691406 331.710938 230.691406 331.707031 C 230.691406 331.691406 230.660156 331.675781 230.660156 331.660156 C 230.660156 331.660156 230.597656 331.660156 230.597656 331.65625 L 230.597656 326.074219 C 228.917969 326.113281 227.402344 327.019531 226.546875 328.5 C 226.535156 328.519531 226.585938 328.539062 226.578125 328.554688 C 225.316406 330.804688 226.019531 333.628906 228.199219 335.007812 C 228.21875 335.015625 228.234375 335.027344 228.25 335.042969 L 235.527344 339.242188 C 235.527344 339.242188 235.53125 339.242188 235.53125 339.242188 Z M 235.53125 339.242188 " fill-opacity="1" fill-rule="nonzero"/><path fill="#000000" d="M 238.679688 329.46875 L 238.679688 334.386719 L 242.980469 336.847656 L 247.285156 334.386719 L 247.285156 329.46875 L 242.980469 327.007812 Z M 238.679688 329.46875 " fill-opacity="1" fill-rule="nonzero"/><path fill="#000000" d="M 238.679688 326.21875 L 238.679688 326.867188 L 242.535156 324.6875 C 242.535156 324.6875 242.527344 324.6875 242.527344 324.6875 L 244.777344 323.410156 C 244.777344 323.410156 244.777344 323.433594 244.777344 323.433594 C 244.785156 323.429688 244.789062 323.425781 244.796875 323.421875 L 248.382812 321.351562 C 248.386719 321.351562 248.386719 321.351562 248.386719 321.351562 C 248.402344 321.34375 248.414062 321.335938 248.425781 321.328125 C 248.429688 321.328125 248.4375 321.324219 248.441406 321.320312 C 248.449219 321.316406 248.460938 321.3125 248.472656 321.304688 C 248.480469 321.304688 248.488281 321.300781 248.492188 321.296875 C 248.503906 321.292969 248.511719 321.289062 248.519531 321.285156 C 248.527344 321.28125 248.539062 321.277344 248.546875 321.273438 C 248.554688 321.273438 248.558594 321.273438 248.5625 321.273438 C 248.574219 321.265625 248.589844 321.265625 248.601562 321.261719 C 248.605469 321.257812 248.605469 321.265625 248.605469 321.265625 C 248.691406 321.238281 248.78125 321.222656 248.867188 321.222656 C 248.867188 321.222656 248.871094 321.222656 248.871094 321.222656 C 248.886719 321.222656 248.902344 321.210938 248.921875 321.210938 C 248.929688 321.210938 248.941406 321.203125 248.949219 321.203125 C 248.957031 321.203125 248.964844 321.203125 248.972656 321.203125 C 249.078125 321.203125 249.183594 321.222656 249.289062 321.253906 C 249.304688 321.257812 249.320312 321.265625 249.332031 321.269531 C 249.335938 321.269531 249.339844 321.273438 249.34375 321.273438 C 249.355469 321.277344 249.367188 321.28125 249.375 321.285156 C 249.382812 321.289062 249.390625 321.292969 249.398438 321.296875 C 249.40625 321.300781 249.414062 321.304688 249.421875 321.304688 C 249.429688 321.3125 249.441406 321.316406 249.453125 321.320312 C 249.457031 321.324219 249.460938 321.328125 249.46875 321.328125 C 249.480469 321.335938 249.492188 321.34375 249.503906 321.351562 C 249.507812 321.351562 249.507812 321.351562 249.507812 321.351562 L 254.34375 324.140625 C 255.148438 322.671875 255.152344 320.851562 254.296875 319.367188 C 254.285156 319.347656 254.277344 319.332031 254.265625 319.3125 C 252.949219 317.09375 250.148438 316.296875 247.867188 317.492188 C 247.847656 317.503906 247.824219 317.511719 247.804688 317.519531 L 243.949219 319.730469 C 243.945312 319.730469 243.90625 319.730469 243.90625 319.734375 L 238.679688 322.707031 Z M 238.679688 326.21875 " fill-opacity="1" fill-rule="nonzero"/><path fill="#000000" d="M 236.472656 333.050781 L 236.472656 322.054688 C 236.472656 322.054688 236.527344 322.050781 236.527344 322.050781 C 236.527344 322.035156 236.578125 322.023438 236.578125 322.007812 C 236.578125 322 236.578125 321.996094 236.582031 321.992188 C 236.582031 321.980469 236.582031 321.96875 236.582031 321.957031 C 236.582031 321.949219 236.585938 321.941406 236.585938 321.933594 C 236.585938 321.921875 236.585938 321.914062 236.589844 321.90625 C 236.589844 321.894531 236.589844 321.886719 236.59375 321.875 C 236.59375 321.871094 236.59375 321.863281 236.59375 321.859375 C 236.597656 321.84375 236.601562 321.832031 236.605469 321.816406 C 236.625 321.726562 236.652344 321.640625 236.691406 321.5625 C 236.691406 321.5625 236.691406 321.558594 236.691406 321.558594 C 236.699219 321.542969 236.707031 321.53125 236.714844 321.515625 C 236.71875 321.507812 236.726562 321.5 236.730469 321.492188 C 236.734375 321.484375 236.738281 321.476562 236.742188 321.46875 C 236.796875 321.378906 236.867188 321.296875 236.945312 321.222656 C 236.957031 321.210938 236.96875 321.203125 236.980469 321.191406 C 236.984375 321.191406 236.988281 321.1875 236.992188 321.183594 C 237 321.175781 237.007812 321.171875 237.019531 321.164062 C 237.023438 321.160156 237.03125 321.152344 237.035156 321.148438 C 237.042969 321.144531 237.050781 321.140625 237.058594 321.132812 C 237.066406 321.128906 237.074219 321.121094 237.085938 321.113281 C 237.089844 321.113281 237.09375 321.109375 237.097656 321.105469 C 237.113281 321.097656 237.125 321.089844 237.136719 321.082031 C 237.136719 321.082031 237.136719 321.082031 237.140625 321.082031 L 241.96875 318.289062 C 241.097656 316.855469 239.519531 315.941406 237.808594 315.941406 C 237.785156 315.941406 237.757812 315.941406 237.734375 315.9375 C 235.15625 315.972656 233.050781 317.996094 232.945312 320.570312 C 232.945312 320.589844 232.90625 320.613281 232.90625 320.632812 L 232.90625 331.007812 L 235.90625 332.75 Z M 236.472656 333.050781 " fill-opacity="1" fill-rule="nonzero"/><path fill="#000000" d="M 204.6875 201.3125 L 204.691406 201.3125 L 204.691406 201.304688 Z M 204.6875 201.3125 " fill-opacity="1" fill-rule="nonzero"/><g clip-path="url(#08dc8114f1)"><path fill="#f2bb30" d="M 209.867188 223.109375 C 213.359375 223.109375 214.652344 220.671875 215.867188 217.015625 C 217.125 213.253906 217.070312 209.632812 215.867188 204.8125 C 215 201.339844 213.363281 198.722656 209.867188 198.722656 L 205.363281 198.722656 L 205.363281 204.050781 C 205.363281 208.1875 201.855469 211.671875 197.855469 211.671875 L 185.851562 211.671875 C 182.570312 211.671875 179.851562 214.480469 179.851562 217.773438 L 179.851562 229.214844 C 179.851562 232.472656 182.683594 234.382812 185.851562 235.316406 C 189.648438 236.429688 193.304688 236.628906 197.855469 235.316406 C 200.875 234.4375 203.855469 232.671875 203.855469 229.214844 L 203.855469 224.636719 L 191.863281 224.636719 L 191.863281 223.113281 L 209.867188 223.113281 Z M 198.605469 227.683594 C 199.851562 227.683594 200.867188 228.707031 200.867188 229.96875 C 200.867188 231.238281 199.855469 232.257812 198.605469 232.257812 C 197.371094 232.257812 196.347656 231.226562 196.347656 229.96875 C 196.359375 228.695312 197.375 227.683594 198.605469 227.683594 Z M 198.605469 227.683594 " fill-opacity="1" fill-rule="nonzero"/></g><g clip-path="url(#f2937b994a)"><path fill="#35668f" d="M 173.667969 223.113281 L 177.792969 223.113281 L 177.792969 217.625 C 177.792969 213.660156 181.222656 210.160156 185.300781 210.160156 L 197.300781 210.160156 C 200.636719 210.160156 203.300781 207.410156 203.300781 204.058594 L 203.300781 192.609375 C 203.300781 189.351562 200.558594 186.910156 197.300781 186.363281 C 193.277344 185.699219 188.90625 185.734375 185.300781 186.375 C 180.21875 187.273438 179.300781 189.148438 179.300781 192.617188 L 179.300781 197.195312 L 191.316406 197.195312 L 191.316406 198.722656 L 174.792969 198.722656 C 171.296875 198.722656 168.238281 200.824219 167.289062 204.816406 C 166.1875 209.390625 166.140625 212.242188 167.289062 217.019531 C 168.140625 220.570312 170.175781 223.113281 173.667969 223.113281 Z M 184.546875 194.136719 C 183.300781 194.136719 182.289062 193.113281 182.289062 191.855469 C 182.304688 190.582031 183.300781 189.5625 184.546875 189.5625 C 185.785156 189.5625 186.808594 190.59375 186.808594 191.855469 C 186.808594 193.117188 185.796875 194.136719 184.546875 194.136719 Z M 184.546875 194.136719 " fill-opacity="1" fill-rule="nonzero"/></g><g clip-path="url(#161dd5ca0d)"><path fill="#ffd600" d="M 741.4375 188.953125 L 791.664062 188.953125 L 791.664062 239.179688 L 741.4375 239.179688 Z M 741.4375 188.953125 " fill-opacity="1" fill-rule="nonzero"/></g><path fill="#000001" d="M 774.277344 226.550781 C 775.242188 228.117188 776.289062 229.621094 778.511719 229.621094 C 780.378906 229.621094 781.359375 228.691406 781.359375 227.410156 C 781.359375 225.871094 780.347656 225.328125 778.292969 224.433594 L 777.167969 223.953125 C 773.917969 222.574219 771.757812 220.847656 771.757812 217.199219 C 771.757812 213.835938 774.332031 211.277344 778.351562 211.277344 C 781.214844 211.277344 783.273438 212.269531 784.757812 214.867188 L 781.25 217.109375 C 780.480469 215.730469 779.644531 215.1875 778.351562 215.1875 C 777.03125 215.1875 776.195312 216.019531 776.195312 217.109375 C 776.195312 218.453125 777.035156 219 778.964844 219.832031 L 780.09375 220.3125 C 783.921875 221.941406 786.082031 223.609375 786.082031 227.351562 C 786.082031 231.386719 782.894531 233.597656 778.617188 233.597656 C 774.433594 233.597656 772.058594 231.5 770.734375 228.898438 Z M 758.113281 226.664062 C 758.816406 227.925781 759.890625 228.898438 761.433594 228.898438 C 762.910156 228.898438 763.757812 228.316406 763.757812 226.050781 L 763.757812 211.277344 L 768.410156 211.277344 L 768.410156 226.765625 C 768.410156 231.460938 765.683594 233.597656 761.707031 233.597656 C 758.109375 233.597656 755.515625 231.164062 754.457031 228.898438 Z M 758.113281 226.664062 " fill-opacity="1" fill-rule="nonzero"/><g clip-path="url(#0b1362f95b)"><path fill="#000000" d="M 604.304688 221.179688 C 603.417969 221.179688 602.824219 220.882812 602.234375 220.292969 L 590.410156 208.464844 C 589.226562 207.285156 589.226562 205.511719 590.410156 204.328125 L 602.234375 192.503906 C 603.417969 191.320312 605.191406 191.320312 606.375 192.503906 C 607.554688 193.683594 607.554688 195.460938 606.375 196.640625 L 596.617188 206.398438 L 606.375 216.152344 C 607.554688 217.335938 607.554688 219.109375 606.375 220.292969 C 605.78125 220.882812 605.191406 221.179688 604.304688 221.179688 Z M 604.304688 221.179688 " fill-opacity="1" fill-rule="nonzero"/></g><path fill="#000000" d="M 633.863281 221.179688 C 632.976562 221.179688 632.386719 220.882812 631.796875 220.292969 C 630.613281 219.109375 630.613281 217.335938 631.796875 216.152344 L 641.550781 206.398438 L 631.796875 196.640625 C 630.613281 195.460938 630.613281 193.683594 631.796875 192.503906 C 632.976562 191.320312 634.75 191.320312 635.933594 192.503906 L 647.757812 204.328125 C 648.941406 205.511719 648.941406 207.285156 647.757812 208.464844 L 635.933594 220.292969 C 635.34375 220.882812 634.75 221.179688 633.863281 221.179688 Z M 633.863281 221.179688 " fill-opacity="1" fill-rule="nonzero"/><g clip-path="url(#cbfc3bc58e)"><path fill="#000000" d="M 613.171875 227.089844 C 612.875 227.089844 612.582031 227.089844 612.285156 226.796875 C 610.808594 226.203125 609.921875 224.726562 610.511719 222.953125 L 622.335938 187.476562 C 622.925781 186 624.40625 185.113281 626.179688 185.703125 C 627.65625 186.292969 628.542969 187.773438 627.953125 189.546875 L 616.128906 225.023438 C 615.535156 226.203125 614.355469 227.089844 613.171875 227.089844 Z M 613.171875 227.089844 " fill-opacity="1" fill-rule="nonzero"/></g><g clip-path="url(#718911dfa2)"><path fill="#f44336" d="M 550.824219 345.574219 L 554.492188 313.28125 L 530.527344 304.566406 L 506.5625 313.28125 L 510.230469 345.574219 L 530.527344 357.042969 Z M 521.140625 344.601562 L 515.523438 344.601562 L 530.527344 310.363281 L 545.542969 344.601562 L 539.9375 344.601562 L 536.914062 336.941406 L 524.164062 336.941406 Z M 521.140625 344.601562 " fill-opacity="1" fill-rule="nonzero"/></g><path fill="#f44336" d="M 526.132812 332.222656 L 534.921875 332.222656 L 530.527344 321.492188 Z M 526.132812 332.222656 " fill-opacity="1" fill-rule="nonzero"/><g clip-path="url(#69021edba5)"><path fill="#00d8ff" d="M 896.636719 206.875 C 896.023438 206.664062 895.402344 206.46875 894.78125 206.289062 C 894.886719 205.859375 894.980469 205.433594 895.066406 205.015625 C 896.472656 198.164062 895.554688 192.640625 892.414062 190.824219 C 889.40625 189.082031 884.480469 190.898438 879.511719 195.242188 C 879.019531 195.671875 878.542969 196.113281 878.074219 196.566406 C 877.761719 196.265625 877.441406 195.96875 877.117188 195.679688 C 871.90625 191.035156 866.683594 189.078125 863.550781 190.898438 C 860.542969 192.648438 859.652344 197.839844 860.917969 204.332031 C 861.042969 204.976562 861.1875 205.617188 861.34375 206.25 C 860.605469 206.460938 859.890625 206.6875 859.207031 206.925781 C 853.101562 209.0625 849.199219 212.414062 849.199219 215.890625 C 849.199219 219.480469 853.386719 223.082031 859.75 225.265625 C 860.265625 225.445312 860.785156 225.605469 861.308594 225.757812 C 861.140625 226.441406 860.988281 227.132812 860.855469 227.824219 C 859.648438 234.207031 860.59375 239.273438 863.589844 241.011719 C 866.6875 242.804688 871.886719 240.960938 876.949219 236.515625 C 877.359375 236.15625 877.761719 235.785156 878.152344 235.402344 C 878.660156 235.894531 879.179688 236.371094 879.714844 236.832031 C 884.617188 241.070312 889.460938 242.78125 892.457031 241.039062 C 895.550781 239.238281 896.558594 233.796875 895.25 227.171875 C 895.148438 226.65625 895.03125 226.136719 894.90625 225.625 C 895.269531 225.515625 895.628906 225.40625 895.976562 225.289062 C 902.59375 223.085938 906.894531 219.53125 906.894531 215.890625 C 906.894531 212.402344 902.867188 209.027344 896.636719 206.875 Z M 895.203125 222.9375 C 894.886719 223.042969 894.5625 223.144531 894.234375 223.242188 C 893.503906 220.921875 892.519531 218.453125 891.3125 215.902344 C 892.460938 213.414062 893.410156 210.976562 894.121094 208.671875 C 894.710938 208.84375 895.28125 209.023438 895.835938 209.214844 C 901.175781 211.0625 904.429688 213.789062 904.429688 215.890625 C 904.429688 218.132812 900.914062 221.039062 895.203125 222.9375 Z M 892.832031 227.652344 C 893.410156 230.582031 893.492188 233.230469 893.109375 235.300781 C 892.765625 237.160156 892.074219 238.398438 891.222656 238.898438 C 889.402344 239.953125 885.515625 238.578125 881.320312 234.957031 C 880.824219 234.527344 880.339844 234.085938 879.871094 233.628906 C 881.496094 231.84375 883.121094 229.765625 884.707031 227.460938 C 887.496094 227.214844 890.132812 226.808594 892.519531 226.253906 C 892.636719 226.71875 892.738281 227.183594 892.832031 227.652344 Z M 868.867188 238.714844 C 867.09375 239.34375 865.675781 239.363281 864.824219 238.867188 C 863.003906 237.8125 862.246094 233.742188 863.277344 228.285156 C 863.402344 227.640625 863.542969 227 863.699219 226.363281 C 866.0625 226.886719 868.679688 227.265625 871.472656 227.492188 C 873.070312 229.75 874.742188 231.820312 876.425781 233.636719 C 876.070312 233.984375 875.703125 234.324219 875.328125 234.652344 C 873.089844 236.617188 870.847656 238.011719 868.867188 238.714844 Z M 860.546875 222.925781 C 857.734375 221.960938 855.410156 220.703125 853.816406 219.335938 C 852.386719 218.105469 851.664062 216.882812 851.664062 215.890625 C 851.664062 213.78125 854.796875 211.089844 860.019531 209.261719 C 860.652344 209.042969 861.316406 208.832031 862.007812 208.636719 C 862.726562 210.992188 863.675781 213.460938 864.816406 215.953125 C 863.660156 218.480469 862.699219 220.988281 861.972656 223.375 C 861.492188 223.234375 861.019531 223.085938 860.546875 222.925781 Z M 863.335938 203.855469 C 862.253906 198.292969 862.972656 194.09375 864.785156 193.042969 C 866.714844 191.921875 870.984375 193.519531 875.480469 197.53125 C 875.773438 197.792969 876.0625 198.0625 876.347656 198.332031 C 874.671875 200.140625 873.015625 202.199219 871.433594 204.441406 C 868.71875 204.691406 866.121094 205.097656 863.734375 205.640625 C 863.585938 205.050781 863.453125 204.457031 863.335938 203.855469 Z M 888.222656 210.027344 C 887.660156 209.050781 887.074219 208.082031 886.46875 207.128906 C 888.3125 207.363281 890.074219 207.675781 891.730469 208.054688 C 891.234375 209.652344 890.613281 211.328125 889.882812 213.042969 C 889.351562 212.027344 888.796875 211.023438 888.222656 210.027344 Z M 878.074219 200.101562 C 879.210938 201.339844 880.351562 202.71875 881.46875 204.21875 C 879.199219 204.109375 876.921875 204.109375 874.652344 204.214844 C 875.773438 202.730469 876.921875 201.351562 878.074219 200.101562 Z M 867.859375 210.042969 C 867.292969 211.03125 866.75 212.03125 866.230469 213.039062 C 865.515625 211.332031 864.898438 209.652344 864.398438 208.027344 C 866.042969 207.65625 867.800781 207.355469 869.628906 207.125 C 869.015625 208.085938 868.425781 209.058594 867.859375 210.042969 Z M 869.683594 224.835938 C 867.792969 224.621094 866.011719 224.335938 864.363281 223.976562 C 864.875 222.324219 865.5 220.605469 866.234375 218.863281 C 866.757812 219.875 867.300781 220.871094 867.871094 221.859375 C 868.453125 222.871094 869.058594 223.867188 869.683594 224.835938 Z M 878.144531 231.855469 C 876.976562 230.589844 875.808594 229.191406 874.671875 227.683594 C 875.777344 227.726562 876.902344 227.75 878.046875 227.75 C 879.222656 227.75 880.386719 227.722656 881.53125 227.671875 C 880.40625 229.207031 879.273438 230.609375 878.144531 231.855469 Z M 889.90625 218.773438 C 890.679688 220.539062 891.328125 222.246094 891.84375 223.867188 C 890.171875 224.25 888.367188 224.558594 886.460938 224.789062 C 887.074219 223.820312 887.664062 222.835938 888.234375 221.84375 C 888.8125 220.832031 889.371094 219.808594 889.90625 218.773438 Z M 886.097656 220.605469 C 885.226562 222.128906 884.300781 223.625 883.332031 225.089844 C 881.574219 225.214844 879.808594 225.277344 878.046875 225.277344 C 876.25 225.277344 874.503906 225.21875 872.824219 225.109375 C 871.828125 223.648438 870.886719 222.152344 870.003906 220.617188 C 869.125 219.09375 868.304688 217.539062 867.542969 215.949219 C 868.300781 214.363281 869.121094 212.804688 869.996094 211.28125 C 870.871094 209.753906 871.804688 208.265625 872.792969 206.808594 C 874.507812 206.679688 876.269531 206.609375 878.046875 206.609375 C 879.832031 206.609375 881.59375 206.679688 883.3125 206.8125 C 884.289062 208.261719 885.214844 209.75 886.089844 211.269531 C 886.96875 212.789062 887.800781 214.339844 888.578125 215.914062 C 887.808594 217.507812 886.980469 219.074219 886.097656 220.605469 Z M 891.183594 192.96875 C 893.117188 194.085938 893.867188 198.597656 892.652344 204.515625 C 892.574219 204.894531 892.488281 205.277344 892.394531 205.667969 C 890 205.113281 887.402344 204.699219 884.679688 204.445312 C 883.09375 202.175781 881.449219 200.117188 879.800781 198.332031 C 880.234375 197.914062 880.675781 197.507812 881.128906 197.109375 C 885.386719 193.386719 889.371094 191.917969 891.183594 192.96875 Z M 878.046875 210.71875 C 880.894531 210.71875 883.199219 213.035156 883.199219 215.890625 C 883.199219 218.75 880.894531 221.066406 878.046875 221.066406 C 875.203125 221.066406 872.894531 218.75 872.894531 215.890625 C 872.894531 213.035156 875.203125 210.71875 878.046875 210.71875 Z M 878.046875 210.71875 " fill-opacity="1" fill-rule="nonzero"/></g></svg>