<svg xmlns="http://www.w3.org/2000/svg" xmlns:xlink="http://www.w3.org/1999/xlink" width="1366" zoomAndPan="magnify" viewBox="0 0 1024.5 587.999999" height="784" preserveAspectRatio="xMidYMid meet" version="1.0"><defs><g/><clipPath id="1e7f5a3087"><path d="M 358.570312 123.046875 L 665 123.046875 L 665 464.878906 L 358.570312 464.878906 Z M 358.570312 123.046875 " clip-rule="nonzero"/></clipPath><clipPath id="f627b37c27"><path d="M 361.242188 181.210938 C 358.894531 175.847656 357.703125 170.167969 357.703125 164.3125 C 357.703125 141.066406 376.589844 122.171875 399.820312 122.171875 L 622.167969 122.171875 C 645.398438 122.171875 664.28125 141.066406 664.28125 164.3125 C 664.28125 170.148438 663.089844 175.847656 660.761719 181.191406 L 640.578125 227.347656 L 381.40625 227.347656 L 361.226562 181.210938 Z M 438.902344 358.824219 L 474.433594 440.074219 C 480.792969 454.605469 495.15625 464.003906 511.011719 464.003906 C 526.867188 464.003906 541.230469 454.605469 547.589844 440.074219 L 583.117188 358.824219 L 438.886719 358.824219 Z M 392.917969 253.644531 L 427.410156 332.527344 L 594.609375 332.527344 L 629.105469 253.644531 Z M 392.917969 253.644531 " clip-rule="nonzero"/></clipPath><linearGradient x1="1.175692" gradientTransform="matrix(17.518784, 0, 0, 17.529905, 300.768192, 82.72776)" y1="19.626309" x2="19.626" gradientUnits="userSpaceOnUse" y2="1.175999" id="6d4f3da0d8"><stop stop-opacity="1" stop-color="rgb(32.899475%, 19.999695%, 100%)" offset="0"/><stop stop-opacity="1" stop-color="rgb(32.899475%, 19.999695%, 100%)" offset="0.125"/><stop stop-opacity="1" stop-color="rgb(32.899475%, 19.999695%, 100%)" offset="0.1875"/><stop stop-opacity="1" stop-color="rgb(32.899475%, 19.999695%, 100%)" offset="0.203125"/><stop stop-opacity="1" stop-color="rgb(32.888794%, 20.025635%, 100%)" offset="0.210938"/><stop stop-opacity="1" stop-color="rgb(32.772827%, 20.332336%, 100%)" offset="0.214844"/><stop stop-opacity="1" stop-color="rgb(32.667542%, 20.613098%, 100%)" offset="0.21875"/><stop stop-opacity="1" stop-color="rgb(32.56073%, 20.89386%, 100%)" offset="0.222656"/><stop stop-opacity="1" stop-color="rgb(32.455444%, 21.174622%, 100%)" offset="0.226562"/><stop stop-opacity="1" stop-color="rgb(32.350159%, 21.455383%, 100%)" offset="0.230469"/><stop stop-opacity="1" stop-color="rgb(32.244873%, 21.736145%, 100%)" offset="0.234375"/><stop stop-opacity="1" stop-color="rgb(32.138062%, 22.016907%, 100%)" offset="0.238281"/><stop stop-opacity="1" stop-color="rgb(32.032776%, 22.297668%, 100%)" offset="0.242187"/><stop stop-opacity="1" stop-color="rgb(31.925964%, 22.57843%, 100%)" offset="0.246094"/><stop stop-opacity="1" stop-color="rgb(31.820679%, 22.859192%, 100%)" offset="0.25"/><stop stop-opacity="1" stop-color="rgb(31.713867%, 23.139954%, 100%)" offset="0.253906"/><stop stop-opacity="1" stop-color="rgb(31.608582%, 23.420715%, 100%)" offset="0.257812"/><stop stop-opacity="1" stop-color="rgb(31.503296%, 23.699951%, 100%)" offset="0.261719"/><stop stop-opacity="1" stop-color="rgb(31.39801%, 23.980713%, 100%)" offset="0.265625"/><stop stop-opacity="1" stop-color="rgb(31.291199%, 24.261475%, 100%)" offset="0.269531"/><stop stop-opacity="1" stop-color="rgb(31.185913%, 24.542236%, 100%)" offset="0.273438"/><stop stop-opacity="1" stop-color="rgb(31.079102%, 24.822998%, 100%)" offset="0.277344"/><stop stop-opacity="1" stop-color="rgb(30.973816%, 25.10376%, 100%)" offset="0.28125"/><stop stop-opacity="1" stop-color="rgb(30.86853%, 25.384521%, 100%)" offset="0.285156"/><stop stop-opacity="1" stop-color="rgb(30.763245%, 25.665283%, 100%)" offset="0.289062"/><stop stop-opacity="1" stop-color="rgb(30.656433%, 25.946045%, 100%)" offset="0.292969"/><stop stop-opacity="1" stop-color="rgb(30.551147%, 26.226807%, 100%)" offset="0.296875"/><stop stop-opacity="1" stop-color="rgb(30.444336%, 26.507568%, 100%)" offset="0.300781"/><stop stop-opacity="1" stop-color="rgb(30.33905%, 26.78833%, 100%)" offset="0.304688"/><stop stop-opacity="1" stop-color="rgb(30.232239%, 27.069092%, 100%)" offset="0.308594"/><stop stop-opacity="1" stop-color="rgb(30.126953%, 27.349854%, 100%)" offset="0.3125"/><stop stop-opacity="1" stop-color="rgb(30.021667%, 27.630615%, 100%)" offset="0.316406"/><stop stop-opacity="1" stop-color="rgb(29.916382%, 27.911377%, 100%)" offset="0.320312"/><stop stop-opacity="1" stop-color="rgb(29.80957%, 28.190613%, 100%)" offset="0.324219"/><stop stop-opacity="1" stop-color="rgb(29.704285%, 28.471375%, 100%)" offset="0.328125"/><stop stop-opacity="1" stop-color="rgb(29.597473%, 28.752136%, 100%)" offset="0.332031"/><stop stop-opacity="1" stop-color="rgb(29.492188%, 29.032898%, 100%)" offset="0.335937"/><stop stop-opacity="1" stop-color="rgb(29.386902%, 29.31366%, 100%)" offset="0.339844"/><stop stop-opacity="1" stop-color="rgb(29.281616%, 29.594421%, 100%)" offset="0.34375"/><stop stop-opacity="1" stop-color="rgb(29.174805%, 29.875183%, 100%)" offset="0.347656"/><stop stop-opacity="1" stop-color="rgb(29.069519%, 30.155945%, 100%)" offset="0.351562"/><stop stop-opacity="1" stop-color="rgb(28.962708%, 30.436707%, 100%)" offset="0.355469"/><stop stop-opacity="1" stop-color="rgb(28.857422%, 30.717468%, 100%)" offset="0.359375"/><stop stop-opacity="1" stop-color="rgb(28.75061%, 30.99823%, 100%)" offset="0.363281"/><stop stop-opacity="1" stop-color="rgb(28.645325%, 31.278992%, 100%)" offset="0.367187"/><stop stop-opacity="1" stop-color="rgb(28.540039%, 31.559753%, 100%)" offset="0.371094"/><stop stop-opacity="1" stop-color="rgb(28.434753%, 31.840515%, 100%)" offset="0.375"/><stop stop-opacity="1" stop-color="rgb(28.327942%, 32.121277%, 100%)" offset="0.378906"/><stop stop-opacity="1" stop-color="rgb(28.222656%, 32.402039%, 100%)" offset="0.382812"/><stop stop-opacity="1" stop-color="rgb(28.115845%, 32.6828%, 100%)" offset="0.386719"/><stop stop-opacity="1" stop-color="rgb(28.010559%, 32.963562%, 100%)" offset="0.390625"/><stop stop-opacity="1" stop-color="rgb(27.905273%, 33.242798%, 100%)" offset="0.394531"/><stop stop-opacity="1" stop-color="rgb(27.799988%, 33.52356%, 100%)" offset="0.398438"/><stop stop-opacity="1" stop-color="rgb(27.693176%, 33.804321%, 100%)" offset="0.402344"/><stop stop-opacity="1" stop-color="rgb(27.587891%, 34.085083%, 100%)" offset="0.40625"/><stop stop-opacity="1" stop-color="rgb(27.481079%, 34.365845%, 100%)" offset="0.410156"/><stop stop-opacity="1" stop-color="rgb(27.375793%, 34.646606%, 100%)" offset="0.414062"/><stop stop-opacity="1" stop-color="rgb(27.268982%, 34.927368%, 100%)" offset="0.417969"/><stop stop-opacity="1" stop-color="rgb(27.163696%, 35.20813%, 100%)" offset="0.421875"/><stop stop-opacity="1" stop-color="rgb(27.058411%, 35.488892%, 100%)" offset="0.425781"/><stop stop-opacity="1" stop-color="rgb(26.953125%, 35.769653%, 100%)" offset="0.429687"/><stop stop-opacity="1" stop-color="rgb(26.846313%, 36.050415%, 100%)" offset="0.433594"/><stop stop-opacity="1" stop-color="rgb(26.741028%, 36.331177%, 100%)" offset="0.4375"/><stop stop-opacity="1" stop-color="rgb(26.634216%, 36.611938%, 100%)" offset="0.441406"/><stop stop-opacity="1" stop-color="rgb(26.528931%, 36.8927%, 100%)" offset="0.445312"/><stop stop-opacity="1" stop-color="rgb(26.422119%, 37.173462%, 100%)" offset="0.449219"/><stop stop-opacity="1" stop-color="rgb(26.316833%, 37.454224%, 100%)" offset="0.453125"/><stop stop-opacity="1" stop-color="rgb(26.211548%, 37.733459%, 100%)" offset="0.457031"/><stop stop-opacity="1" stop-color="rgb(26.106262%, 38.014221%, 100%)" offset="0.460937"/><stop stop-opacity="1" stop-color="rgb(25.999451%, 38.294983%, 100%)" offset="0.464844"/><stop stop-opacity="1" stop-color="rgb(25.894165%, 38.575745%, 100%)" offset="0.46875"/><stop stop-opacity="1" stop-color="rgb(25.787354%, 38.856506%, 100%)" offset="0.472656"/><stop stop-opacity="1" stop-color="rgb(25.682068%, 39.137268%, 100%)" offset="0.476562"/><stop stop-opacity="1" stop-color="rgb(25.576782%, 39.41803%, 100%)" offset="0.480469"/><stop stop-opacity="1" stop-color="rgb(25.471497%, 39.698792%, 100%)" offset="0.484375"/><stop stop-opacity="1" stop-color="rgb(25.364685%, 39.979553%, 100%)" offset="0.488281"/><stop stop-opacity="1" stop-color="rgb(25.259399%, 40.260315%, 100%)" offset="0.492187"/><stop stop-opacity="1" stop-color="rgb(25.152588%, 40.541077%, 100%)" offset="0.496094"/><stop stop-opacity="1" stop-color="rgb(25.047302%, 40.821838%, 100%)" offset="0.5"/><stop stop-opacity="1" stop-color="rgb(24.940491%, 41.1026%, 100%)" offset="0.503906"/><stop stop-opacity="1" stop-color="rgb(24.835205%, 41.383362%, 100%)" offset="0.507812"/><stop stop-opacity="1" stop-color="rgb(24.729919%, 41.664124%, 100%)" offset="0.511719"/><stop stop-opacity="1" stop-color="rgb(24.624634%, 41.944885%, 100%)" offset="0.515625"/><stop stop-opacity="1" stop-color="rgb(24.517822%, 42.224121%, 100%)" offset="0.519531"/><stop stop-opacity="1" stop-color="rgb(24.412537%, 42.504883%, 100%)" offset="0.523438"/><stop stop-opacity="1" stop-color="rgb(24.305725%, 42.785645%, 100%)" offset="0.527344"/><stop stop-opacity="1" stop-color="rgb(24.200439%, 43.066406%, 100%)" offset="0.53125"/><stop stop-opacity="1" stop-color="rgb(24.095154%, 43.347168%, 100%)" offset="0.535156"/><stop stop-opacity="1" stop-color="rgb(23.989868%, 43.62793%, 100%)" offset="0.539062"/><stop stop-opacity="1" stop-color="rgb(23.883057%, 43.908691%, 100%)" offset="0.542969"/><stop stop-opacity="1" stop-color="rgb(23.777771%, 44.189453%, 100%)" offset="0.546875"/><stop stop-opacity="1" stop-color="rgb(23.670959%, 44.470215%, 100%)" offset="0.550781"/><stop stop-opacity="1" stop-color="rgb(23.565674%, 44.750977%, 100%)" offset="0.554688"/><stop stop-opacity="1" stop-color="rgb(23.458862%, 45.031738%, 100%)" offset="0.558594"/><stop stop-opacity="1" stop-color="rgb(23.353577%, 45.3125%, 100%)" offset="0.5625"/><stop stop-opacity="1" stop-color="rgb(23.248291%, 45.593262%, 100%)" offset="0.566406"/><stop stop-opacity="1" stop-color="rgb(23.143005%, 45.874023%, 100%)" offset="0.570312"/><stop stop-opacity="1" stop-color="rgb(23.036194%, 46.154785%, 100%)" offset="0.574219"/><stop stop-opacity="1" stop-color="rgb(22.930908%, 46.435547%, 100%)" offset="0.578125"/><stop stop-opacity="1" stop-color="rgb(22.824097%, 46.716309%, 100%)" offset="0.582031"/><stop stop-opacity="1" stop-color="rgb(22.718811%, 46.99707%, 100%)" offset="0.585938"/><stop stop-opacity="1" stop-color="rgb(22.613525%, 47.276306%, 100%)" offset="0.589844"/><stop stop-opacity="1" stop-color="rgb(22.50824%, 47.557068%, 100%)" offset="0.59375"/><stop stop-opacity="1" stop-color="rgb(22.401428%, 47.83783%, 100%)" offset="0.597656"/><stop stop-opacity="1" stop-color="rgb(22.296143%, 48.118591%, 100%)" offset="0.601562"/><stop stop-opacity="1" stop-color="rgb(22.189331%, 48.399353%, 100%)" offset="0.605469"/><stop stop-opacity="1" stop-color="rgb(22.084045%, 48.680115%, 100%)" offset="0.609375"/><stop stop-opacity="1" stop-color="rgb(21.977234%, 48.960876%, 100%)" offset="0.613281"/><stop stop-opacity="1" stop-color="rgb(21.871948%, 49.241638%, 100%)" offset="0.617188"/><stop stop-opacity="1" stop-color="rgb(21.766663%, 49.5224%, 100%)" offset="0.621094"/><stop stop-opacity="1" stop-color="rgb(21.661377%, 49.803162%, 100%)" offset="0.625"/><stop stop-opacity="1" stop-color="rgb(21.554565%, 50.083923%, 100%)" offset="0.628906"/><stop stop-opacity="1" stop-color="rgb(21.44928%, 50.364685%, 100%)" offset="0.632812"/><stop stop-opacity="1" stop-color="rgb(21.342468%, 50.645447%, 100%)" offset="0.636719"/><stop stop-opacity="1" stop-color="rgb(21.237183%, 50.926208%, 100%)" offset="0.640625"/><stop stop-opacity="1" stop-color="rgb(21.130371%, 51.20697%, 100%)" offset="0.644531"/><stop stop-opacity="1" stop-color="rgb(21.025085%, 51.487732%, 100%)" offset="0.648438"/><stop stop-opacity="1" stop-color="rgb(20.9198%, 51.766968%, 100%)" offset="0.652344"/><stop stop-opacity="1" stop-color="rgb(20.814514%, 52.047729%, 100%)" offset="0.65625"/><stop stop-opacity="1" stop-color="rgb(20.707703%, 52.328491%, 100%)" offset="0.660156"/><stop stop-opacity="1" stop-color="rgb(20.602417%, 52.609253%, 100%)" offset="0.664062"/><stop stop-opacity="1" stop-color="rgb(20.495605%, 52.890015%, 100%)" offset="0.667969"/><stop stop-opacity="1" stop-color="rgb(20.39032%, 53.170776%, 100%)" offset="0.671875"/><stop stop-opacity="1" stop-color="rgb(20.285034%, 53.451538%, 100%)" offset="0.675781"/><stop stop-opacity="1" stop-color="rgb(20.179749%, 53.7323%, 100%)" offset="0.679688"/><stop stop-opacity="1" stop-color="rgb(20.072937%, 54.013062%, 100%)" offset="0.683594"/><stop stop-opacity="1" stop-color="rgb(19.967651%, 54.293823%, 100%)" offset="0.6875"/><stop stop-opacity="1" stop-color="rgb(19.86084%, 54.574585%, 100%)" offset="0.691406"/><stop stop-opacity="1" stop-color="rgb(19.755554%, 54.855347%, 100%)" offset="0.695312"/><stop stop-opacity="1" stop-color="rgb(19.648743%, 55.136108%, 100%)" offset="0.699219"/><stop stop-opacity="1" stop-color="rgb(19.543457%, 55.41687%, 100%)" offset="0.703125"/><stop stop-opacity="1" stop-color="rgb(19.438171%, 55.697632%, 100%)" offset="0.707031"/><stop stop-opacity="1" stop-color="rgb(19.332886%, 55.978394%, 100%)" offset="0.710938"/><stop stop-opacity="1" stop-color="rgb(19.226074%, 56.257629%, 100%)" offset="0.714844"/><stop stop-opacity="1" stop-color="rgb(19.120789%, 56.538391%, 100%)" offset="0.71875"/><stop stop-opacity="1" stop-color="rgb(19.013977%, 56.819153%, 100%)" offset="0.722656"/><stop stop-opacity="1" stop-color="rgb(18.908691%, 57.099915%, 100%)" offset="0.726562"/><stop stop-opacity="1" stop-color="rgb(18.803406%, 57.380676%, 100%)" offset="0.730469"/><stop stop-opacity="1" stop-color="rgb(18.69812%, 57.661438%, 100%)" offset="0.734375"/><stop stop-opacity="1" stop-color="rgb(18.591309%, 57.9422%, 100%)" offset="0.738281"/><stop stop-opacity="1" stop-color="rgb(18.486023%, 58.222961%, 100%)" offset="0.742188"/><stop stop-opacity="1" stop-color="rgb(18.379211%, 58.503723%, 100%)" offset="0.746094"/><stop stop-opacity="1" stop-color="rgb(18.273926%, 58.784485%, 100%)" offset="0.75"/><stop stop-opacity="1" stop-color="rgb(18.167114%, 59.065247%, 100%)" offset="0.753906"/><stop stop-opacity="1" stop-color="rgb(18.061829%, 59.346008%, 100%)" offset="0.757812"/><stop stop-opacity="1" stop-color="rgb(17.956543%, 59.62677%, 100%)" offset="0.761719"/><stop stop-opacity="1" stop-color="rgb(17.851257%, 59.907532%, 100%)" offset="0.765625"/><stop stop-opacity="1" stop-color="rgb(17.744446%, 60.188293%, 100%)" offset="0.769531"/><stop stop-opacity="1" stop-color="rgb(17.63916%, 60.469055%, 100%)" offset="0.773437"/><stop stop-opacity="1" stop-color="rgb(17.532349%, 60.749817%, 100%)" offset="0.777344"/><stop stop-opacity="1" stop-color="rgb(17.427063%, 61.030579%, 100%)" offset="0.78125"/><stop stop-opacity="1" stop-color="rgb(17.321777%, 61.309814%, 100%)" offset="0.785156"/><stop stop-opacity="1" stop-color="rgb(17.216492%, 61.590576%, 100%)" offset="0.789062"/><stop stop-opacity="1" stop-color="rgb(17.10968%, 61.871338%, 100%)" offset="0.792969"/><stop stop-opacity="1" stop-color="rgb(17.004395%, 62.1521%, 100%)" offset="0.796875"/><stop stop-opacity="1" stop-color="rgb(16.897583%, 62.432861%, 100%)" offset="0.800781"/><stop stop-opacity="1" stop-color="rgb(16.792297%, 62.713623%, 100%)" offset="0.804688"/><stop stop-opacity="1" stop-color="rgb(16.685486%, 62.994385%, 100%)" offset="0.808594"/><stop stop-opacity="1" stop-color="rgb(16.5802%, 63.275146%, 100%)" offset="0.8125"/><stop stop-opacity="1" stop-color="rgb(16.474915%, 63.555908%, 100%)" offset="0.816406"/><stop stop-opacity="1" stop-color="rgb(16.369629%, 63.83667%, 100%)" offset="0.820312"/><stop stop-opacity="1" stop-color="rgb(16.262817%, 64.117432%, 100%)" offset="0.824219"/><stop stop-opacity="1" stop-color="rgb(16.157532%, 64.398193%, 100%)" offset="0.828125"/><stop stop-opacity="1" stop-color="rgb(16.05072%, 64.678955%, 100%)" offset="0.832031"/><stop stop-opacity="1" stop-color="rgb(15.945435%, 64.959717%, 100%)" offset="0.835938"/><stop stop-opacity="1" stop-color="rgb(15.838623%, 65.240479%, 100%)" offset="0.839844"/><stop stop-opacity="1" stop-color="rgb(15.733337%, 65.52124%, 100%)" offset="0.84375"/><stop stop-opacity="1" stop-color="rgb(15.628052%, 65.800476%, 100%)" offset="0.847656"/><stop stop-opacity="1" stop-color="rgb(15.522766%, 66.081238%, 100%)" offset="0.851562"/><stop stop-opacity="1" stop-color="rgb(15.415955%, 66.362%, 100%)" offset="0.855469"/><stop stop-opacity="1" stop-color="rgb(15.310669%, 66.642761%, 100%)" offset="0.859375"/><stop stop-opacity="1" stop-color="rgb(15.203857%, 66.923523%, 100%)" offset="0.863281"/><stop stop-opacity="1" stop-color="rgb(15.098572%, 67.204285%, 100%)" offset="0.867188"/><stop stop-opacity="1" stop-color="rgb(14.993286%, 67.485046%, 100%)" offset="0.871094"/><stop stop-opacity="1" stop-color="rgb(14.888%, 67.765808%, 100%)" offset="0.875"/><stop stop-opacity="1" stop-color="rgb(14.781189%, 68.04657%, 100%)" offset="0.878906"/><stop stop-opacity="1" stop-color="rgb(14.675903%, 68.327332%, 100%)" offset="0.882812"/><stop stop-opacity="1" stop-color="rgb(14.569092%, 68.608093%, 100%)" offset="0.886719"/><stop stop-opacity="1" stop-color="rgb(14.463806%, 68.888855%, 100%)" offset="0.890625"/><stop stop-opacity="1" stop-color="rgb(14.356995%, 69.169617%, 100%)" offset="0.894531"/><stop stop-opacity="1" stop-color="rgb(14.251709%, 69.450378%, 100%)" offset="0.898438"/><stop stop-opacity="1" stop-color="rgb(14.146423%, 69.73114%, 100%)" offset="0.902344"/><stop stop-opacity="1" stop-color="rgb(14.041138%, 70.011902%, 100%)" offset="0.90625"/><stop stop-opacity="1" stop-color="rgb(13.934326%, 70.291138%, 100%)" offset="0.910156"/><stop stop-opacity="1" stop-color="rgb(13.829041%, 70.571899%, 100%)" offset="0.914062"/><stop stop-opacity="1" stop-color="rgb(13.722229%, 70.852661%, 100%)" offset="0.917969"/><stop stop-opacity="1" stop-color="rgb(13.616943%, 71.133423%, 100%)" offset="0.921875"/><stop stop-opacity="1" stop-color="rgb(13.511658%, 71.414185%, 100%)" offset="0.925781"/><stop stop-opacity="1" stop-color="rgb(13.406372%, 71.694946%, 100%)" offset="0.929688"/><stop stop-opacity="1" stop-color="rgb(13.299561%, 71.975708%, 100%)" offset="0.933594"/><stop stop-opacity="1" stop-color="rgb(13.194275%, 72.25647%, 100%)" offset="0.9375"/><stop stop-opacity="1" stop-color="rgb(13.087463%, 72.537231%, 100%)" offset="0.941406"/><stop stop-opacity="1" stop-color="rgb(12.982178%, 72.817993%, 100%)" offset="0.945312"/><stop stop-opacity="1" stop-color="rgb(12.875366%, 73.098755%, 100%)" offset="0.949219"/><stop stop-opacity="1" stop-color="rgb(12.770081%, 73.379517%, 100%)" offset="0.953125"/><stop stop-opacity="1" stop-color="rgb(12.664795%, 73.660278%, 100%)" offset="0.957031"/><stop stop-opacity="1" stop-color="rgb(12.559509%, 73.94104%, 100%)" offset="0.960937"/><stop stop-opacity="1" stop-color="rgb(12.528992%, 74.020386%, 100%)" offset="0.96875"/><stop stop-opacity="1" stop-color="rgb(12.5%, 74.099731%, 100%)" offset="1"/></linearGradient></defs><g clip-path="url(#1e7f5a3087)"><g clip-path="url(#f627b37c27)"><path fill="url(#6d4f3da0d8)" d="M 358.570312 123.046875 L 358.570312 464.003906 L 664.28125 464.003906 L 664.28125 123.046875 Z M 358.570312 123.046875 " fill-rule="nonzero"/></g></g><g fill="#ffffff" fill-opacity="1"><g transform="translate(369.075709, 174.085759)"><g><path d="M 10.921875 -15.046875 L 10.921875 -13.453125 L 6.828125 -13.453125 L 6.828125 0 L 4.859375 0 L 4.859375 -13.453125 L 0.734375 -13.453125 L 0.734375 -15.046875 Z M 10.921875 -15.046875 "/></g></g></g><g fill="#ffffff" fill-opacity="1"><g transform="translate(380.754831, 174.085759)"><g><path d="M 7.53125 -12.046875 C 8.425781 -12.046875 9.234375 -11.851562 9.953125 -11.46875 C 10.671875 -11.09375 11.234375 -10.519531 11.640625 -9.75 C 12.054688 -8.988281 12.265625 -8.0625 12.265625 -6.96875 L 12.265625 0 L 10.328125 0 L 10.328125 -6.6875 C 10.328125 -7.875 10.03125 -8.78125 9.4375 -9.40625 C 8.84375 -10.03125 8.035156 -10.34375 7.015625 -10.34375 C 5.984375 -10.34375 5.160156 -10.019531 4.546875 -9.375 C 3.929688 -8.726562 3.625 -7.785156 3.625 -6.546875 L 3.625 0 L 1.65625 0 L 1.65625 -15.984375 L 3.625 -15.984375 L 3.625 -10.15625 C 4.007812 -10.757812 4.546875 -11.222656 5.234375 -11.546875 C 5.921875 -11.878906 6.6875 -12.046875 7.53125 -12.046875 Z M 7.53125 -12.046875 "/></g></g></g><g fill="#ffffff" fill-opacity="1"><g transform="translate(394.571163, 174.085759)"><g><path d="M 6.828125 0.1875 C 5.710938 0.1875 4.707031 -0.0625 3.8125 -0.5625 C 2.914062 -1.0625 2.207031 -1.773438 1.6875 -2.703125 C 1.175781 -3.640625 0.921875 -4.71875 0.921875 -5.9375 C 0.921875 -7.144531 1.179688 -8.210938 1.703125 -9.140625 C 2.234375 -10.066406 2.953125 -10.78125 3.859375 -11.28125 C 4.765625 -11.78125 5.78125 -12.03125 6.90625 -12.03125 C 8.03125 -12.03125 9.046875 -11.78125 9.953125 -11.28125 C 10.859375 -10.78125 11.570312 -10.070312 12.09375 -9.15625 C 12.625 -8.238281 12.890625 -7.164062 12.890625 -5.9375 C 12.890625 -4.71875 12.617188 -3.640625 12.078125 -2.703125 C 11.535156 -1.773438 10.804688 -1.0625 9.890625 -0.5625 C 8.972656 -0.0625 7.953125 0.1875 6.828125 0.1875 Z M 6.828125 -1.53125 C 7.523438 -1.53125 8.179688 -1.695312 8.796875 -2.03125 C 9.421875 -2.363281 9.925781 -2.859375 10.3125 -3.515625 C 10.695312 -4.179688 10.890625 -4.988281 10.890625 -5.9375 C 10.890625 -6.882812 10.703125 -7.6875 10.328125 -8.34375 C 9.953125 -9.007812 9.460938 -9.503906 8.859375 -9.828125 C 8.253906 -10.160156 7.597656 -10.328125 6.890625 -10.328125 C 6.171875 -10.328125 5.507812 -10.160156 4.90625 -9.828125 C 4.3125 -9.503906 3.832031 -9.007812 3.46875 -8.34375 C 3.113281 -7.6875 2.9375 -6.882812 2.9375 -5.9375 C 2.9375 -4.96875 3.113281 -4.148438 3.46875 -3.484375 C 3.820312 -2.828125 4.289062 -2.335938 4.875 -2.015625 C 5.46875 -1.691406 6.117188 -1.53125 6.828125 -1.53125 Z M 6.828125 -1.53125 "/></g></g></g><g fill="#ffffff" fill-opacity="1"><g transform="translate(408.387496, 174.085759)"><g><path d="M 12.15625 -11.828125 L 12.15625 0 L 10.1875 0 L 10.1875 -1.75 C 9.8125 -1.144531 9.289062 -0.671875 8.625 -0.328125 C 7.957031 0.00390625 7.21875 0.171875 6.40625 0.171875 C 5.488281 0.171875 4.660156 -0.015625 3.921875 -0.390625 C 3.191406 -0.773438 2.613281 -1.347656 2.1875 -2.109375 C 1.769531 -2.878906 1.5625 -3.8125 1.5625 -4.90625 L 1.5625 -11.828125 L 3.5 -11.828125 L 3.5 -5.15625 C 3.5 -3.988281 3.789062 -3.09375 4.375 -2.46875 C 4.96875 -1.84375 5.773438 -1.53125 6.796875 -1.53125 C 7.847656 -1.53125 8.675781 -1.851562 9.28125 -2.5 C 9.882812 -3.15625 10.1875 -4.097656 10.1875 -5.328125 L 10.1875 -11.828125 Z M 12.15625 -11.828125 "/></g></g></g><g fill="#ffffff" fill-opacity="1"><g transform="translate(422.203828, 174.085759)"><g><path d="M 5.859375 0.1875 C 4.941406 0.1875 4.125 0.0351562 3.40625 -0.265625 C 2.6875 -0.578125 2.117188 -1.007812 1.703125 -1.5625 C 1.285156 -2.113281 1.054688 -2.753906 1.015625 -3.484375 L 3.046875 -3.484375 C 3.097656 -2.890625 3.375 -2.40625 3.875 -2.03125 C 4.375 -1.65625 5.023438 -1.46875 5.828125 -1.46875 C 6.578125 -1.46875 7.164062 -1.632812 7.59375 -1.96875 C 8.03125 -2.300781 8.25 -2.71875 8.25 -3.21875 C 8.25 -3.738281 8.015625 -4.125 7.546875 -4.375 C 7.085938 -4.625 6.378906 -4.875 5.421875 -5.125 C 4.546875 -5.351562 3.828125 -5.582031 3.265625 -5.8125 C 2.710938 -6.050781 2.238281 -6.40625 1.84375 -6.875 C 1.445312 -7.34375 1.25 -7.957031 1.25 -8.71875 C 1.25 -9.320312 1.425781 -9.875 1.78125 -10.375 C 2.144531 -10.882812 2.65625 -11.285156 3.3125 -11.578125 C 3.976562 -11.878906 4.738281 -12.03125 5.59375 -12.03125 C 6.90625 -12.03125 7.960938 -11.695312 8.765625 -11.03125 C 9.566406 -10.375 10 -9.46875 10.0625 -8.3125 L 8.09375 -8.3125 C 8.050781 -8.925781 7.800781 -9.421875 7.34375 -9.796875 C 6.894531 -10.171875 6.289062 -10.359375 5.53125 -10.359375 C 4.820312 -10.359375 4.257812 -10.207031 3.84375 -9.90625 C 3.425781 -9.601562 3.21875 -9.207031 3.21875 -8.71875 C 3.21875 -8.332031 3.34375 -8.015625 3.59375 -7.765625 C 3.84375 -7.515625 4.160156 -7.3125 4.546875 -7.15625 C 4.929688 -7.007812 5.457031 -6.84375 6.125 -6.65625 C 6.976562 -6.425781 7.671875 -6.195312 8.203125 -5.96875 C 8.734375 -5.75 9.191406 -5.414062 9.578125 -4.96875 C 9.960938 -4.519531 10.160156 -3.9375 10.171875 -3.21875 C 10.171875 -2.570312 9.988281 -1.988281 9.625 -1.46875 C 9.269531 -0.945312 8.765625 -0.539062 8.109375 -0.25 C 7.453125 0.0390625 6.703125 0.1875 5.859375 0.1875 Z M 5.859375 0.1875 "/></g></g></g><g fill="#ffffff" fill-opacity="1"><g transform="translate(433.472775, 174.085759)"><g><path d="M 0.921875 -5.953125 C 0.921875 -7.171875 1.164062 -8.234375 1.65625 -9.140625 C 2.144531 -10.054688 2.816406 -10.765625 3.671875 -11.265625 C 4.535156 -11.773438 5.492188 -12.03125 6.546875 -12.03125 C 7.578125 -12.03125 8.472656 -11.804688 9.234375 -11.359375 C 10.003906 -10.910156 10.578125 -10.347656 10.953125 -9.671875 L 10.953125 -11.828125 L 12.9375 -11.828125 L 12.9375 0 L 10.953125 0 L 10.953125 -2.203125 C 10.554688 -1.515625 9.972656 -0.941406 9.203125 -0.484375 C 8.429688 -0.0351562 7.535156 0.1875 6.515625 0.1875 C 5.460938 0.1875 4.507812 -0.0664062 3.65625 -0.578125 C 2.8125 -1.097656 2.144531 -1.828125 1.65625 -2.765625 C 1.164062 -3.703125 0.921875 -4.765625 0.921875 -5.953125 Z M 10.953125 -5.9375 C 10.953125 -6.832031 10.769531 -7.609375 10.40625 -8.265625 C 10.050781 -8.929688 9.566406 -9.441406 8.953125 -9.796875 C 8.335938 -10.148438 7.664062 -10.328125 6.9375 -10.328125 C 6.195312 -10.328125 5.523438 -10.148438 4.921875 -9.796875 C 4.316406 -9.453125 3.832031 -8.945312 3.46875 -8.28125 C 3.113281 -7.625 2.9375 -6.847656 2.9375 -5.953125 C 2.9375 -5.046875 3.113281 -4.257812 3.46875 -3.59375 C 3.832031 -2.925781 4.316406 -2.414062 4.921875 -2.0625 C 5.523438 -1.707031 6.195312 -1.53125 6.9375 -1.53125 C 7.664062 -1.53125 8.335938 -1.707031 8.953125 -2.0625 C 9.566406 -2.414062 10.050781 -2.925781 10.40625 -3.59375 C 10.769531 -4.257812 10.953125 -5.039062 10.953125 -5.9375 Z M 10.953125 -5.9375 "/></g></g></g><g fill="#ffffff" fill-opacity="1"><g transform="translate(448.066273, 174.085759)"><g><path d="M 7.421875 -12.046875 C 8.867188 -12.046875 10.035156 -11.609375 10.921875 -10.734375 C 11.816406 -9.867188 12.265625 -8.613281 12.265625 -6.96875 L 12.265625 0 L 10.328125 0 L 10.328125 -6.6875 C 10.328125 -7.875 10.03125 -8.78125 9.4375 -9.40625 C 8.84375 -10.03125 8.035156 -10.34375 7.015625 -10.34375 C 5.984375 -10.34375 5.160156 -10.019531 4.546875 -9.375 C 3.929688 -8.726562 3.625 -7.785156 3.625 -6.546875 L 3.625 0 L 1.65625 0 L 1.65625 -11.828125 L 3.625 -11.828125 L 3.625 -10.15625 C 4.007812 -10.757812 4.535156 -11.222656 5.203125 -11.546875 C 5.878906 -11.878906 6.617188 -12.046875 7.421875 -12.046875 Z M 7.421875 -12.046875 "/></g></g></g><g fill="#ffffff" fill-opacity="1"><g transform="translate(461.882605, 174.085759)"><g><path d="M 0.921875 -5.953125 C 0.921875 -7.171875 1.164062 -8.234375 1.65625 -9.140625 C 2.144531 -10.054688 2.816406 -10.765625 3.671875 -11.265625 C 4.535156 -11.773438 5.5 -12.03125 6.5625 -12.03125 C 7.488281 -12.03125 8.347656 -11.816406 9.140625 -11.390625 C 9.929688 -10.960938 10.535156 -10.40625 10.953125 -9.71875 L 10.953125 -15.984375 L 12.9375 -15.984375 L 12.9375 0 L 10.953125 0 L 10.953125 -2.21875 C 10.554688 -1.519531 9.976562 -0.941406 9.21875 -0.484375 C 8.457031 -0.0351562 7.566406 0.1875 6.546875 0.1875 C 5.492188 0.1875 4.535156 -0.0664062 3.671875 -0.578125 C 2.816406 -1.097656 2.144531 -1.828125 1.65625 -2.765625 C 1.164062 -3.703125 0.921875 -4.765625 0.921875 -5.953125 Z M 10.953125 -5.9375 C 10.953125 -6.832031 10.769531 -7.609375 10.40625 -8.265625 C 10.050781 -8.929688 9.566406 -9.441406 8.953125 -9.796875 C 8.335938 -10.148438 7.664062 -10.328125 6.9375 -10.328125 C 6.195312 -10.328125 5.523438 -10.148438 4.921875 -9.796875 C 4.316406 -9.453125 3.832031 -8.945312 3.46875 -8.28125 C 3.113281 -7.625 2.9375 -6.847656 2.9375 -5.953125 C 2.9375 -5.046875 3.113281 -4.257812 3.46875 -3.59375 C 3.832031 -2.925781 4.316406 -2.414062 4.921875 -2.0625 C 5.523438 -1.707031 6.195312 -1.53125 6.9375 -1.53125 C 7.664062 -1.53125 8.335938 -1.707031 8.953125 -2.0625 C 9.566406 -2.414062 10.050781 -2.925781 10.40625 -3.59375 C 10.769531 -4.257812 10.953125 -5.039062 10.953125 -5.9375 Z M 10.953125 -5.9375 "/></g></g></g><g fill="#ffffff" fill-opacity="1"><g transform="translate(476.476103, 174.085759)"><g><path d="M 5.859375 0.1875 C 4.941406 0.1875 4.125 0.0351562 3.40625 -0.265625 C 2.6875 -0.578125 2.117188 -1.007812 1.703125 -1.5625 C 1.285156 -2.113281 1.054688 -2.753906 1.015625 -3.484375 L 3.046875 -3.484375 C 3.097656 -2.890625 3.375 -2.40625 3.875 -2.03125 C 4.375 -1.65625 5.023438 -1.46875 5.828125 -1.46875 C 6.578125 -1.46875 7.164062 -1.632812 7.59375 -1.96875 C 8.03125 -2.300781 8.25 -2.71875 8.25 -3.21875 C 8.25 -3.738281 8.015625 -4.125 7.546875 -4.375 C 7.085938 -4.625 6.378906 -4.875 5.421875 -5.125 C 4.546875 -5.351562 3.828125 -5.582031 3.265625 -5.8125 C 2.710938 -6.050781 2.238281 -6.40625 1.84375 -6.875 C 1.445312 -7.34375 1.25 -7.957031 1.25 -8.71875 C 1.25 -9.320312 1.425781 -9.875 1.78125 -10.375 C 2.144531 -10.882812 2.65625 -11.285156 3.3125 -11.578125 C 3.976562 -11.878906 4.738281 -12.03125 5.59375 -12.03125 C 6.90625 -12.03125 7.960938 -11.695312 8.765625 -11.03125 C 9.566406 -10.375 10 -9.46875 10.0625 -8.3125 L 8.09375 -8.3125 C 8.050781 -8.925781 7.800781 -9.421875 7.34375 -9.796875 C 6.894531 -10.171875 6.289062 -10.359375 5.53125 -10.359375 C 4.820312 -10.359375 4.257812 -10.207031 3.84375 -9.90625 C 3.425781 -9.601562 3.21875 -9.207031 3.21875 -8.71875 C 3.21875 -8.332031 3.34375 -8.015625 3.59375 -7.765625 C 3.84375 -7.515625 4.160156 -7.3125 4.546875 -7.15625 C 4.929688 -7.007812 5.457031 -6.84375 6.125 -6.65625 C 6.976562 -6.425781 7.671875 -6.195312 8.203125 -5.96875 C 8.734375 -5.75 9.191406 -5.414062 9.578125 -4.96875 C 9.960938 -4.519531 10.160156 -3.9375 10.171875 -3.21875 C 10.171875 -2.570312 9.988281 -1.988281 9.625 -1.46875 C 9.269531 -0.945312 8.765625 -0.539062 8.109375 -0.25 C 7.453125 0.0390625 6.703125 0.1875 5.859375 0.1875 Z M 5.859375 0.1875 "/></g></g></g><g fill="#ffffff" fill-opacity="1"><g transform="translate(487.74505, 174.085759)"><g/></g></g><g fill="#ffffff" fill-opacity="1"><g transform="translate(493.50905, 174.085759)"><g><path d="M 6.828125 0.1875 C 5.710938 0.1875 4.707031 -0.0625 3.8125 -0.5625 C 2.914062 -1.0625 2.207031 -1.773438 1.6875 -2.703125 C 1.175781 -3.640625 0.921875 -4.71875 0.921875 -5.9375 C 0.921875 -7.144531 1.179688 -8.210938 1.703125 -9.140625 C 2.234375 -10.066406 2.953125 -10.78125 3.859375 -11.28125 C 4.765625 -11.78125 5.78125 -12.03125 6.90625 -12.03125 C 8.03125 -12.03125 9.046875 -11.78125 9.953125 -11.28125 C 10.859375 -10.78125 11.570312 -10.070312 12.09375 -9.15625 C 12.625 -8.238281 12.890625 -7.164062 12.890625 -5.9375 C 12.890625 -4.71875 12.617188 -3.640625 12.078125 -2.703125 C 11.535156 -1.773438 10.804688 -1.0625 9.890625 -0.5625 C 8.972656 -0.0625 7.953125 0.1875 6.828125 0.1875 Z M 6.828125 -1.53125 C 7.523438 -1.53125 8.179688 -1.695312 8.796875 -2.03125 C 9.421875 -2.363281 9.925781 -2.859375 10.3125 -3.515625 C 10.695312 -4.179688 10.890625 -4.988281 10.890625 -5.9375 C 10.890625 -6.882812 10.703125 -7.6875 10.328125 -8.34375 C 9.953125 -9.007812 9.460938 -9.503906 8.859375 -9.828125 C 8.253906 -10.160156 7.597656 -10.328125 6.890625 -10.328125 C 6.171875 -10.328125 5.507812 -10.160156 4.90625 -9.828125 C 4.3125 -9.503906 3.832031 -9.007812 3.46875 -8.34375 C 3.113281 -7.6875 2.9375 -6.882812 2.9375 -5.9375 C 2.9375 -4.96875 3.113281 -4.148438 3.46875 -3.484375 C 3.820312 -2.828125 4.289062 -2.335938 4.875 -2.015625 C 5.46875 -1.691406 6.117188 -1.53125 6.828125 -1.53125 Z M 6.828125 -1.53125 "/></g></g></g><g fill="#ffffff" fill-opacity="1"><g transform="translate(507.325383, 174.085759)"><g><path d="M 6.484375 -10.21875 L 4 -10.21875 L 4 0 L 2.03125 0 L 2.03125 -10.21875 L 0.5 -10.21875 L 0.5 -11.828125 L 2.03125 -11.828125 L 2.03125 -12.671875 C 2.03125 -13.992188 2.367188 -14.960938 3.046875 -15.578125 C 3.734375 -16.191406 4.832031 -16.5 6.34375 -16.5 L 6.34375 -14.859375 C 5.476562 -14.859375 4.867188 -14.6875 4.515625 -14.34375 C 4.171875 -14.007812 4 -13.453125 4 -12.671875 L 4 -11.828125 L 6.484375 -11.828125 Z M 6.484375 -10.21875 "/></g></g></g><g fill="#ffffff" fill-opacity="1"><g transform="translate(514.427843, 174.085759)"><g/></g></g><g fill="#ffffff" fill-opacity="1"><g transform="translate(520.191844, 174.085759)"><g><path d="M 0.921875 -5.953125 C 0.921875 -7.171875 1.164062 -8.234375 1.65625 -9.140625 C 2.144531 -10.054688 2.816406 -10.765625 3.671875 -11.265625 C 4.535156 -11.773438 5.492188 -12.03125 6.546875 -12.03125 C 7.578125 -12.03125 8.472656 -11.804688 9.234375 -11.359375 C 10.003906 -10.910156 10.578125 -10.347656 10.953125 -9.671875 L 10.953125 -11.828125 L 12.9375 -11.828125 L 12.9375 0 L 10.953125 0 L 10.953125 -2.203125 C 10.554688 -1.515625 9.972656 -0.941406 9.203125 -0.484375 C 8.429688 -0.0351562 7.535156 0.1875 6.515625 0.1875 C 5.460938 0.1875 4.507812 -0.0664062 3.65625 -0.578125 C 2.8125 -1.097656 2.144531 -1.828125 1.65625 -2.765625 C 1.164062 -3.703125 0.921875 -4.765625 0.921875 -5.953125 Z M 10.953125 -5.9375 C 10.953125 -6.832031 10.769531 -7.609375 10.40625 -8.265625 C 10.050781 -8.929688 9.566406 -9.441406 8.953125 -9.796875 C 8.335938 -10.148438 7.664062 -10.328125 6.9375 -10.328125 C 6.195312 -10.328125 5.523438 -10.148438 4.921875 -9.796875 C 4.316406 -9.453125 3.832031 -8.945312 3.46875 -8.28125 C 3.113281 -7.625 2.9375 -6.847656 2.9375 -5.953125 C 2.9375 -5.046875 3.113281 -4.257812 3.46875 -3.59375 C 3.832031 -2.925781 4.316406 -2.414062 4.921875 -2.0625 C 5.523438 -1.707031 6.195312 -1.53125 6.9375 -1.53125 C 7.664062 -1.53125 8.335938 -1.707031 8.953125 -2.0625 C 9.566406 -2.414062 10.050781 -2.925781 10.40625 -3.59375 C 10.769531 -4.257812 10.953125 -5.039062 10.953125 -5.9375 Z M 10.953125 -5.9375 "/></g></g></g><g fill="#ffffff" fill-opacity="1"><g transform="translate(534.785341, 174.085759)"><g><path d="M 3.625 -9.65625 C 4.007812 -10.332031 4.585938 -10.894531 5.359375 -11.34375 C 6.128906 -11.800781 7.023438 -12.03125 8.046875 -12.03125 C 9.097656 -12.03125 10.050781 -11.773438 10.90625 -11.265625 C 11.769531 -10.765625 12.445312 -10.054688 12.9375 -9.140625 C 13.425781 -8.234375 13.671875 -7.171875 13.671875 -5.953125 C 13.671875 -4.765625 13.425781 -3.703125 12.9375 -2.765625 C 12.445312 -1.828125 11.769531 -1.097656 10.90625 -0.578125 C 10.050781 -0.0664062 9.097656 0.1875 8.046875 0.1875 C 7.046875 0.1875 6.160156 -0.0351562 5.390625 -0.484375 C 4.617188 -0.941406 4.03125 -1.507812 3.625 -2.1875 L 3.625 5.609375 L 1.65625 5.609375 L 1.65625 -11.828125 L 3.625 -11.828125 Z M 11.65625 -5.953125 C 11.65625 -6.847656 11.472656 -7.625 11.109375 -8.28125 C 10.753906 -8.945312 10.269531 -9.453125 9.65625 -9.796875 C 9.050781 -10.148438 8.378906 -10.328125 7.640625 -10.328125 C 6.921875 -10.328125 6.253906 -10.148438 5.640625 -9.796875 C 5.035156 -9.441406 4.546875 -8.925781 4.171875 -8.25 C 3.804688 -7.582031 3.625 -6.8125 3.625 -5.9375 C 3.625 -5.039062 3.804688 -4.257812 4.171875 -3.59375 C 4.546875 -2.925781 5.035156 -2.414062 5.640625 -2.0625 C 6.253906 -1.707031 6.921875 -1.53125 7.640625 -1.53125 C 8.378906 -1.53125 9.050781 -1.707031 9.65625 -2.0625 C 10.269531 -2.414062 10.753906 -2.925781 11.109375 -3.59375 C 11.472656 -4.257812 11.65625 -5.046875 11.65625 -5.953125 Z M 11.65625 -5.953125 "/></g></g></g><g fill="#ffffff" fill-opacity="1"><g transform="translate(549.378839, 174.085759)"><g><path d="M 3.625 -9.65625 C 4.007812 -10.332031 4.585938 -10.894531 5.359375 -11.34375 C 6.128906 -11.800781 7.023438 -12.03125 8.046875 -12.03125 C 9.097656 -12.03125 10.050781 -11.773438 10.90625 -11.265625 C 11.769531 -10.765625 12.445312 -10.054688 12.9375 -9.140625 C 13.425781 -8.234375 13.671875 -7.171875 13.671875 -5.953125 C 13.671875 -4.765625 13.425781 -3.703125 12.9375 -2.765625 C 12.445312 -1.828125 11.769531 -1.097656 10.90625 -0.578125 C 10.050781 -0.0664062 9.097656 0.1875 8.046875 0.1875 C 7.046875 0.1875 6.160156 -0.0351562 5.390625 -0.484375 C 4.617188 -0.941406 4.03125 -1.507812 3.625 -2.1875 L 3.625 5.609375 L 1.65625 5.609375 L 1.65625 -11.828125 L 3.625 -11.828125 Z M 11.65625 -5.953125 C 11.65625 -6.847656 11.472656 -7.625 11.109375 -8.28125 C 10.753906 -8.945312 10.269531 -9.453125 9.65625 -9.796875 C 9.050781 -10.148438 8.378906 -10.328125 7.640625 -10.328125 C 6.921875 -10.328125 6.253906 -10.148438 5.640625 -9.796875 C 5.035156 -9.441406 4.546875 -8.925781 4.171875 -8.25 C 3.804688 -7.582031 3.625 -6.8125 3.625 -5.9375 C 3.625 -5.039062 3.804688 -4.257812 4.171875 -3.59375 C 4.546875 -2.925781 5.035156 -2.414062 5.640625 -2.0625 C 6.253906 -1.707031 6.921875 -1.53125 7.640625 -1.53125 C 8.378906 -1.53125 9.050781 -1.707031 9.65625 -2.0625 C 10.269531 -2.414062 10.753906 -2.925781 11.109375 -3.59375 C 11.472656 -4.257812 11.65625 -5.046875 11.65625 -5.953125 Z M 11.65625 -5.953125 "/></g></g></g><g fill="#ffffff" fill-opacity="1"><g transform="translate(563.972325, 174.085759)"><g><path d="M 3.625 -15.984375 L 3.625 0 L 1.65625 0 L 1.65625 -15.984375 Z M 3.625 -15.984375 "/></g></g></g><g fill="#ffffff" fill-opacity="1"><g transform="translate(569.282966, 174.085759)"><g><path d="M 2.671875 -13.75 C 2.296875 -13.75 1.976562 -13.878906 1.71875 -14.140625 C 1.46875 -14.398438 1.34375 -14.71875 1.34375 -15.09375 C 1.34375 -15.46875 1.46875 -15.785156 1.71875 -16.046875 C 1.976562 -16.304688 2.296875 -16.4375 2.671875 -16.4375 C 3.035156 -16.4375 3.34375 -16.304688 3.59375 -16.046875 C 3.84375 -15.785156 3.96875 -15.46875 3.96875 -15.09375 C 3.96875 -14.71875 3.84375 -14.398438 3.59375 -14.140625 C 3.34375 -13.878906 3.035156 -13.75 2.671875 -13.75 Z M 3.625 -11.828125 L 3.625 0 L 1.65625 0 L 1.65625 -11.828125 Z M 3.625 -11.828125 "/></g></g></g><g fill="#ffffff" fill-opacity="1"><g transform="translate(574.593608, 174.085759)"><g><path d="M 0.921875 -5.9375 C 0.921875 -7.164062 1.164062 -8.234375 1.65625 -9.140625 C 2.144531 -10.054688 2.828125 -10.765625 3.703125 -11.265625 C 4.578125 -11.773438 5.570312 -12.03125 6.6875 -12.03125 C 8.144531 -12.03125 9.34375 -11.675781 10.28125 -10.96875 C 11.226562 -10.257812 11.851562 -9.28125 12.15625 -8.03125 L 10.046875 -8.03125 C 9.835938 -8.75 9.441406 -9.316406 8.859375 -9.734375 C 8.273438 -10.148438 7.550781 -10.359375 6.6875 -10.359375 C 5.570312 -10.359375 4.664062 -9.972656 3.96875 -9.203125 C 3.28125 -8.429688 2.9375 -7.34375 2.9375 -5.9375 C 2.9375 -4.507812 3.28125 -3.40625 3.96875 -2.625 C 4.664062 -1.851562 5.570312 -1.46875 6.6875 -1.46875 C 7.550781 -1.46875 8.269531 -1.664062 8.84375 -2.0625 C 9.425781 -2.46875 9.828125 -3.046875 10.046875 -3.796875 L 12.15625 -3.796875 C 11.84375 -2.585938 11.207031 -1.617188 10.25 -0.890625 C 9.300781 -0.171875 8.113281 0.1875 6.6875 0.1875 C 5.570312 0.1875 4.578125 -0.0625 3.703125 -0.5625 C 2.828125 -1.0625 2.144531 -1.769531 1.65625 -2.6875 C 1.164062 -3.613281 0.921875 -4.695312 0.921875 -5.9375 Z M 0.921875 -5.9375 "/></g></g></g><g fill="#ffffff" fill-opacity="1"><g transform="translate(587.697536, 174.085759)"><g><path d="M 0.921875 -5.953125 C 0.921875 -7.171875 1.164062 -8.234375 1.65625 -9.140625 C 2.144531 -10.054688 2.816406 -10.765625 3.671875 -11.265625 C 4.535156 -11.773438 5.492188 -12.03125 6.546875 -12.03125 C 7.578125 -12.03125 8.472656 -11.804688 9.234375 -11.359375 C 10.003906 -10.910156 10.578125 -10.347656 10.953125 -9.671875 L 10.953125 -11.828125 L 12.9375 -11.828125 L 12.9375 0 L 10.953125 0 L 10.953125 -2.203125 C 10.554688 -1.515625 9.972656 -0.941406 9.203125 -0.484375 C 8.429688 -0.0351562 7.535156 0.1875 6.515625 0.1875 C 5.460938 0.1875 4.507812 -0.0664062 3.65625 -0.578125 C 2.8125 -1.097656 2.144531 -1.828125 1.65625 -2.765625 C 1.164062 -3.703125 0.921875 -4.765625 0.921875 -5.953125 Z M 10.953125 -5.9375 C 10.953125 -6.832031 10.769531 -7.609375 10.40625 -8.265625 C 10.050781 -8.929688 9.566406 -9.441406 8.953125 -9.796875 C 8.335938 -10.148438 7.664062 -10.328125 6.9375 -10.328125 C 6.195312 -10.328125 5.523438 -10.148438 4.921875 -9.796875 C 4.316406 -9.453125 3.832031 -8.945312 3.46875 -8.28125 C 3.113281 -7.625 2.9375 -6.847656 2.9375 -5.953125 C 2.9375 -5.046875 3.113281 -4.257812 3.46875 -3.59375 C 3.832031 -2.925781 4.316406 -2.414062 4.921875 -2.0625 C 5.523438 -1.707031 6.195312 -1.53125 6.9375 -1.53125 C 7.664062 -1.53125 8.335938 -1.707031 8.953125 -2.0625 C 9.566406 -2.414062 10.050781 -2.925781 10.40625 -3.59375 C 10.769531 -4.257812 10.953125 -5.039062 10.953125 -5.9375 Z M 10.953125 -5.9375 "/></g></g></g><g fill="#ffffff" fill-opacity="1"><g transform="translate(602.291044, 174.085759)"><g><path d="M 4.0625 -10.21875 L 4.0625 -3.234375 C 4.0625 -2.660156 4.179688 -2.253906 4.421875 -2.015625 C 4.671875 -1.773438 5.097656 -1.65625 5.703125 -1.65625 L 7.140625 -1.65625 L 7.140625 0 L 5.375 0 C 4.28125 0 3.457031 -0.25 2.90625 -0.75 C 2.363281 -1.257812 2.09375 -2.085938 2.09375 -3.234375 L 2.09375 -10.21875 L 0.5625 -10.21875 L 0.5625 -11.828125 L 2.09375 -11.828125 L 2.09375 -14.8125 L 4.0625 -14.8125 L 4.0625 -11.828125 L 7.140625 -11.828125 L 7.140625 -10.21875 Z M 4.0625 -10.21875 "/></g></g></g><g fill="#ffffff" fill-opacity="1"><g transform="translate(610.149082, 174.085759)"><g><path d="M 2.671875 -13.75 C 2.296875 -13.75 1.976562 -13.878906 1.71875 -14.140625 C 1.46875 -14.398438 1.34375 -14.71875 1.34375 -15.09375 C 1.34375 -15.46875 1.46875 -15.785156 1.71875 -16.046875 C 1.976562 -16.304688 2.296875 -16.4375 2.671875 -16.4375 C 3.035156 -16.4375 3.34375 -16.304688 3.59375 -16.046875 C 3.84375 -15.785156 3.96875 -15.46875 3.96875 -15.09375 C 3.96875 -14.71875 3.84375 -14.398438 3.59375 -14.140625 C 3.34375 -13.878906 3.035156 -13.75 2.671875 -13.75 Z M 3.625 -11.828125 L 3.625 0 L 1.65625 0 L 1.65625 -11.828125 Z M 3.625 -11.828125 "/></g></g></g><g fill="#ffffff" fill-opacity="1"><g transform="translate(615.459745, 174.085759)"><g><path d="M 6.828125 0.1875 C 5.710938 0.1875 4.707031 -0.0625 3.8125 -0.5625 C 2.914062 -1.0625 2.207031 -1.773438 1.6875 -2.703125 C 1.175781 -3.640625 0.921875 -4.71875 0.921875 -5.9375 C 0.921875 -7.144531 1.179688 -8.210938 1.703125 -9.140625 C 2.234375 -10.066406 2.953125 -10.78125 3.859375 -11.28125 C 4.765625 -11.78125 5.78125 -12.03125 6.90625 -12.03125 C 8.03125 -12.03125 9.046875 -11.78125 9.953125 -11.28125 C 10.859375 -10.78125 11.570312 -10.070312 12.09375 -9.15625 C 12.625 -8.238281 12.890625 -7.164062 12.890625 -5.9375 C 12.890625 -4.71875 12.617188 -3.640625 12.078125 -2.703125 C 11.535156 -1.773438 10.804688 -1.0625 9.890625 -0.5625 C 8.972656 -0.0625 7.953125 0.1875 6.828125 0.1875 Z M 6.828125 -1.53125 C 7.523438 -1.53125 8.179688 -1.695312 8.796875 -2.03125 C 9.421875 -2.363281 9.925781 -2.859375 10.3125 -3.515625 C 10.695312 -4.179688 10.890625 -4.988281 10.890625 -5.9375 C 10.890625 -6.882812 10.703125 -7.6875 10.328125 -8.34375 C 9.953125 -9.007812 9.460938 -9.503906 8.859375 -9.828125 C 8.253906 -10.160156 7.597656 -10.328125 6.890625 -10.328125 C 6.171875 -10.328125 5.507812 -10.160156 4.90625 -9.828125 C 4.3125 -9.503906 3.832031 -9.007812 3.46875 -8.34375 C 3.113281 -7.6875 2.9375 -6.882812 2.9375 -5.9375 C 2.9375 -4.96875 3.113281 -4.148438 3.46875 -3.484375 C 3.820312 -2.828125 4.289062 -2.335938 4.875 -2.015625 C 5.46875 -1.691406 6.117188 -1.53125 6.828125 -1.53125 Z M 6.828125 -1.53125 "/></g></g></g><g fill="#ffffff" fill-opacity="1"><g transform="translate(629.276078, 174.085759)"><g><path d="M 7.421875 -12.046875 C 8.867188 -12.046875 10.035156 -11.609375 10.921875 -10.734375 C 11.816406 -9.867188 12.265625 -8.613281 12.265625 -6.96875 L 12.265625 0 L 10.328125 0 L 10.328125 -6.6875 C 10.328125 -7.875 10.03125 -8.78125 9.4375 -9.40625 C 8.84375 -10.03125 8.035156 -10.34375 7.015625 -10.34375 C 5.984375 -10.34375 5.160156 -10.019531 4.546875 -9.375 C 3.929688 -8.726562 3.625 -7.785156 3.625 -6.546875 L 3.625 0 L 1.65625 0 L 1.65625 -11.828125 L 3.625 -11.828125 L 3.625 -10.15625 C 4.007812 -10.757812 4.535156 -11.222656 5.203125 -11.546875 C 5.878906 -11.878906 6.617188 -12.046875 7.421875 -12.046875 Z M 7.421875 -12.046875 "/></g></g></g><g fill="#ffffff" fill-opacity="1"><g transform="translate(643.09241, 174.085759)"><g><path d="M 5.859375 0.1875 C 4.941406 0.1875 4.125 0.0351562 3.40625 -0.265625 C 2.6875 -0.578125 2.117188 -1.007812 1.703125 -1.5625 C 1.285156 -2.113281 1.054688 -2.753906 1.015625 -3.484375 L 3.046875 -3.484375 C 3.097656 -2.890625 3.375 -2.40625 3.875 -2.03125 C 4.375 -1.65625 5.023438 -1.46875 5.828125 -1.46875 C 6.578125 -1.46875 7.164062 -1.632812 7.59375 -1.96875 C 8.03125 -2.300781 8.25 -2.71875 8.25 -3.21875 C 8.25 -3.738281 8.015625 -4.125 7.546875 -4.375 C 7.085938 -4.625 6.378906 -4.875 5.421875 -5.125 C 4.546875 -5.351562 3.828125 -5.582031 3.265625 -5.8125 C 2.710938 -6.050781 2.238281 -6.40625 1.84375 -6.875 C 1.445312 -7.34375 1.25 -7.957031 1.25 -8.71875 C 1.25 -9.320312 1.425781 -9.875 1.78125 -10.375 C 2.144531 -10.882812 2.65625 -11.285156 3.3125 -11.578125 C 3.976562 -11.878906 4.738281 -12.03125 5.59375 -12.03125 C 6.90625 -12.03125 7.960938 -11.695312 8.765625 -11.03125 C 9.566406 -10.375 10 -9.46875 10.0625 -8.3125 L 8.09375 -8.3125 C 8.050781 -8.925781 7.800781 -9.421875 7.34375 -9.796875 C 6.894531 -10.171875 6.289062 -10.359375 5.53125 -10.359375 C 4.820312 -10.359375 4.257812 -10.207031 3.84375 -9.90625 C 3.425781 -9.601562 3.21875 -9.207031 3.21875 -8.71875 C 3.21875 -8.332031 3.34375 -8.015625 3.59375 -7.765625 C 3.84375 -7.515625 4.160156 -7.3125 4.546875 -7.15625 C 4.929688 -7.007812 5.457031 -6.84375 6.125 -6.65625 C 6.976562 -6.425781 7.671875 -6.195312 8.203125 -5.96875 C 8.734375 -5.75 9.191406 -5.414062 9.578125 -4.96875 C 9.960938 -4.519531 10.160156 -3.9375 10.171875 -3.21875 C 10.171875 -2.570312 9.988281 -1.988281 9.625 -1.46875 C 9.269531 -0.945312 8.765625 -0.539062 8.109375 -0.25 C 7.453125 0.0390625 6.703125 0.1875 5.859375 0.1875 Z M 5.859375 0.1875 "/></g></g></g><g fill="#ffffff" fill-opacity="1"><g transform="translate(429.21737, 301.041977)"><g><path d="M 3.625 -1.59375 L 8.890625 -1.59375 L 8.890625 0 L 1.65625 0 L 1.65625 -15.046875 L 3.625 -15.046875 Z M 3.625 -1.59375 "/></g></g></g><g fill="#ffffff" fill-opacity="1"><g transform="translate(438.543399, 301.041977)"><g><path d="M 12.15625 -11.828125 L 12.15625 0 L 10.1875 0 L 10.1875 -1.75 C 9.8125 -1.144531 9.289062 -0.671875 8.625 -0.328125 C 7.957031 0.00390625 7.21875 0.171875 6.40625 0.171875 C 5.488281 0.171875 4.660156 -0.015625 3.921875 -0.390625 C 3.191406 -0.773438 2.613281 -1.347656 2.1875 -2.109375 C 1.769531 -2.878906 1.5625 -3.8125 1.5625 -4.90625 L 1.5625 -11.828125 L 3.5 -11.828125 L 3.5 -5.15625 C 3.5 -3.988281 3.789062 -3.09375 4.375 -2.46875 C 4.96875 -1.84375 5.773438 -1.53125 6.796875 -1.53125 C 7.847656 -1.53125 8.675781 -1.851562 9.28125 -2.5 C 9.882812 -3.15625 10.1875 -4.097656 10.1875 -5.328125 L 10.1875 -11.828125 Z M 12.15625 -11.828125 "/></g></g></g><g fill="#ffffff" fill-opacity="1"><g transform="translate(452.359732, 301.041977)"><g><path d="M 15.890625 -12.046875 C 16.816406 -12.046875 17.640625 -11.851562 18.359375 -11.46875 C 19.078125 -11.09375 19.644531 -10.519531 20.0625 -9.75 C 20.476562 -8.988281 20.6875 -8.0625 20.6875 -6.96875 L 20.6875 0 L 18.75 0 L 18.75 -6.6875 C 18.75 -7.875 18.457031 -8.78125 17.875 -9.40625 C 17.289062 -10.03125 16.5 -10.34375 15.5 -10.34375 C 14.476562 -10.34375 13.664062 -10.015625 13.0625 -9.359375 C 12.457031 -8.703125 12.15625 -7.753906 12.15625 -6.515625 L 12.15625 0 L 10.21875 0 L 10.21875 -6.6875 C 10.21875 -7.875 9.925781 -8.78125 9.34375 -9.40625 C 8.757812 -10.03125 7.96875 -10.34375 6.96875 -10.34375 C 5.945312 -10.34375 5.132812 -10.015625 4.53125 -9.359375 C 3.925781 -8.703125 3.625 -7.753906 3.625 -6.515625 L 3.625 0 L 1.65625 0 L 1.65625 -11.828125 L 3.625 -11.828125 L 3.625 -10.125 C 4.007812 -10.75 4.53125 -11.222656 5.1875 -11.546875 C 5.84375 -11.878906 6.566406 -12.046875 7.359375 -12.046875 C 8.359375 -12.046875 9.238281 -11.820312 10 -11.375 C 10.757812 -10.925781 11.328125 -10.273438 11.703125 -9.421875 C 12.035156 -10.253906 12.582031 -10.898438 13.34375 -11.359375 C 14.101562 -11.816406 14.953125 -12.046875 15.890625 -12.046875 Z M 15.890625 -12.046875 "/></g></g></g><g fill="#ffffff" fill-opacity="1"><g transform="translate(474.595397, 301.041977)"><g><path d="M 2.671875 -13.75 C 2.296875 -13.75 1.976562 -13.878906 1.71875 -14.140625 C 1.46875 -14.398438 1.34375 -14.71875 1.34375 -15.09375 C 1.34375 -15.46875 1.46875 -15.785156 1.71875 -16.046875 C 1.976562 -16.304688 2.296875 -16.4375 2.671875 -16.4375 C 3.035156 -16.4375 3.34375 -16.304688 3.59375 -16.046875 C 3.84375 -15.785156 3.96875 -15.46875 3.96875 -15.09375 C 3.96875 -14.71875 3.84375 -14.398438 3.59375 -14.140625 C 3.34375 -13.878906 3.035156 -13.75 2.671875 -13.75 Z M 3.625 -11.828125 L 3.625 0 L 1.65625 0 L 1.65625 -11.828125 Z M 3.625 -11.828125 "/></g></g></g><g fill="#ffffff" fill-opacity="1"><g transform="translate(479.906049, 301.041977)"><g><path d="M 6.828125 0.1875 C 5.710938 0.1875 4.707031 -0.0625 3.8125 -0.5625 C 2.914062 -1.0625 2.207031 -1.773438 1.6875 -2.703125 C 1.175781 -3.640625 0.921875 -4.71875 0.921875 -5.9375 C 0.921875 -7.144531 1.179688 -8.210938 1.703125 -9.140625 C 2.234375 -10.066406 2.953125 -10.78125 3.859375 -11.28125 C 4.765625 -11.78125 5.78125 -12.03125 6.90625 -12.03125 C 8.03125 -12.03125 9.046875 -11.78125 9.953125 -11.28125 C 10.859375 -10.78125 11.570312 -10.070312 12.09375 -9.15625 C 12.625 -8.238281 12.890625 -7.164062 12.890625 -5.9375 C 12.890625 -4.71875 12.617188 -3.640625 12.078125 -2.703125 C 11.535156 -1.773438 10.804688 -1.0625 9.890625 -0.5625 C 8.972656 -0.0625 7.953125 0.1875 6.828125 0.1875 Z M 6.828125 -1.53125 C 7.523438 -1.53125 8.179688 -1.695312 8.796875 -2.03125 C 9.421875 -2.363281 9.925781 -2.859375 10.3125 -3.515625 C 10.695312 -4.179688 10.890625 -4.988281 10.890625 -5.9375 C 10.890625 -6.882812 10.703125 -7.6875 10.328125 -8.34375 C 9.953125 -9.007812 9.460938 -9.503906 8.859375 -9.828125 C 8.253906 -10.160156 7.597656 -10.328125 6.890625 -10.328125 C 6.171875 -10.328125 5.507812 -10.160156 4.90625 -9.828125 C 4.3125 -9.503906 3.832031 -9.007812 3.46875 -8.34375 C 3.113281 -7.6875 2.9375 -6.882812 2.9375 -5.9375 C 2.9375 -4.96875 3.113281 -4.148438 3.46875 -3.484375 C 3.820312 -2.828125 4.289062 -2.335938 4.875 -2.015625 C 5.46875 -1.691406 6.117188 -1.53125 6.828125 -1.53125 Z M 6.828125 -1.53125 "/></g></g></g><g fill="#ffffff" fill-opacity="1"><g transform="translate(493.722382, 301.041977)"><g><path d="M 10.5625 -3.34375 L 4 -3.34375 L 2.78125 0 L 0.71875 0 L 6.15625 -14.96875 L 8.421875 -14.96875 L 13.84375 0 L 11.765625 0 Z M 10 -4.9375 L 7.28125 -12.546875 L 4.5625 -4.9375 Z M 10 -4.9375 "/></g></g></g><g fill="#ffffff" fill-opacity="1"><g transform="translate(508.272705, 301.041977)"><g><path d="M 3.625 -15.046875 L 3.625 0 L 1.65625 0 L 1.65625 -15.046875 Z M 3.625 -15.046875 "/></g></g></g><g fill="#ffffff" fill-opacity="1"><g transform="translate(513.583357, 301.041977)"><g/></g></g><g fill="#ffffff" fill-opacity="1"><g transform="translate(519.347358, 301.041977)"><g><path d="M 6.0625 -1.8125 L 9.734375 -11.828125 L 11.828125 -11.828125 L 7.1875 0 L 4.90625 0 L 0.265625 -11.828125 L 2.375 -11.828125 Z M 6.0625 -1.8125 "/></g></g></g><g fill="#ffffff" fill-opacity="1"><g transform="translate(531.458241, 301.041977)"><g><path d="M 12.453125 -6.375 C 12.453125 -6 12.429688 -5.601562 12.390625 -5.1875 L 2.9375 -5.1875 C 3.007812 -4.019531 3.40625 -3.109375 4.125 -2.453125 C 4.851562 -1.796875 5.738281 -1.46875 6.78125 -1.46875 C 7.625 -1.46875 8.332031 -1.664062 8.90625 -2.0625 C 9.476562 -2.457031 9.878906 -2.988281 10.109375 -3.65625 L 12.21875 -3.65625 C 11.90625 -2.507812 11.269531 -1.582031 10.3125 -0.875 C 9.363281 -0.164062 8.1875 0.1875 6.78125 0.1875 C 5.65625 0.1875 4.648438 -0.0625 3.765625 -0.5625 C 2.878906 -1.0625 2.179688 -1.773438 1.671875 -2.703125 C 1.171875 -3.640625 0.921875 -4.71875 0.921875 -5.9375 C 0.921875 -7.164062 1.164062 -8.238281 1.65625 -9.15625 C 2.144531 -10.070312 2.832031 -10.78125 3.71875 -11.28125 C 4.601562 -11.78125 5.625 -12.03125 6.78125 -12.03125 C 7.90625 -12.03125 8.898438 -11.785156 9.765625 -11.296875 C 10.628906 -10.804688 11.289062 -10.128906 11.75 -9.265625 C 12.21875 -8.410156 12.453125 -7.445312 12.453125 -6.375 Z M 10.4375 -6.78125 C 10.4375 -7.53125 10.269531 -8.171875 9.9375 -8.703125 C 9.601562 -9.242188 9.148438 -9.65625 8.578125 -9.9375 C 8.015625 -10.21875 7.382812 -10.359375 6.6875 -10.359375 C 5.695312 -10.359375 4.851562 -10.039062 4.15625 -9.40625 C 3.457031 -8.78125 3.054688 -7.90625 2.953125 -6.78125 Z M 10.4375 -6.78125 "/></g></g></g><g fill="#ffffff" fill-opacity="1"><g transform="translate(544.842812, 301.041977)"><g><path d="M 4.0625 -10.21875 L 4.0625 -3.234375 C 4.0625 -2.660156 4.179688 -2.253906 4.421875 -2.015625 C 4.671875 -1.773438 5.097656 -1.65625 5.703125 -1.65625 L 7.140625 -1.65625 L 7.140625 0 L 5.375 0 C 4.28125 0 3.457031 -0.25 2.90625 -0.75 C 2.363281 -1.257812 2.09375 -2.085938 2.09375 -3.234375 L 2.09375 -10.21875 L 0.5625 -10.21875 L 0.5625 -11.828125 L 2.09375 -11.828125 L 2.09375 -14.8125 L 4.0625 -14.8125 L 4.0625 -11.828125 L 7.140625 -11.828125 L 7.140625 -10.21875 Z M 4.0625 -10.21875 "/></g></g></g><g fill="#ffffff" fill-opacity="1"><g transform="translate(552.70085, 301.041977)"><g><path d="M 4.0625 -10.21875 L 4.0625 -3.234375 C 4.0625 -2.660156 4.179688 -2.253906 4.421875 -2.015625 C 4.671875 -1.773438 5.097656 -1.65625 5.703125 -1.65625 L 7.140625 -1.65625 L 7.140625 0 L 5.375 0 C 4.28125 0 3.457031 -0.25 2.90625 -0.75 C 2.363281 -1.257812 2.09375 -2.085938 2.09375 -3.234375 L 2.09375 -10.21875 L 0.5625 -10.21875 L 0.5625 -11.828125 L 2.09375 -11.828125 L 2.09375 -14.8125 L 4.0625 -14.8125 L 4.0625 -11.828125 L 7.140625 -11.828125 L 7.140625 -10.21875 Z M 4.0625 -10.21875 "/></g></g></g><g fill="#ffffff" fill-opacity="1"><g transform="translate(560.558887, 301.041977)"><g><path d="M 2.671875 -13.75 C 2.296875 -13.75 1.976562 -13.878906 1.71875 -14.140625 C 1.46875 -14.398438 1.34375 -14.71875 1.34375 -15.09375 C 1.34375 -15.46875 1.46875 -15.785156 1.71875 -16.046875 C 1.976562 -16.304688 2.296875 -16.4375 2.671875 -16.4375 C 3.035156 -16.4375 3.34375 -16.304688 3.59375 -16.046875 C 3.84375 -15.785156 3.96875 -15.46875 3.96875 -15.09375 C 3.96875 -14.71875 3.84375 -14.398438 3.59375 -14.140625 C 3.34375 -13.878906 3.035156 -13.75 2.671875 -13.75 Z M 3.625 -11.828125 L 3.625 0 L 1.65625 0 L 1.65625 -11.828125 Z M 3.625 -11.828125 "/></g></g></g><g fill="#ffffff" fill-opacity="1"><g transform="translate(565.86954, 301.041977)"><g><path d="M 7.421875 -12.046875 C 8.867188 -12.046875 10.035156 -11.609375 10.921875 -10.734375 C 11.816406 -9.867188 12.265625 -8.613281 12.265625 -6.96875 L 12.265625 0 L 10.328125 0 L 10.328125 -6.6875 C 10.328125 -7.875 10.03125 -8.78125 9.4375 -9.40625 C 8.84375 -10.03125 8.035156 -10.34375 7.015625 -10.34375 C 5.984375 -10.34375 5.160156 -10.019531 4.546875 -9.375 C 3.929688 -8.726562 3.625 -7.785156 3.625 -6.546875 L 3.625 0 L 1.65625 0 L 1.65625 -11.828125 L 3.625 -11.828125 L 3.625 -10.15625 C 4.007812 -10.757812 4.535156 -11.222656 5.203125 -11.546875 C 5.878906 -11.878906 6.617188 -12.046875 7.421875 -12.046875 Z M 7.421875 -12.046875 "/></g></g></g><g fill="#ffffff" fill-opacity="1"><g transform="translate(579.685872, 301.041977)"><g><path d="M 6.546875 -12.03125 C 7.566406 -12.03125 8.460938 -11.804688 9.234375 -11.359375 C 10.003906 -10.910156 10.578125 -10.347656 10.953125 -9.671875 L 10.953125 -11.828125 L 12.9375 -11.828125 L 12.9375 0.265625 C 12.9375 1.335938 12.703125 2.296875 12.234375 3.140625 C 11.773438 3.984375 11.117188 4.640625 10.265625 5.109375 C 9.410156 5.585938 8.414062 5.828125 7.28125 5.828125 C 5.71875 5.828125 4.414062 5.457031 3.375 4.71875 C 2.34375 3.988281 1.738281 2.992188 1.5625 1.734375 L 3.5 1.734375 C 3.71875 2.453125 4.164062 3.03125 4.84375 3.46875 C 5.519531 3.90625 6.332031 4.125 7.28125 4.125 C 8.351562 4.125 9.234375 3.785156 9.921875 3.109375 C 10.609375 2.429688 10.953125 1.484375 10.953125 0.265625 L 10.953125 -2.21875 C 10.554688 -1.53125 9.976562 -0.957031 9.21875 -0.5 C 8.457031 -0.0390625 7.566406 0.1875 6.546875 0.1875 C 5.492188 0.1875 4.535156 -0.0664062 3.671875 -0.578125 C 2.816406 -1.097656 2.144531 -1.828125 1.65625 -2.765625 C 1.164062 -3.703125 0.921875 -4.765625 0.921875 -5.953125 C 0.921875 -7.171875 1.164062 -8.234375 1.65625 -9.140625 C 2.144531 -10.054688 2.816406 -10.765625 3.671875 -11.265625 C 4.535156 -11.773438 5.492188 -12.03125 6.546875 -12.03125 Z M 10.953125 -5.9375 C 10.953125 -6.832031 10.769531 -7.609375 10.40625 -8.265625 C 10.050781 -8.929688 9.566406 -9.441406 8.953125 -9.796875 C 8.335938 -10.148438 7.664062 -10.328125 6.9375 -10.328125 C 6.195312 -10.328125 5.523438 -10.148438 4.921875 -9.796875 C 4.316406 -9.453125 3.832031 -8.945312 3.46875 -8.28125 C 3.113281 -7.625 2.9375 -6.847656 2.9375 -5.953125 C 2.9375 -5.046875 3.113281 -4.257812 3.46875 -3.59375 C 3.832031 -2.925781 4.316406 -2.414062 4.921875 -2.0625 C 5.523438 -1.707031 6.195312 -1.53125 6.9375 -1.53125 C 7.664062 -1.53125 8.335938 -1.707031 8.953125 -2.0625 C 9.566406 -2.414062 10.050781 -2.925781 10.40625 -3.59375 C 10.769531 -4.257812 10.953125 -5.039062 10.953125 -5.9375 Z M 10.953125 -5.9375 "/></g></g></g><g fill="#ffffff" fill-opacity="1"><g transform="translate(476.976907, 415.731722)"><g><path d="M 12.25 -15.15625 L 12.25 -12.203125 L 8.234375 -12.203125 L 8.234375 0 L 4.53125 0 L 4.53125 -12.203125 L 0.515625 -12.203125 L 0.515625 -15.15625 Z M 12.25 -15.15625 "/></g></g></g><g fill="#ffffff" fill-opacity="1"><g transform="translate(489.735422, 415.731722)"><g><path d="M 6.828125 0.171875 C 5.640625 0.171875 4.570312 -0.078125 3.625 -0.578125 C 2.6875 -1.085938 1.945312 -1.804688 1.40625 -2.734375 C 0.875 -3.671875 0.609375 -4.769531 0.609375 -6.03125 C 0.609375 -7.257812 0.878906 -8.34375 1.421875 -9.28125 C 1.972656 -10.226562 2.722656 -10.953125 3.671875 -11.453125 C 4.617188 -11.960938 5.679688 -12.21875 6.859375 -12.21875 C 8.046875 -12.21875 9.113281 -11.960938 10.0625 -11.453125 C 11.007812 -10.953125 11.753906 -10.226562 12.296875 -9.28125 C 12.847656 -8.34375 13.125 -7.257812 13.125 -6.03125 C 13.125 -4.789062 12.847656 -3.695312 12.296875 -2.75 C 11.742188 -1.8125 10.988281 -1.085938 10.03125 -0.578125 C 9.070312 -0.078125 8.003906 0.171875 6.828125 0.171875 Z M 6.828125 -3.015625 C 7.523438 -3.015625 8.125 -3.273438 8.625 -3.796875 C 9.125 -4.316406 9.375 -5.0625 9.375 -6.03125 C 9.375 -6.988281 9.128906 -7.726562 8.640625 -8.25 C 8.160156 -8.769531 7.566406 -9.03125 6.859375 -9.03125 C 6.140625 -9.03125 5.539062 -8.773438 5.0625 -8.265625 C 4.59375 -7.753906 4.359375 -7.007812 4.359375 -6.03125 C 4.359375 -5.0625 4.59375 -4.316406 5.0625 -3.796875 C 5.53125 -3.273438 6.117188 -3.015625 6.828125 -3.015625 Z M 6.828125 -3.015625 "/></g></g></g><g fill="#ffffff" fill-opacity="1"><g transform="translate(503.486993, 415.731722)"><g><path d="M 5.03125 -10.34375 C 5.394531 -10.90625 5.890625 -11.359375 6.515625 -11.703125 C 7.148438 -12.046875 7.894531 -12.21875 8.75 -12.21875 C 9.738281 -12.21875 10.632812 -11.960938 11.4375 -11.453125 C 12.25 -10.953125 12.890625 -10.234375 13.359375 -9.296875 C 13.828125 -8.367188 14.0625 -7.285156 14.0625 -6.046875 C 14.0625 -4.804688 13.828125 -3.710938 13.359375 -2.765625 C 12.890625 -1.828125 12.25 -1.101562 11.4375 -0.59375 C 10.632812 -0.0820312 9.738281 0.171875 8.75 0.171875 C 7.914062 0.171875 7.175781 0 6.53125 -0.34375 C 5.894531 -0.6875 5.394531 -1.132812 5.03125 -1.6875 L 5.03125 5.75 L 1.34375 5.75 L 1.34375 -12.046875 L 5.03125 -12.046875 Z M 10.296875 -6.046875 C 10.296875 -6.960938 10.039062 -7.679688 9.53125 -8.203125 C 9.019531 -8.734375 8.390625 -9 7.640625 -9 C 6.910156 -9 6.289062 -8.734375 5.78125 -8.203125 C 5.269531 -7.671875 5.015625 -6.945312 5.015625 -6.03125 C 5.015625 -5.101562 5.269531 -4.375 5.78125 -3.84375 C 6.289062 -3.3125 6.910156 -3.046875 7.640625 -3.046875 C 8.378906 -3.046875 9.003906 -3.316406 9.515625 -3.859375 C 10.035156 -4.398438 10.296875 -5.128906 10.296875 -6.046875 Z M 10.296875 -6.046875 "/></g></g></g><g fill="#ffffff" fill-opacity="1"><g transform="translate(518.145262, 415.731722)"><g/></g></g><g fill="#ffffff" fill-opacity="1"><g transform="translate(522.721924, 415.731722)"><g><path d="M 0.578125 -12.328125 L 0.578125 -15.765625 L 6.5625 -15.765625 L 6.5625 0 L 2.71875 0 L 2.71875 -12.328125 Z M 0.578125 -12.328125 "/></g></g></g><g fill="#ffffff" fill-opacity="1"><g transform="translate(530.839016, 415.731722)"><g><path d="M 0.671875 -11.796875 C 0.671875 -12.960938 1.003906 -13.859375 1.671875 -14.484375 C 2.335938 -15.117188 3.207031 -15.4375 4.28125 -15.4375 C 5.34375 -15.4375 6.203125 -15.117188 6.859375 -14.484375 C 7.523438 -13.859375 7.859375 -12.960938 7.859375 -11.796875 C 7.859375 -10.628906 7.523438 -9.726562 6.859375 -9.09375 C 6.203125 -8.457031 5.34375 -8.140625 4.28125 -8.140625 C 3.207031 -8.140625 2.335938 -8.457031 1.671875 -9.09375 C 1.003906 -9.726562 0.671875 -10.628906 0.671875 -11.796875 Z M 15.328125 -15.203125 L 7.015625 0 L 3.453125 0 L 11.765625 -15.203125 Z M 4.25 -13.28125 C 3.5625 -13.28125 3.21875 -12.785156 3.21875 -11.796875 C 3.21875 -10.816406 3.5625 -10.328125 4.25 -10.328125 C 4.582031 -10.328125 4.84375 -10.445312 5.03125 -10.6875 C 5.21875 -10.9375 5.3125 -11.304688 5.3125 -11.796875 C 5.3125 -12.785156 4.957031 -13.28125 4.25 -13.28125 Z M 10.953125 -3.40625 C 10.953125 -4.570312 11.28125 -5.472656 11.9375 -6.109375 C 12.601562 -6.742188 13.46875 -7.0625 14.53125 -7.0625 C 15.59375 -7.0625 16.457031 -6.742188 17.125 -6.109375 C 17.789062 -5.472656 18.125 -4.570312 18.125 -3.40625 C 18.125 -2.238281 17.789062 -1.335938 17.125 -0.703125 C 16.457031 -0.078125 15.59375 0.234375 14.53125 0.234375 C 13.46875 0.234375 12.601562 -0.078125 11.9375 -0.703125 C 11.28125 -1.335938 10.953125 -2.238281 10.953125 -3.40625 Z M 14.515625 -4.90625 C 14.179688 -4.90625 13.921875 -4.78125 13.734375 -4.53125 C 13.554688 -4.289062 13.46875 -3.914062 13.46875 -3.40625 C 13.46875 -2.425781 13.816406 -1.9375 14.515625 -1.9375 C 14.835938 -1.9375 15.09375 -2.054688 15.28125 -2.296875 C 15.46875 -2.546875 15.5625 -2.914062 15.5625 -3.40625 C 15.5625 -3.894531 15.46875 -4.265625 15.28125 -4.515625 C 15.09375 -4.773438 14.835938 -4.90625 14.515625 -4.90625 Z M 14.515625 -4.90625 "/></g></g></g></svg>