<svg xmlns="http://www.w3.org/2000/svg" xmlns:xlink="http://www.w3.org/1999/xlink" width="1366" zoomAndPan="magnify" viewBox="0 0 1024.5 531.749984" height="709" preserveAspectRatio="xMidYMid meet" version="1.0"><defs><filter x="0%" y="0%" width="100%" height="100%" id="8c60e0c5a1"><feColorMatrix values="0 0 0 0 1 0 0 0 0 1 0 0 0 0 1 0 0 0 1 0" color-interpolation-filters="sRGB"/></filter><mask id="b0acf3835e"><g filter="url(#8c60e0c5a1)"><rect x="-102.45" width="1229.4" fill="#000000" y="-53.174998" height="638.099981" fill-opacity="0.13"/></g></mask><clipPath id="e66f2350c0"><path d="M 0.734375 0.957031 L 430.84375 0.957031 L 430.84375 392 L 0.734375 392 Z M 0.734375 0.957031 " clip-rule="nonzero"/></clipPath><clipPath id="6519bcc99c"><rect x="0" width="431" y="0" height="393"/></clipPath></defs><g mask="url(#b0acf3835e)"><g transform="matrix(1, 0, 0, 1, 296, 68)"><g clip-path="url(#6519bcc99c)"><g clip-path="url(#e66f2350c0)"><path fill="#f2f2f2" d="M 16.664062 391.953125 C 11.605469 391.953125 6.601562 391.382812 1.761719 390.238281 C 1.085938 390.078125 0.667969 389.398438 0.828125 388.722656 C 0.988281 388.046875 1.667969 387.628906 2.34375 387.789062 C 30.867188 394.546875 62.867188 380.183594 76.777344 354.382812 C 82.960938 342.917969 84.988281 330.734375 82.492188 320.074219 C 79.183594 305.957031 68.414062 295.089844 58 284.574219 C 55.183594 281.734375 52.273438 278.796875 49.5625 275.84375 C 42.433594 268.085938 37.015625 259.171875 34.304688 250.734375 C 31.003906 240.46875 31.746094 231.027344 36.453125 223.4375 C 41.308594 215.601562 49.71875 210.734375 60.78125 209.359375 C 69.914062 208.222656 80.613281 209.484375 90.898438 212.914062 C 96.144531 214.664062 102.113281 217.722656 108.429688 220.957031 C 120.335938 227.058594 132.648438 233.363281 140.160156 230.804688 C 142.535156 230 144.289062 228.332031 145.527344 225.710938 C 148.355469 219.71875 145.714844 213.167969 142.914062 206.230469 C 140.515625 200.28125 138.035156 194.132812 138.917969 187.925781 C 139.496094 183.882812 140.71875 178.03125 144.683594 173.839844 C 151.695312 166.429688 164.132812 167.675781 172.105469 173.160156 C 179.570312 178.296875 184.339844 186.203125 188.957031 193.847656 C 189.257812 194.34375 189.554688 194.839844 189.855469 195.332031 C 200.640625 213.128906 217.953125 237.425781 243.640625 242.929688 C 261.996094 246.859375 282.804688 239.613281 295.421875 224.902344 C 307.761719 210.507812 312.355469 189.75 307.40625 170.726562 C 300.371094 143.671875 277.222656 125.195312 254.835938 107.328125 C 248.8125 102.523438 242.585938 97.550781 236.808594 92.515625 C 230.820312 87.292969 224.988281 81.417969 222.882812 73.851562 C 221.226562 67.894531 221.992188 61.164062 225.035156 54.890625 C 229.363281 45.976562 237.433594 39.445312 248.367188 36 C 258.0625 32.949219 269.519531 32.671875 279.800781 35.238281 C 294.546875 38.921875 307.789062 46.894531 320.59375 54.605469 C 325.179688 57.363281 329.921875 60.21875 334.648438 62.824219 C 357.089844 75.191406 376.4375 78.617188 392.15625 73.015625 C 404.59375 68.578125 415.265625 58.050781 421.429688 44.128906 C 426.589844 32.480469 428.773438 18.800781 428.109375 2.304688 C 428.078125 1.609375 428.621094 1.023438 429.316406 0.996094 C 430.015625 0.964844 430.59375 1.507812 430.625 2.203125 C 431.304688 19.089844 429.050781 33.136719 423.730469 45.148438 C 417.285156 59.699219 406.085938 70.71875 393 75.386719 C 387.84375 77.222656 382.328125 78.140625 376.476562 78.140625 C 363.6875 78.140625 349.28125 73.761719 333.433594 65.027344 C 328.664062 62.398438 323.902344 59.53125 319.296875 56.761719 C 306.648438 49.148438 293.570312 41.273438 279.191406 37.683594 C 260.597656 33.035156 236.09375 37.875 227.296875 55.988281 C 224.523438 61.710938 223.816406 67.8125 225.308594 73.175781 C 227.234375 80.101562 232.769531 85.648438 238.460938 90.613281 C 244.199219 95.613281 250.402344 100.566406 256.402344 105.355469 C 279.113281 123.480469 302.59375 142.222656 309.839844 170.089844 C 312.335938 179.683594 312.519531 189.980469 310.375 199.863281 C 308.195312 209.902344 303.683594 219.125 297.328125 226.535156 C 290.867188 234.070312 282.347656 239.851562 272.699219 243.253906 C 262.917969 246.699219 252.6875 247.4375 243.109375 245.386719 C 216.472656 239.679688 198.726562 214.828125 187.695312 196.632812 C 187.394531 196.140625 187.09375 195.640625 186.796875 195.144531 C 182.316406 187.726562 177.6875 180.058594 170.671875 175.230469 C 163.570312 170.34375 152.589844 169.132812 146.507812 175.5625 C 143.867188 178.355469 142.246094 182.394531 141.40625 188.273438 C 140.617188 193.808594 142.96875 199.640625 145.246094 205.28125 C 148.121094 212.414062 151.101562 219.792969 147.800781 226.78125 C 146.277344 230.007812 143.976562 232.160156 140.96875 233.183594 C 139.539062 233.671875 137.988281 233.890625 136.339844 233.890625 C 128.164062 233.890625 117.574219 228.46875 107.28125 223.195312 C 101.050781 220 95.164062 216.988281 90.097656 215.296875 C 80.160156 211.984375 69.859375 210.761719 61.089844 211.851562 C 50.808594 213.128906 43.03125 217.59375 38.589844 224.757812 C 34.222656 231.800781 33.589844 240.28125 36.699219 249.957031 C 39.304688 258.054688 44.527344 266.640625 51.414062 274.136719 C 54.09375 277.050781 56.984375 279.972656 59.785156 282.796875 C 70.445312 293.558594 81.46875 304.6875 84.9375 319.492188 C 87.578125 330.75 85.464844 343.5625 78.992188 355.570312 C 72.023438 368.492188 60.324219 379.140625 46.050781 385.542969 C 36.609375 389.78125 26.535156 391.941406 16.660156 391.941406 Z M 16.664062 391.953125 " fill-opacity="1" fill-rule="nonzero"/></g></g></g></g></svg>