<svg xmlns="http://www.w3.org/2000/svg" xmlns:xlink="http://www.w3.org/1999/xlink" width="1366" zoomAndPan="magnify" viewBox="0 0 1024.5 531.749984" height="709" preserveAspectRatio="xMidYMid meet" version="1.0"><defs><filter x="0%" y="0%" width="100%" height="100%" id="68dbecfdc7"><feColorMatrix values="0 0 0 0 1 0 0 0 0 1 0 0 0 0 1 0 0 0 1 0" color-interpolation-filters="sRGB"/></filter><mask id="de0f4b4e14"><g filter="url(#68dbecfdc7)"><rect x="-102.45" width="1229.4" fill="#000000" y="-53.174998" height="638.099981" fill-opacity="0.32"/></g></mask><clipPath id="6ba464049f"><path d="M 262 204 L 285 204 L 285 226.539062 L 262 226.539062 Z M 262 204 " clip-rule="nonzero"/></clipPath><clipPath id="9e586dd55e"><path d="M 230 1.039062 L 253 1.039062 L 253 24 L 230 24 Z M 230 1.039062 " clip-rule="nonzero"/></clipPath><clipPath id="76a160200c"><path d="M 197 1.039062 L 220 1.039062 L 220 24 L 197 24 Z M 197 1.039062 " clip-rule="nonzero"/></clipPath><clipPath id="843f2d42f5"><path d="M 164 1.039062 L 187 1.039062 L 187 24 L 164 24 Z M 164 1.039062 " clip-rule="nonzero"/></clipPath><clipPath id="b1c3e08bad"><path d="M 131 1.039062 L 155 1.039062 L 155 24 L 131 24 Z M 131 1.039062 " clip-rule="nonzero"/></clipPath><clipPath id="3c1821ec7a"><path d="M 99 1.039062 L 122 1.039062 L 122 24 L 99 24 Z M 99 1.039062 " clip-rule="nonzero"/></clipPath><clipPath id="c0b82ae2ce"><path d="M 66 1.039062 L 89 1.039062 L 89 24 L 66 24 Z M 66 1.039062 " clip-rule="nonzero"/></clipPath><clipPath id="73413d9b28"><path d="M 33 1.039062 L 56 1.039062 L 56 24 L 33 24 Z M 33 1.039062 " clip-rule="nonzero"/></clipPath><clipPath id="a5c32df713"><path d="M 1.015625 1.039062 L 24 1.039062 L 24 24 L 1.015625 24 Z M 1.015625 1.039062 " clip-rule="nonzero"/></clipPath><clipPath id="b078bf8cf1"><path d="M 262 1.039062 L 285 1.039062 L 285 24 L 262 24 Z M 262 1.039062 " clip-rule="nonzero"/></clipPath><clipPath id="18b8a8d4f1"><rect x="0" width="286" y="0" height="227"/></clipPath></defs><g mask="url(#de0f4b4e14)"><g transform="matrix(1, 0, 0, 1, 369, 152)"><g clip-path="url(#18b8a8d4f1)"><path fill="#f2f2f2" d="M 252.253906 41.132812 C 252.253906 47.226562 247.304688 52.171875 241.210938 52.171875 C 235.082031 52.171875 230.167969 47.226562 230.167969 41.132812 C 230.167969 35.039062 235.082031 30.089844 241.210938 30.089844 C 247.304688 30.089844 252.253906 35.039062 252.253906 41.132812 Z M 252.253906 41.132812 " fill-opacity="1" fill-rule="nonzero"/><path fill="#f2f2f2" d="M 219.496094 41.132812 C 219.496094 47.226562 214.582031 52.171875 208.453125 52.171875 C 202.363281 52.171875 197.414062 47.226562 197.414062 41.132812 C 197.414062 35.039062 202.363281 30.089844 208.453125 30.089844 C 214.582031 30.089844 219.496094 35.039062 219.496094 41.132812 Z M 219.496094 41.132812 " fill-opacity="1" fill-rule="nonzero"/><path fill="#f2f2f2" d="M 186.773438 41.132812 C 186.773438 47.226562 181.828125 52.171875 175.734375 52.171875 C 169.640625 52.171875 164.691406 47.226562 164.691406 41.132812 C 164.691406 35.039062 169.640625 30.089844 175.734375 30.089844 C 181.828125 30.089844 186.773438 35.039062 186.773438 41.132812 Z M 186.773438 41.132812 " fill-opacity="1" fill-rule="nonzero"/><path fill="#f2f2f2" d="M 154.054688 41.132812 C 154.054688 47.226562 149.105469 52.171875 143.011719 52.171875 C 136.882812 52.171875 131.9375 47.226562 131.9375 41.132812 C 131.9375 35.039062 136.882812 30.089844 143.011719 30.089844 C 149.105469 30.089844 154.054688 35.039062 154.054688 41.132812 Z M 154.054688 41.132812 " fill-opacity="1" fill-rule="nonzero"/><path fill="#f2f2f2" d="M 121.296875 41.132812 C 121.296875 47.226562 116.347656 52.171875 110.253906 52.171875 C 104.164062 52.171875 99.214844 47.226562 99.214844 41.132812 C 99.214844 35.039062 104.164062 30.089844 110.253906 30.089844 C 116.347656 30.089844 121.296875 35.039062 121.296875 41.132812 Z M 121.296875 41.132812 " fill-opacity="1" fill-rule="nonzero"/><path fill="#f2f2f2" d="M 88.574219 41.132812 C 88.574219 47.226562 83.628906 52.171875 77.535156 52.171875 C 71.441406 52.171875 66.492188 47.226562 66.492188 41.132812 C 66.492188 35.039062 71.441406 30.089844 77.535156 30.089844 C 83.628906 30.089844 88.574219 35.039062 88.574219 41.132812 Z M 88.574219 41.132812 " fill-opacity="1" fill-rule="nonzero"/><path fill="#f2f2f2" d="M 55.855469 41.132812 C 55.855469 47.226562 50.90625 52.171875 44.777344 52.171875 C 38.683594 52.171875 33.738281 47.226562 33.738281 41.132812 C 33.738281 35.039062 38.683594 30.089844 44.777344 30.089844 C 50.90625 30.089844 55.855469 35.039062 55.855469 41.132812 Z M 55.855469 41.132812 " fill-opacity="1" fill-rule="nonzero"/><path fill="#f2f2f2" d="M 284.972656 41.132812 C 284.972656 47.226562 280.023438 52.171875 273.933594 52.171875 C 267.839844 52.171875 262.890625 47.226562 262.890625 41.132812 C 262.890625 35.039062 267.839844 30.089844 273.933594 30.089844 C 280.023438 30.089844 284.972656 35.039062 284.972656 41.132812 Z M 284.972656 41.132812 " fill-opacity="1" fill-rule="nonzero"/><path fill="#f2f2f2" d="M 252.253906 70.183594 C 252.253906 76.277344 247.304688 81.226562 241.210938 81.226562 C 235.082031 81.226562 230.167969 76.277344 230.167969 70.183594 C 230.167969 64.089844 235.082031 59.140625 241.210938 59.140625 C 247.304688 59.140625 252.253906 64.089844 252.253906 70.183594 Z M 252.253906 70.183594 " fill-opacity="1" fill-rule="nonzero"/><path fill="#f2f2f2" d="M 219.496094 70.183594 C 219.496094 76.277344 214.582031 81.226562 208.453125 81.226562 C 202.363281 81.226562 197.414062 76.277344 197.414062 70.183594 C 197.414062 64.089844 202.363281 59.140625 208.453125 59.140625 C 214.582031 59.140625 219.496094 64.089844 219.496094 70.183594 Z M 219.496094 70.183594 " fill-opacity="1" fill-rule="nonzero"/><path fill="#f2f2f2" d="M 186.773438 70.183594 C 186.773438 76.277344 181.828125 81.226562 175.734375 81.226562 C 169.640625 81.226562 164.691406 76.277344 164.691406 70.183594 C 164.691406 64.089844 169.640625 59.140625 175.734375 59.140625 C 181.828125 59.140625 186.773438 64.089844 186.773438 70.183594 Z M 186.773438 70.183594 " fill-opacity="1" fill-rule="nonzero"/><path fill="#f2f2f2" d="M 154.054688 70.183594 C 154.054688 76.277344 149.105469 81.226562 143.011719 81.226562 C 136.882812 81.226562 131.9375 76.277344 131.9375 70.183594 C 131.9375 64.089844 136.882812 59.140625 143.011719 59.140625 C 149.105469 59.140625 154.054688 64.089844 154.054688 70.183594 Z M 154.054688 70.183594 " fill-opacity="1" fill-rule="nonzero"/><path fill="#f2f2f2" d="M 121.296875 70.183594 C 121.296875 76.277344 116.347656 81.226562 110.253906 81.226562 C 104.164062 81.226562 99.214844 76.277344 99.214844 70.183594 C 99.214844 64.089844 104.164062 59.140625 110.253906 59.140625 C 116.347656 59.140625 121.296875 64.089844 121.296875 70.183594 Z M 121.296875 70.183594 " fill-opacity="1" fill-rule="nonzero"/><path fill="#f2f2f2" d="M 55.855469 70.183594 C 55.855469 76.277344 50.90625 81.226562 44.777344 81.226562 C 38.683594 81.226562 33.738281 76.277344 33.738281 70.183594 C 33.738281 64.089844 38.683594 59.140625 44.777344 59.140625 C 50.90625 59.140625 55.855469 64.089844 55.855469 70.183594 Z M 55.855469 70.183594 " fill-opacity="1" fill-rule="nonzero"/><path fill="#f2f2f2" d="M 284.972656 70.183594 C 284.972656 76.277344 280.023438 81.226562 273.933594 81.226562 C 267.839844 81.226562 262.890625 76.277344 262.890625 70.183594 C 262.890625 64.089844 267.839844 59.140625 273.933594 59.140625 C 280.023438 59.140625 284.972656 64.089844 284.972656 70.183594 Z M 284.972656 70.183594 " fill-opacity="1" fill-rule="nonzero"/><path fill="#f2f2f2" d="M 252.253906 99.238281 C 252.253906 105.328125 247.304688 110.277344 241.210938 110.277344 C 235.082031 110.277344 230.167969 105.328125 230.167969 99.238281 C 230.167969 93.144531 235.082031 88.195312 241.210938 88.195312 C 247.304688 88.195312 252.253906 93.144531 252.253906 99.238281 Z M 252.253906 99.238281 " fill-opacity="1" fill-rule="nonzero"/><path fill="#f2f2f2" d="M 219.496094 99.238281 C 219.496094 105.328125 214.582031 110.277344 208.453125 110.277344 C 202.363281 110.277344 197.414062 105.328125 197.414062 99.238281 C 197.414062 93.144531 202.363281 88.195312 208.453125 88.195312 C 214.582031 88.195312 219.496094 93.144531 219.496094 99.238281 Z M 219.496094 99.238281 " fill-opacity="1" fill-rule="nonzero"/><path fill="#f2f2f2" d="M 186.773438 99.238281 C 186.773438 105.328125 181.828125 110.277344 175.734375 110.277344 C 169.640625 110.277344 164.691406 105.328125 164.691406 99.238281 C 164.691406 93.144531 169.640625 88.195312 175.734375 88.195312 C 181.828125 88.195312 186.773438 93.144531 186.773438 99.238281 Z M 186.773438 99.238281 " fill-opacity="1" fill-rule="nonzero"/><path fill="#f2f2f2" d="M 154.054688 99.238281 C 154.054688 105.328125 149.105469 110.277344 143.011719 110.277344 C 136.882812 110.277344 131.9375 105.328125 131.9375 99.238281 C 131.9375 93.144531 136.882812 88.195312 143.011719 88.195312 C 149.105469 88.195312 154.054688 93.144531 154.054688 99.238281 Z M 154.054688 99.238281 " fill-opacity="1" fill-rule="nonzero"/><path fill="#f2f2f2" d="M 121.296875 99.238281 C 121.296875 105.328125 116.347656 110.277344 110.253906 110.277344 C 104.164062 110.277344 99.214844 105.328125 99.214844 99.238281 C 99.214844 93.144531 104.164062 88.195312 110.253906 88.195312 C 116.347656 88.195312 121.296875 93.144531 121.296875 99.238281 Z M 121.296875 99.238281 " fill-opacity="1" fill-rule="nonzero"/><path fill="#f2f2f2" d="M 284.972656 99.238281 C 284.972656 105.328125 280.023438 110.277344 273.933594 110.277344 C 267.839844 110.277344 262.890625 105.328125 262.890625 99.238281 C 262.890625 93.144531 267.839844 88.195312 273.933594 88.195312 C 280.023438 88.195312 284.972656 93.144531 284.972656 99.238281 Z M 284.972656 99.238281 " fill-opacity="1" fill-rule="nonzero"/><path fill="#f2f2f2" d="M 252.253906 128.289062 C 252.253906 134.382812 247.304688 139.332031 241.210938 139.332031 C 235.082031 139.332031 230.167969 134.382812 230.167969 128.289062 C 230.167969 122.160156 235.082031 117.214844 241.210938 117.214844 C 247.304688 117.214844 252.253906 122.160156 252.253906 128.289062 Z M 252.253906 128.289062 " fill-opacity="1" fill-rule="nonzero"/><path fill="#f2f2f2" d="M 219.496094 128.289062 C 219.496094 134.382812 214.582031 139.332031 208.453125 139.332031 C 202.363281 139.332031 197.414062 134.382812 197.414062 128.289062 C 197.414062 122.160156 202.363281 117.214844 208.453125 117.214844 C 214.582031 117.214844 219.496094 122.160156 219.496094 128.289062 Z M 219.496094 128.289062 " fill-opacity="1" fill-rule="nonzero"/><path fill="#f2f2f2" d="M 186.773438 128.289062 C 186.773438 134.382812 181.828125 139.332031 175.734375 139.332031 C 169.640625 139.332031 164.691406 134.382812 164.691406 128.289062 C 164.691406 122.160156 169.640625 117.214844 175.734375 117.214844 C 181.828125 117.214844 186.773438 122.160156 186.773438 128.289062 Z M 186.773438 128.289062 " fill-opacity="1" fill-rule="nonzero"/><path fill="#f2f2f2" d="M 154.054688 128.289062 C 154.054688 134.382812 149.105469 139.332031 143.011719 139.332031 C 136.882812 139.332031 131.9375 134.382812 131.9375 128.289062 C 131.9375 122.160156 136.882812 117.214844 143.011719 117.214844 C 149.105469 117.214844 154.054688 122.160156 154.054688 128.289062 Z M 154.054688 128.289062 " fill-opacity="1" fill-rule="nonzero"/><path fill="#f2f2f2" d="M 284.972656 128.289062 C 284.972656 134.382812 280.023438 139.332031 273.933594 139.332031 C 267.839844 139.332031 262.890625 134.382812 262.890625 128.289062 C 262.890625 122.160156 267.839844 117.214844 273.933594 117.214844 C 280.023438 117.214844 284.972656 122.160156 284.972656 128.289062 Z M 284.972656 128.289062 " fill-opacity="1" fill-rule="nonzero"/><path fill="#f2f2f2" d="M 252.253906 157.308594 C 252.253906 163.433594 247.304688 168.382812 241.210938 168.382812 C 235.082031 168.382812 230.167969 163.433594 230.167969 157.308594 C 230.167969 151.214844 235.082031 146.265625 241.210938 146.265625 C 247.304688 146.265625 252.253906 151.214844 252.253906 157.308594 Z M 252.253906 157.308594 " fill-opacity="1" fill-rule="nonzero"/><path fill="#f2f2f2" d="M 186.773438 157.308594 C 186.773438 163.433594 181.828125 168.382812 175.734375 168.382812 C 169.640625 168.382812 164.691406 163.433594 164.691406 157.308594 C 164.691406 151.214844 169.640625 146.265625 175.734375 146.265625 C 181.828125 146.265625 186.773438 151.214844 186.773438 157.308594 Z M 186.773438 157.308594 " fill-opacity="1" fill-rule="nonzero"/><path fill="#f2f2f2" d="M 284.972656 157.308594 C 284.972656 163.433594 280.023438 168.382812 273.933594 168.382812 C 267.839844 168.382812 262.890625 163.433594 262.890625 157.308594 C 262.890625 151.214844 267.839844 146.265625 273.933594 146.265625 C 280.023438 146.265625 284.972656 151.214844 284.972656 157.308594 Z M 284.972656 157.308594 " fill-opacity="1" fill-rule="nonzero"/><path fill="#f2f2f2" d="M 252.253906 186.359375 C 252.253906 192.488281 247.304688 197.402344 241.210938 197.402344 C 235.082031 197.402344 230.167969 192.488281 230.167969 186.359375 C 230.167969 180.265625 235.082031 175.316406 241.210938 175.316406 C 247.304688 175.316406 252.253906 180.265625 252.253906 186.359375 Z M 252.253906 186.359375 " fill-opacity="1" fill-rule="nonzero"/><path fill="#f2f2f2" d="M 284.972656 186.359375 C 284.972656 192.488281 280.023438 197.402344 273.933594 197.402344 C 267.839844 197.402344 262.890625 192.488281 262.890625 186.359375 C 262.890625 180.265625 267.839844 175.316406 273.933594 175.316406 C 280.023438 175.316406 284.972656 180.265625 284.972656 186.359375 Z M 284.972656 186.359375 " fill-opacity="1" fill-rule="nonzero"/><g clip-path="url(#6ba464049f)"><path fill="#f2f2f2" d="M 284.972656 215.414062 C 284.972656 221.539062 280.023438 226.453125 273.933594 226.453125 C 267.839844 226.453125 262.890625 221.539062 262.890625 215.414062 C 262.890625 209.320312 267.839844 204.371094 273.933594 204.371094 C 280.023438 204.371094 284.972656 209.320312 284.972656 215.414062 Z M 284.972656 215.414062 " fill-opacity="1" fill-rule="nonzero"/></g><g clip-path="url(#9e586dd55e)"><path fill="#f2f2f2" d="M 252.253906 12.078125 C 252.253906 18.171875 247.304688 23.121094 241.210938 23.121094 C 235.082031 23.121094 230.167969 18.171875 230.167969 12.078125 C 230.167969 5.984375 235.082031 1.039062 241.210938 1.039062 C 247.304688 1.039062 252.253906 5.984375 252.253906 12.078125 Z M 252.253906 12.078125 " fill-opacity="1" fill-rule="nonzero"/></g><g clip-path="url(#76a160200c)"><path fill="#f2f2f2" d="M 219.496094 12.078125 C 219.496094 18.171875 214.582031 23.121094 208.453125 23.121094 C 202.363281 23.121094 197.414062 18.171875 197.414062 12.078125 C 197.414062 5.984375 202.363281 1.039062 208.453125 1.039062 C 214.582031 1.039062 219.496094 5.984375 219.496094 12.078125 Z M 219.496094 12.078125 " fill-opacity="1" fill-rule="nonzero"/></g><g clip-path="url(#843f2d42f5)"><path fill="#f2f2f2" d="M 186.773438 12.078125 C 186.773438 18.171875 181.828125 23.121094 175.734375 23.121094 C 169.640625 23.121094 164.691406 18.171875 164.691406 12.078125 C 164.691406 5.984375 169.640625 1.039062 175.734375 1.039062 C 181.828125 1.039062 186.773438 5.984375 186.773438 12.078125 Z M 186.773438 12.078125 " fill-opacity="1" fill-rule="nonzero"/></g><g clip-path="url(#b1c3e08bad)"><path fill="#f2f2f2" d="M 154.054688 12.078125 C 154.054688 18.171875 149.105469 23.121094 143.011719 23.121094 C 136.882812 23.121094 131.9375 18.171875 131.9375 12.078125 C 131.9375 5.984375 136.882812 1.039062 143.011719 1.039062 C 149.105469 1.039062 154.054688 5.984375 154.054688 12.078125 Z M 154.054688 12.078125 " fill-opacity="1" fill-rule="nonzero"/></g><g clip-path="url(#3c1821ec7a)"><path fill="#f2f2f2" d="M 121.296875 12.078125 C 121.296875 18.171875 116.347656 23.121094 110.253906 23.121094 C 104.164062 23.121094 99.214844 18.171875 99.214844 12.078125 C 99.214844 5.984375 104.164062 1.039062 110.253906 1.039062 C 116.347656 1.039062 121.296875 5.984375 121.296875 12.078125 Z M 121.296875 12.078125 " fill-opacity="1" fill-rule="nonzero"/></g><g clip-path="url(#c0b82ae2ce)"><path fill="#f2f2f2" d="M 88.574219 12.078125 C 88.574219 18.171875 83.628906 23.121094 77.535156 23.121094 C 71.441406 23.121094 66.492188 18.171875 66.492188 12.078125 C 66.492188 5.984375 71.441406 1.039062 77.535156 1.039062 C 83.628906 1.039062 88.574219 5.984375 88.574219 12.078125 Z M 88.574219 12.078125 " fill-opacity="1" fill-rule="nonzero"/></g><g clip-path="url(#73413d9b28)"><path fill="#f2f2f2" d="M 55.855469 12.078125 C 55.855469 18.171875 50.90625 23.121094 44.777344 23.121094 C 38.683594 23.121094 33.738281 18.171875 33.738281 12.078125 C 33.738281 5.984375 38.683594 1.039062 44.777344 1.039062 C 50.90625 1.039062 55.855469 5.984375 55.855469 12.078125 Z M 55.855469 12.078125 " fill-opacity="1" fill-rule="nonzero"/></g><g clip-path="url(#a5c32df713)"><path fill="#f2f2f2" d="M 23.097656 12.078125 C 23.097656 18.171875 18.148438 23.121094 12.058594 23.121094 C 5.964844 23.121094 1.015625 18.171875 1.015625 12.078125 C 1.015625 5.984375 5.964844 1.039062 12.058594 1.039062 C 18.148438 1.039062 23.097656 5.984375 23.097656 12.078125 Z M 23.097656 12.078125 " fill-opacity="1" fill-rule="nonzero"/></g><g clip-path="url(#b078bf8cf1)"><path fill="#f2f2f2" d="M 284.972656 12.078125 C 284.972656 18.171875 280.023438 23.121094 273.933594 23.121094 C 267.839844 23.121094 262.890625 18.171875 262.890625 12.078125 C 262.890625 5.984375 267.839844 1.039062 273.933594 1.039062 C 280.023438 1.039062 284.972656 5.984375 284.972656 12.078125 Z M 284.972656 12.078125 " fill-opacity="1" fill-rule="nonzero"/></g></g></g></g></svg>