<svg xmlns="http://www.w3.org/2000/svg" xmlns:xlink="http://www.w3.org/1999/xlink" width="1366" zoomAndPan="magnify" viewBox="0 0 1024.5 471.749988" height="629" preserveAspectRatio="xMidYMid meet" version="1.0"><defs><g/><clipPath id="3130031111"><path d="M 520 196.777344 L 673.539062 196.777344 L 673.539062 274.738281 L 520 274.738281 Z M 520 196.777344 " clip-rule="nonzero"/></clipPath><clipPath id="6e0c41e77f"><path d="M 350.472656 192.304688 L 521.757812 192.304688 L 521.757812 279.257812 L 350.472656 279.257812 Z M 350.472656 192.304688 " clip-rule="nonzero"/></clipPath></defs><g clip-path="url(#3130031111)"><path fill="#5c908a" d="M 634.398438 196.785156 L 520.265625 196.78125 L 520.265625 274.621094 C 549.488281 274.652344 633.464844 274.722656 634.175781 274.722656 C 655.660156 274.722656 673.140625 257.246094 673.140625 235.753906 C 673.140625 214.394531 655.765625 196.90625 634.398438 196.785156 " fill-opacity="1" fill-rule="nonzero"/></g><g clip-path="url(#6e0c41e77f)"><path fill="#76c2af" d="M 394.101562 192.3125 L 521.320312 192.308594 L 521.320312 279.058594 C 488.746094 279.09375 395.140625 279.171875 394.351562 279.171875 C 370.40625 279.171875 350.917969 259.695312 350.917969 235.742188 C 350.917969 211.9375 370.285156 192.449219 394.101562 192.3125 " fill-opacity="1" fill-rule="nonzero"/></g><g fill="#ffffff" fill-opacity="1"><g transform="translate(388.88431, 246.244488)"><g><path d="M 28.578125 -20.90625 L 22.515625 0 L 19.453125 0 L 14.609375 -16.828125 L 9.5625 0 L 6.53125 0.03125 L 0.6875 -20.90625 L 3.59375 -20.90625 L 8.15625 -3.171875 L 13.1875 -20.90625 L 16.25 -20.90625 L 21.046875 -3.234375 L 25.640625 -20.90625 Z M 28.578125 -20.90625 "/></g></g></g><g fill="#ffffff" fill-opacity="1"><g transform="translate(419.887855, 246.244488)"><g><path d="M 10.46875 -16.734375 C 11.707031 -16.734375 12.828125 -16.46875 13.828125 -15.9375 C 14.828125 -15.40625 15.609375 -14.609375 16.171875 -13.546875 C 16.742188 -12.492188 17.03125 -11.207031 17.03125 -9.6875 L 17.03125 0 L 14.328125 0 L 14.328125 -9.296875 C 14.328125 -10.929688 13.914062 -12.179688 13.09375 -13.046875 C 12.28125 -13.921875 11.164062 -14.359375 9.75 -14.359375 C 8.3125 -14.359375 7.164062 -13.90625 6.3125 -13 C 5.457031 -12.101562 5.03125 -10.796875 5.03125 -9.078125 L 5.03125 0 L 2.3125 0 L 2.3125 -22.1875 L 5.03125 -22.1875 L 5.03125 -14.09375 C 5.570312 -14.9375 6.316406 -15.585938 7.265625 -16.046875 C 8.222656 -16.503906 9.289062 -16.734375 10.46875 -16.734375 Z M 10.46875 -16.734375 "/></g></g></g><g fill="#ffffff" fill-opacity="1"><g transform="translate(440.81675, 246.244488)"><g><path d="M 1.296875 -8.28125 C 1.296875 -9.957031 1.632812 -11.429688 2.3125 -12.703125 C 2.988281 -13.972656 3.921875 -14.957031 5.109375 -15.65625 C 6.296875 -16.351562 7.617188 -16.703125 9.078125 -16.703125 C 10.523438 -16.703125 11.773438 -16.390625 12.828125 -15.765625 C 13.890625 -15.148438 14.679688 -14.375 15.203125 -13.4375 L 15.203125 -16.4375 L 17.953125 -16.4375 L 17.953125 0 L 15.203125 0 L 15.203125 -3.0625 C 14.660156 -2.101562 13.851562 -1.304688 12.78125 -0.671875 C 11.71875 -0.046875 10.476562 0.265625 9.0625 0.265625 C 7.59375 0.265625 6.269531 -0.09375 5.09375 -0.8125 C 3.914062 -1.53125 2.988281 -2.535156 2.3125 -3.828125 C 1.632812 -5.128906 1.296875 -6.613281 1.296875 -8.28125 Z M 15.203125 -8.25 C 15.203125 -9.488281 14.953125 -10.566406 14.453125 -11.484375 C 13.953125 -12.398438 13.273438 -13.101562 12.421875 -13.59375 C 11.578125 -14.082031 10.644531 -14.328125 9.625 -14.328125 C 8.601562 -14.328125 7.671875 -14.085938 6.828125 -13.609375 C 5.992188 -13.128906 5.328125 -12.429688 4.828125 -11.515625 C 4.328125 -10.597656 4.078125 -9.519531 4.078125 -8.28125 C 4.078125 -7.019531 4.328125 -5.921875 4.828125 -4.984375 C 5.328125 -4.054688 5.992188 -3.347656 6.828125 -2.859375 C 7.671875 -2.367188 8.601562 -2.125 9.625 -2.125 C 10.644531 -2.125 11.578125 -2.367188 12.421875 -2.859375 C 13.273438 -3.347656 13.953125 -4.054688 14.453125 -4.984375 C 14.953125 -5.921875 15.203125 -7.007812 15.203125 -8.25 Z M 15.203125 -8.25 "/></g></g></g><g fill="#ffffff" fill-opacity="1"><g transform="translate(462.825074, 246.244488)"><g><path d="M 5.640625 -14.1875 L 5.640625 -4.5 C 5.640625 -3.695312 5.804688 -3.128906 6.140625 -2.796875 C 6.484375 -2.472656 7.078125 -2.3125 7.921875 -2.3125 L 9.921875 -2.3125 L 9.921875 0 L 7.46875 0 C 5.945312 0 4.804688 -0.347656 4.046875 -1.046875 C 3.285156 -1.742188 2.90625 -2.894531 2.90625 -4.5 L 2.90625 -14.1875 L 0.78125 -14.1875 L 0.78125 -16.4375 L 2.90625 -16.4375 L 2.90625 -20.5625 L 5.640625 -20.5625 L 5.640625 -16.4375 L 9.921875 -16.4375 L 9.921875 -14.1875 Z M 5.640625 -14.1875 "/></g></g></g><g fill="#ffffff" fill-opacity="1"><g transform="translate(475.47836, 246.244488)"><g/></g></g><g fill="#ffffff" fill-opacity="1"><g transform="translate(485.223195, 246.244488)"><g><path d="M 5.640625 -14.1875 L 5.640625 -4.5 C 5.640625 -3.695312 5.804688 -3.128906 6.140625 -2.796875 C 6.484375 -2.472656 7.078125 -2.3125 7.921875 -2.3125 L 9.921875 -2.3125 L 9.921875 0 L 7.46875 0 C 5.945312 0 4.804688 -0.347656 4.046875 -1.046875 C 3.285156 -1.742188 2.90625 -2.894531 2.90625 -4.5 L 2.90625 -14.1875 L 0.78125 -14.1875 L 0.78125 -16.4375 L 2.90625 -16.4375 L 2.90625 -20.5625 L 5.640625 -20.5625 L 5.640625 -16.4375 L 9.921875 -16.4375 L 9.921875 -14.1875 Z M 5.640625 -14.1875 "/></g></g></g><g fill="#ffffff" fill-opacity="1"><g transform="translate(497.876482, 246.244488)"><g><path d="M 9.46875 0.265625 C 7.9375 0.265625 6.546875 -0.0820312 5.296875 -0.78125 C 4.046875 -1.476562 3.066406 -2.472656 2.359375 -3.765625 C 1.648438 -5.054688 1.296875 -6.550781 1.296875 -8.25 C 1.296875 -9.925781 1.660156 -11.40625 2.390625 -12.6875 C 3.117188 -13.976562 4.109375 -14.96875 5.359375 -15.65625 C 6.617188 -16.351562 8.03125 -16.703125 9.59375 -16.703125 C 11.15625 -16.703125 12.566406 -16.351562 13.828125 -15.65625 C 15.085938 -14.96875 16.082031 -13.984375 16.8125 -12.703125 C 17.539062 -11.429688 17.90625 -9.945312 17.90625 -8.25 C 17.90625 -6.550781 17.53125 -5.054688 16.78125 -3.765625 C 16.03125 -2.472656 15.015625 -1.476562 13.734375 -0.78125 C 12.453125 -0.0820312 11.03125 0.265625 9.46875 0.265625 Z M 9.46875 -2.125 C 10.445312 -2.125 11.363281 -2.351562 12.21875 -2.8125 C 13.082031 -3.28125 13.78125 -3.972656 14.3125 -4.890625 C 14.84375 -5.804688 15.109375 -6.925781 15.109375 -8.25 C 15.109375 -9.5625 14.847656 -10.675781 14.328125 -11.59375 C 13.804688 -12.519531 13.125 -13.207031 12.28125 -13.65625 C 11.445312 -14.101562 10.539062 -14.328125 9.5625 -14.328125 C 8.5625 -14.328125 7.644531 -14.101562 6.8125 -13.65625 C 5.988281 -13.207031 5.328125 -12.519531 4.828125 -11.59375 C 4.328125 -10.675781 4.078125 -9.5625 4.078125 -8.25 C 4.078125 -6.90625 4.320312 -5.773438 4.8125 -4.859375 C 5.300781 -3.941406 5.953125 -3.253906 6.765625 -2.796875 C 7.585938 -2.347656 8.488281 -2.125 9.46875 -2.125 Z M 9.46875 -2.125 "/></g></g></g><g fill="#ffffff" fill-opacity="1"><g transform="translate(518.805376, 246.244488)"><g/></g></g><g fill="#ffffff" fill-opacity="1"><g transform="translate(528.550212, 246.244488)"><g><path d="M 17.296875 -8.84375 C 17.296875 -8.320312 17.269531 -7.773438 17.21875 -7.203125 L 4.078125 -7.203125 C 4.179688 -5.578125 4.734375 -4.304688 5.734375 -3.390625 C 6.742188 -2.484375 7.972656 -2.03125 9.421875 -2.03125 C 10.597656 -2.03125 11.578125 -2.304688 12.359375 -2.859375 C 13.148438 -3.410156 13.707031 -4.144531 14.03125 -5.0625 L 16.96875 -5.0625 C 16.53125 -3.488281 15.648438 -2.207031 14.328125 -1.21875 C 13.015625 -0.226562 11.378906 0.265625 9.421875 0.265625 C 7.859375 0.265625 6.460938 -0.0820312 5.234375 -0.78125 C 4.003906 -1.476562 3.039062 -2.472656 2.34375 -3.765625 C 1.644531 -5.054688 1.296875 -6.550781 1.296875 -8.25 C 1.296875 -9.945312 1.632812 -11.429688 2.3125 -12.703125 C 2.988281 -13.984375 3.941406 -14.96875 5.171875 -15.65625 C 6.398438 -16.351562 7.816406 -16.703125 9.421875 -16.703125 C 10.972656 -16.703125 12.347656 -16.359375 13.546875 -15.671875 C 14.753906 -14.992188 15.679688 -14.0625 16.328125 -12.875 C 16.972656 -11.6875 17.296875 -10.34375 17.296875 -8.84375 Z M 14.484375 -9.421875 C 14.484375 -10.453125 14.253906 -11.34375 13.796875 -12.09375 C 13.335938 -12.84375 12.710938 -13.410156 11.921875 -13.796875 C 11.128906 -14.191406 10.253906 -14.390625 9.296875 -14.390625 C 7.910156 -14.390625 6.734375 -13.945312 5.765625 -13.0625 C 4.796875 -12.1875 4.242188 -10.972656 4.109375 -9.421875 Z M 14.484375 -9.421875 "/></g></g></g><g fill="#ffffff" fill-opacity="1"><g transform="translate(548.879422, 246.244488)"><g><path d="M 10.890625 0 L 6.984375 -6.109375 L 3.234375 0 L 0.390625 0 L 5.703125 -8.15625 L 0.390625 -16.4375 L 3.484375 -16.4375 L 7.375 -10.34375 L 11.09375 -16.4375 L 13.9375 -16.4375 L 8.671875 -8.3125 L 13.96875 0 Z M 10.890625 0 "/></g></g></g><g fill="#ffffff" fill-opacity="1"><g transform="translate(564.980885, 246.244488)"><g><path d="M 5.03125 -13.40625 C 5.570312 -14.34375 6.378906 -15.125 7.453125 -15.75 C 8.523438 -16.382812 9.769531 -16.703125 11.1875 -16.703125 C 12.644531 -16.703125 13.96875 -16.351562 15.15625 -15.65625 C 16.34375 -14.957031 17.273438 -13.972656 17.953125 -12.703125 C 18.640625 -11.429688 18.984375 -9.957031 18.984375 -8.28125 C 18.984375 -6.613281 18.640625 -5.128906 17.953125 -3.828125 C 17.273438 -2.535156 16.34375 -1.53125 15.15625 -0.8125 C 13.96875 -0.09375 12.644531 0.265625 11.1875 0.265625 C 9.78125 0.265625 8.539062 -0.046875 7.46875 -0.671875 C 6.40625 -1.304688 5.59375 -2.09375 5.03125 -3.03125 L 5.03125 7.796875 L 2.3125 7.796875 L 2.3125 -16.4375 L 5.03125 -16.4375 Z M 16.1875 -8.28125 C 16.1875 -9.519531 15.9375 -10.597656 15.4375 -11.515625 C 14.9375 -12.429688 14.257812 -13.128906 13.40625 -13.609375 C 12.5625 -14.085938 11.628906 -14.328125 10.609375 -14.328125 C 9.609375 -14.328125 8.679688 -14.082031 7.828125 -13.59375 C 6.984375 -13.101562 6.304688 -12.394531 5.796875 -11.46875 C 5.285156 -10.539062 5.03125 -9.46875 5.03125 -8.25 C 5.03125 -7.007812 5.285156 -5.921875 5.796875 -4.984375 C 6.304688 -4.054688 6.984375 -3.347656 7.828125 -2.859375 C 8.679688 -2.367188 9.609375 -2.125 10.609375 -2.125 C 11.628906 -2.125 12.5625 -2.367188 13.40625 -2.859375 C 14.257812 -3.347656 14.9375 -4.054688 15.4375 -4.984375 C 15.9375 -5.921875 16.1875 -7.019531 16.1875 -8.28125 Z M 16.1875 -8.28125 "/></g></g></g><g fill="#ffffff" fill-opacity="1"><g transform="translate(586.989198, 246.244488)"><g><path d="M 17.296875 -8.84375 C 17.296875 -8.320312 17.269531 -7.773438 17.21875 -7.203125 L 4.078125 -7.203125 C 4.179688 -5.578125 4.734375 -4.304688 5.734375 -3.390625 C 6.742188 -2.484375 7.972656 -2.03125 9.421875 -2.03125 C 10.597656 -2.03125 11.578125 -2.304688 12.359375 -2.859375 C 13.148438 -3.410156 13.707031 -4.144531 14.03125 -5.0625 L 16.96875 -5.0625 C 16.53125 -3.488281 15.648438 -2.207031 14.328125 -1.21875 C 13.015625 -0.226562 11.378906 0.265625 9.421875 0.265625 C 7.859375 0.265625 6.460938 -0.0820312 5.234375 -0.78125 C 4.003906 -1.476562 3.039062 -2.472656 2.34375 -3.765625 C 1.644531 -5.054688 1.296875 -6.550781 1.296875 -8.25 C 1.296875 -9.945312 1.632812 -11.429688 2.3125 -12.703125 C 2.988281 -13.984375 3.941406 -14.96875 5.171875 -15.65625 C 6.398438 -16.351562 7.816406 -16.703125 9.421875 -16.703125 C 10.972656 -16.703125 12.347656 -16.359375 13.546875 -15.671875 C 14.753906 -14.992188 15.679688 -14.0625 16.328125 -12.875 C 16.972656 -11.6875 17.296875 -10.34375 17.296875 -8.84375 Z M 14.484375 -9.421875 C 14.484375 -10.453125 14.253906 -11.34375 13.796875 -12.09375 C 13.335938 -12.84375 12.710938 -13.410156 11.921875 -13.796875 C 11.128906 -14.191406 10.253906 -14.390625 9.296875 -14.390625 C 7.910156 -14.390625 6.734375 -13.945312 5.765625 -13.0625 C 4.796875 -12.1875 4.242188 -10.972656 4.109375 -9.421875 Z M 14.484375 -9.421875 "/></g></g></g><g fill="#ffffff" fill-opacity="1"><g transform="translate(607.318397, 246.244488)"><g><path d="M 1.296875 -8.25 C 1.296875 -9.945312 1.632812 -11.429688 2.3125 -12.703125 C 2.988281 -13.972656 3.929688 -14.957031 5.140625 -15.65625 C 6.347656 -16.351562 7.734375 -16.703125 9.296875 -16.703125 C 11.316406 -16.703125 12.976562 -16.210938 14.28125 -15.234375 C 15.59375 -14.253906 16.457031 -12.894531 16.875 -11.15625 L 13.9375 -11.15625 C 13.65625 -12.15625 13.109375 -12.941406 12.296875 -13.515625 C 11.492188 -14.097656 10.492188 -14.390625 9.296875 -14.390625 C 7.734375 -14.390625 6.472656 -13.851562 5.515625 -12.78125 C 4.554688 -11.71875 4.078125 -10.207031 4.078125 -8.25 C 4.078125 -6.269531 4.554688 -4.738281 5.515625 -3.65625 C 6.472656 -2.570312 7.734375 -2.03125 9.296875 -2.03125 C 10.492188 -2.03125 11.492188 -2.3125 12.296875 -2.875 C 13.097656 -3.4375 13.644531 -4.238281 13.9375 -5.28125 L 16.875 -5.28125 C 16.4375 -3.601562 15.554688 -2.257812 14.234375 -1.25 C 12.921875 -0.238281 11.273438 0.265625 9.296875 0.265625 C 7.734375 0.265625 6.347656 -0.0820312 5.140625 -0.78125 C 3.929688 -1.476562 2.988281 -2.46875 2.3125 -3.75 C 1.632812 -5.03125 1.296875 -6.53125 1.296875 -8.25 Z M 1.296875 -8.25 "/></g></g></g><g fill="#ffffff" fill-opacity="1"><g transform="translate(627.257811, 246.244488)"><g><path d="M 5.640625 -14.1875 L 5.640625 -4.5 C 5.640625 -3.695312 5.804688 -3.128906 6.140625 -2.796875 C 6.484375 -2.472656 7.078125 -2.3125 7.921875 -2.3125 L 9.921875 -2.3125 L 9.921875 0 L 7.46875 0 C 5.945312 0 4.804688 -0.347656 4.046875 -1.046875 C 3.285156 -1.742188 2.90625 -2.894531 2.90625 -4.5 L 2.90625 -14.1875 L 0.78125 -14.1875 L 0.78125 -16.4375 L 2.90625 -16.4375 L 2.90625 -20.5625 L 5.640625 -20.5625 L 5.640625 -16.4375 L 9.921875 -16.4375 L 9.921875 -14.1875 Z M 5.640625 -14.1875 "/></g></g></g></svg>