<svg xmlns="http://www.w3.org/2000/svg" xmlns:xlink="http://www.w3.org/1999/xlink" width="1366" zoomAndPan="magnify" viewBox="0 0 1024.5 471.749988" height="629" preserveAspectRatio="xMidYMid meet" version="1.0"><defs><clipPath id="7ea41eed43"><path d="M 464.164062 188.433594 L 559.902344 188.433594 L 559.902344 283.066406 L 464.164062 283.066406 Z M 464.164062 188.433594 " clip-rule="nonzero"/></clipPath><clipPath id="c0e59fc113"><path d="M 511.476562 188.433594 L 512.523438 188.433594 C 525.070312 188.433594 537.105469 193.421875 545.976562 202.292969 C 554.851562 211.167969 559.835938 223.203125 559.835938 235.75 C 559.835938 248.296875 554.851562 260.332031 545.976562 269.207031 C 537.105469 278.078125 525.070312 283.066406 512.523438 283.066406 L 511.476562 283.066406 C 498.929688 283.066406 486.894531 278.078125 478.023438 269.207031 C 469.148438 260.332031 464.164062 248.296875 464.164062 235.75 C 464.164062 223.203125 469.148438 211.167969 478.023438 202.292969 C 486.894531 193.421875 498.929688 188.433594 511.476562 188.433594 Z M 511.476562 188.433594 " clip-rule="nonzero"/></clipPath><clipPath id="94408cebb6"><path d="M 491 208.007812 L 533 208.007812 L 533 250 L 491 250 Z M 491 208.007812 " clip-rule="nonzero"/></clipPath><clipPath id="06fe6d8014"><path d="M 530 250 L 542.882812 250 L 542.882812 263.574219 L 530 263.574219 Z M 530 250 " clip-rule="nonzero"/></clipPath><clipPath id="f568ff401e"><path d="M 527 234 L 542.882812 234 L 542.882812 248 L 527 248 Z M 527 234 " clip-rule="nonzero"/></clipPath><clipPath id="d301836875"><path d="M 481.042969 234 L 498 234 L 498 248 L 481.042969 248 Z M 481.042969 234 " clip-rule="nonzero"/></clipPath></defs><g clip-path="url(#7ea41eed43)"><g clip-path="url(#c0e59fc113)"><path fill="#000000" d="M 464.164062 188.433594 L 559.902344 188.433594 L 559.902344 283.066406 L 464.164062 283.066406 Z M 464.164062 188.433594 " fill-opacity="1" fill-rule="nonzero"/></g></g><g clip-path="url(#94408cebb6)"><path fill="#ffffff" d="M 525.769531 244.421875 C 526.121094 244.121094 526.417969 243.835938 526.699219 243.554688 C 527.199219 243.046875 527.664062 242.527344 528.074219 242.015625 C 529.640625 240.097656 530.8125 237.984375 531.59375 235.773438 C 531.832031 235.101562 532.035156 234.421875 532.199219 233.738281 C 532.210938 233.675781 532.230469 233.617188 532.242188 233.558594 C 532.390625 232.921875 532.507812 232.28125 532.59375 231.640625 C 533.039062 228.363281 532.691406 225.015625 531.574219 221.882812 C 531.316406 221.160156 531.015625 220.449219 530.675781 219.753906 C 529.671875 217.695312 528.304688 215.761719 526.585938 214.058594 L 526.582031 214.058594 C 522.65625 210.152344 517.441406 208.007812 511.90625 208.007812 L 511.820312 208.007812 C 506.253906 208.027344 501.023438 210.214844 497.097656 214.171875 C 495.449219 215.832031 494.136719 217.703125 493.164062 219.699219 C 492.824219 220.394531 492.523438 221.101562 492.269531 221.824219 C 491.144531 224.957031 490.800781 228.308594 491.222656 231.578125 C 491.304688 232.222656 491.421875 232.867188 491.566406 233.5 C 491.578125 233.5625 491.59375 233.621094 491.609375 233.679688 C 491.765625 234.367188 491.964844 235.046875 492.199219 235.714844 C 493.203125 238.625 494.871094 241.351562 497.195312 243.660156 C 497.964844 244.414062 498.78125 245.109375 499.632812 245.726562 C 499.671875 245.753906 499.710938 245.785156 499.75 245.8125 C 499.875 245.902344 499.996094 245.988281 500.121094 246.070312 C 500.6875 246.457031 501.261719 246.8125 501.851562 247.136719 C 508.105469 250.589844 515.632812 250.601562 521.890625 247.164062 C 522.371094 246.902344 522.84375 246.617188 523.3125 246.308594 C 523.316406 246.308594 523.316406 246.308594 523.320312 246.308594 L 523.4375 246.234375 C 523.503906 246.191406 523.574219 246.148438 523.636719 246.105469 C 523.777344 246.007812 523.890625 245.925781 524.003906 245.851562 C 524.046875 245.816406 524.09375 245.78125 524.140625 245.75 C 524.496094 245.488281 524.84375 245.222656 525.179688 244.941406 C 525.347656 244.804688 525.511719 244.667969 525.667969 244.515625 C 525.699219 244.484375 525.734375 244.457031 525.769531 244.421875 Z M 525.34375 242.535156 C 525.316406 242.558594 525.28125 242.585938 525.246094 242.617188 C 525.027344 242.832031 524.804688 243.042969 524.578125 243.238281 C 524.449219 243.355469 524.316406 243.46875 524.183594 243.578125 C 523.589844 244.070312 522.96875 244.53125 522.324219 244.945312 L 522.320312 244.945312 C 522.15625 245.054688 521.988281 245.160156 521.820312 245.265625 L 521.816406 245.265625 C 521.339844 245.5625 520.820312 245.851562 520.285156 246.105469 L 520.269531 246.113281 C 520.269531 246.113281 520.246094 246.125 520.238281 246.132812 C 519.984375 246.253906 519.726562 246.375 519.457031 246.476562 C 519.277344 246.558594 519.097656 246.632812 518.910156 246.707031 C 518.726562 246.78125 518.542969 246.855469 518.351562 246.921875 C 517.222656 247.332031 516.027344 247.636719 514.792969 247.816406 C 514.675781 247.835938 514.550781 247.851562 514.433594 247.867188 C 514.316406 247.882812 514.191406 247.898438 514.074219 247.910156 C 513.570312 247.972656 513.085938 248.007812 512.625 248.023438 C 512.535156 248.027344 512.445312 248.03125 512.359375 248.03125 L 512.351562 248.03125 C 512.304688 248.03125 512.253906 248.03125 512.203125 248.03125 L 512.035156 248.03125 C 511.996094 248.03125 511.957031 248.03125 511.914062 248.03125 C 511.773438 248.03125 511.625 248.03125 511.480469 248.027344 C 511.394531 248.027344 511.3125 248.023438 511.230469 248.019531 C 510.980469 248.011719 510.742188 247.996094 510.5 247.976562 C 510.101562 247.945312 509.738281 247.910156 509.386719 247.867188 C 509.261719 247.847656 509.132812 247.832031 509.007812 247.8125 L 508.082031 247.644531 C 507.929688 247.617188 507.773438 247.585938 507.617188 247.550781 C 507.320312 247.484375 507.019531 247.410156 506.714844 247.316406 C 506.558594 247.277344 506.402344 247.226562 506.246094 247.175781 C 506.179688 247.15625 506.089844 247.128906 505.992188 247.089844 C 505.761719 247.027344 505.539062 246.949219 505.308594 246.859375 C 505.292969 246.855469 505.277344 246.851562 505.261719 246.84375 C 505.242188 246.835938 505.21875 246.828125 505.195312 246.820312 C 504.957031 246.738281 504.6875 246.632812 504.410156 246.507812 L 504.359375 246.488281 C 504.335938 246.476562 504.308594 246.46875 504.289062 246.457031 C 504.113281 246.382812 503.929688 246.308594 503.753906 246.214844 L 503.75 246.214844 L 503.609375 246.148438 L 503.5625 246.128906 C 503.5625 246.128906 503.527344 246.113281 503.515625 246.109375 C 503.488281 246.09375 503.460938 246.082031 503.433594 246.066406 C 503.367188 246.035156 503.300781 246 503.234375 245.96875 C 503.203125 245.949219 503.175781 245.9375 503.144531 245.921875 C 503.078125 245.886719 503.007812 245.851562 502.941406 245.8125 C 502.941406 245.8125 502.9375 245.8125 502.9375 245.808594 C 502.871094 245.773438 502.808594 245.738281 502.746094 245.703125 C 502.625 245.640625 502.496094 245.570312 502.367188 245.496094 C 502.300781 245.460938 502.234375 245.421875 502.167969 245.378906 C 502.101562 245.339844 502.035156 245.300781 501.972656 245.261719 C 501.949219 245.246094 501.921875 245.230469 501.894531 245.210938 C 501.746094 245.128906 501.585938 245.027344 501.425781 244.921875 C 501.363281 244.878906 501.304688 244.835938 501.242188 244.789062 C 501.234375 244.785156 501.226562 244.78125 501.21875 244.777344 C 500.964844 244.613281 500.710938 244.433594 500.449219 244.242188 C 500.1875 244.046875 499.917969 243.835938 499.652344 243.613281 L 499.648438 243.613281 C 499.257812 243.289062 498.894531 242.960938 498.539062 242.605469 C 498.523438 242.597656 498.511719 242.582031 498.496094 242.570312 C 498.488281 242.566406 498.484375 242.5625 498.480469 242.558594 L 498.4375 242.511719 L 498.410156 242.488281 L 498.359375 242.441406 C 498.261719 242.34375 498.164062 242.246094 498.074219 242.148438 C 496.210938 240.214844 494.835938 237.984375 493.949219 235.609375 C 493.710938 234.964844 493.503906 234.316406 493.339844 233.660156 C 493.324219 233.625 493.320312 233.585938 493.308594 233.546875 C 493.140625 232.875 493.007812 232.195312 492.914062 231.511719 C 492.703125 230.007812 492.675781 228.484375 492.828125 226.972656 C 492.890625 226.339844 492.984375 225.710938 493.109375 225.082031 C 493.191406 224.671875 493.285156 224.261719 493.394531 223.851562 C 493.46875 223.5625 493.554688 223.269531 493.644531 222.984375 C 493.753906 222.644531 493.871094 222.308594 494.003906 221.976562 C 494.039062 221.871094 494.082031 221.765625 494.125 221.664062 C 494.238281 221.378906 494.359375 221.097656 494.488281 220.820312 C 494.613281 220.546875 494.746094 220.277344 494.882812 220.007812 C 494.992188 219.796875 495.109375 219.585938 495.226562 219.378906 C 495.269531 219.300781 495.3125 219.226562 495.359375 219.148438 C 496.148438 217.796875 497.125 216.515625 498.28125 215.351562 C 498.359375 215.273438 498.429688 215.199219 498.503906 215.128906 C 498.542969 215.09375 498.585938 215.054688 498.625 215.015625 C 498.628906 215.015625 498.632812 215.011719 498.636719 215.007812 C 498.78125 214.863281 498.96875 214.6875 499.152344 214.523438 C 499.433594 214.273438 499.722656 214.03125 500.015625 213.800781 C 500.308594 213.570312 500.605469 213.347656 500.910156 213.136719 C 501.15625 212.964844 501.402344 212.796875 501.65625 212.640625 C 502.03125 212.402344 502.414062 212.179688 502.800781 211.976562 C 503.03125 211.84375 503.289062 211.71875 503.542969 211.59375 C 503.824219 211.457031 504.097656 211.328125 504.375 211.21875 C 504.375 211.21875 504.40625 211.203125 504.425781 211.195312 C 504.492188 211.164062 504.558594 211.132812 504.628906 211.109375 C 504.6875 211.085938 504.75 211.0625 504.8125 211.035156 C 504.832031 211.03125 504.859375 211.019531 504.878906 211.011719 C 505.113281 210.917969 505.316406 210.84375 505.515625 210.773438 L 505.667969 210.71875 C 505.933594 210.628906 506.183594 210.546875 506.421875 210.480469 C 506.679688 210.402344 506.96875 210.320312 507.253906 210.257812 C 507.390625 210.21875 507.597656 210.164062 507.820312 210.125 C 507.863281 210.117188 507.910156 210.101562 507.957031 210.089844 C 508.007812 210.082031 508.058594 210.070312 508.113281 210.058594 C 508.113281 210.058594 508.113281 210.058594 508.117188 210.058594 C 508.171875 210.046875 508.226562 210.035156 508.285156 210.027344 L 508.292969 210.027344 C 508.351562 210.015625 508.410156 210.003906 508.472656 209.992188 C 508.726562 209.945312 508.953125 209.902344 509.179688 209.878906 C 509.375 209.851562 509.636719 209.8125 509.882812 209.800781 C 512.773438 209.480469 515.660156 209.832031 518.34375 210.785156 C 518.921875 210.996094 519.492188 211.230469 520.046875 211.492188 C 522.003906 212.410156 523.816406 213.667969 525.398438 215.238281 L 525.402344 215.238281 C 525.515625 215.351562 525.628906 215.464844 525.734375 215.582031 C 525.851562 215.703125 525.96875 215.828125 526.085938 215.953125 C 526.25 216.136719 526.414062 216.324219 526.570312 216.507812 C 526.726562 216.695312 526.878906 216.886719 527.03125 217.078125 C 527.230469 217.332031 527.421875 217.59375 527.605469 217.855469 C 528.105469 218.558594 528.554688 219.292969 528.949219 220.058594 C 529.277344 220.695312 529.570312 221.351562 529.824219 222.023438 C 530.636719 224.15625 531.0625 226.4375 531.070312 228.785156 C 531.074219 229.726562 531.011719 230.65625 530.878906 231.570312 C 530.785156 232.257812 530.648438 232.9375 530.480469 233.601562 C 530.472656 233.640625 530.460938 233.679688 530.449219 233.71875 C 530.28125 234.375 530.074219 235.027344 529.832031 235.660156 L 529.828125 235.660156 C 529.507812 236.515625 529.125 237.335938 528.683594 238.132812 C 528.535156 238.402344 528.378906 238.664062 528.21875 238.925781 C 528.128906 239.074219 528.035156 239.222656 527.9375 239.371094 C 527.847656 239.503906 527.757812 239.636719 527.667969 239.765625 C 527.578125 239.898438 527.488281 240.027344 527.390625 240.15625 C 527.378906 240.175781 527.359375 240.195312 527.351562 240.214844 C 527.203125 240.410156 527.058594 240.601562 526.90625 240.789062 C 526.863281 240.847656 526.816406 240.902344 526.773438 240.957031 C 526.378906 241.441406 525.953125 241.917969 525.503906 242.371094 L 525.34375 242.53125 Z M 525.34375 242.535156 " fill-opacity="1" fill-rule="nonzero"/></g><g clip-path="url(#06fe6d8014)"><path fill="#ffffff" d="M 542.492188 260.464844 L 533.144531 251.1875 C 532.933594 250.980469 532.65625 250.863281 532.355469 250.863281 C 532.316406 250.859375 532.277344 250.859375 532.242188 250.863281 C 531.957031 250.875 531.746094 251.003906 531.554688 251.191406 L 530.574219 252.183594 C 530.382812 252.371094 530.273438 252.617188 530.25 252.878906 C 530.246094 252.910156 530.246094 252.945312 530.246094 252.980469 C 530.25 253.28125 530.363281 253.558594 530.578125 253.773438 L 539.925781 263.050781 C 540.363281 263.484375 541.078125 263.480469 541.515625 263.042969 L 542.5 262.050781 C 542.933594 261.613281 542.929688 260.898438 542.492188 260.460938 Z M 542.492188 260.464844 " fill-opacity="1" fill-rule="nonzero"/></g><path fill="#ffffff" d="M 529.125 249.460938 L 526.398438 246.75 L 526.371094 246.722656 C 526.371094 246.722656 526.359375 246.730469 526.355469 246.734375 C 526.261719 246.8125 526.167969 246.886719 526.078125 246.957031 C 525.90625 247.089844 525.734375 247.21875 525.570312 247.347656 L 527.429688 249.199219 L 528.996094 250.753906 L 529.1875 250.945312 L 529.898438 250.222656 L 529.707031 250.035156 L 529.128906 249.460938 Z M 529.125 249.460938 " fill-opacity="1" fill-rule="nonzero"/><g clip-path="url(#f568ff401e)"><path fill="#ffffff" d="M 531.644531 247.4375 C 531.914062 247.433594 532.195312 247.414062 532.480469 247.390625 C 532.917969 247.359375 533.347656 247.316406 533.777344 247.25 C 535.238281 247.03125 536.628906 246.632812 537.921875 246.058594 C 538.132812 245.96875 538.316406 245.882812 538.507812 245.792969 L 538.664062 245.722656 C 539.097656 245.503906 539.5625 245.25 540.019531 244.976562 C 540.75 244.539062 541.457031 244.03125 542.125 243.476562 C 542.332031 243.308594 542.53125 243.128906 542.726562 242.949219 C 542.242188 240.75 541.152344 238.761719 539.550781 237.15625 C 538.402344 236.007812 537.015625 235.101562 535.519531 234.507812 C 535.042969 234.820312 534.535156 235.074219 533.996094 235.273438 C 533.160156 238.144531 531.742188 240.898438 529.730469 243.359375 C 529.28125 243.917969 528.773438 244.488281 528.214844 245.054688 C 528.136719 245.136719 528.050781 245.21875 527.96875 245.300781 L 530.085938 247.40625 C 530.34375 247.421875 530.570312 247.433594 530.796875 247.4375 Z M 531.644531 247.4375 " fill-opacity="1" fill-rule="nonzero"/></g><path fill="#ffffff" d="M 527.191406 236.386719 C 527.410156 235.9375 527.609375 235.480469 527.785156 235.019531 C 527.464844 234.871094 527.164062 234.703125 526.871094 234.507812 C 525.675781 234.976562 524.585938 235.628906 523.625 236.425781 C 524.265625 237.414062 524.769531 238.476562 525.136719 239.59375 C 525.140625 239.585938 525.144531 239.582031 525.148438 239.578125 C 525.242188 239.46875 525.328125 239.351562 525.410156 239.242188 C 525.503906 239.128906 525.585938 239.015625 525.667969 238.898438 C 525.753906 238.785156 525.832031 238.667969 525.914062 238.554688 C 526.035156 238.378906 526.152344 238.207031 526.265625 238.027344 C 526.492188 237.671875 526.703125 237.308594 526.902344 236.945312 C 527 236.757812 527.097656 236.574219 527.191406 236.386719 Z M 527.191406 236.386719 " fill-opacity="1" fill-rule="nonzero"/><path fill="#ffffff" d="M 534.699219 232.007812 C 534.671875 232.191406 534.648438 232.371094 534.617188 232.550781 C 534.800781 232.421875 534.972656 232.28125 535.136719 232.132812 C 536.332031 231.054688 537.085938 229.496094 537.085938 227.761719 C 537.085938 225.546875 535.859375 223.613281 534.046875 222.605469 C 534.625 224.644531 534.917969 226.75 534.917969 228.859375 C 534.917969 229.914062 534.84375 230.964844 534.699219 232.007812 Z M 534.699219 232.007812 " fill-opacity="1" fill-rule="nonzero"/><path fill="#ffffff" d="M 528.429688 232.964844 C 528.527344 232.578125 528.609375 232.1875 528.675781 231.792969 C 529.191406 228.828125 528.917969 225.753906 527.863281 222.902344 C 526.316406 223.96875 525.304688 225.746094 525.304688 227.761719 C 525.304688 229.492188 526.054688 231.050781 527.246094 232.132812 C 527.605469 232.453125 528.003906 232.734375 528.429688 232.964844 Z M 528.429688 232.964844 " fill-opacity="1" fill-rule="nonzero"/><path fill="#ffffff" d="M 511.894531 232.109375 C 513.410156 232.109375 514.796875 231.53125 515.839844 230.589844 C 517.03125 229.511719 517.785156 227.953125 517.785156 226.21875 C 517.785156 222.96875 515.140625 220.328125 511.894531 220.328125 C 508.648438 220.328125 506 222.96875 506 226.21875 C 506 227.949219 506.75 229.507812 507.949219 230.589844 C 508.992188 231.53125 510.378906 232.109375 511.894531 232.109375 Z M 511.894531 232.109375 " fill-opacity="1" fill-rule="nonzero"/><path fill="#ffffff" d="M 520.792969 236.199219 C 520.621094 236 520.433594 235.804688 520.246094 235.613281 C 519.101562 234.46875 517.714844 233.5625 516.214844 232.972656 C 514.96875 233.78125 513.484375 234.246094 511.894531 234.246094 C 510.304688 234.246094 508.820312 233.777344 507.570312 232.972656 C 505.785156 233.667969 504.230469 234.773438 503.007812 236.167969 C 502.523438 236.71875 502.097656 237.308594 501.722656 237.941406 C 501.09375 239 500.632812 240.164062 500.355469 241.398438 C 500.492188 241.527344 500.632812 241.652344 500.769531 241.773438 C 500.847656 241.839844 500.925781 241.90625 501.007812 241.972656 C 501.125 242.070312 501.246094 242.164062 501.363281 242.261719 C 501.71875 242.539062 502.066406 242.789062 502.421875 243.023438 L 502.425781 243.023438 C 502.640625 243.167969 502.835938 243.292969 503.03125 243.414062 C 503.042969 243.417969 503.054688 243.425781 503.070312 243.433594 C 503.160156 243.488281 503.242188 243.542969 503.324219 243.585938 C 503.328125 243.585938 503.332031 243.59375 503.332031 243.59375 C 503.425781 243.648438 503.511719 243.699219 503.597656 243.742188 C 503.65625 243.773438 503.707031 243.804688 503.761719 243.832031 C 504.019531 243.976562 504.242188 244.09375 504.46875 244.199219 L 504.644531 244.285156 C 504.816406 244.363281 504.984375 244.441406 505.15625 244.515625 C 505.160156 244.515625 505.164062 244.519531 505.167969 244.519531 L 505.320312 244.582031 C 505.347656 244.589844 505.382812 244.605469 505.410156 244.617188 C 505.589844 244.691406 505.769531 244.765625 505.960938 244.832031 C 505.964844 244.835938 505.972656 244.835938 505.980469 244.839844 C 506.191406 244.917969 506.40625 244.988281 506.617188 245.058594 C 506.632812 245.0625 506.644531 245.066406 506.65625 245.070312 C 506.675781 245.074219 506.695312 245.082031 506.714844 245.089844 C 506.738281 245.097656 506.757812 245.105469 506.777344 245.109375 C 506.785156 245.109375 506.890625 245.144531 506.90625 245.148438 C 507.136719 245.226562 507.363281 245.292969 507.585938 245.351562 C 507.882812 245.429688 508.175781 245.5 508.460938 245.554688 L 508.484375 245.554688 C 508.484375 245.554688 509.351562 245.710938 509.351562 245.710938 C 509.433594 245.722656 509.511719 245.734375 509.59375 245.746094 C 509.625 245.75 509.65625 245.753906 509.6875 245.757812 C 509.839844 245.78125 509.996094 245.796875 510.152344 245.8125 C 510.386719 245.835938 510.613281 245.855469 510.832031 245.867188 C 510.90625 245.871094 510.980469 245.878906 511.058594 245.882812 C 511.132812 245.886719 511.207031 245.890625 511.28125 245.890625 C 511.351562 245.894531 511.421875 245.898438 511.492188 245.898438 C 511.746094 245.910156 511.984375 245.910156 512.21875 245.898438 L 512.339844 245.898438 C 512.402344 245.898438 512.46875 245.898438 512.53125 245.890625 L 512.5625 245.890625 C 512.613281 245.890625 512.664062 245.886719 512.722656 245.882812 C 512.871094 245.875 513.019531 245.863281 513.175781 245.851562 C 513.503906 245.828125 513.828125 245.792969 514.152344 245.753906 C 514.257812 245.738281 514.363281 245.722656 514.472656 245.707031 C 515.832031 245.503906 517.128906 245.144531 518.34375 244.632812 C 518.433594 244.597656 518.523438 244.554688 518.613281 244.519531 C 518.820312 244.429688 519 244.347656 519.179688 244.261719 L 519.328125 244.195312 L 519.359375 244.183594 C 519.703125 244.007812 520.066406 243.816406 520.425781 243.609375 C 520.523438 243.550781 520.617188 243.496094 520.714844 243.4375 C 520.859375 243.351562 521.003906 243.257812 521.148438 243.164062 C 521.726562 242.796875 522.285156 242.378906 522.820312 241.933594 C 522.914062 241.855469 523.007812 241.777344 523.101562 241.695312 C 523.144531 241.660156 523.1875 241.625 523.230469 241.585938 C 523.261719 241.5625 523.289062 241.53125 523.316406 241.507812 C 523.355469 241.472656 523.390625 241.441406 523.425781 241.40625 C 523.15625 240.191406 522.703125 239.039062 522.074219 237.980469 C 521.703125 237.351562 521.277344 236.753906 520.792969 236.199219 Z M 520.792969 236.199219 " fill-opacity="1" fill-rule="nonzero"/><path fill="#ffffff" d="M 495.992188 234.972656 C 496.332031 235.863281 496.746094 236.722656 497.238281 237.558594 C 497.453125 237.921875 497.683594 238.277344 497.929688 238.628906 C 498.011719 238.746094 498.097656 238.863281 498.179688 238.976562 C 498.328125 239.179688 498.484375 239.382812 498.648438 239.578125 C 499.019531 238.441406 499.535156 237.371094 500.175781 236.386719 C 499.203125 235.574219 498.097656 234.914062 496.929688 234.453125 C 496.632812 234.648438 496.316406 234.824219 495.992188 234.972656 Z M 495.992188 234.972656 " fill-opacity="1" fill-rule="nonzero"/><path fill="#ffffff" d="M 498.492188 227.703125 C 498.492188 225.695312 497.484375 223.921875 495.953125 222.859375 L 495.949219 222.859375 C 495.898438 222.988281 495.855469 223.113281 495.8125 223.242188 C 495.773438 223.355469 495.734375 223.46875 495.695312 223.582031 C 495.625 223.8125 495.558594 224.039062 495.492188 224.269531 C 495.429688 224.5 495.367188 224.734375 495.3125 224.964844 C 495.175781 225.546875 495.074219 226.136719 495 226.730469 C 494.972656 226.964844 494.945312 227.191406 494.925781 227.425781 L 494.925781 227.4375 C 494.90625 227.671875 494.890625 227.90625 494.878906 228.136719 C 494.847656 228.90625 494.867188 229.675781 494.941406 230.441406 C 494.945312 230.492188 494.945312 230.539062 494.953125 230.589844 C 494.992188 230.96875 495.042969 231.351562 495.109375 231.734375 C 495.152344 232 495.207031 232.265625 495.261719 232.53125 C 495.261719 232.535156 495.261719 232.539062 495.265625 232.539062 C 495.273438 232.601562 495.289062 232.664062 495.304688 232.722656 C 495.320312 232.785156 495.335938 232.847656 495.351562 232.914062 C 495.785156 232.683594 496.1875 232.398438 496.546875 232.070312 C 497.742188 230.996094 498.492188 229.433594 498.492188 227.703125 Z M 498.492188 227.703125 " fill-opacity="1" fill-rule="nonzero"/><path fill="#ffffff" d="M 489.207031 232.511719 C 489.175781 232.324219 489.148438 232.132812 489.125 231.945312 C 488.703125 228.804688 488.929688 225.585938 489.808594 222.515625 C 487.96875 223.519531 486.714844 225.46875 486.714844 227.703125 C 486.714844 229.433594 487.464844 230.992188 488.65625 232.070312 C 488.832031 232.230469 489.015625 232.375 489.207031 232.511719 Z M 489.207031 232.511719 " fill-opacity="1" fill-rule="nonzero"/><g clip-path="url(#d301836875)"><path fill="#ffffff" d="M 489.808594 235.222656 C 489.269531 235.023438 488.757812 234.765625 488.28125 234.453125 C 484.609375 235.890625 481.910156 239.054688 481.066406 242.882812 C 481.277344 243.082031 481.492188 243.273438 481.714844 243.457031 C 482.199219 243.851562 482.660156 244.195312 483.136719 244.503906 C 483.367188 244.667969 483.566406 244.796875 483.78125 244.917969 C 484.035156 245.078125 484.253906 245.203125 484.476562 245.316406 C 484.730469 245.460938 484.953125 245.578125 485.175781 245.683594 L 485.335938 245.753906 C 485.519531 245.84375 485.699219 245.925781 485.882812 246.003906 L 486.042969 246.070312 C 486.261719 246.15625 486.46875 246.242188 486.695312 246.324219 C 486.917969 246.40625 487.144531 246.484375 487.371094 246.554688 C 487.410156 246.566406 487.445312 246.578125 487.484375 246.59375 C 487.5 246.59375 487.601562 246.632812 487.617188 246.632812 C 488.148438 246.808594 488.671875 246.941406 489.175781 247.035156 L 490.066406 247.195312 C 490.460938 247.253906 490.886719 247.300781 491.3125 247.332031 C 491.648438 247.355469 491.921875 247.378906 492.207031 247.382812 L 493.054688 247.382812 C 493.324219 247.382812 493.609375 247.355469 493.886719 247.335938 C 494.328125 247.300781 494.753906 247.253906 495.1875 247.1875 C 495.949219 247.078125 496.691406 246.914062 497.40625 246.703125 C 496.816406 246.226562 496.246094 245.714844 495.695312 245.171875 C 492.816406 242.3125 490.851562 238.875 489.808594 235.222656 Z M 489.808594 235.222656 " fill-opacity="1" fill-rule="nonzero"/></g></svg>