<svg xmlns="http://www.w3.org/2000/svg" xmlns:xlink="http://www.w3.org/1999/xlink" width="1366" zoomAndPan="magnify" viewBox="0 0 1024.5 471.749988" height="629" preserveAspectRatio="xMidYMid meet" version="1.0"><defs><clipPath id="adf30d8bfb"><path d="M 454.128906 178.511719 L 569.949219 178.511719 L 569.949219 292.988281 L 454.128906 292.988281 Z M 454.128906 178.511719 " clip-rule="nonzero"/></clipPath><clipPath id="a398235f8a"><path d="M 511.367188 178.511719 L 512.632812 178.511719 C 527.8125 178.511719 542.371094 184.539062 553.105469 195.273438 C 563.839844 206.011719 569.871094 220.570312 569.871094 235.75 C 569.871094 250.929688 563.839844 265.488281 553.105469 276.226562 C 542.371094 286.960938 527.8125 292.988281 512.632812 292.988281 L 511.367188 292.988281 C 496.1875 292.988281 481.628906 286.960938 470.894531 276.226562 C 460.160156 265.488281 454.128906 250.929688 454.128906 235.75 C 454.128906 220.570312 460.160156 206.011719 470.894531 195.273438 C 481.628906 184.539062 496.1875 178.511719 511.367188 178.511719 Z M 511.367188 178.511719 " clip-rule="nonzero"/></clipPath><clipPath id="cace62bbd8"><path d="M 479.285156 203.035156 L 544.339844 203.035156 L 544.339844 268.089844 L 479.285156 268.089844 Z M 479.285156 203.035156 " clip-rule="nonzero"/></clipPath></defs><g clip-path="url(#adf30d8bfb)"><g clip-path="url(#a398235f8a)"><path fill="#000000" d="M 454.128906 178.511719 L 569.949219 178.511719 L 569.949219 292.988281 L 454.128906 292.988281 Z M 454.128906 178.511719 " fill-opacity="1" fill-rule="nonzero"/></g></g><g clip-path="url(#cace62bbd8)"><path fill="#ffffff" d="M 512 208.871094 C 513.519531 208.871094 514.753906 210.109375 514.753906 211.628906 C 514.753906 213.148438 513.519531 214.382812 512 214.382812 C 510.480469 214.382812 509.242188 213.148438 509.242188 211.628906 C 509.242188 210.109375 510.480469 208.871094 512 208.871094 Z M 512 216.238281 C 514.542969 216.238281 516.609375 214.171875 516.609375 211.628906 C 516.609375 209.085938 514.542969 207.015625 512 207.015625 C 509.457031 207.015625 507.386719 209.085938 507.386719 211.628906 C 507.386719 214.171875 509.457031 216.238281 512 216.238281 Z M 536.117188 235.0625 C 534.597656 235.0625 533.363281 233.828125 533.363281 232.308594 C 533.363281 230.789062 534.597656 229.550781 536.117188 229.550781 C 537.636719 229.550781 538.875 230.789062 538.875 232.308594 C 538.875 233.828125 537.636719 235.0625 536.117188 235.0625 Z M 536.117188 227.699219 C 533.574219 227.699219 531.507812 229.765625 531.507812 232.308594 C 531.507812 234.847656 533.574219 236.917969 536.117188 236.917969 C 538.660156 236.917969 540.730469 234.847656 540.730469 232.308594 C 540.730469 229.765625 538.660156 227.699219 536.117188 227.699219 Z M 540.859375 234.269531 C 541.214844 233.402344 541.960938 232.824219 542.859375 232.683594 L 542.859375 231.929688 C 541.960938 231.792969 541.214844 231.210938 540.859375 230.34375 C 540.5 229.480469 540.617188 228.539062 541.148438 227.808594 L 540.617188 227.277344 C 539.886719 227.8125 538.949219 227.925781 538.082031 227.566406 C 537.214844 227.207031 536.632812 226.464844 536.496094 225.570312 L 535.742188 225.570312 C 535.605469 226.464844 535.023438 227.207031 534.15625 227.566406 C 533.289062 227.925781 532.351562 227.8125 531.621094 227.277344 L 531.089844 227.808594 C 531.621094 228.539062 531.738281 229.480469 531.378906 230.34375 C 531.019531 231.210938 530.277344 231.792969 529.378906 231.929688 L 529.378906 232.683594 C 530.277344 232.824219 531.019531 233.40625 531.378906 234.269531 C 531.738281 235.136719 531.621094 236.074219 531.089844 236.808594 L 531.621094 237.335938 C 532.351562 236.800781 533.289062 236.6875 534.15625 237.046875 C 535.023438 237.402344 535.605469 238.148438 535.742188 239.046875 L 536.496094 239.046875 C 536.632812 238.152344 537.214844 237.40625 538.082031 237.046875 C 538.949219 236.6875 539.886719 236.804688 540.617188 237.335938 L 541.148438 236.808594 C 540.617188 236.074219 540.5 235.136719 540.859375 234.269531 Z M 536.5 251.207031 C 537.605469 251.664062 538.808594 251.472656 539.703125 250.71875 L 540.734375 251.75 C 539.980469 252.644531 539.789062 253.847656 540.246094 254.953125 C 540.703125 256.058594 541.6875 256.773438 542.859375 256.871094 L 542.859375 258.332031 C 541.6875 258.429688 540.703125 259.144531 540.246094 260.25 C 539.789062 261.355469 539.976562 262.558594 540.734375 263.453125 L 539.703125 264.484375 C 538.808594 263.726562 537.605469 263.539062 536.5 263.996094 C 535.394531 264.453125 534.679688 265.4375 534.582031 266.609375 L 533.121094 266.609375 C 533.023438 265.4375 532.308594 264.453125 531.203125 263.996094 C 530.097656 263.535156 528.894531 263.726562 528 264.484375 L 526.96875 263.453125 C 527.726562 262.558594 527.914062 261.355469 527.457031 260.25 C 527 259.144531 526.011719 258.429688 524.84375 258.332031 L 524.84375 256.871094 C 526.011719 256.773438 527 256.058594 527.457031 254.953125 C 527.914062 253.847656 527.726562 252.644531 526.96875 251.75 L 528 250.71875 C 528.894531 251.472656 530.097656 251.664062 531.203125 251.207031 C 532.308594 250.75 533.023438 249.761719 533.121094 248.59375 L 534.582031 248.59375 C 534.679688 249.761719 535.394531 250.75 536.5 251.207031 Z M 522.992188 256.609375 C 522.992188 255.738281 523.699219 255.027344 524.570312 255.027344 C 525.359375 255.027344 525.667969 254.429688 525.742188 254.242188 C 525.8125 254.078125 525.980469 253.554688 525.628906 253.050781 L 519.832031 249.046875 L 519.046875 249.835938 C 518.714844 250.167969 518.269531 250.351562 517.800781 250.351562 C 517.332031 250.351562 516.890625 250.167969 516.558594 249.835938 C 516.003906 249.28125 515.238281 249.128906 514.511719 249.429688 C 513.785156 249.730469 513.351562 250.378906 513.351562 251.160156 C 513.351562 252.132812 512.5625 252.921875 511.59375 252.921875 L 509.0625 252.921875 C 508.089844 252.921875 507.300781 252.132812 507.300781 251.160156 C 507.300781 250.375 506.867188 249.726562 506.140625 249.429688 C 505.417969 249.128906 504.652344 249.277344 504.097656 249.835938 C 503.765625 250.167969 503.324219 250.351562 502.851562 250.351562 C 502.625 250.351562 502.40625 250.304688 502.199219 250.226562 L 497.410156 254.703125 C 497.511719 254.898438 497.566406 255.117188 497.566406 255.347656 C 497.566406 255.730469 497.414062 256.085938 497.144531 256.359375 C 496.808594 256.695312 496.933594 257.085938 496.980469 257.195312 C 497.027344 257.308594 497.214844 257.671875 497.691406 257.671875 C 498.261719 257.671875 498.753906 258.011719 498.984375 258.496094 L 522.992188 257.242188 Z M 497.265625 260.242188 C 496.371094 260.382812 495.625 260.964844 495.265625 261.832031 C 494.90625 262.699219 495.023438 263.636719 495.558594 264.367188 L 495.027344 264.898438 C 494.296875 264.363281 493.355469 264.25 492.492188 264.609375 C 491.625 264.964844 491.042969 265.710938 490.902344 266.609375 L 490.152344 266.609375 C 490.011719 265.710938 489.429688 264.964844 488.5625 264.609375 C 487.699219 264.25 486.761719 264.363281 486.027344 264.898438 L 485.496094 264.367188 C 486.03125 263.636719 486.144531 262.699219 485.789062 261.832031 C 485.429688 260.964844 484.683594 260.382812 483.789062 260.242188 L 483.789062 259.492188 C 484.683594 259.351562 485.429688 258.769531 485.789062 257.90625 C 486.144531 257.039062 486.03125 256.101562 485.496094 255.371094 L 486.027344 254.835938 C 486.761719 255.371094 487.699219 255.488281 488.5625 255.128906 C 489.429688 254.769531 490.011719 254.027344 490.152344 253.128906 L 490.902344 253.128906 C 491.042969 254.027344 491.625 254.769531 492.492188 255.128906 C 493.355469 255.488281 494.296875 255.371094 495.027344 254.835938 L 495.558594 255.371094 C 495.023438 256.101562 494.90625 257.039062 495.265625 257.90625 C 495.625 258.769531 496.371094 259.351562 497.265625 259.492188 Z M 485.914062 228.644531 C 485.050781 228.285156 484.113281 228.402344 483.378906 228.9375 L 482.847656 228.40625 C 483.382812 227.671875 483.496094 226.734375 483.140625 225.867188 C 482.78125 225.003906 482.035156 224.421875 481.140625 224.28125 L 481.140625 223.53125 C 482.035156 223.390625 482.78125 222.808594 483.140625 221.941406 C 483.496094 221.078125 483.382812 220.136719 482.847656 219.40625 L 483.378906 218.875 C 484.113281 219.410156 485.050781 219.523438 485.914062 219.164062 C 486.78125 218.804688 487.363281 218.0625 487.503906 217.167969 L 488.253906 217.167969 C 488.394531 218.0625 488.976562 218.804688 489.839844 219.164062 C 490.707031 219.523438 491.644531 219.410156 492.378906 218.875 L 492.910156 219.40625 C 492.375 220.136719 492.257812 221.078125 492.617188 221.941406 C 492.976562 222.808594 493.722656 223.390625 494.617188 223.53125 L 494.617188 224.28125 C 493.722656 224.421875 492.976562 225.003906 492.617188 225.867188 C 492.257812 226.734375 492.375 227.671875 492.910156 228.40625 L 492.378906 228.9375 C 491.644531 228.402344 490.707031 228.285156 489.839844 228.644531 C 488.976562 229.003906 488.394531 229.75 488.253906 230.644531 L 487.503906 230.644531 C 487.363281 229.746094 486.78125 229 485.914062 228.644531 Z M 505.261719 211.253906 L 505.261719 212.003906 C 506.15625 212.144531 506.902344 212.726562 507.257812 213.589844 C 507.617188 214.457031 507.5 215.394531 506.96875 216.125 L 507.5 216.660156 C 508.230469 216.125 509.167969 216.007812 510.035156 216.367188 C 510.902344 216.726562 511.484375 217.46875 511.625 218.367188 L 512.375 218.367188 C 512.511719 217.472656 513.097656 216.726562 513.960938 216.367188 C 514.828125 216.007812 515.765625 216.125 516.496094 216.660156 L 517.027344 216.125 C 516.496094 215.394531 516.378906 214.457031 516.738281 213.589844 C 517.097656 212.726562 517.84375 212.144531 518.738281 212.003906 L 518.738281 211.253906 C 517.84375 211.113281 517.097656 210.53125 516.738281 209.664062 C 516.378906 208.800781 516.496094 207.859375 517.027344 207.128906 L 516.496094 206.597656 C 515.765625 207.132812 514.828125 207.246094 513.960938 206.890625 C 513.097656 206.53125 512.511719 205.785156 512.375 204.890625 L 511.621094 204.890625 C 511.484375 205.785156 510.902344 206.53125 510.035156 206.890625 C 509.167969 207.246094 508.230469 207.132812 507.5 206.597656 L 506.96875 207.128906 C 507.5 207.859375 507.617188 208.800781 507.257812 209.664062 C 506.902344 210.53125 506.15625 211.113281 505.261719 211.253906 Z M 528.03125 234.164062 L 521.972656 236.289062 C 521.273438 236.222656 520.707031 235.804688 520.433594 235.140625 C 520.132812 234.414062 520.28125 233.648438 520.835938 233.09375 C 521.167969 232.761719 521.351562 232.320312 521.351562 231.851562 C 521.351562 231.378906 521.167969 230.9375 520.835938 230.605469 L 519.046875 228.816406 C 518.359375 228.128906 517.242188 228.128906 516.558594 228.816406 C 516.003906 229.367188 515.238281 229.519531 514.511719 229.21875 C 513.785156 228.917969 513.351562 228.273438 513.351562 227.488281 C 513.351562 226.703125 512.839844 226.039062 512.128906 225.8125 L 512.445312 220.222656 L 512.765625 220.222656 C 513.554688 220.222656 514.195312 219.578125 514.195312 218.789062 C 514.195312 218.316406 514.558594 218.128906 514.671875 218.082031 C 514.78125 218.035156 515.171875 217.910156 515.507812 218.246094 C 515.78125 218.515625 516.140625 218.664062 516.519531 218.664062 C 516.902344 218.664062 517.261719 218.515625 517.53125 218.246094 L 517.882812 217.894531 L 529.105469 227.515625 C 529.089844 227.605469 529.082031 227.695312 529.082031 227.785156 C 529.082031 228.167969 529.230469 228.527344 529.5 228.796875 C 529.835938 229.132812 529.710938 229.523438 529.664062 229.636719 C 529.621094 229.746094 529.433594 230.109375 528.957031 230.109375 C 528.167969 230.109375 527.527344 230.753906 527.527344 231.539062 L 527.527344 233.074219 C 527.527344 233.511719 527.722656 233.898438 528.03125 234.164062 Z M 501.195312 246.796875 C 502.226562 245.714844 502.511719 244.191406 501.933594 242.800781 C 501.359375 241.410156 500.082031 240.535156 498.585938 240.496094 L 498.585938 238.152344 C 500.082031 238.117188 501.359375 237.242188 501.933594 235.847656 C 502.511719 234.457031 502.226562 232.933594 501.195312 231.851562 L 502.851562 230.191406 C 503.9375 231.222656 505.460938 231.507812 506.851562 230.933594 C 508.242188 230.355469 509.117188 229.078125 509.152344 227.582031 L 511.5 227.582031 C 511.535156 229.078125 512.410156 230.355469 513.804688 230.933594 C 515.195312 231.507812 516.71875 231.222656 517.800781 230.191406 L 519.457031 231.851562 C 518.425781 232.933594 518.140625 234.457031 518.71875 235.847656 C 519.296875 237.242188 520.574219 238.117188 522.070312 238.152344 L 522.070312 240.496094 C 520.574219 240.535156 519.296875 241.410156 518.71875 242.800781 C 518.140625 244.191406 518.425781 245.714844 519.457031 246.796875 L 517.800781 248.457031 C 516.71875 247.425781 515.195312 247.140625 513.804688 247.71875 C 512.410156 248.292969 511.535156 249.570312 511.5 251.066406 L 509.152344 251.066406 C 509.117188 249.570312 508.242188 248.289062 506.851562 247.714844 C 505.460938 247.136719 503.9375 247.421875 502.851562 248.457031 Z M 495.039062 221.707031 C 495.828125 221.707031 496.472656 222.347656 496.472656 223.140625 L 496.472656 224.671875 C 496.472656 225.460938 495.828125 226.101562 495.039062 226.101562 C 494.566406 226.101562 494.375 226.46875 494.332031 226.578125 C 494.285156 226.691406 494.160156 227.078125 494.496094 227.417969 C 494.714844 227.632812 494.84375 227.902344 494.894531 228.183594 L 499.320312 231.625 C 499.367188 231.253906 499.53125 230.890625 499.816406 230.605469 L 501.609375 228.816406 C 502.296875 228.128906 503.410156 228.128906 504.097656 228.816406 C 504.652344 229.367188 505.414062 229.519531 506.140625 229.21875 C 506.867188 228.917969 507.300781 228.273438 507.300781 227.488281 C 507.300781 226.515625 508.089844 225.726562 509.0625 225.726562 L 510.277344 225.726562 L 510.597656 220.070312 C 510.125 219.835938 509.800781 219.351562 509.800781 218.789062 C 509.800781 218.3125 509.4375 218.125 509.324219 218.078125 C 509.214844 218.03125 508.824219 217.910156 508.488281 218.246094 C 508.21875 218.515625 507.859375 218.664062 507.476562 218.664062 C 507.09375 218.664062 506.734375 218.515625 506.464844 218.246094 L 505.378906 217.164062 C 505.125 216.910156 504.988281 216.582031 504.96875 216.246094 L 494.5625 221.542969 C 494.671875 221.632812 494.828125 221.707031 495.039062 221.707031 Z M 496.152344 253.339844 L 496.0625 253.25 C 495.503906 252.691406 494.597656 252.691406 494.039062 253.25 C 493.703125 253.585938 493.3125 253.460938 493.199219 253.417969 C 493.089844 253.371094 492.722656 253.183594 492.722656 252.707031 C 492.722656 251.917969 492.082031 251.277344 491.292969 251.277344 L 490.824219 251.277344 L 489.421875 232.265625 C 489.816406 232.011719 490.074219 231.566406 490.074219 231.066406 C 490.074219 230.59375 490.4375 230.402344 490.550781 230.359375 C 490.664062 230.3125 491.050781 230.1875 491.390625 230.523438 C 491.945312 231.082031 492.855469 231.082031 493.414062 230.523438 L 494.054688 229.882812 L 500.335938 234.765625 C 500.308594 234.886719 500.273438 235.015625 500.222656 235.140625 C 499.921875 235.863281 499.273438 236.296875 498.492188 236.296875 C 497.519531 236.296875 496.730469 237.085938 496.730469 238.058594 L 496.730469 240.589844 C 496.730469 241.5625 497.519531 242.351562 498.492188 242.351562 C 499.273438 242.351562 499.921875 242.785156 500.222656 243.507812 C 500.523438 244.238281 500.371094 245 499.816406 245.554688 C 499.132812 246.242188 499.132812 247.355469 499.816406 248.042969 L 500.785156 249.011719 Z M 532.859375 246.742188 C 531.988281 246.742188 531.277344 247.449219 531.277344 248.320312 C 531.277344 249.105469 530.679688 249.417969 530.492188 249.492188 C 530.308594 249.570312 529.664062 249.773438 529.109375 249.21875 C 528.8125 248.921875 528.414062 248.757812 527.992188 248.757812 C 527.570312 248.757812 527.171875 248.921875 526.875 249.21875 L 525.46875 250.625 C 525.457031 250.636719 525.445312 250.652344 525.433594 250.664062 L 521.113281 247.679688 C 521.269531 247.414062 521.351562 247.113281 521.351562 246.800781 C 521.351562 246.328125 521.167969 245.886719 520.835938 245.554688 C 520.28125 245 520.132812 244.238281 520.433594 243.507812 C 520.734375 242.785156 521.378906 242.351562 522.164062 242.351562 C 523.132812 242.351562 523.921875 241.5625 523.921875 240.589844 L 523.921875 238.058594 C 523.921875 237.894531 523.898438 237.742188 523.859375 237.59375 L 529.679688 235.550781 C 529.644531 235.636719 529.589844 235.730469 529.5 235.820312 C 529.230469 236.089844 529.082031 236.449219 529.082031 236.832031 C 529.082031 237.210938 529.230469 237.570312 529.5 237.839844 L 530.585938 238.925781 C 530.855469 239.195312 531.214844 239.34375 531.597656 239.34375 C 531.980469 239.34375 532.339844 239.195312 532.609375 238.925781 C 532.945312 238.589844 533.335938 238.710938 533.445312 238.757812 C 533.558594 238.804688 533.921875 238.992188 533.921875 239.46875 C 533.921875 239.914062 534.128906 240.3125 534.449219 240.574219 L 533.894531 246.742188 Z M 543.28125 234.503906 C 544.070312 234.503906 544.710938 233.863281 544.710938 233.074219 L 544.710938 231.539062 C 544.710938 230.753906 544.070312 230.109375 543.28125 230.109375 C 542.804688 230.109375 542.617188 229.746094 542.570312 229.636719 C 542.523438 229.523438 542.398438 229.132812 542.738281 228.796875 C 543.007812 228.527344 543.15625 228.167969 543.15625 227.785156 C 543.15625 227.402344 543.007812 227.042969 542.738281 226.773438 L 541.652344 225.691406 C 541.09375 225.132812 540.1875 225.132812 539.628906 225.691406 C 539.292969 226.027344 538.902344 225.902344 538.792969 225.855469 C 538.679688 225.808594 538.316406 225.621094 538.316406 225.144531 C 538.316406 224.355469 537.675781 223.714844 536.886719 223.714844 L 535.351562 223.714844 C 534.5625 223.714844 533.921875 224.355469 533.921875 225.144531 C 533.921875 225.621094 533.558594 225.808594 533.445312 225.855469 C 533.335938 225.902344 532.945312 226.027344 532.609375 225.691406 C 532.050781 225.132812 531.144531 225.132812 530.585938 225.691406 L 530.234375 226.039062 L 519.011719 216.417969 C 519.027344 216.332031 519.035156 216.242188 519.035156 216.152344 C 519.035156 215.769531 518.886719 215.410156 518.617188 215.140625 C 518.28125 214.800781 518.40625 214.410156 518.449219 214.300781 C 518.496094 214.1875 518.683594 213.824219 519.160156 213.824219 C 519.949219 213.824219 520.589844 213.183594 520.589844 212.394531 L 520.589844 210.863281 C 520.589844 210.074219 519.949219 209.429688 519.160156 209.429688 C 518.683594 209.429688 518.496094 209.066406 518.449219 208.953125 C 518.40625 208.84375 518.28125 208.453125 518.617188 208.117188 C 518.886719 207.847656 519.035156 207.488281 519.035156 207.105469 C 519.035156 206.722656 518.886719 206.363281 518.617188 206.09375 L 517.53125 205.007812 C 516.976562 204.453125 516.066406 204.453125 515.507812 205.007812 C 515.171875 205.347656 514.78125 205.222656 514.671875 205.175781 C 514.558594 205.128906 514.195312 204.941406 514.195312 204.464844 C 514.195312 203.679688 513.554688 203.035156 512.765625 203.035156 L 511.230469 203.035156 C 510.445312 203.035156 509.800781 203.675781 509.800781 204.464844 C 509.800781 204.941406 509.4375 205.128906 509.324219 205.175781 C 509.214844 205.222656 508.824219 205.347656 508.488281 205.007812 C 507.929688 204.453125 507.023438 204.453125 506.464844 205.007812 L 505.378906 206.09375 C 504.824219 206.652344 504.824219 207.558594 505.378906 208.117188 C 505.71875 208.453125 505.59375 208.84375 505.546875 208.953125 C 505.5 209.066406 505.3125 209.429688 504.835938 209.429688 C 504.046875 209.429688 503.40625 210.074219 503.40625 210.863281 L 503.40625 212.394531 C 503.40625 213.183594 504.046875 213.824219 504.835938 213.824219 C 505.050781 213.824219 505.203125 213.898438 505.316406 213.988281 L 494.910156 219.285156 C 494.886719 218.953125 494.75 218.625 494.496094 218.371094 L 493.414062 217.289062 C 492.855469 216.730469 491.945312 216.726562 491.390625 217.289062 C 491.054688 217.625 490.660156 217.496094 490.550781 217.453125 C 490.4375 217.40625 490.074219 217.21875 490.074219 216.742188 C 490.074219 215.953125 489.433594 215.3125 488.644531 215.3125 L 487.113281 215.3125 C 486.324219 215.3125 485.679688 215.953125 485.679688 216.742188 C 485.679688 217.21875 485.316406 217.40625 485.207031 217.453125 C 485.09375 217.5 484.703125 217.625 484.367188 217.289062 C 483.808594 216.730469 482.902344 216.726562 482.34375 217.289062 L 481.261719 218.371094 C 480.703125 218.929688 480.703125 219.835938 481.261719 220.394531 C 481.597656 220.730469 481.472656 221.121094 481.425781 221.234375 C 481.378906 221.34375 481.191406 221.707031 480.714844 221.707031 C 479.929688 221.707031 479.285156 222.347656 479.285156 223.140625 L 479.285156 224.671875 C 479.285156 225.460938 479.929688 226.101562 480.714844 226.101562 C 481.191406 226.101562 481.378906 226.46875 481.425781 226.578125 C 481.472656 226.691406 481.597656 227.078125 481.261719 227.417969 C 480.703125 227.972656 480.703125 228.882812 481.261719 229.4375 L 482.34375 230.523438 C 482.902344 231.082031 483.808594 231.082031 484.367188 230.523438 C 484.703125 230.1875 485.09375 230.308594 485.207031 230.355469 C 485.316406 230.402344 485.679688 230.589844 485.679688 231.066406 C 485.679688 231.855469 486.324219 232.496094 487.113281 232.496094 L 487.582031 232.496094 L 488.980469 251.507812 C 488.589844 251.761719 488.328125 252.203125 488.328125 252.707031 C 488.328125 253.183594 487.964844 253.371094 487.855469 253.414062 C 487.742188 253.460938 487.351562 253.585938 487.015625 253.25 C 486.457031 252.691406 485.550781 252.691406 484.992188 253.25 L 483.910156 254.335938 C 483.636719 254.605469 483.488281 254.964844 483.488281 255.347656 C 483.488281 255.730469 483.636719 256.085938 483.910156 256.359375 C 484.246094 256.695312 484.121094 257.085938 484.074219 257.195312 C 484.027344 257.308594 483.839844 257.671875 483.363281 257.671875 C 482.578125 257.671875 481.933594 258.3125 481.933594 259.101562 L 481.933594 260.636719 C 481.933594 261.421875 482.578125 262.066406 483.363281 262.066406 C 483.839844 262.066406 484.027344 262.429688 484.074219 262.542969 C 484.121094 262.652344 484.246094 263.042969 483.910156 263.378906 C 483.351562 263.9375 483.351562 264.84375 483.910156 265.402344 L 484.992188 266.488281 C 485.550781 267.042969 486.457031 267.042969 487.015625 266.488281 C 487.351562 266.148438 487.742188 266.273438 487.855469 266.320312 C 487.964844 266.367188 488.328125 266.554688 488.328125 267.03125 C 488.328125 267.820312 488.972656 268.460938 489.761719 268.460938 L 491.292969 268.460938 C 492.082031 268.460938 492.722656 267.820312 492.722656 267.03125 C 492.722656 266.554688 493.089844 266.367188 493.199219 266.320312 C 493.3125 266.273438 493.703125 266.152344 494.039062 266.488281 C 494.59375 267.042969 495.503906 267.042969 496.0625 266.488281 L 497.144531 265.402344 C 497.703125 264.84375 497.703125 263.9375 497.144531 263.378906 C 496.808594 263.042969 496.933594 262.652344 496.980469 262.542969 C 497.027344 262.429688 497.214844 262.066406 497.6875 262.066406 C 498.480469 262.066406 499.121094 261.421875 499.121094 260.636719 L 499.121094 260.347656 L 523.074219 259.09375 C 523.28125 259.71875 523.875 260.175781 524.570312 260.175781 C 525.355469 260.175781 525.667969 260.773438 525.742188 260.960938 C 525.820312 261.144531 526.023438 261.789062 525.46875 262.34375 C 524.851562 262.960938 524.851562 263.960938 525.46875 264.578125 L 526.875 265.984375 C 527.171875 266.28125 527.570312 266.445312 527.992188 266.445312 C 528.414062 266.445312 528.808594 266.28125 529.109375 265.984375 C 529.667969 265.425781 530.308594 265.632812 530.492188 265.707031 C 530.679688 265.785156 531.277344 266.09375 531.277344 266.882812 C 531.277344 267.753906 531.988281 268.460938 532.859375 268.460938 L 534.84375 268.460938 C 535.714844 268.460938 536.425781 267.753906 536.425781 266.882812 C 536.425781 266.097656 537.027344 265.785156 537.210938 265.710938 C 537.394531 265.632812 538.039062 265.425781 538.59375 265.984375 C 539.210938 266.597656 540.210938 266.597656 540.828125 265.984375 L 542.234375 264.578125 C 542.847656 263.960938 542.847656 262.960938 542.234375 262.34375 C 541.675781 261.789062 541.882812 261.144531 541.960938 260.960938 C 542.035156 260.773438 542.34375 260.175781 543.132812 260.175781 C 544.003906 260.175781 544.710938 259.464844 544.710938 258.59375 L 544.710938 256.609375 C 544.710938 255.738281 544.003906 255.027344 543.132812 255.027344 C 542.34375 255.027344 542.035156 254.429688 541.960938 254.242188 C 541.882812 254.058594 541.675781 253.414062 542.234375 252.859375 C 542.847656 252.242188 542.847656 251.242188 542.234375 250.625 L 540.828125 249.21875 C 540.210938 248.601562 539.210938 248.601562 538.59375 249.21875 C 538.039062 249.777344 537.394531 249.570312 537.210938 249.492188 C 537.027344 249.417969 536.425781 249.105469 536.425781 248.320312 C 536.425781 247.777344 536.148438 247.300781 535.730469 247.015625 L 536.277344 240.902344 L 536.886719 240.902344 C 537.671875 240.902344 538.316406 240.257812 538.316406 239.46875 C 538.316406 238.996094 538.679688 238.808594 538.789062 238.761719 C 538.902344 238.714844 539.292969 238.589844 539.628906 238.925781 C 539.898438 239.195312 540.257812 239.34375 540.640625 239.34375 C 541.023438 239.34375 541.382812 239.195312 541.652344 238.925781 L 542.734375 237.839844 C 543.007812 237.570312 543.15625 237.210938 543.15625 236.832031 C 543.15625 236.449219 543.007812 236.089844 542.734375 235.820312 C 542.398438 235.480469 542.523438 235.09375 542.570312 234.980469 C 542.617188 234.871094 542.804688 234.503906 543.28125 234.503906 Z M 487.878906 226.660156 C 489.398438 226.660156 490.632812 225.425781 490.632812 223.90625 C 490.632812 222.386719 489.398438 221.148438 487.878906 221.148438 C 486.359375 221.148438 485.121094 222.386719 485.121094 223.90625 C 485.121094 225.425781 486.359375 226.660156 487.878906 226.660156 Z M 492.488281 223.90625 C 492.488281 221.363281 490.421875 219.296875 487.878906 219.296875 C 485.335938 219.296875 483.269531 221.363281 483.269531 223.90625 C 483.269531 226.445312 485.335938 228.515625 487.878906 228.515625 C 490.421875 228.515625 492.488281 226.445312 492.488281 223.90625 Z M 537.699219 257.601562 C 537.699219 255.480469 535.972656 253.753906 533.851562 253.753906 C 531.730469 253.753906 530.003906 255.480469 530.003906 257.601562 C 530.003906 259.722656 531.730469 261.449219 533.851562 261.449219 C 535.972656 261.449219 537.699219 259.722656 537.699219 257.601562 Z M 528.152344 257.601562 C 528.152344 260.746094 530.707031 263.300781 533.851562 263.300781 C 536.996094 263.300781 539.550781 260.746094 539.550781 257.601562 C 539.550781 254.457031 536.996094 251.902344 533.851562 251.902344 C 530.707031 251.902344 528.152344 254.457031 528.152344 257.601562 Z M 490.527344 262.625 C 492.046875 262.625 493.285156 261.386719 493.285156 259.867188 C 493.285156 258.347656 492.046875 257.113281 490.527344 257.113281 C 489.007812 257.113281 487.769531 258.347656 487.769531 259.867188 C 487.769531 261.386719 489.007812 262.625 490.527344 262.625 Z M 490.527344 255.257812 C 487.984375 255.257812 485.917969 257.328125 485.917969 259.867188 C 485.917969 262.410156 487.984375 264.480469 490.527344 264.480469 C 493.070312 264.480469 495.136719 262.410156 495.136719 259.867188 C 495.136719 257.328125 493.070312 255.257812 490.527344 255.257812 Z M 510.328125 234.164062 C 507.480469 234.164062 505.167969 236.480469 505.167969 239.324219 C 505.167969 242.171875 507.480469 244.484375 510.328125 244.484375 C 513.171875 244.484375 515.488281 242.171875 515.488281 239.324219 C 515.488281 236.480469 513.171875 234.164062 510.328125 234.164062 Z M 510.328125 246.339844 C 514.195312 246.339844 517.339844 243.191406 517.339844 239.324219 C 517.339844 235.457031 514.195312 232.308594 510.328125 232.308594 C 506.460938 232.308594 503.3125 235.457031 503.3125 239.324219 C 503.3125 243.191406 506.460938 246.339844 510.328125 246.339844 Z M 510.328125 246.339844 " fill-opacity="1" fill-rule="evenodd"/></g></svg>