<svg xmlns="http://www.w3.org/2000/svg" xmlns:xlink="http://www.w3.org/1999/xlink" width="1366" zoomAndPan="magnify" viewBox="0 0 1024.5 471.749988" height="629" preserveAspectRatio="xMidYMid meet" version="1.0"><defs><clipPath id="844c989a39"><path d="M 448.003906 172.453125 L 576 172.453125 L 576 299.046875 L 448.003906 299.046875 Z M 448.003906 172.453125 " clip-rule="nonzero"/></clipPath><clipPath id="542ab98ab4"><path d="M 511.300781 172.453125 L 512.699219 172.453125 C 529.484375 172.453125 545.585938 179.121094 557.457031 190.992188 C 569.328125 202.863281 575.996094 218.960938 575.996094 235.75 C 575.996094 252.539062 569.328125 268.636719 557.457031 280.507812 C 545.585938 292.378906 529.484375 299.046875 512.699219 299.046875 L 511.300781 299.046875 C 494.515625 299.046875 478.414062 292.378906 466.542969 280.507812 C 454.671875 268.636719 448.003906 252.539062 448.003906 235.75 C 448.003906 218.960938 454.671875 202.863281 466.542969 190.992188 C 478.414062 179.121094 494.515625 172.453125 511.300781 172.453125 Z M 511.300781 172.453125 " clip-rule="nonzero"/></clipPath><clipPath id="dc3445b762"><path d="M 479.417969 198.984375 L 544.164062 198.984375 L 544.164062 272.125 L 479.417969 272.125 Z M 479.417969 198.984375 " clip-rule="nonzero"/></clipPath></defs><g clip-path="url(#844c989a39)"><g clip-path="url(#542ab98ab4)"><path fill="#000000" d="M 448.003906 172.453125 L 576.082031 172.453125 L 576.082031 299.046875 L 448.003906 299.046875 Z M 448.003906 172.453125 " fill-opacity="1" fill-rule="nonzero"/></g></g><g clip-path="url(#dc3445b762)"><path fill="#ffffff" d="M 543.457031 272.5 L 516.839844 272.5 C 516.238281 272.5 515.765625 271.980469 515.765625 271.378906 L 515.765625 264.230469 C 511.933594 264.703125 508.488281 261.644531 508.488281 257.8125 C 508.488281 253.9375 511.933594 250.878906 515.765625 251.351562 L 515.765625 244.765625 C 515.765625 244.160156 516.238281 243.644531 516.839844 243.644531 L 523.730469 243.644531 C 523.257812 239.8125 526.273438 236.367188 530.148438 236.367188 C 534.023438 236.367188 537.039062 239.8125 536.566406 243.644531 L 543.457031 243.644531 C 544.058594 243.644531 544.574219 244.160156 544.574219 244.765625 L 544.574219 271.378906 C 544.574219 271.980469 544.058594 272.5 543.457031 272.5 Z M 507.109375 235.074219 L 498.882812 235.074219 C 498.109375 235.074219 497.546875 234.300781 497.804688 233.609375 C 498.796875 230.898438 496.730469 227.925781 493.84375 227.925781 C 490.699219 227.925781 488.847656 231.242188 489.796875 233.480469 C 490.097656 234.214844 489.667969 235.074219 488.761719 235.074219 L 480.539062 235.074219 C 479.890625 235.074219 479.417969 234.601562 479.417969 234 L 479.417969 207.382812 C 479.417969 206.78125 479.890625 206.265625 480.539062 206.265625 L 487.386719 206.265625 C 486.910156 202.429688 489.925781 198.984375 493.84375 198.984375 C 497.71875 198.984375 500.734375 202.429688 500.261719 206.265625 L 507.109375 206.265625 C 507.753906 206.265625 508.226562 206.78125 508.226562 207.382812 L 508.226562 215.394531 C 508.226562 216.167969 507.453125 216.730469 506.722656 216.425781 C 504.007812 215.394531 500.949219 217.460938 500.949219 220.390625 C 500.949219 223.359375 504.007812 225.429688 506.722656 224.394531 C 507.453125 224.09375 508.226562 224.652344 508.226562 225.429688 L 508.226562 234 C 508.226562 234.601562 507.753906 235.074219 507.109375 235.074219 Z M 500.261719 232.878906 L 505.988281 232.878906 L 505.988281 226.847656 C 502.199219 227.324219 498.710938 224.265625 498.710938 220.390625 C 498.710938 216.515625 502.199219 213.5 505.988281 213.972656 L 505.988281 208.503906 L 498.839844 208.503906 C 498.066406 208.503906 497.503906 207.683594 497.804688 206.996094 C 498.839844 204.285156 496.773438 201.226562 493.84375 201.226562 C 490.875 201.226562 488.804688 204.285156 489.839844 206.996094 C 490.140625 207.683594 489.582031 208.503906 488.804688 208.503906 L 481.65625 208.503906 L 481.65625 232.878906 L 487.386719 232.878906 C 486.996094 229.089844 489.96875 225.6875 493.84375 225.6875 C 497.675781 225.6875 500.648438 229.089844 500.261719 232.878906 Z M 507.109375 272.238281 L 480.539062 272.238281 C 479.890625 272.238281 479.417969 271.722656 479.417969 271.121094 L 479.417969 244.507812 C 479.417969 243.902344 479.890625 243.429688 480.539062 243.429688 L 487.386719 243.429688 C 486.910156 239.597656 489.925781 236.109375 493.84375 236.109375 C 497.71875 236.109375 500.734375 239.597656 500.261719 243.429688 L 507.109375 243.429688 C 507.753906 243.429688 508.226562 243.902344 508.226562 244.507812 L 508.226562 252.515625 C 508.226562 253.292969 507.453125 253.851562 506.722656 253.59375 C 504.007812 252.558594 500.949219 254.582031 500.949219 257.554688 C 500.949219 260.484375 504.007812 262.550781 506.722656 261.515625 C 507.453125 261.257812 508.226562 261.773438 508.226562 262.550781 L 508.226562 271.121094 C 508.226562 271.722656 507.753906 272.238281 507.109375 272.238281 Z M 481.65625 270 L 505.988281 270 L 505.988281 263.972656 C 502.199219 264.445312 498.710938 261.429688 498.710938 257.554688 C 498.710938 253.679688 502.199219 250.664062 505.988281 251.136719 L 505.988281 245.625 L 498.839844 245.625 C 498.066406 245.625 497.503906 244.851562 497.804688 244.117188 C 498.839844 241.40625 496.773438 238.347656 493.84375 238.347656 C 490.875 238.347656 488.804688 241.40625 489.839844 244.117188 C 490.140625 244.851562 489.582031 245.625 488.804688 245.625 L 481.65625 245.625 Z M 543.457031 235.074219 L 534.886719 235.074219 C 534.109375 235.074219 533.59375 234.300781 533.851562 233.566406 C 534.886719 230.855469 532.820312 227.839844 529.890625 227.839844 C 526.703125 227.839844 524.894531 231.199219 525.886719 233.4375 C 526.1875 234.214844 525.753906 235.074219 524.851562 235.074219 L 516.839844 235.074219 C 516.238281 235.074219 515.765625 234.601562 515.765625 234 L 515.765625 227.109375 C 511.933594 227.582031 508.445312 224.566406 508.445312 220.691406 C 508.445312 216.816406 511.933594 213.800781 515.765625 214.273438 L 515.765625 207.382812 C 515.765625 206.78125 516.238281 206.265625 516.839844 206.265625 L 543.457031 206.265625 C 544.058594 206.265625 544.574219 206.78125 544.574219 207.382812 L 544.574219 234 C 544.574219 234.601562 544.058594 235.074219 543.457031 235.074219 Z M 536.308594 232.878906 L 542.335938 232.878906 L 542.335938 208.503906 L 517.960938 208.503906 L 517.960938 215.695312 C 517.960938 216.46875 517.1875 216.988281 516.453125 216.730469 C 513.742188 215.652344 510.683594 217.71875 510.683594 220.691406 C 510.683594 223.621094 513.742188 225.6875 516.453125 224.652344 C 517.1875 224.351562 517.960938 224.910156 517.960938 225.6875 L 517.960938 232.878906 L 523.472656 232.878906 C 523 229.046875 526.015625 225.601562 529.890625 225.601562 C 533.765625 225.601562 536.78125 229.046875 536.308594 232.878906 Z M 517.960938 270.257812 L 542.335938 270.257812 L 542.335938 245.882812 L 535.144531 245.882812 C 534.367188 245.882812 533.851562 245.109375 534.109375 244.375 C 535.1875 241.664062 533.121094 238.605469 530.148438 238.605469 C 527.21875 238.605469 525.152344 241.664062 526.1875 244.375 C 526.488281 245.109375 525.929688 245.882812 525.152344 245.882812 L 517.960938 245.882812 L 517.960938 252.773438 C 517.960938 253.550781 517.1875 254.109375 516.453125 253.808594 C 513.742188 252.816406 510.683594 254.839844 510.683594 257.8125 C 510.683594 260.742188 513.742188 262.808594 516.453125 261.773438 C 517.1875 261.472656 517.960938 262.035156 517.960938 262.808594 Z M 517.960938 270.257812 " fill-opacity="1" fill-rule="evenodd"/></g></svg>