<svg xmlns="http://www.w3.org/2000/svg" xmlns:xlink="http://www.w3.org/1999/xlink" width="1366" zoomAndPan="magnify" viewBox="0 0 1024.5 471.749988" height="629" preserveAspectRatio="xMidYMid meet" version="1.0"><defs><clipPath id="5e2bdfbef4"><path d="M 460.371094 184.683594 L 563.699219 184.683594 L 563.699219 286.816406 L 460.371094 286.816406 Z M 460.371094 184.683594 " clip-rule="nonzero"/></clipPath><clipPath id="2ca997a1b9"><path d="M 511.4375 184.683594 L 512.5625 184.683594 C 526.105469 184.683594 539.09375 190.066406 548.671875 199.640625 C 558.246094 209.21875 563.628906 222.207031 563.628906 235.75 C 563.628906 249.292969 558.246094 262.28125 548.671875 271.859375 C 539.09375 281.433594 526.105469 286.816406 512.5625 286.816406 L 511.4375 286.816406 C 497.894531 286.816406 484.90625 281.433594 475.328125 271.859375 C 465.753906 262.28125 460.371094 249.292969 460.371094 235.75 C 460.371094 222.207031 465.753906 209.21875 475.328125 199.640625 C 484.90625 190.066406 497.894531 184.683594 511.4375 184.683594 Z M 511.4375 184.683594 " clip-rule="nonzero"/></clipPath><clipPath id="c8e06924f3"><path d="M 512.128906 233.371094 L 544.25 233.371094 L 544.25 264.113281 L 512.128906 264.113281 Z M 512.128906 233.371094 " clip-rule="nonzero"/></clipPath><clipPath id="f687a32134"><path d="M 479.746094 207.042969 L 521 207.042969 L 521 259 L 479.746094 259 Z M 479.746094 207.042969 " clip-rule="nonzero"/></clipPath></defs><g clip-path="url(#5e2bdfbef4)"><g clip-path="url(#2ca997a1b9)"><path fill="#000000" d="M 460.371094 184.683594 L 563.699219 184.683594 L 563.699219 286.816406 L 460.371094 286.816406 Z M 460.371094 184.683594 " fill-opacity="1" fill-rule="nonzero"/></g></g><g clip-path="url(#c8e06924f3)"><path fill="#ffffff" d="M 536.074219 261.121094 L 529.9375 257.988281 C 528.941406 257.480469 527.765625 257.496094 526.785156 258.027344 L 520.726562 261.308594 C 520.613281 261.371094 520.503906 261.363281 520.398438 261.289062 C 520.296875 261.214844 520.253906 261.117188 520.273438 260.988281 L 521.355469 254.1875 C 521.527344 253.082031 521.152344 251.96875 520.34375 251.199219 L 515.347656 246.449219 C 515.257812 246.363281 515.230469 246.257812 515.269531 246.136719 C 515.304688 246.015625 515.386719 245.945312 515.515625 245.925781 L 522.320312 244.847656 C 523.421875 244.675781 524.367188 243.96875 524.847656 242.964844 L 527.820312 236.746094 C 527.875 236.632812 527.964844 236.574219 528.09375 236.574219 C 528.09375 236.574219 528.097656 236.574219 528.097656 236.574219 C 528.222656 236.574219 528.316406 236.628906 528.371094 236.742188 L 531.496094 242.882812 C 532.003906 243.875 532.964844 244.554688 534.070312 244.703125 L 540.902344 245.609375 C 541.027344 245.625 541.113281 245.695312 541.152344 245.816406 C 541.191406 245.9375 541.167969 246.042969 541.078125 246.132812 L 536.203125 251.003906 C 535.414062 251.792969 535.066406 252.917969 535.265625 254.011719 L 536.515625 260.789062 C 536.539062 260.914062 536.5 261.015625 536.398438 261.089844 C 536.296875 261.167969 536.1875 261.175781 536.074219 261.121094 Z M 543.253906 248.3125 C 544.171875 247.394531 544.484375 246.058594 544.070312 244.828125 C 543.652344 243.597656 542.59375 242.726562 541.304688 242.558594 L 534.476562 241.652344 C 534.375 241.636719 534.289062 241.574219 534.242188 241.484375 L 531.117188 235.34375 C 530.527344 234.1875 529.324219 233.476562 528.054688 233.492188 C 526.757812 233.511719 525.601562 234.25 525.042969 235.417969 L 522.070312 241.636719 C 522.023438 241.726562 521.941406 241.792969 521.839844 241.808594 L 515.035156 242.882812 C 513.75 243.085938 512.714844 243.980469 512.328125 245.222656 C 511.941406 246.460938 512.285156 247.789062 513.226562 248.683594 L 518.21875 253.429688 C 518.292969 253.5 518.328125 253.601562 518.3125 253.703125 L 517.230469 260.507812 C 517.027344 261.789062 517.5625 263.054688 518.621094 263.804688 C 519.207031 264.21875 519.890625 264.429688 520.574219 264.429688 C 521.125 264.429688 521.679688 264.292969 522.191406 264.015625 L 528.25 260.734375 C 528.339844 260.6875 528.445312 260.6875 528.535156 260.730469 L 534.675781 263.863281 C 535.832031 264.453125 537.195312 264.335938 538.238281 263.558594 C 539.277344 262.785156 539.78125 261.507812 539.542969 260.230469 L 538.296875 253.453125 C 538.277344 253.355469 538.308594 253.253906 538.382812 253.179688 L 543.253906 248.3125 " fill-opacity="1" fill-rule="nonzero"/></g><g clip-path="url(#f687a32134)"><path fill="#ffffff" d="M 509.289062 230.125 C 508.671875 230.410156 508.316406 231.0625 508.410156 231.738281 C 508.503906 232.410156 509.027344 232.941406 509.699219 233.046875 C 512.480469 233.476562 515.214844 234.695312 517.828125 236.671875 C 518.503906 237.1875 519.46875 237.050781 519.984375 236.375 C 520.496094 235.695312 520.363281 234.730469 519.683594 234.21875 C 517.765625 232.765625 515.777344 231.664062 513.734375 230.921875 C 516.832031 228.332031 518.757812 224.507812 518.757812 220.578125 C 518.757812 213.121094 512.78125 207.054688 505.4375 207.054688 C 498.050781 207.054688 492.042969 213.089844 492.042969 220.507812 C 492.042969 224.542969 493.519531 228.078125 496.117188 230.519531 C 486.691406 233.386719 479.746094 242.324219 479.746094 252.320312 C 479.746094 255.496094 483.292969 258.964844 486.523438 258.964844 L 510.574219 258.964844 C 511.425781 258.964844 512.113281 258.265625 512.113281 257.414062 C 512.113281 256.566406 511.425781 255.867188 510.574219 255.867188 L 486.523438 255.867188 C 485.003906 255.867188 482.824219 253.785156 482.824219 252.308594 C 482.824219 242.597656 490.417969 234.03125 500.113281 232.785156 C 500.789062 232.695312 501.328125 232.179688 501.4375 231.507812 C 501.542969 230.835938 501.195312 230.171875 500.582031 229.878906 C 497.164062 228.242188 495.125 224.742188 495.125 220.503906 C 495.125 214.785156 499.75 210.132812 505.4375 210.132812 C 511.082031 210.132812 515.679688 214.816406 515.679688 220.578125 C 515.679688 224.53125 513.109375 228.367188 509.289062 230.125 " fill-opacity="1" fill-rule="nonzero"/></g></svg>