<svg xmlns="http://www.w3.org/2000/svg" xmlns:xlink="http://www.w3.org/1999/xlink" width="1366" zoomAndPan="magnify" viewBox="0 0 1024.5 471.749988" height="629" preserveAspectRatio="xMidYMid meet" version="1.0"><defs><clipPath id="4b1d9f29cb"><path d="M 435.472656 160.054688 L 588.632812 160.054688 L 588.632812 311.445312 L 435.472656 311.445312 Z M 435.472656 160.054688 " clip-rule="nonzero"/></clipPath><clipPath id="85ce5df9e5"><path d="M 510.433594 160.054688 L 513.566406 160.054688 C 554.96875 160.054688 588.527344 193.617188 588.527344 235.015625 L 588.527344 236.484375 C 588.527344 277.882812 554.96875 311.445312 513.566406 311.445312 L 510.433594 311.445312 C 469.03125 311.445312 435.472656 277.882812 435.472656 236.484375 L 435.472656 235.015625 C 435.472656 193.617188 469.03125 160.054688 510.433594 160.054688 Z M 510.433594 160.054688 " clip-rule="nonzero"/></clipPath><clipPath id="bbe0f57b91"><path d="M 458.476562 189.480469 L 553.105469 189.480469 L 553.105469 272.640625 L 458.476562 272.640625 Z M 458.476562 189.480469 " clip-rule="nonzero"/></clipPath></defs><g clip-path="url(#4b1d9f29cb)"><g clip-path="url(#85ce5df9e5)"><path fill="#000000" d="M 435.472656 160.054688 L 588.632812 160.054688 L 588.632812 311.445312 L 435.472656 311.445312 Z M 435.472656 160.054688 " fill-opacity="1" fill-rule="nonzero"/></g></g><g clip-path="url(#bbe0f57b91)"><path fill="#ffffff" d="M 494.273438 246.03125 C 495.164062 246.03125 495.75 246.617188 495.75 247.507812 C 495.75 248.394531 495.164062 248.984375 494.273438 248.984375 L 468.726562 248.984375 C 467.839844 248.984375 467.25 248.394531 467.25 247.507812 C 467.25 246.617188 467.839844 246.03125 468.726562 246.03125 Z M 460.171875 233.628906 L 485.714844 233.628906 C 486.605469 233.628906 487.191406 234.21875 487.191406 235.105469 C 487.191406 235.945312 486.667969 236.515625 485.863281 236.578125 L 485.714844 236.582031 L 460.171875 236.582031 C 459.28125 236.582031 458.695312 235.996094 458.695312 235.105469 C 458.695312 234.269531 459.21875 233.695312 460.023438 233.636719 L 460.171875 233.628906 L 485.714844 233.628906 Z M 468.726562 221.230469 L 494.273438 221.230469 C 495.164062 221.230469 495.75 221.816406 495.75 222.707031 C 495.75 223.546875 495.226562 224.117188 494.421875 224.175781 L 494.273438 224.183594 L 468.726562 224.183594 C 467.847656 224.183594 467.25 223.589844 467.25 222.707031 C 467.25 221.867188 467.777344 221.296875 468.582031 221.234375 L 468.726562 221.230469 L 494.273438 221.230469 Z M 549.039062 218.953125 C 551.613281 223.984375 553.042969 229.683594 553.042969 235.695312 C 553.042969 256.222656 536.355469 272.910156 515.828125 272.898438 C 505.9375 272.898438 496.632812 269.0625 489.542969 261.972656 C 488.957031 261.386719 488.957031 260.496094 489.542969 259.910156 C 490.132812 259.320312 491.019531 259.320312 491.609375 259.910156 C 498.101562 266.410156 506.667969 269.949219 515.824219 269.949219 C 534.722656 269.949219 550.078125 254.597656 550.078125 235.695312 C 550.078125 230.539062 548.921875 225.632812 546.847656 221.234375 Z M 544.511719 223.667969 C 546.105469 227.40625 546.988281 231.519531 546.988281 235.839844 C 546.988281 252.96875 533.109375 266.847656 515.980469 266.847656 C 509.636719 266.847656 503.578125 264.925781 498.410156 261.386719 C 497.671875 260.945312 497.523438 260.058594 497.964844 259.320312 C 498.410156 258.730469 499.296875 258.582031 500.179688 259.015625 C 504.753906 262.261719 510.222656 263.886719 515.980469 263.886719 C 531.484375 263.886719 544.035156 251.335938 544.035156 235.832031 C 544.035156 232.375 543.410156 229.0625 542.265625 226.003906 Z M 544.125 210.773438 C 545.441406 210.589844 546.726562 211.277344 547.304688 212.46875 C 547.890625 213.664062 547.636719 215.097656 546.683594 216.019531 C 535.824219 226.90625 527.972656 235.734375 516.984375 246.742188 C 515.859375 247.882812 514.046875 247.96875 512.824219 246.9375 L 499.511719 235.671875 C 498.882812 235.148438 498.492188 234.394531 498.421875 233.578125 C 498.351562 232.761719 498.605469 231.953125 499.136719 231.332031 C 499.664062 230.703125 500.417969 230.3125 501.230469 230.246094 C 502.046875 230.179688 502.855469 230.4375 503.480469 230.964844 L 514.617188 240.375 C 524.402344 230.457031 532.078125 221.976562 542.332031 211.699219 C 542.808594 211.199219 543.441406 210.871094 544.125 210.773438 Z M 515.980469 204.832031 C 523.800781 204.832031 530.949219 207.722656 536.402344 212.5 L 534.363281 214.632812 C 529.441406 210.359375 523.011719 207.777344 515.980469 207.777344 C 510.074219 207.777344 504.308594 209.554688 499.585938 213.09375 C 498.847656 213.539062 497.964844 213.390625 497.519531 212.800781 C 497.078125 212.214844 497.226562 211.179688 497.816406 210.738281 C 503.132812 206.894531 509.484375 204.832031 515.980469 204.832031 Z M 522.625 189.480469 C 523.511719 189.480469 524.101562 190.070312 524.101562 190.957031 C 524.101562 191.796875 523.578125 192.367188 522.769531 192.429688 L 522.625 192.433594 L 517.304688 192.433594 L 517.304688 198.636719 C 525.984375 198.925781 533.816406 202.191406 539.960938 207.457031 L 540.34375 207.789062 L 540.632812 208.078125 L 538.574219 210.230469 C 532.460938 204.859375 524.484375 201.582031 515.824219 201.582031 C 506.375 201.582031 497.515625 205.425781 490.871094 212.363281 C 490.28125 212.953125 489.394531 212.953125 488.804688 212.363281 C 488.21875 211.773438 488.21875 210.886719 488.804688 210.296875 C 495.476562 203.195312 504.277344 199.226562 513.820312 198.664062 L 514.351562 198.636719 L 514.351562 192.433594 L 509.183594 192.433594 C 508.296875 192.433594 507.707031 191.847656 507.707031 190.957031 C 507.707031 190.121094 508.234375 189.546875 509.039062 189.488281 L 509.183594 189.480469 Z M 522.625 189.480469 " fill-opacity="1" fill-rule="evenodd"/></g></svg>