<svg xmlns="http://www.w3.org/2000/svg" xmlns:xlink="http://www.w3.org/1999/xlink" width="1366" zoomAndPan="magnify" viewBox="0 0 1024.5 471.749988" height="629" preserveAspectRatio="xMidYMid meet" version="1.0"><defs><clipPath id="78f083b732"><path d="M 440.222656 164.753906 L 583.878906 164.753906 L 583.878906 306.746094 L 440.222656 306.746094 Z M 440.222656 164.753906 " clip-rule="nonzero"/></clipPath><clipPath id="87100d07d4"><path d="M 511.21875 164.753906 L 512.78125 164.753906 C 531.613281 164.753906 549.671875 172.234375 562.984375 185.546875 C 576.296875 198.863281 583.777344 216.921875 583.777344 235.75 C 583.777344 254.578125 576.296875 272.636719 562.984375 285.953125 C 549.671875 299.265625 531.613281 306.746094 512.78125 306.746094 L 511.21875 306.746094 C 492.386719 306.746094 474.328125 299.265625 461.015625 285.953125 C 447.703125 272.636719 440.222656 254.578125 440.222656 235.75 C 440.222656 216.921875 447.703125 198.863281 461.015625 185.546875 C 474.328125 172.234375 492.386719 164.753906 511.21875 164.753906 Z M 511.21875 164.753906 " clip-rule="nonzero"/></clipPath><clipPath id="05c10d5547"><path d="M 460.589844 198.609375 L 562.796875 198.609375 L 562.796875 272.570312 L 460.589844 272.570312 Z M 460.589844 198.609375 " clip-rule="nonzero"/></clipPath></defs><g clip-path="url(#78f083b732)"><g clip-path="url(#87100d07d4)"><path fill="#000000" d="M 440.222656 164.753906 L 583.878906 164.753906 L 583.878906 306.746094 L 440.222656 306.746094 Z M 440.222656 164.753906 " fill-opacity="1" fill-rule="nonzero"/></g></g><g clip-path="url(#05c10d5547)"><path fill="#ffffff" d="M 553.773438 205.089844 L 503.785156 234.578125 C 503.296875 234.867188 502.691406 234.886719 502.1875 234.625 L 487.214844 226.914062 L 471.730469 239.933594 C 471.03125 240.523438 469.984375 240.433594 469.394531 239.730469 C 468.808594 239.03125 468.898438 237.984375 469.597656 237.398438 L 485.925781 223.667969 C 486.4375 223.238281 487.15625 223.15625 487.75 223.460938 C 487.75 223.460938 502.890625 231.261719 502.890625 231.261719 L 552.015625 202.277344 L 551.175781 202.042969 C 550.292969 201.796875 549.777344 200.882812 550.023438 200 C 550.273438 199.121094 551.1875 198.605469 552.066406 198.851562 L 556.863281 200.191406 C 557.746094 200.4375 558.257812 201.351562 558.011719 202.234375 L 556.671875 207.03125 C 556.425781 207.910156 555.511719 208.425781 554.632812 208.179688 C 553.75 207.933594 553.234375 207.019531 553.480469 206.136719 Z M 506.382812 269.5 L 509.601562 269.554688 C 510.515625 269.570312 511.246094 270.328125 511.230469 271.242188 C 511.214844 272.15625 510.457031 272.886719 509.542969 272.867188 L 462.265625 272.042969 C 461.351562 272.027344 460.625 271.273438 460.640625 270.359375 C 460.65625 269.445312 461.410156 268.714844 462.324219 268.730469 L 465.542969 268.785156 L 465.804688 253.824219 L 474.472656 253.972656 L 474.210938 268.9375 L 481.632812 269.066406 L 482.152344 239.484375 L 490.8125 239.636719 L 490.296875 269.21875 L 497.71875 269.347656 L 498.132812 245.671875 L 506.796875 245.824219 Z M 557.828125 239.496094 L 561.722656 239.496094 C 562.636719 239.496094 563.378906 240.238281 563.378906 241.152344 C 563.378906 242.066406 562.636719 242.808594 561.722656 242.808594 L 516.105469 242.808594 C 515.191406 242.808594 514.449219 242.066406 514.449219 241.152344 C 514.449219 240.238281 515.191406 239.496094 516.105469 239.496094 L 520.375 239.496094 L 520.375 231.425781 L 528.320312 226.839844 L 528.320312 239.496094 L 535.128906 239.496094 L 535.128906 222.910156 L 543.074219 218.324219 L 543.074219 239.496094 L 549.882812 239.496094 L 549.882812 214.390625 L 557.828125 209.804688 Z M 557.828125 239.496094 " fill-opacity="1" fill-rule="evenodd"/></g></svg>