<svg xmlns="http://www.w3.org/2000/svg" xmlns:xlink="http://www.w3.org/1999/xlink" width="1366" zoomAndPan="magnify" viewBox="0 0 1024.5 471.749988" height="629" preserveAspectRatio="xMidYMid meet" version="1.0"><defs><clipPath id="1d41475db9"><path d="M 438.628906 163.179688 L 585.472656 163.179688 L 585.472656 308.320312 L 438.628906 308.320312 Z M 438.628906 163.179688 " clip-rule="nonzero"/></clipPath><clipPath id="66ac0cf8d9"><path d="M 511.199219 163.179688 L 512.800781 163.179688 C 532.046875 163.179688 550.503906 170.824219 564.117188 184.433594 C 577.726562 198.042969 585.371094 216.503906 585.371094 235.75 C 585.371094 254.996094 577.726562 273.457031 564.117188 287.066406 C 550.503906 300.675781 532.046875 308.320312 512.800781 308.320312 L 511.199219 308.320312 C 491.953125 308.320312 473.496094 300.675781 459.882812 287.066406 C 446.273438 273.457031 438.628906 254.996094 438.628906 235.75 C 438.628906 216.503906 446.273438 198.042969 459.882812 184.433594 C 473.496094 170.824219 491.953125 163.179688 511.199219 163.179688 Z M 511.199219 163.179688 " clip-rule="nonzero"/></clipPath><clipPath id="c4f4287554"><path d="M 468.105469 191.855469 L 556 191.855469 L 556 279.832031 L 468.105469 279.832031 Z M 468.105469 191.855469 " clip-rule="nonzero"/></clipPath></defs><g clip-path="url(#1d41475db9)"><g clip-path="url(#66ac0cf8d9)"><path fill="#000000" d="M 438.628906 163.179688 L 585.472656 163.179688 L 585.472656 308.320312 L 438.628906 308.320312 Z M 438.628906 163.179688 " fill-opacity="1" fill-rule="nonzero"/></g></g><g clip-path="url(#c4f4287554)"><path fill="#ffffff" d="M 511.996094 191.855469 L 504.324219 197.128906 L 495.195312 195.199219 L 490.09375 203 L 480.964844 204.714844 L 479.25 213.84375 L 471.449219 218.945312 L 473.335938 228.074219 L 468.105469 235.746094 L 473.335938 243.460938 L 471.449219 252.546875 L 479.25 257.648438 L 480.964844 266.777344 L 490.09375 268.535156 L 495.195312 276.292969 L 504.324219 274.410156 L 511.996094 279.636719 L 519.667969 274.410156 L 528.796875 276.292969 L 533.898438 268.535156 L 543.027344 266.777344 L 544.742188 257.648438 L 552.542969 252.546875 L 550.660156 243.460938 L 555.886719 235.746094 L 550.660156 228.074219 L 552.542969 218.945312 L 544.742188 213.84375 L 543.027344 204.714844 L 533.898438 203 L 528.796875 195.199219 L 519.667969 197.128906 Z M 511.996094 205.570312 C 528.660156 205.570312 542.171875 219.082031 542.171875 235.746094 C 542.171875 252.410156 528.660156 265.921875 511.996094 265.921875 C 495.332031 265.921875 481.820312 252.410156 481.820312 235.746094 C 481.820312 219.082031 495.332031 205.570312 511.996094 205.570312 Z M 525.328125 221.945312 L 507.496094 240.976562 L 498.152344 232.660156 L 492.664062 238.789062 L 505.007812 249.761719 L 508.011719 252.417969 L 510.753906 249.503906 L 531.328125 227.558594 Z M 525.328125 221.945312 " fill-opacity="1" fill-rule="nonzero"/></g></svg>