<svg xmlns="http://www.w3.org/2000/svg" xmlns:xlink="http://www.w3.org/1999/xlink" width="1366" zoomAndPan="magnify" viewBox="0 0 1024.5 471.749988" height="629" preserveAspectRatio="xMidYMid meet" version="1.0"><defs><filter x="0%" y="0%" width="100%" height="100%" id="a86ff7d61e"><feColorMatrix values="0 0 0 0 1 0 0 0 0 1 0 0 0 0 1 0 0 0 1 0" color-interpolation-filters="sRGB"/></filter><mask id="cad2067051"><g filter="url(#a86ff7d61e)"><rect x="-102.45" width="1229.4" fill="#000000" y="-47.174999" height="566.099986" fill-opacity="0.34"/></g></mask><clipPath id="becb66d108"><path d="M 0.34375 0.09375 L 211.65625 0.09375 L 211.65625 211.40625 L 0.34375 211.40625 Z M 0.34375 0.09375 " clip-rule="nonzero"/></clipPath><clipPath id="08b6350110"><rect x="0" width="212" y="0" height="212"/></clipPath><clipPath id="4c8d74924e"><path d="M 445.015625 174.554688 L 573 174.554688 L 573 296.894531 L 445.015625 296.894531 Z M 445.015625 174.554688 " clip-rule="nonzero"/></clipPath></defs><g mask="url(#cad2067051)"><g transform="matrix(1, 0, 0, 1, 406, 130)"><g clip-path="url(#08b6350110)"><g clip-path="url(#becb66d108)"><path fill="#000000" d="M 106 211.40625 C 47.628906 211.40625 0.34375 163.796875 0.34375 105.75 C 0.34375 47.707031 47.628906 0.09375 106 0.09375 C 164.371094 0.09375 211.65625 47.378906 211.65625 105.75 C 211.65625 164.121094 164.046875 211.40625 106 211.40625 Z M 106 6.617188 C 51.214844 6.617188 6.867188 50.964844 6.867188 105.75 C 6.867188 160.535156 51.214844 204.882812 106 204.882812 C 160.785156 204.882812 205.132812 160.535156 205.132812 105.75 C 205.132812 50.964844 160.457031 6.617188 106 6.617188 Z M 106 6.617188 " fill-opacity="1" fill-rule="nonzero"/></g></g></g></g><g clip-path="url(#4c8d74924e)"><path fill="#76c2af" d="M 494.003906 174.679688 C 467.40625 174.679688 445.292969 194 445.292969 218.300781 C 445.292969 229.96875 450.511719 240.5625 458.785156 248.382812 L 458.523438 249.664062 C 456.660156 255.128906 452.070312 258.21875 449.351562 259.203125 C 447.765625 259.769531 446.453125 260.625 445.730469 262.121094 C 445.011719 263.605469 445.445312 265.667969 446.53125 266.742188 C 449.070312 269.289062 452.363281 269.039062 454.773438 269.0625 C 463.828125 269.167969 474.496094 264.421875 480.960938 261.1875 L 481.035156 261.15625 L 483.246094 259.875 L 482.402344 259.617188 L 482.5 259.636719 C 486.097656 260.472656 489.871094 260.734375 493.582031 260.734375 C 516.972656 260.734375 537.097656 246.757812 541.542969 226.640625 L 541.542969 226.628906 C 542.140625 223.953125 542.453125 221.164062 542.453125 218.300781 C 542.453125 194.023438 520.605469 174.679688 494.003906 174.679688 Z M 494.003906 180.230469 C 517.925781 180.230469 536.902344 197.363281 536.902344 218.300781 C 536.902344 220.765625 536.628906 223.148438 536.121094 225.4375 C 532.324219 242.613281 514.769531 255.179688 493.582031 255.179688 C 490.15625 255.179688 486.78125 254.921875 483.769531 254.226562 L 482.554688 253.871094 L 478.445312 256.234375 C 472.304688 259.300781 461.722656 263.597656 454.835938 263.507812 C 453.894531 263.507812 453.808594 263.324219 453.144531 263.25 C 457.09375 261.320312 461.648438 257.816406 463.816406 251.375 L 463.859375 251.234375 L 464.855469 246.550781 L 463.632812 245.464844 C 455.683594 238.515625 450.847656 228.875 450.847656 218.300781 C 450.847656 197.386719 470.082031 180.230469 494.003906 180.230469 Z M 470.277344 199.664062 L 470.277344 205.214844 L 517.46875 205.214844 L 517.46875 199.664062 Z M 470.277344 213.542969 L 470.277344 219.09375 L 517.46875 219.09375 L 517.46875 213.542969 Z M 547.410156 225.1875 C 547.269531 226.078125 547.171875 226.964844 546.976562 227.84375 C 546.757812 228.800781 546.476562 229.730469 546.195312 230.675781 C 558.980469 235.609375 567.394531 245.550781 567.394531 256.601562 C 567.394531 264.527344 563.273438 271.933594 555.769531 277.476562 L 554.261719 278.59375 L 554.730469 280.414062 C 556.226562 286.152344 561.472656 289.109375 565.105469 291.085938 C 559.347656 291.867188 546.835938 290.5625 540.546875 283.125 L 539.492188 281.867188 L 537.886719 282.191406 C 535.363281 282.691406 532.433594 282.941406 528.921875 282.941406 C 511.65625 282.941406 497.636719 276.25 492.183594 266.242188 C 489.925781 266.199219 487.824219 266.046875 485.851562 265.808594 C 491 279.449219 507.558594 288.492188 528.921875 288.492188 C 532.121094 288.492188 534.90625 288.296875 537.410156 287.917969 C 543.539062 294.121094 553.523438 296.808594 561.613281 296.808594 C 562.144531 296.808594 562.675781 296.800781 563.1875 296.777344 C 567.882812 296.5625 570.941406 295.476562 572.296875 293.558594 C 572.890625 292.691406 573.097656 291.671875 572.859375 290.671875 C 572.394531 288.6875 570.570312 287.710938 568.042969 286.355469 C 565.5625 285.011719 562.296875 283.246094 560.769531 280.609375 C 568.542969 274.191406 572.945312 265.558594 572.945312 256.601562 C 572.945312 242.984375 562.765625 230.828125 547.410156 225.1875 Z M 470.277344 227.421875 L 470.277344 232.972656 L 503.589844 232.972656 L 503.589844 227.421875 Z M 539.722656 244.078125 C 538.332031 246.03125 536.804688 247.894531 535.125 249.628906 L 548.003906 249.628906 L 548.003906 244.078125 Z M 524.660156 257.957031 C 520.832031 260.257812 516.636719 262.132812 512.179688 263.507812 L 548.003906 263.507812 L 548.003906 257.957031 Z M 524.660156 257.957031 " fill-opacity="1" fill-rule="nonzero"/></g></svg>