<svg xmlns="http://www.w3.org/2000/svg" xmlns:xlink="http://www.w3.org/1999/xlink" width="1366" zoomAndPan="magnify" viewBox="0 0 1024.5 471.749988" height="629" preserveAspectRatio="xMidYMid meet" version="1.0"><defs><filter x="0%" y="0%" width="100%" height="100%" id="201b369031"><feColorMatrix values="0 0 0 0 1 0 0 0 0 1 0 0 0 0 1 0 0 0 1 0" color-interpolation-filters="sRGB"/></filter><mask id="73f1df77bb"><g filter="url(#201b369031)"><rect x="-102.45" width="1229.4" fill="#000000" y="-47.174999" height="566.099986" fill-opacity="0.34"/></g></mask><clipPath id="805150be8d"><path d="M 0.59375 0.34375 L 207.40625 0.34375 L 207.40625 207.15625 L 0.59375 207.15625 Z M 0.59375 0.34375 " clip-rule="nonzero"/></clipPath><clipPath id="5c26910db0"><rect x="0" width="208" y="0" height="208"/></clipPath><clipPath id="1af393b07a"><path d="M 430.769531 180 L 592.488281 180 L 592.488281 291 L 430.769531 291 Z M 430.769531 180 " clip-rule="nonzero"/></clipPath></defs><g mask="url(#73f1df77bb)"><g transform="matrix(1, 0, 0, 1, 408, 132)"><g clip-path="url(#5c26910db0)"><g clip-path="url(#805150be8d)"><path fill="#000000" d="M 104 207.15625 C 46.871094 207.15625 0.59375 160.558594 0.59375 103.75 C 0.59375 46.941406 46.871094 0.34375 104 0.34375 C 161.128906 0.34375 207.40625 46.621094 207.40625 103.75 C 207.40625 160.878906 160.808594 207.15625 104 207.15625 Z M 104 6.726562 C 50.382812 6.726562 6.976562 50.132812 6.976562 103.75 C 6.976562 157.367188 50.382812 200.773438 104 200.773438 C 157.617188 200.773438 201.023438 157.367188 201.023438 103.75 C 201.023438 50.132812 157.300781 6.726562 104 6.726562 Z M 104 6.726562 " fill-opacity="1" fill-rule="nonzero"/></g></g></g></g><g clip-path="url(#1af393b07a)"><path fill="#76c2af" d="M 479.285156 180.769531 C 472.34375 180.933594 466.5625 186.300781 466.5625 193.042969 C 466.5625 194.601562 467.183594 195.691406 467.648438 196.921875 L 450.507812 196.921875 C 450.078125 196.921875 449.667969 197.003906 449.269531 197.167969 C 448.875 197.332031 448.523438 197.566406 448.222656 197.871094 C 447.917969 198.175781 447.683594 198.523438 447.519531 198.921875 C 447.355469 199.316406 447.273438 199.730469 447.273438 200.160156 L 447.273438 221.125 L 445.332031 221.648438 L 445.148438 221.722656 C 442.679688 222.71875 440.71875 224.492188 439.296875 226.617188 L 431.707031 237.082031 C 431.453125 237.429688 431.277344 237.8125 431.179688 238.230469 C 431.078125 238.648438 431.0625 239.070312 431.128906 239.496094 C 431.199219 239.917969 431.34375 240.3125 431.570312 240.679688 C 431.796875 241.042969 432.082031 241.355469 432.429688 241.605469 C 432.777344 241.855469 433.160156 242.03125 433.578125 242.132812 C 433.996094 242.230469 434.417969 242.246094 434.84375 242.175781 C 435.265625 242.109375 435.660156 241.960938 436.027344 241.734375 C 436.390625 241.511719 436.699219 241.222656 436.953125 240.875 L 444.644531 230.261719 L 444.675781 230.210938 C 445.46875 229.03125 446.253906 228.460938 447.273438 227.980469 L 447.273438 246.375 L 455.597656 251.921875 L 473.289062 236.945312 L 473.3125 236.917969 C 474.796875 235.597656 476.851562 235.714844 478.25 237.203125 L 478.292969 237.253906 L 478.34375 237.304688 C 479.914062 238.839844 480.089844 241.453125 478.671875 243.421875 L 478.652344 243.449219 L 461.480469 268.300781 C 458.71875 272.09375 454.792969 274.605469 450.4375 275.664062 L 450.390625 275.675781 L 433.46875 280.359375 C 433.035156 280.453125 432.640625 280.632812 432.28125 280.890625 C 431.921875 281.152344 431.628906 281.46875 431.398438 281.851562 C 431.171875 282.230469 431.027344 282.640625 430.964844 283.078125 C 430.90625 283.515625 430.9375 283.949219 431.054688 284.378906 C 431.171875 284.804688 431.367188 285.191406 431.644531 285.539062 C 431.921875 285.882812 432.253906 286.160156 432.644531 286.371094 C 433.039062 286.578125 433.453125 286.703125 433.894531 286.742188 C 434.335938 286.78125 434.765625 286.730469 435.1875 286.589844 L 451.960938 281.949219 C 456.734375 280.792969 461.152344 278.273438 464.628906 274.585938 L 467.648438 274.585938 C 467.183594 275.816406 466.5625 276.910156 466.5625 278.46875 C 466.5625 286.175781 474.121094 292.089844 482.324219 290.484375 C 487.273438 289.527344 491.183594 285.707031 492.253906 280.8125 C 492.796875 278.582031 492.410156 276.503906 491.71875 274.585938 L 529.132812 274.585938 C 528.667969 275.816406 528.046875 276.910156 528.046875 278.46875 C 528.046875 286.175781 535.605469 292.089844 543.808594 290.484375 C 548.757812 289.527344 552.667969 285.707031 553.738281 280.8125 C 554.28125 278.582031 553.894531 276.503906 553.203125 274.585938 L 559.363281 274.585938 C 562.839844 278.269531 567.253906 280.792969 572.023438 281.949219 L 588.792969 286.589844 C 589.210938 286.722656 589.640625 286.769531 590.078125 286.730469 C 590.515625 286.6875 590.925781 286.5625 591.3125 286.355469 C 591.703125 286.144531 592.03125 285.867188 592.304688 285.523438 C 592.582031 285.179688 592.777344 284.796875 592.894531 284.375 C 593.011719 283.949219 593.042969 283.519531 592.984375 283.082031 C 592.925781 282.648438 592.785156 282.242188 592.5625 281.863281 C 592.339844 281.484375 592.050781 281.164062 591.695312 280.902344 C 591.34375 280.640625 590.953125 280.460938 590.523438 280.359375 L 573.597656 275.675781 L 573.546875 275.664062 C 569.195312 274.605469 565.265625 272.085938 562.503906 268.292969 L 545.332031 243.449219 L 545.3125 243.421875 C 543.898438 241.457031 544.082031 238.832031 545.648438 237.296875 L 545.691406 237.246094 L 545.742188 237.195312 C 547.140625 235.707031 549.191406 235.589844 550.671875 236.910156 L 550.707031 236.945312 L 568.390625 251.921875 L 576.714844 246.375 L 576.714844 227.980469 C 577.730469 228.457031 578.515625 229.03125 579.3125 230.21875 L 579.34375 230.269531 L 587.035156 240.875 C 587.285156 241.222656 587.59375 241.511719 587.960938 241.738281 C 588.324219 241.960938 588.71875 242.109375 589.144531 242.179688 C 589.566406 242.246094 589.988281 242.230469 590.40625 242.132812 C 590.824219 242.03125 591.207031 241.859375 591.554688 241.605469 C 591.90625 241.355469 592.191406 241.046875 592.417969 240.679688 C 592.640625 240.3125 592.789062 239.917969 592.855469 239.496094 C 592.925781 239.070312 592.910156 238.648438 592.808594 238.230469 C 592.707031 237.8125 592.53125 237.429688 592.28125 237.082031 L 584.691406 226.617188 C 583.269531 224.492188 581.304688 222.714844 578.832031 221.722656 L 578.652344 221.65625 L 576.714844 221.128906 L 576.714844 200.160156 C 576.714844 199.730469 576.632812 199.316406 576.46875 198.921875 C 576.304688 198.523438 576.070312 198.175781 575.765625 197.871094 C 575.460938 197.566406 575.113281 197.332031 574.714844 197.167969 C 574.320312 197.003906 573.90625 196.921875 573.476562 196.921875 L 553.203125 196.921875 C 553.894531 195.007812 554.28125 192.929688 553.738281 190.699219 C 552.667969 185.804688 548.757812 181.984375 543.808594 181.027344 L 543.804688 181.027344 C 535.601562 179.425781 528.046875 185.339844 528.046875 193.042969 C 528.046875 194.601562 528.667969 195.691406 529.132812 196.921875 L 491.71875 196.921875 C 492.410156 195.007812 492.796875 192.929688 492.253906 190.699219 C 491.183594 185.804688 487.273438 181.984375 482.324219 181.027344 L 482.320312 181.027344 C 481.292969 180.828125 480.277344 180.746094 479.285156 180.769531 Z M 479.394531 187.214844 C 479.933594 187.210938 480.496094 187.265625 481.082031 187.378906 C 481.085938 187.382812 481.089844 187.382812 481.09375 187.386719 C 483.503906 187.851562 485.453125 189.773438 485.953125 192.101562 C 485.960938 192.136719 485.964844 192.171875 485.972656 192.207031 C 486.316406 193.585938 486.023438 194.746094 485.226562 195.980469 L 485.339844 195.816406 C 484.359375 197.152344 484.167969 199.039062 484.765625 200.460938 C 485.363281 201.886719 486.613281 202.941406 488.128906 203.308594 C 488.375 203.367188 488.628906 203.394531 488.886719 203.394531 L 505.519531 203.394531 L 505.519531 229.511719 C 505.515625 229.851562 505.566406 230.1875 505.667969 230.515625 C 505.769531 230.84375 505.917969 231.144531 506.117188 231.425781 C 506.316406 231.703125 506.550781 231.945312 506.828125 232.152344 C 507.101562 232.355469 507.402344 232.511719 507.726562 232.621094 C 509.269531 233.703125 511.148438 234.210938 512.847656 233.1875 L 512.523438 233.359375 C 513.746094 232.804688 514.640625 232.519531 515.875 232.519531 C 517.792969 232.519531 519.457031 233.316406 520.480469 234.429688 C 521.503906 235.539062 521.949219 236.824219 521.5625 238.480469 C 521.558594 238.484375 521.558594 238.492188 521.554688 238.5 C 521.1875 240.109375 519.460938 241.761719 516.921875 242.214844 C 516.894531 242.222656 516.863281 242.226562 516.835938 242.234375 C 515.320312 242.550781 513.972656 242.25 512.714844 241.578125 L 512.847656 241.652344 C 511.140625 240.628906 509.285156 241.074219 507.753906 242.113281 C 507.753906 242.113281 507.746094 242.113281 507.746094 242.113281 C 507.417969 242.222656 507.117188 242.378906 506.839844 242.582031 C 506.558594 242.785156 506.320312 243.027344 506.121094 243.308594 C 505.921875 243.589844 505.769531 243.894531 505.667969 244.226562 C 505.566406 244.554688 505.515625 244.890625 505.519531 245.234375 L 505.519531 268.117188 L 488.886719 268.117188 C 488.628906 268.113281 488.375 268.144531 488.128906 268.203125 C 486.613281 268.570312 485.363281 269.625 484.765625 271.046875 C 484.167969 272.472656 484.359375 274.355469 485.339844 275.695312 L 485.226562 275.53125 C 486.023438 276.765625 486.316406 277.921875 485.972656 279.300781 C 485.964844 279.339844 485.960938 279.375 485.953125 279.410156 C 485.453125 281.738281 483.503906 283.660156 481.09375 284.125 C 481.089844 284.128906 481.085938 284.128906 481.082031 284.132812 C 476.402344 285.046875 473.035156 281.960938 473.035156 278.46875 C 473.035156 277.351562 473.335938 276.535156 473.996094 275.328125 L 473.804688 275.636719 C 474.738281 274.304688 474.929688 272.414062 474.265625 270.960938 C 473.605469 269.503906 472.226562 268.5 470.722656 268.183594 C 470.5 268.136719 470.277344 268.117188 470.050781 268.117188 L 469.476562 268.117188 L 483.925781 247.207031 C 487.101562 242.796875 486.800781 236.617188 482.894531 232.742188 C 479.214844 228.886719 473.035156 228.503906 469.015625 232.082031 L 455.128906 243.832031 L 453.746094 242.910156 L 453.746094 203.394531 L 470.050781 203.394531 C 470.277344 203.394531 470.5 203.371094 470.722656 203.324219 C 472.226562 203.007812 473.605469 202.007812 474.265625 200.550781 C 474.929688 199.097656 474.738281 197.207031 473.804688 195.875 L 473.996094 196.183594 C 473.335938 194.976562 473.035156 194.160156 473.035156 193.042969 C 473.035156 189.988281 475.613281 187.238281 479.394531 187.214844 Z M 540.878906 187.214844 C 541.417969 187.210938 541.980469 187.265625 542.566406 187.378906 C 542.570312 187.382812 542.574219 187.382812 542.578125 187.386719 C 544.988281 187.851562 546.9375 189.773438 547.4375 192.101562 C 547.445312 192.136719 547.449219 192.171875 547.457031 192.207031 C 547.800781 193.585938 547.507812 194.746094 546.710938 195.980469 L 546.824219 195.816406 C 545.84375 197.152344 545.652344 199.039062 546.25 200.460938 C 546.847656 201.886719 548.097656 202.941406 549.613281 203.308594 C 549.859375 203.367188 550.113281 203.394531 550.371094 203.394531 L 570.242188 203.394531 L 570.242188 242.910156 L 568.855469 243.832031 L 554.976562 232.078125 C 554.976562 232.078125 554.972656 232.078125 554.972656 232.078125 C 550.949219 228.5 544.761719 228.875 541.085938 232.742188 C 537.183594 236.617188 536.890625 242.789062 540.0625 247.195312 C 540.0625 247.195312 540.0625 247.203125 540.0625 247.203125 L 554.511719 268.117188 L 550.371094 268.117188 C 550.113281 268.113281 549.859375 268.144531 549.613281 268.203125 C 548.097656 268.570312 546.847656 269.625 546.25 271.046875 C 545.652344 272.472656 545.84375 274.355469 546.824219 275.695312 L 546.710938 275.53125 C 547.507812 276.765625 547.800781 277.921875 547.457031 279.300781 C 547.449219 279.339844 547.445312 279.375 547.4375 279.410156 C 546.9375 281.738281 544.988281 283.660156 542.578125 284.125 C 542.574219 284.128906 542.570312 284.128906 542.566406 284.132812 C 537.886719 285.046875 534.519531 281.960938 534.519531 278.46875 C 534.519531 277.351562 534.820312 276.535156 535.480469 275.328125 L 535.289062 275.636719 C 536.222656 274.304688 536.414062 272.414062 535.75 270.960938 C 535.089844 269.503906 533.710938 268.5 532.207031 268.183594 C 531.984375 268.136719 531.761719 268.117188 531.535156 268.117188 L 511.992188 268.117188 L 511.992188 248.085938 C 513.875 248.679688 515.90625 249.011719 518.097656 248.566406 C 522.789062 247.714844 526.8125 244.527344 527.863281 239.941406 C 528.726562 236.226562 527.554688 232.554688 525.246094 230.046875 C 522.9375 227.535156 519.550781 226.046875 515.875 226.046875 C 514.335938 226.046875 513.21875 226.566406 511.992188 226.964844 L 511.992188 203.394531 L 531.535156 203.394531 C 531.761719 203.394531 531.984375 203.371094 532.207031 203.324219 C 533.710938 203.007812 535.089844 202.007812 535.75 200.550781 C 536.414062 199.097656 536.222656 197.207031 535.289062 195.875 L 535.480469 196.183594 C 534.820312 194.976562 534.519531 194.160156 534.519531 193.042969 C 534.519531 189.988281 537.097656 187.238281 540.878906 187.214844 Z M 540.878906 187.214844 " fill-opacity="1" fill-rule="nonzero"/></g></svg>