<svg xmlns="http://www.w3.org/2000/svg" xmlns:xlink="http://www.w3.org/1999/xlink" width="1366" zoomAndPan="magnify" viewBox="0 0 1024.5 471.749988" height="629" preserveAspectRatio="xMidYMid meet" version="1.0"><defs><filter x="0%" y="0%" width="100%" height="100%" id="eb19087dd3"><feColorMatrix values="0 0 0 0 1 0 0 0 0 1 0 0 0 0 1 0 0 0 1 0" color-interpolation-filters="sRGB"/></filter><mask id="41659612f5"><g filter="url(#eb19087dd3)"><rect x="-102.45" width="1229.4" fill="#000000" y="-47.174999" height="566.099986" fill-opacity="0.34"/></g></mask><clipPath id="0143103e2d"><path d="M 0.449219 1.199219 L 269.554688 1.199219 L 269.554688 270.304688 L 0.449219 270.304688 Z M 0.449219 1.199219 " clip-rule="nonzero"/></clipPath><clipPath id="765994fdab"><rect x="0" width="270" y="0" height="271"/></clipPath><clipPath id="ae7c4d52cc"><path d="M 426.257812 175.847656 L 614 175.847656 L 614 295.226562 L 426.257812 295.226562 Z M 426.257812 175.847656 " clip-rule="nonzero"/></clipPath></defs><g mask="url(#41659612f5)"><g transform="matrix(1, 0, 0, 1, 377, 100)"><g clip-path="url(#765994fdab)"><g clip-path="url(#0143103e2d)"><path fill="#000000" d="M 135 270.304688 C 60.664062 270.304688 0.449219 209.671875 0.449219 135.75 C 0.449219 61.828125 60.664062 1.199219 135 1.199219 C 209.335938 1.199219 269.554688 61.414062 269.554688 135.75 C 269.554688 210.085938 208.921875 270.304688 135 270.304688 Z M 135 9.503906 C 65.230469 9.503906 8.753906 65.980469 8.753906 135.75 C 8.753906 205.519531 65.230469 261.996094 135 261.996094 C 204.769531 261.996094 261.246094 205.519531 261.246094 135.75 C 261.246094 65.980469 204.351562 9.503906 135 9.503906 Z M 135 9.503906 " fill-opacity="1" fill-rule="nonzero"/></g></g></g></g><g clip-path="url(#ae7c4d52cc)"><path fill="#76c2af" d="M 444.984375 175.847656 C 434.707031 175.847656 426.269531 184.289062 426.269531 194.566406 L 426.269531 276.917969 C 426.269531 287.195312 434.707031 295.636719 444.984375 295.636719 L 546.058594 295.636719 C 556.335938 295.636719 564.773438 287.195312 564.773438 276.917969 L 564.773438 256.980469 L 613.4375 283.183594 L 613.4375 188.300781 L 607.917969 191.269531 L 564.773438 214.503906 L 564.773438 194.566406 C 564.773438 184.289062 556.335938 175.847656 546.058594 175.847656 Z M 444.984375 183.335938 L 546.058594 183.335938 C 552.25 183.335938 557.285156 188.371094 557.285156 194.566406 L 557.285156 276.917969 C 557.285156 283.113281 552.25 288.148438 546.058594 288.148438 L 444.984375 288.148438 C 438.792969 288.148438 433.753906 283.113281 433.753906 276.917969 L 433.753906 194.566406 C 433.753906 188.371094 438.792969 183.335938 444.984375 183.335938 Z M 605.949219 200.839844 L 605.949219 270.648438 L 564.773438 248.480469 L 564.773438 223.007812 Z M 605.949219 200.839844 " fill-opacity="1" fill-rule="nonzero"/></g></svg>