<svg xmlns="http://www.w3.org/2000/svg" xmlns:xlink="http://www.w3.org/1999/xlink" width="1366" zoomAndPan="magnify" viewBox="0 0 1024.5 471.749988" height="629" preserveAspectRatio="xMidYMid meet" version="1.0"><defs><filter x="0%" y="0%" width="100%" height="100%" id="dd8b38e3a9"><feColorMatrix values="0 0 0 0 1 0 0 0 0 1 0 0 0 0 1 0 0 0 1 0" color-interpolation-filters="sRGB"/></filter><mask id="b869890a64"><g filter="url(#dd8b38e3a9)"><rect x="-102.45" width="1229.4" fill="#000000" y="-47.174999" height="566.099986" fill-opacity="0.34"/></g></mask><clipPath id="b7269603c4"><path d="M 1.058594 0.808594 L 144.371094 0.808594 L 144.371094 144.121094 L 1.058594 144.121094 Z M 1.058594 0.808594 " clip-rule="nonzero"/></clipPath><clipPath id="8e3ae924cd"><rect x="0" width="146" y="0" height="146"/></clipPath><clipPath id="d6acaf0787"><path d="M 451.625 204.378906 L 571.824219 204.378906 L 571.824219 280.660156 L 451.625 280.660156 Z M 451.625 204.378906 " clip-rule="nonzero"/></clipPath></defs><g mask="url(#b869890a64)"><g transform="matrix(1, 0, 0, 1, 439, 163)"><g clip-path="url(#8e3ae924cd)"><g clip-path="url(#b7269603c4)"><path fill="#000000" d="M 72.714844 144.121094 C 33.128906 144.121094 1.058594 111.832031 1.058594 72.464844 C 1.058594 33.097656 33.128906 0.808594 72.714844 0.808594 C 112.304688 0.808594 144.371094 32.878906 144.371094 72.464844 C 144.371094 112.054688 112.082031 144.121094 72.714844 144.121094 Z M 72.714844 5.234375 C 35.5625 5.234375 5.484375 35.3125 5.484375 72.464844 C 5.484375 109.621094 35.5625 139.699219 72.714844 139.699219 C 109.871094 139.699219 139.949219 109.621094 139.949219 72.464844 C 139.949219 35.3125 109.648438 5.234375 72.714844 5.234375 Z M 72.714844 5.234375 " fill-opacity="1" fill-rule="nonzero"/></g></g></g></g><g clip-path="url(#d6acaf0787)"><path fill="#76c2af" d="M 551.972656 207.597656 L 539.925781 214.757812 C 544.222656 218.675781 547.570312 223.160156 550.3125 228.015625 C 553.066406 232.886719 555.203125 238.113281 557.085938 243.519531 L 569.195312 236.320312 C 567.3125 230.855469 565.1875 225.582031 562.445312 220.734375 C 559.703125 215.882812 556.339844 211.433594 551.972656 207.597656 Z M 472.570312 204.746094 L 487.078125 213.363281 C 487.726562 213.746094 487.941406 214.585938 487.558594 215.238281 C 487.457031 215.40625 487.328125 215.542969 487.179688 215.652344 C 486.710938 216.046875 486.257812 216.445312 485.8125 216.855469 C 486.769531 217.910156 487.804688 218.519531 489.148438 218.863281 C 490.886719 219.304688 493.167969 219.351562 496.355469 219.316406 C 498.125 217.53125 499.507812 216.539062 502.375 215.757812 C 504.003906 215.316406 506.082031 214.960938 508.246094 214.703125 C 510.648438 214.414062 513.226562 214.242188 515.453125 214.191406 C 517.542969 214.148438 519.304688 214.214844 520.875 214.363281 C 522.480469 214.511719 523.851562 214.730469 525.148438 214.988281 C 525.703125 215.097656 526.3125 215.226562 526.917969 215.359375 C 528.785156 215.761719 530.609375 216.152344 532.570312 216.21875 C 533.855469 216.257812 535.25 216.164062 536.511719 216.03125 C 536.734375 216.011719 536.953125 215.984375 537.171875 215.957031 C 537.050781 215.855469 536.933594 215.753906 536.8125 215.652344 C 536.660156 215.542969 536.53125 215.40625 536.433594 215.238281 C 536.046875 214.585938 536.265625 213.746094 536.914062 213.363281 L 551.421875 204.746094 C 551.90625 204.460938 552.539062 204.496094 552.996094 204.878906 C 557.992188 209.085938 561.777344 214.011719 564.820312 219.398438 C 567.832031 224.722656 570.105469 230.476562 572.117188 236.421875 C 572.367188 237.039062 572.132812 237.761719 571.542969 238.109375 L 557.035156 246.730469 L 557.035156 246.726562 C 556.953125 246.777344 556.867188 246.816406 556.773438 246.847656 C 556.058594 247.085938 555.285156 246.699219 555.046875 245.984375 L 554.871094 245.476562 C 553.878906 246.574219 552.824219 247.558594 551.703125 248.433594 C 550.5 249.378906 549.21875 250.203125 547.847656 250.929688 C 548.941406 252.25 549.316406 253.835938 549.152344 255.363281 C 549.050781 256.285156 548.75 257.179688 548.289062 257.984375 C 547.820312 258.792969 547.195312 259.503906 546.449219 260.042969 C 545.414062 260.792969 544.15625 261.234375 542.78125 261.179688 C 542.8125 261.429688 542.824219 261.6875 542.824219 261.945312 C 542.824219 263.800781 542.074219 265.484375 540.855469 266.703125 C 539.640625 267.917969 537.957031 268.671875 536.101562 268.671875 C 535.621094 268.671875 535.152344 268.621094 534.695312 268.523438 C 534.675781 269.628906 534.351562 270.703125 533.789062 271.640625 C 533.207031 272.613281 532.367188 273.429688 531.335938 273.96875 C 530.476562 274.421875 529.492188 274.683594 528.425781 274.683594 C 527.875 274.683594 527.339844 274.609375 526.824219 274.476562 C 526.695312 275.4375 526.328125 276.347656 525.777344 277.125 C 525.078125 278.121094 524.074219 278.90625 522.871094 279.328125 C 522.25 279.546875 521.582031 279.667969 520.886719 279.667969 C 519.316406 279.667969 516.363281 279.429688 513.085938 278.71875 C 511.117188 278.292969 509.019531 277.695312 507.023438 276.878906 L 505.730469 278.5 C 504.59375 279.921875 502.972656 280.75 501.289062 280.9375 C 499.605469 281.125 497.847656 280.667969 496.421875 279.527344 L 496.417969 279.523438 L 496.417969 279.527344 C 495.144531 278.507812 494.347656 277.105469 494.058594 275.613281 C 493.339844 275.996094 492.558594 276.226562 491.75 276.316406 C 490.085938 276.503906 488.320312 276.066406 486.804688 275.09375 C 486.640625 274.988281 486.488281 274.878906 486.351562 274.773438 C 484.984375 273.695312 484.304688 272.160156 484.1875 270.570312 C 484.175781 270.410156 484.167969 270.246094 484.167969 270.085938 C 483.734375 270.21875 483.289062 270.3125 482.839844 270.363281 C 481.097656 270.554688 479.277344 270.101562 477.925781 269.085938 C 477.886719 269.054688 477.917969 269.078125 477.789062 268.972656 L 477.785156 268.976562 C 476.320312 267.808594 475.566406 266.171875 475.433594 264.503906 C 475.34375 263.394531 475.53125 262.269531 475.964844 261.25 C 474.5 261.261719 473.015625 260.789062 471.78125 259.800781 C 470.355469 258.660156 469.527344 257.042969 469.339844 255.359375 C 469.15625 253.675781 469.609375 251.917969 470.75 250.492188 L 471.195312 249.9375 C 470.875 249.167969 470.554688 248.523438 470.097656 247.894531 C 469.757812 247.417969 469.324219 246.925781 468.742188 246.371094 C 468.398438 246.828125 467.789062 247.039062 467.214844 246.847656 C 467.121094 246.816406 467.035156 246.777344 466.953125 246.726562 L 466.953125 246.730469 L 452.445312 238.109375 C 451.855469 237.761719 451.625 237.039062 451.875 236.421875 C 453.882812 230.476562 456.160156 224.722656 459.167969 219.398438 C 462.214844 214.011719 465.996094 209.085938 470.996094 204.878906 C 471.449219 204.496094 472.082031 204.460938 472.566406 204.746094 Z M 483.851562 218.765625 C 480.746094 221.980469 478.207031 225.542969 476.050781 229.355469 C 473.535156 233.808594 471.535156 238.621094 469.765625 243.613281 C 470.921875 244.617188 471.707031 245.460938 472.316406 246.296875 C 472.621094 246.722656 472.875 247.136719 473.101562 247.558594 L 474.871094 245.34375 C 476.007812 243.921875 477.625 243.09375 479.3125 242.90625 C 480.992188 242.722656 482.75 243.175781 484.175781 244.316406 L 484.179688 244.320312 L 484.183594 244.320312 L 484.191406 244.324219 L 484.253906 244.375 C 485.347656 245.277344 486.078125 246.460938 486.425781 247.742188 L 486.761719 247.320312 C 488.984375 244.53125 491.644531 243.808594 493.921875 244.351562 C 494.847656 244.574219 495.699219 245.007812 496.421875 245.597656 C 497.140625 246.1875 497.738281 246.929688 498.164062 247.777344 C 498.980469 249.402344 499.179688 251.402344 498.398438 253.40625 C 499.878906 253.371094 501.382812 253.828125 502.632812 254.800781 C 502.695312 254.847656 502.753906 254.898438 502.808594 254.953125 C 504.082031 256.222656 504.878906 257.839844 505.0625 259.496094 C 505.242188 261.113281 504.839844 262.757812 503.734375 264.160156 L 503.578125 264.363281 C 504.925781 264.425781 506.269531 264.898438 507.402344 265.808594 C 508.828125 266.949219 509.660156 268.566406 509.84375 270.25 C 510.011719 271.746094 509.667969 273.300781 508.789062 274.628906 C 510.40625 275.238281 512.078125 275.699219 513.664062 276.042969 C 516.71875 276.703125 519.445312 276.925781 520.886719 276.925781 C 521.28125 276.925781 521.644531 276.863281 521.972656 276.75 C 522.617188 276.523438 523.160156 276.097656 523.539062 275.554688 C 523.921875 275.011719 524.140625 274.355469 524.140625 273.671875 C 524.140625 273.535156 524.132812 273.402344 524.117188 273.265625 C 521.195312 272.496094 518.289062 271.449219 515.40625 270.121094 C 512.269531 268.675781 509.152344 266.898438 506.054688 264.792969 C 505.433594 264.367188 505.273438 263.515625 505.699219 262.894531 C 506.125 262.269531 506.972656 262.109375 507.597656 262.535156 C 510.5625 264.554688 513.550781 266.253906 516.550781 267.636719 C 519.542969 269.015625 522.550781 270.074219 525.574219 270.816406 C 525.800781 270.871094 526 270.980469 526.160156 271.125 C 526.464844 271.378906 526.820312 271.585938 527.203125 271.730469 C 527.582031 271.867188 527.992188 271.945312 528.425781 271.945312 C 529.039062 271.945312 529.589844 271.800781 530.0625 271.550781 C 530.644531 271.246094 531.117188 270.785156 531.445312 270.238281 C 531.773438 269.691406 531.957031 269.054688 531.957031 268.394531 C 531.957031 268.015625 531.898438 267.628906 531.765625 267.253906 C 524.9375 265.027344 517.359375 261.265625 509.042969 255.976562 C 508.402344 255.570312 508.214844 254.726562 508.617188 254.085938 C 509.023438 253.449219 509.871094 253.257812 510.507812 253.664062 C 518.867188 258.976562 526.421875 262.703125 533.179688 264.832031 C 533.367188 264.890625 533.53125 264.988281 533.671875 265.109375 C 534.007812 265.367188 534.382812 265.574219 534.785156 265.714844 C 535.1875 265.855469 535.628906 265.929688 536.101562 265.929688 C 537.199219 265.929688 538.195312 265.484375 538.917969 264.765625 C 539.640625 264.042969 540.085938 263.046875 540.085938 261.945312 C 540.085938 261.582031 540.039062 261.230469 539.945312 260.898438 C 539.894531 260.707031 539.832031 260.523438 539.757812 260.347656 C 537.820312 259.660156 534.902344 258.296875 531.007812 256.261719 C 526.753906 254.042969 521.355469 251.039062 514.808594 247.246094 C 514.15625 246.871094 513.933594 246.03125 514.308594 245.378906 C 514.6875 244.726562 515.523438 244.503906 516.175781 244.882812 C 522.75 248.6875 528.117188 251.675781 532.269531 253.84375 C 536.371094 255.984375 539.3125 257.34375 541.097656 257.921875 C 541.175781 257.945312 541.257812 257.972656 541.335938 258.015625 C 542.683594 258.691406 543.933594 258.488281 544.84375 257.828125 C 545.285156 257.507812 545.652344 257.09375 545.921875 256.625 C 546.195312 256.148438 546.375 255.617188 546.433594 255.074219 C 546.558594 253.9375 546.117188 252.734375 544.863281 251.90625 L 544.859375 251.902344 L 544.851562 251.898438 L 544.851562 251.894531 L 544.847656 251.894531 L 544.84375 251.890625 L 544.820312 251.875 C 544.800781 251.859375 544.78125 251.847656 544.765625 251.832031 L 544.761719 251.832031 L 544.734375 251.808594 L 544.722656 251.796875 L 544.582031 251.675781 C 544.546875 251.652344 544.511719 251.625 544.480469 251.59375 C 542.230469 249.691406 539.972656 247.792969 537.597656 245.894531 C 535.132812 243.925781 532.550781 241.964844 529.734375 240.027344 C 524.199219 236.21875 517.652344 232.410156 511.082031 228.601562 C 510.425781 228.71875 509.765625 228.851562 509.089844 229.085938 C 508.269531 229.367188 507.398438 229.800781 506.429688 230.535156 C 505.390625 231.324219 504.167969 232.511719 502.910156 233.734375 C 501.636719 234.972656 500.320312 236.25 499.027344 237.277344 C 497.640625 238.378906 496.277344 239.195312 494.945312 239.648438 C 493.488281 240.140625 492.074219 240.203125 490.71875 239.730469 L 490.714844 239.730469 C 489.246094 239.222656 487.886719 238.074219 487.164062 236.457031 C 486.5625 235.117188 486.398438 233.464844 486.988281 231.613281 C 487.992188 228.464844 491.222656 224.785156 493.765625 222.046875 C 491.636719 222.019531 489.933594 221.886719 488.472656 221.515625 C 486.597656 221.039062 485.15625 220.203125 483.851562 218.765625 Z M 484.066406 214.757812 L 472.015625 207.597656 C 467.648438 211.433594 464.285156 215.882812 461.546875 220.734375 C 458.804688 225.582031 456.675781 230.855469 454.792969 236.320312 L 466.675781 243.382812 C 466.726562 243.253906 466.796875 243.132812 466.886719 243.023438 C 466.96875 242.917969 467.066406 242.828125 467.171875 242.757812 C 468.988281 237.621094 471.054688 232.65625 473.675781 228.015625 C 476.421875 223.160156 479.769531 218.675781 484.066406 214.757812 Z M 478.964844 257.0625 C 479.019531 256.992188 479.085938 256.925781 479.152344 256.871094 L 482.960938 252.09375 C 482.996094 252.027344 483.039062 251.96875 483.085938 251.910156 L 483.085938 251.90625 L 483.09375 251.910156 C 483.75 251.078125 484.011719 250.050781 483.902344 249.058594 C 483.792969 248.089844 483.328125 247.160156 482.527344 246.496094 L 482.460938 246.441406 L 482.460938 246.4375 L 482.457031 246.433594 C 481.628906 245.777344 480.601562 245.515625 479.609375 245.625 C 478.617188 245.734375 477.667969 246.21875 477 247.054688 L 476.988281 247.066406 L 476.984375 247.066406 L 473.894531 250.925781 C 473.851562 250.988281 473.804688 251.046875 473.753906 251.101562 L 472.878906 252.195312 C 472.214844 253.027344 471.949219 254.0625 472.058594 255.058594 C 472.167969 256.054688 472.652344 257.007812 473.484375 257.671875 C 474.316406 258.339844 475.355469 258.605469 476.351562 258.492188 C 477.34375 258.382812 478.292969 257.898438 478.964844 257.0625 Z M 497.910156 267.136719 C 497.957031 267.03125 498.015625 266.929688 498.09375 266.835938 C 498.242188 266.652344 498.394531 266.476562 498.558594 266.3125 L 501.585938 262.46875 C 502.21875 261.667969 502.445312 260.722656 502.34375 259.796875 C 502.230469 258.777344 501.726562 257.761719 500.917969 256.9375 C 500.09375 256.304688 499.082031 256.054688 498.113281 256.160156 C 497.214844 256.257812 496.351562 256.664062 495.710938 257.359375 L 488.003906 267.03125 C 487.953125 267.160156 487.886719 267.28125 487.796875 267.394531 C 487.71875 267.492188 487.652344 267.589844 487.589844 267.6875 C 487.09375 268.453125 486.84375 269.429688 486.914062 270.367188 C 486.980469 271.238281 487.335938 272.0625 488.042969 272.621094 C 488.125 272.683594 488.203125 272.742188 488.28125 272.792969 C 489.269531 273.429688 490.402344 273.714844 491.453125 273.597656 C 492.375 273.496094 493.238281 273.070312 493.859375 272.277344 L 494.804688 271.078125 C 494.972656 270.78125 495.167969 270.492188 495.390625 270.21875 C 495.484375 270.101562 495.59375 270 495.714844 269.921875 Z M 497.070312 272.621094 C 496.738281 273.300781 496.617188 274.050781 496.699219 274.785156 C 496.808594 275.777344 497.292969 276.730469 498.128906 277.398438 L 498.125 277.398438 C 498.957031 278.066406 499.992188 278.328125 500.988281 278.21875 C 501.980469 278.109375 502.933594 277.625 503.601562 276.789062 L 503.605469 276.789062 L 505.464844 274.46875 C 505.515625 274.386719 505.574219 274.3125 505.640625 274.246094 L 506.304688 273.414062 C 506.972656 272.582031 507.238281 271.546875 507.128906 270.550781 C 507.015625 269.554688 506.53125 268.601562 505.699219 267.9375 C 504.867188 267.269531 503.832031 267.003906 502.835938 267.113281 C 502.023438 267.207031 501.234375 267.550781 500.609375 268.128906 Z M 493.304688 255.992188 C 493.328125 255.957031 493.351562 255.921875 493.378906 255.890625 L 493.402344 255.859375 C 493.429688 255.824219 493.457031 255.792969 493.484375 255.761719 L 493.488281 255.757812 L 494.976562 253.894531 C 496.34375 252.175781 496.402344 250.355469 495.726562 249.007812 C 495.472656 248.5 495.117188 248.0625 494.699219 247.71875 C 494.28125 247.378906 493.800781 247.128906 493.289062 247.007812 C 491.96875 246.691406 490.359375 247.195312 488.902344 249.019531 L 479 261.449219 L 478.9375 261.527344 C 478.359375 262.296875 478.082031 263.300781 478.160156 264.289062 C 478.238281 265.246094 478.664062 266.179688 479.488281 266.835938 L 479.484375 266.839844 L 479.488281 266.84375 C 479.550781 266.890625 479.460938 266.816406 479.570312 266.902344 C 480.367188 267.5 481.464844 267.761719 482.539062 267.644531 C 483.515625 267.535156 484.445312 267.109375 485.070312 266.324219 Z M 539.746094 218.363281 C 539 218.476562 537.992188 218.625 536.792969 218.75 C 535.4375 218.894531 533.921875 218.992188 532.484375 218.945312 C 530.25 218.871094 528.324219 218.457031 526.351562 218.035156 C 525.804688 217.917969 525.257812 217.796875 524.625 217.671875 C 523.363281 217.425781 522.066406 217.214844 520.628906 217.078125 C 519.15625 216.941406 517.492188 216.878906 515.503906 216.921875 C 513.414062 216.96875 510.9375 217.136719 508.570312 217.417969 C 506.492188 217.667969 504.546875 217.996094 503.089844 218.390625 C 500.207031 219.175781 499.125 220.332031 496.800781 222.808594 L 496.703125 222.914062 C 494.253906 225.519531 490.527344 229.488281 489.589844 232.4375 C 489.226562 233.582031 489.308594 234.570312 489.65625 235.347656 C 490.054688 236.238281 490.804688 236.871094 491.613281 237.152344 C 492.355469 237.410156 493.179688 237.359375 494.070312 237.058594 C 495.085938 236.714844 496.179688 236.046875 497.324219 235.140625 C 498.53125 234.183594 499.785156 232.960938 501.007812 231.777344 C 502.308594 230.507812 503.574219 229.277344 504.78125 228.363281 C 506.03125 227.414062 507.148438 226.859375 508.199219 226.496094 C 509.230469 226.140625 510.171875 225.980469 511.113281 225.824219 C 511.417969 225.773438 511.738281 225.824219 512.023438 225.988281 L 512.074219 226.019531 C 518.804688 229.921875 525.535156 233.820312 531.289062 237.78125 C 534.1875 239.777344 536.8125 241.765625 539.296875 243.753906 C 541.476562 245.496094 543.558594 247.238281 545.628906 248.984375 C 547.234375 248.21875 548.6875 247.332031 550.023438 246.285156 C 551.398438 245.210938 552.652344 243.960938 553.824219 242.5 C 552.15625 237.90625 550.269531 233.476562 547.9375 229.355469 C 545.695312 225.382812 543.03125 221.679688 539.746094 218.363281 Z M 539.746094 218.363281 " fill-opacity="1" fill-rule="nonzero"/></g></svg>