<svg xmlns="http://www.w3.org/2000/svg" xmlns:xlink="http://www.w3.org/1999/xlink" width="1366" zoomAndPan="magnify" viewBox="0 0 1024.5 471.749988" height="629" preserveAspectRatio="xMidYMid meet" version="1.0"><defs><clipPath id="9c6a31fcfe"><path d="M 476 171 L 543 171 L 543 238 L 476 238 Z M 476 171 " clip-rule="nonzero"/></clipPath><clipPath id="41cfda3719"><path d="M 403.054688 188.679688 L 551.652344 134.109375 L 606.222656 282.707031 L 457.625 337.277344 Z M 403.054688 188.679688 " clip-rule="nonzero"/></clipPath><clipPath id="07c3f1aecf"><path d="M 403.054688 188.679688 L 551.652344 134.109375 L 606.222656 282.707031 L 457.625 337.277344 Z M 403.054688 188.679688 " clip-rule="nonzero"/></clipPath><clipPath id="aba80a73d6"><path d="M 448 205 L 480 205 L 480 221 L 448 221 Z M 448 205 " clip-rule="nonzero"/></clipPath><clipPath id="fc30fa9635"><path d="M 403.054688 188.679688 L 551.652344 134.109375 L 606.222656 282.707031 L 457.625 337.277344 Z M 403.054688 188.679688 " clip-rule="nonzero"/></clipPath><clipPath id="eaf1861bc5"><path d="M 403.054688 188.679688 L 551.652344 134.109375 L 606.222656 282.707031 L 457.625 337.277344 Z M 403.054688 188.679688 " clip-rule="nonzero"/></clipPath><clipPath id="b022d3ff4a"><path d="M 452 214 L 483 214 L 483 231 L 452 231 Z M 452 214 " clip-rule="nonzero"/></clipPath><clipPath id="c2462e5381"><path d="M 403.054688 188.679688 L 551.652344 134.109375 L 606.222656 282.707031 L 457.625 337.277344 Z M 403.054688 188.679688 " clip-rule="nonzero"/></clipPath><clipPath id="47cee674b1"><path d="M 403.054688 188.679688 L 551.652344 134.109375 L 606.222656 282.707031 L 457.625 337.277344 Z M 403.054688 188.679688 " clip-rule="nonzero"/></clipPath><clipPath id="1d3d29f5f5"><path d="M 455 224 L 487 224 L 487 240 L 455 240 Z M 455 224 " clip-rule="nonzero"/></clipPath><clipPath id="e784557c2d"><path d="M 403.054688 188.679688 L 551.652344 134.109375 L 606.222656 282.707031 L 457.625 337.277344 Z M 403.054688 188.679688 " clip-rule="nonzero"/></clipPath><clipPath id="35b0c18aa9"><path d="M 403.054688 188.679688 L 551.652344 134.109375 L 606.222656 282.707031 L 457.625 337.277344 Z M 403.054688 188.679688 " clip-rule="nonzero"/></clipPath><clipPath id="497e778c91"><path d="M 459 234 L 490 234 L 490 250 L 459 250 Z M 459 234 " clip-rule="nonzero"/></clipPath><clipPath id="f02b0dd2d2"><path d="M 403.054688 188.679688 L 551.652344 134.109375 L 606.222656 282.707031 L 457.625 337.277344 Z M 403.054688 188.679688 " clip-rule="nonzero"/></clipPath><clipPath id="b3c4840ef6"><path d="M 403.054688 188.679688 L 551.652344 134.109375 L 606.222656 282.707031 L 457.625 337.277344 Z M 403.054688 188.679688 " clip-rule="nonzero"/></clipPath><clipPath id="fd38775b28"><path d="M 462 224 L 546 224 L 546 259 L 462 259 Z M 462 224 " clip-rule="nonzero"/></clipPath><clipPath id="202a80520f"><path d="M 403.054688 188.679688 L 551.652344 134.109375 L 606.222656 282.707031 L 457.625 337.277344 Z M 403.054688 188.679688 " clip-rule="nonzero"/></clipPath><clipPath id="8b99d4a8f3"><path d="M 403.054688 188.679688 L 551.652344 134.109375 L 606.222656 282.707031 L 457.625 337.277344 Z M 403.054688 188.679688 " clip-rule="nonzero"/></clipPath><clipPath id="eac1b7dbe7"><path d="M 526 267 L 567 267 L 567 299 L 526 299 Z M 526 267 " clip-rule="nonzero"/></clipPath><clipPath id="98520ba88c"><path d="M 403.054688 188.679688 L 551.652344 134.109375 L 606.222656 282.707031 L 457.625 337.277344 Z M 403.054688 188.679688 " clip-rule="nonzero"/></clipPath><clipPath id="2928b80f06"><path d="M 403.054688 188.679688 L 551.652344 134.109375 L 606.222656 282.707031 L 457.625 337.277344 Z M 403.054688 188.679688 " clip-rule="nonzero"/></clipPath><clipPath id="8a0823006e"><path d="M 507 295 L 529 295 L 529 308 L 507 308 Z M 507 295 " clip-rule="nonzero"/></clipPath><clipPath id="7299003427"><path d="M 403.054688 188.679688 L 551.652344 134.109375 L 606.222656 282.707031 L 457.625 337.277344 Z M 403.054688 188.679688 " clip-rule="nonzero"/></clipPath><clipPath id="d0b89d8ca6"><path d="M 403.054688 188.679688 L 551.652344 134.109375 L 606.222656 282.707031 L 457.625 337.277344 Z M 403.054688 188.679688 " clip-rule="nonzero"/></clipPath><clipPath id="6833d35681"><path d="M 504 286 L 526 286 L 526 299 L 504 299 Z M 504 286 " clip-rule="nonzero"/></clipPath><clipPath id="afe97a49fc"><path d="M 403.054688 188.679688 L 551.652344 134.109375 L 606.222656 282.707031 L 457.625 337.277344 Z M 403.054688 188.679688 " clip-rule="nonzero"/></clipPath><clipPath id="5048516470"><path d="M 403.054688 188.679688 L 551.652344 134.109375 L 606.222656 282.707031 L 457.625 337.277344 Z M 403.054688 188.679688 " clip-rule="nonzero"/></clipPath><clipPath id="d2648dd40a"><path d="M 431 141 L 599 141 L 599 334 L 431 334 Z M 431 141 " clip-rule="nonzero"/></clipPath><clipPath id="4603b5fc24"><path d="M 403.054688 188.679688 L 551.652344 134.109375 L 606.222656 282.707031 L 457.625 337.277344 Z M 403.054688 188.679688 " clip-rule="nonzero"/></clipPath><clipPath id="2c99ec9620"><path d="M 403.054688 188.679688 L 551.652344 134.109375 L 606.222656 282.707031 L 457.625 337.277344 Z M 403.054688 188.679688 " clip-rule="nonzero"/></clipPath><clipPath id="4a609eab12"><path d="M 466.421875 162.09375 L 620.945312 162.09375 L 620.945312 316.617188 L 466.421875 316.617188 Z M 466.421875 162.09375 " clip-rule="nonzero"/></clipPath><clipPath id="b24f792a7f"><path d="M 543.683594 162.09375 C 501.011719 162.09375 466.421875 196.683594 466.421875 239.355469 C 466.421875 282.027344 501.011719 316.617188 543.683594 316.617188 C 586.355469 316.617188 620.945312 282.027344 620.945312 239.355469 C 620.945312 196.683594 586.355469 162.09375 543.683594 162.09375 Z M 543.683594 162.09375 " clip-rule="nonzero"/></clipPath><clipPath id="a947012c7d"><path d="M 453.589844 162 L 611.890625 162 L 611.890625 319.804688 L 453.589844 319.804688 Z M 453.589844 162 " clip-rule="nonzero"/></clipPath></defs><g clip-path="url(#9c6a31fcfe)"><g clip-path="url(#41cfda3719)"><g clip-path="url(#07c3f1aecf)"><path fill="#76c2af" d="M 483.371094 192.300781 L 521.636719 178.246094 L 535.691406 216.511719 L 532.933594 217.527344 L 529.015625 210.632812 C 526.972656 207.035156 523.484375 204.414062 519.464844 203.449219 C 518.746094 203.28125 518.023438 203.164062 517.296875 203.089844 C 518.105469 200.90625 518.203125 198.453125 517.339844 196.109375 C 515.402344 190.832031 509.539062 188.117188 504.261719 190.054688 C 498.980469 191.996094 496.269531 197.859375 498.207031 203.136719 C 499.066406 205.480469 500.726562 207.289062 502.757812 208.429688 C 502.253906 208.957031 501.777344 209.511719 501.339844 210.105469 C 498.894531 213.441406 497.933594 217.699219 498.707031 221.761719 L 500.179688 229.554688 L 497.421875 230.566406 Z M 505.453125 213.113281 C 506.617188 211.519531 508.203125 210.320312 510.054688 209.640625 L 512.519531 208.738281 C 514.371094 208.058594 516.351562 207.945312 518.273438 208.40625 C 520.933594 209.039062 523.222656 210.773438 524.585938 213.148438 L 528.085938 219.304688 L 505.027344 227.773438 L 503.710938 220.8125 C 503.210938 218.125 503.835938 215.320312 505.453125 213.113281 Z M 509.53125 204.40625 C 506.894531 205.375 503.957031 204.015625 502.988281 201.378906 C 502.023438 198.746094 503.382812 195.808594 506.015625 194.839844 C 508.652344 193.871094 511.589844 195.230469 512.558594 197.867188 C 513.523438 200.5 512.164062 203.4375 509.53125 204.40625 Z M 542.230469 219.539062 L 524.664062 171.707031 L 476.828125 189.273438 L 494.394531 237.105469 L 542.230469 219.539062 " fill-opacity="1" fill-rule="nonzero"/></g></g></g><g clip-path="url(#aba80a73d6)"><g clip-path="url(#fc30fa9635)"><g clip-path="url(#eaf1861bc5)"><path fill="#76c2af" d="M 477.316406 205.378906 L 448.617188 215.917969 L 450.371094 220.703125 L 479.074219 210.164062 L 477.316406 205.378906 " fill-opacity="1" fill-rule="nonzero"/></g></g></g><g clip-path="url(#b022d3ff4a)"><g clip-path="url(#c2462e5381)"><g clip-path="url(#47cee674b1)"><path fill="#76c2af" d="M 480.828125 214.945312 L 452.128906 225.488281 L 453.886719 230.269531 L 482.585938 219.730469 L 480.828125 214.945312 " fill-opacity="1" fill-rule="nonzero"/></g></g></g><g clip-path="url(#1d3d29f5f5)"><g clip-path="url(#e784557c2d)"><g clip-path="url(#35b0c18aa9)"><path fill="#76c2af" d="M 484.34375 224.511719 L 455.640625 235.054688 L 457.398438 239.835938 L 486.097656 229.296875 L 484.34375 224.511719 " fill-opacity="1" fill-rule="nonzero"/></g></g></g><g clip-path="url(#497e778c91)"><g clip-path="url(#f02b0dd2d2)"><g clip-path="url(#b3c4840ef6)"><path fill="#76c2af" d="M 487.855469 234.082031 L 459.15625 244.621094 L 460.910156 249.402344 L 489.613281 238.863281 L 487.855469 234.082031 " fill-opacity="1" fill-rule="nonzero"/></g></g></g><g clip-path="url(#fd38775b28)"><g clip-path="url(#202a80520f)"><g clip-path="url(#8b99d4a8f3)"><path fill="#76c2af" d="M 464.425781 258.96875 L 545.746094 229.105469 L 543.988281 224.324219 L 462.667969 254.1875 L 464.425781 258.96875 " fill-opacity="1" fill-rule="nonzero"/></g></g></g><g clip-path="url(#eac1b7dbe7)"><g clip-path="url(#98520ba88c)"><g clip-path="url(#2928b80f06)"><path fill="#76c2af" d="M 532.855469 282.699219 L 556.769531 273.914062 L 560.285156 283.480469 L 536.367188 292.265625 Z M 533.339844 298.804688 L 566.824219 286.507812 L 559.796875 267.375 L 526.3125 279.671875 L 533.339844 298.804688 " fill-opacity="1" fill-rule="nonzero"/></g></g></g><g clip-path="url(#8a0823006e)"><g clip-path="url(#7299003427)"><g clip-path="url(#d0b89d8ca6)"><path fill="#76c2af" d="M 509.421875 307.589844 L 528.558594 300.5625 L 526.800781 295.777344 L 507.667969 302.804688 L 509.421875 307.589844 " fill-opacity="1" fill-rule="nonzero"/></g></g></g><g clip-path="url(#6833d35681)"><g clip-path="url(#afe97a49fc)"><g clip-path="url(#5048516470)"><path fill="#76c2af" d="M 505.910156 298.023438 L 525.042969 290.996094 L 523.285156 286.210938 L 504.152344 293.238281 L 505.910156 298.023438 " fill-opacity="1" fill-rule="nonzero"/></g></g></g><g clip-path="url(#d2648dd40a)"><g clip-path="url(#4603b5fc24)"><g clip-path="url(#2c99ec9620)"><path fill="#76c2af" d="M 591.394531 264.867188 L 573.582031 275.34375 L 532.472656 163.410156 C 531.507812 160.773438 528.570312 159.414062 525.933594 160.382812 L 468.53125 181.460938 L 468.417969 181.152344 L 531.988281 147.332031 C 533.359375 146.617188 535.054688 147.160156 535.742188 148.542969 L 592.621094 260.726562 C 592.671875 260.835938 592.722656 260.945312 592.761719 261.058594 C 593.289062 262.488281 592.71875 264.085938 591.394531 264.867188 Z M 573.363281 289.535156 L 482.480469 322.914062 L 481.085938 319.121094 L 499.058594 280.285156 L 498.359375 257.367188 L 549.257812 238.675781 L 547.5 233.890625 L 494.5 253.355469 L 474.8125 269.066406 L 468.0625 283.652344 L 436.804688 198.542969 L 446.371094 195.027344 L 449.007812 202.203125 C 450.460938 206.164062 454.855469 208.199219 458.816406 206.746094 C 462.777344 205.289062 464.8125 200.894531 463.359375 196.933594 L 460.722656 189.757812 L 465.507812 188.003906 L 469.019531 197.570312 L 473.800781 195.8125 L 470.289062 186.246094 L 527.691406 165.164062 Z M 468.707031 327.96875 C 464.429688 329.539062 459.675781 327.34375 458.105469 323.0625 C 457.34375 320.988281 457.433594 318.75 458.363281 316.746094 L 459.953125 313.308594 L 474.949219 320.25 L 473.359375 323.683594 C 472.429688 325.691406 470.78125 327.207031 468.707031 327.96875 Z M 478.113281 274.066406 L 493.109375 281.007812 L 477.089844 315.625 L 462.09375 308.683594 Z M 485.101562 267.375 L 493.6875 271.347656 L 493.820312 275.722656 L 481.683594 270.105469 Z M 493.515625 265.65625 L 489.554688 263.824219 L 493.367188 260.777344 Z M 451.15625 193.273438 L 455.9375 191.515625 L 458.574219 198.691406 C 459.058594 200.007812 458.378906 201.476562 457.0625 201.960938 C 455.742188 202.445312 454.273438 201.765625 453.789062 200.449219 Z M 447.640625 183.707031 C 446.675781 181.070312 448.035156 178.132812 450.667969 177.164062 L 455.453125 175.410156 C 458.085938 174.441406 461.023438 175.800781 461.992188 178.433594 L 463.75 183.21875 L 458.964844 184.976562 L 457.210938 180.191406 L 452.425781 181.949219 L 454.183594 186.730469 L 449.398438 188.488281 Z M 597.15625 258.414062 L 540.292969 146.246094 C 538.34375 142.347656 533.4375 140.769531 529.59375 142.828125 L 466.613281 176.347656 C 464.546875 171.304688 458.851562 168.730469 453.695312 170.625 L 448.914062 172.382812 C 443.632812 174.320312 440.921875 180.183594 442.859375 185.460938 L 444.617188 190.246094 L 435.046875 193.757812 C 432.414062 194.726562 431.054688 197.664062 432.023438 200.300781 L 465.035156 290.195312 L 453.738281 314.605469 C 452.246094 317.847656 452.09375 321.476562 453.320312 324.820312 C 455.859375 331.734375 463.550781 335.292969 470.464844 332.753906 C 473.816406 331.519531 476.488281 329.058594 477.980469 325.824219 L 478.117188 325.53125 C 479.351562 327.589844 481.910156 328.550781 484.234375 327.695312 L 575.121094 294.320312 C 577.757812 293.351562 579.117188 290.414062 578.148438 287.777344 L 575.367188 280.210938 L 593.984375 269.261719 C 597.425781 267.234375 598.921875 263.046875 597.546875 259.300781 C 597.433594 258.992188 597.300781 258.691406 597.15625 258.414062 " fill-opacity="1" fill-rule="nonzero"/></g></g></g><g clip-path="url(#4a609eab12)"><g clip-path="url(#b24f792a7f)"><path fill="#ffffff" d="M 466.421875 162.09375 L 620.945312 162.09375 L 620.945312 316.617188 L 466.421875 316.617188 Z M 466.421875 162.09375 " fill-opacity="1" fill-rule="nonzero"/></g></g><path fill="#76c2af" d="M 527.734375 192.585938 L 568.5 192.585938 L 568.5 233.351562 L 565.5625 233.351562 L 564.257812 225.53125 C 563.582031 221.449219 561.214844 217.785156 557.769531 215.496094 C 557.152344 215.089844 556.515625 214.730469 555.859375 214.414062 C 557.371094 212.640625 558.308594 210.371094 558.308594 207.875 C 558.308594 202.25 553.738281 197.679688 548.117188 197.679688 C 542.492188 197.679688 537.925781 202.25 537.925781 207.875 C 537.925781 210.371094 538.859375 212.640625 540.371094 214.414062 C 539.714844 214.730469 539.078125 215.089844 538.460938 215.496094 C 535.019531 217.785156 532.648438 221.449219 531.972656 225.53125 L 530.667969 233.351562 L 527.734375 233.351562 Z M 541.289062 219.738281 C 542.929688 218.640625 544.832031 218.066406 546.800781 218.066406 L 549.429688 218.066406 C 551.402344 218.066406 553.300781 218.640625 554.945312 219.738281 C 557.222656 221.25 558.777344 223.667969 559.234375 226.367188 L 560.398438 233.351562 L 535.835938 233.351562 L 537 226.367188 C 537.457031 223.667969 539.007812 221.25 541.289062 219.738281 Z M 548.117188 212.96875 C 545.308594 212.96875 543.019531 210.679688 543.019531 207.875 C 543.019531 205.066406 545.308594 202.777344 548.117188 202.777344 C 550.921875 202.777344 553.210938 205.066406 553.210938 207.875 C 553.210938 210.679688 550.921875 212.96875 548.117188 212.96875 Z M 573.59375 238.449219 L 573.59375 187.488281 L 522.636719 187.488281 L 522.636719 238.449219 L 573.59375 238.449219 " fill-opacity="1" fill-rule="nonzero"/><path fill="#76c2af" d="M 517.542969 202.777344 L 486.964844 202.777344 L 486.964844 207.875 L 517.542969 207.875 L 517.542969 202.777344 " fill-opacity="1" fill-rule="nonzero"/><path fill="#76c2af" d="M 517.542969 212.96875 L 486.964844 212.96875 L 486.964844 218.066406 L 517.542969 218.066406 L 517.542969 212.96875 " fill-opacity="1" fill-rule="nonzero"/><path fill="#76c2af" d="M 517.542969 223.160156 L 486.964844 223.160156 L 486.964844 228.257812 L 517.542969 228.257812 L 517.542969 223.160156 " fill-opacity="1" fill-rule="nonzero"/><path fill="#76c2af" d="M 517.542969 233.351562 L 486.964844 233.351562 L 486.964844 238.449219 L 517.542969 238.449219 L 517.542969 233.351562 " fill-opacity="1" fill-rule="nonzero"/><path fill="#76c2af" d="M 486.964844 248.640625 L 573.59375 248.640625 L 573.59375 243.542969 L 486.964844 243.542969 L 486.964844 248.640625 " fill-opacity="1" fill-rule="nonzero"/><path fill="#76c2af" d="M 543.019531 294.503906 L 568.5 294.503906 L 568.5 304.695312 L 543.019531 304.695312 Z M 537.925781 309.789062 L 573.59375 309.789062 L 573.59375 289.40625 L 537.925781 289.40625 L 537.925781 309.789062 " fill-opacity="1" fill-rule="nonzero"/><path fill="#76c2af" d="M 512.445312 309.789062 L 532.828125 309.789062 L 532.828125 304.695312 L 512.445312 304.695312 L 512.445312 309.789062 " fill-opacity="1" fill-rule="nonzero"/><path fill="#76c2af" d="M 512.445312 299.597656 L 532.828125 299.597656 L 532.828125 294.503906 L 512.445312 294.503906 L 512.445312 299.597656 " fill-opacity="1" fill-rule="nonzero"/><g clip-path="url(#a947012c7d)"><path fill="#76c2af" d="M 604.121094 297.945312 L 583.785156 301.636719 L 583.785156 182.394531 C 583.785156 179.585938 581.496094 177.296875 578.691406 177.296875 L 517.542969 177.296875 L 517.542969 176.96875 L 588.871094 167.136719 C 590.40625 166.9375 591.808594 168.03125 591.976562 169.566406 L 606.699219 294.480469 C 606.707031 294.601562 606.71875 294.722656 606.71875 294.839844 C 606.71875 296.363281 605.632812 297.667969 604.121094 297.945312 Z M 578.691406 314.886719 L 481.871094 314.886719 L 481.871094 310.84375 L 512.125 280.589844 L 519.371094 258.832031 L 573.59375 258.832031 L 573.59375 253.734375 L 517.132812 253.734375 L 493.238281 261.699219 L 481.871094 273.0625 L 481.871094 182.394531 L 492.0625 182.394531 L 492.0625 190.039062 C 492.0625 194.257812 495.484375 197.679688 499.707031 197.679688 C 503.925781 197.679688 507.351562 194.257812 507.351562 190.039062 L 507.351562 182.394531 L 512.445312 182.394531 L 512.445312 192.585938 L 517.542969 192.585938 L 517.542969 182.394531 L 578.691406 182.394531 Z M 467.199219 314.886719 C 462.640625 314.886719 458.9375 311.183594 458.9375 306.625 C 458.9375 304.414062 459.796875 302.34375 461.359375 300.78125 L 464.035156 298.105469 L 475.71875 309.789062 L 473.042969 312.46875 C 471.480469 314.03125 469.410156 314.886719 467.199219 314.886719 Z M 494.609375 267.53125 L 506.292969 279.214844 L 479.324219 306.1875 L 467.636719 294.503906 Z M 503.476562 263.660156 L 510.167969 270.347656 L 508.78125 274.496094 L 499.328125 265.042969 Z M 511.96875 264.941406 L 508.882812 261.855469 L 513.511719 260.3125 Z M 497.15625 182.394531 L 502.253906 182.394531 L 502.253906 190.039062 C 502.253906 191.441406 501.109375 192.585938 499.707031 192.585938 C 498.300781 192.585938 497.15625 191.441406 497.15625 190.039062 Z M 497.15625 172.203125 C 497.15625 169.394531 499.445312 167.105469 502.253906 167.105469 L 507.351562 167.105469 C 510.15625 167.105469 512.445312 169.394531 512.445312 172.203125 L 512.445312 177.296875 L 507.351562 177.296875 L 507.351562 172.203125 L 502.253906 172.203125 L 502.253906 177.296875 L 497.15625 177.296875 Z M 611.753906 293.875 L 597.042969 168.976562 C 596.554688 164.648438 592.496094 161.472656 588.175781 162.082031 L 517.5 171.835938 C 517.300781 166.390625 512.84375 162.011719 507.351562 162.011719 L 502.253906 162.011719 C 496.628906 162.011719 492.0625 166.578125 492.0625 172.203125 L 492.0625 177.296875 L 481.871094 177.296875 C 479.0625 177.296875 476.773438 179.585938 476.773438 182.394531 L 476.773438 278.160156 L 457.753906 297.179688 C 455.238281 299.707031 453.84375 303.0625 453.84375 306.625 C 453.84375 313.988281 459.835938 319.980469 467.199219 319.980469 C 470.773438 319.980469 474.128906 318.589844 476.644531 316.070312 L 476.875 315.839844 C 477.320312 318.199219 479.390625 319.980469 481.871094 319.980469 L 578.691406 319.980469 C 581.496094 319.980469 583.785156 317.691406 583.785156 314.886719 L 583.785156 306.824219 L 605.035156 302.960938 C 608.96875 302.246094 611.8125 298.832031 611.8125 294.839844 C 611.8125 294.511719 611.792969 294.183594 611.753906 293.875 " fill-opacity="1" fill-rule="nonzero"/></g></svg>