<svg xmlns="http://www.w3.org/2000/svg" xmlns:xlink="http://www.w3.org/1999/xlink" width="1366" zoomAndPan="magnify" viewBox="0 0 1024.5 471.749988" height="629" preserveAspectRatio="xMidYMid meet" version="1.0"><defs><clipPath id="aef311fb4b"><path d="M 602 232 L 626.4375 232 L 626.4375 239 L 602 239 Z M 602 232 " clip-rule="nonzero"/></clipPath><clipPath id="302febdf8b"><path d="M 397.808594 232 L 422 232 L 422 239 L 397.808594 239 Z M 397.808594 232 " clip-rule="nonzero"/></clipPath></defs><path fill="#76c2af" d="M 512 157.386719 C 500.125 157.386719 490.464844 167.046875 490.464844 178.921875 C 490.464844 190.804688 500.125 200.464844 512 200.464844 C 523.875 200.464844 533.535156 190.804688 533.535156 178.921875 C 533.535156 167.046875 523.875 157.386719 512 157.386719 " fill-opacity="1" fill-rule="nonzero"/><path fill="#76c2af" d="M 568.796875 226.648438 C 559.136719 223.027344 537.980469 212.390625 534.199219 209.902344 C 526.558594 204.878906 519.503906 202.539062 512 202.539062 C 504.496094 202.539062 497.441406 204.878906 489.800781 209.902344 C 486.019531 212.390625 464.863281 223.027344 455.203125 226.648438 C 451.027344 228.214844 448.667969 232.535156 449.59375 236.921875 C 450.136719 239.496094 451.765625 241.699219 454.070312 242.964844 C 455.429688 243.707031 456.9375 244.082031 458.429688 244.082031 C 459.476562 244.082031 460.511719 243.898438 461.5 243.535156 L 487.355469 234.707031 C 488.257812 234.398438 489.164062 235.125 489.0625 236.066406 C 486.933594 254.707031 481.910156 299.078125 480.785156 310.609375 C 480.160156 316.890625 484.511719 322.398438 490.675781 323.136719 C 496.460938 323.832031 501.726562 319.800781 503.210938 313.566406 C 504.152344 309.617188 509.300781 284.988281 510.96875 277.03125 C 511.085938 276.476562 511.867188 276.476562 511.984375 277.03125 C 513.644531 284.988281 518.800781 309.609375 519.742188 313.566406 C 521.117188 319.335938 525.734375 323.21875 530.992188 323.21875 C 531.414062 323.21875 531.839844 323.1875 532.277344 323.136719 C 538.441406 322.398438 542.785156 316.890625 542.171875 310.609375 C 541.039062 299 535.949219 254.101562 533.851562 235.695312 C 533.738281 234.75 534.652344 234.027344 535.554688 234.335938 L 562.417969 243.503906 C 563.449219 243.882812 564.519531 244.074219 565.59375 244.074219 C 567.09375 244.074219 568.582031 243.703125 569.929688 242.964844 C 572.234375 241.699219 573.863281 239.496094 574.40625 236.921875 C 575.332031 232.535156 572.972656 228.214844 568.796875 226.648438 " fill-opacity="1" fill-rule="nonzero"/><path fill="#76c2af" d="M 512.042969 142.394531 C 510.492188 142.394531 509.234375 141.136719 509.234375 139.585938 L 509.234375 121.042969 C 509.234375 119.492188 510.492188 118.234375 512.042969 118.234375 C 513.59375 118.234375 514.851562 119.492188 514.851562 121.042969 L 514.851562 139.585938 C 514.851562 141.136719 513.59375 142.394531 512.042969 142.394531 " fill-opacity="1" fill-rule="nonzero"/><path fill="#76c2af" d="M 512.042969 353.316406 C 510.492188 353.316406 509.234375 352.066406 509.234375 350.507812 L 509.234375 331.96875 C 509.234375 330.421875 510.492188 329.164062 512.042969 329.164062 C 513.59375 329.164062 514.851562 330.421875 514.851562 331.96875 L 514.851562 350.507812 C 514.851562 352.066406 513.59375 353.316406 512.042969 353.316406 " fill-opacity="1" fill-rule="nonzero"/><path fill="#76c2af" d="M 588.875 161.605469 C 588.160156 161.605469 587.441406 161.335938 586.894531 160.785156 C 585.796875 159.695312 585.796875 157.910156 586.886719 156.816406 L 599.96875 143.675781 C 601.058594 142.578125 602.84375 142.570312 603.941406 143.667969 C 605.035156 144.757812 605.042969 146.539062 603.945312 147.636719 L 590.871094 160.777344 C 590.324219 161.328125 589.601562 161.605469 588.875 161.605469 " fill-opacity="1" fill-rule="nonzero"/><path fill="#76c2af" d="M 602.644531 328.972656 C 601.929688 328.972656 601.210938 328.703125 600.664062 328.152344 L 587.523438 315.070312 C 586.425781 313.980469 586.417969 312.203125 587.515625 311.101562 C 588.605469 310.003906 590.382812 310.003906 591.488281 311.09375 L 604.628906 324.175781 C 605.722656 325.265625 605.722656 327.042969 604.632812 328.144531 C 604.085938 328.695312 603.363281 328.972656 602.644531 328.972656 " fill-opacity="1" fill-rule="nonzero"/><g clip-path="url(#aef311fb4b)"><path fill="#76c2af" d="M 604.867188 238.453125 C 603.316406 238.453125 602.058594 237.199219 602.058594 235.652344 C 602.054688 234.101562 603.3125 232.84375 604.859375 232.835938 L 623.40625 232.792969 C 623.40625 232.792969 623.40625 232.792969 623.414062 232.792969 C 624.957031 232.792969 626.214844 234.050781 626.222656 235.59375 C 626.222656 237.140625 624.96875 238.40625 623.421875 238.40625 L 604.875 238.453125 C 604.867188 238.453125 604.867188 238.453125 604.867188 238.453125 " fill-opacity="1" fill-rule="nonzero"/></g><path fill="#76c2af" d="M 435.125 161.605469 C 434.398438 161.605469 433.675781 161.328125 433.128906 160.777344 L 420.054688 147.636719 C 418.957031 146.539062 418.964844 144.757812 420.058594 143.667969 C 421.164062 142.570312 422.941406 142.578125 424.039062 143.675781 L 437.113281 156.816406 C 438.210938 157.910156 438.203125 159.695312 437.105469 160.785156 C 436.558594 161.335938 435.839844 161.605469 435.125 161.605469 " fill-opacity="1" fill-rule="nonzero"/><path fill="#76c2af" d="M 421.355469 328.972656 C 420.636719 328.972656 419.914062 328.695312 419.367188 328.144531 C 418.269531 327.042969 418.277344 325.265625 419.375 324.175781 L 432.511719 311.09375 C 433.617188 310.003906 435.386719 310.003906 436.484375 311.101562 C 437.582031 312.203125 437.574219 313.980469 436.476562 315.070312 L 423.335938 328.152344 C 422.789062 328.703125 422.070312 328.972656 421.355469 328.972656 " fill-opacity="1" fill-rule="nonzero"/><g clip-path="url(#302febdf8b)"><path fill="#76c2af" d="M 419.132812 238.453125 C 419.132812 238.453125 419.132812 238.453125 419.125 238.453125 L 400.582031 238.40625 C 399.039062 238.40625 397.78125 237.140625 397.785156 235.59375 C 397.785156 234.050781 399.042969 232.792969 400.59375 232.792969 L 419.140625 232.835938 C 420.6875 232.84375 421.945312 234.101562 421.941406 235.652344 C 421.941406 237.199219 420.683594 238.453125 419.132812 238.453125 " fill-opacity="1" fill-rule="nonzero"/></g></svg>