<svg xmlns="http://www.w3.org/2000/svg" xmlns:xlink="http://www.w3.org/1999/xlink" width="1366" zoomAndPan="magnify" viewBox="0 0 1024.5 471.749988" height="629" preserveAspectRatio="xMidYMid meet" version="1.0"><defs><filter x="0%" y="0%" width="100%" height="100%" id="ee56b28f85"><feColorMatrix values="0 0 0 0 1 0 0 0 0 1 0 0 0 0 1 0 0 0 1 0" color-interpolation-filters="sRGB"/></filter><clipPath id="5ecfa57a59"><path d="M 366.476562 135.160156 L 495.304688 135.160156 L 495.304688 334 L 366.476562 334 Z M 366.476562 135.160156 " clip-rule="nonzero"/></clipPath><mask id="1eba28bbaf"><g filter="url(#ee56b28f85)"><rect x="-102.45" width="1229.4" fill="#000000" y="-47.174999" height="566.099986" fill-opacity="0.35"/></g></mask><clipPath id="6461cb1f7e"><path d="M 0.351562 0.832031 L 67.644531 0.832031 L 67.644531 77.847656 L 0.351562 77.847656 Z M 0.351562 0.832031 " clip-rule="nonzero"/></clipPath><clipPath id="55687f7a29"><path d="M 0.351562 39.398438 L 67.644531 0.945312 L 67.644531 77.847656 Z M 0.351562 39.398438 " clip-rule="nonzero"/></clipPath><clipPath id="b86142736a"><rect x="0" width="68" y="0" height="79"/></clipPath><clipPath id="71ce858ade"><path d="M 559 245 L 657 245 L 657 265.621094 L 559 265.621094 Z M 559 245 " clip-rule="nonzero"/></clipPath><clipPath id="67abef8dec"><path d="M 560 155.941406 L 656 155.941406 L 656 227 L 560 227 Z M 560 155.941406 " clip-rule="nonzero"/></clipPath></defs><g clip-path="url(#5ecfa57a59)"><path fill="#4e7896" d="M 425.296875 135.875 C 419.101562 137.222656 415.160156 138.835938 410.300781 142.003906 C 392.28125 153.75 385.648438 178.347656 394.757812 199.664062 C 395.574219 201.574219 396.242188 203.226562 396.242188 203.339844 C 396.242188 203.449219 395.863281 203.691406 395.398438 203.878906 C 394.636719 204.1875 394.667969 204.21875 395.765625 204.238281 C 396.824219 204.261719 397.191406 204.585938 398.839844 206.925781 C 399.867188 208.390625 401.511719 210.957031 402.492188 212.625 L 404.273438 215.65625 L 404.253906 221.820312 C 404.234375 228.492188 403.972656 230.035156 401.335938 239.195312 C 398.757812 248.144531 394.078125 259.835938 391.398438 264.007812 C 390.757812 265.007812 387.035156 269.164062 383.132812 273.242188 C 379.105469 277.445312 375.160156 281.949219 374.019531 283.648438 C 370.75 288.515625 368.855469 293.308594 367.636719 299.792969 C 366.8125 304.183594 366.484375 320.09375 367.078125 326.851562 C 367.707031 333.984375 367.46875 333.507812 370.375 333.507812 L 372.820312 333.507812 L 372.578125 329.679688 C 372.445312 327.574219 372.171875 323.667969 371.964844 320.996094 C 371.234375 311.460938 372.964844 298.828125 376.015625 291.425781 C 377.011719 289.011719 379.5625 284.574219 379.957031 284.574219 C 380.042969 284.574219 381.128906 286.464844 382.363281 288.777344 C 383.597656 291.089844 384.882812 293.316406 385.214844 293.726562 C 385.804688 294.457031 385.816406 294.453125 385.578125 293.539062 C 385.445312 293.027344 384.34375 290.71875 383.128906 288.40625 C 381.917969 286.097656 380.925781 283.925781 380.925781 283.585938 C 380.925781 282.765625 383.273438 278.53125 385.070312 276.113281 C 386.304688 274.449219 386.820312 274.082031 388.847656 273.417969 C 396.855469 270.800781 405.558594 271.617188 415.46875 275.917969 C 422.316406 278.886719 425.476562 280.9375 429.671875 285.140625 C 433.371094 288.84375 440.15625 297.191406 439.777344 297.570312 C 439.484375 297.859375 433.273438 293.625 425.191406 287.632812 C 414.632812 279.800781 410.28125 277.410156 404.378906 276.199219 C 401.035156 275.515625 398.152344 275.457031 394.746094 276.007812 C 391.851562 276.476562 385.707031 278.460938 384.765625 279.230469 C 384.046875 279.816406 384.089844 279.816406 386.621094 279.113281 C 387.449219 278.882812 387.453125 278.886719 386.714844 279.472656 C 386.304688 279.800781 386.15625 280.074219 386.382812 280.082031 C 386.613281 280.085938 387.230469 279.757812 387.75 279.347656 C 388.523438 278.738281 389.265625 278.597656 391.707031 278.597656 C 397.65625 278.597656 401.015625 279.925781 408.378906 285.183594 C 413.402344 288.765625 414.847656 289.570312 419.402344 291.3125 C 425.402344 293.609375 427.015625 294.902344 441.066406 308.664062 C 445.6875 313.191406 450.898438 317.949219 452.644531 319.230469 C 458.570312 323.589844 458.710938 323.746094 461.257812 328.921875 C 462.570312 331.585938 463.671875 333.421875 463.753906 333.074219 C 463.832031 332.734375 463.230469 331.136719 462.421875 329.527344 C 461.613281 327.917969 460.683594 325.960938 460.359375 325.179688 L 459.765625 323.761719 L 461.703125 324.808594 L 463.636719 325.851562 L 464.644531 329.351562 C 465.203125 331.273438 465.839844 333.03125 466.0625 333.253906 C 466.671875 333.863281 466.574219 332.941406 465.730469 330.167969 C 465.324219 328.84375 465.054688 327.699219 465.128906 327.625 C 465.203125 327.550781 466.15625 328.847656 467.246094 330.5 C 468.339844 332.15625 469.371094 333.507812 469.542969 333.507812 C 469.914062 333.507812 469.457031 332.613281 467.484375 329.476562 C 466.671875 328.183594 466.097656 327.03125 466.207031 326.917969 C 466.320312 326.808594 466.925781 326.828125 467.550781 326.964844 C 468.453125 327.164062 469.042969 327.78125 470.402344 329.960938 C 472.054688 332.613281 473.191406 333.960938 473.191406 333.265625 C 473.191406 332.851562 469.71875 326.585938 465.257812 318.941406 C 457.898438 306.332031 455.28125 302.59375 452.269531 300.367188 C 447.71875 297.003906 447.054688 296.167969 445.523438 291.863281 C 444.601562 289.28125 444.628906 290.664062 445.558594 293.671875 C 446.222656 295.828125 446.589844 296.355469 448.601562 298.097656 C 452.695312 301.640625 455.441406 304.316406 455.214844 304.546875 C 455.089844 304.667969 453.78125 304.320312 452.304688 303.773438 L 449.617188 302.777344 L 446.890625 298.625 C 445.394531 296.34375 443.441406 293.214844 442.554688 291.671875 C 439.796875 286.882812 437.292969 283.367188 434.753906 280.722656 L 432.308594 278.179688 L 434.050781 278.925781 C 435.007812 279.335938 437.1875 279.964844 438.894531 280.316406 C 440.601562 280.671875 442.132812 281.078125 442.296875 281.21875 C 442.460938 281.359375 442.636719 282.117188 442.6875 282.90625 C 442.738281 283.691406 442.980469 284.40625 443.230469 284.488281 C 443.785156 284.671875 443.796875 284.03125 443.277344 281.605469 L 442.871094 279.71875 L 440.566406 279.714844 C 436.761719 279.707031 436.78125 279.722656 436.703125 276.539062 C 436.667969 275.019531 436.46875 273.472656 436.261719 273.105469 C 435.902344 272.46875 435.875 272.46875 435.613281 273.144531 C 435.464844 273.535156 435.5 275.003906 435.695312 276.414062 C 435.886719 277.820312 436.003906 278.972656 435.953125 278.972656 C 435.738281 278.972656 425.316406 274.105469 422.640625 272.753906 L 419.71875 271.277344 L 421.394531 269.054688 C 422.316406 267.832031 423.550781 266.375 424.136719 265.820312 L 425.203125 264.804688 L 427.207031 265.820312 C 428.308594 266.375 430.011719 267.546875 430.992188 268.417969 C 432.851562 270.082031 433.84375 270.570312 432.628906 269.226562 C 431.972656 268.5 432.074219 268.511719 434.105469 269.410156 C 435.960938 270.230469 440.769531 271.875 441.3125 271.875 C 441.40625 271.875 441.386719 271.71875 441.269531 271.527344 C 441.148438 271.335938 440.15625 270.917969 439.066406 270.601562 L 437.078125 270.023438 L 437.363281 267.921875 C 437.699219 265.449219 437.515625 264.777344 436.511719 264.777344 C 435.839844 264.777344 435.785156 264.992188 435.898438 267.164062 L 436.023438 269.550781 L 432.660156 267.863281 C 430.8125 266.9375 427.03125 264.828125 424.257812 263.175781 C 418.25 259.597656 413.304688 257.195312 410.246094 256.363281 C 409.015625 256.03125 406.195312 255.660156 403.980469 255.546875 C 401.765625 255.429688 399.871094 255.199219 399.773438 255.039062 C 399.675781 254.878906 399.800781 254.292969 400.054688 253.738281 L 400.515625 252.722656 L 405.460938 252.914062 C 411.582031 253.148438 413.121094 252.890625 414.683594 251.375 C 416.160156 249.945312 416.804688 249.925781 422.203125 251.144531 C 426.867188 252.199219 441.839844 256.507812 442.308594 256.933594 C 442.476562 257.089844 442.851562 260.722656 443.140625 265.011719 C 444.519531 285.617188 445.847656 289.910156 453.804688 299.515625 C 455.253906 301.261719 457.636719 304.625 459.105469 306.988281 C 460.570312 309.351562 462.925781 313.132812 464.335938 315.394531 C 465.742188 317.652344 468.6875 322.652344 470.878906 326.503906 C 475.253906 334.203125 477.3125 336.285156 473.535156 329.195312 C 471.324219 325.039062 470.929688 323.597656 472.425781 325.125 C 472.816406 325.523438 474.003906 327.363281 475.058594 329.214844 C 476.976562 332.574219 478.421875 334.453125 478.421875 333.597656 C 478.421875 333.347656 477.375 331.046875 476.101562 328.488281 C 474.824219 325.925781 473.902344 323.707031 474.054688 323.554688 C 474.542969 323.070312 475.4375 324.34375 477.792969 328.878906 C 479.839844 332.820312 480.222656 333.335938 481.160156 333.445312 C 483.246094 333.683594 483.367188 333.398438 482.347656 330.683594 C 480.792969 326.554688 476.679688 318.941406 474.191406 315.578125 C 472.898438 313.832031 469.019531 309.125 465.574219 305.121094 C 456.972656 295.121094 453.046875 289.851562 451.589844 286.355469 C 450.40625 283.507812 449.148438 278.726562 448.792969 275.703125 C 448.625 274.273438 448.695312 274.089844 449.476562 273.894531 C 451.128906 273.480469 451.652344 272.472656 451.390625 270.234375 C 450.679688 264.175781 450.417969 260.835938 450.613281 260.222656 C 450.734375 259.84375 451.390625 259.300781 452.078125 259.015625 C 452.761719 258.730469 453.441406 258.117188 453.585938 257.652344 C 453.734375 257.191406 453.636719 254.734375 453.371094 252.195312 C 452.9375 248.074219 452.949219 247.445312 453.488281 246.316406 C 454.625 243.933594 456.851562 243.773438 466.28125 245.410156 C 471.410156 246.300781 477.957031 246.488281 479.945312 245.800781 C 481.570312 245.238281 483.042969 243.765625 483.804688 241.9375 C 484.316406 240.714844 484.316406 240.367188 483.804688 238.574219 C 483.488281 237.476562 483.140625 235.707031 483.023438 234.644531 L 482.816406 232.714844 L 484.691406 231.367188 C 485.722656 230.625 486.664062 229.757812 486.789062 229.4375 C 487.140625 228.515625 487.046875 226.695312 486.605469 225.867188 C 486.269531 225.242188 486.359375 224.929688 487.117188 224.117188 C 488.804688 222.308594 488.996094 221.609375 488.503906 219.011719 C 487.824219 215.402344 487.984375 215.171875 492.324219 213.589844 C 494.632812 212.746094 495.976562 211.421875 495.976562 209.984375 C 495.976562 208.765625 495.273438 207.46875 491.757812 202.210938 C 487.78125 196.257812 486.582031 193.648438 486.351562 190.460938 C 486.1875 188.179688 486.296875 187.65625 487.480469 184.988281 C 488.457031 182.796875 488.847656 181.300781 489.015625 179.160156 C 489.140625 177.578125 489.097656 176.195312 488.925781 176.089844 C 488.75 175.980469 488.511719 175.175781 488.390625 174.296875 C 487.996094 171.453125 486.257812 166.078125 484.714844 162.914062 C 478.605469 150.410156 465.613281 140.574219 449.675781 136.378906 C 446.457031 135.535156 445.246094 135.429688 437.332031 135.304688 C 429.753906 135.183594 428.105469 135.261719 425.296875 135.875 Z M 440.734375 138.167969 C 458.03125 139.945312 472.832031 148.5625 480.632812 161.402344 C 483.429688 166.003906 485.546875 172.667969 485.496094 176.699219 C 485.476562 178.214844 485.4375 178.15625 484.757812 175.5625 C 483.894531 172.257812 481.371094 166.832031 478.996094 163.160156 C 477.996094 161.617188 474.832031 157.996094 471.582031 154.679688 L 465.90625 148.898438 L 460.859375 146.367188 C 451.816406 141.828125 445.949219 140.203125 437.144531 139.789062 C 431.496094 139.523438 426.574219 140.066406 421.179688 141.554688 C 418.078125 142.410156 411.214844 145.316406 411.820312 145.519531 C 412.042969 145.59375 413.824219 144.96875 415.78125 144.132812 C 421.894531 141.523438 424.207031 141.074219 432.675781 140.859375 C 441.015625 140.648438 444.859375 141.007812 449.949219 142.480469 C 453.527344 143.515625 458.835938 145.742188 461.902344 147.503906 L 463.875 148.632812 L 462.8125 149.527344 L 461.746094 150.425781 L 457.796875 148.398438 C 453.148438 146.011719 445.386719 142.90625 444.5 143.078125 C 444.15625 143.144531 445.808594 143.917969 448.167969 144.800781 C 450.527344 145.683594 453.214844 146.804688 454.140625 147.289062 L 455.820312 148.167969 L 454.699219 148.597656 C 453.195312 149.175781 451.546875 150.761719 450.910156 152.253906 C 450.453125 153.324219 450.265625 153.441406 449.371094 153.21875 L 448.351562 152.96875 L 449.585938 154.011719 C 451.648438 155.757812 454.332031 161.695312 455.464844 167.027344 C 456.289062 170.898438 456.003906 187.617188 454.960938 196.597656 L 454.699219 198.828125 L 451.078125 201.539062 C 446.886719 204.675781 445.804688 206.222656 445.152344 210.007812 C 444.597656 213.210938 444.886719 219.460938 445.710938 222.09375 C 446.40625 224.320312 449.265625 227.664062 452.398438 229.910156 C 453.460938 230.671875 455.027344 231.851562 455.882812 232.53125 C 457.355469 233.703125 457.414062 233.832031 457.019531 234.878906 C 456.449219 236.394531 457.015625 237.855469 458.523438 238.734375 C 459.554688 239.335938 459.921875 239.375 461.050781 239.003906 C 462.300781 238.589844 462.503906 238.652344 465.042969 240.28125 C 466.515625 241.222656 467.890625 241.992188 468.097656 241.992188 C 468.53125 241.992188 466.902344 240.742188 464.417969 239.171875 C 462.851562 238.183594 462.730469 237.992188 462.730469 236.527344 C 462.730469 235.265625 462.53125 234.792969 461.746094 234.175781 C 461.207031 233.75 460.445312 233.398438 460.054688 233.398438 C 458.664062 233.398438 456.691406 232.269531 453.292969 229.527344 C 446.953125 224.410156 446.476562 223.621094 445.875 217.226562 C 445.058594 208.527344 446.183594 205.75 452.25 201.5 C 453.871094 200.363281 455.324219 199.234375 455.472656 198.992188 C 455.820312 198.429688 456.699219 185.9375 457.003906 177.273438 L 457.234375 170.644531 L 458.207031 170.589844 L 459.183594 170.53125 L 458.171875 170.378906 C 457.089844 170.214844 457.03125 170.097656 456.371094 166.769531 C 455.746094 163.628906 454.75 160.90625 452.777344 156.960938 L 451.054688 153.507812 L 451.789062 152.085938 C 452.324219 151.050781 453.097656 150.367188 454.613281 149.585938 L 456.703125 148.515625 L 458.394531 149.332031 C 459.324219 149.78125 460.589844 150.769531 461.210938 151.527344 C 463.253906 154.027344 463.949219 154.582031 465.023438 154.582031 C 466.574219 154.582031 467.046875 155.589844 468.792969 162.59375 C 470.523438 169.542969 470.53125 169.484375 467.773438 169.546875 C 466.953125 169.566406 465.523438 169.714844 464.597656 169.878906 C 463.183594 170.128906 463.496094 170.183594 466.558594 170.222656 C 468.5625 170.25 470.320312 170.257812 470.46875 170.242188 C 470.90625 170.199219 471.246094 171.5625 470.859375 171.8125 C 470.640625 171.953125 470.726562 172.398438 471.078125 172.933594 C 471.917969 174.214844 472.273438 176.859375 471.699219 177.554688 C 471.289062 178.046875 471.636719 178.117188 474.546875 178.121094 C 476.367188 178.121094 478.53125 178.199219 479.355469 178.292969 L 480.847656 178.457031 L 479.457031 178.035156 C 478.113281 177.628906 478.023438 177.492188 476.890625 174.085938 C 475.5 169.917969 475.507812 169.910156 479.410156 169.902344 L 482.085938 169.898438 L 483.195312 172.980469 C 483.808594 174.675781 484.582031 177.390625 484.917969 179.011719 C 485.503906 181.871094 485.5 182.058594 484.730469 184.792969 C 484.132812 186.925781 483.976562 188.316406 484.101562 190.441406 C 484.296875 193.859375 485.089844 195.710938 488.976562 201.875 C 493.296875 208.730469 493.636719 209.652344 492.371094 211.050781 C 491.5625 211.945312 490.746094 211.921875 490.746094 211.011719 C 490.746094 210.429688 490.398438 210.238281 488.972656 210.046875 C 486.3125 209.6875 486.277344 209.640625 488.496094 209.34375 C 490.96875 209.015625 491.492188 208.628906 491.492188 207.144531 C 491.492188 206.519531 491.367188 206.132812 491.214844 206.289062 C 491.058594 206.445312 490.933594 206.9375 490.933594 207.378906 C 490.933594 208.085938 490.605469 208.246094 488.320312 208.65625 C 485.34375 209.191406 482.234375 210.066406 481.410156 210.605469 C 480.917969 210.921875 480.945312 211.148438 481.605469 212.378906 C 482.347656 213.761719 482.402344 213.785156 484.316406 213.683594 C 485.386719 213.625 486.265625 213.644531 486.265625 213.71875 C 486.265625 213.796875 486.019531 214.351562 485.722656 214.949219 C 485.242188 215.910156 485.246094 216.347656 485.757812 218.578125 C 486.226562 220.640625 486.25 221.328125 485.878906 222.222656 C 485.351562 223.496094 485.109375 223.566406 480.101562 223.878906 C 478.046875 224.007812 476.207031 224.269531 476.011719 224.460938 C 475.789062 224.679688 475.941406 224.808594 476.417969 224.808594 C 476.839844 224.808594 478.453125 225.839844 480.007812 227.097656 L 482.835938 229.382812 L 481.375 230.773438 C 479.679688 232.386719 479.546875 233.394531 480.515625 237.175781 C 481.226562 239.960938 481.015625 242.175781 479.929688 243.261719 C 479.207031 243.980469 478.738281 244.042969 474.207031 244.03125 C 466.554688 244.007812 457.722656 241.839844 451.898438 238.558594 C 441.785156 232.859375 436.082031 221.390625 439.210938 213.042969 C 440.367188 209.960938 442.753906 206.355469 445.742188 203.191406 C 447.125 201.726562 448.085938 200.527344 447.882812 200.527344 C 446.738281 200.527344 438.824219 210.273438 438.824219 211.683594 C 438.824219 212.070312 438.519531 212.136719 437.609375 211.945312 C 435.421875 211.480469 432.207031 211.3125 433.035156 211.703125 C 433.445312 211.898438 434.117188 212.070312 434.527344 212.082031 C 434.941406 212.097656 435.878906 212.28125 436.621094 212.484375 L 437.964844 212.859375 L 437.785156 216.546875 C 437.570312 220.996094 438.019531 223.1875 439.960938 227.238281 C 442.71875 232.984375 446.269531 236.335938 453.492188 240.015625 C 455.730469 241.15625 456.972656 241.96875 456.492188 241.976562 C 453.992188 242.019531 451.667969 242.882812 450.253906 244.296875 L 448.796875 245.75 L 449.046875 250.386719 C 449.183594 252.933594 449.390625 255.503906 449.507812 256.09375 L 449.722656 257.171875 L 447.011719 256.882812 C 445.519531 256.722656 444.066406 256.359375 443.78125 256.074219 C 443.496094 255.789062 443.105469 254.308594 442.914062 252.789062 C 441.558594 242.050781 441.347656 241.527344 436.605469 237.15625 C 434.027344 234.78125 432.734375 233.289062 432.296875 232.191406 C 431.949219 231.328125 431.003906 226.667969 430.191406 221.832031 C 429.378906 216.996094 428.554688 212.453125 428.355469 211.734375 C 428.15625 211.015625 427.996094 210.324219 427.992188 210.199219 C 427.992188 210.074219 429.507812 209.882812 431.363281 209.777344 C 434.152344 209.617188 435.148438 209.382812 437.121094 208.410156 C 439.613281 207.183594 441.644531 205.246094 442.023438 203.734375 C 442.148438 203.246094 441.960938 201.863281 441.613281 200.660156 C 441.265625 199.457031 440.96875 197.929688 440.957031 197.261719 C 440.9375 196.109375 440.898438 196.078125 440.253906 196.664062 C 439.597656 197.257812 439.59375 197.238281 440.09375 196.199219 C 441.246094 193.804688 441.207031 193.550781 439.675781 193.296875 C 438.898438 193.171875 437.550781 193.0625 436.675781 193.0625 C 433.742188 193.054688 435.054688 192.425781 438.511719 192.179688 C 442.136719 191.921875 442.40625 191.847656 442.015625 191.214844 C 441.867188 190.976562 440.265625 190.816406 437.992188 190.816406 C 434.027344 190.816406 433.089844 190.542969 436.59375 190.410156 C 437.71875 190.363281 438.847656 190.167969 439.105469 189.96875 C 439.417969 189.722656 439.570312 189.742188 439.570312 190.023438 C 439.570312 190.253906 439.90625 190.441406 440.320312 190.441406 C 441.164062 190.441406 441.226562 190.164062 440.691406 188.765625 C 440.445312 188.113281 440.445312 187.863281 440.691406 188.015625 C 440.898438 188.140625 441.066406 187.992188 441.066406 187.683594 C 441.066406 187.375 440.898438 187.019531 440.691406 186.894531 C 440.488281 186.765625 440.316406 186.882812 440.316406 187.152344 C 440.316406 187.421875 440.007812 187.136719 439.628906 186.515625 C 438.859375 185.25 436.816406 183.589844 435 182.75 L 433.78125 182.1875 L 436.007812 182.65625 L 434.960938 181.6875 C 433.957031 180.757812 433.027344 180.707031 433.324219 181.601562 C 433.402344 181.839844 433.246094 182.253906 432.972656 182.527344 C 432.386719 183.113281 432.320312 185.617188 432.839844 187.433594 C 433.261719 188.902344 433.21875 189.035156 432.464844 188.570312 C 432.0625 188.324219 431.863281 187.234375 431.726562 184.574219 C 431.578125 181.65625 431.425781 180.917969 430.980469 180.917969 C 430.539062 180.917969 430.367188 181.664062 430.175781 184.414062 C 429.835938 189.246094 429.113281 189.824219 429.113281 185.261719 C 429.113281 181.847656 429.101562 181.804688 428.273438 182.054688 C 426.695312 182.53125 425.050781 183.75 423.097656 185.882812 C 422.023438 187.054688 421.328125 187.679688 421.550781 187.265625 C 422.027344 186.394531 425.148438 183.355469 426.488281 182.464844 C 427.144531 182.027344 427.238281 181.851562 426.800781 181.851562 C 425.5625 181.851562 421.636719 185.683594 420.90625 187.613281 C 420.476562 188.738281 420.398438 189.570312 420.753906 189.214844 C 420.96875 188.996094 422.015625 189.808594 422.015625 190.191406 C 422.015625 190.289062 421.511719 190.546875 420.894531 190.761719 C 420.277344 190.976562 419.773438 191.316406 419.773438 191.519531 C 419.773438 191.992188 420.535156 192.199219 423.414062 192.507812 C 425.027344 192.679688 425.75 192.917969 425.75 193.269531 C 425.75 193.667969 425.535156 193.703125 424.792969 193.421875 C 423.1875 192.8125 420.753906 192.96875 420.289062 193.714844 C 419.773438 194.539062 420.226562 195.863281 421.203125 196.382812 C 422.003906 196.8125 422.703125 198.113281 421.917969 197.71875 C 421.664062 197.589844 421.824219 197.8125 422.277344 198.210938 C 422.734375 198.613281 423.027344 199.015625 422.933594 199.109375 C 422.839844 199.203125 423.21875 199.6875 423.773438 200.183594 L 424.777344 201.089844 L 424.078125 199.972656 L 423.375 198.855469 L 424.511719 199.785156 C 425.136719 200.296875 425.96875 200.929688 426.355469 201.195312 C 426.742188 201.460938 426.847656 201.578125 426.589844 201.453125 C 426.335938 201.332031 426.125 201.410156 426.125 201.625 C 426.125 201.84375 426.195312 202.023438 426.28125 202.023438 C 426.367188 202.023438 426.730469 202.136719 427.089844 202.273438 C 427.507812 202.433594 427.652344 202.378906 427.492188 202.121094 C 427.332031 201.863281 427.515625 201.789062 427.992188 201.914062 C 428.648438 202.085938 428.746094 201.910156 428.8125 200.476562 C 429.023438 195.816406 428.988281 195.496094 428.109375 194.429688 C 426.90625 192.960938 426.988281 191.390625 428.335938 190.039062 C 430.691406 187.6875 433.589844 189.117188 433.601562 192.640625 C 433.605469 193.890625 433.707031 194.210938 433.96875 193.804688 C 434.167969 193.496094 434.328125 193.414062 434.328125 193.617188 C 434.328125 193.824219 433.828125 194.730469 433.214844 195.632812 C 431.882812 197.597656 431.808594 198.492188 432.941406 198.808594 C 433.765625 199.042969 433.765625 199.058594 433.054688 199.601562 C 432.011719 200.398438 431.628906 199.785156 431.78125 197.5625 C 431.902344 195.820312 431.84375 195.652344 431.167969 195.75 C 430.503906 195.847656 430.398438 196.222656 430.222656 199.148438 C 430.082031 201.46875 429.863281 202.539062 429.476562 202.785156 C 429.085938 203.03125 429.386719 203.132812 430.511719 203.136719 C 432.078125 203.144531 432.101562 203.125 432.101562 201.835938 C 432.101562 200.652344 432.199219 200.53125 433.128906 200.558594 C 433.691406 200.574219 433.945312 200.671875 433.6875 200.777344 C 433.03125 201.039062 433.105469 201.648438 433.796875 201.648438 C 434.113281 201.648438 435.050781 201.304688 435.878906 200.878906 C 436.707031 200.457031 437.582031 200.191406 437.824219 200.289062 C 438.09375 200.398438 438.046875 200.484375 437.703125 200.507812 C 437.046875 200.550781 435.089844 202 435.671875 202.015625 C 435.890625 202.019531 436.394531 201.777344 436.792969 201.472656 C 437.859375 200.667969 438.078125 200.773438 438.078125 202.089844 C 438.078125 204.789062 435.5 208.085938 433.003906 208.585938 C 432.039062 208.777344 431.859375 208.664062 431.46875 207.625 C 431.101562 206.652344 430.851562 206.472656 430.011719 206.570312 C 428.949219 206.699219 427.996094 207.757812 428.496094 208.253906 C 428.65625 208.417969 429.09375 208.144531 429.464844 207.652344 L 430.140625 206.757812 L 430.578125 207.570312 C 431.167969 208.675781 430.804688 209.121094 429.308594 209.121094 C 427.476562 209.121094 426.871094 208.78125 426.871094 207.75 C 426.871094 207.234375 426.707031 206.933594 426.496094 207.066406 C 426.292969 207.191406 426.125 207.621094 426.125 208.019531 C 426.125 209.011719 425.5 208.933594 422.855469 207.613281 C 418.195312 205.285156 413.578125 198.816406 411.789062 192.109375 C 410.078125 185.6875 409.527344 174.988281 410.621094 169.285156 C 411.527344 164.539062 412.261719 162.773438 414.042969 161.039062 C 415.351562 159.773438 415.664062 159.210938 415.664062 158.152344 C 415.664062 155.617188 412.535156 154.941406 411.355469 157.222656 C 410.609375 158.667969 410.667969 159.425781 411.609375 160.429688 L 412.410156 161.285156 L 411.601562 163.230469 C 410.285156 166.402344 409.660156 169.363281 409.355469 173.867188 C 408.832031 181.683594 409.757812 189.40625 411.925781 195.355469 C 412.941406 198.136719 412.957031 198.265625 412.273438 198.484375 C 411.882812 198.605469 411.417969 198.621094 411.242188 198.511719 C 411.0625 198.402344 410.269531 198.640625 409.476562 199.046875 C 408.683594 199.449219 407.828125 199.78125 407.578125 199.78125 C 407.324219 199.78125 407 199.972656 406.851562 200.207031 C 406.558594 200.683594 407.027344 200.613281 410.542969 199.65625 C 413.058594 198.972656 413.429688 199.054688 414.292969 200.519531 C 416.335938 203.980469 421.351562 208.09375 425.003906 209.308594 C 426.5 209.804688 426.898438 210.128906 427.210938 211.105469 C 427.683594 212.574219 429.859375 225.492188 429.859375 226.828125 L 429.859375 227.796875 L 425.5625 227.796875 C 423.199219 227.796875 421.265625 227.671875 421.265625 227.515625 C 421.261719 227.363281 421.101562 225.847656 420.90625 224.152344 C 420.425781 219.976562 419.457031 217.851562 417.691406 217.113281 L 416.324219 216.542969 L 417.109375 215.710938 C 418.253906 214.492188 418.753906 212.800781 418.316406 211.648438 C 418.050781 210.949219 417.054688 210.246094 414.664062 209.0625 C 410.59375 207.050781 408.933594 205.394531 406.449219 200.871094 C 402.867188 194.347656 401.246094 188.289062 400.839844 179.890625 L 400.609375 175.128906 L 401.691406 175.082031 C 402.324219 175.058594 402.503906 174.96875 402.125 174.871094 C 401.640625 174.742188 401.460938 174.289062 401.429688 173.140625 L 401.390625 171.578125 L 400.933594 173.074219 C 400.523438 174.398438 400.332031 174.578125 399.199219 174.664062 C 397.03125 174.828125 396.816406 174.464844 397.363281 171.527344 C 397.957031 168.34375 399.210938 164.429688 400.722656 161.050781 C 401.617188 159.050781 402.121094 158.378906 402.964844 158.058594 C 404.210938 157.589844 404.8125 156.019531 404.082031 155.136719 C 402.957031 153.785156 401.167969 155.046875 401.160156 157.195312 C 401.160156 157.917969 400.566406 159.789062 399.847656 161.359375 C 396.292969 169.109375 395.019531 178.667969 396.40625 187.214844 C 397.164062 191.882812 397.917969 194.054688 400.707031 199.59375 C 402.847656 203.847656 403.277344 204.464844 404.152344 204.566406 C 405.589844 204.730469 406.242188 203.453125 405.386719 202.144531 C 404.894531 201.394531 404.535156 201.234375 403.640625 201.367188 C 402.644531 201.511719 402.398438 201.339844 401.4375 199.816406 C 398.582031 195.289062 397.144531 189.371094 396.742188 180.488281 L 396.496094 175.128906 L 399.921875 175.128906 L 400.121094 177.089844 C 400.230469 178.167969 400.410156 180.992188 400.519531 183.371094 C 400.632812 185.816406 401.046875 188.972656 401.472656 190.640625 C 402.417969 194.335938 405.65625 201.117188 408.238281 204.820312 L 410.207031 207.640625 L 409.386719 208.214844 C 408.9375 208.53125 408.566406 209.136719 408.566406 209.558594 C 408.566406 210.292969 408.507812 210.28125 407.261719 209.332031 C 406.539062 208.785156 405.953125 208.429688 405.953125 208.546875 C 405.953125 208.660156 406.714844 209.691406 407.644531 210.832031 C 409.574219 213.203125 409.4375 212.273438 409.46875 223.207031 C 409.484375 227.597656 409.636719 230.984375 409.816406 230.808594 C 409.992188 230.632812 410.246094 226.839844 410.378906 222.386719 L 410.621094 214.28125 L 412.304688 215.621094 C 413.226562 216.355469 414.910156 217.226562 416.039062 217.554688 C 418.625 218.308594 419.222656 218.84375 419.738281 220.90625 C 420.335938 223.273438 420.378906 231.894531 419.800781 232.976562 C 419.210938 234.078125 417.53125 234.773438 414.660156 235.097656 C 412.484375 235.34375 412.367188 235.316406 412.109375 234.472656 C 411.355469 232 409.257812 231.542969 407.605469 233.492188 C 406.640625 234.636719 406.59375 234.652344 406.8125 233.769531 C 408.394531 227.363281 408.882812 216.863281 407.71875 214.230469 C 407.375 213.449219 405.425781 210.253906 403.390625 207.132812 C 401.359375 204.015625 399.273438 200.621094 398.761719 199.59375 C 392.179688 186.421875 393.253906 167.332031 401.265625 154.941406 C 409.121094 142.800781 424.050781 136.457031 440.734375 138.167969 Z M 437.984375 142.128906 C 438.242188 142.234375 438.660156 142.234375 438.917969 142.128906 C 439.175781 142.027344 438.964844 141.941406 438.449219 141.941406 C 437.9375 141.941406 437.726562 142.027344 437.984375 142.128906 Z M 439.875 142.511719 C 440.144531 142.617188 440.46875 142.605469 440.589844 142.480469 C 440.714844 142.355469 440.496094 142.269531 440.101562 142.285156 C 439.664062 142.304688 439.578125 142.390625 439.875 142.511719 Z M 442.117188 142.882812 C 442.386719 142.992188 442.707031 142.980469 442.832031 142.855469 C 442.957031 142.730469 442.734375 142.640625 442.34375 142.660156 C 441.90625 142.675781 441.820312 142.765625 442.117188 142.882812 Z M 421.199219 148.859375 C 421.46875 148.96875 421.789062 148.957031 421.914062 148.832031 C 422.039062 148.707031 421.816406 148.621094 421.421875 148.636719 C 420.988281 148.652344 420.898438 148.742188 421.199219 148.859375 Z M 418.410156 149.351562 C 417.59375 149.679688 416.871094 150.484375 417.417969 150.457031 C 417.582031 150.449219 418.308594 150.121094 419.027344 149.726562 C 420.339844 149.007812 419.910156 148.746094 418.410156 149.351562 Z M 467.851562 152.085938 C 471.65625 155.257812 475.671875 159.488281 477.667969 162.425781 C 479.765625 165.519531 481.53125 168.78125 481.253906 169.054688 C 481.117188 169.191406 479.722656 169.308594 478.15625 169.320312 L 475.300781 169.335938 L 474.421875 167.097656 C 473.046875 163.585938 472.800781 163.066406 472.617188 163.25 C 472.523438 163.34375 472.863281 164.65625 473.378906 166.164062 C 473.890625 167.671875 474.3125 168.972656 474.3125 169.050781 C 474.3125 169.128906 473.609375 169.140625 472.753906 169.078125 L 471.199219 168.964844 L 469.804688 163.546875 C 469.039062 160.570312 468.0625 157.25 467.632812 156.175781 C 467.140625 154.941406 466.9375 153.820312 467.074219 153.125 C 467.292969 152.03125 467.292969 152.027344 465.761719 152.234375 C 464.679688 152.378906 464.226562 152.304688 464.226562 151.976562 C 464.226562 151.710938 464.472656 151.609375 464.8125 151.738281 C 465.230469 151.898438 465.363281 151.777344 465.273438 151.3125 C 465.097656 150.394531 464.140625 150.5 463.644531 151.5 C 463.160156 152.464844 462.730469 152.226562 462.730469 150.988281 C 462.730469 150.238281 463.546875 149.398438 464.304688 149.363281 C 464.449219 149.359375 466.046875 150.582031 467.851562 152.085938 Z M 412.804688 152.300781 C 408.894531 155.046875 405.050781 159.613281 403.503906 163.34375 C 402.949219 164.679688 402.949219 164.773438 403.488281 164.324219 C 403.816406 164.050781 404.085938 163.667969 404.085938 163.472656 C 404.085938 163.277344 404.855469 161.925781 405.800781 160.46875 C 407.878906 157.253906 411.050781 154.015625 413.914062 152.183594 C 415.082031 151.4375 416.039062 150.746094 416.039062 150.648438 C 416.039062 150.191406 415.199219 150.621094 412.804688 152.300781 Z M 415.847656 152.882812 C 415.128906 154.003906 414.542969 155.132812 414.542969 155.394531 C 414.542969 155.933594 415.089844 155.1875 416.578125 152.621094 C 417.984375 150.1875 417.449219 150.378906 415.847656 152.882812 Z M 464.046875 153.390625 C 463.933594 153.503906 463.632812 153.390625 463.378906 153.132812 C 463.011719 152.765625 463.054688 152.722656 463.585938 152.925781 C 463.957031 153.066406 464.164062 153.273438 464.046875 153.390625 Z M 403.636719 156.339844 C 403.777344 157.28125 402.804688 157.71875 402.199219 156.988281 C 401.851562 156.570312 401.859375 156.324219 402.226562 155.878906 C 402.835938 155.144531 403.492188 155.359375 403.636719 156.339844 Z M 402.589844 156.449219 C 402.589844 156.65625 402.757812 156.824219 402.964844 156.824219 C 403.167969 156.824219 403.339844 156.65625 403.339844 156.449219 C 403.339844 156.246094 403.167969 156.078125 402.964844 156.078125 C 402.757812 156.078125 402.589844 156.246094 402.589844 156.449219 Z M 414.777344 157.40625 C 415.867188 159.046875 413.21875 161.195312 412.058594 159.609375 C 411.675781 159.085938 411.6875 158.773438 412.125 157.929688 C 412.957031 156.316406 413.925781 156.125 414.777344 157.40625 Z M 413.050781 158.503906 C 413.050781 159.085938 413.261719 159.4375 413.609375 159.4375 C 413.957031 159.4375 414.171875 159.085938 414.171875 158.503906 C 414.171875 157.921875 413.957031 157.570312 413.609375 157.570312 C 413.261719 157.570312 413.050781 157.921875 413.050781 158.503906 Z M 402.246094 167.5 C 402.265625 167.9375 402.351562 168.023438 402.472656 167.726562 C 402.582031 167.457031 402.566406 167.132812 402.441406 167.011719 C 402.320312 166.886719 402.230469 167.105469 402.246094 167.5 Z M 401.75 168.617188 C 401.597656 168.773438 401.476562 169.417969 401.480469 170.054688 C 401.492188 171.027344 401.550781 171.101562 401.878906 170.539062 C 402.308594 169.808594 402.195312 168.164062 401.75 168.617188 Z M 475.773438 172.792969 C 476.25 174.386719 476.726562 175.980469 476.828125 176.339844 C 476.988281 176.90625 476.734375 176.996094 474.945312 176.996094 L 472.878906 176.996094 L 472.457031 175.035156 C 472.222656 173.953125 471.933594 172.359375 471.8125 171.484375 L 471.59375 169.898438 L 474.910156 169.898438 Z M 403.152344 174.753906 C 403.007812 174.988281 403.792969 175.117188 405.277344 175.101562 C 406.941406 175.082031 407.414062 174.980469 406.886719 174.753906 C 405.839844 174.304688 403.429688 174.304688 403.152344 174.753906 Z M 473.285156 178.746094 C 473.644531 178.839844 474.230469 178.839844 474.589844 178.746094 C 474.949219 178.652344 474.65625 178.574219 473.9375 178.574219 C 473.21875 178.574219 472.925781 178.652344 473.285156 178.746094 Z M 482.394531 179.4375 C 482.953125 180 483.253906 180.625 483.121094 180.964844 C 483 181.28125 482.902344 181.671875 482.902344 181.832031 C 482.902344 181.996094 479.878906 182.105469 476.179688 182.082031 C 469.550781 182.039062 469.460938 182.027344 469.457031 181.226562 C 469.457031 180.777344 469.910156 180.078125 470.480469 179.652344 C 471.71875 178.730469 470.816406 178.550781 469.519531 179.457031 C 468.859375 179.921875 468.691406 180.347656 468.78125 181.355469 L 468.894531 182.65625 L 476.179688 182.722656 L 483.460938 182.785156 L 483.582031 181.347656 C 483.703125 179.863281 482.90625 178.488281 481.925781 178.488281 C 481.652344 178.488281 481.851562 178.898438 482.394531 179.4375 Z M 485.773438 180.261719 C 485.679688 180.625 485.605469 180.328125 485.605469 179.609375 C 485.605469 178.890625 485.679688 178.597656 485.773438 178.957031 C 485.867188 179.316406 485.867188 179.902344 485.773438 180.261719 Z M 477.601562 179.117188 C 477.871094 179.226562 478.195312 179.210938 478.320312 179.089844 C 478.441406 178.964844 478.222656 178.875 477.828125 178.890625 C 477.394531 178.910156 477.304688 179 477.601562 179.117188 Z M 428.152344 181.28125 C 427.753906 181.582031 427.597656 181.828125 427.804688 181.832031 C 428.359375 181.84375 429.308594 181.175781 429.074219 180.941406 C 428.960938 180.828125 428.546875 180.984375 428.152344 181.28125 Z M 436.242188 182.703125 C 436.328125 182.761719 436.734375 183.054688 437.144531 183.359375 C 437.835938 183.863281 437.851562 183.855469 437.378906 183.25 C 437.097656 182.890625 436.691406 182.597656 436.476562 182.597656 C 436.261719 182.597656 436.15625 182.644531 436.242188 182.703125 Z M 474.683594 188.066406 C 473.347656 188.585938 471.449219 189.261719 470.457031 189.5625 C 469.46875 189.867188 468.722656 190.300781 468.796875 190.527344 C 468.953125 190.992188 472.355469 192.828125 475.296875 194.035156 L 477.214844 194.824219 L 477.679688 197.582031 C 478.28125 201.160156 478.882812 202.574219 478.617188 199.78125 C 478.507812 198.652344 478.316406 197.109375 478.1875 196.351562 C 477.964844 195.011719 477.988281 194.976562 479.214844 194.859375 C 480.28125 194.757812 480.492188 194.578125 480.59375 193.6875 C 480.699219 192.792969 480.863281 192.65625 481.714844 192.753906 C 482.53125 192.847656 482.972656 193.355469 484.105469 195.484375 C 485.796875 198.671875 485.933594 197.933594 484.277344 194.558594 C 483.214844 192.394531 482.9375 192.101562 481.679688 191.808594 L 480.273438 191.484375 L 480.511719 189.691406 C 480.71875 188.132812 480.648438 187.847656 479.980469 187.492188 C 478.8125 186.863281 477.351562 187.023438 474.683594 188.066406 Z M 479.664062 188.074219 C 479.800781 188.210938 479.050781 188.628906 477.992188 189 C 475.664062 189.820312 475.4375 190.019531 476.273438 190.488281 C 476.722656 190.738281 476.925781 191.3125 476.925781 192.324219 L 476.925781 193.792969 L 474.964844 193.023438 C 473.886719 192.597656 472.726562 192.003906 472.390625 191.699219 C 472.050781 191.394531 471.328125 191.027344 470.78125 190.878906 C 469.949219 190.65625 470.511719 190.390625 474.199219 189.253906 C 479.011719 187.773438 479.296875 187.710938 479.664062 188.074219 Z M 426.902344 189.320312 C 427.296875 189.320312 427.617188 189.480469 427.617188 189.671875 C 427.617188 190.367188 425.917969 191.015625 425.574219 190.457031 C 425.472656 190.296875 424.714844 190.242188 423.890625 190.339844 C 422.914062 190.449219 422.386719 190.363281 422.386719 190.085938 C 422.386719 189.855469 422.597656 189.691406 422.855469 189.722656 C 424.515625 189.9375 425.753906 189.652344 425.78125 189.042969 C 425.796875 188.652344 425.886719 188.574219 425.996094 188.855469 C 426.101562 189.113281 426.507812 189.320312 426.902344 189.320312 Z M 478.71875 191.441406 C 478.652344 192.660156 478.417969 193.621094 478.160156 193.707031 C 477.519531 193.917969 477.117188 191.328125 477.617188 190.226562 C 478.34375 188.632812 478.839844 189.179688 478.71875 191.441406 Z M 430.234375 189.980469 C 428.285156 190.625 427.65625 193.265625 429.195312 194.34375 C 430.324219 195.136719 431.425781 195.074219 432.402344 194.164062 C 433.453125 193.183594 433.445312 191.894531 432.378906 190.9375 C 431.253906 189.921875 430.894531 189.761719 430.234375 189.980469 Z M 431.957031 191.390625 C 432.792969 192.664062 432.171875 194.179688 430.816406 194.179688 C 429.136719 194.179688 428.746094 192.0625 430.210938 190.921875 C 431.046875 190.269531 431.261719 190.328125 431.957031 191.390625 Z M 430.121094 191.425781 C 429.597656 191.949219 429.882812 192.308594 430.824219 192.308594 C 431.429688 192.308594 431.730469 192.136719 431.632812 191.84375 C 431.453125 191.304688 430.503906 191.042969 430.121094 191.425781 Z M 430.234375 193.242188 C 430.234375 193.628906 430.476562 193.8125 430.886719 193.734375 C 431.675781 193.582031 431.625 192.917969 430.8125 192.75 C 430.476562 192.679688 430.234375 192.886719 430.234375 193.242188 Z M 441.09375 195.144531 C 441.113281 195.578125 441.203125 195.667969 441.320312 195.367188 C 441.429688 195.097656 441.414062 194.777344 441.292969 194.652344 C 441.167969 194.527344 441.078125 194.75 441.09375 195.144531 Z M 485.890625 198.953125 C 485.890625 199.140625 486.25 199.613281 486.691406 200.003906 C 487.488281 200.710938 487.492188 200.710938 487.0625 199.894531 C 486.585938 198.988281 485.890625 198.429688 485.890625 198.953125 Z M 456.382812 200.667969 C 456.894531 201.25 458.367188 202.5625 459.648438 203.585938 C 461.78125 205.285156 461.984375 205.574219 461.984375 206.878906 C 461.984375 208.019531 462.21875 208.503906 463.160156 209.296875 C 464.152344 210.132812 464.5625 210.25 465.777344 210.042969 C 466.898438 209.855469 467.214844 209.921875 467.214844 210.347656 C 467.214844 210.648438 467.476562 211.113281 467.796875 211.378906 C 468.117188 211.644531 469.5625 213.4375 471.011719 215.367188 C 472.460938 217.296875 473.730469 218.789062 473.832031 218.6875 C 473.933594 218.585938 472.8125 216.855469 471.339844 214.839844 C 468.355469 210.753906 467.039062 208.746094 467.34375 208.746094 C 467.453125 208.746094 468.941406 210.703125 470.648438 213.097656 C 473.898438 217.660156 476.511719 220.777344 476.535156 220.132812 C 476.546875 219.921875 475.855469 218.914062 475 217.890625 C 473.015625 215.503906 467.585938 207.332031 467.585938 206.726562 C 467.585938 206.117188 466.117188 204.789062 465.109375 204.480469 C 464.671875 204.347656 463.882812 204.433594 463.363281 204.671875 C 462.488281 205.070312 462.183594 204.917969 459.492188 202.75 C 455.699219 199.695312 455.253906 199.398438 456.382812 200.667969 Z M 487.386719 201.230469 C 487.386719 201.410156 487.636719 201.765625 487.945312 202.023438 C 488.554688 202.527344 488.628906 202.40625 488.277344 201.492188 C 488.039062 200.867188 487.386719 200.675781 487.386719 201.230469 Z M 404.457031 201.949219 C 404.457031 202.113281 404.257812 202.449219 404.011719 202.695312 C 403.660156 203.042969 403.75 203.144531 404.40625 203.144531 C 404.875 203.144531 405.148438 203.308594 405.019531 203.515625 C 404.367188 204.570312 403.007812 203.417969 403.472656 202.210938 C 403.695312 201.625 404.457031 201.425781 404.457031 201.949219 Z M 478.792969 203.289062 C 478.792969 204.210938 479.804688 210.023438 480.125 210.949219 C 480.222656 211.234375 480.394531 211.378906 480.5 211.273438 C 480.609375 211.164062 480.4375 209.460938 480.117188 207.488281 C 479.390625 202.972656 479.382812 203.144531 480.382812 203.136719 C 481.0625 203.132812 481.113281 203.0625 480.660156 202.769531 C 479.628906 202.101562 478.792969 202.335938 478.792969 203.289062 Z M 465.523438 205.820312 C 466.640625 206.328125 467.128906 207.761719 466.460938 208.5625 C 465.910156 209.230469 464.175781 209.296875 463.554688 208.671875 C 462.960938 208.082031 462.976562 205.871094 463.570312 205.632812 C 464.304688 205.335938 464.5 205.355469 465.523438 205.820312 Z M 465.164062 206.871094 C 464.886719 207.316406 465.238281 208 465.742188 208 C 466.195312 208 466.199219 206.988281 465.746094 206.707031 C 465.554688 206.589844 465.292969 206.664062 465.164062 206.871094 Z M 463.851562 207.601562 C 463.851562 207.796875 464.019531 208.058594 464.226562 208.1875 C 464.429688 208.3125 464.597656 208.15625 464.597656 207.835938 C 464.597656 207.515625 464.429688 207.25 464.226562 207.25 C 464.019531 207.25 463.851562 207.410156 463.851562 207.601562 Z M 415.8125 210.425781 C 416.722656 210.957031 417.574219 211.675781 417.707031 212.019531 C 417.882812 212.480469 417.703125 212.421875 417.042969 211.800781 L 416.140625 210.953125 L 415.933594 212.492188 C 415.820312 213.339844 415.460938 214.328125 415.136719 214.6875 C 413.898438 216.058594 414.757812 216.261719 416.542969 215.027344 L 417.71875 214.207031 L 417.015625 215.015625 C 415.621094 216.617188 414.628906 216.464844 411.820312 214.214844 C 411.039062 213.589844 410.042969 212.496094 409.605469 211.789062 L 408.8125 210.5 L 409.988281 209.449219 C 411.128906 208.429688 411.207031 208.414062 412.664062 208.929688 C 413.488281 209.21875 414.90625 209.894531 415.8125 210.425781 Z M 489.582031 210.953125 C 490.277344 211.390625 489.394531 211.855469 486.386719 212.636719 C 483.253906 213.449219 482.789062 213.394531 482.042969 212.128906 L 481.390625 211.03125 L 482.988281 210.886719 C 486.15625 210.601562 489.078125 210.632812 489.582031 210.953125 Z M 412.191406 211.222656 C 411.738281 211.675781 411.90625 212.746094 412.507812 213.246094 C 413.351562 213.945312 414.535156 212.765625 413.9375 211.820312 C 413.492188 211.113281 412.605469 210.808594 412.191406 211.222656 Z M 480.316406 212.324219 C 480.335938 212.761719 480.421875 212.847656 480.542969 212.550781 C 480.652344 212.28125 480.636719 211.960938 480.511719 211.835938 C 480.390625 211.710938 480.300781 211.933594 480.316406 212.324219 Z M 416.914062 213.804688 C 416.792969 214.121094 416.613281 214.300781 416.515625 214.203125 C 416.417969 214.105469 416.449219 213.847656 416.582031 213.628906 C 416.953125 213.03125 417.167969 213.148438 416.914062 213.804688 Z M 413.539062 224.621094 C 413.542969 225.855469 413.609375 226.3125 413.695312 225.640625 C 413.777344 224.972656 413.777344 223.960938 413.691406 223.402344 C 413.605469 222.839844 413.535156 223.390625 413.539062 224.621094 Z M 483.933594 225.277344 C 484.519531 226 484.808594 227.925781 484.421875 228.527344 C 483.945312 229.265625 482.738281 228.605469 480.617188 226.445312 L 479.011719 224.808594 L 481.285156 224.808594 C 482.652344 224.808594 483.707031 224.992188 483.933594 225.277344 Z M 430.613281 229.570312 C 430.632812 231.730469 432.074219 233.910156 436 237.695312 C 439.613281 241.179688 439.921875 241.597656 440.628906 243.902344 C 441.464844 246.632812 442.359375 252.125 442.097656 252.894531 C 441.882812 253.519531 439.460938 248.761719 438.714844 246.242188 C 437.15625 241.003906 436.082031 240.496094 423.695312 239.15625 C 420.394531 238.800781 415.523438 238.578125 411.835938 238.617188 C 407.855469 238.65625 405.578125 238.542969 405.578125 238.304688 C 405.578125 238.101562 405.75 237.484375 405.957031 236.933594 C 406.21875 236.25 406.519531 236.007812 406.925781 236.164062 C 407.8125 236.507812 408.304688 236.039062 407.757812 235.378906 C 407.359375 234.898438 407.460938 234.664062 408.390625 233.917969 C 409 233.429688 409.785156 233.03125 410.128906 233.027344 C 410.886719 233.027344 411.328125 234.21875 410.976562 235.328125 C 410.726562 236.121094 410.769531 236.128906 413.804688 235.894531 C 419.042969 235.492188 421.269531 233.8125 421.269531 230.261719 L 421.269531 228.542969 L 430.605469 228.542969 Z M 461.332031 234.945312 C 461.988281 235.824219 462.011719 236.042969 461.554688 237 C 461.136719 237.867188 460.800781 238.070312 459.769531 238.070312 C 458.96875 238.070312 458.429688 237.859375 458.3125 237.507812 C 458.152344 237.023438 458.214844 237.019531 458.757812 237.46875 C 459.777344 238.308594 461.320312 237.433594 461.167969 236.105469 C 461.070312 235.246094 460.851562 235.0625 459.796875 234.960938 C 458.886719 234.875 458.589844 234.976562 458.710938 235.335938 C 458.800781 235.605469 459.242188 235.773438 459.683594 235.710938 C 460.285156 235.625 460.488281 235.789062 460.488281 236.363281 C 460.488281 237.167969 460.125 237.277344 458.714844 236.898438 C 457.054688 236.453125 458.117188 233.585938 459.84375 233.847656 C 460.261719 233.910156 460.929688 234.402344 461.332031 234.945312 Z M 409.40625 234.410156 C 408.761719 234.648438 408.820312 235.640625 409.480469 235.640625 C 410.160156 235.640625 410.625 234.925781 410.195312 234.535156 C 410.019531 234.375 409.664062 234.316406 409.40625 234.410156 Z M 417.21875 236.761719 C 417.21875 237.277344 417.300781 237.484375 417.40625 237.230469 C 417.511719 236.972656 417.511719 236.550781 417.40625 236.296875 C 417.300781 236.039062 417.21875 236.25 417.21875 236.761719 Z M 478.097656 238.164062 C 477.847656 238.625 476.769531 239.449219 475.699219 239.996094 C 474.628906 240.542969 473.957031 241.058594 474.207031 241.144531 C 474.78125 241.339844 478.441406 239.378906 478.6875 238.746094 C 479.046875 237.804688 478.550781 237.3125 478.097656 238.164062 Z M 416.972656 239.890625 C 428.835938 240.164062 434.546875 241.042969 436.375 242.871094 C 436.871094 243.367188 437.476562 244.785156 437.863281 246.367188 C 438.296875 248.136719 439.191406 250.125 440.535156 252.324219 C 442.21875 255.074219 442.449219 255.644531 441.902344 255.734375 C 441.542969 255.792969 437.570312 254.738281 433.078125 253.394531 C 428.582031 252.046875 422.953125 250.59375 420.566406 250.167969 C 416.332031 249.410156 415.683594 249.121094 415.667969 247.96875 C 415.652344 246.8125 414.1875 245.054688 412.59375 244.285156 C 411.261719 243.636719 410.257812 243.484375 407.34375 243.484375 L 403.746094 243.484375 L 404.292969 241.898438 C 404.597656 241.023438 404.929688 240.078125 405.03125 239.796875 C 405.171875 239.414062 405.675781 239.335938 406.988281 239.492188 C 407.957031 239.609375 412.453125 239.789062 416.972656 239.890625 Z M 447.414062 241.132812 C 445.199219 241.945312 443.601562 244.996094 443.445312 248.714844 L 443.328125 251.515625 L 443.832031 248.683594 C 444.496094 244.960938 444.683594 244.429688 445.773438 243.132812 C 446.667969 242.074219 448.351562 241.5 451.710938 241.113281 C 452.328125 241.039062 451.738281 240.972656 450.402344 240.957031 C 449.070312 240.941406 447.722656 241.023438 447.414062 241.132812 Z M 477.890625 242.976562 C 477.695312 243.492188 477.75 243.515625 478.226562 243.121094 C 478.871094 242.582031 478.941406 242.363281 478.460938 242.363281 C 478.277344 242.363281 478.019531 242.640625 477.890625 242.976562 Z M 412.746094 245.230469 C 413.566406 245.707031 414.144531 246.4375 414.457031 247.386719 C 414.71875 248.175781 414.859375 248.898438 414.769531 248.988281 C 414.511719 249.246094 403.457031 248.273438 402.925781 247.945312 C 402.550781 247.714844 402.546875 247.34375 402.902344 246.15625 C 403.441406 244.363281 403.796875 244.246094 408.261719 244.398438 C 410.640625 244.480469 411.839844 244.703125 412.746094 245.230469 Z M 408.867188 249.464844 C 414.421875 249.894531 414.925781 250.09375 413.617188 251.324219 C 412.699219 252.1875 412.511719 252.210938 406.992188 252.128906 C 403.871094 252.085938 401.246094 251.980469 401.160156 251.894531 C 401.078125 251.808594 401.117188 251.140625 401.253906 250.414062 C 401.546875 248.863281 401.394531 248.882812 408.867188 249.464844 Z M 406.710938 256.726562 C 408.667969 257.023438 411.527344 257.707031 413.0625 258.25 C 415.703125 259.183594 423.882812 263.535156 423.882812 264.003906 C 423.882812 264.433594 418.589844 270.796875 418.328125 270.683594 C 418.179688 270.617188 415.839844 269.667969 413.125 268.566406 C 408.777344 266.800781 408.164062 266.445312 407.988281 265.578125 C 407.648438 263.894531 406.917969 262.773438 405.570312 261.859375 C 404.425781 261.085938 403.9375 260.996094 401.46875 261.128906 C 399.902344 261.210938 398.09375 261.554688 397.359375 261.910156 C 396.074219 262.53125 396.070312 262.535156 397.175781 262.332031 C 400.132812 261.785156 402.355469 261.730469 403.917969 262.167969 C 405.707031 262.667969 407.074219 264.003906 407.074219 265.25 C 407.074219 265.886719 406.90625 265.957031 405.859375 265.746094 C 400.875 264.738281 398.472656 264.703125 395.5625 265.59375 C 393.964844 266.082031 393.742188 265.816406 394.660156 264.519531 C 395.066406 263.941406 396.113281 262.042969 396.984375 260.296875 C 397.855469 258.546875 398.738281 256.910156 398.945312 256.652344 C 399.441406 256.035156 402.304688 256.0625 406.710938 256.726562 Z M 445.484375 257.632812 C 445.832031 257.851562 446.082031 259.5625 446.3125 263.324219 C 446.5 266.28125 446.738281 269.332031 446.851562 270.101562 C 447.039062 271.410156 446.988281 271.5 446.085938 271.5 C 445.148438 271.5 445.125 271.5625 445.179688 273.835938 C 445.25 276.875 445.171875 277.195312 444.746094 275.609375 C 444.554688 274.890625 444.320312 271.847656 444.230469 268.84375 C 444.140625 265.839844 443.996094 263.152344 443.90625 262.867188 C 443.816406 262.582031 443.640625 261.214844 443.515625 259.828125 C 443.292969 257.386719 443.3125 257.308594 444.136719 257.3125 C 444.605469 257.316406 445.210938 257.460938 445.484375 257.632812 Z M 403.785156 266.3125 C 404.875 266.539062 405.902344 266.851562 406.066406 267.003906 C 406.230469 267.15625 405.347656 268.167969 404.101562 269.246094 L 401.835938 271.207031 L 396.703125 271.515625 C 393.753906 271.695312 390.871094 272.074219 389.925781 272.414062 C 389.019531 272.738281 388.21875 272.945312 388.148438 272.871094 C 387.882812 272.609375 391.070312 269.28125 392.800781 268.011719 C 393.773438 267.296875 395.152344 266.542969 395.871094 266.339844 C 397.660156 265.828125 401.402344 265.8125 403.785156 266.3125 Z M 412.957031 269.832031 C 415.269531 270.933594 417.160156 272.007812 417.160156 272.21875 C 417.160156 272.433594 416.695312 273.125 416.132812 273.753906 L 415.105469 274.894531 L 412.863281 274.117188 C 410.910156 273.441406 407.542969 272.53125 403.949219 271.710938 L 402.882812 271.464844 L 405.070312 269.449219 C 406.660156 267.988281 407.464844 267.488281 408.007812 267.632812 C 408.417969 267.746094 410.644531 268.734375 412.957031 269.832031 Z M 419.238281 272.210938 C 418.972656 272.636719 420.085938 273.078125 420.613281 272.753906 C 420.851562 272.605469 420.898438 272.683594 420.738281 272.949219 C 420.554688 273.246094 421.539062 273.886719 423.726562 274.898438 C 428.765625 277.226562 432.746094 279.65625 434.65625 281.566406 C 436.476562 283.382812 437.113281 284.320312 443.210938 294.125 C 448.484375 302.605469 448.28125 301.933594 445.160156 300.554688 C 442.273438 299.277344 442.097656 299.105469 437.039062 292.515625 C 430.398438 283.871094 427.726562 281.511719 419.964844 277.421875 C 418.011719 276.394531 416.410156 275.378906 416.410156 275.167969 C 416.410156 274.625 418.640625 271.875 419.078125 271.875 C 419.28125 271.875 419.351562 272.027344 419.238281 272.210938 Z M 405.667969 277.453125 C 410.589844 278.710938 414.667969 281.066406 424.492188 288.320312 C 428.164062 291.03125 433.449219 294.75 436.238281 296.585938 C 440.867188 299.632812 441.542969 300.222656 443.964844 303.363281 C 445.425781 305.253906 447.984375 308.480469 449.648438 310.535156 C 452.898438 314.546875 457.128906 320.601562 457.128906 321.25 C 457.128906 321.464844 456.664062 321.351562 456.101562 320.992188 C 452.695312 318.839844 448.417969 315.078125 439.960938 306.800781 C 427.640625 294.738281 425.929688 293.425781 419.027344 290.707031 C 415.339844 289.253906 412.953125 287.832031 407.261719 283.683594 C 405.410156 282.335938 402.972656 280.742188 401.84375 280.144531 C 399.839844 279.085938 395.679688 277.851562 394.097656 277.851562 C 393.667969 277.851562 393.003906 277.730469 392.628906 277.582031 C 391.480469 277.128906 393.707031 276.824219 398.515625 276.773438 C 401.691406 276.742188 403.597656 276.921875 405.667969 277.453125 Z M 445.546875 278.605469 C 445.546875 279.015625 445.699219 279.648438 445.882812 280.003906 C 446.066406 280.363281 446.78125 282.410156 447.464844 284.558594 C 448.664062 288.300781 451.785156 294.28125 453.417969 295.96875 C 455.085938 297.6875 471.324219 322.902344 471.324219 323.773438 C 471.324219 325.058594 469.984375 323.261719 465.902344 316.488281 C 460.679688 307.820312 455.59375 300.265625 452.847656 297.089844 C 449.769531 293.535156 449.042969 292.414062 447.867188 289.429688 C 446.246094 285.320312 444.515625 277.851562 445.183594 277.851562 C 445.382812 277.851562 445.546875 278.191406 445.546875 278.605469 Z M 408.269531 286.890625 C 408.023438 287.136719 407.820312 287.523438 407.820312 287.75 C 407.820312 287.976562 407.625 288.359375 407.382812 288.597656 C 406.699219 289.28125 405.941406 291.808594 406.308594 292.175781 C 406.496094 292.367188 406.890625 292.011719 407.238281 291.34375 C 407.570312 290.703125 408.003906 290.179688 408.203125 290.179688 C 408.402344 290.179688 408.566406 289.839844 408.566406 289.425781 C 408.566406 289.011719 408.773438 288.34375 409.023438 287.941406 C 409.589844 287.035156 408.976562 286.183594 408.269531 286.890625 Z M 391.765625 295.234375 C 386.347656 296.753906 382.300781 301.253906 380.335938 307.941406 C 379.890625 309.457031 379.6875 311.410156 379.699219 314.085938 C 379.71875 320.042969 381.625 325.222656 385.34375 329.433594 C 386.910156 331.203125 390.863281 334.15625 391.207031 333.8125 C 391.3125 333.707031 390.269531 332.710938 388.890625 331.601562 C 385.792969 329.117188 382.769531 324.804688 381.65625 321.289062 C 380.554688 317.804688 380.320312 313.171875 381.046875 309.328125 C 382.164062 303.425781 385.105469 299.128906 389.570312 296.875 C 391.578125 295.859375 392.039062 295.78125 395.898438 295.78125 C 399.765625 295.78125 400.222656 295.859375 402.453125 296.925781 C 409.070312 300.085938 414.484375 307.234375 416.445312 315.40625 C 417.417969 319.46875 417.585938 325.910156 416.832031 330.441406 C 416.304688 333.613281 416.457031 334.796875 417.15625 332.953125 C 418.375 329.75 418.476562 319.425781 417.335938 315.035156 C 415.53125 308.117188 411.167969 301.660156 405.992188 298.25 C 401.28125 295.152344 396.035156 294.039062 391.765625 295.234375 Z M 411.761719 295.71875 C 411.957031 295.886719 413.214844 296.792969 414.554688 297.730469 C 415.898438 298.671875 418.566406 301.082031 420.488281 303.089844 C 426.535156 309.417969 428.648438 315.328125 429.011719 326.972656 C 429.25 334.5 429.792969 334.851562 429.832031 327.503906 C 429.898438 315.625 426.515625 307.039062 419.214844 300.554688 C 417.367188 298.914062 412.308594 295.40625 411.789062 295.40625 C 411.550781 295.40625 411.539062 295.523438 411.761719 295.71875 Z M 446.582031 302.089844 C 449.304688 303.476562 455.296875 310.527344 458.777344 316.429688 C 461.015625 320.226562 462.824219 323.828125 462.605469 324.046875 C 462.511719 324.144531 461.578125 323.789062 460.53125 323.257812 C 459.109375 322.539062 458.433594 321.898438 457.832031 320.710938 C 456.496094 318.078125 452.925781 313.097656 447.992188 306.988281 C 445.421875 303.804688 443.316406 301.078125 443.3125 300.925781 C 443.304688 300.609375 444.558594 301.054688 446.582031 302.089844 Z M 464.679688 308.644531 C 467.761719 312.476562 468.640625 313.902344 468.199219 314.347656 C 467.792969 314.75 466.835938 313.542969 462.964844 307.734375 C 459.226562 302.125 459.589844 302.316406 464.679688 308.644531 Z M 454.632812 305.582031 C 456.113281 306.21875 456.757812 306.835938 458.214844 309.007812 C 461.273438 313.5625 467.585938 324.398438 467.585938 325.089844 C 467.585938 325.199219 466.917969 325.292969 466.101562 325.292969 C 464.332031 325.292969 464.058594 324.882812 462.5625 319.96875 C 461.527344 316.578125 460.976562 315.703125 461.359375 318.058594 C 461.546875 319.222656 461.207031 318.839844 458.9375 315.347656 C 457.488281 313.113281 455.03125 309.703125 453.484375 307.773438 C 450.382812 303.910156 450.449219 303.78125 454.632812 305.582031 Z M 471.0625 317.355469 C 472.894531 320.132812 473.9375 322.058594 473.9375 322.65625 C 473.9375 323.351562 472.855469 323.078125 472.429688 322.273438 C 472.039062 321.546875 472.066406 321.527344 472.878906 321.964844 C 473.457031 322.273438 473.117188 321.695312 471.855469 320.214844 C 468.53125 316.324219 467.703125 314.832031 468.867188 314.832031 C 469.160156 314.832031 470.144531 315.96875 471.0625 317.355469 Z M 471.0625 317.355469 " fill-opacity="1" fill-rule="evenodd"/></g><g mask="url(#1eba28bbaf)"><g transform="matrix(1, 0, 0, 1, 485, 151)"><g clip-path="url(#b86142736a)"><g clip-path="url(#6461cb1f7e)"><g clip-path="url(#55687f7a29)"><path fill="#d9d9d9" d="M 0.351562 77.847656 L 0.351562 0.832031 L 67.644531 0.832031 L 67.644531 77.847656 Z M 0.351562 77.847656 " fill-opacity="1" fill-rule="nonzero"/></g></g></g></g></g><path fill="#76c2af" d="M 582.808594 229.171875 L 579.554688 237.398438 L 636.625 237.398438 L 633.375 229.171875 L 582.808594 229.171875 " fill-opacity="1" fill-rule="nonzero"/><g clip-path="url(#71ce858ade)"><path fill="#76c2af" d="M 648.019531 245.675781 L 656.28125 260.585938 C 657.523438 262.824219 655.902344 265.574219 653.339844 265.574219 L 562.839844 265.574219 C 560.277344 265.574219 558.660156 262.824219 559.898438 260.585938 L 568.164062 245.675781 L 648.019531 245.675781 " fill-opacity="1" fill-rule="nonzero"/></g><g clip-path="url(#67abef8dec)"><path fill="#76c2af" d="M 643.777344 208.816406 L 638.152344 208.816406 C 637.597656 208.816406 637.105469 208.476562 636.902344 207.964844 L 634.625 202.175781 L 630.40625 217.351562 C 630.253906 217.910156 629.761719 218.304688 629.1875 218.335938 C 629.160156 218.335938 629.140625 218.335938 629.113281 218.335938 C 628.566406 218.335938 628.070312 218.003906 627.863281 217.484375 L 624.449219 208.816406 L 616.78125 208.816406 C 616.394531 208.816406 616.027344 208.648438 615.769531 208.359375 L 609.066406 200.707031 L 604.441406 217.351562 C 604.289062 217.910156 603.796875 218.304688 603.222656 218.335938 C 602.644531 218.367188 602.113281 218.023438 601.898438 217.484375 L 598.488281 208.816406 L 593.773438 208.816406 C 593.222656 208.816406 592.726562 208.476562 592.523438 207.964844 L 590.242188 202.175781 L 586.03125 217.351562 C 585.875 217.910156 585.382812 218.304688 584.804688 218.335938 C 584.226562 218.367188 583.699219 218.023438 583.488281 217.484375 L 580.070312 208.816406 L 572.40625 208.816406 C 571.660156 208.816406 571.058594 208.214844 571.058594 207.472656 C 571.058594 206.730469 571.660156 206.132812 572.40625 206.132812 L 580.988281 206.132812 C 581.535156 206.132812 582.03125 206.46875 582.234375 206.984375 L 584.515625 212.769531 L 588.726562 197.59375 C 588.882812 197.039062 589.375 196.640625 589.953125 196.609375 C 590.53125 196.582031 591.0625 196.921875 591.269531 197.460938 L 594.6875 206.132812 L 599.398438 206.132812 C 599.953125 206.132812 600.449219 206.46875 600.648438 206.984375 L 602.933594 212.769531 L 607.144531 197.59375 C 607.277344 197.121094 607.65625 196.757812 608.136719 196.644531 C 608.617188 196.535156 609.121094 196.695312 609.445312 197.070312 L 617.386719 206.132812 L 625.363281 206.132812 C 625.914062 206.132812 626.414062 206.46875 626.613281 206.984375 L 628.894531 212.769531 L 633.109375 197.59375 C 633.261719 197.039062 633.753906 196.640625 634.332031 196.609375 C 634.914062 196.582031 635.4375 196.921875 635.652344 197.457031 L 639.066406 206.132812 L 643.777344 206.132812 C 644.519531 206.132812 645.121094 206.730469 645.121094 207.472656 C 645.121094 208.214844 644.519531 208.816406 643.777344 208.816406 Z M 576.9375 174.941406 L 588.320312 174.941406 C 589.0625 174.941406 589.660156 175.539062 589.660156 176.285156 C 589.660156 177.027344 589.0625 177.625 588.320312 177.625 L 583.972656 177.625 L 583.972656 190.53125 C 583.972656 191.273438 583.371094 191.871094 582.628906 191.871094 C 581.886719 191.871094 581.289062 191.273438 581.289062 190.53125 L 581.289062 177.625 L 576.9375 177.625 C 576.199219 177.625 575.597656 177.027344 575.597656 176.285156 C 575.597656 175.539062 576.199219 174.941406 576.9375 174.941406 Z M 594.644531 176.285156 C 594.644531 175.539062 595.242188 174.941406 595.984375 174.941406 L 604.410156 174.941406 C 605.148438 174.941406 605.75 175.539062 605.75 176.285156 C 605.75 177.027344 605.148438 177.625 604.410156 177.625 L 597.328125 177.625 L 597.328125 182.0625 L 604.410156 182.0625 C 605.148438 182.0625 605.75 182.664062 605.75 183.410156 C 605.75 184.148438 605.148438 184.75 604.410156 184.75 L 597.328125 184.75 L 597.328125 189.1875 L 604.410156 189.1875 C 605.148438 189.1875 605.75 189.792969 605.75 190.53125 C 605.75 191.273438 605.148438 191.871094 604.410156 191.871094 L 595.984375 191.871094 C 595.242188 191.871094 594.644531 191.273438 594.644531 190.53125 Z M 616.613281 184.707031 C 614.910156 184.230469 612.050781 182.679688 612.050781 179.847656 C 612.050781 177.140625 614.25 174.941406 616.957031 174.941406 C 619.660156 174.941406 621.863281 177.140625 621.863281 179.847656 C 621.863281 180.585938 621.257812 181.1875 620.519531 181.1875 C 619.777344 181.1875 619.171875 180.585938 619.171875 179.847656 C 619.171875 178.621094 618.179688 177.625 616.957031 177.625 C 615.730469 177.625 614.738281 178.621094 614.738281 179.847656 C 614.738281 181.3125 617.292969 182.105469 617.320312 182.117188 C 618.992188 182.554688 621.863281 184.085938 621.863281 186.96875 C 621.863281 189.671875 619.660156 191.871094 616.957031 191.871094 C 614.25 191.871094 612.050781 189.671875 612.050781 186.96875 C 612.050781 186.226562 612.652344 185.625 613.394531 185.625 C 614.136719 185.625 614.738281 186.226562 614.738281 186.96875 C 614.738281 188.195312 615.730469 189.1875 616.957031 189.1875 C 618.179688 189.1875 619.171875 188.195312 619.171875 186.96875 C 619.171875 185.449219 616.640625 184.714844 616.613281 184.707031 Z M 627.859375 174.941406 L 639.242188 174.941406 C 639.984375 174.941406 640.582031 175.539062 640.582031 176.285156 C 640.582031 177.027344 639.984375 177.625 639.242188 177.625 L 634.894531 177.625 L 634.894531 190.53125 C 634.894531 191.273438 634.292969 191.871094 633.554688 191.871094 C 632.808594 191.871094 632.207031 191.273438 632.207031 190.53125 L 632.207031 177.625 L 627.859375 177.625 C 627.117188 177.625 626.519531 177.027344 626.519531 176.285156 C 626.519531 175.539062 627.117188 174.941406 627.859375 174.941406 Z M 648.496094 155.984375 L 567.683594 155.984375 C 563.773438 155.984375 560.609375 159.152344 560.609375 163.0625 L 560.609375 219.414062 C 560.609375 223.320312 563.773438 226.488281 567.683594 226.488281 L 648.496094 226.488281 C 652.40625 226.488281 655.574219 223.320312 655.574219 219.414062 L 655.574219 163.0625 C 655.574219 159.152344 652.40625 155.984375 648.496094 155.984375 " fill-opacity="1" fill-rule="nonzero"/></g></svg>