<svg xmlns="http://www.w3.org/2000/svg" xmlns:xlink="http://www.w3.org/1999/xlink" width="1366" zoomAndPan="magnify" viewBox="0 0 1024.5 471.749988" height="629" preserveAspectRatio="xMidYMid meet" version="1.0"><defs><clipPath id="9e2a3a23c7"><path d="M 387.289062 266 L 417 266 L 417 292 L 387.289062 292 Z M 387.289062 266 " clip-rule="nonzero"/></clipPath><clipPath id="a3402ad13d"><path d="M 537 266 L 636.707031 266 L 636.707031 292 L 537 292 Z M 537 266 " clip-rule="nonzero"/></clipPath><clipPath id="b2aa788b2f"><path d="M 409 145.1875 L 615 145.1875 L 615 258 L 409 258 Z M 409 145.1875 " clip-rule="nonzero"/></clipPath></defs><path fill="#76c2af" d="M 453.496094 251.472656 C 457.480469 249.324219 459.609375 245.199219 460.765625 241.195312 C 455.234375 236.269531 450.375 227.667969 447.277344 213.066406 C 439.394531 175.953125 469.328125 172.945312 477.054688 172.945312 C 484.78125 172.945312 514.714844 175.945312 506.832031 213.066406 C 503.726562 227.667969 498.875 236.269531 493.34375 241.195312 C 494.492188 245.199219 496.621094 249.324219 500.613281 251.472656 C 509.890625 256.46875 529.160156 261.464844 534.164062 273.597656 C 539.160156 285.726562 545.578125 324.992188 545.578125 324.992188 L 408.542969 324.992188 C 408.542969 324.992188 414.960938 285.734375 419.964844 273.597656 C 424.949219 261.464844 444.214844 256.46875 453.496094 251.472656 Z M 453.496094 251.472656 " fill-opacity="1" fill-rule="nonzero"/><path fill="#76c2af" d="M 550.945312 207.132812 C 556.066406 209.890625 566.707031 212.648438 569.46875 219.351562 C 572.222656 226.050781 575.769531 247.730469 575.769531 247.730469 L 507.199219 247.730469 C 505.875 247.128906 504.640625 246.554688 503.558594 245.976562 C 502.523438 245.417969 501.648438 244.4375 500.894531 243.152344 C 500.957031 242.789062 501.023438 242.421875 501.097656 242.023438 C 506.445312 235.5625 510.359375 226.496094 512.933594 214.367188 C 513.058594 213.78125 513.128906 213.21875 513.234375 212.648438 C 517.269531 210.320312 521.988281 208.722656 524.929688 207.132812 C 527.136719 205.953125 528.308594 203.675781 528.945312 201.464844 C 525.894531 198.742188 523.214844 194 521.503906 185.9375 C 517.148438 165.445312 533.675781 163.785156 537.941406 163.785156 C 542.207031 163.785156 558.738281 165.445312 554.386719 185.9375 C 552.671875 194 549.988281 198.746094 546.933594 201.464844 C 547.566406 203.675781 548.746094 205.949219 550.945312 207.132812 Z M 550.945312 207.132812 " fill-opacity="1" fill-rule="nonzero"/><g clip-path="url(#9e2a3a23c7)"><path fill="#76c2af" d="M 416.71875 266.679688 C 415.730469 268.089844 414.851562 269.582031 414.175781 271.226562 C 412.363281 275.617188 410.429688 283.117188 408.648438 291.109375 C 396.53125 290.230469 386.945312 280.242188 386.945312 267.894531 L 386.945312 266.683594 L 416.71875 266.683594 Z M 416.71875 266.679688 " fill-opacity="1" fill-rule="nonzero"/></g><g clip-path="url(#a3402ad13d)"><path fill="#76c2af" d="M 539.925781 271.21875 C 539.253906 269.578125 538.371094 268.082031 537.386719 266.671875 L 637.042969 266.671875 L 637.042969 267.882812 C 637.042969 280.800781 626.574219 291.265625 613.652344 291.265625 L 545.480469 291.265625 C 543.699219 283.222656 541.75 275.640625 539.925781 271.21875 Z M 539.925781 271.21875 " fill-opacity="1" fill-rule="nonzero"/></g><g clip-path="url(#b2aa788b2f)"><path fill="#76c2af" d="M 604.160156 172.710938 C 604.160156 165.257812 603.019531 161.039062 599.539062 158.789062 C 597.054688 157.191406 593.386719 156.601562 588.054688 156.601562 L 435.941406 156.601562 C 430.605469 156.601562 426.941406 157.191406 424.457031 158.796875 C 420.976562 161.03125 419.832031 165.253906 419.832031 172.710938 L 419.832031 257.578125 L 409.097656 257.578125 L 409.097656 172.710938 C 409.097656 164.335938 410.695312 158.109375 414.125 153.765625 C 418.398438 148.351562 425.5 145.875 435.941406 145.875 L 588.054688 145.875 C 598.496094 145.875 605.597656 148.347656 609.867188 153.765625 C 613.296875 158.109375 614.898438 164.335938 614.898438 172.710938 L 614.898438 257.578125 L 604.160156 257.578125 Z M 604.160156 172.710938 " fill-opacity="1" fill-rule="nonzero"/></g></svg>