<svg xmlns="http://www.w3.org/2000/svg" xmlns:xlink="http://www.w3.org/1999/xlink" width="1366" zoomAndPan="magnify" viewBox="0 0 1024.5 471.749988" height="629" preserveAspectRatio="xMidYMid meet" version="1.0"><defs><clipPath id="978c72c781"><path d="M 344.953125 99.378906 L 679 99.378906 L 679 372 L 344.953125 372 Z M 344.953125 99.378906 " clip-rule="nonzero"/></clipPath></defs><path fill="#eeeeee" d="M 669.042969 298.851562 C 669.316406 295.082031 668.894531 291.367188 667.878906 287.847656 L 676.644531 283.09375 L 670.164062 271.140625 L 661.398438 275.890625 C 659.003906 273.121094 656.117188 270.742188 652.8125 268.917969 L 655.644531 259.367188 L 642.605469 255.5 L 639.773438 265.046875 C 636.003906 264.773438 632.289062 265.191406 628.769531 266.207031 L 624.015625 257.441406 L 616.167969 261.699219 C 611.546875 258.929688 606.378906 257.429688 601.503906 256.617188 C 601.539062 255.539062 600.6875 252.492188 590.3125 251.277344 C 589.449219 246.886719 588.039062 242.417969 588.039062 242.417969 C 588.039062 242.417969 579.964844 238.34375 578.867188 233.640625 C 582.710938 234.265625 588.433594 233.484375 588.746094 227.917969 C 589.058594 222.351562 584.042969 219.136719 577.847656 221.882812 C 576.910156 221.175781 576.515625 213.414062 576.59375 211.0625 C 575.027344 210.984375 562.957031 212.867188 551.902344 208.398438 C 550.492188 212.082031 549.316406 221.726562 549.316406 221.726562 C 549.316406 221.726562 545.320312 225.488281 545.710938 227.566406 C 546.101562 229.640625 549.238281 230.738281 549.238281 230.738281 C 549.238281 230.738281 550.609375 241.597656 554.410156 244.574219 C 559.78125 245.4375 566.601562 244.847656 567.777344 244.222656 C 568.363281 246.339844 570.675781 253.824219 570.675781 253.824219 C 570.675781 253.824219 568.414062 255.167969 567.789062 257.882812 C 556.601562 260.996094 546.308594 267.5 539.597656 278.789062 C 529.25 296.191406 517.019531 324.882812 517.019531 324.882812 L 514.984375 324.160156 L 514.984375 256.996094 C 514.984375 253.402344 512.070312 250.492188 508.480469 250.492188 L 456.347656 250.492188 L 456.347656 178.613281 L 345.351562 178.613281 L 345.351562 263.742188 L 378.1875 263.742188 C 379.148438 265.621094 380.410156 267.390625 381.984375 268.964844 C 386.945312 273.925781 393.800781 275.832031 400.222656 274.691406 L 400.222656 336.445312 C 400.222656 339.019531 402.3125 341.109375 404.886719 341.109375 L 447.707031 341.109375 L 437.496094 359.609375 L 428.6875 359.609375 C 427.730469 359.609375 426.953125 360.386719 426.953125 361.34375 L 426.953125 365.015625 L 382.351562 365.015625 L 382.351562 371.289062 L 546.496094 371.289062 L 546.496094 370.902344 L 559.820312 371.445312 L 654.828125 371.445312 L 654.828125 333.570312 L 655.082031 333.507812 L 662.949219 329.242188 L 658.195312 320.476562 C 660.964844 318.082031 663.34375 315.195312 665.171875 311.890625 L 674.71875 314.722656 L 678.589844 301.683594 Z M 385.523438 265.425781 C 384.992188 264.894531 384.523438 264.324219 384.082031 263.742188 L 400.222656 263.742188 L 400.222656 269.566406 C 395.113281 270.785156 389.511719 269.414062 385.523438 265.425781 Z M 464.722656 359.609375 L 455.65625 359.609375 L 466.019531 341.109375 L 466.992188 341.109375 C 484.921875 349.796875 513.097656 362.769531 520.625 362.351562 C 531.914062 361.726562 544.457031 340.402344 544.457031 340.402344 L 544.457031 365.015625 L 466.460938 365.015625 L 466.460938 361.34375 C 466.460938 360.386719 465.683594 359.609375 464.722656 359.609375 Z M 657.316406 302.464844 C 656.699219 304.546875 655.765625 306.449219 654.605469 308.15625 C 653.230469 299.25 645.53125 292.429688 636.238281 292.429688 L 630.839844 292.429688 L 630.839844 292.3125 C 630.886719 286.730469 630.175781 282.007812 628.898438 278 L 629.082031 277.722656 C 633.433594 275.777344 638.46875 275.3125 643.386719 276.773438 C 654.308594 280.015625 660.558594 291.539062 657.316406 302.464844 Z M 482.503906 208.125 C 482.503906 216.03125 488.917969 222.441406 496.824219 222.441406 C 504.730469 222.441406 511.140625 216.03125 511.140625 208.125 C 511.140625 200.21875 504.730469 193.808594 496.824219 193.808594 C 488.917969 193.804688 482.503906 200.21875 482.503906 208.125 Z M 379.816406 266.988281 L 355.636719 291.167969 C 354.066406 292.738281 354.234375 294.425781 355.378906 295.570312 C 356.523438 296.714844 358.214844 296.882812 359.785156 295.3125 L 384.050781 271.046875 Z M 577.179688 145.261719 C 589.671875 145.261719 599.796875 135.136719 599.796875 122.644531 L 599.796875 122.640625 C 599.796875 110.148438 589.671875 100.023438 577.179688 100.023438 C 564.6875 100.023438 554.558594 110.148438 554.558594 122.640625 L 554.558594 122.644531 C 554.558594 135.136719 564.6875 145.261719 577.179688 145.261719 Z M 444.394531 163.214844 L 501.457031 163.214844 L 526.269531 177.984375 L 522.253906 163.164062 C 530.339844 162.625 536.734375 155.914062 536.734375 147.695312 C 536.734375 139.121094 529.785156 132.171875 521.214844 132.171875 L 444.394531 132.171875 C 435.824219 132.171875 428.875 139.121094 428.875 147.695312 C 428.875 156.265625 435.824219 163.214844 444.394531 163.214844 Z M 444.394531 163.214844 " fill-opacity="1" fill-rule="nonzero"/><path fill="#76c2af" d="M 493.675781 203.996094 C 493.675781 202.257812 495.085938 200.847656 496.824219 200.847656 C 498.5625 200.847656 499.972656 202.257812 499.972656 203.996094 C 499.972656 205.734375 498.5625 207.144531 496.824219 207.144531 C 495.085938 207.144531 493.675781 205.734375 493.675781 203.996094 Z M 491.324219 215.402344 C 491.324219 212.011719 493.785156 209.265625 496.824219 209.265625 C 499.859375 209.265625 502.324219 212.011719 502.324219 215.402344 Z M 578.449219 107.484375 L 578.449219 120.996094 L 592.429688 120.996094 C 592.429688 120.996094 592.902344 116.648438 588.367188 111.265625 C 583.832031 105.878906 578.449219 107.484375 578.449219 107.484375 Z M 355.699219 291.195312 C 355.699219 291.195312 353.230469 293.371094 355.464844 295.488281 C 357.699219 297.605469 359.519531 295.722656 359.519531 295.722656 L 371.21875 283.613281 L 367.457031 279.496094 Z M 421.386719 276.753906 L 491.703125 276.753906 C 491.703125 276.753906 491.386719 274.402344 489.269531 274.402344 C 487.15625 274.402344 422.796875 274.402344 422.796875 274.402344 C 422.796875 274.402344 421.386719 274.871094 421.386719 276.753906 Z M 636.238281 292.429688 L 578.40625 292.429688 C 568.140625 292.429688 559.820312 300.753906 559.820312 311.019531 L 559.820312 371.445312 L 654.824219 371.445312 L 654.824219 311.019531 C 654.824219 300.753906 646.503906 292.429688 636.238281 292.429688 Z M 636.238281 292.429688 " fill-opacity="1" fill-rule="nonzero"/><g clip-path="url(#978c72c781)"><path fill="#76c2af" d="M 678.703125 301.300781 L 669.460938 298.558594 C 669.683594 295.027344 669.308594 291.496094 668.351562 288.046875 L 676.835938 283.445312 C 676.929688 283.394531 677 283.3125 677.03125 283.210938 C 677.058594 283.109375 677.046875 282.996094 676.996094 282.90625 L 670.515625 270.949219 C 670.410156 270.753906 670.167969 270.683594 669.972656 270.789062 L 661.488281 275.390625 C 659.125 272.707031 656.367188 270.464844 653.285156 268.722656 L 656.027344 259.484375 C 656.089844 259.269531 655.96875 259.046875 655.757812 258.984375 L 642.71875 255.113281 C 642.621094 255.085938 642.511719 255.09375 642.414062 255.144531 C 642.324219 255.195312 642.253906 255.28125 642.222656 255.382812 L 639.480469 264.625 C 635.953125 264.40625 632.417969 264.777344 628.96875 265.734375 L 624.367188 257.25 C 624.316406 257.15625 624.234375 257.085938 624.132812 257.058594 C 624.03125 257.027344 623.921875 257.039062 623.828125 257.089844 L 616.140625 261.253906 C 611.640625 258.605469 606.652344 257.128906 601.929688 256.296875 C 601.742188 255.304688 600.390625 251.867188 590.785156 250.898438 C 590.789062 250.855469 590.789062 250.816406 590.777344 250.773438 L 588.351562 242.410156 C 589.410156 240.34375 599.675781 220.15625 600.507812 211.257812 C 601.59375 199.6875 591.0625 194.558594 571.253906 189.148438 C 557.632812 185.425781 551.21875 186.722656 548.238281 188.46875 C 546.886719 189.257812 545.976562 190.3125 545.59375 191.523438 C 540.601562 192.234375 538.597656 194.71875 538.828125 196.898438 C 539.054688 199.035156 541.441406 201.011719 545.613281 201.011719 C 545.679688 201.011719 545.742188 201.011719 545.808594 201.011719 C 544.875 202.203125 545.023438 203.332031 545.367188 204.125 C 546.082031 205.777344 548.191406 207.34375 551.277344 208.617188 C 550.226562 211.878906 549.398438 216.226562 548.8125 221.5625 C 548.183594 222.238281 545.390625 225.328125 545.121094 227.050781 C 544.839844 228.863281 547.84375 230.542969 548.726562 230.996094 C 549.179688 235.191406 551.179688 240.925781 553.335938 244.15625 C 555.074219 246.765625 565.289062 245.195312 567.640625 244.796875 L 570.09375 253.964844 C 570.101562 253.988281 570.121094 254 570.132812 254.019531 C 567.777344 255.707031 567.445312 257.417969 567.421875 257.558594 C 567.417969 257.570312 567.421875 257.578125 567.421875 257.585938 C 555.207031 261.089844 545.359375 268.316406 539.253906 278.585938 C 529.621094 294.785156 518.226562 321.066406 516.800781 324.378906 L 515.589844 323.949219 C 515.589844 323.949219 515.589844 323.945312 515.589844 323.941406 L 515.589844 256.683594 C 515.589844 252.832031 512.457031 249.699219 508.605469 249.699219 L 456.746094 249.699219 L 456.746094 178.613281 C 456.746094 178.390625 456.570312 178.210938 456.347656 178.210938 L 345.351562 178.210938 C 345.128906 178.210938 344.953125 178.390625 344.953125 178.613281 L 344.953125 263.742188 C 344.953125 263.960938 345.128906 264.140625 345.351562 264.140625 L 377.941406 264.140625 C 378.40625 265.023438 378.9375 265.878906 379.535156 266.703125 C 379.535156 266.703125 379.535156 266.703125 379.53125 266.703125 L 355.355469 290.882812 C 353.765625 292.472656 353.664062 294.421875 355.097656 295.855469 C 355.769531 296.527344 356.558594 296.863281 357.371094 296.863281 C 358.28125 296.863281 359.226562 296.4375 360.066406 295.597656 L 384.246094 271.417969 C 387.914062 274.074219 392.253906 275.40625 396.589844 275.40625 C 397.664062 275.40625 398.734375 275.320312 399.796875 275.160156 L 399.796875 334.761719 C 399.796875 338.613281 402.929688 341.746094 406.78125 341.746094 L 447.066406 341.746094 L 437.417969 359.179688 C 437.390625 359.226562 437.378906 359.277344 437.371094 359.328125 L 429.207031 359.328125 C 427.914062 359.328125 426.859375 360.378906 426.859375 361.675781 L 426.859375 364.695312 L 382.507812 364.695312 C 382.285156 364.695312 382.105469 364.875 382.105469 365.097656 L 382.105469 371.445312 C 382.105469 371.667969 382.285156 371.84375 382.507812 371.84375 L 654.824219 371.84375 C 655.046875 371.84375 655.226562 371.667969 655.226562 371.445312 L 655.226562 333.871094 C 655.242188 333.863281 655.257812 333.867188 655.273438 333.859375 L 663.136719 329.59375 C 663.332031 329.488281 663.40625 329.246094 663.300781 329.050781 L 658.699219 320.566406 C 661.382812 318.199219 663.621094 315.445312 665.363281 312.363281 L 674.605469 315.105469 C 674.707031 315.136719 674.816406 315.125 674.910156 315.074219 C 675.003906 315.023438 675.070312 314.9375 675.101562 314.835938 L 678.972656 301.800781 C 679.035156 301.585938 678.914062 301.363281 678.703125 301.300781 Z M 568.320312 244.238281 C 568.265625 244.035156 568.0625 243.914062 567.863281 243.945312 C 563.128906 244.792969 555.179688 245.480469 554 243.710938 C 551.871094 240.515625 549.894531 234.800781 549.503906 230.699219 C 549.488281 230.558594 549.40625 230.4375 549.277344 230.375 C 547.886719 229.707031 545.746094 228.246094 545.914062 227.175781 C 546.125 225.832031 548.566406 222.992188 549.488281 222.011719 C 549.546875 221.949219 549.585938 221.867188 549.59375 221.78125 C 550.171875 216.464844 550.988281 212.144531 552.023438 208.914062 C 557.808594 211.105469 566.613281 212.300781 576.054688 211.304688 C 575.976562 212.953125 575.855469 218.441406 577.28125 221.980469 C 577.324219 222.085938 577.410156 222.167969 577.519531 222.207031 C 577.625 222.242188 577.746094 222.234375 577.84375 222.179688 C 578.078125 222.054688 583.582031 219.136719 587.199219 223.574219 C 588.785156 225.519531 588.925781 228.152344 587.558594 230.285156 C 586.183594 232.429688 583.050781 234.289062 578.382812 233.078125 C 578.21875 233.035156 578.050781 233.097656 577.953125 233.234375 C 577.859375 233.367188 577.855469 233.550781 577.949219 233.6875 L 579.628906 236.191406 C 581.585938 239.105469 584.339844 241.335938 587.589844 242.65625 L 589.957031 250.824219 C 588.546875 250.710938 586.980469 250.640625 585.21875 250.640625 C 577.679688 250.640625 573.328125 252.035156 570.816406 253.570312 Z M 516.886719 325.261719 C 517.082031 325.332031 517.304688 325.234375 517.390625 325.039062 C 517.511719 324.753906 529.726562 296.175781 539.941406 278.996094 C 552.074219 258.589844 574.21875 255.816406 586.308594 255.988281 L 587.351562 256 C 593.792969 256.070312 606.03125 256.203125 615.824219 262.046875 C 615.847656 262.066406 615.875 262.082031 615.902344 262.09375 C 624.0625 266.996094 630.5 275.882812 630.4375 292.03125 L 578.40625 292.03125 C 567.9375 292.03125 559.421875 300.546875 559.421875 311.019531 L 559.421875 371.046875 L 544.777344 371.046875 C 544.824219 370.980469 544.855469 370.90625 544.855469 370.816406 L 544.855469 340.402344 C 544.855469 340.222656 544.734375 340.066406 544.5625 340.019531 C 544.386719 339.972656 544.203125 340.046875 544.113281 340.199219 C 543.988281 340.414062 531.546875 361.34375 520.605469 361.953125 C 520.488281 361.960938 520.367188 361.960938 520.242188 361.960938 C 508.863281 361.960938 457 335.777344 452.183594 333.328125 L 465.484375 307.035156 Z M 631.238281 292.03125 C 631.257812 286.609375 630.5625 281.992188 629.328125 278.054688 C 633.722656 276.113281 638.671875 275.789062 643.269531 277.15625 C 653.984375 280.335938 660.113281 291.636719 656.933594 302.351562 C 656.433594 304.035156 655.722656 305.628906 654.820312 307.113281 C 653.015625 298.511719 645.371094 292.03125 636.238281 292.03125 Z M 403.300781 274.3125 C 406.292969 273.3125 409.101562 271.625 411.480469 269.25 C 413.023438 267.707031 414.277344 265.980469 415.238281 264.140625 L 456.347656 264.140625 C 456.570312 264.140625 456.75 263.960938 456.75 263.738281 L 456.75 253.488281 L 507.628906 253.488281 C 510 253.488281 511.929688 255.414062 511.929688 257.785156 L 511.929688 322.652344 L 501.429688 318.929688 L 501.429688 289.492188 C 501.429688 289.269531 501.25 289.089844 501.027344 289.089844 L 492.101562 289.089844 L 492.101562 276.832031 C 492.101562 275.226562 490.796875 273.921875 489.191406 273.921875 L 423.660156 273.921875 C 422.058594 273.921875 420.753906 275.226562 420.753906 276.832031 L 420.753906 336.085938 L 406.148438 336.085938 C 404.578125 336.085938 403.300781 334.808594 403.300781 333.238281 Z M 500.628906 289.890625 L 500.628906 318.648438 L 470.386719 307.925781 L 470.386719 289.890625 Z M 491.261719 276.429688 L 421.59375 276.429688 C 421.78125 275.460938 422.636719 274.722656 423.660156 274.722656 L 489.191406 274.722656 C 490.21875 274.722656 491.074219 275.460938 491.261719 276.429688 Z M 421.550781 277.230469 L 491.300781 277.230469 L 491.300781 289.089844 L 469.988281 289.089844 C 469.765625 289.089844 469.585938 289.269531 469.585938 289.492188 L 469.585938 307.640625 L 465.417969 306.164062 C 465.230469 306.09375 465.019531 306.179688 464.925781 306.359375 L 464.453125 307.296875 C 463.539062 306.289062 455.460938 297.472656 449.191406 292.753906 C 444.246094 289.03125 436.589844 287.703125 431.035156 287.242188 C 427.101562 286.914062 425.511719 288.316406 425.339844 289.617188 C 425.1875 290.761719 426.128906 292.199219 428.554688 292.640625 C 429.042969 292.730469 429.730469 292.828125 430.546875 292.941406 C 433.050781 293.292969 437.082031 293.859375 439.898438 294.953125 C 438.507812 294.65625 436.742188 294.363281 434.746094 294.222656 C 433.5625 294.144531 432.582031 294.578125 431.992188 295.457031 C 431.40625 296.328125 431.3125 297.523438 431.761719 298.4375 C 431.929688 298.773438 432.167969 299.046875 432.449219 299.25 C 431.941406 299.691406 431.527344 300.339844 431.441406 301.078125 C 431.378906 301.664062 431.492188 302.699219 432.78125 303.59375 C 432.417969 304.027344 431.738281 305.128906 431.796875 307.214844 C 431.855469 309.121094 433.167969 311.488281 439.101562 311.957031 C 439.113281 311.957031 439.128906 311.957031 439.140625 311.957031 C 439.175781 311.957031 439.210938 311.953125 439.242188 311.945312 C 439.6875 311.847656 440.039062 311.609375 440.257812 311.257812 C 440.539062 310.808594 440.546875 310.289062 440.519531 309.964844 C 441.257812 310.207031 442.058594 310.503906 442.964844 310.882812 C 443.679688 312.140625 448.644531 320.328125 456.996094 322.039062 L 451.289062 333.324219 C 451.1875 333.523438 451.265625 333.761719 451.464844 333.863281 C 451.820312 334.042969 453.40625 334.851562 455.867188 336.085938 L 421.550781 336.085938 Z M 457.441406 321.164062 C 448.867188 319.5625 443.777344 310.371094 443.726562 310.277344 C 443.671875 310.183594 443.589844 310.105469 443.492188 310.066406 C 440.023438 308.589844 437.96875 308.242188 435.644531 307.9375 C 435.382812 307.898438 435.140625 308.089844 435.105469 308.351562 C 435.070312 308.617188 435.257812 308.855469 435.519531 308.890625 C 436.839844 309.0625 438.074219 309.257812 439.542969 309.667969 C 439.527344 309.738281 439.523438 309.8125 439.539062 309.886719 C 439.570312 310.03125 439.621094 310.476562 439.445312 310.75 C 439.367188 310.867188 439.257812 310.945312 439.101562 310.992188 C 436.230469 310.753906 432.835938 309.898438 432.757812 307.1875 C 432.691406 304.949219 433.585938 304.128906 433.609375 304.105469 C 433.632812 304.085938 433.644531 304.0625 433.664062 304.039062 C 438.234375 304.667969 441.171875 305.679688 441.199219 305.691406 C 441.253906 305.707031 441.308594 305.71875 441.359375 305.71875 C 441.558594 305.71875 441.742188 305.59375 441.8125 305.394531 C 441.898438 305.144531 441.769531 304.871094 441.519531 304.785156 C 441.394531 304.742188 438.472656 303.730469 433.804688 303.089844 C 433.089844 302.71875 432.292969 302.09375 432.398438 301.183594 C 432.484375 300.421875 433.152344 299.796875 433.625 299.648438 C 439.027344 300.007812 441.257812 300.953125 441.28125 300.964844 C 441.34375 300.992188 441.40625 301.003906 441.472656 301.003906 C 441.65625 301.003906 441.832031 300.898438 441.914062 300.71875 C 442.019531 300.476562 441.910156 300.191406 441.667969 300.085938 C 441.574219 300.042969 439.269531 299.050781 433.59375 298.683594 C 433.046875 298.648438 432.765625 298.296875 432.625 298.011719 C 432.328125 297.410156 432.394531 296.578125 432.789062 295.992188 C 433.0625 295.582031 433.621094 295.109375 434.679688 295.183594 C 439.257812 295.503906 442.714844 296.691406 442.746094 296.703125 C 442.765625 296.710938 442.785156 296.707031 442.804688 296.710938 C 442.839844 296.71875 442.871094 296.726562 442.90625 296.722656 C 442.9375 296.722656 442.964844 296.71875 442.992188 296.714844 C 443.023438 296.707031 443.054688 296.703125 443.082031 296.691406 C 443.113281 296.675781 443.140625 296.660156 443.167969 296.640625 C 443.1875 296.628906 443.207031 296.625 443.222656 296.613281 C 443.230469 296.605469 443.230469 296.597656 443.238281 296.589844 C 443.261719 296.566406 443.277344 296.542969 443.296875 296.515625 C 443.316406 296.488281 443.332031 296.460938 443.34375 296.429688 C 443.347656 296.421875 443.355469 296.417969 443.359375 296.40625 C 443.367188 296.386719 443.363281 296.367188 443.367188 296.351562 C 443.375 296.316406 443.378906 296.285156 443.378906 296.25 C 443.378906 296.21875 443.375 296.191406 443.371094 296.160156 C 443.363281 296.128906 443.359375 296.101562 443.347656 296.074219 C 443.332031 296.042969 443.316406 296.015625 443.296875 295.988281 C 443.285156 295.96875 443.28125 295.949219 443.265625 295.933594 C 443.257812 295.921875 443.242188 295.910156 443.230469 295.898438 C 443.230469 295.898438 443.226562 295.894531 443.222656 295.890625 C 441.019531 293.4375 434.554688 292.535156 430.679688 291.992188 C 429.878906 291.878906 429.207031 291.785156 428.726562 291.699219 C 427 291.382812 426.195312 290.476562 426.289062 289.742188 C 426.414062 288.824219 427.925781 287.945312 430.957031 288.199219 C 436.382812 288.648438 443.851562 289.9375 448.613281 293.519531 C 455.164062 298.449219 463.746094 307.941406 463.832031 308.039062 C 463.882812 308.097656 463.949219 308.132812 464.015625 308.160156 Z M 508.605469 250.5 C 512.015625 250.5 514.792969 253.273438 514.792969 256.683594 L 514.792969 323.667969 L 512.652344 322.910156 C 512.699219 322.847656 512.730469 322.773438 512.730469 322.6875 L 512.730469 257.785156 C 512.730469 254.972656 510.441406 252.6875 507.628906 252.6875 L 456.75 252.6875 L 456.75 250.5 Z M 345.75 263.339844 L 345.75 179.011719 L 455.949219 179.011719 L 455.949219 263.339844 L 415.632812 263.339844 C 416.804688 260.847656 417.464844 258.175781 417.605469 255.480469 L 446.472656 255.480469 C 446.691406 255.480469 446.871094 255.300781 446.871094 255.078125 L 446.871094 248.496094 C 446.871094 248.273438 446.691406 248.09375 446.472656 248.09375 L 416.683594 248.09375 C 415.929688 245.65625 414.722656 243.332031 413.066406 241.25 L 446.472656 241.25 C 446.691406 241.25 446.871094 241.074219 446.871094 240.851562 L 446.871094 228.308594 C 446.871094 228.089844 446.691406 227.910156 446.472656 227.910156 L 377.332031 227.910156 C 377.113281 227.910156 376.933594 228.089844 376.933594 228.308594 L 376.933594 240.851562 C 376.933594 241.074219 377.113281 241.25 377.332031 241.25 L 380.117188 241.25 C 378.457031 243.332031 377.253906 245.65625 376.496094 248.09375 L 355.550781 248.09375 C 355.332031 248.09375 355.152344 248.273438 355.152344 248.496094 L 355.152344 255.078125 C 355.152344 255.300781 355.332031 255.480469 355.550781 255.480469 L 375.578125 255.480469 C 375.71875 258.175781 376.375 260.851562 377.546875 263.339844 Z M 416.914062 248.894531 L 446.070312 248.894531 L 446.070312 254.679688 L 417.628906 254.679688 C 417.660156 252.734375 417.421875 250.785156 416.914062 248.894531 Z M 380.789062 240.453125 L 377.734375 240.453125 L 377.734375 228.710938 L 446.070312 228.710938 L 446.070312 240.453125 L 412.394531 240.453125 C 412.101562 240.117188 411.796875 239.789062 411.480469 239.472656 C 403.269531 231.261719 389.914062 231.261719 381.703125 239.472656 C 381.382812 239.789062 381.082031 240.117188 380.789062 240.453125 Z M 375.554688 254.679688 L 355.953125 254.679688 L 355.953125 248.894531 L 376.269531 248.894531 C 375.761719 250.785156 375.523438 252.734375 375.554688 254.679688 Z M 359.5 295.03125 C 358.21875 296.3125 356.78125 296.410156 355.664062 295.289062 C 354.542969 294.167969 354.636719 292.730469 355.917969 291.449219 L 367.25 280.121094 L 370.832031 283.703125 Z M 380.023438 267.347656 C 380.539062 268.003906 381.097656 268.640625 381.703125 269.25 C 382.308594 269.855469 382.945312 270.410156 383.605469 270.929688 L 371.394531 283.136719 L 367.816406 279.554688 M 382.269531 268.683594 C 374.371094 260.785156 374.371094 247.933594 382.269531 240.035156 C 386.214844 236.089844 391.40625 234.113281 396.589844 234.113281 C 401.777344 234.113281 406.964844 236.089844 410.914062 240.035156 C 418.8125 247.933594 418.8125 260.785156 410.914062 268.683594 C 408.570312 271.027344 405.785156 272.671875 402.828125 273.625 C 402.789062 273.632812 402.75 273.640625 402.71875 273.660156 C 395.738281 275.863281 387.792969 274.207031 382.269531 268.683594 Z M 400.597656 334.761719 L 400.597656 275.023438 C 401.238281 274.902344 401.871094 274.746094 402.5 274.5625 L 402.5 333.238281 C 402.5 335.25 404.136719 336.882812 406.148438 336.882812 L 456.9375 336.882812 C 457.050781 336.882812 457.148438 336.835938 457.222656 336.761719 C 459.539062 337.917969 462.433594 339.347656 465.714844 340.945312 L 406.78125 340.945312 C 403.371094 340.945312 400.597656 338.171875 400.597656 334.761719 Z M 447.894531 341.902344 L 465.167969 341.902344 L 455.605469 359.179688 C 455.578125 359.226562 455.5625 359.277344 455.558594 359.328125 L 438.25 359.328125 Z M 427.660156 361.675781 C 427.660156 360.820312 428.355469 360.125 429.207031 360.125 L 464.511719 360.125 C 465.367188 360.125 466.058594 360.820312 466.058594 361.675781 L 466.058594 364.65625 L 427.660156 364.65625 Z M 464.511719 359.328125 L 456.4375 359.328125 L 466.167969 341.746094 L 467.363281 341.746094 C 485.058594 350.3125 512.160156 362.761719 520.261719 362.761719 C 520.398438 362.761719 520.527344 362.757812 520.648438 362.75 C 530.570312 362.199219 541.171875 346.421875 544.054688 341.824219 L 544.054688 364.695312 L 466.859375 364.695312 L 466.859375 361.675781 C 466.859375 360.378906 465.808594 359.328125 464.511719 359.328125 Z M 382.90625 365.496094 L 544.054688 365.496094 L 544.054688 370.816406 C 544.054688 370.90625 544.089844 370.980469 544.136719 371.046875 L 382.90625 371.046875 Z M 654.425781 371.046875 L 560.21875 371.046875 L 560.21875 311.019531 C 560.21875 300.988281 568.378906 292.832031 578.40625 292.832031 L 636.238281 292.832031 C 645.261719 292.832031 652.769531 299.441406 654.183594 308.070312 C 654.089844 308.207031 654.007812 308.347656 653.910156 308.484375 C 653.78125 308.660156 653.820312 308.910156 654 309.042969 C 654.070312 309.09375 654.152344 309.117188 654.234375 309.117188 C 654.265625 309.117188 654.292969 309.105469 654.324219 309.097656 C 654.390625 309.726562 654.425781 310.367188 654.425781 311.019531 Z M 674.449219 314.226562 L 665.285156 311.503906 C 665.101562 311.453125 664.910156 311.53125 664.820312 311.695312 C 663.050781 314.898438 660.734375 317.753906 657.933594 320.171875 C 657.792969 320.296875 657.753906 320.5 657.84375 320.667969 L 662.40625 329.082031 L 655.226562 332.972656 L 655.226562 311.019531 C 655.226562 310.078125 655.15625 309.15625 655.023438 308.253906 C 656.1875 306.507812 657.097656 304.609375 657.699219 302.578125 C 661.003906 291.441406 654.632812 279.695312 643.5 276.386719 C 638.742188 274.976562 633.632812 275.300781 629.082031 277.292969 C 626.578125 269.902344 622.125 264.996094 616.933594 261.738281 L 623.855469 257.984375 L 628.417969 266.398438 C 628.507812 266.5625 628.703125 266.644531 628.882812 266.59375 C 632.4375 265.566406 636.09375 265.179688 639.742188 265.445312 C 639.925781 265.457031 640.101562 265.339844 640.15625 265.160156 L 642.875 255.996094 L 655.148438 259.640625 L 652.425781 268.804688 C 652.375 268.984375 652.453125 269.175781 652.617188 269.265625 C 655.820312 271.035156 658.671875 273.355469 661.09375 276.15625 C 661.21875 276.296875 661.421875 276.335938 661.585938 276.246094 L 670.003906 271.683594 L 676.105469 282.933594 L 667.6875 287.496094 C 667.523438 287.585938 667.445312 287.78125 667.496094 287.960938 C 668.523438 291.519531 668.90625 295.171875 668.640625 298.820312 C 668.628906 299.007812 668.746094 299.179688 668.925781 299.234375 L 678.089844 301.953125 Z M 493.273438 203.996094 C 493.273438 205.953125 494.867188 207.546875 496.824219 207.546875 C 498.78125 207.546875 500.371094 205.953125 500.371094 203.996094 C 500.371094 202.039062 498.78125 200.445312 496.824219 200.445312 C 494.867188 200.445312 493.273438 202.039062 493.273438 203.996094 Z M 499.574219 203.996094 C 499.574219 205.511719 498.339844 206.746094 496.824219 206.746094 C 495.308594 206.746094 494.074219 205.511719 494.074219 203.996094 C 494.074219 202.480469 495.308594 201.246094 496.824219 201.246094 C 498.339844 201.246094 499.574219 202.480469 499.574219 203.996094 Z M 490.925781 215.402344 C 490.925781 215.625 491.101562 215.800781 491.324219 215.800781 L 502.324219 215.800781 C 502.542969 215.800781 502.722656 215.625 502.722656 215.402344 C 502.722656 211.796875 500.078125 208.867188 496.824219 208.867188 C 493.570312 208.867188 490.925781 211.796875 490.925781 215.402344 Z M 501.910156 215.003906 L 491.738281 215.003906 C 491.917969 212.023438 494.132812 209.667969 496.824219 209.667969 C 499.515625 209.667969 501.726562 212.023438 501.910156 215.003906 Z M 482.105469 208.125 C 482.105469 216.238281 488.707031 222.84375 496.824219 222.84375 C 504.9375 222.84375 511.542969 216.238281 511.542969 208.125 C 511.542969 200.007812 504.9375 193.40625 496.824219 193.40625 C 488.707031 193.40625 482.105469 200.007812 482.105469 208.125 Z M 510.742188 208.125 C 510.742188 215.800781 504.496094 222.042969 496.824219 222.042969 C 489.148438 222.042969 482.90625 215.800781 482.90625 208.125 C 482.90625 200.449219 489.148438 194.207031 496.824219 194.207031 C 504.496094 194.207031 510.742188 200.449219 510.742188 208.125 Z M 361.8125 201.117188 C 365.492188 201.117188 368.484375 198.125 368.484375 194.445312 C 368.484375 190.765625 365.492188 187.773438 361.8125 187.773438 C 358.132812 187.773438 355.140625 190.765625 355.140625 194.445312 C 355.140625 198.125 358.136719 201.117188 361.8125 201.117188 Z M 377.332031 201.117188 L 446.472656 201.117188 C 446.691406 201.117188 446.871094 200.9375 446.871094 200.714844 L 446.871094 188.175781 C 446.871094 187.953125 446.691406 187.773438 446.472656 187.773438 L 377.332031 187.773438 C 377.113281 187.773438 376.933594 187.953125 376.933594 188.175781 L 376.933594 200.714844 C 376.933594 200.9375 377.113281 201.117188 377.332031 201.117188 Z M 377.734375 188.574219 L 446.070312 188.574219 L 446.070312 200.316406 L 377.734375 200.316406 Z M 361.8125 221.183594 C 365.492188 221.183594 368.484375 218.191406 368.484375 214.511719 C 368.484375 210.835938 365.492188 207.84375 361.8125 207.84375 C 358.132812 207.84375 355.140625 210.835938 355.140625 214.511719 C 355.140625 218.191406 358.136719 221.183594 361.8125 221.183594 Z M 377.332031 221.183594 L 446.472656 221.183594 C 446.691406 221.183594 446.871094 221.003906 446.871094 220.785156 L 446.871094 208.242188 C 446.871094 208.019531 446.691406 207.84375 446.472656 207.84375 L 377.332031 207.84375 C 377.113281 207.84375 376.933594 208.019531 376.933594 208.242188 L 376.933594 220.785156 C 376.933594 221.003906 377.113281 221.183594 377.332031 221.183594 Z M 377.734375 208.640625 L 446.070312 208.640625 L 446.070312 220.382812 L 377.734375 220.382812 Z M 361.8125 241.25 C 365.492188 241.25 368.484375 238.257812 368.484375 234.582031 C 368.484375 230.902344 365.492188 227.910156 361.8125 227.910156 C 358.132812 227.910156 355.140625 230.902344 355.140625 234.582031 C 355.140625 238.257812 358.136719 241.25 361.8125 241.25 Z M 502.679688 261.679688 C 502.757812 261.757812 502.859375 261.796875 502.960938 261.796875 C 503.0625 261.796875 503.167969 261.757812 503.246094 261.679688 L 504.457031 260.464844 L 505.671875 261.679688 C 505.75 261.757812 505.851562 261.796875 505.957031 261.796875 C 506.058594 261.796875 506.160156 261.757812 506.238281 261.679688 C 506.394531 261.523438 506.394531 261.269531 506.238281 261.113281 L 505.023438 259.898438 L 506.238281 258.6875 C 506.394531 258.53125 506.394531 258.277344 506.238281 258.121094 C 506.082031 257.964844 505.828125 257.964844 505.671875 258.121094 L 504.457031 259.335938 L 503.246094 258.121094 C 503.089844 257.964844 502.835938 257.964844 502.679688 258.121094 C 502.523438 258.277344 502.523438 258.53125 502.679688 258.6875 L 503.894531 259.898438 L 502.679688 261.113281 C 502.523438 261.269531 502.523438 261.523438 502.679688 261.679688 Z M 444.394531 163.613281 L 501.347656 163.613281 L 526.066406 178.328125 C 526.128906 178.367188 526.199219 178.382812 526.269531 178.382812 C 526.355469 178.382812 526.441406 178.355469 526.511719 178.304688 C 526.640625 178.203125 526.699219 178.035156 526.65625 177.878906 L 522.765625 163.523438 C 530.859375 162.734375 537.132812 155.875 537.132812 147.695312 C 537.132812 138.914062 529.992188 131.773438 521.214844 131.773438 L 444.394531 131.773438 C 435.617188 131.773438 428.472656 138.914062 428.472656 147.695312 C 428.472656 156.472656 435.617188 163.613281 444.394531 163.613281 Z M 444.394531 132.574219 L 521.214844 132.574219 C 529.550781 132.574219 536.335938 139.355469 536.335938 147.695312 C 536.335938 155.621094 530.136719 162.238281 522.226562 162.761719 C 522.105469 162.769531 521.996094 162.832031 521.925781 162.929688 C 521.859375 163.027344 521.835938 163.152344 521.867188 163.265625 L 525.625 177.136719 L 501.664062 162.871094 C 501.601562 162.835938 501.53125 162.816406 501.457031 162.816406 L 444.394531 162.816406 C 436.054688 162.816406 429.273438 156.03125 429.273438 147.695312 C 429.273438 139.355469 436.054688 132.574219 444.394531 132.574219 Z M 578.574219 121.644531 L 592.617188 121.644531 C 592.835938 121.644531 593.015625 121.464844 593.015625 121.246094 C 593.015625 113.28125 586.539062 106.804688 578.574219 106.804688 C 578.355469 106.804688 578.175781 106.984375 578.175781 107.207031 L 578.175781 121.246094 C 578.175781 121.464844 578.355469 121.644531 578.574219 121.644531 Z M 578.976562 107.609375 C 586.179688 107.820312 592 113.640625 592.210938 120.84375 L 578.976562 120.84375 Z M 575.78125 138.480469 C 583.742188 138.480469 590.21875 132.003906 590.21875 124.039062 C 590.21875 123.820312 590.042969 123.640625 589.820312 123.640625 L 576.179688 123.640625 L 576.179688 110 C 576.179688 109.777344 576.003906 109.601562 575.78125 109.601562 C 567.820312 109.601562 561.339844 116.078125 561.339844 124.039062 C 561.339844 132.003906 567.820312 138.480469 575.78125 138.480469 Z M 577.179688 145.664062 C 589.871094 145.664062 600.199219 135.335938 600.199219 122.640625 C 600.199219 109.949219 589.871094 99.625 577.179688 99.625 C 564.484375 99.625 554.160156 109.949219 554.160156 122.640625 C 554.160156 135.335938 564.484375 145.664062 577.179688 145.664062 Z M 577.179688 100.421875 C 589.429688 100.421875 599.398438 110.390625 599.398438 122.640625 C 599.398438 134.894531 589.429688 144.863281 577.179688 144.863281 C 564.925781 144.863281 554.960938 134.894531 554.960938 122.640625 C 554.960938 110.390625 564.925781 100.421875 577.179688 100.421875 Z M 407.9375 243.015625 C 401.679688 236.757812 391.5 236.757812 385.246094 243.015625 C 378.992188 249.269531 378.992188 259.449219 385.246094 265.703125 C 388.375 268.832031 392.484375 270.394531 396.589844 270.394531 C 400.699219 270.394531 404.808594 268.832031 407.9375 265.703125 C 414.191406 259.449219 414.191406 249.269531 407.9375 243.015625 Z M 402.5 264.140625 L 402.5 268.402344 C 401.878906 268.664062 401.242188 268.878906 400.597656 269.050781 L 400.597656 264.140625 Z M 384.300781 263.339844 C 384.296875 263.339844 384.296875 263.339844 384.296875 263.339844 C 382.578125 260.988281 381.609375 258.261719 381.40625 255.480469 L 411.773438 255.480469 C 411.570312 258.261719 410.605469 260.988281 408.886719 263.339844 Z M 402.792969 240.453125 L 390.390625 240.453125 C 392.359375 239.578125 394.472656 239.125 396.589844 239.125 C 398.710938 239.125 400.824219 239.578125 402.792969 240.453125 Z M 385.8125 243.582031 C 386.738281 242.652344 387.765625 241.890625 388.84375 241.25 L 404.300781 241.25 C 404.308594 241.25 404.320312 241.246094 404.328125 241.246094 C 405.414062 241.882812 406.441406 242.652344 407.371094 243.582031 C 408.710938 244.921875 409.734375 246.460938 410.46875 248.09375 L 382.714844 248.09375 C 383.449219 246.460938 384.472656 244.921875 385.8125 243.582031 Z M 382.375 248.894531 L 410.808594 248.894531 C 411.519531 250.75 411.851562 252.714844 411.8125 254.679688 L 381.371094 254.679688 C 381.328125 252.714844 381.664062 250.75 382.375 248.894531 Z M 385.8125 265.140625 C 385.492188 264.816406 385.195312 264.480469 384.910156 264.140625 L 399.796875 264.140625 L 399.796875 269.246094 C 394.90625 270.292969 389.601562 268.929688 385.8125 265.140625 Z M 403.300781 268.03125 L 403.300781 264.140625 L 408.273438 264.140625 C 407.984375 264.480469 407.691406 264.816406 407.371094 265.136719 C 406.152344 266.359375 404.769531 267.3125 403.300781 268.03125 Z M 444.269531 153.820312 C 444.550781 153.847656 449.390625 154.359375 453.078125 152.441406 C 454.089844 153.175781 455.523438 153.648438 457.300781 153.820312 C 459.351562 154.015625 461.714844 153.574219 463.734375 152.457031 C 465.015625 153.390625 466.875 153.910156 468.980469 153.910156 C 469.191406 153.910156 469.402344 153.90625 469.621094 153.894531 C 471.21875 153.816406 472.652344 153.410156 473.839844 152.730469 C 474.242188 152.9375 474.691406 153.113281 475.175781 153.246094 C 477.703125 153.945312 481.621094 153.339844 482.890625 151.519531 C 483.019531 151.335938 482.972656 151.085938 482.792969 150.960938 C 482.609375 150.835938 482.363281 150.882812 482.234375 151.0625 C 481.261719 152.460938 477.871094 153.160156 475.390625 152.476562 C 475.117188 152.402344 474.863281 152.3125 474.621094 152.210938 C 475.679688 151.414062 476.476562 150.359375 476.9375 149.097656 C 477.816406 146.683594 477.25 145.515625 476.835938 145.035156 C 476.386719 144.515625 475.707031 144.304688 474.972656 144.457031 C 473.882812 144.683594 472.445312 145.777344 471.6875 148.171875 C 471.378906 149.144531 471.457031 150.101562 471.910156 150.9375 C 472.175781 151.425781 472.566406 151.867188 473.054688 152.238281 C 472.054688 152.734375 470.878906 153.03125 469.582031 153.097656 C 467.546875 153.191406 465.734375 152.796875 464.480469 152 C 465.820312 151.101562 466.953125 149.875 467.664062 148.3125 C 468.953125 145.480469 469.144531 143.195312 468.191406 142.039062 C 467.710938 141.460938 466.972656 141.238281 466.167969 141.433594 C 464.753906 141.777344 462.804688 143.53125 461.972656 147.339844 C 461.597656 149.058594 461.898438 150.511719 462.863281 151.65625 C 462.933594 151.738281 463.011719 151.820312 463.089844 151.898438 C 461.277344 152.832031 459.203125 153.203125 457.378906 153.023438 C 455.914062 152.882812 454.71875 152.53125 453.84375 151.992188 C 455.007812 151.234375 455.996094 150.183594 456.601562 148.734375 C 457.402344 146.816406 457.425781 145.203125 456.667969 144.300781 C 456.210938 143.757812 455.519531 143.542969 454.777344 143.710938 C 453.65625 143.964844 452.210938 145.183594 451.523438 147.828125 C 451.175781 149.179688 451.359375 150.421875 452.058594 151.417969 C 452.164062 151.570312 452.285156 151.714844 452.414062 151.855469 C 448.929688 153.503906 444.421875 153.03125 444.359375 153.023438 C 444.144531 153 443.941406 153.15625 443.917969 153.375 C 443.890625 153.597656 444.050781 153.792969 444.269531 153.820312 Z M 472.613281 150.554688 C 472.261719 149.90625 472.207031 149.183594 472.449219 148.410156 C 473.105469 146.34375 474.304688 145.410156 475.132812 145.242188 C 475.238281 145.21875 475.335938 145.210938 475.433594 145.210938 C 475.753906 145.210938 476.03125 145.328125 476.230469 145.558594 C 476.742188 146.148438 476.722656 147.339844 476.183594 148.824219 C 475.734375 150.054688 474.917969 151.066406 473.820312 151.796875 C 473.285156 151.453125 472.875 151.03125 472.613281 150.554688 Z M 462.753906 147.507812 C 463.457031 144.28125 465.070312 142.523438 466.359375 142.210938 C 466.472656 142.183594 466.601562 142.164062 466.734375 142.164062 C 467.019531 142.164062 467.328125 142.253906 467.574219 142.550781 C 468.144531 143.242188 468.277344 145.03125 466.9375 147.980469 C 466.25 149.492188 465.128906 150.65625 463.8125 151.488281 C 463.691406 151.375 463.578125 151.257812 463.476562 151.136719 C 462.675781 150.195312 462.433594 148.972656 462.753906 147.507812 Z M 452.300781 148.03125 C 452.894531 145.726562 454.101562 144.6875 454.957031 144.492188 C 455.0625 144.46875 455.167969 144.457031 455.265625 144.457031 C 455.582031 144.457031 455.859375 144.578125 456.054688 144.8125 C 456.605469 145.46875 456.535156 146.820312 455.863281 148.425781 C 455.292969 149.796875 454.308594 150.773438 453.148438 151.460938 C 452.984375 151.304688 452.839844 151.136719 452.714844 150.960938 C 452.15625 150.160156 452.011719 149.148438 452.300781 148.03125 Z M 491.484375 142.191406 L 521.292969 142.191406 C 521.515625 142.191406 521.695312 142.011719 521.695312 141.792969 C 521.695312 141.570312 521.515625 141.390625 521.292969 141.390625 L 491.484375 141.390625 C 491.265625 141.390625 491.085938 141.570312 491.085938 141.792969 C 491.085938 142.011719 491.265625 142.191406 491.484375 142.191406 Z M 491.484375 148.109375 L 521.292969 148.109375 C 521.515625 148.109375 521.695312 147.929688 521.695312 147.707031 C 521.695312 147.488281 521.515625 147.308594 521.292969 147.308594 L 491.484375 147.308594 C 491.265625 147.308594 491.085938 147.488281 491.085938 147.707031 C 491.085938 147.929688 491.265625 148.109375 491.484375 148.109375 Z M 491.484375 154.023438 L 521.292969 154.023438 C 521.515625 154.023438 521.695312 153.847656 521.695312 153.625 C 521.695312 153.402344 521.515625 153.226562 521.292969 153.226562 L 491.484375 153.226562 C 491.265625 153.226562 491.085938 153.402344 491.085938 153.625 C 491.085938 153.847656 491.265625 154.023438 491.484375 154.023438 Z M 472.738281 296.90625 C 472.738281 294.199219 473.878906 292.308594 476.222656 292.308594 C 478.152344 292.308594 479.253906 293.359375 479.253906 295.277344 C 479.253906 296.722656 478.828125 298.480469 477.457031 298.480469 C 476.898438 298.480469 476.617188 298.21875 476.535156 297.804688 C 476.324219 298.230469 475.960938 298.480469 475.527344 298.480469 C 474.796875 298.480469 474.484375 298.027344 474.484375 297.320312 C 474.484375 297.230469 474.496094 297.128906 474.503906 297.027344 L 474.636719 295.691406 C 474.726562 294.761719 475.171875 294.359375 475.789062 294.359375 C 476.234375 294.359375 476.535156 294.550781 476.707031 294.863281 L 476.75 294.460938 L 477.726562 294.460938 L 477.425781 297.1875 C 477.414062 297.269531 477.414062 297.28125 477.414062 297.308594 C 477.414062 297.472656 477.484375 297.574219 477.667969 297.574219 C 478.195312 297.574219 478.414062 296.230469 478.414062 295.257812 C 478.414062 293.945312 477.609375 293.167969 476.253906 293.167969 C 474.355469 293.167969 473.6875 294.785156 473.6875 297.007812 C 473.6875 298.664062 474.648438 299.542969 476.292969 299.542969 C 476.929688 299.542969 477.496094 299.402344 478.113281 298.945312 L 478.03125 299.917969 C 477.464844 300.269531 476.898438 300.390625 476.273438 300.390625 C 474.050781 300.390625 472.738281 299.148438 472.738281 296.90625 Z M 476.507812 296.84375 L 476.597656 295.957031 L 476.597656 295.886719 C 476.597656 295.472656 476.425781 295.207031 476.082031 295.207031 C 475.757812 295.207031 475.625 295.480469 475.597656 295.8125 L 475.476562 296.996094 C 475.464844 297.046875 475.464844 297.097656 475.464844 297.136719 C 475.464844 297.429688 475.585938 297.621094 475.898438 297.621094 C 476.191406 297.621094 476.445312 297.410156 476.507812 296.84375 Z M 476.507812 296.84375 " fill-opacity="1" fill-rule="nonzero"/></g></svg>