<svg xmlns="http://www.w3.org/2000/svg" xmlns:xlink="http://www.w3.org/1999/xlink" width="1366" zoomAndPan="magnify" viewBox="0 0 1024.5 471.749988" height="629" preserveAspectRatio="xMidYMid meet" version="1.0"><defs><filter x="0%" y="0%" width="100%" height="100%" id="962433805b"><feColorMatrix values="0 0 0 0 1 0 0 0 0 1 0 0 0 0 1 0 0 0 1 0" color-interpolation-filters="sRGB"/></filter><g/><mask id="7f37ed5f47"><g filter="url(#962433805b)"><rect x="-102.45" width="1229.4" fill="#000000" y="-47.174999" height="566.099986" fill-opacity="0.24"/></g></mask><clipPath id="7d9aee9569"><path d="M 0.460938 0.671875 L 291.21875 0.671875 L 291.21875 102.359375 L 0.460938 102.359375 Z M 0.460938 0.671875 " clip-rule="nonzero"/></clipPath><clipPath id="afd9fc993b"><path d="M 12.457031 0.671875 L 279.421875 0.671875 C 282.605469 0.671875 285.652344 1.9375 287.902344 4.1875 C 290.152344 6.433594 291.417969 9.484375 291.417969 12.667969 L 291.417969 90.363281 C 291.417969 93.546875 290.152344 96.597656 287.902344 98.84375 C 285.652344 101.09375 282.605469 102.359375 279.421875 102.359375 L 12.457031 102.359375 C 9.273438 102.359375 6.222656 101.09375 3.976562 98.84375 C 1.726562 96.597656 0.460938 93.546875 0.460938 90.363281 L 0.460938 12.667969 C 0.460938 9.484375 1.726562 6.433594 3.976562 4.1875 C 6.222656 1.9375 9.273438 0.671875 12.457031 0.671875 Z M 12.457031 0.671875 " clip-rule="nonzero"/></clipPath><linearGradient x1="0.00530767" gradientTransform="matrix(0.39721, 0, 0, 0.39721, 0.459784, 0.672736)" y1="128" x2="732.005317" gradientUnits="userSpaceOnUse" y2="128" id="9ba69ce305"><stop stop-opacity="1" stop-color="rgb(54.899597%, 32.199097%, 99.998474%)" offset="0"/><stop stop-opacity="1" stop-color="rgb(54.824829%, 32.417297%, 99.960327%)" offset="0.00390625"/><stop stop-opacity="1" stop-color="rgb(54.751587%, 32.637024%, 99.92218%)" offset="0.0078125"/><stop stop-opacity="1" stop-color="rgb(54.678345%, 32.855225%, 99.884033%)" offset="0.0117188"/><stop stop-opacity="1" stop-color="rgb(54.605103%, 33.073425%, 99.845886%)" offset="0.015625"/><stop stop-opacity="1" stop-color="rgb(54.53186%, 33.291626%, 99.807739%)" offset="0.0195312"/><stop stop-opacity="1" stop-color="rgb(54.458618%, 33.511353%, 99.769592%)" offset="0.0234375"/><stop stop-opacity="1" stop-color="rgb(54.385376%, 33.729553%, 99.731445%)" offset="0.0273438"/><stop stop-opacity="1" stop-color="rgb(54.312134%, 33.947754%, 99.693298%)" offset="0.03125"/><stop stop-opacity="1" stop-color="rgb(54.238892%, 34.165955%, 99.655151%)" offset="0.0351563"/><stop stop-opacity="1" stop-color="rgb(54.165649%, 34.385681%, 99.617004%)" offset="0.0390625"/><stop stop-opacity="1" stop-color="rgb(54.092407%, 34.603882%, 99.578857%)" offset="0.0429688"/><stop stop-opacity="1" stop-color="rgb(54.019165%, 34.823608%, 99.54071%)" offset="0.046875"/><stop stop-opacity="1" stop-color="rgb(53.944397%, 35.041809%, 99.501038%)" offset="0.0507812"/><stop stop-opacity="1" stop-color="rgb(53.871155%, 35.26001%, 99.462891%)" offset="0.0546875"/><stop stop-opacity="1" stop-color="rgb(53.797913%, 35.47821%, 99.424744%)" offset="0.0585938"/><stop stop-opacity="1" stop-color="rgb(53.72467%, 35.697937%, 99.386597%)" offset="0.0625"/><stop stop-opacity="1" stop-color="rgb(53.651428%, 35.916138%, 99.34845%)" offset="0.0664063"/><stop stop-opacity="1" stop-color="rgb(53.578186%, 36.134338%, 99.310303%)" offset="0.0703125"/><stop stop-opacity="1" stop-color="rgb(53.504944%, 36.352539%, 99.272156%)" offset="0.0742188"/><stop stop-opacity="1" stop-color="rgb(53.431702%, 36.572266%, 99.234009%)" offset="0.078125"/><stop stop-opacity="1" stop-color="rgb(53.358459%, 36.790466%, 99.195862%)" offset="0.0820312"/><stop stop-opacity="1" stop-color="rgb(53.285217%, 37.008667%, 99.157715%)" offset="0.0859375"/><stop stop-opacity="1" stop-color="rgb(53.210449%, 37.226868%, 99.119568%)" offset="0.0898438"/><stop stop-opacity="1" stop-color="rgb(53.137207%, 37.446594%, 99.081421%)" offset="0.09375"/><stop stop-opacity="1" stop-color="rgb(53.063965%, 37.664795%, 99.043274%)" offset="0.0976562"/><stop stop-opacity="1" stop-color="rgb(52.990723%, 37.882996%, 99.005127%)" offset="0.101562"/><stop stop-opacity="1" stop-color="rgb(52.91748%, 38.101196%, 98.965454%)" offset="0.105469"/><stop stop-opacity="1" stop-color="rgb(52.844238%, 38.320923%, 98.927307%)" offset="0.109375"/><stop stop-opacity="1" stop-color="rgb(52.770996%, 38.539124%, 98.88916%)" offset="0.113281"/><stop stop-opacity="1" stop-color="rgb(52.697754%, 38.757324%, 98.851013%)" offset="0.117188"/><stop stop-opacity="1" stop-color="rgb(52.624512%, 38.975525%, 98.812866%)" offset="0.121094"/><stop stop-opacity="1" stop-color="rgb(52.55127%, 39.195251%, 98.774719%)" offset="0.125"/><stop stop-opacity="1" stop-color="rgb(52.476501%, 39.413452%, 98.736572%)" offset="0.128906"/><stop stop-opacity="1" stop-color="rgb(52.403259%, 39.631653%, 98.698425%)" offset="0.132812"/><stop stop-opacity="1" stop-color="rgb(52.330017%, 39.849854%, 98.660278%)" offset="0.136719"/><stop stop-opacity="1" stop-color="rgb(52.256775%, 40.06958%, 98.622131%)" offset="0.140625"/><stop stop-opacity="1" stop-color="rgb(52.183533%, 40.287781%, 98.583984%)" offset="0.144531"/><stop stop-opacity="1" stop-color="rgb(52.110291%, 40.505981%, 98.545837%)" offset="0.148438"/><stop stop-opacity="1" stop-color="rgb(52.037048%, 40.724182%, 98.50769%)" offset="0.152344"/><stop stop-opacity="1" stop-color="rgb(51.963806%, 40.943909%, 98.469543%)" offset="0.15625"/><stop stop-opacity="1" stop-color="rgb(51.890564%, 41.162109%, 98.429871%)" offset="0.160156"/><stop stop-opacity="1" stop-color="rgb(51.817322%, 41.38031%, 98.391724%)" offset="0.164062"/><stop stop-opacity="1" stop-color="rgb(51.742554%, 41.598511%, 98.353577%)" offset="0.167969"/><stop stop-opacity="1" stop-color="rgb(51.669312%, 41.818237%, 98.31543%)" offset="0.171875"/><stop stop-opacity="1" stop-color="rgb(51.596069%, 42.036438%, 98.277283%)" offset="0.175781"/><stop stop-opacity="1" stop-color="rgb(51.522827%, 42.254639%, 98.239136%)" offset="0.179688"/><stop stop-opacity="1" stop-color="rgb(51.449585%, 42.472839%, 98.200989%)" offset="0.183594"/><stop stop-opacity="1" stop-color="rgb(51.376343%, 42.692566%, 98.162842%)" offset="0.1875"/><stop stop-opacity="1" stop-color="rgb(51.303101%, 42.910767%, 98.124695%)" offset="0.191406"/><stop stop-opacity="1" stop-color="rgb(51.229858%, 43.130493%, 98.086548%)" offset="0.195313"/><stop stop-opacity="1" stop-color="rgb(51.156616%, 43.348694%, 98.048401%)" offset="0.199219"/><stop stop-opacity="1" stop-color="rgb(51.083374%, 43.566895%, 98.010254%)" offset="0.203125"/><stop stop-opacity="1" stop-color="rgb(51.010132%, 43.785095%, 97.972107%)" offset="0.207031"/><stop stop-opacity="1" stop-color="rgb(50.93689%, 44.004822%, 97.93396%)" offset="0.210938"/><stop stop-opacity="1" stop-color="rgb(50.862122%, 44.223022%, 97.894287%)" offset="0.214844"/><stop stop-opacity="1" stop-color="rgb(50.788879%, 44.441223%, 97.85614%)" offset="0.21875"/><stop stop-opacity="1" stop-color="rgb(50.715637%, 44.659424%, 97.817993%)" offset="0.222656"/><stop stop-opacity="1" stop-color="rgb(50.642395%, 44.87915%, 97.779846%)" offset="0.226563"/><stop stop-opacity="1" stop-color="rgb(50.569153%, 45.097351%, 97.741699%)" offset="0.230469"/><stop stop-opacity="1" stop-color="rgb(50.495911%, 45.315552%, 97.703552%)" offset="0.234375"/><stop stop-opacity="1" stop-color="rgb(50.422668%, 45.533752%, 97.665405%)" offset="0.238281"/><stop stop-opacity="1" stop-color="rgb(50.349426%, 45.753479%, 97.627258%)" offset="0.242188"/><stop stop-opacity="1" stop-color="rgb(50.276184%, 45.97168%, 97.589111%)" offset="0.246094"/><stop stop-opacity="1" stop-color="rgb(50.202942%, 46.18988%, 97.550964%)" offset="0.25"/><stop stop-opacity="1" stop-color="rgb(50.128174%, 46.408081%, 97.512817%)" offset="0.253906"/><stop stop-opacity="1" stop-color="rgb(50.054932%, 46.627808%, 97.47467%)" offset="0.257812"/><stop stop-opacity="1" stop-color="rgb(49.981689%, 46.846008%, 97.436523%)" offset="0.261719"/><stop stop-opacity="1" stop-color="rgb(49.908447%, 47.064209%, 97.398376%)" offset="0.265625"/><stop stop-opacity="1" stop-color="rgb(49.835205%, 47.28241%, 97.358704%)" offset="0.269531"/><stop stop-opacity="1" stop-color="rgb(49.761963%, 47.502136%, 97.320557%)" offset="0.273438"/><stop stop-opacity="1" stop-color="rgb(49.688721%, 47.720337%, 97.28241%)" offset="0.277344"/><stop stop-opacity="1" stop-color="rgb(49.615479%, 47.938538%, 97.244263%)" offset="0.28125"/><stop stop-opacity="1" stop-color="rgb(49.542236%, 48.156738%, 97.206116%)" offset="0.285156"/><stop stop-opacity="1" stop-color="rgb(49.468994%, 48.376465%, 97.167969%)" offset="0.289062"/><stop stop-opacity="1" stop-color="rgb(49.394226%, 48.594666%, 97.129822%)" offset="0.292969"/><stop stop-opacity="1" stop-color="rgb(49.320984%, 48.812866%, 97.091675%)" offset="0.296875"/><stop stop-opacity="1" stop-color="rgb(49.247742%, 49.031067%, 97.053528%)" offset="0.300781"/><stop stop-opacity="1" stop-color="rgb(49.1745%, 49.250793%, 97.015381%)" offset="0.304688"/><stop stop-opacity="1" stop-color="rgb(49.101257%, 49.468994%, 96.977234%)" offset="0.308594"/><stop stop-opacity="1" stop-color="rgb(49.028015%, 49.687195%, 96.939087%)" offset="0.3125"/><stop stop-opacity="1" stop-color="rgb(48.954773%, 49.905396%, 96.90094%)" offset="0.316406"/><stop stop-opacity="1" stop-color="rgb(48.881531%, 50.125122%, 96.862793%)" offset="0.320312"/><stop stop-opacity="1" stop-color="rgb(48.808289%, 50.343323%, 96.82312%)" offset="0.324219"/><stop stop-opacity="1" stop-color="rgb(48.735046%, 50.561523%, 96.784973%)" offset="0.328125"/><stop stop-opacity="1" stop-color="rgb(48.660278%, 50.779724%, 96.746826%)" offset="0.332031"/><stop stop-opacity="1" stop-color="rgb(48.587036%, 50.999451%, 96.708679%)" offset="0.335938"/><stop stop-opacity="1" stop-color="rgb(48.513794%, 51.217651%, 96.670532%)" offset="0.339844"/><stop stop-opacity="1" stop-color="rgb(48.440552%, 51.437378%, 96.632385%)" offset="0.34375"/><stop stop-opacity="1" stop-color="rgb(48.36731%, 51.655579%, 96.594238%)" offset="0.347656"/><stop stop-opacity="1" stop-color="rgb(48.294067%, 51.873779%, 96.556091%)" offset="0.351562"/><stop stop-opacity="1" stop-color="rgb(48.220825%, 52.09198%, 96.517944%)" offset="0.355469"/><stop stop-opacity="1" stop-color="rgb(48.147583%, 52.311707%, 96.479797%)" offset="0.359375"/><stop stop-opacity="1" stop-color="rgb(48.074341%, 52.529907%, 96.44165%)" offset="0.363281"/><stop stop-opacity="1" stop-color="rgb(48.001099%, 52.748108%, 96.403503%)" offset="0.367188"/><stop stop-opacity="1" stop-color="rgb(47.927856%, 52.966309%, 96.365356%)" offset="0.371094"/><stop stop-opacity="1" stop-color="rgb(47.854614%, 53.186035%, 96.327209%)" offset="0.375"/><stop stop-opacity="1" stop-color="rgb(47.779846%, 53.404236%, 96.287537%)" offset="0.378906"/><stop stop-opacity="1" stop-color="rgb(47.706604%, 53.622437%, 96.24939%)" offset="0.382812"/><stop stop-opacity="1" stop-color="rgb(47.633362%, 53.840637%, 96.211243%)" offset="0.386719"/><stop stop-opacity="1" stop-color="rgb(47.56012%, 54.060364%, 96.173096%)" offset="0.390625"/><stop stop-opacity="1" stop-color="rgb(47.486877%, 54.278564%, 96.134949%)" offset="0.394531"/><stop stop-opacity="1" stop-color="rgb(47.413635%, 54.496765%, 96.096802%)" offset="0.398438"/><stop stop-opacity="1" stop-color="rgb(47.340393%, 54.714966%, 96.058655%)" offset="0.402344"/><stop stop-opacity="1" stop-color="rgb(47.267151%, 54.934692%, 96.020508%)" offset="0.40625"/><stop stop-opacity="1" stop-color="rgb(47.193909%, 55.152893%, 95.982361%)" offset="0.410156"/><stop stop-opacity="1" stop-color="rgb(47.120667%, 55.371094%, 95.944214%)" offset="0.414062"/><stop stop-opacity="1" stop-color="rgb(47.045898%, 55.589294%, 95.906067%)" offset="0.417969"/><stop stop-opacity="1" stop-color="rgb(46.972656%, 55.809021%, 95.86792%)" offset="0.421875"/><stop stop-opacity="1" stop-color="rgb(46.899414%, 56.027222%, 95.829773%)" offset="0.425781"/><stop stop-opacity="1" stop-color="rgb(46.826172%, 56.245422%, 95.791626%)" offset="0.429688"/><stop stop-opacity="1" stop-color="rgb(46.75293%, 56.463623%, 95.751953%)" offset="0.433594"/><stop stop-opacity="1" stop-color="rgb(46.679688%, 56.68335%, 95.713806%)" offset="0.4375"/><stop stop-opacity="1" stop-color="rgb(46.606445%, 56.90155%, 95.675659%)" offset="0.441406"/><stop stop-opacity="1" stop-color="rgb(46.533203%, 57.119751%, 95.637512%)" offset="0.445312"/><stop stop-opacity="1" stop-color="rgb(46.459961%, 57.337952%, 95.599365%)" offset="0.449219"/><stop stop-opacity="1" stop-color="rgb(46.386719%, 57.557678%, 95.561218%)" offset="0.453125"/><stop stop-opacity="1" stop-color="rgb(46.311951%, 57.775879%, 95.523071%)" offset="0.457031"/><stop stop-opacity="1" stop-color="rgb(46.238708%, 57.99408%, 95.484924%)" offset="0.460938"/><stop stop-opacity="1" stop-color="rgb(46.165466%, 58.21228%, 95.446777%)" offset="0.464844"/><stop stop-opacity="1" stop-color="rgb(46.092224%, 58.432007%, 95.40863%)" offset="0.46875"/><stop stop-opacity="1" stop-color="rgb(46.018982%, 58.650208%, 95.370483%)" offset="0.472656"/><stop stop-opacity="1" stop-color="rgb(45.94574%, 58.868408%, 95.332336%)" offset="0.476562"/><stop stop-opacity="1" stop-color="rgb(45.872498%, 59.086609%, 95.294189%)" offset="0.480469"/><stop stop-opacity="1" stop-color="rgb(45.799255%, 59.306335%, 95.256042%)" offset="0.484375"/><stop stop-opacity="1" stop-color="rgb(45.726013%, 59.524536%, 95.217896%)" offset="0.488281"/><stop stop-opacity="1" stop-color="rgb(45.652771%, 59.744263%, 95.179749%)" offset="0.492188"/><stop stop-opacity="1" stop-color="rgb(45.578003%, 59.962463%, 95.140076%)" offset="0.496094"/><stop stop-opacity="1" stop-color="rgb(45.504761%, 60.180664%, 95.101929%)" offset="0.5"/><stop stop-opacity="1" stop-color="rgb(45.431519%, 60.398865%, 95.063782%)" offset="0.503906"/><stop stop-opacity="1" stop-color="rgb(45.358276%, 60.618591%, 95.025635%)" offset="0.507812"/><stop stop-opacity="1" stop-color="rgb(45.285034%, 60.836792%, 94.987488%)" offset="0.511719"/><stop stop-opacity="1" stop-color="rgb(45.211792%, 61.054993%, 94.949341%)" offset="0.515625"/><stop stop-opacity="1" stop-color="rgb(45.13855%, 61.273193%, 94.911194%)" offset="0.519531"/><stop stop-opacity="1" stop-color="rgb(45.065308%, 61.49292%, 94.873047%)" offset="0.523438"/><stop stop-opacity="1" stop-color="rgb(44.992065%, 61.711121%, 94.8349%)" offset="0.527344"/><stop stop-opacity="1" stop-color="rgb(44.918823%, 61.929321%, 94.796753%)" offset="0.53125"/><stop stop-opacity="1" stop-color="rgb(44.844055%, 62.147522%, 94.758606%)" offset="0.535156"/><stop stop-opacity="1" stop-color="rgb(44.770813%, 62.367249%, 94.720459%)" offset="0.539062"/><stop stop-opacity="1" stop-color="rgb(44.697571%, 62.585449%, 94.682312%)" offset="0.542969"/><stop stop-opacity="1" stop-color="rgb(44.624329%, 62.80365%, 94.644165%)" offset="0.546875"/><stop stop-opacity="1" stop-color="rgb(44.551086%, 63.021851%, 94.604492%)" offset="0.550781"/><stop stop-opacity="1" stop-color="rgb(44.477844%, 63.241577%, 94.566345%)" offset="0.554687"/><stop stop-opacity="1" stop-color="rgb(44.404602%, 63.459778%, 94.528198%)" offset="0.558594"/><stop stop-opacity="1" stop-color="rgb(44.33136%, 63.677979%, 94.490051%)" offset="0.5625"/><stop stop-opacity="1" stop-color="rgb(44.258118%, 63.896179%, 94.451904%)" offset="0.566406"/><stop stop-opacity="1" stop-color="rgb(44.184875%, 64.115906%, 94.413757%)" offset="0.570312"/><stop stop-opacity="1" stop-color="rgb(44.111633%, 64.334106%, 94.37561%)" offset="0.574219"/><stop stop-opacity="1" stop-color="rgb(44.038391%, 64.552307%, 94.337463%)" offset="0.578125"/><stop stop-opacity="1" stop-color="rgb(43.963623%, 64.770508%, 94.299316%)" offset="0.582031"/><stop stop-opacity="1" stop-color="rgb(43.890381%, 64.990234%, 94.261169%)" offset="0.585938"/><stop stop-opacity="1" stop-color="rgb(43.817139%, 65.208435%, 94.223022%)" offset="0.589844"/><stop stop-opacity="1" stop-color="rgb(43.743896%, 65.426636%, 94.184875%)" offset="0.59375"/><stop stop-opacity="1" stop-color="rgb(43.670654%, 65.644836%, 94.146729%)" offset="0.597656"/><stop stop-opacity="1" stop-color="rgb(43.597412%, 65.864563%, 94.108582%)" offset="0.601562"/><stop stop-opacity="1" stop-color="rgb(43.52417%, 66.082764%, 94.068909%)" offset="0.605469"/><stop stop-opacity="1" stop-color="rgb(43.450928%, 66.300964%, 94.030762%)" offset="0.609375"/><stop stop-opacity="1" stop-color="rgb(43.377686%, 66.519165%, 93.992615%)" offset="0.613281"/><stop stop-opacity="1" stop-color="rgb(43.304443%, 66.738892%, 93.954468%)" offset="0.617188"/><stop stop-opacity="1" stop-color="rgb(43.229675%, 66.957092%, 93.916321%)" offset="0.621094"/><stop stop-opacity="1" stop-color="rgb(43.156433%, 67.175293%, 93.878174%)" offset="0.625"/><stop stop-opacity="1" stop-color="rgb(43.083191%, 67.393494%, 93.840027%)" offset="0.628906"/><stop stop-opacity="1" stop-color="rgb(43.009949%, 67.61322%, 93.80188%)" offset="0.632812"/><stop stop-opacity="1" stop-color="rgb(42.936707%, 67.831421%, 93.763733%)" offset="0.636719"/><stop stop-opacity="1" stop-color="rgb(42.863464%, 68.051147%, 93.725586%)" offset="0.640625"/><stop stop-opacity="1" stop-color="rgb(42.790222%, 68.269348%, 93.687439%)" offset="0.644531"/><stop stop-opacity="1" stop-color="rgb(42.71698%, 68.487549%, 93.649292%)" offset="0.648438"/><stop stop-opacity="1" stop-color="rgb(42.643738%, 68.70575%, 93.611145%)" offset="0.652344"/><stop stop-opacity="1" stop-color="rgb(42.570496%, 68.925476%, 93.572998%)" offset="0.65625"/><stop stop-opacity="1" stop-color="rgb(42.495728%, 69.143677%, 93.533325%)" offset="0.660156"/><stop stop-opacity="1" stop-color="rgb(42.422485%, 69.361877%, 93.495178%)" offset="0.664062"/><stop stop-opacity="1" stop-color="rgb(42.349243%, 69.580078%, 93.457031%)" offset="0.667969"/><stop stop-opacity="1" stop-color="rgb(42.276001%, 69.799805%, 93.418884%)" offset="0.671875"/><stop stop-opacity="1" stop-color="rgb(42.202759%, 70.018005%, 93.380737%)" offset="0.675781"/><stop stop-opacity="1" stop-color="rgb(42.129517%, 70.236206%, 93.34259%)" offset="0.679688"/><stop stop-opacity="1" stop-color="rgb(42.056274%, 70.454407%, 93.304443%)" offset="0.683594"/><stop stop-opacity="1" stop-color="rgb(41.983032%, 70.674133%, 93.266296%)" offset="0.6875"/><stop stop-opacity="1" stop-color="rgb(41.90979%, 70.892334%, 93.228149%)" offset="0.691406"/><stop stop-opacity="1" stop-color="rgb(41.836548%, 71.110535%, 93.190002%)" offset="0.695312"/><stop stop-opacity="1" stop-color="rgb(41.76178%, 71.328735%, 93.151855%)" offset="0.699219"/><stop stop-opacity="1" stop-color="rgb(41.688538%, 71.548462%, 93.113708%)" offset="0.703125"/><stop stop-opacity="1" stop-color="rgb(41.615295%, 71.766663%, 93.075562%)" offset="0.707031"/><stop stop-opacity="1" stop-color="rgb(41.542053%, 71.984863%, 93.037415%)" offset="0.710938"/><stop stop-opacity="1" stop-color="rgb(41.468811%, 72.203064%, 92.997742%)" offset="0.714844"/><stop stop-opacity="1" stop-color="rgb(41.395569%, 72.422791%, 92.959595%)" offset="0.71875"/><stop stop-opacity="1" stop-color="rgb(41.322327%, 72.640991%, 92.921448%)" offset="0.722656"/><stop stop-opacity="1" stop-color="rgb(41.249084%, 72.859192%, 92.883301%)" offset="0.726562"/><stop stop-opacity="1" stop-color="rgb(41.175842%, 73.077393%, 92.845154%)" offset="0.730469"/><stop stop-opacity="1" stop-color="rgb(41.1026%, 73.297119%, 92.807007%)" offset="0.734375"/><stop stop-opacity="1" stop-color="rgb(41.029358%, 73.51532%, 92.76886%)" offset="0.738281"/><stop stop-opacity="1" stop-color="rgb(40.956116%, 73.733521%, 92.730713%)" offset="0.742188"/><stop stop-opacity="1" stop-color="rgb(40.881348%, 73.951721%, 92.692566%)" offset="0.746094"/><stop stop-opacity="1" stop-color="rgb(40.808105%, 74.171448%, 92.654419%)" offset="0.75"/><stop stop-opacity="1" stop-color="rgb(40.734863%, 74.389648%, 92.616272%)" offset="0.753906"/><stop stop-opacity="1" stop-color="rgb(40.661621%, 74.607849%, 92.578125%)" offset="0.757812"/><stop stop-opacity="1" stop-color="rgb(40.588379%, 74.82605%, 92.539978%)" offset="0.761719"/><stop stop-opacity="1" stop-color="rgb(40.515137%, 75.045776%, 92.501831%)" offset="0.765625"/><stop stop-opacity="1" stop-color="rgb(40.441895%, 75.263977%, 92.462158%)" offset="0.769531"/><stop stop-opacity="1" stop-color="rgb(40.368652%, 75.482178%, 92.424011%)" offset="0.773438"/><stop stop-opacity="1" stop-color="rgb(40.29541%, 75.700378%, 92.385864%)" offset="0.777344"/><stop stop-opacity="1" stop-color="rgb(40.222168%, 75.920105%, 92.347717%)" offset="0.78125"/><stop stop-opacity="1" stop-color="rgb(40.1474%, 76.138306%, 92.30957%)" offset="0.785156"/><stop stop-opacity="1" stop-color="rgb(40.074158%, 76.358032%, 92.271423%)" offset="0.789062"/><stop stop-opacity="1" stop-color="rgb(40.000916%, 76.576233%, 92.233276%)" offset="0.792969"/><stop stop-opacity="1" stop-color="rgb(39.927673%, 76.794434%, 92.195129%)" offset="0.796875"/><stop stop-opacity="1" stop-color="rgb(39.854431%, 77.012634%, 92.156982%)" offset="0.800781"/><stop stop-opacity="1" stop-color="rgb(39.781189%, 77.232361%, 92.118835%)" offset="0.804688"/><stop stop-opacity="1" stop-color="rgb(39.707947%, 77.450562%, 92.080688%)" offset="0.808594"/><stop stop-opacity="1" stop-color="rgb(39.634705%, 77.668762%, 92.042542%)" offset="0.8125"/><stop stop-opacity="1" stop-color="rgb(39.561462%, 77.886963%, 92.004395%)" offset="0.816406"/><stop stop-opacity="1" stop-color="rgb(39.48822%, 78.106689%, 91.966248%)" offset="0.820313"/><stop stop-opacity="1" stop-color="rgb(39.413452%, 78.32489%, 91.926575%)" offset="0.824219"/><stop stop-opacity="1" stop-color="rgb(39.34021%, 78.543091%, 91.888428%)" offset="0.828125"/><stop stop-opacity="1" stop-color="rgb(39.266968%, 78.761292%, 91.850281%)" offset="0.832031"/><stop stop-opacity="1" stop-color="rgb(39.193726%, 78.981018%, 91.812134%)" offset="0.835938"/><stop stop-opacity="1" stop-color="rgb(39.120483%, 79.199219%, 91.773987%)" offset="0.839844"/><stop stop-opacity="1" stop-color="rgb(39.047241%, 79.417419%, 91.73584%)" offset="0.84375"/><stop stop-opacity="1" stop-color="rgb(38.973999%, 79.63562%, 91.697693%)" offset="0.847656"/><stop stop-opacity="1" stop-color="rgb(38.900757%, 79.855347%, 91.659546%)" offset="0.851562"/><stop stop-opacity="1" stop-color="rgb(38.827515%, 80.073547%, 91.621399%)" offset="0.855469"/><stop stop-opacity="1" stop-color="rgb(38.754272%, 80.291748%, 91.583252%)" offset="0.859375"/><stop stop-opacity="1" stop-color="rgb(38.679504%, 80.509949%, 91.545105%)" offset="0.863281"/><stop stop-opacity="1" stop-color="rgb(38.606262%, 80.729675%, 91.506958%)" offset="0.867188"/><stop stop-opacity="1" stop-color="rgb(38.53302%, 80.947876%, 91.468811%)" offset="0.871094"/><stop stop-opacity="1" stop-color="rgb(38.459778%, 81.166077%, 91.430664%)" offset="0.875"/><stop stop-opacity="1" stop-color="rgb(38.386536%, 81.384277%, 91.390991%)" offset="0.878906"/><stop stop-opacity="1" stop-color="rgb(38.313293%, 81.604004%, 91.352844%)" offset="0.882812"/><stop stop-opacity="1" stop-color="rgb(38.240051%, 81.822205%, 91.314697%)" offset="0.886719"/><stop stop-opacity="1" stop-color="rgb(38.166809%, 82.040405%, 91.27655%)" offset="0.890625"/><stop stop-opacity="1" stop-color="rgb(38.093567%, 82.258606%, 91.238403%)" offset="0.894531"/><stop stop-opacity="1" stop-color="rgb(38.020325%, 82.478333%, 91.200256%)" offset="0.898438"/><stop stop-opacity="1" stop-color="rgb(37.947083%, 82.696533%, 91.162109%)" offset="0.902344"/><stop stop-opacity="1" stop-color="rgb(37.87384%, 82.914734%, 91.123962%)" offset="0.90625"/><stop stop-opacity="1" stop-color="rgb(37.799072%, 83.132935%, 91.085815%)" offset="0.910156"/><stop stop-opacity="1" stop-color="rgb(37.72583%, 83.352661%, 91.047668%)" offset="0.914062"/><stop stop-opacity="1" stop-color="rgb(37.652588%, 83.570862%, 91.009521%)" offset="0.917969"/><stop stop-opacity="1" stop-color="rgb(37.579346%, 83.789062%, 90.971375%)" offset="0.921875"/><stop stop-opacity="1" stop-color="rgb(37.506104%, 84.007263%, 90.933228%)" offset="0.925781"/><stop stop-opacity="1" stop-color="rgb(37.432861%, 84.22699%, 90.895081%)" offset="0.929688"/><stop stop-opacity="1" stop-color="rgb(37.359619%, 84.44519%, 90.855408%)" offset="0.933594"/><stop stop-opacity="1" stop-color="rgb(37.286377%, 84.664917%, 90.817261%)" offset="0.9375"/><stop stop-opacity="1" stop-color="rgb(37.213135%, 84.883118%, 90.779114%)" offset="0.941406"/><stop stop-opacity="1" stop-color="rgb(37.139893%, 85.101318%, 90.740967%)" offset="0.945312"/><stop stop-opacity="1" stop-color="rgb(37.065125%, 85.319519%, 90.70282%)" offset="0.949219"/><stop stop-opacity="1" stop-color="rgb(36.991882%, 85.539246%, 90.664673%)" offset="0.953125"/><stop stop-opacity="1" stop-color="rgb(36.91864%, 85.757446%, 90.626526%)" offset="0.957031"/><stop stop-opacity="1" stop-color="rgb(36.845398%, 85.975647%, 90.588379%)" offset="0.960938"/><stop stop-opacity="1" stop-color="rgb(36.772156%, 86.193848%, 90.550232%)" offset="0.964844"/><stop stop-opacity="1" stop-color="rgb(36.698914%, 86.413574%, 90.512085%)" offset="0.96875"/><stop stop-opacity="1" stop-color="rgb(36.625671%, 86.631775%, 90.473938%)" offset="0.972656"/><stop stop-opacity="1" stop-color="rgb(36.552429%, 86.849976%, 90.435791%)" offset="0.976562"/><stop stop-opacity="1" stop-color="rgb(36.479187%, 87.068176%, 90.397644%)" offset="0.980469"/><stop stop-opacity="1" stop-color="rgb(36.405945%, 87.287903%, 90.359497%)" offset="0.984375"/><stop stop-opacity="1" stop-color="rgb(36.331177%, 87.506104%, 90.319824%)" offset="0.988281"/><stop stop-opacity="1" stop-color="rgb(36.257935%, 87.724304%, 90.281677%)" offset="0.992188"/><stop stop-opacity="1" stop-color="rgb(36.184692%, 87.942505%, 90.24353%)" offset="0.996094"/><stop stop-opacity="1" stop-color="rgb(36.11145%, 88.162231%, 90.205383%)" offset="1"/></linearGradient><clipPath id="cb9aa6ad2b"><rect x="0" width="292" y="0" height="103"/></clipPath><clipPath id="213f442390"><path d="M 639.292969 179.140625 L 663.6875 179.140625 L 663.6875 202 L 639.292969 202 Z M 639.292969 179.140625 " clip-rule="nonzero"/></clipPath></defs><g mask="url(#7f37ed5f47)"><g transform="matrix(1, 0, 0, 1, 360, 190)"><g clip-path="url(#cb9aa6ad2b)"><g clip-path="url(#7d9aee9569)"><g clip-path="url(#afd9fc993b)"><path fill="url(#9ba69ce305)" d="M 0.460938 0.671875 L 0.460938 102.359375 L 291.21875 102.359375 L 291.21875 0.671875 Z M 0.460938 0.671875 " fill-rule="nonzero"/></g></g></g></g></g><g fill="#366994" fill-opacity="1"><g transform="translate(397.476534, 219.859978)"><g><path d="M 9.09375 -12.53125 L 9.09375 -11.1875 L 5.671875 -11.1875 L 5.671875 0 L 4.046875 0 L 4.046875 -11.1875 L 0.609375 -11.1875 L 0.609375 -12.53125 Z M 9.09375 -12.53125 "/></g></g></g><g fill="#366994" fill-opacity="1"><g transform="translate(407.201053, 219.859978)"><g><path d="M 5.671875 0.15625 C 4.753906 0.15625 3.921875 -0.0507812 3.171875 -0.46875 C 2.421875 -0.882812 1.832031 -1.476562 1.40625 -2.25 C 0.976562 -3.019531 0.765625 -3.914062 0.765625 -4.9375 C 0.765625 -5.945312 0.984375 -6.835938 1.421875 -7.609375 C 1.859375 -8.378906 2.453125 -8.972656 3.203125 -9.390625 C 3.960938 -9.804688 4.8125 -10.015625 5.75 -10.015625 C 6.6875 -10.015625 7.53125 -9.804688 8.28125 -9.390625 C 9.039062 -8.972656 9.640625 -8.378906 10.078125 -7.609375 C 10.515625 -6.847656 10.734375 -5.957031 10.734375 -4.9375 C 10.734375 -3.914062 10.503906 -3.019531 10.046875 -2.25 C 9.597656 -1.476562 8.988281 -0.882812 8.21875 -0.46875 C 7.457031 -0.0507812 6.609375 0.15625 5.671875 0.15625 Z M 5.671875 -1.28125 C 6.265625 -1.28125 6.816406 -1.414062 7.328125 -1.6875 C 7.847656 -1.96875 8.265625 -2.378906 8.578125 -2.921875 C 8.898438 -3.472656 9.0625 -4.144531 9.0625 -4.9375 C 9.0625 -5.726562 8.90625 -6.398438 8.59375 -6.953125 C 8.28125 -7.503906 7.867188 -7.914062 7.359375 -8.1875 C 6.859375 -8.457031 6.316406 -8.59375 5.734375 -8.59375 C 5.128906 -8.59375 4.578125 -8.457031 4.078125 -8.1875 C 3.585938 -7.914062 3.191406 -7.503906 2.890625 -6.953125 C 2.585938 -6.398438 2.4375 -5.726562 2.4375 -4.9375 C 2.4375 -4.132812 2.582031 -3.457031 2.875 -2.90625 C 3.175781 -2.351562 3.570312 -1.941406 4.0625 -1.671875 C 4.550781 -1.410156 5.085938 -1.28125 5.671875 -1.28125 Z M 5.671875 -1.28125 "/></g></g></g><g fill="#366994" fill-opacity="1"><g transform="translate(418.705111, 219.859978)"><g><path d="M 3.015625 -8.03125 C 3.335938 -8.59375 3.816406 -9.0625 4.453125 -9.4375 C 5.097656 -9.820312 5.847656 -10.015625 6.703125 -10.015625 C 7.578125 -10.015625 8.367188 -9.800781 9.078125 -9.375 C 9.796875 -8.957031 10.359375 -8.367188 10.765625 -7.609375 C 11.171875 -6.847656 11.375 -5.960938 11.375 -4.953125 C 11.375 -3.960938 11.171875 -3.078125 10.765625 -2.296875 C 10.359375 -1.515625 9.796875 -0.910156 9.078125 -0.484375 C 8.367188 -0.0546875 7.578125 0.15625 6.703125 0.15625 C 5.859375 0.15625 5.113281 -0.03125 4.46875 -0.40625 C 3.832031 -0.78125 3.347656 -1.25 3.015625 -1.8125 L 3.015625 4.671875 L 1.390625 4.671875 L 1.390625 -9.84375 L 3.015625 -9.84375 Z M 9.703125 -4.953125 C 9.703125 -5.703125 9.550781 -6.347656 9.25 -6.890625 C 8.945312 -7.441406 8.539062 -7.863281 8.03125 -8.15625 C 7.53125 -8.445312 6.972656 -8.59375 6.359375 -8.59375 C 5.765625 -8.59375 5.210938 -8.441406 4.703125 -8.140625 C 4.191406 -7.847656 3.78125 -7.421875 3.46875 -6.859375 C 3.164062 -6.304688 3.015625 -5.664062 3.015625 -4.9375 C 3.015625 -4.195312 3.164062 -3.546875 3.46875 -2.984375 C 3.78125 -2.429688 4.191406 -2.007812 4.703125 -1.71875 C 5.210938 -1.425781 5.765625 -1.28125 6.359375 -1.28125 C 6.972656 -1.28125 7.53125 -1.425781 8.03125 -1.71875 C 8.539062 -2.007812 8.945312 -2.429688 9.25 -2.984375 C 9.550781 -3.546875 9.703125 -4.203125 9.703125 -4.953125 Z M 9.703125 -4.953125 "/></g></g></g><g fill="#366994" fill-opacity="1"><g transform="translate(430.856276, 219.859978)"><g><path d="M 8.203125 -7.28125 L 8.203125 -5.890625 L 1.03125 -5.890625 L 1.03125 -7.28125 Z M 8.203125 -7.28125 "/></g></g></g><g fill="#366994" fill-opacity="1"><g transform="translate(440.760554, 219.859978)"><g><path d="M 3.375 -8.5 L 3.375 -2.6875 C 3.375 -2.207031 3.472656 -1.867188 3.671875 -1.671875 C 3.878906 -1.484375 4.238281 -1.390625 4.75 -1.390625 L 5.953125 -1.390625 L 5.953125 0 L 4.46875 0 C 3.5625 0 2.878906 -0.207031 2.421875 -0.625 C 1.972656 -1.039062 1.75 -1.726562 1.75 -2.6875 L 1.75 -8.5 L 0.46875 -8.5 L 0.46875 -9.84375 L 1.75 -9.84375 L 1.75 -12.328125 L 3.375 -12.328125 L 3.375 -9.84375 L 5.953125 -9.84375 L 5.953125 -8.5 Z M 3.375 -8.5 "/></g></g></g><g fill="#366994" fill-opacity="1"><g transform="translate(447.30349, 219.859978)"><g><path d="M 2.234375 -11.453125 C 1.921875 -11.453125 1.65625 -11.554688 1.4375 -11.765625 C 1.21875 -11.984375 1.109375 -12.25 1.109375 -12.5625 C 1.109375 -12.875 1.21875 -13.132812 1.4375 -13.34375 C 1.65625 -13.5625 1.921875 -13.671875 2.234375 -13.671875 C 2.523438 -13.671875 2.773438 -13.5625 2.984375 -13.34375 C 3.203125 -13.132812 3.3125 -12.875 3.3125 -12.5625 C 3.3125 -12.25 3.203125 -11.984375 2.984375 -11.765625 C 2.773438 -11.554688 2.523438 -11.453125 2.234375 -11.453125 Z M 3.015625 -9.84375 L 3.015625 0 L 1.390625 0 L 1.390625 -9.84375 Z M 3.015625 -9.84375 "/></g></g></g><g fill="#366994" fill-opacity="1"><g transform="translate(451.725364, 219.859978)"><g><path d="M 10.375 -5.296875 C 10.375 -4.984375 10.351562 -4.65625 10.3125 -4.3125 L 2.4375 -4.3125 C 2.5 -3.34375 2.832031 -2.582031 3.4375 -2.03125 C 4.039062 -1.488281 4.773438 -1.21875 5.640625 -1.21875 C 6.347656 -1.21875 6.9375 -1.378906 7.40625 -1.703125 C 7.882812 -2.035156 8.21875 -2.476562 8.40625 -3.03125 L 10.171875 -3.03125 C 9.910156 -2.082031 9.382812 -1.3125 8.59375 -0.71875 C 7.800781 -0.132812 6.816406 0.15625 5.640625 0.15625 C 4.703125 0.15625 3.863281 -0.0507812 3.125 -0.46875 C 2.394531 -0.882812 1.816406 -1.476562 1.390625 -2.25 C 0.972656 -3.019531 0.765625 -3.914062 0.765625 -4.9375 C 0.765625 -5.957031 0.96875 -6.847656 1.375 -7.609375 C 1.789062 -8.378906 2.363281 -8.972656 3.09375 -9.390625 C 3.832031 -9.804688 4.679688 -10.015625 5.640625 -10.015625 C 6.578125 -10.015625 7.40625 -9.804688 8.125 -9.390625 C 8.84375 -8.984375 9.394531 -8.421875 9.78125 -7.703125 C 10.175781 -6.992188 10.375 -6.191406 10.375 -5.296875 Z M 8.671875 -5.640625 C 8.671875 -6.265625 8.535156 -6.800781 8.265625 -7.25 C 7.992188 -7.695312 7.617188 -8.035156 7.140625 -8.265625 C 6.671875 -8.503906 6.144531 -8.625 5.5625 -8.625 C 4.738281 -8.625 4.035156 -8.359375 3.453125 -7.828125 C 2.878906 -7.304688 2.550781 -6.578125 2.46875 -5.640625 Z M 8.671875 -5.640625 "/></g></g></g><g fill="#366994" fill-opacity="1"><g transform="translate(462.869923, 219.859978)"><g><path d="M 3.015625 -8.25 C 3.304688 -8.8125 3.71875 -9.25 4.25 -9.5625 C 4.78125 -9.875 5.429688 -10.03125 6.203125 -10.03125 L 6.203125 -8.34375 L 5.765625 -8.34375 C 3.929688 -8.34375 3.015625 -7.347656 3.015625 -5.359375 L 3.015625 0 L 1.390625 0 L 1.390625 -9.84375 L 3.015625 -9.84375 Z M 3.015625 -8.25 "/></g></g></g><g fill="#366994" fill-opacity="1"><g transform="translate(469.574633, 219.859978)"><g/></g></g><g fill="#366994" fill-opacity="1"><g transform="translate(474.373981, 219.859978)"><g><path d="M 8.78125 -2.78125 L 3.328125 -2.78125 L 2.3125 0 L 0.59375 0 L 5.125 -12.453125 L 7 -12.453125 L 11.515625 0 L 9.796875 0 Z M 8.3125 -4.109375 L 6.0625 -10.4375 L 3.796875 -4.109375 Z M 8.3125 -4.109375 "/></g></g></g><g fill="#366994" fill-opacity="1"><g transform="translate(486.489197, 219.859978)"><g><path d="M 3.015625 -12.53125 L 3.015625 0 L 1.390625 0 L 1.390625 -12.53125 Z M 3.015625 -12.53125 "/></g></g></g><g fill="#366994" fill-opacity="1"><g transform="translate(490.91107, 219.859978)"><g/></g></g><g fill="#366994" fill-opacity="1"><g transform="translate(495.710418, 219.859978)"><g><path d="M 0.765625 -4.953125 C 0.765625 -5.960938 0.96875 -6.847656 1.375 -7.609375 C 1.789062 -8.367188 2.351562 -8.957031 3.0625 -9.375 C 3.769531 -9.800781 4.5625 -10.015625 5.4375 -10.015625 C 6.300781 -10.015625 7.050781 -9.828125 7.6875 -9.453125 C 8.320312 -9.078125 8.796875 -8.609375 9.109375 -8.046875 L 9.109375 -9.84375 L 10.765625 -9.84375 L 10.765625 0 L 9.109375 0 L 9.109375 -1.828125 C 8.785156 -1.253906 8.300781 -0.78125 7.65625 -0.40625 C 7.019531 -0.03125 6.273438 0.15625 5.421875 0.15625 C 4.546875 0.15625 3.753906 -0.0546875 3.046875 -0.484375 C 2.347656 -0.910156 1.789062 -1.515625 1.375 -2.296875 C 0.96875 -3.078125 0.765625 -3.960938 0.765625 -4.953125 Z M 9.109375 -4.9375 C 9.109375 -5.6875 8.957031 -6.332031 8.65625 -6.875 C 8.363281 -7.425781 7.960938 -7.847656 7.453125 -8.140625 C 6.941406 -8.441406 6.378906 -8.59375 5.765625 -8.59375 C 5.148438 -8.59375 4.59375 -8.445312 4.09375 -8.15625 C 3.59375 -7.863281 3.191406 -7.441406 2.890625 -6.890625 C 2.585938 -6.347656 2.4375 -5.703125 2.4375 -4.953125 C 2.4375 -4.203125 2.585938 -3.546875 2.890625 -2.984375 C 3.191406 -2.429688 3.59375 -2.007812 4.09375 -1.71875 C 4.59375 -1.425781 5.148438 -1.28125 5.765625 -1.28125 C 6.378906 -1.28125 6.941406 -1.425781 7.453125 -1.71875 C 7.960938 -2.007812 8.363281 -2.429688 8.65625 -2.984375 C 8.957031 -3.546875 9.109375 -4.195312 9.109375 -4.9375 Z M 9.109375 -4.9375 "/></g></g></g><g fill="#366994" fill-opacity="1"><g transform="translate(507.861583, 219.859978)"><g><path d="M 6.1875 -10.03125 C 7.382812 -10.03125 8.351562 -9.664062 9.09375 -8.9375 C 9.832031 -8.21875 10.203125 -7.171875 10.203125 -5.796875 L 10.203125 0 L 8.59375 0 L 8.59375 -5.5625 C 8.59375 -6.550781 8.34375 -7.304688 7.84375 -7.828125 C 7.351562 -8.347656 6.6875 -8.609375 5.84375 -8.609375 C 4.976562 -8.609375 4.289062 -8.335938 3.78125 -7.796875 C 3.269531 -7.253906 3.015625 -6.46875 3.015625 -5.4375 L 3.015625 0 L 1.390625 0 L 1.390625 -9.84375 L 3.015625 -9.84375 L 3.015625 -8.4375 C 3.335938 -8.945312 3.773438 -9.335938 4.328125 -9.609375 C 4.890625 -9.890625 5.507812 -10.03125 6.1875 -10.03125 Z M 6.1875 -10.03125 "/></g></g></g><g fill="#366994" fill-opacity="1"><g transform="translate(519.36564, 219.859978)"><g><path d="M 0.765625 -4.953125 C 0.765625 -5.960938 0.96875 -6.847656 1.375 -7.609375 C 1.789062 -8.367188 2.351562 -8.957031 3.0625 -9.375 C 3.769531 -9.800781 4.570312 -10.015625 5.46875 -10.015625 C 6.226562 -10.015625 6.9375 -9.835938 7.59375 -9.484375 C 8.257812 -9.128906 8.765625 -8.660156 9.109375 -8.078125 L 9.109375 -13.296875 L 10.765625 -13.296875 L 10.765625 0 L 9.109375 0 L 9.109375 -1.84375 C 8.785156 -1.257812 8.304688 -0.78125 7.671875 -0.40625 C 7.035156 -0.03125 6.289062 0.15625 5.4375 0.15625 C 4.5625 0.15625 3.769531 -0.0546875 3.0625 -0.484375 C 2.351562 -0.910156 1.789062 -1.515625 1.375 -2.296875 C 0.96875 -3.078125 0.765625 -3.960938 0.765625 -4.953125 Z M 9.109375 -4.9375 C 9.109375 -5.6875 8.957031 -6.332031 8.65625 -6.875 C 8.363281 -7.425781 7.960938 -7.847656 7.453125 -8.140625 C 6.941406 -8.441406 6.378906 -8.59375 5.765625 -8.59375 C 5.148438 -8.59375 4.59375 -8.445312 4.09375 -8.15625 C 3.59375 -7.863281 3.191406 -7.441406 2.890625 -6.890625 C 2.585938 -6.347656 2.4375 -5.703125 2.4375 -4.953125 C 2.4375 -4.203125 2.585938 -3.546875 2.890625 -2.984375 C 3.191406 -2.429688 3.59375 -2.007812 4.09375 -1.71875 C 4.59375 -1.425781 5.148438 -1.28125 5.765625 -1.28125 C 6.378906 -1.28125 6.941406 -1.425781 7.453125 -1.71875 C 7.960938 -2.007812 8.363281 -2.429688 8.65625 -2.984375 C 8.957031 -3.546875 9.109375 -4.195312 9.109375 -4.9375 Z M 9.109375 -4.9375 "/></g></g></g><g fill="#366994" fill-opacity="1"><g transform="translate(531.516805, 219.859978)"><g/></g></g><g fill="#366994" fill-opacity="1"><g transform="translate(536.316153, 219.859978)"><g><path d="M 4.875 0.15625 C 4.113281 0.15625 3.429688 0.03125 2.828125 -0.21875 C 2.234375 -0.476562 1.757812 -0.835938 1.40625 -1.296875 C 1.0625 -1.765625 0.875 -2.296875 0.84375 -2.890625 L 2.53125 -2.890625 C 2.582031 -2.398438 2.8125 -2 3.21875 -1.6875 C 3.632812 -1.375 4.175781 -1.21875 4.84375 -1.21875 C 5.46875 -1.21875 5.957031 -1.351562 6.3125 -1.625 C 6.675781 -1.90625 6.859375 -2.253906 6.859375 -2.671875 C 6.859375 -3.109375 6.664062 -3.429688 6.28125 -3.640625 C 5.90625 -3.847656 5.316406 -4.054688 4.515625 -4.265625 C 3.773438 -4.453125 3.175781 -4.644531 2.71875 -4.84375 C 2.257812 -5.039062 1.863281 -5.332031 1.53125 -5.71875 C 1.207031 -6.113281 1.046875 -6.628906 1.046875 -7.265625 C 1.046875 -7.765625 1.191406 -8.222656 1.484375 -8.640625 C 1.785156 -9.054688 2.210938 -9.390625 2.765625 -9.640625 C 3.316406 -9.890625 3.945312 -10.015625 4.65625 -10.015625 C 5.738281 -10.015625 6.613281 -9.738281 7.28125 -9.1875 C 7.957031 -8.632812 8.320312 -7.878906 8.375 -6.921875 L 6.734375 -6.921875 C 6.703125 -7.429688 6.492188 -7.84375 6.109375 -8.15625 C 5.734375 -8.46875 5.226562 -8.625 4.59375 -8.625 C 4.007812 -8.625 3.539062 -8.5 3.1875 -8.25 C 2.84375 -8 2.671875 -7.671875 2.671875 -7.265625 C 2.671875 -6.941406 2.773438 -6.671875 2.984375 -6.453125 C 3.203125 -6.242188 3.46875 -6.078125 3.78125 -5.953125 C 4.101562 -5.828125 4.546875 -5.6875 5.109375 -5.53125 C 5.804688 -5.34375 6.378906 -5.15625 6.828125 -4.96875 C 7.273438 -4.78125 7.65625 -4.5 7.96875 -4.125 C 8.28125 -3.757812 8.445312 -3.273438 8.46875 -2.671875 C 8.46875 -2.140625 8.316406 -1.65625 8.015625 -1.21875 C 7.710938 -0.789062 7.285156 -0.453125 6.734375 -0.203125 C 6.191406 0.0351562 5.570312 0.15625 4.875 0.15625 Z M 4.875 0.15625 "/></g></g></g><g fill="#366994" fill-opacity="1"><g transform="translate(545.699148, 219.859978)"><g><path d="M 5.671875 0.15625 C 4.753906 0.15625 3.921875 -0.0507812 3.171875 -0.46875 C 2.421875 -0.882812 1.832031 -1.476562 1.40625 -2.25 C 0.976562 -3.019531 0.765625 -3.914062 0.765625 -4.9375 C 0.765625 -5.945312 0.984375 -6.835938 1.421875 -7.609375 C 1.859375 -8.378906 2.453125 -8.972656 3.203125 -9.390625 C 3.960938 -9.804688 4.8125 -10.015625 5.75 -10.015625 C 6.6875 -10.015625 7.53125 -9.804688 8.28125 -9.390625 C 9.039062 -8.972656 9.640625 -8.378906 10.078125 -7.609375 C 10.515625 -6.847656 10.734375 -5.957031 10.734375 -4.9375 C 10.734375 -3.914062 10.503906 -3.019531 10.046875 -2.25 C 9.597656 -1.476562 8.988281 -0.882812 8.21875 -0.46875 C 7.457031 -0.0507812 6.609375 0.15625 5.671875 0.15625 Z M 5.671875 -1.28125 C 6.265625 -1.28125 6.816406 -1.414062 7.328125 -1.6875 C 7.847656 -1.96875 8.265625 -2.378906 8.578125 -2.921875 C 8.898438 -3.472656 9.0625 -4.144531 9.0625 -4.9375 C 9.0625 -5.726562 8.90625 -6.398438 8.59375 -6.953125 C 8.28125 -7.503906 7.867188 -7.914062 7.359375 -8.1875 C 6.859375 -8.457031 6.316406 -8.59375 5.734375 -8.59375 C 5.128906 -8.59375 4.578125 -8.457031 4.078125 -8.1875 C 3.585938 -7.914062 3.191406 -7.503906 2.890625 -6.953125 C 2.585938 -6.398438 2.4375 -5.726562 2.4375 -4.9375 C 2.4375 -4.132812 2.582031 -3.457031 2.875 -2.90625 C 3.175781 -2.351562 3.570312 -1.941406 4.0625 -1.671875 C 4.550781 -1.410156 5.085938 -1.28125 5.671875 -1.28125 Z M 5.671875 -1.28125 "/></g></g></g><g fill="#366994" fill-opacity="1"><g transform="translate(557.203206, 219.859978)"><g><path d="M 5.390625 -8.5 L 3.328125 -8.5 L 3.328125 0 L 1.6875 0 L 1.6875 -8.5 L 0.40625 -8.5 L 0.40625 -9.84375 L 1.6875 -9.84375 L 1.6875 -10.546875 C 1.6875 -11.648438 1.96875 -12.457031 2.53125 -12.96875 C 3.101562 -13.476562 4.019531 -13.734375 5.28125 -13.734375 L 5.28125 -12.359375 C 4.5625 -12.359375 4.054688 -12.21875 3.765625 -11.9375 C 3.472656 -11.65625 3.328125 -11.191406 3.328125 -10.546875 L 3.328125 -9.84375 L 5.390625 -9.84375 Z M 5.390625 -8.5 "/></g></g></g><g fill="#366994" fill-opacity="1"><g transform="translate(563.117019, 219.859978)"><g><path d="M 3.375 -8.5 L 3.375 -2.6875 C 3.375 -2.207031 3.472656 -1.867188 3.671875 -1.671875 C 3.878906 -1.484375 4.238281 -1.390625 4.75 -1.390625 L 5.953125 -1.390625 L 5.953125 0 L 4.46875 0 C 3.5625 0 2.878906 -0.207031 2.421875 -0.625 C 1.972656 -1.039062 1.75 -1.726562 1.75 -2.6875 L 1.75 -8.5 L 0.46875 -8.5 L 0.46875 -9.84375 L 1.75 -9.84375 L 1.75 -12.328125 L 3.375 -12.328125 L 3.375 -9.84375 L 5.953125 -9.84375 L 5.953125 -8.5 Z M 3.375 -8.5 "/></g></g></g><g fill="#366994" fill-opacity="1"><g transform="translate(569.659955, 219.859978)"><g><path d="M 14.5 -9.84375 L 11.421875 0 L 9.734375 0 L 7.359375 -7.8125 L 5 0 L 3.3125 0 L 0.21875 -9.84375 L 1.890625 -9.84375 L 4.15625 -1.578125 L 6.59375 -9.84375 L 8.265625 -9.84375 L 10.65625 -1.5625 L 12.890625 -9.84375 Z M 14.5 -9.84375 "/></g></g></g><g fill="#366994" fill-opacity="1"><g transform="translate(584.399541, 219.859978)"><g><path d="M 0.765625 -4.953125 C 0.765625 -5.960938 0.96875 -6.847656 1.375 -7.609375 C 1.789062 -8.367188 2.351562 -8.957031 3.0625 -9.375 C 3.769531 -9.800781 4.5625 -10.015625 5.4375 -10.015625 C 6.300781 -10.015625 7.050781 -9.828125 7.6875 -9.453125 C 8.320312 -9.078125 8.796875 -8.609375 9.109375 -8.046875 L 9.109375 -9.84375 L 10.765625 -9.84375 L 10.765625 0 L 9.109375 0 L 9.109375 -1.828125 C 8.785156 -1.253906 8.300781 -0.78125 7.65625 -0.40625 C 7.019531 -0.03125 6.273438 0.15625 5.421875 0.15625 C 4.546875 0.15625 3.753906 -0.0546875 3.046875 -0.484375 C 2.347656 -0.910156 1.789062 -1.515625 1.375 -2.296875 C 0.96875 -3.078125 0.765625 -3.960938 0.765625 -4.953125 Z M 9.109375 -4.9375 C 9.109375 -5.6875 8.957031 -6.332031 8.65625 -6.875 C 8.363281 -7.425781 7.960938 -7.847656 7.453125 -8.140625 C 6.941406 -8.441406 6.378906 -8.59375 5.765625 -8.59375 C 5.148438 -8.59375 4.59375 -8.445312 4.09375 -8.15625 C 3.59375 -7.863281 3.191406 -7.441406 2.890625 -6.890625 C 2.585938 -6.347656 2.4375 -5.703125 2.4375 -4.953125 C 2.4375 -4.203125 2.585938 -3.546875 2.890625 -2.984375 C 3.191406 -2.429688 3.59375 -2.007812 4.09375 -1.71875 C 4.59375 -1.425781 5.148438 -1.28125 5.765625 -1.28125 C 6.378906 -1.28125 6.941406 -1.425781 7.453125 -1.71875 C 7.960938 -2.007812 8.363281 -2.429688 8.65625 -2.984375 C 8.957031 -3.546875 9.109375 -4.195312 9.109375 -4.9375 Z M 9.109375 -4.9375 "/></g></g></g><g fill="#366994" fill-opacity="1"><g transform="translate(596.550716, 219.859978)"><g><path d="M 3.015625 -8.25 C 3.304688 -8.8125 3.71875 -9.25 4.25 -9.5625 C 4.78125 -9.875 5.429688 -10.03125 6.203125 -10.03125 L 6.203125 -8.34375 L 5.765625 -8.34375 C 3.929688 -8.34375 3.015625 -7.347656 3.015625 -5.359375 L 3.015625 0 L 1.390625 0 L 1.390625 -9.84375 L 3.015625 -9.84375 Z M 3.015625 -8.25 "/></g></g></g><g fill="#366994" fill-opacity="1"><g transform="translate(603.255416, 219.859978)"><g><path d="M 10.375 -5.296875 C 10.375 -4.984375 10.351562 -4.65625 10.3125 -4.3125 L 2.4375 -4.3125 C 2.5 -3.34375 2.832031 -2.582031 3.4375 -2.03125 C 4.039062 -1.488281 4.773438 -1.21875 5.640625 -1.21875 C 6.347656 -1.21875 6.9375 -1.378906 7.40625 -1.703125 C 7.882812 -2.035156 8.21875 -2.476562 8.40625 -3.03125 L 10.171875 -3.03125 C 9.910156 -2.082031 9.382812 -1.3125 8.59375 -0.71875 C 7.800781 -0.132812 6.816406 0.15625 5.640625 0.15625 C 4.703125 0.15625 3.863281 -0.0507812 3.125 -0.46875 C 2.394531 -0.882812 1.816406 -1.476562 1.390625 -2.25 C 0.972656 -3.019531 0.765625 -3.914062 0.765625 -4.9375 C 0.765625 -5.957031 0.96875 -6.847656 1.375 -7.609375 C 1.789062 -8.378906 2.363281 -8.972656 3.09375 -9.390625 C 3.832031 -9.804688 4.679688 -10.015625 5.640625 -10.015625 C 6.578125 -10.015625 7.40625 -9.804688 8.125 -9.390625 C 8.84375 -8.984375 9.394531 -8.421875 9.78125 -7.703125 C 10.175781 -6.992188 10.375 -6.191406 10.375 -5.296875 Z M 8.671875 -5.640625 C 8.671875 -6.265625 8.535156 -6.800781 8.265625 -7.25 C 7.992188 -7.695312 7.617188 -8.035156 7.140625 -8.265625 C 6.671875 -8.503906 6.144531 -8.625 5.5625 -8.625 C 4.738281 -8.625 4.035156 -8.359375 3.453125 -7.828125 C 2.878906 -7.304688 2.550781 -6.578125 2.46875 -5.640625 Z M 8.671875 -5.640625 "/></g></g></g><g fill="#366994" fill-opacity="1"><g transform="translate(403.404678, 244.896607)"><g><path d="M 0.765625 -4.953125 C 0.765625 -5.960938 0.96875 -6.847656 1.375 -7.609375 C 1.789062 -8.367188 2.351562 -8.957031 3.0625 -9.375 C 3.769531 -9.800781 4.570312 -10.015625 5.46875 -10.015625 C 6.226562 -10.015625 6.9375 -9.835938 7.59375 -9.484375 C 8.257812 -9.128906 8.765625 -8.660156 9.109375 -8.078125 L 9.109375 -13.296875 L 10.765625 -13.296875 L 10.765625 0 L 9.109375 0 L 9.109375 -1.84375 C 8.785156 -1.257812 8.304688 -0.78125 7.671875 -0.40625 C 7.035156 -0.03125 6.289062 0.15625 5.4375 0.15625 C 4.5625 0.15625 3.769531 -0.0546875 3.0625 -0.484375 C 2.351562 -0.910156 1.789062 -1.515625 1.375 -2.296875 C 0.96875 -3.078125 0.765625 -3.960938 0.765625 -4.953125 Z M 9.109375 -4.9375 C 9.109375 -5.6875 8.957031 -6.332031 8.65625 -6.875 C 8.363281 -7.425781 7.960938 -7.847656 7.453125 -8.140625 C 6.941406 -8.441406 6.378906 -8.59375 5.765625 -8.59375 C 5.148438 -8.59375 4.59375 -8.445312 4.09375 -8.15625 C 3.59375 -7.863281 3.191406 -7.441406 2.890625 -6.890625 C 2.585938 -6.347656 2.4375 -5.703125 2.4375 -4.953125 C 2.4375 -4.203125 2.585938 -3.546875 2.890625 -2.984375 C 3.191406 -2.429688 3.59375 -2.007812 4.09375 -1.71875 C 4.59375 -1.425781 5.148438 -1.28125 5.765625 -1.28125 C 6.378906 -1.28125 6.941406 -1.425781 7.453125 -1.71875 C 7.960938 -2.007812 8.363281 -2.429688 8.65625 -2.984375 C 8.957031 -3.546875 9.109375 -4.195312 9.109375 -4.9375 Z M 9.109375 -4.9375 "/></g></g></g><g fill="#366994" fill-opacity="1"><g transform="translate(415.555843, 244.896607)"><g><path d="M 10.375 -5.296875 C 10.375 -4.984375 10.351562 -4.65625 10.3125 -4.3125 L 2.4375 -4.3125 C 2.5 -3.34375 2.832031 -2.582031 3.4375 -2.03125 C 4.039062 -1.488281 4.773438 -1.21875 5.640625 -1.21875 C 6.347656 -1.21875 6.9375 -1.378906 7.40625 -1.703125 C 7.882812 -2.035156 8.21875 -2.476562 8.40625 -3.03125 L 10.171875 -3.03125 C 9.910156 -2.082031 9.382812 -1.3125 8.59375 -0.71875 C 7.800781 -0.132812 6.816406 0.15625 5.640625 0.15625 C 4.703125 0.15625 3.863281 -0.0507812 3.125 -0.46875 C 2.394531 -0.882812 1.816406 -1.476562 1.390625 -2.25 C 0.972656 -3.019531 0.765625 -3.914062 0.765625 -4.9375 C 0.765625 -5.957031 0.96875 -6.847656 1.375 -7.609375 C 1.789062 -8.378906 2.363281 -8.972656 3.09375 -9.390625 C 3.832031 -9.804688 4.679688 -10.015625 5.640625 -10.015625 C 6.578125 -10.015625 7.40625 -9.804688 8.125 -9.390625 C 8.84375 -8.984375 9.394531 -8.421875 9.78125 -7.703125 C 10.175781 -6.992188 10.375 -6.191406 10.375 -5.296875 Z M 8.671875 -5.640625 C 8.671875 -6.265625 8.535156 -6.800781 8.265625 -7.25 C 7.992188 -7.695312 7.617188 -8.035156 7.140625 -8.265625 C 6.671875 -8.503906 6.144531 -8.625 5.5625 -8.625 C 4.738281 -8.625 4.035156 -8.359375 3.453125 -7.828125 C 2.878906 -7.304688 2.550781 -6.578125 2.46875 -5.640625 Z M 8.671875 -5.640625 "/></g></g></g><g fill="#366994" fill-opacity="1"><g transform="translate(426.700402, 244.896607)"><g><path d="M 5.046875 -1.515625 L 8.109375 -9.84375 L 9.84375 -9.84375 L 5.984375 0 L 4.078125 0 L 0.21875 -9.84375 L 1.96875 -9.84375 Z M 5.046875 -1.515625 "/></g></g></g><g fill="#366994" fill-opacity="1"><g transform="translate(436.78443, 244.896607)"><g><path d="M 10.375 -5.296875 C 10.375 -4.984375 10.351562 -4.65625 10.3125 -4.3125 L 2.4375 -4.3125 C 2.5 -3.34375 2.832031 -2.582031 3.4375 -2.03125 C 4.039062 -1.488281 4.773438 -1.21875 5.640625 -1.21875 C 6.347656 -1.21875 6.9375 -1.378906 7.40625 -1.703125 C 7.882812 -2.035156 8.21875 -2.476562 8.40625 -3.03125 L 10.171875 -3.03125 C 9.910156 -2.082031 9.382812 -1.3125 8.59375 -0.71875 C 7.800781 -0.132812 6.816406 0.15625 5.640625 0.15625 C 4.703125 0.15625 3.863281 -0.0507812 3.125 -0.46875 C 2.394531 -0.882812 1.816406 -1.476562 1.390625 -2.25 C 0.972656 -3.019531 0.765625 -3.914062 0.765625 -4.9375 C 0.765625 -5.957031 0.96875 -6.847656 1.375 -7.609375 C 1.789062 -8.378906 2.363281 -8.972656 3.09375 -9.390625 C 3.832031 -9.804688 4.679688 -10.015625 5.640625 -10.015625 C 6.578125 -10.015625 7.40625 -9.804688 8.125 -9.390625 C 8.84375 -8.984375 9.394531 -8.421875 9.78125 -7.703125 C 10.175781 -6.992188 10.375 -6.191406 10.375 -5.296875 Z M 8.671875 -5.640625 C 8.671875 -6.265625 8.535156 -6.800781 8.265625 -7.25 C 7.992188 -7.695312 7.617188 -8.035156 7.140625 -8.265625 C 6.671875 -8.503906 6.144531 -8.625 5.5625 -8.625 C 4.738281 -8.625 4.035156 -8.359375 3.453125 -7.828125 C 2.878906 -7.304688 2.550781 -6.578125 2.46875 -5.640625 Z M 8.671875 -5.640625 "/></g></g></g><g fill="#366994" fill-opacity="1"><g transform="translate(447.928989, 244.896607)"><g><path d="M 3.015625 -13.296875 L 3.015625 0 L 1.390625 0 L 1.390625 -13.296875 Z M 3.015625 -13.296875 "/></g></g></g><g fill="#366994" fill-opacity="1"><g transform="translate(452.350863, 244.896607)"><g><path d="M 5.671875 0.15625 C 4.753906 0.15625 3.921875 -0.0507812 3.171875 -0.46875 C 2.421875 -0.882812 1.832031 -1.476562 1.40625 -2.25 C 0.976562 -3.019531 0.765625 -3.914062 0.765625 -4.9375 C 0.765625 -5.945312 0.984375 -6.835938 1.421875 -7.609375 C 1.859375 -8.378906 2.453125 -8.972656 3.203125 -9.390625 C 3.960938 -9.804688 4.8125 -10.015625 5.75 -10.015625 C 6.6875 -10.015625 7.53125 -9.804688 8.28125 -9.390625 C 9.039062 -8.972656 9.640625 -8.378906 10.078125 -7.609375 C 10.515625 -6.847656 10.734375 -5.957031 10.734375 -4.9375 C 10.734375 -3.914062 10.503906 -3.019531 10.046875 -2.25 C 9.597656 -1.476562 8.988281 -0.882812 8.21875 -0.46875 C 7.457031 -0.0507812 6.609375 0.15625 5.671875 0.15625 Z M 5.671875 -1.28125 C 6.265625 -1.28125 6.816406 -1.414062 7.328125 -1.6875 C 7.847656 -1.96875 8.265625 -2.378906 8.578125 -2.921875 C 8.898438 -3.472656 9.0625 -4.144531 9.0625 -4.9375 C 9.0625 -5.726562 8.90625 -6.398438 8.59375 -6.953125 C 8.28125 -7.503906 7.867188 -7.914062 7.359375 -8.1875 C 6.859375 -8.457031 6.316406 -8.59375 5.734375 -8.59375 C 5.128906 -8.59375 4.578125 -8.457031 4.078125 -8.1875 C 3.585938 -7.914062 3.191406 -7.503906 2.890625 -6.953125 C 2.585938 -6.398438 2.4375 -5.726562 2.4375 -4.9375 C 2.4375 -4.132812 2.582031 -3.457031 2.875 -2.90625 C 3.175781 -2.351562 3.570312 -1.941406 4.0625 -1.671875 C 4.550781 -1.410156 5.085938 -1.28125 5.671875 -1.28125 Z M 5.671875 -1.28125 "/></g></g></g><g fill="#366994" fill-opacity="1"><g transform="translate(463.85492, 244.896607)"><g><path d="M 3.015625 -8.03125 C 3.335938 -8.59375 3.816406 -9.0625 4.453125 -9.4375 C 5.097656 -9.820312 5.847656 -10.015625 6.703125 -10.015625 C 7.578125 -10.015625 8.367188 -9.800781 9.078125 -9.375 C 9.796875 -8.957031 10.359375 -8.367188 10.765625 -7.609375 C 11.171875 -6.847656 11.375 -5.960938 11.375 -4.953125 C 11.375 -3.960938 11.171875 -3.078125 10.765625 -2.296875 C 10.359375 -1.515625 9.796875 -0.910156 9.078125 -0.484375 C 8.367188 -0.0546875 7.578125 0.15625 6.703125 0.15625 C 5.859375 0.15625 5.113281 -0.03125 4.46875 -0.40625 C 3.832031 -0.78125 3.347656 -1.25 3.015625 -1.8125 L 3.015625 4.671875 L 1.390625 4.671875 L 1.390625 -9.84375 L 3.015625 -9.84375 Z M 9.703125 -4.953125 C 9.703125 -5.703125 9.550781 -6.347656 9.25 -6.890625 C 8.945312 -7.441406 8.539062 -7.863281 8.03125 -8.15625 C 7.53125 -8.445312 6.972656 -8.59375 6.359375 -8.59375 C 5.765625 -8.59375 5.210938 -8.441406 4.703125 -8.140625 C 4.191406 -7.847656 3.78125 -7.421875 3.46875 -6.859375 C 3.164062 -6.304688 3.015625 -5.664062 3.015625 -4.9375 C 3.015625 -4.195312 3.164062 -3.546875 3.46875 -2.984375 C 3.78125 -2.429688 4.191406 -2.007812 4.703125 -1.71875 C 5.210938 -1.425781 5.765625 -1.28125 6.359375 -1.28125 C 6.972656 -1.28125 7.53125 -1.425781 8.03125 -1.71875 C 8.539062 -2.007812 8.945312 -2.429688 9.25 -2.984375 C 9.550781 -3.546875 9.703125 -4.203125 9.703125 -4.953125 Z M 9.703125 -4.953125 "/></g></g></g><g fill="#366994" fill-opacity="1"><g transform="translate(476.006085, 244.896607)"><g><path d="M 10.375 -5.296875 C 10.375 -4.984375 10.351562 -4.65625 10.3125 -4.3125 L 2.4375 -4.3125 C 2.5 -3.34375 2.832031 -2.582031 3.4375 -2.03125 C 4.039062 -1.488281 4.773438 -1.21875 5.640625 -1.21875 C 6.347656 -1.21875 6.9375 -1.378906 7.40625 -1.703125 C 7.882812 -2.035156 8.21875 -2.476562 8.40625 -3.03125 L 10.171875 -3.03125 C 9.910156 -2.082031 9.382812 -1.3125 8.59375 -0.71875 C 7.800781 -0.132812 6.816406 0.15625 5.640625 0.15625 C 4.703125 0.15625 3.863281 -0.0507812 3.125 -0.46875 C 2.394531 -0.882812 1.816406 -1.476562 1.390625 -2.25 C 0.972656 -3.019531 0.765625 -3.914062 0.765625 -4.9375 C 0.765625 -5.957031 0.96875 -6.847656 1.375 -7.609375 C 1.789062 -8.378906 2.363281 -8.972656 3.09375 -9.390625 C 3.832031 -9.804688 4.679688 -10.015625 5.640625 -10.015625 C 6.578125 -10.015625 7.40625 -9.804688 8.125 -9.390625 C 8.84375 -8.984375 9.394531 -8.421875 9.78125 -7.703125 C 10.175781 -6.992188 10.375 -6.191406 10.375 -5.296875 Z M 8.671875 -5.640625 C 8.671875 -6.265625 8.535156 -6.800781 8.265625 -7.25 C 7.992188 -7.695312 7.617188 -8.035156 7.140625 -8.265625 C 6.671875 -8.503906 6.144531 -8.625 5.5625 -8.625 C 4.738281 -8.625 4.035156 -8.359375 3.453125 -7.828125 C 2.878906 -7.304688 2.550781 -6.578125 2.46875 -5.640625 Z M 8.671875 -5.640625 "/></g></g></g><g fill="#366994" fill-opacity="1"><g transform="translate(487.150644, 244.896607)"><g><path d="M 3.015625 -8.25 C 3.304688 -8.8125 3.71875 -9.25 4.25 -9.5625 C 4.78125 -9.875 5.429688 -10.03125 6.203125 -10.03125 L 6.203125 -8.34375 L 5.765625 -8.34375 C 3.929688 -8.34375 3.015625 -7.347656 3.015625 -5.359375 L 3.015625 0 L 1.390625 0 L 1.390625 -9.84375 L 3.015625 -9.84375 Z M 3.015625 -8.25 "/></g></g></g><g fill="#366994" fill-opacity="1"><g transform="translate(493.855355, 244.896607)"><g><path d="M 4.875 0.15625 C 4.113281 0.15625 3.429688 0.03125 2.828125 -0.21875 C 2.234375 -0.476562 1.757812 -0.835938 1.40625 -1.296875 C 1.0625 -1.765625 0.875 -2.296875 0.84375 -2.890625 L 2.53125 -2.890625 C 2.582031 -2.398438 2.8125 -2 3.21875 -1.6875 C 3.632812 -1.375 4.175781 -1.21875 4.84375 -1.21875 C 5.46875 -1.21875 5.957031 -1.351562 6.3125 -1.625 C 6.675781 -1.90625 6.859375 -2.253906 6.859375 -2.671875 C 6.859375 -3.109375 6.664062 -3.429688 6.28125 -3.640625 C 5.90625 -3.847656 5.316406 -4.054688 4.515625 -4.265625 C 3.773438 -4.453125 3.175781 -4.644531 2.71875 -4.84375 C 2.257812 -5.039062 1.863281 -5.332031 1.53125 -5.71875 C 1.207031 -6.113281 1.046875 -6.628906 1.046875 -7.265625 C 1.046875 -7.765625 1.191406 -8.222656 1.484375 -8.640625 C 1.785156 -9.054688 2.210938 -9.390625 2.765625 -9.640625 C 3.316406 -9.890625 3.945312 -10.015625 4.65625 -10.015625 C 5.738281 -10.015625 6.613281 -9.738281 7.28125 -9.1875 C 7.957031 -8.632812 8.320312 -7.878906 8.375 -6.921875 L 6.734375 -6.921875 C 6.703125 -7.429688 6.492188 -7.84375 6.109375 -8.15625 C 5.734375 -8.46875 5.226562 -8.625 4.59375 -8.625 C 4.007812 -8.625 3.539062 -8.5 3.1875 -8.25 C 2.84375 -8 2.671875 -7.671875 2.671875 -7.265625 C 2.671875 -6.941406 2.773438 -6.671875 2.984375 -6.453125 C 3.203125 -6.242188 3.46875 -6.078125 3.78125 -5.953125 C 4.101562 -5.828125 4.546875 -5.6875 5.109375 -5.53125 C 5.804688 -5.34375 6.378906 -5.15625 6.828125 -4.96875 C 7.273438 -4.78125 7.65625 -4.5 7.96875 -4.125 C 8.28125 -3.757812 8.445312 -3.273438 8.46875 -2.671875 C 8.46875 -2.140625 8.316406 -1.65625 8.015625 -1.21875 C 7.710938 -0.789062 7.285156 -0.453125 6.734375 -0.203125 C 6.191406 0.0351562 5.570312 0.15625 4.875 0.15625 Z M 4.875 0.15625 "/></g></g></g><g fill="#366994" fill-opacity="1"><g transform="translate(503.23835, 244.896607)"><g/></g></g><g fill="#366994" fill-opacity="1"><g transform="translate(508.037698, 244.896607)"><g><path d="M 0.765625 -4.9375 C 0.765625 -5.957031 0.96875 -6.847656 1.375 -7.609375 C 1.789062 -8.367188 2.359375 -8.957031 3.078125 -9.375 C 3.804688 -9.800781 4.632812 -10.015625 5.5625 -10.015625 C 6.78125 -10.015625 7.78125 -9.71875 8.5625 -9.125 C 9.34375 -8.539062 9.859375 -7.726562 10.109375 -6.6875 L 8.359375 -6.6875 C 8.191406 -7.28125 7.863281 -7.75 7.375 -8.09375 C 6.882812 -8.445312 6.28125 -8.625 5.5625 -8.625 C 4.632812 -8.625 3.878906 -8.300781 3.296875 -7.65625 C 2.722656 -7.019531 2.4375 -6.113281 2.4375 -4.9375 C 2.4375 -3.75 2.722656 -2.832031 3.296875 -2.1875 C 3.878906 -1.539062 4.632812 -1.21875 5.5625 -1.21875 C 6.28125 -1.21875 6.878906 -1.382812 7.359375 -1.71875 C 7.835938 -2.0625 8.171875 -2.539062 8.359375 -3.15625 L 10.109375 -3.15625 C 9.847656 -2.15625 9.320312 -1.351562 8.53125 -0.75 C 7.738281 -0.144531 6.75 0.15625 5.5625 0.15625 C 4.632812 0.15625 3.804688 -0.0507812 3.078125 -0.46875 C 2.359375 -0.882812 1.789062 -1.472656 1.375 -2.234375 C 0.96875 -3.003906 0.765625 -3.90625 0.765625 -4.9375 Z M 0.765625 -4.9375 "/></g></g></g><g fill="#366994" fill-opacity="1"><g transform="translate(518.948573, 244.896607)"><g><path d="M 10.375 -5.296875 C 10.375 -4.984375 10.351562 -4.65625 10.3125 -4.3125 L 2.4375 -4.3125 C 2.5 -3.34375 2.832031 -2.582031 3.4375 -2.03125 C 4.039062 -1.488281 4.773438 -1.21875 5.640625 -1.21875 C 6.347656 -1.21875 6.9375 -1.378906 7.40625 -1.703125 C 7.882812 -2.035156 8.21875 -2.476562 8.40625 -3.03125 L 10.171875 -3.03125 C 9.910156 -2.082031 9.382812 -1.3125 8.59375 -0.71875 C 7.800781 -0.132812 6.816406 0.15625 5.640625 0.15625 C 4.703125 0.15625 3.863281 -0.0507812 3.125 -0.46875 C 2.394531 -0.882812 1.816406 -1.476562 1.390625 -2.25 C 0.972656 -3.019531 0.765625 -3.914062 0.765625 -4.9375 C 0.765625 -5.957031 0.96875 -6.847656 1.375 -7.609375 C 1.789062 -8.378906 2.363281 -8.972656 3.09375 -9.390625 C 3.832031 -9.804688 4.679688 -10.015625 5.640625 -10.015625 C 6.578125 -10.015625 7.40625 -9.804688 8.125 -9.390625 C 8.84375 -8.984375 9.394531 -8.421875 9.78125 -7.703125 C 10.175781 -6.992188 10.375 -6.191406 10.375 -5.296875 Z M 8.671875 -5.640625 C 8.671875 -6.265625 8.535156 -6.800781 8.265625 -7.25 C 7.992188 -7.695312 7.617188 -8.035156 7.140625 -8.265625 C 6.671875 -8.503906 6.144531 -8.625 5.5625 -8.625 C 4.738281 -8.625 4.035156 -8.359375 3.453125 -7.828125 C 2.878906 -7.304688 2.550781 -6.578125 2.46875 -5.640625 Z M 8.671875 -5.640625 "/></g></g></g><g fill="#366994" fill-opacity="1"><g transform="translate(530.093132, 244.896607)"><g><path d="M 3.015625 -8.25 C 3.304688 -8.8125 3.71875 -9.25 4.25 -9.5625 C 4.78125 -9.875 5.429688 -10.03125 6.203125 -10.03125 L 6.203125 -8.34375 L 5.765625 -8.34375 C 3.929688 -8.34375 3.015625 -7.347656 3.015625 -5.359375 L 3.015625 0 L 1.390625 0 L 1.390625 -9.84375 L 3.015625 -9.84375 Z M 3.015625 -8.25 "/></g></g></g><g fill="#366994" fill-opacity="1"><g transform="translate(536.797842, 244.896607)"><g><path d="M 3.375 -8.5 L 3.375 -2.6875 C 3.375 -2.207031 3.472656 -1.867188 3.671875 -1.671875 C 3.878906 -1.484375 4.238281 -1.390625 4.75 -1.390625 L 5.953125 -1.390625 L 5.953125 0 L 4.46875 0 C 3.5625 0 2.878906 -0.207031 2.421875 -0.625 C 1.972656 -1.039062 1.75 -1.726562 1.75 -2.6875 L 1.75 -8.5 L 0.46875 -8.5 L 0.46875 -9.84375 L 1.75 -9.84375 L 1.75 -12.328125 L 3.375 -12.328125 L 3.375 -9.84375 L 5.953125 -9.84375 L 5.953125 -8.5 Z M 3.375 -8.5 "/></g></g></g><g fill="#366994" fill-opacity="1"><g transform="translate(543.340778, 244.896607)"><g><path d="M 2.234375 -11.453125 C 1.921875 -11.453125 1.65625 -11.554688 1.4375 -11.765625 C 1.21875 -11.984375 1.109375 -12.25 1.109375 -12.5625 C 1.109375 -12.875 1.21875 -13.132812 1.4375 -13.34375 C 1.65625 -13.5625 1.921875 -13.671875 2.234375 -13.671875 C 2.523438 -13.671875 2.773438 -13.5625 2.984375 -13.34375 C 3.203125 -13.132812 3.3125 -12.875 3.3125 -12.5625 C 3.3125 -12.25 3.203125 -11.984375 2.984375 -11.765625 C 2.773438 -11.554688 2.523438 -11.453125 2.234375 -11.453125 Z M 3.015625 -9.84375 L 3.015625 0 L 1.390625 0 L 1.390625 -9.84375 Z M 3.015625 -9.84375 "/></g></g></g><g fill="#366994" fill-opacity="1"><g transform="translate(547.762652, 244.896607)"><g><path d="M 5.390625 -8.5 L 3.328125 -8.5 L 3.328125 0 L 1.6875 0 L 1.6875 -8.5 L 0.40625 -8.5 L 0.40625 -9.84375 L 1.6875 -9.84375 L 1.6875 -10.546875 C 1.6875 -11.648438 1.96875 -12.457031 2.53125 -12.96875 C 3.101562 -13.476562 4.019531 -13.734375 5.28125 -13.734375 L 5.28125 -12.359375 C 4.5625 -12.359375 4.054688 -12.21875 3.765625 -11.9375 C 3.472656 -11.65625 3.328125 -11.191406 3.328125 -10.546875 L 3.328125 -9.84375 L 5.390625 -9.84375 Z M 5.390625 -8.5 "/></g></g></g><g fill="#366994" fill-opacity="1"><g transform="translate(553.676455, 244.896607)"><g><path d="M 2.234375 -11.453125 C 1.921875 -11.453125 1.65625 -11.554688 1.4375 -11.765625 C 1.21875 -11.984375 1.109375 -12.25 1.109375 -12.5625 C 1.109375 -12.875 1.21875 -13.132812 1.4375 -13.34375 C 1.65625 -13.5625 1.921875 -13.671875 2.234375 -13.671875 C 2.523438 -13.671875 2.773438 -13.5625 2.984375 -13.34375 C 3.203125 -13.132812 3.3125 -12.875 3.3125 -12.5625 C 3.3125 -12.25 3.203125 -11.984375 2.984375 -11.765625 C 2.773438 -11.554688 2.523438 -11.453125 2.234375 -11.453125 Z M 3.015625 -9.84375 L 3.015625 0 L 1.390625 0 L 1.390625 -9.84375 Z M 3.015625 -9.84375 "/></g></g></g><g fill="#366994" fill-opacity="1"><g transform="translate(558.098329, 244.896607)"><g><path d="M 10.375 -5.296875 C 10.375 -4.984375 10.351562 -4.65625 10.3125 -4.3125 L 2.4375 -4.3125 C 2.5 -3.34375 2.832031 -2.582031 3.4375 -2.03125 C 4.039062 -1.488281 4.773438 -1.21875 5.640625 -1.21875 C 6.347656 -1.21875 6.9375 -1.378906 7.40625 -1.703125 C 7.882812 -2.035156 8.21875 -2.476562 8.40625 -3.03125 L 10.171875 -3.03125 C 9.910156 -2.082031 9.382812 -1.3125 8.59375 -0.71875 C 7.800781 -0.132812 6.816406 0.15625 5.640625 0.15625 C 4.703125 0.15625 3.863281 -0.0507812 3.125 -0.46875 C 2.394531 -0.882812 1.816406 -1.476562 1.390625 -2.25 C 0.972656 -3.019531 0.765625 -3.914062 0.765625 -4.9375 C 0.765625 -5.957031 0.96875 -6.847656 1.375 -7.609375 C 1.789062 -8.378906 2.363281 -8.972656 3.09375 -9.390625 C 3.832031 -9.804688 4.679688 -10.015625 5.640625 -10.015625 C 6.578125 -10.015625 7.40625 -9.804688 8.125 -9.390625 C 8.84375 -8.984375 9.394531 -8.421875 9.78125 -7.703125 C 10.175781 -6.992188 10.375 -6.191406 10.375 -5.296875 Z M 8.671875 -5.640625 C 8.671875 -6.265625 8.535156 -6.800781 8.265625 -7.25 C 7.992188 -7.695312 7.617188 -8.035156 7.140625 -8.265625 C 6.671875 -8.503906 6.144531 -8.625 5.5625 -8.625 C 4.738281 -8.625 4.035156 -8.359375 3.453125 -7.828125 C 2.878906 -7.304688 2.550781 -6.578125 2.46875 -5.640625 Z M 8.671875 -5.640625 "/></g></g></g><g fill="#366994" fill-opacity="1"><g transform="translate(569.242878, 244.896607)"><g><path d="M 0.765625 -4.953125 C 0.765625 -5.960938 0.96875 -6.847656 1.375 -7.609375 C 1.789062 -8.367188 2.351562 -8.957031 3.0625 -9.375 C 3.769531 -9.800781 4.570312 -10.015625 5.46875 -10.015625 C 6.226562 -10.015625 6.9375 -9.835938 7.59375 -9.484375 C 8.257812 -9.128906 8.765625 -8.660156 9.109375 -8.078125 L 9.109375 -13.296875 L 10.765625 -13.296875 L 10.765625 0 L 9.109375 0 L 9.109375 -1.84375 C 8.785156 -1.257812 8.304688 -0.78125 7.671875 -0.40625 C 7.035156 -0.03125 6.289062 0.15625 5.4375 0.15625 C 4.5625 0.15625 3.769531 -0.0546875 3.0625 -0.484375 C 2.351562 -0.910156 1.789062 -1.515625 1.375 -2.296875 C 0.96875 -3.078125 0.765625 -3.960938 0.765625 -4.953125 Z M 9.109375 -4.9375 C 9.109375 -5.6875 8.957031 -6.332031 8.65625 -6.875 C 8.363281 -7.425781 7.960938 -7.847656 7.453125 -8.140625 C 6.941406 -8.441406 6.378906 -8.59375 5.765625 -8.59375 C 5.148438 -8.59375 4.59375 -8.445312 4.09375 -8.15625 C 3.59375 -7.863281 3.191406 -7.441406 2.890625 -6.890625 C 2.585938 -6.347656 2.4375 -5.703125 2.4375 -4.953125 C 2.4375 -4.203125 2.585938 -3.546875 2.890625 -2.984375 C 3.191406 -2.429688 3.59375 -2.007812 4.09375 -1.71875 C 4.59375 -1.425781 5.148438 -1.28125 5.765625 -1.28125 C 6.378906 -1.28125 6.941406 -1.425781 7.453125 -1.71875 C 7.960938 -2.007812 8.363281 -2.429688 8.65625 -2.984375 C 8.957031 -3.546875 9.109375 -4.195312 9.109375 -4.9375 Z M 9.109375 -4.9375 "/></g></g></g><g fill="#366994" fill-opacity="1"><g transform="translate(581.394053, 244.896607)"><g/></g></g><g fill="#366994" fill-opacity="1"><g transform="translate(586.193391, 244.896607)"><g><path d="M 3.015625 -8.015625 C 3.347656 -8.597656 3.835938 -9.078125 4.484375 -9.453125 C 5.140625 -9.828125 5.878906 -10.015625 6.703125 -10.015625 C 7.585938 -10.015625 8.382812 -9.800781 9.09375 -9.375 C 9.800781 -8.957031 10.359375 -8.367188 10.765625 -7.609375 C 11.171875 -6.847656 11.375 -5.960938 11.375 -4.953125 C 11.375 -3.960938 11.171875 -3.078125 10.765625 -2.296875 C 10.359375 -1.515625 9.796875 -0.910156 9.078125 -0.484375 C 8.367188 -0.0546875 7.578125 0.15625 6.703125 0.15625 C 5.847656 0.15625 5.097656 -0.0234375 4.453125 -0.390625 C 3.816406 -0.765625 3.335938 -1.238281 3.015625 -1.8125 L 3.015625 0 L 1.390625 0 L 1.390625 -13.296875 L 3.015625 -13.296875 Z M 9.703125 -4.953125 C 9.703125 -5.703125 9.550781 -6.347656 9.25 -6.890625 C 8.945312 -7.441406 8.539062 -7.863281 8.03125 -8.15625 C 7.53125 -8.445312 6.972656 -8.59375 6.359375 -8.59375 C 5.765625 -8.59375 5.210938 -8.441406 4.703125 -8.140625 C 4.191406 -7.847656 3.78125 -7.421875 3.46875 -6.859375 C 3.164062 -6.304688 3.015625 -5.664062 3.015625 -4.9375 C 3.015625 -4.195312 3.164062 -3.546875 3.46875 -2.984375 C 3.78125 -2.429688 4.191406 -2.007812 4.703125 -1.71875 C 5.210938 -1.425781 5.765625 -1.28125 6.359375 -1.28125 C 6.972656 -1.28125 7.53125 -1.425781 8.03125 -1.71875 C 8.539062 -2.007812 8.945312 -2.429688 9.25 -2.984375 C 9.550781 -3.546875 9.703125 -4.203125 9.703125 -4.953125 Z M 9.703125 -4.953125 "/></g></g></g><g fill="#366994" fill-opacity="1"><g transform="translate(598.344566, 244.896607)"><g><path d="M 9.859375 -9.84375 L 3.9375 4.640625 L 2.25 4.640625 L 4.1875 -0.109375 L 0.21875 -9.84375 L 2.03125 -9.84375 L 5.125 -1.875 L 8.171875 -9.84375 Z M 9.859375 -9.84375 "/></g></g></g><g fill="#366994" fill-opacity="1"><g transform="translate(405.460972, 269.933236)"><g><path d="M 3.015625 -1.328125 L 7.40625 -1.328125 L 7.40625 0 L 1.390625 0 L 1.390625 -12.53125 L 3.015625 -12.53125 Z M 3.015625 -1.328125 "/></g></g></g><g fill="#366994" fill-opacity="1"><g transform="translate(413.226213, 269.933236)"><g><path d="M 10.109375 -9.84375 L 10.109375 0 L 8.484375 0 L 8.484375 -1.453125 C 8.171875 -0.953125 7.734375 -0.5625 7.171875 -0.28125 C 6.617188 0 6.007812 0.140625 5.34375 0.140625 C 4.570312 0.140625 3.878906 -0.015625 3.265625 -0.328125 C 2.660156 -0.648438 2.179688 -1.128906 1.828125 -1.765625 C 1.472656 -2.398438 1.296875 -3.171875 1.296875 -4.078125 L 1.296875 -9.84375 L 2.90625 -9.84375 L 2.90625 -4.296875 C 2.90625 -3.328125 3.148438 -2.582031 3.640625 -2.0625 C 4.140625 -1.539062 4.8125 -1.28125 5.65625 -1.28125 C 6.53125 -1.28125 7.21875 -1.546875 7.71875 -2.078125 C 8.226562 -2.617188 8.484375 -3.40625 8.484375 -4.4375 L 8.484375 -9.84375 Z M 10.109375 -9.84375 "/></g></g></g><g fill="#366994" fill-opacity="1"><g transform="translate(424.730271, 269.933236)"><g><path d="M 13.21875 -10.03125 C 13.988281 -10.03125 14.671875 -9.867188 15.265625 -9.546875 C 15.867188 -9.234375 16.34375 -8.757812 16.6875 -8.125 C 17.039062 -7.488281 17.21875 -6.710938 17.21875 -5.796875 L 17.21875 0 L 15.59375 0 L 15.59375 -5.5625 C 15.59375 -6.550781 15.347656 -7.304688 14.859375 -7.828125 C 14.378906 -8.347656 13.726562 -8.609375 12.90625 -8.609375 C 12.050781 -8.609375 11.367188 -8.332031 10.859375 -7.78125 C 10.359375 -7.238281 10.109375 -6.453125 10.109375 -5.421875 L 10.109375 0 L 8.5 0 L 8.5 -5.5625 C 8.5 -6.550781 8.253906 -7.304688 7.765625 -7.828125 C 7.285156 -8.347656 6.628906 -8.609375 5.796875 -8.609375 C 4.953125 -8.609375 4.273438 -8.332031 3.765625 -7.78125 C 3.265625 -7.238281 3.015625 -6.453125 3.015625 -5.421875 L 3.015625 0 L 1.390625 0 L 1.390625 -9.84375 L 3.015625 -9.84375 L 3.015625 -8.421875 C 3.335938 -8.941406 3.769531 -9.335938 4.3125 -9.609375 C 4.863281 -9.890625 5.46875 -10.03125 6.125 -10.03125 C 6.945312 -10.03125 7.675781 -9.84375 8.3125 -9.46875 C 8.945312 -9.09375 9.421875 -8.546875 9.734375 -7.828125 C 10.015625 -8.523438 10.472656 -9.066406 11.109375 -9.453125 C 11.742188 -9.835938 12.445312 -10.03125 13.21875 -10.03125 Z M 13.21875 -10.03125 "/></g></g></g><g fill="#366994" fill-opacity="1"><g transform="translate(443.244612, 269.933236)"><g><path d="M 2.234375 -11.453125 C 1.921875 -11.453125 1.65625 -11.554688 1.4375 -11.765625 C 1.21875 -11.984375 1.109375 -12.25 1.109375 -12.5625 C 1.109375 -12.875 1.21875 -13.132812 1.4375 -13.34375 C 1.65625 -13.5625 1.921875 -13.671875 2.234375 -13.671875 C 2.523438 -13.671875 2.773438 -13.5625 2.984375 -13.34375 C 3.203125 -13.132812 3.3125 -12.875 3.3125 -12.5625 C 3.3125 -12.25 3.203125 -11.984375 2.984375 -11.765625 C 2.773438 -11.554688 2.523438 -11.453125 2.234375 -11.453125 Z M 3.015625 -9.84375 L 3.015625 0 L 1.390625 0 L 1.390625 -9.84375 Z M 3.015625 -9.84375 "/></g></g></g><g fill="#366994" fill-opacity="1"><g transform="translate(447.666486, 269.933236)"><g><path d="M 5.671875 0.15625 C 4.753906 0.15625 3.921875 -0.0507812 3.171875 -0.46875 C 2.421875 -0.882812 1.832031 -1.476562 1.40625 -2.25 C 0.976562 -3.019531 0.765625 -3.914062 0.765625 -4.9375 C 0.765625 -5.945312 0.984375 -6.835938 1.421875 -7.609375 C 1.859375 -8.378906 2.453125 -8.972656 3.203125 -9.390625 C 3.960938 -9.804688 4.8125 -10.015625 5.75 -10.015625 C 6.6875 -10.015625 7.53125 -9.804688 8.28125 -9.390625 C 9.039062 -8.972656 9.640625 -8.378906 10.078125 -7.609375 C 10.515625 -6.847656 10.734375 -5.957031 10.734375 -4.9375 C 10.734375 -3.914062 10.503906 -3.019531 10.046875 -2.25 C 9.597656 -1.476562 8.988281 -0.882812 8.21875 -0.46875 C 7.457031 -0.0507812 6.609375 0.15625 5.671875 0.15625 Z M 5.671875 -1.28125 C 6.265625 -1.28125 6.816406 -1.414062 7.328125 -1.6875 C 7.847656 -1.96875 8.265625 -2.378906 8.578125 -2.921875 C 8.898438 -3.472656 9.0625 -4.144531 9.0625 -4.9375 C 9.0625 -5.726562 8.90625 -6.398438 8.59375 -6.953125 C 8.28125 -7.503906 7.867188 -7.914062 7.359375 -8.1875 C 6.859375 -8.457031 6.316406 -8.59375 5.734375 -8.59375 C 5.128906 -8.59375 4.578125 -8.457031 4.078125 -8.1875 C 3.585938 -7.914062 3.191406 -7.503906 2.890625 -6.953125 C 2.585938 -6.398438 2.4375 -5.726562 2.4375 -4.9375 C 2.4375 -4.132812 2.582031 -3.457031 2.875 -2.90625 C 3.175781 -2.351562 3.570312 -1.941406 4.0625 -1.671875 C 4.550781 -1.410156 5.085938 -1.28125 5.671875 -1.28125 Z M 5.671875 -1.28125 "/></g></g></g><g fill="#366994" fill-opacity="1"><g transform="translate(459.170544, 269.933236)"><g><path d="M 8.78125 -2.78125 L 3.328125 -2.78125 L 2.3125 0 L 0.59375 0 L 5.125 -12.453125 L 7 -12.453125 L 11.515625 0 L 9.796875 0 Z M 8.3125 -4.109375 L 6.0625 -10.4375 L 3.796875 -4.109375 Z M 8.3125 -4.109375 "/></g></g></g><g fill="#366994" fill-opacity="1"><g transform="translate(471.285759, 269.933236)"><g><path d="M 3.015625 -12.53125 L 3.015625 0 L 1.390625 0 L 1.390625 -12.53125 Z M 3.015625 -12.53125 "/></g></g></g><g fill="#366994" fill-opacity="1"><g transform="translate(475.707633, 269.933236)"><g/></g></g><g fill="#366994" fill-opacity="1"><g transform="translate(480.50698, 269.933236)"><g><path d="M 3.015625 -8.25 C 3.304688 -8.8125 3.71875 -9.25 4.25 -9.5625 C 4.78125 -9.875 5.429688 -10.03125 6.203125 -10.03125 L 6.203125 -8.34375 L 5.765625 -8.34375 C 3.929688 -8.34375 3.015625 -7.347656 3.015625 -5.359375 L 3.015625 0 L 1.390625 0 L 1.390625 -9.84375 L 3.015625 -9.84375 Z M 3.015625 -8.25 "/></g></g></g><g fill="#366994" fill-opacity="1"><g transform="translate(487.211691, 269.933236)"><g><path d="M 10.375 -5.296875 C 10.375 -4.984375 10.351562 -4.65625 10.3125 -4.3125 L 2.4375 -4.3125 C 2.5 -3.34375 2.832031 -2.582031 3.4375 -2.03125 C 4.039062 -1.488281 4.773438 -1.21875 5.640625 -1.21875 C 6.347656 -1.21875 6.9375 -1.378906 7.40625 -1.703125 C 7.882812 -2.035156 8.21875 -2.476562 8.40625 -3.03125 L 10.171875 -3.03125 C 9.910156 -2.082031 9.382812 -1.3125 8.59375 -0.71875 C 7.800781 -0.132812 6.816406 0.15625 5.640625 0.15625 C 4.703125 0.15625 3.863281 -0.0507812 3.125 -0.46875 C 2.394531 -0.882812 1.816406 -1.476562 1.390625 -2.25 C 0.972656 -3.019531 0.765625 -3.914062 0.765625 -4.9375 C 0.765625 -5.957031 0.96875 -6.847656 1.375 -7.609375 C 1.789062 -8.378906 2.363281 -8.972656 3.09375 -9.390625 C 3.832031 -9.804688 4.679688 -10.015625 5.640625 -10.015625 C 6.578125 -10.015625 7.40625 -9.804688 8.125 -9.390625 C 8.84375 -8.984375 9.394531 -8.421875 9.78125 -7.703125 C 10.175781 -6.992188 10.375 -6.191406 10.375 -5.296875 Z M 8.671875 -5.640625 C 8.671875 -6.265625 8.535156 -6.800781 8.265625 -7.25 C 7.992188 -7.695312 7.617188 -8.035156 7.140625 -8.265625 C 6.671875 -8.503906 6.144531 -8.625 5.5625 -8.625 C 4.738281 -8.625 4.035156 -8.359375 3.453125 -7.828125 C 2.878906 -7.304688 2.550781 -6.578125 2.46875 -5.640625 Z M 8.671875 -5.640625 "/></g></g></g><g fill="#366994" fill-opacity="1"><g transform="translate(498.35625, 269.933236)"><g><path d="M 0.765625 -4.953125 C 0.765625 -5.960938 0.96875 -6.847656 1.375 -7.609375 C 1.789062 -8.367188 2.351562 -8.957031 3.0625 -9.375 C 3.769531 -9.800781 4.5625 -10.015625 5.4375 -10.015625 C 6.300781 -10.015625 7.050781 -9.828125 7.6875 -9.453125 C 8.320312 -9.078125 8.796875 -8.609375 9.109375 -8.046875 L 9.109375 -9.84375 L 10.765625 -9.84375 L 10.765625 0 L 9.109375 0 L 9.109375 -1.828125 C 8.785156 -1.253906 8.300781 -0.78125 7.65625 -0.40625 C 7.019531 -0.03125 6.273438 0.15625 5.421875 0.15625 C 4.546875 0.15625 3.753906 -0.0546875 3.046875 -0.484375 C 2.347656 -0.910156 1.789062 -1.515625 1.375 -2.296875 C 0.96875 -3.078125 0.765625 -3.960938 0.765625 -4.953125 Z M 9.109375 -4.9375 C 9.109375 -5.6875 8.957031 -6.332031 8.65625 -6.875 C 8.363281 -7.425781 7.960938 -7.847656 7.453125 -8.140625 C 6.941406 -8.441406 6.378906 -8.59375 5.765625 -8.59375 C 5.148438 -8.59375 4.59375 -8.445312 4.09375 -8.15625 C 3.59375 -7.863281 3.191406 -7.441406 2.890625 -6.890625 C 2.585938 -6.347656 2.4375 -5.703125 2.4375 -4.953125 C 2.4375 -4.203125 2.585938 -3.546875 2.890625 -2.984375 C 3.191406 -2.429688 3.59375 -2.007812 4.09375 -1.71875 C 4.59375 -1.425781 5.148438 -1.28125 5.765625 -1.28125 C 6.378906 -1.28125 6.941406 -1.425781 7.453125 -1.71875 C 7.960938 -2.007812 8.363281 -2.429688 8.65625 -2.984375 C 8.957031 -3.546875 9.109375 -4.195312 9.109375 -4.9375 Z M 9.109375 -4.9375 "/></g></g></g><g fill="#366994" fill-opacity="1"><g transform="translate(510.507415, 269.933236)"><g><path d="M 0.765625 -4.953125 C 0.765625 -5.960938 0.96875 -6.847656 1.375 -7.609375 C 1.789062 -8.367188 2.351562 -8.957031 3.0625 -9.375 C 3.769531 -9.800781 4.570312 -10.015625 5.46875 -10.015625 C 6.226562 -10.015625 6.9375 -9.835938 7.59375 -9.484375 C 8.257812 -9.128906 8.765625 -8.660156 9.109375 -8.078125 L 9.109375 -13.296875 L 10.765625 -13.296875 L 10.765625 0 L 9.109375 0 L 9.109375 -1.84375 C 8.785156 -1.257812 8.304688 -0.78125 7.671875 -0.40625 C 7.035156 -0.03125 6.289062 0.15625 5.4375 0.15625 C 4.5625 0.15625 3.769531 -0.0546875 3.0625 -0.484375 C 2.351562 -0.910156 1.789062 -1.515625 1.375 -2.296875 C 0.96875 -3.078125 0.765625 -3.960938 0.765625 -4.953125 Z M 9.109375 -4.9375 C 9.109375 -5.6875 8.957031 -6.332031 8.65625 -6.875 C 8.363281 -7.425781 7.960938 -7.847656 7.453125 -8.140625 C 6.941406 -8.441406 6.378906 -8.59375 5.765625 -8.59375 C 5.148438 -8.59375 4.59375 -8.445312 4.09375 -8.15625 C 3.59375 -7.863281 3.191406 -7.441406 2.890625 -6.890625 C 2.585938 -6.347656 2.4375 -5.703125 2.4375 -4.953125 C 2.4375 -4.203125 2.585938 -3.546875 2.890625 -2.984375 C 3.191406 -2.429688 3.59375 -2.007812 4.09375 -1.71875 C 4.59375 -1.425781 5.148438 -1.28125 5.765625 -1.28125 C 6.378906 -1.28125 6.941406 -1.425781 7.453125 -1.71875 C 7.960938 -2.007812 8.363281 -2.429688 8.65625 -2.984375 C 8.957031 -3.546875 9.109375 -4.195312 9.109375 -4.9375 Z M 9.109375 -4.9375 "/></g></g></g><g fill="#366994" fill-opacity="1"><g transform="translate(522.65858, 269.933236)"><g><path d="M 9.859375 -9.84375 L 3.9375 4.640625 L 2.25 4.640625 L 4.1875 -0.109375 L 0.21875 -9.84375 L 2.03125 -9.84375 L 5.125 -1.875 L 8.171875 -9.84375 Z M 9.859375 -9.84375 "/></g></g></g><g fill="#366994" fill-opacity="1"><g transform="translate(532.778558, 269.933236)"><g/></g></g><g fill="#366994" fill-opacity="1"><g transform="translate(537.577905, 269.933236)"><g><path d="M 3.375 -8.5 L 3.375 -2.6875 C 3.375 -2.207031 3.472656 -1.867188 3.671875 -1.671875 C 3.878906 -1.484375 4.238281 -1.390625 4.75 -1.390625 L 5.953125 -1.390625 L 5.953125 0 L 4.46875 0 C 3.5625 0 2.878906 -0.207031 2.421875 -0.625 C 1.972656 -1.039062 1.75 -1.726562 1.75 -2.6875 L 1.75 -8.5 L 0.46875 -8.5 L 0.46875 -9.84375 L 1.75 -9.84375 L 1.75 -12.328125 L 3.375 -12.328125 L 3.375 -9.84375 L 5.953125 -9.84375 L 5.953125 -8.5 Z M 3.375 -8.5 "/></g></g></g><g fill="#366994" fill-opacity="1"><g transform="translate(544.120841, 269.933236)"><g><path d="M 5.671875 0.15625 C 4.753906 0.15625 3.921875 -0.0507812 3.171875 -0.46875 C 2.421875 -0.882812 1.832031 -1.476562 1.40625 -2.25 C 0.976562 -3.019531 0.765625 -3.914062 0.765625 -4.9375 C 0.765625 -5.945312 0.984375 -6.835938 1.421875 -7.609375 C 1.859375 -8.378906 2.453125 -8.972656 3.203125 -9.390625 C 3.960938 -9.804688 4.8125 -10.015625 5.75 -10.015625 C 6.6875 -10.015625 7.53125 -9.804688 8.28125 -9.390625 C 9.039062 -8.972656 9.640625 -8.378906 10.078125 -7.609375 C 10.515625 -6.847656 10.734375 -5.957031 10.734375 -4.9375 C 10.734375 -3.914062 10.503906 -3.019531 10.046875 -2.25 C 9.597656 -1.476562 8.988281 -0.882812 8.21875 -0.46875 C 7.457031 -0.0507812 6.609375 0.15625 5.671875 0.15625 Z M 5.671875 -1.28125 C 6.265625 -1.28125 6.816406 -1.414062 7.328125 -1.6875 C 7.847656 -1.96875 8.265625 -2.378906 8.578125 -2.921875 C 8.898438 -3.472656 9.0625 -4.144531 9.0625 -4.9375 C 9.0625 -5.726562 8.90625 -6.398438 8.59375 -6.953125 C 8.28125 -7.503906 7.867188 -7.914062 7.359375 -8.1875 C 6.859375 -8.457031 6.316406 -8.59375 5.734375 -8.59375 C 5.128906 -8.59375 4.578125 -8.457031 4.078125 -8.1875 C 3.585938 -7.914062 3.191406 -7.503906 2.890625 -6.953125 C 2.585938 -6.398438 2.4375 -5.726562 2.4375 -4.9375 C 2.4375 -4.132812 2.582031 -3.457031 2.875 -2.90625 C 3.175781 -2.351562 3.570312 -1.941406 4.0625 -1.671875 C 4.550781 -1.410156 5.085938 -1.28125 5.671875 -1.28125 Z M 5.671875 -1.28125 "/></g></g></g><g fill="#366994" fill-opacity="1"><g transform="translate(555.624898, 269.933236)"><g/></g></g><g fill="#366994" fill-opacity="1"><g transform="translate(560.424246, 269.933236)"><g><path d="M 14.5 -9.84375 L 11.421875 0 L 9.734375 0 L 7.359375 -7.8125 L 5 0 L 3.3125 0 L 0.21875 -9.84375 L 1.890625 -9.84375 L 4.15625 -1.578125 L 6.59375 -9.84375 L 8.265625 -9.84375 L 10.65625 -1.5625 L 12.890625 -9.84375 Z M 14.5 -9.84375 "/></g></g></g><g fill="#366994" fill-opacity="1"><g transform="translate(575.163812, 269.933236)"><g><path d="M 5.671875 0.15625 C 4.753906 0.15625 3.921875 -0.0507812 3.171875 -0.46875 C 2.421875 -0.882812 1.832031 -1.476562 1.40625 -2.25 C 0.976562 -3.019531 0.765625 -3.914062 0.765625 -4.9375 C 0.765625 -5.945312 0.984375 -6.835938 1.421875 -7.609375 C 1.859375 -8.378906 2.453125 -8.972656 3.203125 -9.390625 C 3.960938 -9.804688 4.8125 -10.015625 5.75 -10.015625 C 6.6875 -10.015625 7.53125 -9.804688 8.28125 -9.390625 C 9.039062 -8.972656 9.640625 -8.378906 10.078125 -7.609375 C 10.515625 -6.847656 10.734375 -5.957031 10.734375 -4.9375 C 10.734375 -3.914062 10.503906 -3.019531 10.046875 -2.25 C 9.597656 -1.476562 8.988281 -0.882812 8.21875 -0.46875 C 7.457031 -0.0507812 6.609375 0.15625 5.671875 0.15625 Z M 5.671875 -1.28125 C 6.265625 -1.28125 6.816406 -1.414062 7.328125 -1.6875 C 7.847656 -1.96875 8.265625 -2.378906 8.578125 -2.921875 C 8.898438 -3.472656 9.0625 -4.144531 9.0625 -4.9375 C 9.0625 -5.726562 8.90625 -6.398438 8.59375 -6.953125 C 8.28125 -7.503906 7.867188 -7.914062 7.359375 -8.1875 C 6.859375 -8.457031 6.316406 -8.59375 5.734375 -8.59375 C 5.128906 -8.59375 4.578125 -8.457031 4.078125 -8.1875 C 3.585938 -7.914062 3.191406 -7.503906 2.890625 -6.953125 C 2.585938 -6.398438 2.4375 -5.726562 2.4375 -4.9375 C 2.4375 -4.132812 2.582031 -3.457031 2.875 -2.90625 C 3.175781 -2.351562 3.570312 -1.941406 4.0625 -1.671875 C 4.550781 -1.410156 5.085938 -1.28125 5.671875 -1.28125 Z M 5.671875 -1.28125 "/></g></g></g><g fill="#366994" fill-opacity="1"><g transform="translate(586.667869, 269.933236)"><g><path d="M 3.015625 -8.25 C 3.304688 -8.8125 3.71875 -9.25 4.25 -9.5625 C 4.78125 -9.875 5.429688 -10.03125 6.203125 -10.03125 L 6.203125 -8.34375 L 5.765625 -8.34375 C 3.929688 -8.34375 3.015625 -7.347656 3.015625 -5.359375 L 3.015625 0 L 1.390625 0 L 1.390625 -9.84375 L 3.015625 -9.84375 Z M 3.015625 -8.25 "/></g></g></g><g fill="#366994" fill-opacity="1"><g transform="translate(593.372589, 269.933236)"><g><path d="M 6.875 0 L 3.015625 -4.34375 L 3.015625 0 L 1.390625 0 L 1.390625 -13.296875 L 3.015625 -13.296875 L 3.015625 -5.484375 L 6.8125 -9.84375 L 9.09375 -9.84375 L 4.453125 -4.9375 L 9.109375 0 Z M 6.875 0 "/></g></g></g><g fill="#366994" fill-opacity="1"><g transform="translate(602.629751, 269.933236)"><g><path d="M 1.90625 0.109375 C 1.59375 0.109375 1.328125 0.00390625 1.109375 -0.203125 C 0.898438 -0.421875 0.796875 -0.6875 0.796875 -1 C 0.796875 -1.3125 0.898438 -1.578125 1.109375 -1.796875 C 1.328125 -2.015625 1.59375 -2.125 1.90625 -2.125 C 2.207031 -2.125 2.460938 -2.015625 2.671875 -1.796875 C 2.878906 -1.578125 2.984375 -1.3125 2.984375 -1 C 2.984375 -0.6875 2.878906 -0.421875 2.671875 -0.203125 C 2.460938 0.00390625 2.207031 0.109375 1.90625 0.109375 Z M 1.90625 0.109375 "/></g></g></g><g clip-path="url(#213f442390)"><path fill="#1a87ef" d="M 663.023438 189.796875 L 662.019531 188.761719 C 661.289062 188.003906 660.945312 186.953125 661.09375 185.914062 L 661.296875 184.484375 C 661.382812 183.855469 660.960938 183.273438 660.335938 183.160156 L 658.914062 182.910156 C 657.878906 182.730469 656.984375 182.082031 656.492188 181.152344 L 655.8125 179.875 C 655.519531 179.320312 654.832031 179.097656 654.261719 179.375 L 652.964844 180.007812 C 652.019531 180.46875 650.917969 180.46875 649.972656 180.007812 L 648.671875 179.375 C 648.105469 179.097656 647.417969 179.320312 647.121094 179.878906 L 646.445312 181.15625 C 645.953125 182.082031 645.058594 182.734375 644.023438 182.914062 L 642.601562 183.164062 C 641.976562 183.273438 641.550781 183.855469 641.640625 184.484375 L 641.84375 185.914062 C 641.992188 186.953125 641.648438 188.003906 640.917969 188.761719 L 639.914062 189.800781 C 639.472656 190.253906 639.472656 190.976562 639.914062 191.433594 L 640.917969 192.46875 C 641.648438 193.226562 641.992188 194.277344 641.84375 195.316406 L 641.640625 196.746094 C 641.550781 197.375 641.976562 197.957031 642.601562 198.066406 L 644.023438 198.316406 C 645.058594 198.5 645.953125 199.148438 646.445312 200.078125 L 647.121094 201.355469 C 647.417969 201.914062 648.105469 202.136719 648.675781 201.859375 L 649.972656 201.222656 C 650.917969 200.761719 652.019531 200.761719 652.964844 201.222656 L 654.261719 201.859375 C 654.832031 202.136719 655.519531 201.914062 655.816406 201.355469 L 656.492188 200.078125 C 656.984375 199.148438 657.878906 198.5 658.914062 198.316406 L 660.335938 198.066406 C 660.960938 197.960938 661.386719 197.375 661.296875 196.746094 L 661.09375 195.316406 C 660.945312 194.277344 661.289062 193.226562 662.019531 192.46875 L 663.023438 191.433594 C 663.460938 190.976562 663.460938 190.253906 663.023438 189.796875 Z M 649.527344 194.828125 L 646.925781 192.222656 C 646.480469 191.777344 646.480469 191.058594 646.925781 190.613281 C 647.367188 190.171875 648.085938 190.171875 648.53125 190.613281 L 650.332031 192.417969 L 655.542969 187.207031 C 655.984375 186.765625 656.703125 186.765625 657.148438 187.207031 C 657.589844 187.648438 657.589844 188.371094 657.148438 188.8125 L 651.136719 194.828125 C 650.691406 195.269531 649.972656 195.269531 649.527344 194.828125 Z M 649.527344 194.828125 " fill-opacity="1" fill-rule="nonzero"/></g></svg>