<svg xmlns="http://www.w3.org/2000/svg" xmlns:xlink="http://www.w3.org/1999/xlink" width="1366" zoomAndPan="magnify" viewBox="0 0 1024.5 529.499989" height="706" preserveAspectRatio="xMidYMid meet" version="1.0"><defs><filter x="0%" y="0%" width="100%" height="100%" id="fbb18032f9"><feColorMatrix values="0 0 0 0 1 0 0 0 0 1 0 0 0 0 1 0 0 0 1 0" color-interpolation-filters="sRGB"/></filter><mask id="4777b5acec"><g filter="url(#fbb18032f9)"><rect x="-102.45" width="1229.4" fill="#000000" y="-52.949999" height="635.399987" fill-opacity="0.44"/></g></mask><clipPath id="28c9ca9251"><path d="M 0.34375 79 L 64 79 L 64 213 L 0.34375 213 Z M 0.34375 79 " clip-rule="nonzero"/></clipPath><clipPath id="37fd61aa58"><path d="M 92 69 L 220 69 L 220 335.863281 L 92 335.863281 Z M 92 69 " clip-rule="nonzero"/></clipPath><clipPath id="42cfe18a77"><path d="M 111 78 L 234 78 L 234 335.863281 L 111 335.863281 Z M 111 78 " clip-rule="nonzero"/></clipPath><clipPath id="3a5bda43fe"><path d="M 130 93 L 246 93 L 246 335.863281 L 130 335.863281 Z M 130 93 " clip-rule="nonzero"/></clipPath><clipPath id="e8c21981a3"><path d="M 149 111 L 256 111 L 256 335.863281 L 149 335.863281 Z M 149 111 " clip-rule="nonzero"/></clipPath><clipPath id="658724f14c"><path d="M 168 129 L 267 129 L 267 335.863281 L 168 335.863281 Z M 168 129 " clip-rule="nonzero"/></clipPath><clipPath id="ca052b514d"><path d="M 187 148 L 277 148 L 277 335.863281 L 187 335.863281 Z M 187 148 " clip-rule="nonzero"/></clipPath><clipPath id="fc8773120d"><path d="M 279 163 L 321.789062 163 L 321.789062 184 L 279 184 Z M 279 163 " clip-rule="nonzero"/></clipPath><clipPath id="c6e9380cfe"><path d="M 274 165 L 321.789062 165 L 321.789062 189 L 274 189 Z M 274 165 " clip-rule="nonzero"/></clipPath><clipPath id="8d227514b1"><path d="M 270 168 L 321.789062 168 L 321.789062 193 L 270 193 Z M 270 168 " clip-rule="nonzero"/></clipPath><clipPath id="1406375c72"><path d="M 265 171 L 321.789062 171 L 321.789062 198 L 265 198 Z M 265 171 " clip-rule="nonzero"/></clipPath><clipPath id="e7ff102481"><path d="M 261 173 L 321.789062 173 L 321.789062 203 L 261 203 Z M 261 173 " clip-rule="nonzero"/></clipPath><clipPath id="dce1714f10"><path d="M 257 176 L 321.789062 176 L 321.789062 208 L 257 208 Z M 257 176 " clip-rule="nonzero"/></clipPath><clipPath id="45aadbd1a1"><path d="M 255 180 L 321.789062 180 L 321.789062 212 L 255 212 Z M 255 180 " clip-rule="nonzero"/></clipPath><clipPath id="73dcb93f14"><path d="M 70 0.929688 L 134 0.929688 L 134 31 L 70 31 Z M 70 0.929688 " clip-rule="nonzero"/></clipPath><clipPath id="bdc5d75529"><rect x="0" width="322" y="0" height="337"/></clipPath></defs><g mask="url(#4777b5acec)"><g transform="matrix(1, 0, 0, 1, 351, 96)"><g clip-path="url(#bdc5d75529)"><g clip-path="url(#28c9ca9251)"><path fill="#ffffff" d="M 63.46875 79.78125 L 1.308594 212.941406 C 0.894531 211.132812 0.578125 209.320312 0.34375 207.492188 L 56.101562 88.046875 C 58.308594 85.035156 60.769531 82.28125 63.46875 79.78125 Z M 63.46875 79.78125 " fill-opacity="1" fill-rule="nonzero"/></g><path fill="#ffffff" d="M 88.816406 66.109375 L 10.46875 233.957031 L 8.515625 230.589844 L 84.738281 67.289062 C 86.097656 66.835938 87.457031 66.460938 88.816406 66.109375 Z M 88.816406 66.109375 " fill-opacity="1" fill-rule="nonzero"/><path fill="#ffffff" d="M 108.589844 64.414062 L 20.964844 252.113281 L 19.015625 248.75 L 105.0625 64.414062 Z M 108.589844 64.414062 " fill-opacity="1" fill-rule="nonzero"/><path fill="#ffffff" d="M 127.554688 64.414062 L 31.460938 270.253906 L 29.511719 266.890625 L 124.03125 64.414062 Z M 127.554688 64.414062 " fill-opacity="1" fill-rule="nonzero"/><path fill="#ffffff" d="M 146.523438 64.414062 L 41.960938 288.414062 L 40.011719 285.050781 L 142.996094 64.414062 Z M 146.523438 64.414062 " fill-opacity="1" fill-rule="nonzero"/><path fill="#ffffff" d="M 165.488281 64.414062 L 52.457031 306.574219 L 50.507812 303.210938 L 161.960938 64.414062 Z M 165.488281 64.414062 " fill-opacity="1" fill-rule="nonzero"/><path fill="#ffffff" d="M 184.453125 64.414062 L 64.492188 321.390625 C 63.644531 320.664062 62.835938 319.894531 62.046875 319.109375 L 180.929688 64.414062 Z M 184.453125 64.414062 " fill-opacity="1" fill-rule="nonzero"/><path fill="#ffffff" d="M 203.007812 65.300781 L 79.085938 330.777344 C 78.121094 330.34375 77.15625 329.871094 76.210938 329.398438 L 199.71875 64.828125 C 200.820312 64.945312 201.925781 65.125 203.007812 65.300781 Z M 203.007812 65.300781 " fill-opacity="1" fill-rule="nonzero"/><g clip-path="url(#37fd61aa58)"><path fill="#ffffff" d="M 219.394531 70.851562 L 95.886719 335.4375 C 94.78125 335.300781 93.679688 335.144531 92.597656 334.945312 L 216.519531 69.472656 C 217.484375 69.90625 218.449219 70.378906 219.394531 70.851562 Z M 219.394531 70.851562 " fill-opacity="1" fill-rule="nonzero"/></g><g clip-path="url(#42cfe18a77)"><path fill="#ffffff" d="M 233.554688 81.140625 L 114.675781 335.832031 L 111.148438 335.832031 L 231.09375 78.855469 C 231.941406 79.585938 232.746094 80.351562 233.554688 81.140625 Z M 233.554688 81.140625 " fill-opacity="1" fill-rule="nonzero"/></g><g clip-path="url(#3a5bda43fe)"><path fill="#ffffff" d="M 245.097656 97.035156 L 133.621094 335.851562 L 130.117188 335.851562 L 243.148438 93.671875 Z M 245.097656 97.035156 " fill-opacity="1" fill-rule="nonzero"/></g><g clip-path="url(#e8c21981a3)"><path fill="#ffffff" d="M 255.59375 115.195312 L 152.589844 335.851562 L 149.082031 335.851562 L 253.644531 111.832031 Z M 255.59375 115.195312 " fill-opacity="1" fill-rule="nonzero"/></g><g clip-path="url(#658724f14c)"><path fill="#ffffff" d="M 266.089844 133.355469 L 171.574219 335.851562 L 168.046875 335.851562 L 264.140625 129.992188 Z M 266.089844 133.355469 " fill-opacity="1" fill-rule="nonzero"/></g><g clip-path="url(#ca052b514d)"><path fill="#ffffff" d="M 276.570312 151.515625 L 190.539062 335.851562 L 187.015625 335.851562 L 274.640625 148.152344 Z M 276.570312 151.515625 " fill-opacity="1" fill-rule="nonzero"/></g><path fill="#ffffff" d="M 287.066406 169.675781 L 210.847656 332.980469 C 209.507812 333.414062 208.148438 333.804688 206.789062 334.140625 L 285.136719 166.292969 Z M 287.066406 169.675781 " fill-opacity="1" fill-rule="nonzero"/><path fill="#ffffff" d="M 295.261719 192.777344 L 239.503906 312.203125 C 237.296875 315.210938 234.835938 317.96875 232.136719 320.464844 L 294.296875 187.304688 C 294.6875 189.117188 295.023438 190.945312 295.261719 192.777344 Z M 295.261719 192.777344 " fill-opacity="1" fill-rule="nonzero"/><path fill="#ffffff" d="M 317.929688 176.917969 L 284.625 161.394531 C 285.078125 161.296875 285.53125 161.21875 285.984375 161.15625 L 315.863281 175.066406 C 316.628906 175.617188 317.320312 176.25 317.929688 176.917969 Z M 317.929688 176.917969 " fill-opacity="1" fill-rule="nonzero"/><g clip-path="url(#fc8773120d)"><path fill="#ffffff" d="M 321.355469 183.234375 L 279.367188 163.675781 L 280.214844 163.183594 L 321.0625 182.210938 C 321.179688 182.5625 321.277344 182.898438 321.355469 183.234375 Z M 321.355469 183.234375 " fill-opacity="1" fill-rule="nonzero"/></g><g clip-path="url(#c6e9380cfe)"><path fill="#ffffff" d="M 321.789062 188.171875 L 274.835938 166.3125 L 275.664062 165.820312 L 321.789062 187.285156 Z M 321.789062 188.171875 " fill-opacity="1" fill-rule="nonzero"/></g><g clip-path="url(#8d227514b1)"><path fill="#ffffff" d="M 321.789062 192.914062 L 270.285156 168.929688 L 271.132812 168.4375 L 321.789062 192.027344 Z M 321.789062 192.914062 " fill-opacity="1" fill-rule="nonzero"/></g><g clip-path="url(#1406375c72)"><path fill="#ffffff" d="M 321.789062 197.636719 L 265.757812 171.546875 L 266.585938 171.054688 L 321.789062 196.769531 Z M 321.789062 197.636719 " fill-opacity="1" fill-rule="nonzero"/></g><g clip-path="url(#e7ff102481)"><path fill="#ffffff" d="M 321.789062 202.375 L 261.207031 174.164062 L 262.054688 173.671875 L 321.789062 201.492188 Z M 321.789062 202.375 " fill-opacity="1" fill-rule="nonzero"/></g><g clip-path="url(#dce1714f10)"><path fill="#ffffff" d="M 321.789062 207.117188 L 257.503906 177.171875 C 257.683594 176.957031 257.878906 176.761719 258.074219 176.5625 L 321.789062 206.234375 Z M 321.789062 207.117188 " fill-opacity="1" fill-rule="nonzero"/></g><g clip-path="url(#45aadbd1a1)"><path fill="#ffffff" d="M 321.554688 211.742188 L 255.140625 180.8125 C 255.257812 180.578125 255.359375 180.339844 255.496094 180.105469 L 321.671875 210.933594 C 321.652344 211.191406 321.613281 211.464844 321.554688 211.742188 Z M 321.554688 211.742188 " fill-opacity="1" fill-rule="nonzero"/></g><path fill="#ffffff" d="M 320.175781 215.835938 L 254 185.003906 C 254.039062 184.726562 254.078125 184.453125 254.117188 184.175781 L 320.53125 215.105469 C 320.410156 215.363281 320.292969 215.597656 320.175781 215.835938 Z M 320.175781 215.835938 " fill-opacity="1" fill-rule="nonzero"/><path fill="#ffffff" d="M 317.59375 219.375 L 253.878906 189.707031 L 253.878906 188.820312 L 318.164062 218.765625 C 317.988281 218.960938 317.792969 219.179688 317.59375 219.375 Z M 317.59375 219.375 " fill-opacity="1" fill-rule="nonzero"/><path fill="#ffffff" d="M 313.617188 222.25 L 253.878906 194.429688 L 253.878906 193.542969 L 314.464844 221.757812 Z M 313.617188 222.25 " fill-opacity="1" fill-rule="nonzero"/><path fill="#ffffff" d="M 309.085938 224.867188 L 253.878906 199.167969 L 253.878906 198.285156 L 309.914062 224.394531 Z M 309.085938 224.867188 " fill-opacity="1" fill-rule="nonzero"/><path fill="#ffffff" d="M 304.535156 227.480469 L 253.878906 203.890625 L 253.878906 203.027344 L 305.382812 227.011719 Z M 304.535156 227.480469 " fill-opacity="1" fill-rule="nonzero"/><path fill="#ffffff" d="M 299.988281 230.117188 L 253.878906 208.632812 L 253.878906 207.75 L 300.835938 229.625 Z M 299.988281 230.117188 " fill-opacity="1" fill-rule="nonzero"/><path fill="#ffffff" d="M 295.457031 232.734375 L 254.609375 213.710938 C 254.492188 213.375 254.394531 213.039062 254.3125 212.6875 L 296.304688 232.242188 Z M 295.457031 232.734375 " fill-opacity="1" fill-rule="nonzero"/><path fill="#ffffff" d="M 289.667969 234.761719 L 259.789062 220.851562 C 259.039062 220.300781 258.351562 219.691406 257.722656 219.003906 L 291.027344 234.527344 C 290.59375 234.625 290.140625 234.722656 289.667969 234.761719 Z M 289.667969 234.761719 " fill-opacity="1" fill-rule="nonzero"/><g clip-path="url(#73dcb93f14)"><path fill="#ffffff" d="M 133.484375 30.871094 L 70.222656 1.398438 C 71.089844 1.199219 71.957031 1.042969 72.820312 0.945312 L 129.5625 27.386719 C 130.980469 28.429688 132.300781 29.589844 133.484375 30.871094 Z M 133.484375 30.871094 " fill-opacity="1" fill-rule="nonzero"/></g><path fill="#ffffff" d="M 139.984375 42.890625 L 60.238281 5.746094 L 61.832031 4.820312 L 139.429688 40.964844 C 139.628906 41.613281 139.824219 42.242188 139.984375 42.890625 Z M 139.984375 42.890625 " fill-opacity="1" fill-rule="nonzero"/><path fill="#ffffff" d="M 140.789062 52.277344 L 51.609375 10.722656 L 53.207031 9.796875 L 140.789062 50.605469 Z M 140.789062 52.277344 " fill-opacity="1" fill-rule="nonzero"/><path fill="#ffffff" d="M 140.789062 61.269531 L 42.984375 15.699219 L 44.578125 14.777344 L 140.789062 59.59375 Z M 140.789062 61.269531 " fill-opacity="1" fill-rule="nonzero"/><path fill="#ffffff" d="M 140.789062 70.257812 L 34.355469 20.679688 L 35.953125 19.753906 L 140.789062 68.585938 Z M 140.789062 70.257812 " fill-opacity="1" fill-rule="nonzero"/><path fill="#ffffff" d="M 140.789062 79.25 L 25.730469 25.65625 L 27.324219 24.730469 L 140.789062 77.578125 Z M 140.789062 79.25 " fill-opacity="1" fill-rule="nonzero"/><path fill="#ffffff" d="M 140.789062 88.242188 L 18.679688 31.363281 C 19.035156 30.96875 19.390625 30.574219 19.761719 30.203125 L 140.789062 86.570312 Z M 140.789062 88.242188 " fill-opacity="1" fill-rule="nonzero"/><path fill="#ffffff" d="M 140.355469 97.035156 L 14.230469 38.289062 C 14.445312 37.835938 14.660156 37.382812 14.878906 36.929688 L 140.59375 95.484375 C 140.535156 95.996094 140.457031 96.527344 140.355469 97.035156 Z M 140.355469 97.035156 " fill-opacity="1" fill-rule="nonzero"/><path fill="#ffffff" d="M 137.738281 104.808594 L 12.023438 46.234375 C 12.082031 45.707031 12.160156 45.195312 12.257812 44.683594 L 138.386719 103.449219 C 138.171875 103.902344 137.953125 104.355469 137.738281 104.808594 Z M 137.738281 104.808594 " fill-opacity="1" fill-rule="nonzero"/><path fill="#ffffff" d="M 132.832031 111.519531 L 11.824219 55.148438 L 11.824219 53.476562 L 133.9375 110.355469 C 133.582031 110.75 133.207031 111.144531 132.832031 111.519531 Z M 132.832031 111.519531 " fill-opacity="1" fill-rule="nonzero"/><path fill="#ffffff" d="M 125.289062 117.007812 L 11.824219 64.140625 L 11.824219 62.46875 L 126.886719 116.082031 Z M 125.289062 117.007812 " fill-opacity="1" fill-rule="nonzero"/><path fill="#ffffff" d="M 116.664062 121.964844 L 11.824219 73.132812 L 11.824219 71.460938 L 118.257812 121.058594 Z M 116.664062 121.964844 " fill-opacity="1" fill-rule="nonzero"/><path fill="#ffffff" d="M 108.039062 126.941406 L 11.824219 82.125 L 11.824219 80.472656 L 109.632812 126.019531 Z M 108.039062 126.941406 " fill-opacity="1" fill-rule="nonzero"/><path fill="#ffffff" d="M 99.410156 131.921875 L 11.824219 91.132812 L 11.824219 89.460938 L 101.007812 130.996094 Z M 99.410156 131.921875 " fill-opacity="1" fill-rule="nonzero"/><path fill="#ffffff" d="M 90.785156 136.898438 L 13.183594 100.753906 C 12.96875 100.125 12.789062 99.476562 12.632812 98.828125 L 92.378906 135.972656 Z M 90.785156 136.898438 " fill-opacity="1" fill-rule="nonzero"/><path fill="#ffffff" d="M 79.792969 140.773438 L 23.050781 114.351562 C 21.613281 113.308594 20.316406 112.128906 19.132812 110.847656 L 82.394531 140.320312 C 81.527344 140.519531 80.679688 140.675781 79.792969 140.773438 Z M 79.792969 140.773438 " fill-opacity="1" fill-rule="nonzero"/></g></g></g></svg>