<svg xmlns="http://www.w3.org/2000/svg" xmlns:xlink="http://www.w3.org/1999/xlink" width="1366" zoomAndPan="magnify" viewBox="0 0 1024.5 529.499989" height="706" preserveAspectRatio="xMidYMid meet" version="1.0"><defs><filter x="0%" y="0%" width="100%" height="100%" id="b2ffb9cca2"><feColorMatrix values="0 0 0 0 1 0 0 0 0 1 0 0 0 0 1 0 0 0 1 0" color-interpolation-filters="sRGB"/></filter><g/><mask id="c1db375d7b"><g filter="url(#b2ffb9cca2)"><rect x="-102.45" width="1229.4" fill="#000000" y="-52.949999" height="635.399987" fill-opacity="0.12"/></g></mask><clipPath id="541b0c7b45"><path d="M 10.507812 11.152344 L 545.492188 11.152344 L 545.492188 325.847656 L 10.507812 325.847656 Z M 10.507812 11.152344 " clip-rule="nonzero"/></clipPath><clipPath id="7044355e8e"><path d="M 10.511719 11.152344 L 545.488281 11.152344 L 545.488281 325.84375 L 10.511719 325.84375 Z M 10.511719 11.152344 " clip-rule="nonzero"/></clipPath><clipPath id="25ae09d8bf"><rect x="0" width="558" y="0" height="339"/></clipPath><clipPath id="ffff031eaf"><path d="M 343.34375 243.121094 L 398.789062 243.121094 L 398.789062 285.832031 L 343.34375 285.832031 Z M 343.34375 243.121094 " clip-rule="nonzero"/></clipPath><mask id="458aef339c"><g filter="url(#b2ffb9cca2)"><rect x="-102.45" width="1229.4" fill="#000000" y="-52.949999" height="635.399987" fill-opacity="0.64"/></g></mask><clipPath id="ad54d2c8bc"><path d="M 19.242188 23 L 76.996094 23 L 76.996094 25.671875 L 19.242188 25.671875 Z M 83.105469 23 L 201.855469 23 L 201.855469 25.671875 L 83.105469 25.671875 Z M 0.445312 23 L 13.585938 23 L 13.585938 25.671875 L 0.445312 25.671875 Z M 0.445312 25.671875 L 201.855469 25.671875 L 201.855469 26 L 0.445312 26 Z M 0.445312 25.671875 " clip-rule="nonzero"/></clipPath><clipPath id="aa3ae8c00b"><rect x="0" width="202" y="0" height="29"/></clipPath></defs><g mask="url(#c1db375d7b)"><g transform="matrix(1, 0, 0, 1, 234, 96)"><g clip-path="url(#25ae09d8bf)"><g clip-path="url(#541b0c7b45)"><path fill="#1a87ef" d="M 10.507812 11.152344 L 545.246094 11.152344 L 545.246094 325.847656 L 10.507812 325.847656 Z M 10.507812 11.152344 " fill-opacity="1" fill-rule="nonzero"/></g><g clip-path="url(#7044355e8e)"><path fill="#000000" d="M 15.003906 8.902344 L 17.253906 8.902344 L 17.253906 13.398438 L 15.003906 13.398438 Z M 19.5 8.902344 L 21.75 8.902344 L 21.75 13.398438 L 19.5 13.398438 Z M 23.996094 8.902344 L 26.246094 8.902344 L 26.246094 13.398438 L 23.996094 13.398438 Z M 28.492188 8.902344 L 30.742188 8.902344 L 30.742188 13.398438 L 28.492188 13.398438 Z M 32.988281 8.902344 L 35.238281 8.902344 L 35.238281 13.398438 L 32.988281 13.398438 Z M 37.484375 8.902344 L 39.730469 8.902344 L 39.730469 13.398438 L 37.484375 13.398438 Z M 41.980469 8.902344 L 44.226562 8.902344 L 44.226562 13.398438 L 41.980469 13.398438 Z M 46.476562 8.902344 L 48.722656 8.902344 L 48.722656 13.398438 L 46.476562 13.398438 Z M 50.972656 8.902344 L 53.21875 8.902344 L 53.21875 13.398438 L 50.972656 13.398438 Z M 55.46875 8.902344 L 57.714844 8.902344 L 57.714844 13.398438 L 55.46875 13.398438 Z M 59.964844 8.902344 L 62.210938 8.902344 L 62.210938 13.398438 L 59.964844 13.398438 Z M 64.457031 8.902344 L 66.707031 8.902344 L 66.707031 13.398438 L 64.457031 13.398438 Z M 68.953125 8.902344 L 71.203125 8.902344 L 71.203125 13.398438 L 68.953125 13.398438 Z M 73.449219 8.902344 L 75.699219 8.902344 L 75.699219 13.398438 L 73.449219 13.398438 Z M 77.945312 8.902344 L 80.195312 8.902344 L 80.195312 13.398438 L 77.945312 13.398438 Z M 82.441406 8.902344 L 84.691406 8.902344 L 84.691406 13.398438 L 82.441406 13.398438 Z M 86.9375 8.902344 L 89.1875 8.902344 L 89.1875 13.398438 L 86.9375 13.398438 Z M 91.433594 8.902344 L 93.679688 8.902344 L 93.679688 13.398438 L 91.433594 13.398438 Z M 95.929688 8.902344 L 98.175781 8.902344 L 98.175781 13.398438 L 95.929688 13.398438 Z M 100.425781 8.902344 L 102.671875 8.902344 L 102.671875 13.398438 L 100.425781 13.398438 Z M 104.921875 8.902344 L 107.167969 8.902344 L 107.167969 13.398438 L 104.921875 13.398438 Z M 109.417969 8.902344 L 111.664062 8.902344 L 111.664062 13.398438 L 109.417969 13.398438 Z M 113.914062 8.902344 L 116.160156 8.902344 L 116.160156 13.398438 L 113.914062 13.398438 Z M 118.40625 8.902344 L 120.65625 8.902344 L 120.65625 13.398438 L 118.40625 13.398438 Z M 122.902344 8.902344 L 125.152344 8.902344 L 125.152344 13.398438 L 122.902344 13.398438 Z M 127.398438 8.902344 L 129.648438 8.902344 L 129.648438 13.398438 L 127.398438 13.398438 Z M 131.894531 8.902344 L 134.144531 8.902344 L 134.144531 13.398438 L 131.894531 13.398438 Z M 136.390625 8.902344 L 138.640625 8.902344 L 138.640625 13.398438 L 136.390625 13.398438 Z M 140.886719 8.902344 L 143.132812 8.902344 L 143.132812 13.398438 L 140.886719 13.398438 Z M 145.382812 8.902344 L 147.628906 8.902344 L 147.628906 13.398438 L 145.382812 13.398438 Z M 149.878906 8.902344 L 152.125 8.902344 L 152.125 13.398438 L 149.878906 13.398438 Z M 154.375 8.902344 L 156.621094 8.902344 L 156.621094 13.398438 L 154.375 13.398438 Z M 158.871094 8.902344 L 161.117188 8.902344 L 161.117188 13.398438 L 158.871094 13.398438 Z M 163.367188 8.902344 L 165.613281 8.902344 L 165.613281 13.398438 L 163.367188 13.398438 Z M 167.859375 8.902344 L 170.109375 8.902344 L 170.109375 13.398438 L 167.859375 13.398438 Z M 172.355469 8.902344 L 174.605469 8.902344 L 174.605469 13.398438 L 172.355469 13.398438 Z M 176.851562 8.902344 L 179.101562 8.902344 L 179.101562 13.398438 L 176.851562 13.398438 Z M 181.347656 8.902344 L 183.597656 8.902344 L 183.597656 13.398438 L 181.347656 13.398438 Z M 185.84375 8.902344 L 188.09375 8.902344 L 188.09375 13.398438 L 185.84375 13.398438 Z M 190.339844 8.902344 L 192.589844 8.902344 L 192.589844 13.398438 L 190.339844 13.398438 Z M 194.835938 8.902344 L 197.082031 8.902344 L 197.082031 13.398438 L 194.835938 13.398438 Z M 199.332031 8.902344 L 201.578125 8.902344 L 201.578125 13.398438 L 199.332031 13.398438 Z M 203.828125 8.902344 L 206.074219 8.902344 L 206.074219 13.398438 L 203.828125 13.398438 Z M 208.324219 8.902344 L 210.570312 8.902344 L 210.570312 13.398438 L 208.324219 13.398438 Z M 212.820312 8.902344 L 215.066406 8.902344 L 215.066406 13.398438 L 212.820312 13.398438 Z M 217.316406 8.902344 L 219.5625 8.902344 L 219.5625 13.398438 L 217.316406 13.398438 Z M 221.808594 8.902344 L 224.058594 8.902344 L 224.058594 13.398438 L 221.808594 13.398438 Z M 226.304688 8.902344 L 228.554688 8.902344 L 228.554688 13.398438 L 226.304688 13.398438 Z M 230.800781 8.902344 L 233.050781 8.902344 L 233.050781 13.398438 L 230.800781 13.398438 Z M 235.296875 8.902344 L 237.546875 8.902344 L 237.546875 13.398438 L 235.296875 13.398438 Z M 239.792969 8.902344 L 242.042969 8.902344 L 242.042969 13.398438 L 239.792969 13.398438 Z M 244.289062 8.902344 L 246.535156 8.902344 L 246.535156 13.398438 L 244.289062 13.398438 Z M 248.785156 8.902344 L 251.03125 8.902344 L 251.03125 13.398438 L 248.785156 13.398438 Z M 253.28125 8.902344 L 255.527344 8.902344 L 255.527344 13.398438 L 253.28125 13.398438 Z M 257.777344 8.902344 L 260.023438 8.902344 L 260.023438 13.398438 L 257.777344 13.398438 Z M 262.273438 8.902344 L 264.519531 8.902344 L 264.519531 13.398438 L 262.273438 13.398438 Z M 266.769531 8.902344 L 269.015625 8.902344 L 269.015625 13.398438 L 266.769531 13.398438 Z M 271.261719 8.902344 L 273.511719 8.902344 L 273.511719 13.398438 L 271.261719 13.398438 Z M 275.757812 8.902344 L 278.007812 8.902344 L 278.007812 13.398438 L 275.757812 13.398438 Z M 280.253906 8.902344 L 282.503906 8.902344 L 282.503906 13.398438 L 280.253906 13.398438 Z M 284.75 8.902344 L 287 8.902344 L 287 13.398438 L 284.75 13.398438 Z M 289.246094 8.902344 L 291.496094 8.902344 L 291.496094 13.398438 L 289.246094 13.398438 Z M 293.742188 8.902344 L 295.992188 8.902344 L 295.992188 13.398438 L 293.742188 13.398438 Z M 298.238281 8.902344 L 300.484375 8.902344 L 300.484375 13.398438 L 298.238281 13.398438 Z M 302.734375 8.902344 L 304.980469 8.902344 L 304.980469 13.398438 L 302.734375 13.398438 Z M 307.230469 8.902344 L 309.476562 8.902344 L 309.476562 13.398438 L 307.230469 13.398438 Z M 311.726562 8.902344 L 313.972656 8.902344 L 313.972656 13.398438 L 311.726562 13.398438 Z M 316.222656 8.902344 L 318.46875 8.902344 L 318.46875 13.398438 L 316.222656 13.398438 Z M 320.71875 8.902344 L 322.964844 8.902344 L 322.964844 13.398438 L 320.71875 13.398438 Z M 325.210938 8.902344 L 327.460938 8.902344 L 327.460938 13.398438 L 325.210938 13.398438 Z M 329.707031 8.902344 L 331.957031 8.902344 L 331.957031 13.398438 L 329.707031 13.398438 Z M 334.203125 8.902344 L 336.453125 8.902344 L 336.453125 13.398438 L 334.203125 13.398438 Z M 338.699219 8.902344 L 340.949219 8.902344 L 340.949219 13.398438 L 338.699219 13.398438 Z M 343.195312 8.902344 L 345.445312 8.902344 L 345.445312 13.398438 L 343.195312 13.398438 Z M 347.691406 8.902344 L 349.9375 8.902344 L 349.9375 13.398438 L 347.691406 13.398438 Z M 352.1875 8.902344 L 354.433594 8.902344 L 354.433594 13.398438 L 352.1875 13.398438 Z M 356.683594 8.902344 L 358.929688 8.902344 L 358.929688 13.398438 L 356.683594 13.398438 Z M 361.179688 8.902344 L 363.425781 8.902344 L 363.425781 13.398438 L 361.179688 13.398438 Z M 365.675781 8.902344 L 367.921875 8.902344 L 367.921875 13.398438 L 365.675781 13.398438 Z M 370.171875 8.902344 L 372.417969 8.902344 L 372.417969 13.398438 L 370.171875 13.398438 Z M 374.664062 8.902344 L 376.914062 8.902344 L 376.914062 13.398438 L 374.664062 13.398438 Z M 379.160156 8.902344 L 381.410156 8.902344 L 381.410156 13.398438 L 379.160156 13.398438 Z M 383.65625 8.902344 L 385.90625 8.902344 L 385.90625 13.398438 L 383.65625 13.398438 Z M 388.152344 8.902344 L 390.402344 8.902344 L 390.402344 13.398438 L 388.152344 13.398438 Z M 392.648438 8.902344 L 394.898438 8.902344 L 394.898438 13.398438 L 392.648438 13.398438 Z M 397.144531 8.902344 L 399.394531 8.902344 L 399.394531 13.398438 L 397.144531 13.398438 Z M 401.640625 8.902344 L 403.886719 8.902344 L 403.886719 13.398438 L 401.640625 13.398438 Z M 406.136719 8.902344 L 408.382812 8.902344 L 408.382812 13.398438 L 406.136719 13.398438 Z M 410.632812 8.902344 L 412.878906 8.902344 L 412.878906 13.398438 L 410.632812 13.398438 Z M 415.128906 8.902344 L 417.375 8.902344 L 417.375 13.398438 L 415.128906 13.398438 Z M 419.625 8.902344 L 421.871094 8.902344 L 421.871094 13.398438 L 419.625 13.398438 Z M 424.121094 8.902344 L 426.367188 8.902344 L 426.367188 13.398438 L 424.121094 13.398438 Z M 428.613281 8.902344 L 430.863281 8.902344 L 430.863281 13.398438 L 428.613281 13.398438 Z M 433.109375 8.902344 L 435.359375 8.902344 L 435.359375 13.398438 L 433.109375 13.398438 Z M 437.605469 8.902344 L 439.855469 8.902344 L 439.855469 13.398438 L 437.605469 13.398438 Z M 442.101562 8.902344 L 444.351562 8.902344 L 444.351562 13.398438 L 442.101562 13.398438 Z M 446.597656 8.902344 L 448.847656 8.902344 L 448.847656 13.398438 L 446.597656 13.398438 Z M 451.09375 8.902344 L 453.339844 8.902344 L 453.339844 13.398438 L 451.09375 13.398438 Z M 455.589844 8.902344 L 457.835938 8.902344 L 457.835938 13.398438 L 455.589844 13.398438 Z M 460.085938 8.902344 L 462.332031 8.902344 L 462.332031 13.398438 L 460.085938 13.398438 Z M 464.582031 8.902344 L 466.828125 8.902344 L 466.828125 13.398438 L 464.582031 13.398438 Z M 469.078125 8.902344 L 471.324219 8.902344 L 471.324219 13.398438 L 469.078125 13.398438 Z M 473.574219 8.902344 L 475.820312 8.902344 L 475.820312 13.398438 L 473.574219 13.398438 Z M 478.066406 8.902344 L 480.316406 8.902344 L 480.316406 13.398438 L 478.066406 13.398438 Z M 482.5625 8.902344 L 484.8125 8.902344 L 484.8125 13.398438 L 482.5625 13.398438 Z M 487.058594 8.902344 L 489.308594 8.902344 L 489.308594 13.398438 L 487.058594 13.398438 Z M 491.554688 8.902344 L 493.804688 8.902344 L 493.804688 13.398438 L 491.554688 13.398438 Z M 496.050781 8.902344 L 498.300781 8.902344 L 498.300781 13.398438 L 496.050781 13.398438 Z M 500.546875 8.902344 L 502.796875 8.902344 L 502.796875 13.398438 L 500.546875 13.398438 Z M 505.042969 8.902344 L 507.289062 8.902344 L 507.289062 13.398438 L 505.042969 13.398438 Z M 509.539062 8.902344 L 511.785156 8.902344 L 511.785156 13.398438 L 509.539062 13.398438 Z M 514.035156 8.902344 L 516.28125 8.902344 L 516.28125 13.398438 L 514.035156 13.398438 Z M 518.53125 8.902344 L 520.777344 8.902344 L 520.777344 13.398438 L 518.53125 13.398438 Z M 523.027344 8.902344 L 525.273438 8.902344 L 525.273438 13.398438 L 523.027344 13.398438 Z M 527.523438 8.902344 L 529.769531 8.902344 L 529.769531 13.398438 L 527.523438 13.398438 Z M 532.015625 8.902344 L 534.265625 8.902344 L 534.265625 13.398438 L 532.015625 13.398438 Z M 536.511719 8.902344 L 538.761719 8.902344 L 538.761719 13.398438 L 536.511719 13.398438 Z M 541.007812 8.902344 L 543.257812 8.902344 L 543.257812 13.398438 L 541.007812 13.398438 Z M 547.734375 11.167969 L 547.734375 13.417969 L 543.238281 13.417969 L 543.238281 11.167969 Z M 547.734375 15.664062 L 547.734375 17.914062 L 543.238281 17.914062 L 543.238281 15.664062 Z M 547.734375 20.160156 L 547.734375 22.410156 L 543.238281 22.410156 L 543.238281 20.160156 Z M 547.734375 24.65625 L 547.734375 26.90625 L 543.238281 26.90625 L 543.238281 24.65625 Z M 547.734375 29.152344 L 547.734375 31.398438 L 543.238281 31.398438 L 543.238281 29.152344 Z M 547.734375 33.648438 L 547.734375 35.894531 L 543.238281 35.894531 L 543.238281 33.648438 Z M 547.734375 38.144531 L 547.734375 40.390625 L 543.238281 40.390625 L 543.238281 38.144531 Z M 547.734375 42.640625 L 547.734375 44.886719 L 543.238281 44.886719 L 543.238281 42.640625 Z M 547.734375 47.136719 L 547.734375 49.382812 L 543.238281 49.382812 L 543.238281 47.136719 Z M 547.734375 51.632812 L 547.734375 53.878906 L 543.238281 53.878906 L 543.238281 51.632812 Z M 547.734375 56.125 L 547.734375 58.375 L 543.238281 58.375 L 543.238281 56.125 Z M 547.734375 60.621094 L 547.734375 62.871094 L 543.238281 62.871094 L 543.238281 60.621094 Z M 547.734375 65.117188 L 547.734375 67.367188 L 543.238281 67.367188 L 543.238281 65.117188 Z M 547.734375 69.613281 L 547.734375 71.863281 L 543.238281 71.863281 L 543.238281 69.613281 Z M 547.734375 74.109375 L 547.734375 76.359375 L 543.238281 76.359375 L 543.238281 74.109375 Z M 547.734375 78.605469 L 547.734375 80.855469 L 543.238281 80.855469 L 543.238281 78.605469 Z M 547.734375 83.101562 L 547.734375 85.347656 L 543.238281 85.347656 L 543.238281 83.101562 Z M 547.734375 87.597656 L 547.734375 89.84375 L 543.238281 89.84375 L 543.238281 87.597656 Z M 547.734375 92.09375 L 547.734375 94.339844 L 543.238281 94.339844 L 543.238281 92.09375 Z M 547.734375 96.589844 L 547.734375 98.835938 L 543.238281 98.835938 L 543.238281 96.589844 Z M 547.734375 101.085938 L 547.734375 103.332031 L 543.238281 103.332031 L 543.238281 101.085938 Z M 547.734375 105.582031 L 547.734375 107.828125 L 543.238281 107.828125 L 543.238281 105.582031 Z M 547.734375 110.074219 L 547.734375 112.324219 L 543.238281 112.324219 L 543.238281 110.074219 Z M 547.734375 114.570312 L 547.734375 116.820312 L 543.238281 116.820312 L 543.238281 114.570312 Z M 547.734375 119.066406 L 547.734375 121.316406 L 543.238281 121.316406 L 543.238281 119.066406 Z M 547.734375 123.5625 L 547.734375 125.8125 L 543.238281 125.8125 L 543.238281 123.5625 Z M 547.734375 128.058594 L 547.734375 130.308594 L 543.238281 130.308594 L 543.238281 128.058594 Z M 547.734375 132.554688 L 547.734375 134.800781 L 543.238281 134.800781 L 543.238281 132.554688 Z M 547.734375 137.050781 L 547.734375 139.296875 L 543.238281 139.296875 L 543.238281 137.050781 Z M 547.734375 141.546875 L 547.734375 143.792969 L 543.238281 143.792969 L 543.238281 141.546875 Z M 547.734375 146.042969 L 547.734375 148.289062 L 543.238281 148.289062 L 543.238281 146.042969 Z M 547.734375 150.539062 L 547.734375 152.785156 L 543.238281 152.785156 L 543.238281 150.539062 Z M 547.734375 155.035156 L 547.734375 157.28125 L 543.238281 157.28125 L 543.238281 155.035156 Z M 547.734375 159.527344 L 547.734375 161.777344 L 543.238281 161.777344 L 543.238281 159.527344 Z M 547.734375 164.023438 L 547.734375 166.273438 L 543.238281 166.273438 L 543.238281 164.023438 Z M 547.734375 168.519531 L 547.734375 170.769531 L 543.238281 170.769531 L 543.238281 168.519531 Z M 547.734375 173.015625 L 547.734375 175.265625 L 543.238281 175.265625 L 543.238281 173.015625 Z M 547.734375 177.511719 L 547.734375 179.761719 L 543.238281 179.761719 L 543.238281 177.511719 Z M 547.734375 182.007812 L 547.734375 184.257812 L 543.238281 184.257812 L 543.238281 182.007812 Z M 547.734375 186.503906 L 547.734375 188.75 L 543.238281 188.75 L 543.238281 186.503906 Z M 547.734375 191 L 547.734375 193.246094 L 543.238281 193.246094 L 543.238281 191 Z M 547.734375 195.496094 L 547.734375 197.742188 L 543.238281 197.742188 L 543.238281 195.496094 Z M 547.734375 199.992188 L 547.734375 202.238281 L 543.238281 202.238281 L 543.238281 199.992188 Z M 547.734375 204.488281 L 547.734375 206.734375 L 543.238281 206.734375 L 543.238281 204.488281 Z M 547.734375 208.984375 L 547.734375 211.230469 L 543.238281 211.230469 L 543.238281 208.984375 Z M 547.734375 213.476562 L 547.734375 215.726562 L 543.238281 215.726562 L 543.238281 213.476562 Z M 547.734375 217.972656 L 547.734375 220.222656 L 543.238281 220.222656 L 543.238281 217.972656 Z M 547.734375 222.46875 L 547.734375 224.71875 L 543.238281 224.71875 L 543.238281 222.46875 Z M 547.734375 226.964844 L 547.734375 229.214844 L 543.238281 229.214844 L 543.238281 226.964844 Z M 547.734375 231.460938 L 547.734375 233.710938 L 543.238281 233.710938 L 543.238281 231.460938 Z M 547.734375 235.957031 L 547.734375 238.203125 L 543.238281 238.203125 L 543.238281 235.957031 Z M 547.734375 240.453125 L 547.734375 242.699219 L 543.238281 242.699219 L 543.238281 240.453125 Z M 547.734375 244.949219 L 547.734375 247.195312 L 543.238281 247.195312 L 543.238281 244.949219 Z M 547.734375 249.445312 L 547.734375 251.691406 L 543.238281 251.691406 L 543.238281 249.445312 Z M 547.734375 253.941406 L 547.734375 256.1875 L 543.238281 256.1875 L 543.238281 253.941406 Z M 547.734375 258.4375 L 547.734375 260.683594 L 543.238281 260.683594 L 543.238281 258.4375 Z M 547.734375 262.929688 L 547.734375 265.179688 L 543.238281 265.179688 L 543.238281 262.929688 Z M 547.734375 267.425781 L 547.734375 269.675781 L 543.238281 269.675781 L 543.238281 267.425781 Z M 547.734375 271.921875 L 547.734375 274.171875 L 543.238281 274.171875 L 543.238281 271.921875 Z M 547.734375 276.417969 L 547.734375 278.667969 L 543.238281 278.667969 L 543.238281 276.417969 Z M 547.734375 280.914062 L 547.734375 283.164062 L 543.238281 283.164062 L 543.238281 280.914062 Z M 547.734375 285.410156 L 547.734375 287.660156 L 543.238281 287.660156 L 543.238281 285.410156 Z M 547.734375 289.90625 L 547.734375 292.152344 L 543.238281 292.152344 L 543.238281 289.90625 Z M 547.734375 294.402344 L 547.734375 296.648438 L 543.238281 296.648438 L 543.238281 294.402344 Z M 547.734375 298.898438 L 547.734375 301.144531 L 543.238281 301.144531 L 543.238281 298.898438 Z M 547.734375 303.394531 L 547.734375 305.640625 L 543.238281 305.640625 L 543.238281 303.394531 Z M 547.734375 307.890625 L 547.734375 310.136719 L 543.238281 310.136719 L 543.238281 307.890625 Z M 547.734375 312.386719 L 547.734375 314.632812 L 543.238281 314.632812 L 543.238281 312.386719 Z M 547.734375 316.878906 L 547.734375 319.128906 L 543.238281 319.128906 L 543.238281 316.878906 Z M 547.734375 321.375 L 547.734375 323.625 L 543.238281 323.625 L 543.238281 321.375 Z M 545.457031 328.089844 L 543.210938 328.089844 L 543.210938 323.59375 L 545.457031 323.59375 Z M 540.960938 328.089844 L 538.714844 328.089844 L 538.714844 323.59375 L 540.960938 323.59375 Z M 536.464844 328.089844 L 534.21875 328.089844 L 534.21875 323.59375 L 536.464844 323.59375 Z M 531.972656 328.089844 L 529.722656 328.089844 L 529.722656 323.59375 L 531.972656 323.59375 Z M 527.476562 328.089844 L 525.226562 328.089844 L 525.226562 323.59375 L 527.476562 323.59375 Z M 522.980469 328.089844 L 520.730469 328.089844 L 520.730469 323.59375 L 522.980469 323.59375 Z M 518.484375 328.089844 L 516.234375 328.089844 L 516.234375 323.59375 L 518.484375 323.59375 Z M 513.988281 328.089844 L 511.738281 328.089844 L 511.738281 323.59375 L 513.988281 323.59375 Z M 509.492188 328.089844 L 507.246094 328.089844 L 507.246094 323.59375 L 509.492188 323.59375 Z M 504.996094 328.089844 L 502.75 328.089844 L 502.75 323.59375 L 504.996094 323.59375 Z M 500.5 328.089844 L 498.253906 328.089844 L 498.253906 323.59375 L 500.5 323.59375 Z M 496.003906 328.089844 L 493.757812 328.089844 L 493.757812 323.59375 L 496.003906 323.59375 Z M 491.507812 328.089844 L 489.261719 328.089844 L 489.261719 323.59375 L 491.507812 323.59375 Z M 487.011719 328.089844 L 484.765625 328.089844 L 484.765625 323.59375 L 487.011719 323.59375 Z M 482.515625 328.089844 L 480.269531 328.089844 L 480.269531 323.59375 L 482.515625 323.59375 Z M 478.023438 328.089844 L 475.773438 328.089844 L 475.773438 323.59375 L 478.023438 323.59375 Z M 473.527344 328.089844 L 471.277344 328.089844 L 471.277344 323.59375 L 473.527344 323.59375 Z M 469.03125 328.089844 L 466.78125 328.089844 L 466.78125 323.59375 L 469.03125 323.59375 Z M 464.535156 328.089844 L 462.285156 328.089844 L 462.285156 323.59375 L 464.535156 323.59375 Z M 460.039062 328.089844 L 457.789062 328.089844 L 457.789062 323.59375 L 460.039062 323.59375 Z M 455.542969 328.089844 L 453.296875 328.089844 L 453.296875 323.59375 L 455.542969 323.59375 Z M 451.046875 328.089844 L 448.800781 328.089844 L 448.800781 323.59375 L 451.046875 323.59375 Z M 446.550781 328.089844 L 444.304688 328.089844 L 444.304688 323.59375 L 446.550781 323.59375 Z M 442.054688 328.089844 L 439.808594 328.089844 L 439.808594 323.59375 L 442.054688 323.59375 Z M 437.558594 328.089844 L 435.3125 328.089844 L 435.3125 323.59375 L 437.558594 323.59375 Z M 433.0625 328.089844 L 430.816406 328.089844 L 430.816406 323.59375 L 433.0625 323.59375 Z M 428.570312 328.089844 L 426.320312 328.089844 L 426.320312 323.59375 L 428.570312 323.59375 Z M 424.074219 328.089844 L 421.824219 328.089844 L 421.824219 323.59375 L 424.074219 323.59375 Z M 419.578125 328.089844 L 417.328125 328.089844 L 417.328125 323.59375 L 419.578125 323.59375 Z M 415.082031 328.089844 L 412.832031 328.089844 L 412.832031 323.59375 L 415.082031 323.59375 Z M 410.585938 328.089844 L 408.335938 328.089844 L 408.335938 323.59375 L 410.585938 323.59375 Z M 406.089844 328.089844 L 403.84375 328.089844 L 403.84375 323.59375 L 406.089844 323.59375 Z M 401.59375 328.089844 L 399.347656 328.089844 L 399.347656 323.59375 L 401.59375 323.59375 Z M 397.097656 328.089844 L 394.851562 328.089844 L 394.851562 323.59375 L 397.097656 323.59375 Z M 392.601562 328.089844 L 390.355469 328.089844 L 390.355469 323.59375 L 392.601562 323.59375 Z M 388.105469 328.089844 L 385.859375 328.089844 L 385.859375 323.59375 L 388.105469 323.59375 Z M 383.609375 328.089844 L 381.363281 328.089844 L 381.363281 323.59375 L 383.609375 323.59375 Z M 379.113281 328.089844 L 376.867188 328.089844 L 376.867188 323.59375 L 379.113281 323.59375 Z M 374.621094 328.089844 L 372.371094 328.089844 L 372.371094 323.59375 L 374.621094 323.59375 Z M 370.125 328.089844 L 367.875 328.089844 L 367.875 323.59375 L 370.125 323.59375 Z M 365.628906 328.089844 L 363.378906 328.089844 L 363.378906 323.59375 L 365.628906 323.59375 Z M 361.132812 328.089844 L 358.882812 328.089844 L 358.882812 323.59375 L 361.132812 323.59375 Z M 356.636719 328.089844 L 354.386719 328.089844 L 354.386719 323.59375 L 356.636719 323.59375 Z M 352.140625 328.089844 L 349.894531 328.089844 L 349.894531 323.59375 L 352.140625 323.59375 Z M 347.644531 328.089844 L 345.398438 328.089844 L 345.398438 323.59375 L 347.644531 323.59375 Z M 343.148438 328.089844 L 340.902344 328.089844 L 340.902344 323.59375 L 343.148438 323.59375 Z M 338.652344 328.089844 L 336.40625 328.089844 L 336.40625 323.59375 L 338.652344 323.59375 Z M 334.15625 328.089844 L 331.910156 328.089844 L 331.910156 323.59375 L 334.15625 323.59375 Z M 329.660156 328.089844 L 327.414062 328.089844 L 327.414062 323.59375 L 329.660156 323.59375 Z M 325.167969 328.089844 L 322.917969 328.089844 L 322.917969 323.59375 L 325.167969 323.59375 Z M 320.671875 328.089844 L 318.421875 328.089844 L 318.421875 323.59375 L 320.671875 323.59375 Z M 316.175781 328.089844 L 313.925781 328.089844 L 313.925781 323.59375 L 316.175781 323.59375 Z M 311.679688 328.089844 L 309.429688 328.089844 L 309.429688 323.59375 L 311.679688 323.59375 Z M 307.183594 328.089844 L 304.933594 328.089844 L 304.933594 323.59375 L 307.183594 323.59375 Z M 302.6875 328.089844 L 300.441406 328.089844 L 300.441406 323.59375 L 302.6875 323.59375 Z M 298.191406 328.089844 L 295.945312 328.089844 L 295.945312 323.59375 L 298.191406 323.59375 Z M 293.695312 328.089844 L 291.449219 328.089844 L 291.449219 323.59375 L 293.695312 323.59375 Z M 289.199219 328.089844 L 286.953125 328.089844 L 286.953125 323.59375 L 289.199219 323.59375 Z M 284.703125 328.089844 L 282.457031 328.089844 L 282.457031 323.59375 L 284.703125 323.59375 Z M 280.207031 328.089844 L 277.960938 328.089844 L 277.960938 323.59375 L 280.207031 323.59375 Z M 275.714844 328.089844 L 273.464844 328.089844 L 273.464844 323.59375 L 275.714844 323.59375 Z M 271.21875 328.089844 L 268.96875 328.089844 L 268.96875 323.59375 L 271.21875 323.59375 Z M 266.722656 328.089844 L 264.472656 328.089844 L 264.472656 323.59375 L 266.722656 323.59375 Z M 262.226562 328.089844 L 259.976562 328.089844 L 259.976562 323.59375 L 262.226562 323.59375 Z M 257.730469 328.089844 L 255.480469 328.089844 L 255.480469 323.59375 L 257.730469 323.59375 Z M 253.234375 328.089844 L 250.984375 328.089844 L 250.984375 323.59375 L 253.234375 323.59375 Z M 248.738281 328.089844 L 246.492188 328.089844 L 246.492188 323.59375 L 248.738281 323.59375 Z M 244.242188 328.089844 L 241.996094 328.089844 L 241.996094 323.59375 L 244.242188 323.59375 Z M 239.746094 328.089844 L 237.5 328.089844 L 237.5 323.59375 L 239.746094 323.59375 Z M 235.25 328.089844 L 233.003906 328.089844 L 233.003906 323.59375 L 235.25 323.59375 Z M 230.753906 328.089844 L 228.507812 328.089844 L 228.507812 323.59375 L 230.753906 323.59375 Z M 226.257812 328.089844 L 224.011719 328.089844 L 224.011719 323.59375 L 226.257812 323.59375 Z M 221.765625 328.089844 L 219.515625 328.089844 L 219.515625 323.59375 L 221.765625 323.59375 Z M 217.269531 328.089844 L 215.019531 328.089844 L 215.019531 323.59375 L 217.269531 323.59375 Z M 212.773438 328.089844 L 210.523438 328.089844 L 210.523438 323.59375 L 212.773438 323.59375 Z M 208.277344 328.089844 L 206.027344 328.089844 L 206.027344 323.59375 L 208.277344 323.59375 Z M 203.78125 328.089844 L 201.53125 328.089844 L 201.53125 323.59375 L 203.78125 323.59375 Z M 199.285156 328.089844 L 197.039062 328.089844 L 197.039062 323.59375 L 199.285156 323.59375 Z M 194.789062 328.089844 L 192.542969 328.089844 L 192.542969 323.59375 L 194.789062 323.59375 Z M 190.292969 328.089844 L 188.046875 328.089844 L 188.046875 323.59375 L 190.292969 323.59375 Z M 185.796875 328.089844 L 183.550781 328.089844 L 183.550781 323.59375 L 185.796875 323.59375 Z M 181.300781 328.089844 L 179.054688 328.089844 L 179.054688 323.59375 L 181.300781 323.59375 Z M 176.804688 328.089844 L 174.558594 328.089844 L 174.558594 323.59375 L 176.804688 323.59375 Z M 172.308594 328.089844 L 170.0625 328.089844 L 170.0625 323.59375 L 172.308594 323.59375 Z M 167.816406 328.089844 L 165.566406 328.089844 L 165.566406 323.59375 L 167.816406 323.59375 Z M 163.320312 328.089844 L 161.070312 328.089844 L 161.070312 323.59375 L 163.320312 323.59375 Z M 158.824219 328.089844 L 156.574219 328.089844 L 156.574219 323.59375 L 158.824219 323.59375 Z M 154.328125 328.089844 L 152.078125 328.089844 L 152.078125 323.59375 L 154.328125 323.59375 Z M 149.832031 328.089844 L 147.582031 328.089844 L 147.582031 323.59375 L 149.832031 323.59375 Z M 145.335938 328.089844 L 143.089844 328.089844 L 143.089844 323.59375 L 145.335938 323.59375 Z M 140.839844 328.089844 L 138.59375 328.089844 L 138.59375 323.59375 L 140.839844 323.59375 Z M 136.34375 328.089844 L 134.097656 328.089844 L 134.097656 323.59375 L 136.34375 323.59375 Z M 131.847656 328.089844 L 129.601562 328.089844 L 129.601562 323.59375 L 131.847656 323.59375 Z M 127.351562 328.089844 L 125.105469 328.089844 L 125.105469 323.59375 L 127.351562 323.59375 Z M 122.855469 328.089844 L 120.609375 328.089844 L 120.609375 323.59375 L 122.855469 323.59375 Z M 118.363281 328.089844 L 116.113281 328.089844 L 116.113281 323.59375 L 118.363281 323.59375 Z M 113.867188 328.089844 L 111.617188 328.089844 L 111.617188 323.59375 L 113.867188 323.59375 Z M 109.371094 328.089844 L 107.121094 328.089844 L 107.121094 323.59375 L 109.371094 323.59375 Z M 104.875 328.089844 L 102.625 328.089844 L 102.625 323.59375 L 104.875 323.59375 Z M 100.378906 328.089844 L 98.128906 328.089844 L 98.128906 323.59375 L 100.378906 323.59375 Z M 95.882812 328.089844 L 93.636719 328.089844 L 93.636719 323.59375 L 95.882812 323.59375 Z M 91.386719 328.089844 L 89.140625 328.089844 L 89.140625 323.59375 L 91.386719 323.59375 Z M 86.890625 328.089844 L 84.644531 328.089844 L 84.644531 323.59375 L 86.890625 323.59375 Z M 82.394531 328.089844 L 80.148438 328.089844 L 80.148438 323.59375 L 82.394531 323.59375 Z M 77.898438 328.089844 L 75.652344 328.089844 L 75.652344 323.59375 L 77.898438 323.59375 Z M 73.402344 328.089844 L 71.15625 328.089844 L 71.15625 323.59375 L 73.402344 323.59375 Z M 68.90625 328.089844 L 66.660156 328.089844 L 66.660156 323.59375 L 68.90625 323.59375 Z M 64.414062 328.089844 L 62.164062 328.089844 L 62.164062 323.59375 L 64.414062 323.59375 Z M 59.917969 328.089844 L 57.667969 328.089844 L 57.667969 323.59375 L 59.917969 323.59375 Z M 55.421875 328.089844 L 53.171875 328.089844 L 53.171875 323.59375 L 55.421875 323.59375 Z M 50.925781 328.089844 L 48.675781 328.089844 L 48.675781 323.59375 L 50.925781 323.59375 Z M 46.429688 328.089844 L 44.179688 328.089844 L 44.179688 323.59375 L 46.429688 323.59375 Z M 41.933594 328.089844 L 39.6875 328.089844 L 39.6875 323.59375 L 41.933594 323.59375 Z M 37.4375 328.089844 L 35.191406 328.089844 L 35.191406 323.59375 L 37.4375 323.59375 Z M 32.941406 328.089844 L 30.695312 328.089844 L 30.695312 323.59375 L 32.941406 323.59375 Z M 28.445312 328.089844 L 26.199219 328.089844 L 26.199219 323.59375 L 28.445312 323.59375 Z M 23.949219 328.089844 L 21.703125 328.089844 L 21.703125 323.59375 L 23.949219 323.59375 Z M 19.453125 328.089844 L 17.207031 328.089844 L 17.207031 323.59375 L 19.453125 323.59375 Z M 14.960938 328.089844 L 12.710938 328.089844 L 12.710938 323.59375 L 14.960938 323.59375 Z M 8.261719 325.796875 L 8.261719 323.546875 L 12.757812 323.546875 L 12.757812 325.796875 Z M 8.261719 321.300781 L 8.261719 319.054688 L 12.757812 319.054688 L 12.757812 321.300781 Z M 8.261719 316.804688 L 8.261719 314.558594 L 12.757812 314.558594 L 12.757812 316.804688 Z M 8.261719 312.308594 L 8.261719 310.0625 L 12.757812 310.0625 L 12.757812 312.308594 Z M 8.261719 307.8125 L 8.261719 305.566406 L 12.757812 305.566406 L 12.757812 307.8125 Z M 8.261719 303.316406 L 8.261719 301.070312 L 12.757812 301.070312 L 12.757812 303.316406 Z M 8.261719 298.820312 L 8.261719 296.574219 L 12.757812 296.574219 L 12.757812 298.820312 Z M 8.261719 294.328125 L 8.261719 292.078125 L 12.757812 292.078125 L 12.757812 294.328125 Z M 8.261719 289.832031 L 8.261719 287.582031 L 12.757812 287.582031 L 12.757812 289.832031 Z M 8.261719 285.335938 L 8.261719 283.085938 L 12.757812 283.085938 L 12.757812 285.335938 Z M 8.261719 280.839844 L 8.261719 278.589844 L 12.757812 278.589844 L 12.757812 280.839844 Z M 8.261719 276.34375 L 8.261719 274.09375 L 12.757812 274.09375 L 12.757812 276.34375 Z M 8.261719 271.847656 L 8.261719 269.601562 L 12.757812 269.601562 L 12.757812 271.847656 Z M 8.261719 267.351562 L 8.261719 265.105469 L 12.757812 265.105469 L 12.757812 267.351562 Z M 8.261719 262.855469 L 8.261719 260.609375 L 12.757812 260.609375 L 12.757812 262.855469 Z M 8.261719 258.359375 L 8.261719 256.113281 L 12.757812 256.113281 L 12.757812 258.359375 Z M 8.261719 253.863281 L 8.261719 251.617188 L 12.757812 251.617188 L 12.757812 253.863281 Z M 8.261719 249.367188 L 8.261719 247.121094 L 12.757812 247.121094 L 12.757812 249.367188 Z M 8.261719 244.875 L 8.261719 242.625 L 12.757812 242.625 L 12.757812 244.875 Z M 8.261719 240.378906 L 8.261719 238.128906 L 12.757812 238.128906 L 12.757812 240.378906 Z M 8.261719 235.882812 L 8.261719 233.632812 L 12.757812 233.632812 L 12.757812 235.882812 Z M 8.261719 231.386719 L 8.261719 229.136719 L 12.757812 229.136719 L 12.757812 231.386719 Z M 8.261719 226.890625 L 8.261719 224.640625 L 12.757812 224.640625 L 12.757812 226.890625 Z M 8.261719 222.394531 L 8.261719 220.144531 L 12.757812 220.144531 L 12.757812 222.394531 Z M 8.261719 217.898438 L 8.261719 215.652344 L 12.757812 215.652344 L 12.757812 217.898438 Z M 8.261719 213.402344 L 8.261719 211.15625 L 12.757812 211.15625 L 12.757812 213.402344 Z M 8.261719 208.90625 L 8.261719 206.660156 L 12.757812 206.660156 L 12.757812 208.90625 Z M 8.261719 204.410156 L 8.261719 202.164062 L 12.757812 202.164062 L 12.757812 204.410156 Z M 8.261719 199.914062 L 8.261719 197.667969 L 12.757812 197.667969 L 12.757812 199.914062 Z M 8.261719 195.417969 L 8.261719 193.171875 L 12.757812 193.171875 L 12.757812 195.417969 Z M 8.261719 190.925781 L 8.261719 188.675781 L 12.757812 188.675781 L 12.757812 190.925781 Z M 8.261719 186.429688 L 8.261719 184.179688 L 12.757812 184.179688 L 12.757812 186.429688 Z M 8.261719 181.933594 L 8.261719 179.683594 L 12.757812 179.683594 L 12.757812 181.933594 Z M 8.261719 177.4375 L 8.261719 175.1875 L 12.757812 175.1875 L 12.757812 177.4375 Z M 8.261719 172.941406 L 8.261719 170.691406 L 12.757812 170.691406 L 12.757812 172.941406 Z M 8.261719 168.445312 L 8.261719 166.199219 L 12.757812 166.199219 L 12.757812 168.445312 Z M 8.261719 163.949219 L 8.261719 161.703125 L 12.757812 161.703125 L 12.757812 163.949219 Z M 8.261719 159.453125 L 8.261719 157.207031 L 12.757812 157.207031 L 12.757812 159.453125 Z M 8.261719 154.957031 L 8.261719 152.710938 L 12.757812 152.710938 L 12.757812 154.957031 Z M 8.261719 150.460938 L 8.261719 148.214844 L 12.757812 148.214844 L 12.757812 150.460938 Z M 8.261719 145.964844 L 8.261719 143.71875 L 12.757812 143.71875 L 12.757812 145.964844 Z M 8.261719 141.472656 L 8.261719 139.222656 L 12.757812 139.222656 L 12.757812 141.472656 Z M 8.261719 136.976562 L 8.261719 134.726562 L 12.757812 134.726562 L 12.757812 136.976562 Z M 8.261719 132.480469 L 8.261719 130.230469 L 12.757812 130.230469 L 12.757812 132.480469 Z M 8.261719 127.984375 L 8.261719 125.734375 L 12.757812 125.734375 L 12.757812 127.984375 Z M 8.261719 123.488281 L 8.261719 121.238281 L 12.757812 121.238281 L 12.757812 123.488281 Z M 8.261719 118.992188 L 8.261719 116.742188 L 12.757812 116.742188 L 12.757812 118.992188 Z M 8.261719 114.496094 L 8.261719 112.25 L 12.757812 112.25 L 12.757812 114.496094 Z M 8.261719 110 L 8.261719 107.753906 L 12.757812 107.753906 L 12.757812 110 Z M 8.261719 105.503906 L 8.261719 103.257812 L 12.757812 103.257812 L 12.757812 105.503906 Z M 8.261719 101.007812 L 8.261719 98.761719 L 12.757812 98.761719 L 12.757812 101.007812 Z M 8.261719 96.511719 L 8.261719 94.265625 L 12.757812 94.265625 L 12.757812 96.511719 Z M 8.261719 92.015625 L 8.261719 89.769531 L 12.757812 89.769531 L 12.757812 92.015625 Z M 8.261719 87.523438 L 8.261719 85.273438 L 12.757812 85.273438 L 12.757812 87.523438 Z M 8.261719 83.027344 L 8.261719 80.777344 L 12.757812 80.777344 L 12.757812 83.027344 Z M 8.261719 78.53125 L 8.261719 76.28125 L 12.757812 76.28125 L 12.757812 78.53125 Z M 8.261719 74.035156 L 8.261719 71.785156 L 12.757812 71.785156 L 12.757812 74.035156 Z M 8.261719 69.539062 L 8.261719 67.289062 L 12.757812 67.289062 L 12.757812 69.539062 Z M 8.261719 65.042969 L 8.261719 62.796875 L 12.757812 62.796875 L 12.757812 65.042969 Z M 8.261719 60.546875 L 8.261719 58.300781 L 12.757812 58.300781 L 12.757812 60.546875 Z M 8.261719 56.050781 L 8.261719 53.804688 L 12.757812 53.804688 L 12.757812 56.050781 Z M 8.261719 51.554688 L 8.261719 49.308594 L 12.757812 49.308594 L 12.757812 51.554688 Z M 8.261719 47.058594 L 8.261719 44.8125 L 12.757812 44.8125 L 12.757812 47.058594 Z M 8.261719 42.5625 L 8.261719 40.316406 L 12.757812 40.316406 L 12.757812 42.5625 Z M 8.261719 38.070312 L 8.261719 35.820312 L 12.757812 35.820312 L 12.757812 38.070312 Z M 8.261719 33.574219 L 8.261719 31.324219 L 12.757812 31.324219 L 12.757812 33.574219 Z M 8.261719 29.078125 L 8.261719 26.828125 L 12.757812 26.828125 L 12.757812 29.078125 Z M 8.261719 24.582031 L 8.261719 22.332031 L 12.757812 22.332031 L 12.757812 24.582031 Z M 8.261719 20.085938 L 8.261719 17.835938 L 12.757812 17.835938 L 12.757812 20.085938 Z M 8.261719 15.589844 L 8.261719 13.339844 L 12.757812 13.339844 L 12.757812 15.589844 Z M 10.511719 8.902344 L 12.757812 8.902344 L 12.757812 13.398438 L 10.511719 13.398438 Z M 10.511719 8.902344 " fill-opacity="1" fill-rule="nonzero"/></g></g></g></g><g clip-path="url(#ffff031eaf)"><path fill="#000000" d="M 369.703125 266.230469 L 362.941406 273.003906 C 362.734375 273.195312 362.652344 273.222656 362.503906 273.273438 C 361.824219 273.503906 360.992188 272.925781 361.007812 272.179688 C 361.015625 271.890625 361.140625 271.613281 361.339844 271.398438 L 369.070312 263.65625 C 369.527344 263.203125 370.15625 262.941406 370.804688 262.925781 C 370.835938 262.925781 370.835938 262.925781 370.867188 262.925781 C 371.507812 262.941406 372.140625 263.203125 372.597656 263.65625 L 380.328125 271.398438 C 380.523438 271.605469 380.550781 271.6875 380.601562 271.839844 C 380.832031 272.519531 380.257812 273.347656 379.507812 273.335938 C 379.21875 273.328125 378.941406 273.203125 378.730469 273.003906 L 371.964844 266.230469 L 371.964844 284.535156 C 371.953125 284.839844 371.910156 284.925781 371.832031 285.074219 C 371.503906 285.679688 370.578125 285.839844 370.066406 285.371094 C 369.839844 285.15625 369.714844 284.851562 369.703125 284.535156 Z M 364.464844 279.515625 L 353.796875 279.515625 C 348.753906 279.5 343.980469 275.363281 343.640625 269.976562 C 343.378906 265.832031 345.882812 261.636719 349.78125 259.957031 C 350.726562 259.550781 351.738281 259.289062 352.757812 259.183594 L 352.789062 259.179688 C 352.796875 259.113281 352.808594 259.046875 352.816406 258.980469 C 353.671875 252.398438 358.453125 246.332031 364.960938 244.101562 C 366.828125 243.460938 368.808594 243.136719 370.777344 243.128906 C 370.816406 243.128906 370.855469 243.128906 370.890625 243.128906 C 376.429688 243.152344 381.898438 245.867188 385.265625 250.273438 C 387.230469 252.839844 388.484375 255.929688 388.875 259.144531 C 388.875 259.144531 388.699219 259.15625 389.101562 259.203125 C 393.113281 259.703125 396.691406 262.742188 397.730469 266.777344 C 398.757812 270.773438 397.117188 275.304688 393.664062 277.707031 C 391.980469 278.875 389.941406 279.511719 387.875 279.515625 L 377.203125 279.515625 C 376.898438 279.46875 376.800781 279.488281 376.539062 279.300781 C 375.957031 278.878906 375.949219 277.894531 376.539062 277.464844 C 376.800781 277.277344 376.898438 277.296875 377.203125 277.25 L 387.871094 277.25 C 391.835938 277.238281 395.589844 273.914062 395.777344 269.683594 C 395.886719 267.207031 394.757812 264.707031 392.828125 263.148438 C 391.441406 262.027344 389.6875 261.40625 387.871094 261.398438 C 387.871094 261.398438 387.652344 261.394531 387.503906 261.347656 C 386.746094 261.113281 386.714844 260.058594 386.597656 259.175781 C 385.855469 253.667969 382.023438 248.679688 376.804688 246.558594 C 372.207031 244.6875 366.726562 245.132812 362.46875 247.777344 C 358.171875 250.445312 355.28125 255.210938 354.960938 260.335938 L 354.886719 260.667969 C 354.714844 260.972656 354.488281 261.246094 354.164062 261.347656 C 353.859375 261.441406 353.550781 261.394531 353.238281 261.417969 C 350.4375 261.613281 347.8125 263.429688 346.621094 265.976562 C 345.613281 268.140625 345.65625 270.761719 346.726562 272.886719 C 348.039062 275.492188 350.890625 277.242188 353.800781 277.25 L 364.464844 277.25 C 364.769531 277.296875 364.871094 277.277344 365.128906 277.464844 C 365.699219 277.882812 365.714844 278.875 365.128906 279.300781 C 364.871094 279.488281 364.769531 279.46875 364.464844 279.515625 Z M 364.464844 279.515625 " fill-opacity="1" fill-rule="evenodd"/></g><g mask="url(#458aef339c)"><g transform="matrix(1, 0, 0, 1, 411, 250)"><g clip-path="url(#aa3ae8c00b)"><g clip-path="url(#ad54d2c8bc)"><path fill="#000000" d="M 0.917969 23.246094 L 201.070312 23.246094 L 201.070312 25.1875 L 0.917969 25.1875 Z M 0.917969 23.246094 " fill-opacity="1" fill-rule="nonzero"/></g><g fill="#000000" fill-opacity="1"><g transform="translate(0.919063, 21.301483)"><g><path d="M 3.234375 -13.546875 L 3.234375 -4.96875 C 3.234375 -3.769531 3.523438 -2.878906 4.109375 -2.296875 C 4.703125 -1.710938 5.519531 -1.421875 6.5625 -1.421875 C 7.601562 -1.421875 8.414062 -1.710938 9 -2.296875 C 9.59375 -2.878906 9.890625 -3.769531 9.890625 -4.96875 L 9.890625 -13.546875 L 11.65625 -13.546875 L 11.65625 -5 C 11.65625 -3.863281 11.425781 -2.910156 10.96875 -2.140625 C 10.519531 -1.367188 9.910156 -0.796875 9.140625 -0.421875 C 8.367188 -0.046875 7.503906 0.140625 6.546875 0.140625 C 5.585938 0.140625 4.722656 -0.046875 3.953125 -0.421875 C 3.179688 -0.796875 2.570312 -1.367188 2.125 -2.140625 C 1.675781 -2.910156 1.453125 -3.863281 1.453125 -5 L 1.453125 -13.546875 Z M 3.234375 -13.546875 "/></g></g></g><g fill="#000000" fill-opacity="1"><g transform="translate(14.035807, 21.301483)"><g><path d="M 3.265625 -8.6875 C 3.617188 -9.300781 4.140625 -9.8125 4.828125 -10.21875 C 5.523438 -10.625 6.332031 -10.828125 7.25 -10.828125 C 8.195312 -10.828125 9.054688 -10.597656 9.828125 -10.140625 C 10.597656 -9.691406 11.203125 -9.054688 11.640625 -8.234375 C 12.078125 -7.410156 12.296875 -6.453125 12.296875 -5.359375 C 12.296875 -4.285156 12.078125 -3.328125 11.640625 -2.484375 C 11.203125 -1.640625 10.597656 -0.984375 9.828125 -0.515625 C 9.054688 -0.0546875 8.195312 0.171875 7.25 0.171875 C 6.34375 0.171875 5.539062 -0.03125 4.84375 -0.4375 C 4.15625 -0.84375 3.628906 -1.351562 3.265625 -1.96875 L 3.265625 5.046875 L 1.5 5.046875 L 1.5 -10.65625 L 3.265625 -10.65625 Z M 10.5 -5.359375 C 10.5 -6.160156 10.335938 -6.859375 10.015625 -7.453125 C 9.691406 -8.054688 9.253906 -8.515625 8.703125 -8.828125 C 8.148438 -9.140625 7.539062 -9.296875 6.875 -9.296875 C 6.226562 -9.296875 5.628906 -9.132812 5.078125 -8.8125 C 4.523438 -8.5 4.082031 -8.039062 3.75 -7.4375 C 3.425781 -6.832031 3.265625 -6.132812 3.265625 -5.34375 C 3.265625 -4.539062 3.425781 -3.835938 3.75 -3.234375 C 4.082031 -2.628906 4.523438 -2.164062 5.078125 -1.84375 C 5.628906 -1.53125 6.226562 -1.375 6.875 -1.375 C 7.539062 -1.375 8.148438 -1.53125 8.703125 -1.84375 C 9.253906 -2.164062 9.691406 -2.628906 10.015625 -3.234375 C 10.335938 -3.835938 10.5 -4.546875 10.5 -5.359375 Z M 10.5 -5.359375 "/></g></g></g><g fill="#000000" fill-opacity="1"><g transform="translate(27.171988, 21.301483)"><g><path d="M 3.265625 -14.390625 L 3.265625 0 L 1.5 0 L 1.5 -14.390625 Z M 3.265625 -14.390625 "/></g></g></g><g fill="#000000" fill-opacity="1"><g transform="translate(31.952317, 21.301483)"><g><path d="M 6.140625 0.171875 C 5.140625 0.171875 4.234375 -0.0507812 3.421875 -0.5 C 2.617188 -0.957031 1.984375 -1.601562 1.515625 -2.4375 C 1.054688 -3.269531 0.828125 -4.238281 0.828125 -5.34375 C 0.828125 -6.4375 1.0625 -7.398438 1.53125 -8.234375 C 2.007812 -9.066406 2.65625 -9.707031 3.46875 -10.15625 C 4.289062 -10.601562 5.207031 -10.828125 6.21875 -10.828125 C 7.226562 -10.828125 8.140625 -10.601562 8.953125 -10.15625 C 9.773438 -9.707031 10.421875 -9.066406 10.890625 -8.234375 C 11.367188 -7.410156 11.609375 -6.445312 11.609375 -5.34375 C 11.609375 -4.238281 11.363281 -3.269531 10.875 -2.4375 C 10.382812 -1.601562 9.722656 -0.957031 8.890625 -0.5 C 8.066406 -0.0507812 7.148438 0.171875 6.140625 0.171875 Z M 6.140625 -1.375 C 6.773438 -1.375 7.367188 -1.523438 7.921875 -1.828125 C 8.484375 -2.128906 8.9375 -2.578125 9.28125 -3.171875 C 9.625 -3.765625 9.796875 -4.488281 9.796875 -5.34375 C 9.796875 -6.195312 9.625 -6.921875 9.28125 -7.515625 C 8.945312 -8.117188 8.507812 -8.566406 7.96875 -8.859375 C 7.425781 -9.148438 6.835938 -9.296875 6.203125 -9.296875 C 5.554688 -9.296875 4.960938 -9.148438 4.421875 -8.859375 C 3.878906 -8.566406 3.445312 -8.117188 3.125 -7.515625 C 2.800781 -6.921875 2.640625 -6.195312 2.640625 -5.34375 C 2.640625 -4.476562 2.796875 -3.742188 3.109375 -3.140625 C 3.429688 -2.546875 3.859375 -2.101562 4.390625 -1.8125 C 4.921875 -1.519531 5.503906 -1.375 6.140625 -1.375 Z M 6.140625 -1.375 "/></g></g></g><g fill="#000000" fill-opacity="1"><g transform="translate(44.388936, 21.301483)"><g><path d="M 0.828125 -5.359375 C 0.828125 -6.453125 1.046875 -7.410156 1.484375 -8.234375 C 1.929688 -9.054688 2.539062 -9.691406 3.3125 -10.140625 C 4.082031 -10.597656 4.941406 -10.828125 5.890625 -10.828125 C 6.828125 -10.828125 7.632812 -10.625 8.3125 -10.21875 C 9 -9.820312 9.515625 -9.316406 9.859375 -8.703125 L 9.859375 -10.65625 L 11.640625 -10.65625 L 11.640625 0 L 9.859375 0 L 9.859375 -1.984375 C 9.503906 -1.359375 8.976562 -0.84375 8.28125 -0.4375 C 7.59375 -0.03125 6.789062 0.171875 5.875 0.171875 C 4.925781 0.171875 4.066406 -0.0546875 3.296875 -0.515625 C 2.535156 -0.984375 1.929688 -1.640625 1.484375 -2.484375 C 1.046875 -3.328125 0.828125 -4.285156 0.828125 -5.359375 Z M 9.859375 -5.34375 C 9.859375 -6.144531 9.695312 -6.84375 9.375 -7.4375 C 9.050781 -8.039062 8.613281 -8.5 8.0625 -8.8125 C 7.507812 -9.132812 6.898438 -9.296875 6.234375 -9.296875 C 5.578125 -9.296875 4.972656 -9.140625 4.421875 -8.828125 C 3.878906 -8.515625 3.445312 -8.054688 3.125 -7.453125 C 2.800781 -6.859375 2.640625 -6.160156 2.640625 -5.359375 C 2.640625 -4.546875 2.800781 -3.835938 3.125 -3.234375 C 3.445312 -2.628906 3.878906 -2.164062 4.421875 -1.84375 C 4.972656 -1.53125 5.578125 -1.375 6.234375 -1.375 C 6.898438 -1.375 7.507812 -1.53125 8.0625 -1.84375 C 8.613281 -2.164062 9.050781 -2.628906 9.375 -3.234375 C 9.695312 -3.835938 9.859375 -4.539062 9.859375 -5.34375 Z M 9.859375 -5.34375 "/></g></g></g><g fill="#000000" fill-opacity="1"><g transform="translate(57.525117, 21.301483)"><g><path d="M 0.828125 -5.359375 C 0.828125 -6.453125 1.046875 -7.410156 1.484375 -8.234375 C 1.929688 -9.054688 2.539062 -9.691406 3.3125 -10.140625 C 4.082031 -10.597656 4.945312 -10.828125 5.90625 -10.828125 C 6.738281 -10.828125 7.507812 -10.632812 8.21875 -10.25 C 8.9375 -9.875 9.484375 -9.375 9.859375 -8.75 L 9.859375 -14.390625 L 11.640625 -14.390625 L 11.640625 0 L 9.859375 0 L 9.859375 -2 C 9.503906 -1.363281 8.984375 -0.84375 8.296875 -0.4375 C 7.609375 -0.03125 6.804688 0.171875 5.890625 0.171875 C 4.941406 0.171875 4.082031 -0.0546875 3.3125 -0.515625 C 2.539062 -0.984375 1.929688 -1.640625 1.484375 -2.484375 C 1.046875 -3.328125 0.828125 -4.285156 0.828125 -5.359375 Z M 9.859375 -5.34375 C 9.859375 -6.144531 9.695312 -6.84375 9.375 -7.4375 C 9.050781 -8.039062 8.613281 -8.5 8.0625 -8.8125 C 7.507812 -9.132812 6.898438 -9.296875 6.234375 -9.296875 C 5.578125 -9.296875 4.972656 -9.140625 4.421875 -8.828125 C 3.878906 -8.515625 3.445312 -8.054688 3.125 -7.453125 C 2.800781 -6.859375 2.640625 -6.160156 2.640625 -5.359375 C 2.640625 -4.546875 2.800781 -3.835938 3.125 -3.234375 C 3.445312 -2.628906 3.878906 -2.164062 4.421875 -1.84375 C 4.972656 -1.53125 5.578125 -1.375 6.234375 -1.375 C 6.898438 -1.375 7.507812 -1.53125 8.0625 -1.84375 C 8.613281 -2.164062 9.050781 -2.628906 9.375 -3.234375 C 9.695312 -3.835938 9.859375 -4.539062 9.859375 -5.34375 Z M 9.859375 -5.34375 "/></g></g></g><g fill="#000000" fill-opacity="1"><g transform="translate(70.661298, 21.301483)"><g/></g></g><g fill="#000000" fill-opacity="1"><g transform="translate(75.849701, 21.301483)"><g><path d="M 10.671875 -10.65625 L 4.25 5.015625 L 2.4375 5.015625 L 4.53125 -0.109375 L 0.234375 -10.65625 L 2.203125 -10.65625 L 5.546875 -2.015625 L 8.84375 -10.65625 Z M 10.671875 -10.65625 "/></g></g></g><g fill="#000000" fill-opacity="1"><g transform="translate(86.790045, 21.301483)"><g><path d="M 6.140625 0.171875 C 5.140625 0.171875 4.234375 -0.0507812 3.421875 -0.5 C 2.617188 -0.957031 1.984375 -1.601562 1.515625 -2.4375 C 1.054688 -3.269531 0.828125 -4.238281 0.828125 -5.34375 C 0.828125 -6.4375 1.0625 -7.398438 1.53125 -8.234375 C 2.007812 -9.066406 2.65625 -9.707031 3.46875 -10.15625 C 4.289062 -10.601562 5.207031 -10.828125 6.21875 -10.828125 C 7.226562 -10.828125 8.140625 -10.601562 8.953125 -10.15625 C 9.773438 -9.707031 10.421875 -9.066406 10.890625 -8.234375 C 11.367188 -7.410156 11.609375 -6.445312 11.609375 -5.34375 C 11.609375 -4.238281 11.363281 -3.269531 10.875 -2.4375 C 10.382812 -1.601562 9.722656 -0.957031 8.890625 -0.5 C 8.066406 -0.0507812 7.148438 0.171875 6.140625 0.171875 Z M 6.140625 -1.375 C 6.773438 -1.375 7.367188 -1.523438 7.921875 -1.828125 C 8.484375 -2.128906 8.9375 -2.578125 9.28125 -3.171875 C 9.625 -3.765625 9.796875 -4.488281 9.796875 -5.34375 C 9.796875 -6.195312 9.625 -6.921875 9.28125 -7.515625 C 8.945312 -8.117188 8.507812 -8.566406 7.96875 -8.859375 C 7.425781 -9.148438 6.835938 -9.296875 6.203125 -9.296875 C 5.554688 -9.296875 4.960938 -9.148438 4.421875 -8.859375 C 3.878906 -8.566406 3.445312 -8.117188 3.125 -7.515625 C 2.800781 -6.921875 2.640625 -6.195312 2.640625 -5.34375 C 2.640625 -4.476562 2.796875 -3.742188 3.109375 -3.140625 C 3.429688 -2.546875 3.859375 -2.101562 4.390625 -1.8125 C 4.921875 -1.519531 5.503906 -1.375 6.140625 -1.375 Z M 6.140625 -1.375 "/></g></g></g><g fill="#000000" fill-opacity="1"><g transform="translate(99.226664, 21.301483)"><g><path d="M 10.9375 -10.65625 L 10.9375 0 L 9.171875 0 L 9.171875 -1.578125 C 8.835938 -1.035156 8.367188 -0.609375 7.765625 -0.296875 C 7.160156 0.00390625 6.492188 0.15625 5.765625 0.15625 C 4.941406 0.15625 4.195312 -0.015625 3.53125 -0.359375 C 2.875 -0.703125 2.351562 -1.21875 1.96875 -1.90625 C 1.59375 -2.59375 1.40625 -3.425781 1.40625 -4.40625 L 1.40625 -10.65625 L 3.15625 -10.65625 L 3.15625 -4.640625 C 3.15625 -3.597656 3.421875 -2.789062 3.953125 -2.21875 C 4.484375 -1.65625 5.207031 -1.375 6.125 -1.375 C 7.070312 -1.375 7.816406 -1.664062 8.359375 -2.25 C 8.898438 -2.832031 9.171875 -3.679688 9.171875 -4.796875 L 9.171875 -10.65625 Z M 10.9375 -10.65625 "/></g></g></g><g fill="#000000" fill-opacity="1"><g transform="translate(111.663283, 21.301483)"><g><path d="M 3.265625 -8.921875 C 3.578125 -9.523438 4.019531 -9.992188 4.59375 -10.328125 C 5.175781 -10.671875 5.878906 -10.84375 6.703125 -10.84375 L 6.703125 -9.015625 L 6.234375 -9.015625 C 4.253906 -9.015625 3.265625 -7.941406 3.265625 -5.796875 L 3.265625 0 L 1.5 0 L 1.5 -10.65625 L 3.265625 -10.65625 Z M 3.265625 -8.921875 "/></g></g></g><g fill="#000000" fill-opacity="1"><g transform="translate(118.911499, 21.301483)"><g/></g></g><g fill="#000000" fill-opacity="1"><g transform="translate(124.099902, 21.301483)"><g><path d="M 5.828125 -9.1875 L 3.59375 -9.1875 L 3.59375 0 L 1.828125 0 L 1.828125 -9.1875 L 0.453125 -9.1875 L 0.453125 -10.65625 L 1.828125 -10.65625 L 1.828125 -11.40625 C 1.828125 -12.601562 2.132812 -13.472656 2.75 -14.015625 C 3.363281 -14.566406 4.351562 -14.84375 5.71875 -14.84375 L 5.71875 -13.375 C 4.9375 -13.375 4.382812 -13.21875 4.0625 -12.90625 C 3.75 -12.601562 3.59375 -12.101562 3.59375 -11.40625 L 3.59375 -10.65625 L 5.828125 -10.65625 Z M 5.828125 -9.1875 "/></g></g></g><g fill="#000000" fill-opacity="1"><g transform="translate(130.493095, 21.301483)"><g><path d="M 2.40625 -12.375 C 2.070312 -12.375 1.785156 -12.488281 1.546875 -12.71875 C 1.316406 -12.957031 1.203125 -13.25 1.203125 -13.59375 C 1.203125 -13.925781 1.316406 -14.207031 1.546875 -14.4375 C 1.785156 -14.675781 2.070312 -14.796875 2.40625 -14.796875 C 2.726562 -14.796875 3.003906 -14.675781 3.234375 -14.4375 C 3.460938 -14.207031 3.578125 -13.925781 3.578125 -13.59375 C 3.578125 -13.25 3.460938 -12.957031 3.234375 -12.71875 C 3.003906 -12.488281 2.726562 -12.375 2.40625 -12.375 Z M 3.265625 -10.65625 L 3.265625 0 L 1.5 0 L 1.5 -10.65625 Z M 3.265625 -10.65625 "/></g></g></g><g fill="#000000" fill-opacity="1"><g transform="translate(135.273423, 21.301483)"><g><path d="M 3.265625 -14.390625 L 3.265625 0 L 1.5 0 L 1.5 -14.390625 Z M 3.265625 -14.390625 "/></g></g></g><g fill="#000000" fill-opacity="1"><g transform="translate(140.053751, 21.301483)"><g><path d="M 11.21875 -5.734375 C 11.21875 -5.398438 11.195312 -5.046875 11.15625 -4.671875 L 2.640625 -4.671875 C 2.703125 -3.617188 3.0625 -2.796875 3.71875 -2.203125 C 4.375 -1.617188 5.171875 -1.328125 6.109375 -1.328125 C 6.867188 -1.328125 7.503906 -1.503906 8.015625 -1.859375 C 8.523438 -2.210938 8.882812 -2.6875 9.09375 -3.28125 L 11 -3.28125 C 10.71875 -2.257812 10.148438 -1.425781 9.296875 -0.78125 C 8.441406 -0.144531 7.378906 0.171875 6.109375 0.171875 C 5.097656 0.171875 4.191406 -0.0507812 3.390625 -0.5 C 2.597656 -0.957031 1.972656 -1.601562 1.515625 -2.4375 C 1.054688 -3.269531 0.828125 -4.238281 0.828125 -5.34375 C 0.828125 -6.445312 1.046875 -7.410156 1.484375 -8.234375 C 1.929688 -9.066406 2.550781 -9.707031 3.34375 -10.15625 C 4.144531 -10.601562 5.066406 -10.828125 6.109375 -10.828125 C 7.117188 -10.828125 8.007812 -10.601562 8.78125 -10.15625 C 9.5625 -9.71875 10.160156 -9.113281 10.578125 -8.34375 C 11.003906 -7.570312 11.21875 -6.703125 11.21875 -5.734375 Z M 9.390625 -6.109375 C 9.390625 -6.773438 9.238281 -7.351562 8.9375 -7.84375 C 8.644531 -8.332031 8.238281 -8.703125 7.71875 -8.953125 C 7.207031 -9.203125 6.644531 -9.328125 6.03125 -9.328125 C 5.132812 -9.328125 4.367188 -9.039062 3.734375 -8.46875 C 3.109375 -7.90625 2.75 -7.117188 2.65625 -6.109375 Z M 9.390625 -6.109375 "/></g></g></g><g fill="#000000" fill-opacity="1"><g transform="translate(152.101732, 21.301483)"><g/></g></g><g fill="#000000" fill-opacity="1"><g transform="translate(157.290135, 21.301483)"><g><path d="M 6.78125 -10.84375 C 7.582031 -10.84375 8.304688 -10.671875 8.953125 -10.328125 C 9.609375 -9.984375 10.117188 -9.46875 10.484375 -8.78125 C 10.859375 -8.09375 11.046875 -7.257812 11.046875 -6.28125 L 11.046875 0 L 9.296875 0 L 9.296875 -6.03125 C 9.296875 -7.09375 9.03125 -7.90625 8.5 -8.46875 C 7.96875 -9.03125 7.238281 -9.3125 6.3125 -9.3125 C 5.382812 -9.3125 4.644531 -9.019531 4.09375 -8.4375 C 3.539062 -7.851562 3.265625 -7.003906 3.265625 -5.890625 L 3.265625 0 L 1.5 0 L 1.5 -14.390625 L 3.265625 -14.390625 L 3.265625 -9.140625 C 3.617188 -9.679688 4.101562 -10.097656 4.71875 -10.390625 C 5.332031 -10.691406 6.019531 -10.84375 6.78125 -10.84375 Z M 6.78125 -10.84375 "/></g></g></g><g fill="#000000" fill-opacity="1"><g transform="translate(169.726755, 21.301483)"><g><path d="M 11.21875 -5.734375 C 11.21875 -5.398438 11.195312 -5.046875 11.15625 -4.671875 L 2.640625 -4.671875 C 2.703125 -3.617188 3.0625 -2.796875 3.71875 -2.203125 C 4.375 -1.617188 5.171875 -1.328125 6.109375 -1.328125 C 6.867188 -1.328125 7.503906 -1.503906 8.015625 -1.859375 C 8.523438 -2.210938 8.882812 -2.6875 9.09375 -3.28125 L 11 -3.28125 C 10.71875 -2.257812 10.148438 -1.425781 9.296875 -0.78125 C 8.441406 -0.144531 7.378906 0.171875 6.109375 0.171875 C 5.097656 0.171875 4.191406 -0.0507812 3.390625 -0.5 C 2.597656 -0.957031 1.972656 -1.601562 1.515625 -2.4375 C 1.054688 -3.269531 0.828125 -4.238281 0.828125 -5.34375 C 0.828125 -6.445312 1.046875 -7.410156 1.484375 -8.234375 C 1.929688 -9.066406 2.550781 -9.707031 3.34375 -10.15625 C 4.144531 -10.601562 5.066406 -10.828125 6.109375 -10.828125 C 7.117188 -10.828125 8.007812 -10.601562 8.78125 -10.15625 C 9.5625 -9.71875 10.160156 -9.113281 10.578125 -8.34375 C 11.003906 -7.570312 11.21875 -6.703125 11.21875 -5.734375 Z M 9.390625 -6.109375 C 9.390625 -6.773438 9.238281 -7.351562 8.9375 -7.84375 C 8.644531 -8.332031 8.238281 -8.703125 7.71875 -8.953125 C 7.207031 -9.203125 6.644531 -9.328125 6.03125 -9.328125 C 5.132812 -9.328125 4.367188 -9.039062 3.734375 -8.46875 C 3.109375 -7.90625 2.75 -7.117188 2.65625 -6.109375 Z M 9.390625 -6.109375 "/></g></g></g><g fill="#000000" fill-opacity="1"><g transform="translate(181.774735, 21.301483)"><g><path d="M 3.265625 -8.921875 C 3.578125 -9.523438 4.019531 -9.992188 4.59375 -10.328125 C 5.175781 -10.671875 5.878906 -10.84375 6.703125 -10.84375 L 6.703125 -9.015625 L 6.234375 -9.015625 C 4.253906 -9.015625 3.265625 -7.941406 3.265625 -5.796875 L 3.265625 0 L 1.5 0 L 1.5 -10.65625 L 3.265625 -10.65625 Z M 3.265625 -8.921875 "/></g></g></g><g fill="#000000" fill-opacity="1"><g transform="translate(189.022951, 21.301483)"><g><path d="M 11.21875 -5.734375 C 11.21875 -5.398438 11.195312 -5.046875 11.15625 -4.671875 L 2.640625 -4.671875 C 2.703125 -3.617188 3.0625 -2.796875 3.71875 -2.203125 C 4.375 -1.617188 5.171875 -1.328125 6.109375 -1.328125 C 6.867188 -1.328125 7.503906 -1.503906 8.015625 -1.859375 C 8.523438 -2.210938 8.882812 -2.6875 9.09375 -3.28125 L 11 -3.28125 C 10.71875 -2.257812 10.148438 -1.425781 9.296875 -0.78125 C 8.441406 -0.144531 7.378906 0.171875 6.109375 0.171875 C 5.097656 0.171875 4.191406 -0.0507812 3.390625 -0.5 C 2.597656 -0.957031 1.972656 -1.601562 1.515625 -2.4375 C 1.054688 -3.269531 0.828125 -4.238281 0.828125 -5.34375 C 0.828125 -6.445312 1.046875 -7.410156 1.484375 -8.234375 C 1.929688 -9.066406 2.550781 -9.707031 3.34375 -10.15625 C 4.144531 -10.601562 5.066406 -10.828125 6.109375 -10.828125 C 7.117188 -10.828125 8.007812 -10.601562 8.78125 -10.15625 C 9.5625 -9.71875 10.160156 -9.113281 10.578125 -8.34375 C 11.003906 -7.570312 11.21875 -6.703125 11.21875 -5.734375 Z M 9.390625 -6.109375 C 9.390625 -6.773438 9.238281 -7.351562 8.9375 -7.84375 C 8.644531 -8.332031 8.238281 -8.703125 7.71875 -8.953125 C 7.207031 -9.203125 6.644531 -9.328125 6.03125 -9.328125 C 5.132812 -9.328125 4.367188 -9.039062 3.734375 -8.46875 C 3.109375 -7.90625 2.75 -7.117188 2.65625 -6.109375 Z M 9.390625 -6.109375 "/></g></g></g></g></g></g></svg>