<svg xmlns="http://www.w3.org/2000/svg" xmlns:xlink="http://www.w3.org/1999/xlink" width="1366" zoomAndPan="magnify" viewBox="0 0 1024.5 529.499989" height="706" preserveAspectRatio="xMidYMid meet" version="1.0"><defs><filter x="0%" y="0%" width="100%" height="100%" id="100b179cf2"><feColorMatrix values="0 0 0 0 1 0 0 0 0 1 0 0 0 0 1 0 0 0 1 0" color-interpolation-filters="sRGB"/></filter><g/><mask id="3d34e71d7f"><g filter="url(#100b179cf2)"><rect x="-102.45" width="1229.4" fill="#000000" y="-52.949999" height="635.399987" fill-opacity="0.12"/></g></mask><clipPath id="36d7867d82"><path d="M 11.625 12.164062 L 604.375 12.164062 L 604.375 360.835938 L 11.625 360.835938 Z M 11.625 12.164062 " clip-rule="nonzero"/></clipPath><clipPath id="0fece32783"><path d="M 11.632812 12.164062 L 604.316406 12.164062 L 604.316406 360.585938 L 11.632812 360.585938 Z M 11.632812 12.164062 " clip-rule="nonzero"/></clipPath><clipPath id="e8474a01c2"><rect x="0" width="619" y="0" height="375"/></clipPath><clipPath id="42e0adac75"><path d="M 362.152344 237.476562 L 416.101562 237.476562 L 416.101562 291.425781 L 362.152344 291.425781 Z M 362.152344 237.476562 " clip-rule="nonzero"/></clipPath><mask id="f238ed423f"><g filter="url(#100b179cf2)"><rect x="-102.45" width="1229.4" fill="#000000" y="-52.949999" height="635.399987" fill-opacity="0.64"/></g></mask><clipPath id="7243b4bfa3"><rect x="0" width="254" y="0" height="31"/></clipPath></defs><g mask="url(#3d34e71d7f)"><g transform="matrix(1, 0, 0, 1, 204, 78)"><g clip-path="url(#e8474a01c2)"><g clip-path="url(#36d7867d82)"><path fill="#d9d9d9" d="M 11.625 12.164062 L 604.097656 12.164062 L 604.097656 360.835938 L 11.625 360.835938 Z M 11.625 12.164062 " fill-opacity="1" fill-rule="nonzero"/></g><g clip-path="url(#0fece32783)"><path fill="#000000" d="M 16.128906 9.914062 L 18.375 9.914062 L 18.375 14.410156 L 16.128906 14.410156 Z M 20.625 9.914062 L 22.871094 9.914062 L 22.871094 14.410156 L 20.625 14.410156 Z M 25.121094 9.914062 L 27.367188 9.914062 L 27.367188 14.410156 L 25.121094 14.410156 Z M 29.613281 9.914062 L 31.863281 9.914062 L 31.863281 14.410156 L 29.613281 14.410156 Z M 34.109375 9.914062 L 36.359375 9.914062 L 36.359375 14.410156 L 34.109375 14.410156 Z M 38.605469 9.914062 L 40.855469 9.914062 L 40.855469 14.410156 L 38.605469 14.410156 Z M 43.101562 9.914062 L 45.351562 9.914062 L 45.351562 14.410156 L 43.101562 14.410156 Z M 47.597656 9.914062 L 49.847656 9.914062 L 49.847656 14.410156 L 47.597656 14.410156 Z M 52.09375 9.914062 L 54.339844 9.914062 L 54.339844 14.410156 L 52.09375 14.410156 Z M 56.589844 9.914062 L 58.835938 9.914062 L 58.835938 14.410156 L 56.589844 14.410156 Z M 61.085938 9.914062 L 63.332031 9.914062 L 63.332031 14.410156 L 61.085938 14.410156 Z M 65.582031 9.914062 L 67.828125 9.914062 L 67.828125 14.410156 L 65.582031 14.410156 Z M 70.078125 9.914062 L 72.324219 9.914062 L 72.324219 14.410156 L 70.078125 14.410156 Z M 74.574219 9.914062 L 76.820312 9.914062 L 76.820312 14.410156 L 74.574219 14.410156 Z M 79.066406 9.914062 L 81.316406 9.914062 L 81.316406 14.410156 L 79.066406 14.410156 Z M 83.5625 9.914062 L 85.8125 9.914062 L 85.8125 14.410156 L 83.5625 14.410156 Z M 88.058594 9.914062 L 90.308594 9.914062 L 90.308594 14.410156 L 88.058594 14.410156 Z M 92.554688 9.914062 L 94.804688 9.914062 L 94.804688 14.410156 L 92.554688 14.410156 Z M 97.050781 9.914062 L 99.300781 9.914062 L 99.300781 14.410156 L 97.050781 14.410156 Z M 101.546875 9.914062 L 103.792969 9.914062 L 103.792969 14.410156 L 101.546875 14.410156 Z M 106.042969 9.914062 L 108.289062 9.914062 L 108.289062 14.410156 L 106.042969 14.410156 Z M 110.539062 9.914062 L 112.785156 9.914062 L 112.785156 14.410156 L 110.539062 14.410156 Z M 115.035156 9.914062 L 117.28125 9.914062 L 117.28125 14.410156 L 115.035156 14.410156 Z M 119.53125 9.914062 L 121.777344 9.914062 L 121.777344 14.410156 L 119.53125 14.410156 Z M 124.027344 9.914062 L 126.273438 9.914062 L 126.273438 14.410156 L 124.027344 14.410156 Z M 128.523438 9.914062 L 130.769531 9.914062 L 130.769531 14.410156 L 128.523438 14.410156 Z M 133.015625 9.914062 L 135.265625 9.914062 L 135.265625 14.410156 L 133.015625 14.410156 Z M 137.511719 9.914062 L 139.761719 9.914062 L 139.761719 14.410156 L 137.511719 14.410156 Z M 142.007812 9.914062 L 144.257812 9.914062 L 144.257812 14.410156 L 142.007812 14.410156 Z M 146.503906 9.914062 L 148.753906 9.914062 L 148.753906 14.410156 L 146.503906 14.410156 Z M 151 9.914062 L 153.25 9.914062 L 153.25 14.410156 L 151 14.410156 Z M 155.496094 9.914062 L 157.742188 9.914062 L 157.742188 14.410156 L 155.496094 14.410156 Z M 159.992188 9.914062 L 162.238281 9.914062 L 162.238281 14.410156 L 159.992188 14.410156 Z M 164.488281 9.914062 L 166.734375 9.914062 L 166.734375 14.410156 L 164.488281 14.410156 Z M 168.984375 9.914062 L 171.230469 9.914062 L 171.230469 14.410156 L 168.984375 14.410156 Z M 173.480469 9.914062 L 175.726562 9.914062 L 175.726562 14.410156 L 173.480469 14.410156 Z M 177.976562 9.914062 L 180.222656 9.914062 L 180.222656 14.410156 L 177.976562 14.410156 Z M 182.46875 9.914062 L 184.71875 9.914062 L 184.71875 14.410156 L 182.46875 14.410156 Z M 186.964844 9.914062 L 189.214844 9.914062 L 189.214844 14.410156 L 186.964844 14.410156 Z M 191.460938 9.914062 L 193.710938 9.914062 L 193.710938 14.410156 L 191.460938 14.410156 Z M 195.957031 9.914062 L 198.207031 9.914062 L 198.207031 14.410156 L 195.957031 14.410156 Z M 200.453125 9.914062 L 202.703125 9.914062 L 202.703125 14.410156 L 200.453125 14.410156 Z M 204.949219 9.914062 L 207.195312 9.914062 L 207.195312 14.410156 L 204.949219 14.410156 Z M 209.445312 9.914062 L 211.691406 9.914062 L 211.691406 14.410156 L 209.445312 14.410156 Z M 213.941406 9.914062 L 216.1875 9.914062 L 216.1875 14.410156 L 213.941406 14.410156 Z M 218.4375 9.914062 L 220.683594 9.914062 L 220.683594 14.410156 L 218.4375 14.410156 Z M 222.933594 9.914062 L 225.179688 9.914062 L 225.179688 14.410156 L 222.933594 14.410156 Z M 227.429688 9.914062 L 229.675781 9.914062 L 229.675781 14.410156 L 227.429688 14.410156 Z M 231.925781 9.914062 L 234.171875 9.914062 L 234.171875 14.410156 L 231.925781 14.410156 Z M 236.417969 9.914062 L 238.667969 9.914062 L 238.667969 14.410156 L 236.417969 14.410156 Z M 240.914062 9.914062 L 243.164062 9.914062 L 243.164062 14.410156 L 240.914062 14.410156 Z M 245.410156 9.914062 L 247.660156 9.914062 L 247.660156 14.410156 L 245.410156 14.410156 Z M 249.90625 9.914062 L 252.15625 9.914062 L 252.15625 14.410156 L 249.90625 14.410156 Z M 254.402344 9.914062 L 256.652344 9.914062 L 256.652344 14.410156 L 254.402344 14.410156 Z M 258.898438 9.914062 L 261.144531 9.914062 L 261.144531 14.410156 L 258.898438 14.410156 Z M 263.394531 9.914062 L 265.640625 9.914062 L 265.640625 14.410156 L 263.394531 14.410156 Z M 267.890625 9.914062 L 270.136719 9.914062 L 270.136719 14.410156 L 267.890625 14.410156 Z M 272.386719 9.914062 L 274.632812 9.914062 L 274.632812 14.410156 L 272.386719 14.410156 Z M 276.882812 9.914062 L 279.128906 9.914062 L 279.128906 14.410156 L 276.882812 14.410156 Z M 281.378906 9.914062 L 283.625 9.914062 L 283.625 14.410156 L 281.378906 14.410156 Z M 285.871094 9.914062 L 288.121094 9.914062 L 288.121094 14.410156 L 285.871094 14.410156 Z M 290.367188 9.914062 L 292.617188 9.914062 L 292.617188 14.410156 L 290.367188 14.410156 Z M 294.863281 9.914062 L 297.113281 9.914062 L 297.113281 14.410156 L 294.863281 14.410156 Z M 299.359375 9.914062 L 301.609375 9.914062 L 301.609375 14.410156 L 299.359375 14.410156 Z M 303.855469 9.914062 L 306.105469 9.914062 L 306.105469 14.410156 L 303.855469 14.410156 Z M 308.351562 9.914062 L 310.597656 9.914062 L 310.597656 14.410156 L 308.351562 14.410156 Z M 312.847656 9.914062 L 315.09375 9.914062 L 315.09375 14.410156 L 312.847656 14.410156 Z M 317.34375 9.914062 L 319.589844 9.914062 L 319.589844 14.410156 L 317.34375 14.410156 Z M 321.839844 9.914062 L 324.085938 9.914062 L 324.085938 14.410156 L 321.839844 14.410156 Z M 326.335938 9.914062 L 328.582031 9.914062 L 328.582031 14.410156 L 326.335938 14.410156 Z M 330.832031 9.914062 L 333.078125 9.914062 L 333.078125 14.410156 L 330.832031 14.410156 Z M 335.328125 9.914062 L 337.574219 9.914062 L 337.574219 14.410156 L 335.328125 14.410156 Z M 339.820312 9.914062 L 342.070312 9.914062 L 342.070312 14.410156 L 339.820312 14.410156 Z M 344.316406 9.914062 L 346.566406 9.914062 L 346.566406 14.410156 L 344.316406 14.410156 Z M 348.8125 9.914062 L 351.0625 9.914062 L 351.0625 14.410156 L 348.8125 14.410156 Z M 353.308594 9.914062 L 355.558594 9.914062 L 355.558594 14.410156 L 353.308594 14.410156 Z M 357.804688 9.914062 L 360.054688 9.914062 L 360.054688 14.410156 L 357.804688 14.410156 Z M 362.300781 9.914062 L 364.546875 9.914062 L 364.546875 14.410156 L 362.300781 14.410156 Z M 366.796875 9.914062 L 369.042969 9.914062 L 369.042969 14.410156 L 366.796875 14.410156 Z M 371.292969 9.914062 L 373.539062 9.914062 L 373.539062 14.410156 L 371.292969 14.410156 Z M 375.789062 9.914062 L 378.035156 9.914062 L 378.035156 14.410156 L 375.789062 14.410156 Z M 380.285156 9.914062 L 382.53125 9.914062 L 382.53125 14.410156 L 380.285156 14.410156 Z M 384.78125 9.914062 L 387.027344 9.914062 L 387.027344 14.410156 L 384.78125 14.410156 Z M 389.273438 9.914062 L 391.523438 9.914062 L 391.523438 14.410156 L 389.273438 14.410156 Z M 393.769531 9.914062 L 396.019531 9.914062 L 396.019531 14.410156 L 393.769531 14.410156 Z M 398.265625 9.914062 L 400.515625 9.914062 L 400.515625 14.410156 L 398.265625 14.410156 Z M 402.761719 9.914062 L 405.011719 9.914062 L 405.011719 14.410156 L 402.761719 14.410156 Z M 407.257812 9.914062 L 409.507812 9.914062 L 409.507812 14.410156 L 407.257812 14.410156 Z M 411.753906 9.914062 L 414 9.914062 L 414 14.410156 L 411.753906 14.410156 Z M 416.25 9.914062 L 418.496094 9.914062 L 418.496094 14.410156 L 416.25 14.410156 Z M 420.746094 9.914062 L 422.992188 9.914062 L 422.992188 14.410156 L 420.746094 14.410156 Z M 425.242188 9.914062 L 427.488281 9.914062 L 427.488281 14.410156 L 425.242188 14.410156 Z M 429.738281 9.914062 L 431.984375 9.914062 L 431.984375 14.410156 L 429.738281 14.410156 Z M 434.234375 9.914062 L 436.480469 9.914062 L 436.480469 14.410156 L 434.234375 14.410156 Z M 438.730469 9.914062 L 440.976562 9.914062 L 440.976562 14.410156 L 438.730469 14.410156 Z M 443.222656 9.914062 L 445.472656 9.914062 L 445.472656 14.410156 L 443.222656 14.410156 Z M 447.71875 9.914062 L 449.96875 9.914062 L 449.96875 14.410156 L 447.71875 14.410156 Z M 452.214844 9.914062 L 454.464844 9.914062 L 454.464844 14.410156 L 452.214844 14.410156 Z M 456.710938 9.914062 L 458.960938 9.914062 L 458.960938 14.410156 L 456.710938 14.410156 Z M 461.207031 9.914062 L 463.457031 9.914062 L 463.457031 14.410156 L 461.207031 14.410156 Z M 465.703125 9.914062 L 467.949219 9.914062 L 467.949219 14.410156 L 465.703125 14.410156 Z M 470.199219 9.914062 L 472.445312 9.914062 L 472.445312 14.410156 L 470.199219 14.410156 Z M 474.695312 9.914062 L 476.941406 9.914062 L 476.941406 14.410156 L 474.695312 14.410156 Z M 479.191406 9.914062 L 481.4375 9.914062 L 481.4375 14.410156 L 479.191406 14.410156 Z M 483.6875 9.914062 L 485.933594 9.914062 L 485.933594 14.410156 L 483.6875 14.410156 Z M 488.183594 9.914062 L 490.429688 9.914062 L 490.429688 14.410156 L 488.183594 14.410156 Z M 492.675781 9.914062 L 494.925781 9.914062 L 494.925781 14.410156 L 492.675781 14.410156 Z M 497.171875 9.914062 L 499.421875 9.914062 L 499.421875 14.410156 L 497.171875 14.410156 Z M 501.667969 9.914062 L 503.917969 9.914062 L 503.917969 14.410156 L 501.667969 14.410156 Z M 506.164062 9.914062 L 508.414062 9.914062 L 508.414062 14.410156 L 506.164062 14.410156 Z M 510.660156 9.914062 L 512.910156 9.914062 L 512.910156 14.410156 L 510.660156 14.410156 Z M 515.15625 9.914062 L 517.40625 9.914062 L 517.40625 14.410156 L 515.15625 14.410156 Z M 519.652344 9.914062 L 521.898438 9.914062 L 521.898438 14.410156 L 519.652344 14.410156 Z M 524.148438 9.914062 L 526.394531 9.914062 L 526.394531 14.410156 L 524.148438 14.410156 Z M 528.644531 9.914062 L 530.890625 9.914062 L 530.890625 14.410156 L 528.644531 14.410156 Z M 533.140625 9.914062 L 535.386719 9.914062 L 535.386719 14.410156 L 533.140625 14.410156 Z M 537.636719 9.914062 L 539.882812 9.914062 L 539.882812 14.410156 L 537.636719 14.410156 Z M 542.132812 9.914062 L 544.378906 9.914062 L 544.378906 14.410156 L 542.132812 14.410156 Z M 546.625 9.914062 L 548.875 9.914062 L 548.875 14.410156 L 546.625 14.410156 Z M 551.121094 9.914062 L 553.371094 9.914062 L 553.371094 14.410156 L 551.121094 14.410156 Z M 555.617188 9.914062 L 557.867188 9.914062 L 557.867188 14.410156 L 555.617188 14.410156 Z M 560.113281 9.914062 L 562.363281 9.914062 L 562.363281 14.410156 L 560.113281 14.410156 Z M 564.609375 9.914062 L 566.859375 9.914062 L 566.859375 14.410156 L 564.609375 14.410156 Z M 569.105469 9.914062 L 571.351562 9.914062 L 571.351562 14.410156 L 569.105469 14.410156 Z M 573.601562 9.914062 L 575.847656 9.914062 L 575.847656 14.410156 L 573.601562 14.410156 Z M 578.097656 9.914062 L 580.34375 9.914062 L 580.34375 14.410156 L 578.097656 14.410156 Z M 582.59375 9.914062 L 584.839844 9.914062 L 584.839844 14.410156 L 582.59375 14.410156 Z M 587.089844 9.914062 L 589.335938 9.914062 L 589.335938 14.410156 L 587.089844 14.410156 Z M 591.585938 9.914062 L 593.832031 9.914062 L 593.832031 14.410156 L 591.585938 14.410156 Z M 596.078125 9.914062 L 598.328125 9.914062 L 598.328125 14.410156 L 596.078125 14.410156 Z M 600.574219 9.914062 L 602.824219 9.914062 L 602.824219 14.410156 L 600.574219 14.410156 Z M 606.617188 12.867188 L 606.617188 15.113281 L 602.121094 15.113281 L 602.121094 12.867188 Z M 606.617188 17.363281 L 606.617188 19.609375 L 602.121094 19.609375 L 602.121094 17.363281 Z M 606.617188 21.859375 L 606.617188 24.105469 L 602.121094 24.105469 L 602.121094 21.859375 Z M 606.617188 26.355469 L 606.617188 28.601562 L 602.121094 28.601562 L 602.121094 26.355469 Z M 606.617188 30.847656 L 606.617188 33.097656 L 602.121094 33.097656 L 602.121094 30.847656 Z M 606.617188 35.34375 L 606.617188 37.59375 L 602.121094 37.59375 L 602.121094 35.34375 Z M 606.617188 39.839844 L 606.617188 42.089844 L 602.121094 42.089844 L 602.121094 39.839844 Z M 606.617188 44.335938 L 606.617188 46.585938 L 602.121094 46.585938 L 602.121094 44.335938 Z M 606.617188 48.832031 L 606.617188 51.082031 L 602.121094 51.082031 L 602.121094 48.832031 Z M 606.617188 53.328125 L 606.617188 55.574219 L 602.121094 55.574219 L 602.121094 53.328125 Z M 606.617188 57.824219 L 606.617188 60.070312 L 602.121094 60.070312 L 602.121094 57.824219 Z M 606.617188 62.320312 L 606.617188 64.566406 L 602.121094 64.566406 L 602.121094 62.320312 Z M 606.617188 66.816406 L 606.617188 69.0625 L 602.121094 69.0625 L 602.121094 66.816406 Z M 606.617188 71.3125 L 606.617188 73.558594 L 602.121094 73.558594 L 602.121094 71.3125 Z M 606.617188 75.808594 L 606.617188 78.054688 L 602.121094 78.054688 L 602.121094 75.808594 Z M 606.617188 80.300781 L 606.617188 82.550781 L 602.121094 82.550781 L 602.121094 80.300781 Z M 606.617188 84.796875 L 606.617188 87.046875 L 602.121094 87.046875 L 602.121094 84.796875 Z M 606.617188 89.292969 L 606.617188 91.542969 L 602.121094 91.542969 L 602.121094 89.292969 Z M 606.617188 93.789062 L 606.617188 96.039062 L 602.121094 96.039062 L 602.121094 93.789062 Z M 606.617188 98.285156 L 606.617188 100.535156 L 602.121094 100.535156 L 602.121094 98.285156 Z M 606.617188 102.78125 L 606.617188 105.027344 L 602.121094 105.027344 L 602.121094 102.78125 Z M 606.617188 107.277344 L 606.617188 109.523438 L 602.121094 109.523438 L 602.121094 107.277344 Z M 606.617188 111.773438 L 606.617188 114.019531 L 602.121094 114.019531 L 602.121094 111.773438 Z M 606.617188 116.269531 L 606.617188 118.515625 L 602.121094 118.515625 L 602.121094 116.269531 Z M 606.617188 120.765625 L 606.617188 123.011719 L 602.121094 123.011719 L 602.121094 120.765625 Z M 606.617188 125.261719 L 606.617188 127.507812 L 602.121094 127.507812 L 602.121094 125.261719 Z M 606.617188 129.757812 L 606.617188 132.003906 L 602.121094 132.003906 L 602.121094 129.757812 Z M 606.617188 134.25 L 606.617188 136.5 L 602.121094 136.5 L 602.121094 134.25 Z M 606.617188 138.746094 L 606.617188 140.996094 L 602.121094 140.996094 L 602.121094 138.746094 Z M 606.617188 143.242188 L 606.617188 145.492188 L 602.121094 145.492188 L 602.121094 143.242188 Z M 606.617188 147.738281 L 606.617188 149.988281 L 602.121094 149.988281 L 602.121094 147.738281 Z M 606.617188 152.234375 L 606.617188 154.484375 L 602.121094 154.484375 L 602.121094 152.234375 Z M 606.617188 156.730469 L 606.617188 158.976562 L 602.121094 158.976562 L 602.121094 156.730469 Z M 606.617188 161.226562 L 606.617188 163.472656 L 602.121094 163.472656 L 602.121094 161.226562 Z M 606.617188 165.722656 L 606.617188 167.96875 L 602.121094 167.96875 L 602.121094 165.722656 Z M 606.617188 170.21875 L 606.617188 172.464844 L 602.121094 172.464844 L 602.121094 170.21875 Z M 606.617188 174.714844 L 606.617188 176.960938 L 602.121094 176.960938 L 602.121094 174.714844 Z M 606.617188 179.210938 L 606.617188 181.457031 L 602.121094 181.457031 L 602.121094 179.210938 Z M 606.617188 183.703125 L 606.617188 185.953125 L 602.121094 185.953125 L 602.121094 183.703125 Z M 606.617188 188.199219 L 606.617188 190.449219 L 602.121094 190.449219 L 602.121094 188.199219 Z M 606.617188 192.695312 L 606.617188 194.945312 L 602.121094 194.945312 L 602.121094 192.695312 Z M 606.617188 197.191406 L 606.617188 199.441406 L 602.121094 199.441406 L 602.121094 197.191406 Z M 606.617188 201.6875 L 606.617188 203.9375 L 602.121094 203.9375 L 602.121094 201.6875 Z M 606.617188 206.183594 L 606.617188 208.429688 L 602.121094 208.429688 L 602.121094 206.183594 Z M 606.617188 210.679688 L 606.617188 212.925781 L 602.121094 212.925781 L 602.121094 210.679688 Z M 606.617188 215.175781 L 606.617188 217.421875 L 602.121094 217.421875 L 602.121094 215.175781 Z M 606.617188 219.671875 L 606.617188 221.917969 L 602.121094 221.917969 L 602.121094 219.671875 Z M 606.617188 224.167969 L 606.617188 226.414062 L 602.121094 226.414062 L 602.121094 224.167969 Z M 606.617188 228.664062 L 606.617188 230.910156 L 602.121094 230.910156 L 602.121094 228.664062 Z M 606.617188 233.160156 L 606.617188 235.40625 L 602.121094 235.40625 L 602.121094 233.160156 Z M 606.617188 237.652344 L 606.617188 239.902344 L 602.121094 239.902344 L 602.121094 237.652344 Z M 606.617188 242.148438 L 606.617188 244.398438 L 602.121094 244.398438 L 602.121094 242.148438 Z M 606.617188 246.644531 L 606.617188 248.894531 L 602.121094 248.894531 L 602.121094 246.644531 Z M 606.617188 251.140625 L 606.617188 253.390625 L 602.121094 253.390625 L 602.121094 251.140625 Z M 606.617188 255.636719 L 606.617188 257.886719 L 602.121094 257.886719 L 602.121094 255.636719 Z M 606.617188 260.132812 L 606.617188 262.378906 L 602.121094 262.378906 L 602.121094 260.132812 Z M 606.617188 264.628906 L 606.617188 266.875 L 602.121094 266.875 L 602.121094 264.628906 Z M 606.617188 269.125 L 606.617188 271.371094 L 602.121094 271.371094 L 602.121094 269.125 Z M 606.617188 273.621094 L 606.617188 275.867188 L 602.121094 275.867188 L 602.121094 273.621094 Z M 606.617188 278.117188 L 606.617188 280.363281 L 602.121094 280.363281 L 602.121094 278.117188 Z M 606.617188 282.613281 L 606.617188 284.859375 L 602.121094 284.859375 L 602.121094 282.613281 Z M 606.617188 287.105469 L 606.617188 289.355469 L 602.121094 289.355469 L 602.121094 287.105469 Z M 606.617188 291.601562 L 606.617188 293.851562 L 602.121094 293.851562 L 602.121094 291.601562 Z M 606.617188 296.097656 L 606.617188 298.347656 L 602.121094 298.347656 L 602.121094 296.097656 Z M 606.617188 300.59375 L 606.617188 302.84375 L 602.121094 302.84375 L 602.121094 300.59375 Z M 606.617188 305.089844 L 606.617188 307.339844 L 602.121094 307.339844 L 602.121094 305.089844 Z M 606.617188 309.585938 L 606.617188 311.832031 L 602.121094 311.832031 L 602.121094 309.585938 Z M 606.617188 314.082031 L 606.617188 316.328125 L 602.121094 316.328125 L 602.121094 314.082031 Z M 606.617188 318.578125 L 606.617188 320.824219 L 602.121094 320.824219 L 602.121094 318.578125 Z M 606.617188 323.074219 L 606.617188 325.320312 L 602.121094 325.320312 L 602.121094 323.074219 Z M 606.617188 327.570312 L 606.617188 329.816406 L 602.121094 329.816406 L 602.121094 327.570312 Z M 606.617188 332.066406 L 606.617188 334.3125 L 602.121094 334.3125 L 602.121094 332.066406 Z M 606.617188 336.5625 L 606.617188 338.808594 L 602.121094 338.808594 L 602.121094 336.5625 Z M 606.617188 341.054688 L 606.617188 343.304688 L 602.121094 343.304688 L 602.121094 341.054688 Z M 606.617188 345.550781 L 606.617188 347.800781 L 602.121094 347.800781 L 602.121094 345.550781 Z M 606.617188 350.046875 L 606.617188 352.296875 L 602.121094 352.296875 L 602.121094 350.046875 Z M 606.617188 354.542969 L 606.617188 356.792969 L 602.121094 356.792969 L 602.121094 354.542969 Z M 606.617188 359.039062 L 606.617188 363.078125 L 603.910156 363.078125 L 603.910156 358.582031 L 604.367188 358.582031 L 604.367188 360.828125 L 602.121094 360.828125 L 602.121094 359.039062 Z M 601.664062 363.078125 L 599.414062 363.078125 L 599.414062 358.582031 L 601.664062 358.582031 Z M 597.167969 363.078125 L 594.917969 363.078125 L 594.917969 358.582031 L 597.167969 358.582031 Z M 592.671875 363.078125 L 590.421875 363.078125 L 590.421875 358.582031 L 592.671875 358.582031 Z M 588.175781 363.078125 L 585.929688 363.078125 L 585.929688 358.582031 L 588.175781 358.582031 Z M 583.679688 363.078125 L 581.433594 363.078125 L 581.433594 358.582031 L 583.679688 358.582031 Z M 579.183594 363.078125 L 576.9375 363.078125 L 576.9375 358.582031 L 579.183594 358.582031 Z M 574.6875 363.078125 L 572.441406 363.078125 L 572.441406 358.582031 L 574.6875 358.582031 Z M 570.191406 363.078125 L 567.945312 363.078125 L 567.945312 358.582031 L 570.191406 358.582031 Z M 565.695312 363.078125 L 563.449219 363.078125 L 563.449219 358.582031 L 565.695312 358.582031 Z M 561.203125 363.078125 L 558.953125 363.078125 L 558.953125 358.582031 L 561.203125 358.582031 Z M 556.707031 363.078125 L 554.457031 363.078125 L 554.457031 358.582031 L 556.707031 358.582031 Z M 552.210938 363.078125 L 549.960938 363.078125 L 549.960938 358.582031 L 552.210938 358.582031 Z M 547.714844 363.078125 L 545.464844 363.078125 L 545.464844 358.582031 L 547.714844 358.582031 Z M 543.21875 363.078125 L 540.96875 363.078125 L 540.96875 358.582031 L 543.21875 358.582031 Z M 538.722656 363.078125 L 536.476562 363.078125 L 536.476562 358.582031 L 538.722656 358.582031 Z M 534.226562 363.078125 L 531.980469 363.078125 L 531.980469 358.582031 L 534.226562 358.582031 Z M 529.730469 363.078125 L 527.484375 363.078125 L 527.484375 358.582031 L 529.730469 358.582031 Z M 525.234375 363.078125 L 522.988281 363.078125 L 522.988281 358.582031 L 525.234375 358.582031 Z M 520.738281 363.078125 L 518.492188 363.078125 L 518.492188 358.582031 L 520.738281 358.582031 Z M 516.242188 363.078125 L 513.996094 363.078125 L 513.996094 358.582031 L 516.242188 358.582031 Z M 511.746094 363.078125 L 509.5 363.078125 L 509.5 358.582031 L 511.746094 358.582031 Z M 507.253906 363.078125 L 505.003906 363.078125 L 505.003906 358.582031 L 507.253906 358.582031 Z M 502.757812 363.078125 L 500.507812 363.078125 L 500.507812 358.582031 L 502.757812 358.582031 Z M 498.261719 363.078125 L 496.011719 363.078125 L 496.011719 358.582031 L 498.261719 358.582031 Z M 493.765625 363.078125 L 491.515625 363.078125 L 491.515625 358.582031 L 493.765625 358.582031 Z M 489.269531 363.078125 L 487.019531 363.078125 L 487.019531 358.582031 L 489.269531 358.582031 Z M 484.773438 363.078125 L 482.527344 363.078125 L 482.527344 358.582031 L 484.773438 358.582031 Z M 480.277344 363.078125 L 478.03125 363.078125 L 478.03125 358.582031 L 480.277344 358.582031 Z M 475.78125 363.078125 L 473.535156 363.078125 L 473.535156 358.582031 L 475.78125 358.582031 Z M 471.285156 363.078125 L 469.039062 363.078125 L 469.039062 358.582031 L 471.285156 358.582031 Z M 466.789062 363.078125 L 464.542969 363.078125 L 464.542969 358.582031 L 466.789062 358.582031 Z M 462.292969 363.078125 L 460.046875 363.078125 L 460.046875 358.582031 L 462.292969 358.582031 Z M 457.800781 363.078125 L 455.550781 363.078125 L 455.550781 358.582031 L 457.800781 358.582031 Z M 453.304688 363.078125 L 451.054688 363.078125 L 451.054688 358.582031 L 453.304688 358.582031 Z M 448.808594 363.078125 L 446.558594 363.078125 L 446.558594 358.582031 L 448.808594 358.582031 Z M 444.3125 363.078125 L 442.0625 363.078125 L 442.0625 358.582031 L 444.3125 358.582031 Z M 439.816406 363.078125 L 437.566406 363.078125 L 437.566406 358.582031 L 439.816406 358.582031 Z M 435.320312 363.078125 L 433.074219 363.078125 L 433.074219 358.582031 L 435.320312 358.582031 Z M 430.824219 363.078125 L 428.578125 363.078125 L 428.578125 358.582031 L 430.824219 358.582031 Z M 426.328125 363.078125 L 424.082031 363.078125 L 424.082031 358.582031 L 426.328125 358.582031 Z M 421.832031 363.078125 L 419.585938 363.078125 L 419.585938 358.582031 L 421.832031 358.582031 Z M 417.335938 363.078125 L 415.089844 363.078125 L 415.089844 358.582031 L 417.335938 358.582031 Z M 412.839844 363.078125 L 410.59375 363.078125 L 410.59375 358.582031 L 412.839844 358.582031 Z M 408.34375 363.078125 L 406.097656 363.078125 L 406.097656 358.582031 L 408.34375 358.582031 Z M 403.851562 363.078125 L 401.601562 363.078125 L 401.601562 358.582031 L 403.851562 358.582031 Z M 399.355469 363.078125 L 397.105469 363.078125 L 397.105469 358.582031 L 399.355469 358.582031 Z M 394.859375 363.078125 L 392.609375 363.078125 L 392.609375 358.582031 L 394.859375 358.582031 Z M 390.363281 363.078125 L 388.113281 363.078125 L 388.113281 358.582031 L 390.363281 358.582031 Z M 385.867188 363.078125 L 383.617188 363.078125 L 383.617188 358.582031 L 385.867188 358.582031 Z M 381.371094 363.078125 L 379.125 363.078125 L 379.125 358.582031 L 381.371094 358.582031 Z M 376.875 363.078125 L 374.628906 363.078125 L 374.628906 358.582031 L 376.875 358.582031 Z M 372.378906 363.078125 L 370.132812 363.078125 L 370.132812 358.582031 L 372.378906 358.582031 Z M 367.882812 363.078125 L 365.636719 363.078125 L 365.636719 358.582031 L 367.882812 358.582031 Z M 363.386719 363.078125 L 361.140625 363.078125 L 361.140625 358.582031 L 363.386719 358.582031 Z M 358.890625 363.078125 L 356.644531 363.078125 L 356.644531 358.582031 L 358.890625 358.582031 Z M 354.398438 363.078125 L 352.148438 363.078125 L 352.148438 358.582031 L 354.398438 358.582031 Z M 349.902344 363.078125 L 347.652344 363.078125 L 347.652344 358.582031 L 349.902344 358.582031 Z M 345.40625 363.078125 L 343.15625 363.078125 L 343.15625 358.582031 L 345.40625 358.582031 Z M 340.910156 363.078125 L 338.660156 363.078125 L 338.660156 358.582031 L 340.910156 358.582031 Z M 336.414062 363.078125 L 334.164062 363.078125 L 334.164062 358.582031 L 336.414062 358.582031 Z M 331.917969 363.078125 L 329.671875 363.078125 L 329.671875 358.582031 L 331.917969 358.582031 Z M 327.421875 363.078125 L 325.175781 363.078125 L 325.175781 358.582031 L 327.421875 358.582031 Z M 322.925781 363.078125 L 320.679688 363.078125 L 320.679688 358.582031 L 322.925781 358.582031 Z M 318.429688 363.078125 L 316.183594 363.078125 L 316.183594 358.582031 L 318.429688 358.582031 Z M 313.933594 363.078125 L 311.6875 363.078125 L 311.6875 358.582031 L 313.933594 358.582031 Z M 309.4375 363.078125 L 307.191406 363.078125 L 307.191406 358.582031 L 309.4375 358.582031 Z M 304.941406 363.078125 L 302.695312 363.078125 L 302.695312 358.582031 L 304.941406 358.582031 Z M 300.449219 363.078125 L 298.199219 363.078125 L 298.199219 358.582031 L 300.449219 358.582031 Z M 295.953125 363.078125 L 293.703125 363.078125 L 293.703125 358.582031 L 295.953125 358.582031 Z M 291.457031 363.078125 L 289.207031 363.078125 L 289.207031 358.582031 L 291.457031 358.582031 Z M 286.960938 363.078125 L 284.710938 363.078125 L 284.710938 358.582031 L 286.960938 358.582031 Z M 282.464844 363.078125 L 280.214844 363.078125 L 280.214844 358.582031 L 282.464844 358.582031 Z M 277.96875 363.078125 L 275.722656 363.078125 L 275.722656 358.582031 L 277.96875 358.582031 Z M 273.472656 363.078125 L 271.226562 363.078125 L 271.226562 358.582031 L 273.472656 358.582031 Z M 268.976562 363.078125 L 266.730469 363.078125 L 266.730469 358.582031 L 268.976562 358.582031 Z M 264.480469 363.078125 L 262.234375 363.078125 L 262.234375 358.582031 L 264.480469 358.582031 Z M 259.984375 363.078125 L 257.738281 363.078125 L 257.738281 358.582031 L 259.984375 358.582031 Z M 255.488281 363.078125 L 253.242188 363.078125 L 253.242188 358.582031 L 255.488281 358.582031 Z M 250.996094 363.078125 L 248.746094 363.078125 L 248.746094 358.582031 L 250.996094 358.582031 Z M 246.5 363.078125 L 244.25 363.078125 L 244.25 358.582031 L 246.5 358.582031 Z M 242.003906 363.078125 L 239.753906 363.078125 L 239.753906 358.582031 L 242.003906 358.582031 Z M 237.507812 363.078125 L 235.257812 363.078125 L 235.257812 358.582031 L 237.507812 358.582031 Z M 233.011719 363.078125 L 230.761719 363.078125 L 230.761719 358.582031 L 233.011719 358.582031 Z M 228.515625 363.078125 L 226.269531 363.078125 L 226.269531 358.582031 L 228.515625 358.582031 Z M 224.019531 363.078125 L 221.773438 363.078125 L 221.773438 358.582031 L 224.019531 358.582031 Z M 219.523438 363.078125 L 217.277344 363.078125 L 217.277344 358.582031 L 219.523438 358.582031 Z M 215.027344 363.078125 L 212.78125 363.078125 L 212.78125 358.582031 L 215.027344 358.582031 Z M 210.53125 363.078125 L 208.285156 363.078125 L 208.285156 358.582031 L 210.53125 358.582031 Z M 206.035156 363.078125 L 203.789062 363.078125 L 203.789062 358.582031 L 206.035156 358.582031 Z M 201.539062 363.078125 L 199.292969 363.078125 L 199.292969 358.582031 L 201.539062 358.582031 Z M 197.046875 363.078125 L 194.796875 363.078125 L 194.796875 358.582031 L 197.046875 358.582031 Z M 192.550781 363.078125 L 190.300781 363.078125 L 190.300781 358.582031 L 192.550781 358.582031 Z M 188.054688 363.078125 L 185.804688 363.078125 L 185.804688 358.582031 L 188.054688 358.582031 Z M 183.558594 363.078125 L 181.308594 363.078125 L 181.308594 358.582031 L 183.558594 358.582031 Z M 179.0625 363.078125 L 176.8125 363.078125 L 176.8125 358.582031 L 179.0625 358.582031 Z M 174.566406 363.078125 L 172.320312 363.078125 L 172.320312 358.582031 L 174.566406 358.582031 Z M 170.070312 363.078125 L 167.824219 363.078125 L 167.824219 358.582031 L 170.070312 358.582031 Z M 165.574219 363.078125 L 163.328125 363.078125 L 163.328125 358.582031 L 165.574219 358.582031 Z M 161.078125 363.078125 L 158.832031 363.078125 L 158.832031 358.582031 L 161.078125 358.582031 Z M 156.582031 363.078125 L 154.335938 363.078125 L 154.335938 358.582031 L 156.582031 358.582031 Z M 152.085938 363.078125 L 149.839844 363.078125 L 149.839844 358.582031 L 152.085938 358.582031 Z M 147.59375 363.078125 L 145.34375 363.078125 L 145.34375 358.582031 L 147.59375 358.582031 Z M 143.097656 363.078125 L 140.847656 363.078125 L 140.847656 358.582031 L 143.097656 358.582031 Z M 138.601562 363.078125 L 136.351562 363.078125 L 136.351562 358.582031 L 138.601562 358.582031 Z M 134.105469 363.078125 L 131.855469 363.078125 L 131.855469 358.582031 L 134.105469 358.582031 Z M 129.609375 363.078125 L 127.359375 363.078125 L 127.359375 358.582031 L 129.609375 358.582031 Z M 125.113281 363.078125 L 122.867188 363.078125 L 122.867188 358.582031 L 125.113281 358.582031 Z M 120.617188 363.078125 L 118.371094 363.078125 L 118.371094 358.582031 L 120.617188 358.582031 Z M 116.121094 363.078125 L 113.875 363.078125 L 113.875 358.582031 L 116.121094 358.582031 Z M 111.625 363.078125 L 109.378906 363.078125 L 109.378906 358.582031 L 111.625 358.582031 Z M 107.128906 363.078125 L 104.882812 363.078125 L 104.882812 358.582031 L 107.128906 358.582031 Z M 102.632812 363.078125 L 100.386719 363.078125 L 100.386719 358.582031 L 102.632812 358.582031 Z M 98.136719 363.078125 L 95.890625 363.078125 L 95.890625 358.582031 L 98.136719 358.582031 Z M 93.644531 363.078125 L 91.394531 363.078125 L 91.394531 358.582031 L 93.644531 358.582031 Z M 89.148438 363.078125 L 86.898438 363.078125 L 86.898438 358.582031 L 89.148438 358.582031 Z M 84.652344 363.078125 L 82.402344 363.078125 L 82.402344 358.582031 L 84.652344 358.582031 Z M 80.15625 363.078125 L 77.90625 363.078125 L 77.90625 358.582031 L 80.15625 358.582031 Z M 75.660156 363.078125 L 73.410156 363.078125 L 73.410156 358.582031 L 75.660156 358.582031 Z M 71.164062 363.078125 L 68.917969 363.078125 L 68.917969 358.582031 L 71.164062 358.582031 Z M 66.667969 363.078125 L 64.421875 363.078125 L 64.421875 358.582031 L 66.667969 358.582031 Z M 62.171875 363.078125 L 59.925781 363.078125 L 59.925781 358.582031 L 62.171875 358.582031 Z M 57.675781 363.078125 L 55.429688 363.078125 L 55.429688 358.582031 L 57.675781 358.582031 Z M 53.179688 363.078125 L 50.933594 363.078125 L 50.933594 358.582031 L 53.179688 358.582031 Z M 48.683594 363.078125 L 46.4375 363.078125 L 46.4375 358.582031 L 48.683594 358.582031 Z M 44.191406 363.078125 L 41.941406 363.078125 L 41.941406 358.582031 L 44.191406 358.582031 Z M 39.695312 363.078125 L 37.445312 363.078125 L 37.445312 358.582031 L 39.695312 358.582031 Z M 35.199219 363.078125 L 32.949219 363.078125 L 32.949219 358.582031 L 35.199219 358.582031 Z M 30.703125 363.078125 L 28.453125 363.078125 L 28.453125 358.582031 L 30.703125 358.582031 Z M 26.207031 363.078125 L 23.957031 363.078125 L 23.957031 358.582031 L 26.207031 358.582031 Z M 21.710938 363.078125 L 19.464844 363.078125 L 19.464844 358.582031 L 21.710938 358.582031 Z M 17.214844 363.078125 L 14.96875 363.078125 L 14.96875 358.582031 L 17.214844 358.582031 Z M 12.71875 363.078125 L 9.382812 363.078125 L 9.382812 359.667969 L 13.878906 359.667969 L 13.878906 360.828125 L 11.632812 360.828125 L 11.632812 358.582031 L 12.71875 358.582031 Z M 9.382812 357.421875 L 9.382812 355.171875 L 13.878906 355.171875 L 13.878906 357.421875 Z M 9.382812 352.925781 L 9.382812 350.679688 L 13.878906 350.679688 L 13.878906 352.925781 Z M 9.382812 348.429688 L 9.382812 346.183594 L 13.878906 346.183594 L 13.878906 348.429688 Z M 9.382812 343.933594 L 9.382812 341.6875 L 13.878906 341.6875 L 13.878906 343.933594 Z M 9.382812 339.4375 L 9.382812 337.191406 L 13.878906 337.191406 L 13.878906 339.4375 Z M 9.382812 334.941406 L 9.382812 332.695312 L 13.878906 332.695312 L 13.878906 334.941406 Z M 9.382812 330.445312 L 9.382812 328.199219 L 13.878906 328.199219 L 13.878906 330.445312 Z M 9.382812 325.953125 L 9.382812 323.703125 L 13.878906 323.703125 L 13.878906 325.953125 Z M 9.382812 321.457031 L 9.382812 319.207031 L 13.878906 319.207031 L 13.878906 321.457031 Z M 9.382812 316.960938 L 9.382812 314.710938 L 13.878906 314.710938 L 13.878906 316.960938 Z M 9.382812 312.464844 L 9.382812 310.214844 L 13.878906 310.214844 L 13.878906 312.464844 Z M 9.382812 307.96875 L 9.382812 305.71875 L 13.878906 305.71875 L 13.878906 307.96875 Z M 9.382812 303.472656 L 9.382812 301.222656 L 13.878906 301.222656 L 13.878906 303.472656 Z M 9.382812 298.976562 L 9.382812 296.730469 L 13.878906 296.730469 L 13.878906 298.976562 Z M 9.382812 294.480469 L 9.382812 292.234375 L 13.878906 292.234375 L 13.878906 294.480469 Z M 9.382812 289.984375 L 9.382812 287.738281 L 13.878906 287.738281 L 13.878906 289.984375 Z M 9.382812 285.488281 L 9.382812 283.242188 L 13.878906 283.242188 L 13.878906 285.488281 Z M 9.382812 280.992188 L 9.382812 278.746094 L 13.878906 278.746094 L 13.878906 280.992188 Z M 9.382812 276.496094 L 9.382812 274.25 L 13.878906 274.25 L 13.878906 276.496094 Z M 9.382812 272.003906 L 9.382812 269.753906 L 13.878906 269.753906 L 13.878906 272.003906 Z M 9.382812 267.507812 L 9.382812 265.257812 L 13.878906 265.257812 L 13.878906 267.507812 Z M 9.382812 263.011719 L 9.382812 260.761719 L 13.878906 260.761719 L 13.878906 263.011719 Z M 9.382812 258.515625 L 9.382812 256.265625 L 13.878906 256.265625 L 13.878906 258.515625 Z M 9.382812 254.019531 L 9.382812 251.769531 L 13.878906 251.769531 L 13.878906 254.019531 Z M 9.382812 249.523438 L 9.382812 247.277344 L 13.878906 247.277344 L 13.878906 249.523438 Z M 9.382812 245.027344 L 9.382812 242.78125 L 13.878906 242.78125 L 13.878906 245.027344 Z M 9.382812 240.53125 L 9.382812 238.285156 L 13.878906 238.285156 L 13.878906 240.53125 Z M 9.382812 236.035156 L 9.382812 233.789062 L 13.878906 233.789062 L 13.878906 236.035156 Z M 9.382812 231.539062 L 9.382812 229.292969 L 13.878906 229.292969 L 13.878906 231.539062 Z M 9.382812 227.042969 L 9.382812 224.796875 L 13.878906 224.796875 L 13.878906 227.042969 Z M 9.382812 222.550781 L 9.382812 220.300781 L 13.878906 220.300781 L 13.878906 222.550781 Z M 9.382812 218.054688 L 9.382812 215.804688 L 13.878906 215.804688 L 13.878906 218.054688 Z M 9.382812 213.558594 L 9.382812 211.308594 L 13.878906 211.308594 L 13.878906 213.558594 Z M 9.382812 209.0625 L 9.382812 206.8125 L 13.878906 206.8125 L 13.878906 209.0625 Z M 9.382812 204.566406 L 9.382812 202.316406 L 13.878906 202.316406 L 13.878906 204.566406 Z M 9.382812 200.070312 L 9.382812 197.820312 L 13.878906 197.820312 L 13.878906 200.070312 Z M 9.382812 195.574219 L 9.382812 193.328125 L 13.878906 193.328125 L 13.878906 195.574219 Z M 9.382812 191.078125 L 9.382812 188.832031 L 13.878906 188.832031 L 13.878906 191.078125 Z M 9.382812 186.582031 L 9.382812 184.335938 L 13.878906 184.335938 L 13.878906 186.582031 Z M 9.382812 182.085938 L 9.382812 179.839844 L 13.878906 179.839844 L 13.878906 182.085938 Z M 9.382812 177.589844 L 9.382812 175.34375 L 13.878906 175.34375 L 13.878906 177.589844 Z M 9.382812 173.09375 L 9.382812 170.847656 L 13.878906 170.847656 L 13.878906 173.09375 Z M 9.382812 168.601562 L 9.382812 166.351562 L 13.878906 166.351562 L 13.878906 168.601562 Z M 9.382812 164.105469 L 9.382812 161.855469 L 13.878906 161.855469 L 13.878906 164.105469 Z M 9.382812 159.609375 L 9.382812 157.359375 L 13.878906 157.359375 L 13.878906 159.609375 Z M 9.382812 155.113281 L 9.382812 152.863281 L 13.878906 152.863281 L 13.878906 155.113281 Z M 9.382812 150.617188 L 9.382812 148.367188 L 13.878906 148.367188 L 13.878906 150.617188 Z M 9.382812 146.121094 L 9.382812 143.875 L 13.878906 143.875 L 13.878906 146.121094 Z M 9.382812 141.625 L 9.382812 139.378906 L 13.878906 139.378906 L 13.878906 141.625 Z M 9.382812 137.128906 L 9.382812 134.882812 L 13.878906 134.882812 L 13.878906 137.128906 Z M 9.382812 132.632812 L 9.382812 130.386719 L 13.878906 130.386719 L 13.878906 132.632812 Z M 9.382812 128.136719 L 9.382812 125.890625 L 13.878906 125.890625 L 13.878906 128.136719 Z M 9.382812 123.640625 L 9.382812 121.394531 L 13.878906 121.394531 L 13.878906 123.640625 Z M 9.382812 119.148438 L 9.382812 116.898438 L 13.878906 116.898438 L 13.878906 119.148438 Z M 9.382812 114.652344 L 9.382812 112.402344 L 13.878906 112.402344 L 13.878906 114.652344 Z M 9.382812 110.15625 L 9.382812 107.90625 L 13.878906 107.90625 L 13.878906 110.15625 Z M 9.382812 105.660156 L 9.382812 103.410156 L 13.878906 103.410156 L 13.878906 105.660156 Z M 9.382812 101.164062 L 9.382812 98.914062 L 13.878906 98.914062 L 13.878906 101.164062 Z M 9.382812 96.667969 L 9.382812 94.417969 L 13.878906 94.417969 L 13.878906 96.667969 Z M 9.382812 92.171875 L 9.382812 89.925781 L 13.878906 89.925781 L 13.878906 92.171875 Z M 9.382812 87.675781 L 9.382812 85.429688 L 13.878906 85.429688 L 13.878906 87.675781 Z M 9.382812 83.179688 L 9.382812 80.933594 L 13.878906 80.933594 L 13.878906 83.179688 Z M 9.382812 78.683594 L 9.382812 76.4375 L 13.878906 76.4375 L 13.878906 78.683594 Z M 9.382812 74.1875 L 9.382812 71.941406 L 13.878906 71.941406 L 13.878906 74.1875 Z M 9.382812 69.691406 L 9.382812 67.445312 L 13.878906 67.445312 L 13.878906 69.691406 Z M 9.382812 65.199219 L 9.382812 62.949219 L 13.878906 62.949219 L 13.878906 65.199219 Z M 9.382812 60.703125 L 9.382812 58.453125 L 13.878906 58.453125 L 13.878906 60.703125 Z M 9.382812 56.207031 L 9.382812 53.957031 L 13.878906 53.957031 L 13.878906 56.207031 Z M 9.382812 51.710938 L 9.382812 49.460938 L 13.878906 49.460938 L 13.878906 51.710938 Z M 9.382812 47.214844 L 9.382812 44.964844 L 13.878906 44.964844 L 13.878906 47.214844 Z M 9.382812 42.71875 L 9.382812 40.472656 L 13.878906 40.472656 L 13.878906 42.71875 Z M 9.382812 38.222656 L 9.382812 35.976562 L 13.878906 35.976562 L 13.878906 38.222656 Z M 9.382812 33.726562 L 9.382812 31.480469 L 13.878906 31.480469 L 13.878906 33.726562 Z M 9.382812 29.230469 L 9.382812 26.984375 L 13.878906 26.984375 L 13.878906 29.230469 Z M 9.382812 24.734375 L 9.382812 22.488281 L 13.878906 22.488281 L 13.878906 24.734375 Z M 9.382812 20.238281 L 9.382812 17.992188 L 13.878906 17.992188 L 13.878906 20.238281 Z M 9.382812 15.746094 L 9.382812 13.496094 L 13.878906 13.496094 L 13.878906 15.746094 Z M 11.632812 9.914062 L 13.878906 9.914062 L 13.878906 14.410156 L 11.632812 14.410156 Z M 11.632812 9.914062 " fill-opacity="1" fill-rule="nonzero"/></g></g></g></g><g clip-path="url(#42e0adac75)"><path fill="#ffffff" d="M 362.214844 264.496094 C 362.214844 249.609375 374.285156 237.539062 389.171875 237.539062 C 404.0625 237.539062 416.128906 249.609375 416.128906 264.496094 C 416.113281 279.378906 404.054688 291.4375 389.171875 291.453125 C 374.285156 291.453125 362.214844 279.386719 362.214844 264.496094 Z M 363.339844 264.496094 C 363.339844 278.765625 374.90625 290.332031 389.171875 290.332031 C 403.441406 290.332031 415.007812 278.765625 415.007812 264.496094 C 414.988281 250.234375 403.433594 238.679688 389.171875 238.664062 C 374.90625 238.664062 363.339844 250.230469 363.339844 264.496094 Z M 363.339844 264.496094 " fill-opacity="1" fill-rule="nonzero"/></g><path fill="#ffffff" d="M 375.132812 270.578125 C 375.132812 269.378906 375.132812 259.757812 375.132812 258.554688 C 375.132812 256.617188 376.699219 255.050781 378.636719 255.050781 C 379.519531 255.050781 380.371094 255.382812 381.019531 255.984375 C 381.019531 255.140625 381.019531 248.402344 381.019531 247.558594 C 381.09375 245.792969 382.582031 244.421875 384.351562 244.496094 C 386.011719 244.5625 387.34375 245.894531 387.414062 247.558594 C 387.414062 247.992188 387.414062 251.476562 387.414062 251.910156 C 388.757812 250.761719 390.78125 250.921875 391.925781 252.265625 C 392.359375 252.769531 392.625 253.398438 392.683594 254.0625 C 393.261719 253.5625 394 253.285156 394.765625 253.285156 C 396.53125 253.285156 397.964844 254.714844 397.96875 256.484375 C 397.96875 256.488281 397.96875 256.535156 397.96875 256.539062 C 399.320312 255.40625 401.335938 255.585938 402.46875 256.941406 C 402.949219 257.511719 403.210938 258.234375 403.214844 258.980469 C 403.214844 260.140625 403.214844 269.402344 403.214844 270.5625 C 403.207031 278.316406 396.925781 284.605469 389.171875 284.617188 C 381.425781 284.605469 375.148438 278.328125 375.132812 270.578125 Z M 376.253906 258.554688 C 376.253906 259.753906 376.253906 269.359375 376.253906 270.5625 C 376.253906 277.695312 382.039062 283.480469 389.171875 283.480469 C 396.304688 283.480469 402.089844 277.695312 402.089844 270.5625 C 402.089844 269.402344 402.089844 260.140625 402.089844 258.980469 C 402.148438 257.835938 401.269531 256.859375 400.121094 256.796875 C 398.976562 256.738281 398 257.621094 397.9375 258.765625 C 397.933594 258.835938 397.933594 258.910156 397.9375 258.980469 C 397.9375 259.292969 397.6875 259.542969 397.378906 259.542969 C 397.066406 259.542969 396.816406 259.292969 396.816406 258.980469 C 396.816406 258.734375 396.816406 256.742188 396.816406 256.492188 C 396.757812 255.347656 395.777344 254.464844 394.632812 254.527344 C 393.570312 254.582031 392.722656 255.429688 392.664062 256.492188 C 392.664062 256.804688 392.414062 257.054688 392.105469 257.054688 C 391.792969 257.054688 391.542969 256.804688 391.542969 256.492188 C 391.542969 256.28125 391.542969 254.566406 391.542969 254.355469 C 391.542969 253.207031 390.613281 252.277344 389.464844 252.277344 C 388.316406 252.277344 387.386719 253.207031 387.386719 254.355469 C 387.386719 254.664062 387.136719 254.914062 386.824219 254.914062 C 386.515625 254.914062 386.261719 254.664062 386.261719 254.355469 C 386.261719 253.675781 386.261719 248.246094 386.261719 247.570312 C 386.203125 246.421875 385.226562 245.542969 384.082031 245.601562 C 383.015625 245.660156 382.167969 246.507812 382.113281 247.570312 C 382.113281 248.667969 382.113281 257.457031 382.113281 258.554688 C 382.113281 258.863281 381.863281 259.117188 381.550781 259.117188 C 381.242188 259.117188 380.988281 258.863281 380.988281 258.554688 C 380.988281 257.246094 379.933594 256.183594 378.625 256.175781 C 377.316406 256.179688 376.253906 257.242188 376.253906 258.554688 Z M 376.253906 258.554688 " fill-opacity="1" fill-rule="nonzero"/><path fill="#ffffff" d="M 386.285156 265.816406 C 386.285156 264.660156 386.285156 255.394531 386.285156 254.234375 C 386.285156 253.925781 386.535156 253.675781 386.847656 253.675781 C 387.15625 253.675781 387.410156 253.925781 387.410156 254.234375 C 387.410156 255.394531 387.410156 264.660156 387.410156 265.816406 C 387.410156 266.125 387.15625 266.378906 386.847656 266.378906 C 386.535156 266.378906 386.285156 266.125 386.285156 265.816406 Z M 386.285156 265.816406 " fill-opacity="1" fill-rule="nonzero"/><path fill="#ffffff" d="M 391.542969 266.050781 C 391.542969 265.089844 391.542969 257.378906 391.542969 256.414062 C 391.542969 256.105469 391.792969 255.855469 392.105469 255.855469 C 392.414062 255.855469 392.664062 256.105469 392.664062 256.414062 C 392.664062 257.378906 392.664062 265.089844 392.664062 266.050781 C 392.664062 266.363281 392.414062 266.613281 392.105469 266.613281 C 391.792969 266.613281 391.542969 266.363281 391.542969 266.050781 Z M 391.542969 266.050781 " fill-opacity="1" fill-rule="nonzero"/><path fill="#ffffff" d="M 396.820312 268.816406 C 396.820312 267.820312 396.820312 259.84375 396.820312 258.847656 C 396.820312 258.535156 397.074219 258.285156 397.382812 258.285156 C 397.691406 258.285156 397.945312 258.535156 397.945312 258.847656 C 397.945312 259.84375 397.945312 267.820312 397.945312 268.816406 C 397.945312 269.125 397.691406 269.378906 397.382812 269.378906 C 397.074219 269.378906 396.820312 269.125 396.820312 268.816406 Z M 396.820312 268.816406 " fill-opacity="1" fill-rule="nonzero"/><path fill="#ffffff" d="M 380.996094 269.519531 C 380.996094 268.40625 380.996094 259.519531 380.996094 258.410156 C 380.996094 258.097656 381.246094 257.847656 381.554688 257.847656 C 381.867188 257.847656 382.117188 258.097656 382.117188 258.410156 C 382.117188 259.519531 382.117188 268.40625 382.117188 269.519531 C 382.117188 269.828125 381.867188 270.078125 381.554688 270.078125 C 381.246094 270.078125 380.996094 269.828125 380.996094 269.519531 Z M 380.996094 269.519531 " fill-opacity="1" fill-rule="nonzero"/><g mask="url(#f238ed423f)"><g transform="matrix(1, 0, 0, 1, 431, 249)"><g clip-path="url(#7243b4bfa3)"><g fill="#000000" fill-opacity="1"><g transform="translate(0.229801, 23.035846)"><g><path d="M 10.140625 -15 L 10.140625 -13.40625 L 3.625 -13.40625 L 3.625 -8.359375 L 8.90625 -8.359375 L 8.90625 -6.765625 L 3.625 -6.765625 L 3.625 0 L 1.65625 0 L 1.65625 -15 Z M 10.140625 -15 "/></g></g></g><g fill="#000000" fill-opacity="1"><g transform="translate(11.081076, 23.035846)"><g><path d="M 2.671875 -13.71875 C 2.296875 -13.71875 1.976562 -13.84375 1.71875 -14.09375 C 1.457031 -14.351562 1.328125 -14.671875 1.328125 -15.046875 C 1.328125 -15.421875 1.457031 -15.738281 1.71875 -16 C 1.976562 -16.257812 2.296875 -16.390625 2.671875 -16.390625 C 3.023438 -16.390625 3.328125 -16.257812 3.578125 -16 C 3.835938 -15.738281 3.96875 -15.421875 3.96875 -15.046875 C 3.96875 -14.671875 3.835938 -14.351562 3.578125 -14.09375 C 3.328125 -13.84375 3.023438 -13.71875 2.671875 -13.71875 Z M 3.625 -11.796875 L 3.625 0 L 1.65625 0 L 1.65625 -11.796875 Z M 3.625 -11.796875 "/></g></g></g><g fill="#000000" fill-opacity="1"><g transform="translate(16.377537, 23.035846)"><g><path d="M 3.625 -15.9375 L 3.625 0 L 1.65625 0 L 1.65625 -15.9375 Z M 3.625 -15.9375 "/></g></g></g><g fill="#000000" fill-opacity="1"><g transform="translate(21.673998, 23.035846)"><g><path d="M 3.625 -15.9375 L 3.625 0 L 1.65625 0 L 1.65625 -15.9375 Z M 3.625 -15.9375 "/></g></g></g><g fill="#000000" fill-opacity="1"><g transform="translate(26.970459, 23.035846)"><g/></g></g><g fill="#000000" fill-opacity="1"><g transform="translate(32.719055, 23.035846)"><g><path d="M 4.046875 -10.1875 L 4.046875 -3.234375 C 4.046875 -2.660156 4.164062 -2.253906 4.40625 -2.015625 C 4.65625 -1.773438 5.082031 -1.65625 5.6875 -1.65625 L 7.125 -1.65625 L 7.125 0 L 5.359375 0 C 4.265625 0 3.445312 -0.25 2.90625 -0.75 C 2.363281 -1.25 2.09375 -2.078125 2.09375 -3.234375 L 2.09375 -10.1875 L 0.5625 -10.1875 L 0.5625 -11.796875 L 2.09375 -11.796875 L 2.09375 -14.765625 L 4.046875 -14.765625 L 4.046875 -11.796875 L 7.125 -11.796875 L 7.125 -10.1875 Z M 4.046875 -10.1875 "/></g></g></g><g fill="#000000" fill-opacity="1"><g transform="translate(40.556096, 23.035846)"><g><path d="M 7.515625 -12.015625 C 8.398438 -12.015625 9.203125 -11.820312 9.921875 -11.4375 C 10.640625 -11.0625 11.203125 -10.492188 11.609375 -9.734375 C 12.023438 -8.972656 12.234375 -8.046875 12.234375 -6.953125 L 12.234375 0 L 10.296875 0 L 10.296875 -6.671875 C 10.296875 -7.847656 10 -8.75 9.40625 -9.375 C 8.820312 -10 8.019531 -10.3125 7 -10.3125 C 5.96875 -10.3125 5.144531 -9.988281 4.53125 -9.34375 C 3.925781 -8.695312 3.625 -7.757812 3.625 -6.53125 L 3.625 0 L 1.65625 0 L 1.65625 -15.9375 L 3.625 -15.9375 L 3.625 -10.125 C 4.007812 -10.726562 4.539062 -11.191406 5.21875 -11.515625 C 5.90625 -11.847656 6.671875 -12.015625 7.515625 -12.015625 Z M 7.515625 -12.015625 "/></g></g></g><g fill="#000000" fill-opacity="1"><g transform="translate(54.335498, 23.035846)"><g><path d="M 12.421875 -6.359375 C 12.421875 -5.984375 12.398438 -5.585938 12.359375 -5.171875 L 2.921875 -5.171875 C 2.992188 -4.003906 3.390625 -3.09375 4.109375 -2.4375 C 4.835938 -1.789062 5.722656 -1.46875 6.765625 -1.46875 C 7.609375 -1.46875 8.3125 -1.660156 8.875 -2.046875 C 9.445312 -2.441406 9.847656 -2.972656 10.078125 -3.640625 L 12.1875 -3.640625 C 11.875 -2.503906 11.242188 -1.582031 10.296875 -0.875 C 9.347656 -0.164062 8.171875 0.1875 6.765625 0.1875 C 5.640625 0.1875 4.632812 -0.0625 3.75 -0.5625 C 2.875 -1.0625 2.179688 -1.773438 1.671875 -2.703125 C 1.171875 -3.628906 0.921875 -4.703125 0.921875 -5.921875 C 0.921875 -7.140625 1.164062 -8.207031 1.65625 -9.125 C 2.144531 -10.039062 2.828125 -10.75 3.703125 -11.25 C 4.585938 -11.75 5.609375 -12 6.765625 -12 C 7.878906 -12 8.867188 -11.753906 9.734375 -11.265625 C 10.597656 -10.773438 11.257812 -10.101562 11.71875 -9.25 C 12.1875 -8.394531 12.421875 -7.429688 12.421875 -6.359375 Z M 10.40625 -6.765625 C 10.40625 -7.503906 10.238281 -8.144531 9.90625 -8.6875 C 9.570312 -9.226562 9.117188 -9.632812 8.546875 -9.90625 C 7.984375 -10.1875 7.359375 -10.328125 6.671875 -10.328125 C 5.679688 -10.328125 4.835938 -10.007812 4.140625 -9.375 C 3.441406 -8.75 3.046875 -7.878906 2.953125 -6.765625 Z M 10.40625 -6.765625 "/></g></g></g><g fill="#000000" fill-opacity="1"><g transform="translate(67.684301, 23.035846)"><g/></g></g><g fill="#000000" fill-opacity="1"><g transform="translate(73.432896, 23.035846)"><g><path d="M 2.671875 -13.71875 C 2.296875 -13.71875 1.976562 -13.84375 1.71875 -14.09375 C 1.457031 -14.351562 1.328125 -14.671875 1.328125 -15.046875 C 1.328125 -15.421875 1.457031 -15.738281 1.71875 -16 C 1.976562 -16.257812 2.296875 -16.390625 2.671875 -16.390625 C 3.023438 -16.390625 3.328125 -16.257812 3.578125 -16 C 3.835938 -15.738281 3.96875 -15.421875 3.96875 -15.046875 C 3.96875 -14.671875 3.835938 -14.351562 3.578125 -14.09375 C 3.328125 -13.84375 3.023438 -13.71875 2.671875 -13.71875 Z M 3.625 -11.796875 L 3.625 0 L 1.65625 0 L 1.65625 -11.796875 Z M 3.625 -11.796875 "/></g></g></g><g fill="#000000" fill-opacity="1"><g transform="translate(78.729357, 23.035846)"><g><path d="M 7.40625 -12.015625 C 8.84375 -12.015625 10.003906 -11.578125 10.890625 -10.703125 C 11.785156 -9.835938 12.234375 -8.585938 12.234375 -6.953125 L 12.234375 0 L 10.296875 0 L 10.296875 -6.671875 C 10.296875 -7.847656 10 -8.75 9.40625 -9.375 C 8.820312 -10 8.019531 -10.3125 7 -10.3125 C 5.96875 -10.3125 5.144531 -9.988281 4.53125 -9.34375 C 3.925781 -8.695312 3.625 -7.757812 3.625 -6.53125 L 3.625 0 L 1.65625 0 L 1.65625 -11.796875 L 3.625 -11.796875 L 3.625 -10.125 C 4.007812 -10.726562 4.535156 -11.191406 5.203125 -11.515625 C 5.867188 -11.847656 6.601562 -12.015625 7.40625 -12.015625 Z M 7.40625 -12.015625 "/></g></g></g><g fill="#000000" fill-opacity="1"><g transform="translate(92.50876, 23.035846)"><g><path d="M 6.453125 -10.1875 L 3.984375 -10.1875 L 3.984375 0 L 2.03125 0 L 2.03125 -10.1875 L 0.5 -10.1875 L 0.5 -11.796875 L 2.03125 -11.796875 L 2.03125 -12.640625 C 2.03125 -13.960938 2.367188 -14.925781 3.046875 -15.53125 C 3.722656 -16.144531 4.816406 -16.453125 6.328125 -16.453125 L 6.328125 -14.8125 C 5.460938 -14.8125 4.851562 -14.640625 4.5 -14.296875 C 4.15625 -13.960938 3.984375 -13.410156 3.984375 -12.640625 L 3.984375 -11.796875 L 6.453125 -11.796875 Z M 6.453125 -10.1875 "/></g></g></g><g fill="#000000" fill-opacity="1"><g transform="translate(99.592226, 23.035846)"><g><path d="M 6.796875 0.1875 C 5.691406 0.1875 4.691406 -0.0625 3.796875 -0.5625 C 2.898438 -1.0625 2.195312 -1.773438 1.6875 -2.703125 C 1.175781 -3.628906 0.921875 -4.703125 0.921875 -5.921875 C 0.921875 -7.128906 1.179688 -8.191406 1.703125 -9.109375 C 2.234375 -10.035156 2.945312 -10.75 3.84375 -11.25 C 4.75 -11.75 5.765625 -12 6.890625 -12 C 8.003906 -12 9.015625 -11.75 9.921875 -11.25 C 10.828125 -10.75 11.539062 -10.039062 12.0625 -9.125 C 12.59375 -8.207031 12.859375 -7.140625 12.859375 -5.921875 C 12.859375 -4.703125 12.585938 -3.628906 12.046875 -2.703125 C 11.503906 -1.773438 10.773438 -1.0625 9.859375 -0.5625 C 8.941406 -0.0625 7.921875 0.1875 6.796875 0.1875 Z M 6.796875 -1.53125 C 7.503906 -1.53125 8.164062 -1.691406 8.78125 -2.015625 C 9.394531 -2.347656 9.894531 -2.84375 10.28125 -3.5 C 10.664062 -4.164062 10.859375 -4.972656 10.859375 -5.921875 C 10.859375 -6.867188 10.671875 -7.671875 10.296875 -8.328125 C 9.921875 -8.992188 9.429688 -9.488281 8.828125 -9.8125 C 8.222656 -10.132812 7.570312 -10.296875 6.875 -10.296875 C 6.15625 -10.296875 5.492188 -10.132812 4.890625 -9.8125 C 4.296875 -9.488281 3.816406 -8.992188 3.453125 -8.328125 C 3.097656 -7.671875 2.921875 -6.867188 2.921875 -5.921875 C 2.921875 -4.960938 3.097656 -4.148438 3.453125 -3.484375 C 3.804688 -2.828125 4.273438 -2.335938 4.859375 -2.015625 C 5.453125 -1.691406 6.097656 -1.53125 6.796875 -1.53125 Z M 6.796875 -1.53125 "/></g></g></g><g fill="#000000" fill-opacity="1"><g transform="translate(113.371629, 23.035846)"><g><path d="M 3.625 -9.890625 C 3.96875 -10.554688 4.457031 -11.078125 5.09375 -11.453125 C 5.726562 -11.828125 6.503906 -12.015625 7.421875 -12.015625 L 7.421875 -9.984375 L 6.90625 -9.984375 C 4.71875 -9.984375 3.625 -8.796875 3.625 -6.421875 L 3.625 0 L 1.65625 0 L 1.65625 -11.796875 L 3.625 -11.796875 Z M 3.625 -9.890625 "/></g></g></g><g fill="#000000" fill-opacity="1"><g transform="translate(121.402435, 23.035846)"><g><path d="M 15.84375 -12.015625 C 16.757812 -12.015625 17.578125 -11.820312 18.296875 -11.4375 C 19.015625 -11.0625 19.582031 -10.492188 20 -9.734375 C 20.414062 -8.972656 20.625 -8.046875 20.625 -6.953125 L 20.625 0 L 18.6875 0 L 18.6875 -6.671875 C 18.6875 -7.847656 18.394531 -8.75 17.8125 -9.375 C 17.226562 -10 16.441406 -10.3125 15.453125 -10.3125 C 14.441406 -10.3125 13.632812 -9.984375 13.03125 -9.328125 C 12.425781 -8.679688 12.125 -7.738281 12.125 -6.5 L 12.125 0 L 10.1875 0 L 10.1875 -6.671875 C 10.1875 -7.847656 9.894531 -8.75 9.3125 -9.375 C 8.726562 -10 7.941406 -10.3125 6.953125 -10.3125 C 5.929688 -10.3125 5.117188 -9.984375 4.515625 -9.328125 C 3.921875 -8.679688 3.625 -7.738281 3.625 -6.5 L 3.625 0 L 1.65625 0 L 1.65625 -11.796875 L 3.625 -11.796875 L 3.625 -10.09375 C 4.007812 -10.71875 4.523438 -11.191406 5.171875 -11.515625 C 5.828125 -11.847656 6.550781 -12.015625 7.34375 -12.015625 C 8.332031 -12.015625 9.207031 -11.789062 9.96875 -11.34375 C 10.726562 -10.894531 11.296875 -10.242188 11.671875 -9.390625 C 12.003906 -10.222656 12.550781 -10.867188 13.3125 -11.328125 C 14.070312 -11.785156 14.914062 -12.015625 15.84375 -12.015625 Z M 15.84375 -12.015625 "/></g></g></g><g fill="#000000" fill-opacity="1"><g transform="translate(143.578656, 23.035846)"><g><path d="M 0.921875 -5.9375 C 0.921875 -7.144531 1.164062 -8.203125 1.65625 -9.109375 C 2.144531 -10.023438 2.816406 -10.734375 3.671875 -11.234375 C 4.523438 -11.742188 5.476562 -12 6.53125 -12 C 7.5625 -12 8.457031 -11.773438 9.21875 -11.328125 C 9.976562 -10.878906 10.546875 -10.316406 10.921875 -9.640625 L 10.921875 -11.796875 L 12.890625 -11.796875 L 12.890625 0 L 10.921875 0 L 10.921875 -2.203125 C 10.523438 -1.503906 9.941406 -0.929688 9.171875 -0.484375 C 8.410156 -0.0351562 7.519531 0.1875 6.5 0.1875 C 5.457031 0.1875 4.507812 -0.0664062 3.65625 -0.578125 C 2.8125 -1.097656 2.144531 -1.820312 1.65625 -2.75 C 1.164062 -3.6875 0.921875 -4.75 0.921875 -5.9375 Z M 10.921875 -5.921875 C 10.921875 -6.804688 10.738281 -7.578125 10.375 -8.234375 C 10.019531 -8.898438 9.535156 -9.410156 8.921875 -9.765625 C 8.316406 -10.117188 7.644531 -10.296875 6.90625 -10.296875 C 6.175781 -10.296875 5.507812 -10.125 4.90625 -9.78125 C 4.300781 -9.4375 3.816406 -8.929688 3.453125 -8.265625 C 3.097656 -7.609375 2.921875 -6.832031 2.921875 -5.9375 C 2.921875 -5.039062 3.097656 -4.253906 3.453125 -3.578125 C 3.816406 -2.910156 4.300781 -2.398438 4.90625 -2.046875 C 5.507812 -1.703125 6.175781 -1.53125 6.90625 -1.53125 C 7.644531 -1.53125 8.316406 -1.703125 8.921875 -2.046875 C 9.535156 -2.398438 10.019531 -2.910156 10.375 -3.578125 C 10.738281 -4.253906 10.921875 -5.035156 10.921875 -5.921875 Z M 10.921875 -5.921875 "/></g></g></g><g fill="#000000" fill-opacity="1"><g transform="translate(158.133152, 23.035846)"><g><path d="M 4.046875 -10.1875 L 4.046875 -3.234375 C 4.046875 -2.660156 4.164062 -2.253906 4.40625 -2.015625 C 4.65625 -1.773438 5.082031 -1.65625 5.6875 -1.65625 L 7.125 -1.65625 L 7.125 0 L 5.359375 0 C 4.265625 0 3.445312 -0.25 2.90625 -0.75 C 2.363281 -1.25 2.09375 -2.078125 2.09375 -3.234375 L 2.09375 -10.1875 L 0.5625 -10.1875 L 0.5625 -11.796875 L 2.09375 -11.796875 L 2.09375 -14.765625 L 4.046875 -14.765625 L 4.046875 -11.796875 L 7.125 -11.796875 L 7.125 -10.1875 Z M 4.046875 -10.1875 "/></g></g></g><g fill="#000000" fill-opacity="1"><g transform="translate(165.970193, 23.035846)"><g><path d="M 2.671875 -13.71875 C 2.296875 -13.71875 1.976562 -13.84375 1.71875 -14.09375 C 1.457031 -14.351562 1.328125 -14.671875 1.328125 -15.046875 C 1.328125 -15.421875 1.457031 -15.738281 1.71875 -16 C 1.976562 -16.257812 2.296875 -16.390625 2.671875 -16.390625 C 3.023438 -16.390625 3.328125 -16.257812 3.578125 -16 C 3.835938 -15.738281 3.96875 -15.421875 3.96875 -15.046875 C 3.96875 -14.671875 3.835938 -14.351562 3.578125 -14.09375 C 3.328125 -13.84375 3.023438 -13.71875 2.671875 -13.71875 Z M 3.625 -11.796875 L 3.625 0 L 1.65625 0 L 1.65625 -11.796875 Z M 3.625 -11.796875 "/></g></g></g><g fill="#000000" fill-opacity="1"><g transform="translate(171.266654, 23.035846)"><g><path d="M 6.796875 0.1875 C 5.691406 0.1875 4.691406 -0.0625 3.796875 -0.5625 C 2.898438 -1.0625 2.195312 -1.773438 1.6875 -2.703125 C 1.175781 -3.628906 0.921875 -4.703125 0.921875 -5.921875 C 0.921875 -7.128906 1.179688 -8.191406 1.703125 -9.109375 C 2.234375 -10.035156 2.945312 -10.75 3.84375 -11.25 C 4.75 -11.75 5.765625 -12 6.890625 -12 C 8.003906 -12 9.015625 -11.75 9.921875 -11.25 C 10.828125 -10.75 11.539062 -10.039062 12.0625 -9.125 C 12.59375 -8.207031 12.859375 -7.140625 12.859375 -5.921875 C 12.859375 -4.703125 12.585938 -3.628906 12.046875 -2.703125 C 11.503906 -1.773438 10.773438 -1.0625 9.859375 -0.5625 C 8.941406 -0.0625 7.921875 0.1875 6.796875 0.1875 Z M 6.796875 -1.53125 C 7.503906 -1.53125 8.164062 -1.691406 8.78125 -2.015625 C 9.394531 -2.347656 9.894531 -2.84375 10.28125 -3.5 C 10.664062 -4.164062 10.859375 -4.972656 10.859375 -5.921875 C 10.859375 -6.867188 10.671875 -7.671875 10.296875 -8.328125 C 9.921875 -8.992188 9.429688 -9.488281 8.828125 -9.8125 C 8.222656 -10.132812 7.570312 -10.296875 6.875 -10.296875 C 6.15625 -10.296875 5.492188 -10.132812 4.890625 -9.8125 C 4.296875 -9.488281 3.816406 -8.992188 3.453125 -8.328125 C 3.097656 -7.671875 2.921875 -6.867188 2.921875 -5.921875 C 2.921875 -4.960938 3.097656 -4.148438 3.453125 -3.484375 C 3.804688 -2.828125 4.273438 -2.335938 4.859375 -2.015625 C 5.453125 -1.691406 6.097656 -1.53125 6.796875 -1.53125 Z M 6.796875 -1.53125 "/></g></g></g><g fill="#000000" fill-opacity="1"><g transform="translate(185.046057, 23.035846)"><g><path d="M 7.40625 -12.015625 C 8.84375 -12.015625 10.003906 -11.578125 10.890625 -10.703125 C 11.785156 -9.835938 12.234375 -8.585938 12.234375 -6.953125 L 12.234375 0 L 10.296875 0 L 10.296875 -6.671875 C 10.296875 -7.847656 10 -8.75 9.40625 -9.375 C 8.820312 -10 8.019531 -10.3125 7 -10.3125 C 5.96875 -10.3125 5.144531 -9.988281 4.53125 -9.34375 C 3.925781 -8.695312 3.625 -7.757812 3.625 -6.53125 L 3.625 0 L 1.65625 0 L 1.65625 -11.796875 L 3.625 -11.796875 L 3.625 -10.125 C 4.007812 -10.726562 4.535156 -11.191406 5.203125 -11.515625 C 5.867188 -11.847656 6.601562 -12.015625 7.40625 -12.015625 Z M 7.40625 -12.015625 "/></g></g></g><g fill="#000000" fill-opacity="1"><g transform="translate(198.825459, 23.035846)"><g/></g></g><g fill="#000000" fill-opacity="1"><g transform="translate(204.574055, 23.035846)"><g><path d="M 7.515625 -12.015625 C 8.398438 -12.015625 9.203125 -11.820312 9.921875 -11.4375 C 10.640625 -11.0625 11.203125 -10.492188 11.609375 -9.734375 C 12.023438 -8.972656 12.234375 -8.046875 12.234375 -6.953125 L 12.234375 0 L 10.296875 0 L 10.296875 -6.671875 C 10.296875 -7.847656 10 -8.75 9.40625 -9.375 C 8.820312 -10 8.019531 -10.3125 7 -10.3125 C 5.96875 -10.3125 5.144531 -9.988281 4.53125 -9.34375 C 3.925781 -8.695312 3.625 -7.757812 3.625 -6.53125 L 3.625 0 L 1.65625 0 L 1.65625 -15.9375 L 3.625 -15.9375 L 3.625 -10.125 C 4.007812 -10.726562 4.539062 -11.191406 5.21875 -11.515625 C 5.90625 -11.847656 6.671875 -12.015625 7.515625 -12.015625 Z M 7.515625 -12.015625 "/></g></g></g><g fill="#000000" fill-opacity="1"><g transform="translate(218.353457, 23.035846)"><g><path d="M 12.421875 -6.359375 C 12.421875 -5.984375 12.398438 -5.585938 12.359375 -5.171875 L 2.921875 -5.171875 C 2.992188 -4.003906 3.390625 -3.09375 4.109375 -2.4375 C 4.835938 -1.789062 5.722656 -1.46875 6.765625 -1.46875 C 7.609375 -1.46875 8.3125 -1.660156 8.875 -2.046875 C 9.445312 -2.441406 9.847656 -2.972656 10.078125 -3.640625 L 12.1875 -3.640625 C 11.875 -2.503906 11.242188 -1.582031 10.296875 -0.875 C 9.347656 -0.164062 8.171875 0.1875 6.765625 0.1875 C 5.640625 0.1875 4.632812 -0.0625 3.75 -0.5625 C 2.875 -1.0625 2.179688 -1.773438 1.671875 -2.703125 C 1.171875 -3.628906 0.921875 -4.703125 0.921875 -5.921875 C 0.921875 -7.140625 1.164062 -8.207031 1.65625 -9.125 C 2.144531 -10.039062 2.828125 -10.75 3.703125 -11.25 C 4.585938 -11.75 5.609375 -12 6.765625 -12 C 7.878906 -12 8.867188 -11.753906 9.734375 -11.265625 C 10.597656 -10.773438 11.257812 -10.101562 11.71875 -9.25 C 12.1875 -8.394531 12.421875 -7.429688 12.421875 -6.359375 Z M 10.40625 -6.765625 C 10.40625 -7.503906 10.238281 -8.144531 9.90625 -8.6875 C 9.570312 -9.226562 9.117188 -9.632812 8.546875 -9.90625 C 7.984375 -10.1875 7.359375 -10.328125 6.671875 -10.328125 C 5.679688 -10.328125 4.835938 -10.007812 4.140625 -9.375 C 3.441406 -8.75 3.046875 -7.878906 2.953125 -6.765625 Z M 10.40625 -6.765625 "/></g></g></g><g fill="#000000" fill-opacity="1"><g transform="translate(231.70226, 23.035846)"><g><path d="M 3.625 -9.890625 C 3.96875 -10.554688 4.457031 -11.078125 5.09375 -11.453125 C 5.726562 -11.828125 6.503906 -12.015625 7.421875 -12.015625 L 7.421875 -9.984375 L 6.90625 -9.984375 C 4.71875 -9.984375 3.625 -8.796875 3.625 -6.421875 L 3.625 0 L 1.65625 0 L 1.65625 -11.796875 L 3.625 -11.796875 Z M 3.625 -9.890625 "/></g></g></g><g fill="#000000" fill-opacity="1"><g transform="translate(239.733066, 23.035846)"><g><path d="M 12.421875 -6.359375 C 12.421875 -5.984375 12.398438 -5.585938 12.359375 -5.171875 L 2.921875 -5.171875 C 2.992188 -4.003906 3.390625 -3.09375 4.109375 -2.4375 C 4.835938 -1.789062 5.722656 -1.46875 6.765625 -1.46875 C 7.609375 -1.46875 8.3125 -1.660156 8.875 -2.046875 C 9.445312 -2.441406 9.847656 -2.972656 10.078125 -3.640625 L 12.1875 -3.640625 C 11.875 -2.503906 11.242188 -1.582031 10.296875 -0.875 C 9.347656 -0.164062 8.171875 0.1875 6.765625 0.1875 C 5.640625 0.1875 4.632812 -0.0625 3.75 -0.5625 C 2.875 -1.0625 2.179688 -1.773438 1.671875 -2.703125 C 1.171875 -3.628906 0.921875 -4.703125 0.921875 -5.921875 C 0.921875 -7.140625 1.164062 -8.207031 1.65625 -9.125 C 2.144531 -10.039062 2.828125 -10.75 3.703125 -11.25 C 4.585938 -11.75 5.609375 -12 6.765625 -12 C 7.878906 -12 8.867188 -11.753906 9.734375 -11.265625 C 10.597656 -10.773438 11.257812 -10.101562 11.71875 -9.25 C 12.1875 -8.394531 12.421875 -7.429688 12.421875 -6.359375 Z M 10.40625 -6.765625 C 10.40625 -7.503906 10.238281 -8.144531 9.90625 -8.6875 C 9.570312 -9.226562 9.117188 -9.632812 8.546875 -9.90625 C 7.984375 -10.1875 7.359375 -10.328125 6.671875 -10.328125 C 5.679688 -10.328125 4.835938 -10.007812 4.140625 -9.375 C 3.441406 -8.75 3.046875 -7.878906 2.953125 -6.765625 Z M 10.40625 -6.765625 "/></g></g></g></g></g></g></svg>