<svg xmlns="http://www.w3.org/2000/svg" xmlns:xlink="http://www.w3.org/1999/xlink" width="1366" zoomAndPan="magnify" viewBox="0 0 1024.5 669.000002" height="892" preserveAspectRatio="xMidYMid meet" version="1.0"><defs><filter x="0%" y="0%" width="100%" height="100%" id="bbb0a7773b"><feColorMatrix values="0 0 0 0 1 0 0 0 0 1 0 0 0 0 1 0 0 0 1 0" color-interpolation-filters="sRGB"/></filter><mask id="b4b48610f7"><g filter="url(#bbb0a7773b)"><rect x="-102.45" width="1229.4" fill="#000000" y="-66.9" height="802.800002" fill-opacity="0.56"/></g></mask><clipPath id="72b16002b3"><path d="M 0.457031 0.34375 L 176.222656 0.34375 L 176.222656 169.589844 L 0.457031 169.589844 Z M 0.457031 0.34375 " clip-rule="nonzero"/></clipPath><clipPath id="330258368e"><rect x="0" width="177" y="0" height="170"/></clipPath></defs><g mask="url(#b4b48610f7)"><g transform="matrix(1, 0, 0, 1, 421, 249)"><g clip-path="url(#330258368e)"><g clip-path="url(#72b16002b3)"><path fill="#cc0000" d="M 17.117188 60.195312 L 75.800781 60.195312 C 77.3125 60.195312 78.519531 61.4375 78.519531 62.914062 C 78.519531 64.429688 77.28125 65.636719 75.800781 65.636719 L 17.117188 65.636719 C 13.5 65.566406 13.535156 60.230469 17.117188 60.195312 Z M 17.117188 87.492188 L 63.546875 87.492188 C 67.125 87.421875 67.160156 82.085938 63.546875 82.019531 C 63.546875 82.019531 17.117188 82.019531 17.117188 82.019531 C 13.535156 82.085938 13.5 87.421875 17.117188 87.492188 Z M 17.117188 109.3125 L 43.203125 109.3125 C 46.785156 109.242188 46.785156 103.910156 43.203125 103.839844 C 43.203125 103.839844 17.117188 103.839844 17.117188 103.839844 C 13.535156 103.910156 13.5 109.242188 17.117188 109.3125 Z M 63.511719 125.695312 L 17.117188 125.695312 C 13.535156 125.765625 13.5 131.097656 17.117188 131.167969 C 17.117188 131.167969 63.511719 131.167969 63.511719 131.167969 C 67.089844 131.097656 67.125 125.730469 63.511719 125.695312 Z M 160.710938 169.542969 C 156.476562 169.542969 152.414062 167.789062 149.523438 164.691406 C 149.523438 164.691406 128.871094 142.628906 128.871094 142.628906 C 124.914062 138.464844 116.480469 129.414062 112.488281 125.144531 L 112.488281 143.457031 C 112.488281 146.863281 109.703125 149.652344 106.292969 149.652344 L 102.714844 149.652344 L 102.714844 152.714844 C 109.046875 153.953125 113.867188 159.527344 113.867188 166.242188 C 113.867188 167.753906 112.628906 168.960938 111.148438 168.960938 L 21.867188 168.960938 C 20.351562 168.960938 19.144531 167.71875 19.144531 166.242188 C 19.007812 159.804688 24 153.816406 30.296875 152.714844 L 30.296875 149.652344 L 6.6875 149.652344 C 3.277344 149.652344 0.492188 146.863281 0.492188 143.457031 L 0.492188 25.847656 C 0.492188 25.125 0.800781 24.4375 1.28125 23.917969 L 24.066406 1.132812 C 24.585938 0.652344 25.273438 0.34375 25.996094 0.34375 L 106.226562 0.34375 C 109.632812 0.34375 112.421875 3.128906 112.421875 6.539062 L 112.421875 68.007812 C 112.421875 68.007812 125.121094 78.507812 125.121094 78.507812 C 134 86.046875 124.984375 100.054688 114.519531 95.132812 L 112.214844 97.917969 L 115.726562 100.8125 C 118.132812 102.808594 118.789062 106.109375 117.617188 108.832031 C 132.488281 118.398438 155.683594 132.613281 170.519531 142.457031 C 181.5 151.441406 174.925781 169.648438 160.710938 169.542969 Z M 107.980469 71.382812 C 107.1875 70.902344 94.144531 59.472656 93.421875 59.785156 C 88.636719 58.269531 85.332031 64.671875 89.464844 67.699219 C 89.464844 67.699219 115.726562 89.417969 115.726562 89.417969 C 117.617188 91.171875 120.648438 91.035156 122.265625 89.039062 C 123.847656 87.144531 123.574219 84.289062 121.679688 82.742188 C 121.644531 82.671875 107.980469 71.382812 107.980469 71.382812 Z M 110.113281 91.863281 L 88.085938 73.621094 C 85.230469 77.0625 71.117188 94.167969 67.953125 97.988281 L 89.980469 116.195312 C 92.492188 113.132812 107.222656 95.339844 110.113281 91.863281 Z M 88.742188 122.289062 C 88.742188 122.289062 62.167969 100.328125 62.167969 100.328125 C 57.523438 96.578125 51.914062 103.253906 56.386719 107.179688 C 56.386719 107.179688 83.128906 129.308594 83.128906 129.308594 C 85.675781 131.546875 90.082031 129.824219 90.425781 126.453125 C 90.667969 124.871094 89.945312 123.25 88.742188 122.289062 Z M 9.820312 23.09375 L 22.554688 23.09375 C 22.964844 23.09375 23.277344 22.75 23.277344 22.371094 L 23.277344 9.636719 Z M 99.996094 157.945312 L 33.050781 157.945312 C 29.539062 157.84375 26.167969 160.21875 25.066406 163.523438 L 107.945312 163.523438 C 106.8125 160.25 103.644531 157.910156 99.996094 157.945312 Z M 97.105469 147.722656 C 96.449219 145.175781 94.246094 143.457031 91.699219 143.457031 L 41.347656 143.457031 C 38.28125 143.421875 35.769531 146.035156 35.769531 149.03125 L 35.769531 152.472656 L 97.277344 152.472656 C 97.207031 151.542969 97.414062 148.582031 97.105469 147.722656 Z M 106.984375 121.015625 C 105.019531 121.910156 102.714844 121.804688 100.820312 120.773438 C 99.996094 120.359375 97.035156 117.777344 96.277344 117.160156 L 94.007812 119.914062 C 100.648438 129.515625 88.878906 140.667969 79.65625 133.472656 C 79.65625 133.472656 52.910156 111.378906 52.910156 111.378906 C 44.03125 103.875 53.046875 89.898438 63.546875 94.753906 C 65.75 92.101562 82.339844 72.035156 84.058594 69.9375 C 78.929688 63.121094 84.816406 52.898438 93.320312 54.171875 C 95.175781 54.414062 96.933594 55.136719 98.414062 56.375 L 106.984375 63.464844 L 106.984375 6.503906 C 106.984375 6.089844 106.636719 5.78125 106.226562 5.78125 L 28.75 5.78125 L 28.75 22.371094 C 28.75 25.777344 25.960938 28.566406 22.554688 28.566406 L 5.964844 28.566406 L 5.964844 143.457031 C 5.964844 143.867188 6.308594 144.210938 6.6875 144.210938 L 31.433594 144.210938 C 33.257812 140.496094 37.183594 137.984375 41.347656 138.015625 L 91.699219 138.015625 C 95.832031 138.015625 99.824219 140.496094 101.613281 144.210938 L 106.261719 144.210938 C 106.671875 144.210938 107.015625 143.867188 107.015625 143.457031 L 107.015625 121.015625 Z M 112.457031 106.9375 C 112.9375 106.351562 112.867188 105.457031 112.285156 104.976562 L 108.773438 102.085938 L 99.753906 112.960938 L 103.265625 115.851562 C 103.851562 116.332031 104.746094 116.265625 105.226562 115.679688 C 106.328125 114.335938 111.320312 108.28125 112.457031 106.9375 Z M 124.089844 129.550781 L 129.628906 122.839844 L 114.382812 113.167969 C 113.730469 113.957031 112.421875 115.542969 111.765625 116.332031 Z M 130.695312 136.605469 L 137.789062 128.035156 L 134.277344 125.796875 L 127.839844 133.578125 Z M 166.011719 145.863281 L 142.46875 130.960938 L 134.484375 140.632812 C 134.484375 140.632812 153.550781 160.972656 153.550781 160.972656 C 157.40625 165.3125 164.773438 165.070312 168.386719 160.527344 C 172.136719 155.984375 171 148.996094 166.011719 145.863281 Z M 59.417969 32.488281 C 60.550781 4.921875 99.824219 4.921875 100.960938 32.488281 C 100.960938 43.949219 91.632812 53.277344 80.171875 53.277344 C 68.710938 53.277344 59.417969 43.949219 59.417969 32.488281 Z M 64.890625 32.488281 C 65.644531 52.761719 94.765625 52.796875 95.519531 32.488281 C 95.519531 24.058594 88.636719 17.171875 80.203125 17.171875 C 71.773438 17.171875 64.890625 24.058594 64.890625 32.488281 Z M 75.488281 39.476562 C 76.558594 40.542969 78.277344 40.542969 79.34375 39.476562 L 89.429688 29.390625 C 91.90625 26.808594 88.15625 23.023438 85.574219 25.535156 C 85.574219 25.535156 77.417969 33.695312 77.417969 33.695312 L 74.835938 31.113281 C 72.253906 28.632812 68.46875 32.386719 70.980469 34.96875 C 70.980469 34.96875 75.488281 39.476562 75.488281 39.476562 Z M 75.488281 39.476562 " fill-opacity="1" fill-rule="nonzero"/></g></g></g></g></svg>