<svg xmlns="http://www.w3.org/2000/svg" xmlns:xlink="http://www.w3.org/1999/xlink" width="1366" zoomAndPan="magnify" viewBox="0 0 1024.5 529.499989" height="706" preserveAspectRatio="xMidYMid meet" version="1.0"><defs><clipPath id="48ae41c6c1"><path d="M 545 297 L 617.28125 297 L 617.28125 369.78125 L 545 369.78125 Z M 545 297 " clip-rule="nonzero"/></clipPath><clipPath id="e54e0a879b"><path d="M 406.730469 159.230469 L 617.28125 159.230469 L 617.28125 369.78125 L 406.730469 369.78125 Z M 406.730469 159.230469 " clip-rule="nonzero"/></clipPath></defs><g clip-path="url(#48ae41c6c1)"><path fill="#484b5d" d="M 594.050781 334.390625 C 593.429688 335.082031 592.566406 335.433594 591.703125 335.433594 C 590.949219 335.433594 590.195312 335.167969 589.589844 334.621094 L 584.433594 329.972656 L 584.433594 344.671875 C 584.433594 346.414062 583.019531 347.828125 581.273438 347.828125 C 579.53125 347.828125 578.117188 346.414062 578.117188 344.671875 L 578.117188 329.972656 L 572.957031 334.621094 C 571.660156 335.789062 569.660156 335.6875 568.496094 334.390625 C 567.328125 333.09375 567.429688 331.097656 568.726562 329.929688 L 579.160156 320.53125 C 580.359375 319.449219 582.1875 319.449219 583.386719 320.53125 L 593.820312 329.929688 C 595.117188 331.097656 595.21875 333.09375 594.050781 334.390625 Z M 581.273438 297.765625 C 561.417969 297.765625 545.265625 313.917969 545.265625 333.773438 C 545.265625 353.628906 561.417969 369.78125 581.273438 369.78125 C 601.128906 369.78125 617.28125 353.628906 617.28125 333.773438 C 617.28125 313.917969 601.128906 297.765625 581.273438 297.765625 " fill-opacity="1" fill-rule="nonzero"/></g><g clip-path="url(#e54e0a879b)"><path fill="#484b5d" d="M 512.007812 159.230469 C 483.886719 159.230469 457.449219 170.183594 437.566406 190.066406 C 417.683594 209.949219 406.730469 236.386719 406.730469 264.507812 C 406.730469 292.628906 417.683594 319.066406 437.566406 338.949219 C 457.449219 358.832031 483.886719 369.78125 512.007812 369.78125 C 525.296875 369.78125 538.140625 367.371094 550.308594 362.597656 C 543.265625 355.035156 538.949219 344.898438 538.949219 333.773438 C 538.949219 325.546875 541.308594 317.863281 545.386719 311.359375 C 539.5 308.398438 534.5625 305.855469 532.09375 304.066406 C 529.882812 302.460938 529.71875 301.109375 529.667969 300.664062 C 529.238281 297.097656 533.761719 291.769531 537.753906 287.070312 C 539.917969 284.527344 542.152344 281.894531 543.789062 279.363281 C 548.988281 271.3125 554.398438 255.425781 550.644531 225.425781 C 547.132812 197.382812 523.835938 189.972656 512.007812 189.972656 C 500.179688 189.972656 476.882812 197.382812 473.371094 225.425781 C 469.617188 255.425781 475.027344 271.3125 480.226562 279.363281 C 481.863281 281.894531 484.097656 284.527344 486.257812 287.070312 C 490.25 291.769531 494.773438 297.097656 494.347656 300.664062 C 494.292969 301.109375 494.132812 302.460938 491.921875 304.066406 C 489.105469 306.109375 483.066406 309.132812 476.078125 312.636719 C 467.347656 317.011719 456.488281 322.453125 447.824219 328.105469 C 445.382812 329.535156 443.0625 331.285156 440.898438 333.320312 C 422.929688 314.769531 413.046875 290.398438 413.046875 264.507812 C 413.046875 238.074219 423.34375 213.222656 442.035156 194.53125 C 460.722656 175.84375 485.574219 165.546875 512.007812 165.546875 C 538.441406 165.546875 563.292969 175.84375 581.984375 194.53125 C 600.671875 213.222656 610.964844 238.074219 610.964844 264.507812 C 610.964844 276.335938 608.925781 287.785156 604.902344 298.675781 C 606.742188 299.917969 608.476562 301.300781 610.097656 302.808594 C 614.871094 290.640625 617.28125 277.796875 617.28125 264.507812 C 617.28125 236.386719 606.332031 209.949219 586.449219 190.066406 C 566.566406 170.183594 540.128906 159.230469 512.007812 159.230469 " fill-opacity="1" fill-rule="nonzero"/></g></svg>