<svg xmlns="http://www.w3.org/2000/svg" xmlns:xlink="http://www.w3.org/1999/xlink" width="1366" zoomAndPan="magnify" viewBox="0 0 1024.5 529.499989" height="706" preserveAspectRatio="xMidYMid meet" version="1.0"><defs><clipPath id="ac789d1762"><path d="M 499.589844 251.027344 L 524.316406 251.027344 L 524.316406 278 L 499.589844 278 Z M 499.589844 251.027344 " clip-rule="nonzero"/></clipPath></defs><g clip-path="url(#ac789d1762)"><path fill="#e21726" d="M 513.371094 277.855469 L 510.558594 277.855469 C 510.167969 277.855469 509.855469 277.542969 509.855469 277.152344 L 509.855469 268.171875 L 502.046875 272.632812 C 501.710938 272.824219 501.285156 272.707031 501.089844 272.378906 L 499.683594 269.988281 C 499.589844 269.824219 499.5625 269.632812 499.613281 269.453125 C 499.660156 269.269531 499.777344 269.117188 499.9375 269.023438 L 507.746094 264.496094 L 499.9375 259.972656 C 499.777344 259.878906 499.660156 259.722656 499.609375 259.542969 C 499.5625 259.359375 499.589844 259.167969 499.683594 259.007812 L 501.089844 256.617188 C 501.285156 256.285156 501.710938 256.171875 502.046875 256.363281 L 509.855469 260.824219 L 509.855469 251.839844 C 509.855469 251.453125 510.167969 251.136719 510.558594 251.136719 L 513.371094 251.136719 C 513.757812 251.136719 514.074219 251.453125 514.074219 251.839844 L 514.074219 260.824219 L 521.878906 256.363281 C 522.214844 256.171875 522.640625 256.285156 522.835938 256.617188 L 524.242188 259.007812 C 524.335938 259.167969 524.363281 259.359375 524.3125 259.542969 C 524.265625 259.722656 524.148438 259.878906 523.988281 259.972656 L 516.179688 264.496094 L 523.988281 269.023438 C 524.148438 269.117188 524.265625 269.269531 524.3125 269.449219 C 524.363281 269.632812 524.335938 269.824219 524.242188 269.984375 L 522.835938 272.375 C 522.640625 272.707031 522.214844 272.824219 521.878906 272.628906 L 514.074219 268.171875 L 514.074219 277.152344 C 514.074219 277.542969 513.757812 277.855469 513.371094 277.855469 Z M 513.371094 277.855469 " fill-opacity="1" fill-rule="nonzero"/></g></svg>