<svg xmlns="http://www.w3.org/2000/svg" xmlns:xlink="http://www.w3.org/1999/xlink" width="1366" zoomAndPan="magnify" viewBox="0 0 1024.5 529.499989" height="706" preserveAspectRatio="xMidYMid meet" version="1.0"><defs><clipPath id="a02dcf3afe"><path d="M 460.5 213 L 563.152344 213 L 563.152344 315.652344 L 460.5 315.652344 Z M 460.5 213 " clip-rule="nonzero"/></clipPath></defs><g clip-path="url(#a02dcf3afe)"><path fill="#39b54a" d="M 511.824219 213 C 483.480469 213 460.5 235.980469 460.5 264.324219 C 460.5 292.667969 483.480469 315.652344 511.824219 315.652344 C 540.167969 315.652344 563.152344 292.667969 563.152344 264.324219 C 563.152344 235.980469 540.167969 213 511.824219 213 Z M 540.710938 256.402344 L 510.679688 286.433594 C 509.234375 287.878906 507.277344 288.691406 505.226562 288.691406 C 503.210938 288.691406 501.253906 287.878906 499.804688 286.433594 L 484.804688 271.433594 C 481.792969 268.421875 481.792969 263.570312 484.804688 260.558594 C 487.816406 257.578125 492.636719 257.578125 495.648438 260.558594 L 505.226562 270.167969 L 529.835938 245.558594 C 532.847656 242.546875 537.699219 242.546875 540.710938 245.558594 C 543.691406 248.542969 543.691406 253.390625 540.710938 256.402344 Z M 540.710938 256.402344 " fill-opacity="1" fill-rule="nonzero"/></g><path fill="#ffffff" d="M 540.710938 256.402344 L 510.679688 286.433594 C 509.234375 287.878906 507.277344 288.691406 505.226562 288.691406 C 503.210938 288.691406 501.253906 287.878906 499.804688 286.433594 L 484.804688 271.433594 C 481.792969 268.421875 481.792969 263.570312 484.804688 260.558594 C 487.816406 257.578125 492.636719 257.578125 495.648438 260.558594 L 505.226562 270.167969 L 529.835938 245.558594 C 532.847656 242.546875 537.699219 242.546875 540.710938 245.558594 C 543.691406 248.542969 543.691406 253.390625 540.710938 256.402344 Z M 540.710938 256.402344 " fill-opacity="1" fill-rule="nonzero"/></svg>