<svg xmlns="http://www.w3.org/2000/svg" xmlns:xlink="http://www.w3.org/1999/xlink" width="1366" zoomAndPan="magnify" viewBox="0 0 1024.5 529.499989" height="706" preserveAspectRatio="xMidYMid meet" version="1.0"><defs><clipPath id="3d5a05d05a"><path d="M 437.261719 189.761719 L 586.371094 189.761719 L 586.371094 338.871094 L 437.261719 338.871094 Z M 437.261719 189.761719 " clip-rule="nonzero"/></clipPath></defs><g clip-path="url(#3d5a05d05a)"><path fill="#e21726" d="M 586.375 264.320312 C 586.375 223.140625 552.996094 189.761719 511.820312 189.761719 C 470.640625 189.761719 437.261719 223.140625 437.261719 264.320312 C 437.261719 305.496094 470.640625 338.875 511.820312 338.875 C 552.996094 338.875 586.375 305.496094 586.375 264.320312 " fill-opacity="1" fill-rule="nonzero"/></g><path fill="#ffffff" d="M 511.820312 288.246094 C 507.121094 288.246094 503.222656 284.628906 502.871094 279.941406 L 498.152344 216.917969 C 497.832031 212.648438 501.210938 209.003906 505.496094 209.003906 L 518.140625 209.003906 C 522.425781 209.003906 525.804688 212.648438 525.484375 216.917969 L 520.765625 279.941406 C 520.417969 284.628906 516.515625 288.246094 511.820312 288.246094 " fill-opacity="1" fill-rule="nonzero"/><path fill="#ffffff" d="M 523.371094 308.078125 C 523.371094 301.699219 518.199219 296.527344 511.820312 296.527344 C 505.4375 296.527344 500.265625 301.699219 500.265625 308.078125 C 500.265625 314.460938 505.4375 319.632812 511.820312 319.632812 C 518.199219 319.632812 523.371094 314.460938 523.371094 308.078125 " fill-opacity="1" fill-rule="nonzero"/></svg>