<svg xmlns="http://www.w3.org/2000/svg" xmlns:xlink="http://www.w3.org/1999/xlink" width="1366" zoomAndPan="magnify" viewBox="0 0 1024.5 529.499989" height="706" preserveAspectRatio="xMidYMid meet" version="1.0"><defs><filter x="0%" y="0%" width="100%" height="100%" id="7f77e5724a"><feColorMatrix values="0 0 0 0 1 0 0 0 0 1 0 0 0 0 1 0 0 0 1 0" color-interpolation-filters="sRGB"/></filter><mask id="a916681007"><g filter="url(#7f77e5724a)"><rect x="-102.45" width="1229.4" fill="#000000" y="-52.949999" height="635.399987" fill-opacity="0.7"/></g></mask><clipPath id="fe7115b7e4"><path d="M 0.0820312 0.582031 L 159.679688 0.582031 L 159.679688 160.179688 L 0.0820312 160.179688 Z M 0.0820312 0.582031 " clip-rule="nonzero"/></clipPath><clipPath id="e527c92158"><rect x="0" width="161" y="0" height="161"/></clipPath></defs><g mask="url(#a916681007)"><g transform="matrix(1, 0, 0, 1, 432, 184)"><g clip-path="url(#e527c92158)"><g clip-path="url(#fe7115b7e4)"><path fill="#3055ff" d="M 136.503906 23.988281 C 121.410156 8.894531 101.34375 0.582031 79.996094 0.582031 C 58.648438 0.582031 38.582031 8.894531 23.488281 23.988281 C 8.394531 39.082031 0.0820312 59.148438 0.0820312 80.496094 C 0.0820312 101.84375 8.394531 121.910156 23.488281 137.003906 C 38.582031 152.097656 58.648438 160.410156 79.996094 160.410156 C 101.34375 160.410156 121.410156 152.097656 136.503906 137.003906 C 151.597656 121.910156 159.910156 101.84375 159.910156 80.496094 C 159.910156 59.148438 151.597656 39.082031 136.503906 23.988281 Z M 27.113281 27.613281 C 41.238281 13.488281 60.019531 5.710938 79.996094 5.710938 C 99.972656 5.710938 118.753906 13.488281 132.878906 27.613281 C 147.003906 41.738281 154.78125 60.519531 154.78125 80.496094 C 154.78125 97.101562 149.402344 112.878906 139.472656 125.847656 C 131.574219 114.796875 118.957031 108.269531 105.253906 108.269531 L 54.738281 108.269531 C 41.035156 108.269531 28.417969 114.796875 20.519531 125.847656 C 10.589844 112.878906 5.210938 97.101562 5.210938 80.496094 C 5.210938 60.519531 12.988281 41.738281 27.113281 27.613281 Z M 79.996094 104.058594 C 100.527344 104.058594 117.234375 87.351562 117.234375 66.820312 C 117.234375 46.289062 100.527344 29.582031 79.996094 29.582031 C 59.464844 29.582031 42.757812 46.289062 42.757812 66.820312 C 42.757812 87.351562 59.464844 104.058594 79.996094 104.058594 Z M 79.996094 104.058594 " fill-opacity="1" fill-rule="nonzero"/></g></g></g></g></svg>