<svg xmlns="http://www.w3.org/2000/svg" xmlns:xlink="http://www.w3.org/1999/xlink" width="1366" zoomAndPan="magnify" viewBox="0 0 1024.5 529.499989" height="706" preserveAspectRatio="xMidYMid meet" version="1.0"><defs><clipPath id="f17f00cd2a"><path d="M 410.316406 162.816406 L 613.375 162.816406 L 613.375 365.875 L 410.316406 365.875 Z M 410.316406 162.816406 " clip-rule="nonzero"/></clipPath></defs><g clip-path="url(#f17f00cd2a)"><path fill="#969297" d="M 613.675781 264.496094 C 613.675781 266.160156 613.636719 267.824219 613.554688 269.484375 C 613.472656 271.148438 613.351562 272.808594 613.1875 274.460938 C 613.023438 276.117188 612.820312 277.769531 612.578125 279.417969 C 612.332031 281.0625 612.046875 282.703125 611.722656 284.332031 C 611.398438 285.964844 611.035156 287.589844 610.628906 289.203125 C 610.226562 290.816406 609.78125 292.421875 609.300781 294.011719 C 608.816406 295.605469 608.292969 297.183594 607.734375 298.75 C 607.171875 300.320312 606.574219 301.871094 605.9375 303.40625 C 605.300781 304.945312 604.625 306.464844 603.914062 307.96875 C 603.203125 309.476562 602.457031 310.960938 601.671875 312.429688 C 600.886719 313.894531 600.066406 315.34375 599.210938 316.769531 C 598.355469 318.199219 597.464844 319.605469 596.542969 320.988281 C 595.617188 322.371094 594.660156 323.730469 593.667969 325.066406 C 592.675781 326.40625 591.652344 327.714844 590.597656 329.003906 C 589.542969 330.289062 588.453125 331.546875 587.335938 332.78125 C 586.21875 334.015625 585.074219 335.21875 583.894531 336.394531 C 582.71875 337.574219 581.515625 338.71875 580.28125 339.835938 C 579.046875 340.953125 577.789062 342.042969 576.503906 343.097656 C 575.214844 344.152344 573.90625 345.175781 572.566406 346.167969 C 571.230469 347.160156 569.871094 348.117188 568.488281 349.042969 C 567.105469 349.964844 565.699219 350.855469 564.269531 351.710938 C 562.84375 352.566406 561.394531 353.386719 559.929688 354.171875 C 558.460938 354.957031 556.976562 355.703125 555.46875 356.414062 C 553.964844 357.125 552.445312 357.800781 550.90625 358.4375 C 549.371094 359.074219 547.820312 359.671875 546.25 360.234375 C 544.683594 360.792969 543.105469 361.316406 541.511719 361.800781 C 539.921875 362.28125 538.316406 362.726562 536.703125 363.128906 C 535.089844 363.535156 533.464844 363.898438 531.832031 364.222656 C 530.203125 364.546875 528.5625 364.832031 526.917969 365.078125 C 525.269531 365.320312 523.617188 365.523438 521.960938 365.6875 C 520.308594 365.851562 518.648438 365.972656 516.984375 366.054688 C 515.324219 366.136719 513.660156 366.175781 511.996094 366.175781 C 510.332031 366.175781 508.667969 366.136719 507.007812 366.054688 C 505.34375 365.972656 503.6875 365.851562 502.03125 365.6875 C 500.375 365.523438 498.722656 365.320312 497.078125 365.078125 C 495.429688 364.832031 493.792969 364.546875 492.160156 364.222656 C 490.527344 363.898438 488.902344 363.535156 487.289062 363.128906 C 485.675781 362.726562 484.070312 362.28125 482.480469 361.800781 C 480.886719 361.316406 479.308594 360.792969 477.742188 360.234375 C 476.175781 359.671875 474.621094 359.074219 473.085938 358.4375 C 471.546875 357.800781 470.027344 357.125 468.523438 356.414062 C 467.019531 355.703125 465.53125 354.957031 464.0625 354.171875 C 462.597656 353.386719 461.148438 352.566406 459.722656 351.710938 C 458.292969 350.855469 456.890625 349.964844 455.503906 349.042969 C 454.121094 348.117188 452.761719 347.160156 451.425781 346.167969 C 450.089844 345.175781 448.777344 344.152344 447.492188 343.097656 C 446.203125 342.042969 444.945312 340.953125 443.710938 339.835938 C 442.476562 338.71875 441.273438 337.574219 440.097656 336.394531 C 438.921875 335.21875 437.773438 334.015625 436.65625 332.78125 C 435.539062 331.546875 434.453125 330.289062 433.394531 329.003906 C 432.339844 327.714844 431.316406 326.40625 430.324219 325.066406 C 429.332031 323.730469 428.375 322.371094 427.453125 320.988281 C 426.527344 319.605469 425.636719 318.199219 424.78125 316.769531 C 423.925781 315.34375 423.105469 313.894531 422.320312 312.429688 C 421.535156 310.960938 420.789062 309.476562 420.078125 307.96875 C 419.367188 306.464844 418.691406 304.945312 418.054688 303.40625 C 417.417969 301.871094 416.820312 300.320312 416.257812 298.75 C 415.699219 297.183594 415.175781 295.605469 414.695312 294.011719 C 414.210938 292.421875 413.765625 290.816406 413.363281 289.203125 C 412.957031 287.589844 412.59375 285.964844 412.269531 284.332031 C 411.945312 282.703125 411.660156 281.0625 411.414062 279.417969 C 411.171875 277.769531 410.96875 276.117188 410.804688 274.460938 C 410.640625 272.808594 410.519531 271.148438 410.4375 269.484375 C 410.355469 267.824219 410.316406 266.160156 410.316406 264.496094 C 410.316406 262.832031 410.355469 261.167969 410.4375 259.507812 C 410.519531 257.84375 410.640625 256.1875 410.804688 254.53125 C 410.96875 252.875 411.171875 251.222656 411.414062 249.578125 C 411.660156 247.929688 411.945312 246.292969 412.269531 244.660156 C 412.59375 243.027344 412.957031 241.402344 413.363281 239.789062 C 413.765625 238.175781 414.210938 236.570312 414.695312 234.980469 C 415.175781 233.386719 415.699219 231.808594 416.257812 230.242188 C 416.820312 228.675781 417.417969 227.121094 418.054688 225.585938 C 418.691406 224.046875 419.367188 222.527344 420.078125 221.023438 C 420.789062 219.519531 421.535156 218.03125 422.320312 216.5625 C 423.105469 215.097656 423.925781 213.648438 424.78125 212.222656 C 425.636719 210.792969 426.527344 209.390625 427.453125 208.003906 C 428.375 206.621094 429.332031 205.261719 430.324219 203.925781 C 431.316406 202.589844 432.339844 201.277344 433.394531 199.992188 C 434.453125 198.703125 435.539062 197.445312 436.65625 196.210938 C 437.773438 194.976562 438.921875 193.773438 440.097656 192.597656 C 441.273438 191.421875 442.476562 190.273438 443.710938 189.15625 C 444.945312 188.039062 446.203125 186.953125 447.492188 185.894531 C 448.777344 184.839844 450.089844 183.816406 451.425781 182.824219 C 452.761719 181.832031 454.121094 180.875 455.503906 179.953125 C 456.890625 179.027344 458.292969 178.136719 459.722656 177.28125 C 461.148438 176.425781 462.597656 175.605469 464.0625 174.820312 C 465.53125 174.035156 467.019531 173.289062 468.523438 172.578125 C 470.027344 171.867188 471.546875 171.191406 473.085938 170.554688 C 474.621094 169.917969 476.175781 169.320312 477.742188 168.757812 C 479.308594 168.199219 480.886719 167.675781 482.480469 167.195312 C 484.070312 166.710938 485.675781 166.265625 487.289062 165.863281 C 488.902344 165.457031 490.527344 165.09375 492.160156 164.769531 C 493.792969 164.445312 495.429688 164.160156 497.078125 163.914062 C 498.722656 163.671875 500.375 163.46875 502.03125 163.304688 C 503.6875 163.140625 505.34375 163.019531 507.007812 162.9375 C 508.667969 162.855469 510.332031 162.816406 511.996094 162.816406 C 513.660156 162.816406 515.324219 162.855469 516.984375 162.9375 C 518.648438 163.019531 520.308594 163.140625 521.960938 163.304688 C 523.617188 163.46875 525.269531 163.671875 526.917969 163.914062 C 528.5625 164.160156 530.203125 164.445312 531.832031 164.769531 C 533.464844 165.09375 535.089844 165.457031 536.703125 165.863281 C 538.316406 166.265625 539.921875 166.710938 541.511719 167.195312 C 543.105469 167.675781 544.683594 168.199219 546.25 168.757812 C 547.820312 169.320312 549.371094 169.917969 550.90625 170.554688 C 552.445312 171.191406 553.964844 171.867188 555.46875 172.578125 C 556.976562 173.289062 558.460938 174.035156 559.929688 174.820312 C 561.394531 175.605469 562.84375 176.425781 564.269531 177.28125 C 565.699219 178.136719 567.105469 179.027344 568.488281 179.953125 C 569.871094 180.875 571.230469 181.832031 572.566406 182.824219 C 573.90625 183.816406 575.214844 184.839844 576.503906 185.894531 C 577.789062 186.953125 579.046875 188.039062 580.28125 189.15625 C 581.515625 190.273438 582.71875 191.421875 583.894531 192.597656 C 585.074219 193.773438 586.21875 194.976562 587.335938 196.210938 C 588.453125 197.445312 589.542969 198.703125 590.597656 199.992188 C 591.652344 201.277344 592.675781 202.589844 593.667969 203.925781 C 594.660156 205.261719 595.617188 206.621094 596.542969 208.003906 C 597.464844 209.390625 598.355469 210.792969 599.210938 212.222656 C 600.066406 213.648438 600.886719 215.097656 601.671875 216.5625 C 602.457031 218.03125 603.203125 219.519531 603.914062 221.023438 C 604.625 222.527344 605.300781 224.046875 605.9375 225.585938 C 606.574219 227.121094 607.171875 228.675781 607.734375 230.242188 C 608.292969 231.808594 608.816406 233.386719 609.300781 234.980469 C 609.78125 236.570312 610.226562 238.175781 610.628906 239.789062 C 611.035156 241.402344 611.398438 243.027344 611.722656 244.660156 C 612.046875 246.292969 612.332031 247.929688 612.578125 249.578125 C 612.820312 251.222656 613.023438 252.875 613.1875 254.53125 C 613.351562 256.1875 613.472656 257.84375 613.554688 259.507812 C 613.636719 261.167969 613.675781 262.832031 613.675781 264.496094 Z M 613.675781 264.496094 " fill-opacity="1" fill-rule="nonzero"/></g><path fill="#fefefe" d="M 548.382812 329.5625 C 540.832031 329.5625 533.507812 326.589844 528.089844 321.171875 C 520.769531 313.847656 517.945312 303.324219 520.617188 293.40625 L 515.65625 288.371094 L 535.871094 268.15625 L 540.90625 273.117188 C 550.824219 270.445312 561.347656 273.269531 568.671875 280.515625 C 576.070312 287.992188 578.816406 298.824219 575.917969 308.890625 C 575.613281 310.035156 574.164062 310.417969 573.324219 309.578125 L 560.207031 296.382812 L 543.882812 312.628906 L 557.078125 325.824219 C 557.917969 326.664062 557.535156 328.039062 556.390625 328.417969 C 553.722656 329.183594 551.050781 329.5625 548.382812 329.5625 Z M 489.113281 261.902344 L 483.164062 255.875 C 473.246094 258.546875 462.644531 255.722656 455.398438 248.476562 C 447.996094 241.078125 445.175781 230.171875 448.148438 220.101562 C 448.453125 219.035156 449.90625 218.652344 450.667969 219.492188 L 463.863281 232.609375 L 480.109375 216.363281 L 466.992188 203.167969 C 466.152344 202.40625 466.535156 200.953125 467.601562 200.648438 C 477.671875 197.675781 488.578125 200.496094 495.976562 207.898438 C 503.222656 215.144531 506.046875 225.746094 503.375 235.664062 L 509.402344 241.613281 Z M 489.113281 261.902344 " fill-opacity="1" fill-rule="evenodd"/><path fill="#fefefe" d="M 479.804688 319.953125 C 479.425781 319.953125 479.042969 319.800781 478.738281 319.496094 L 469.507812 310.265625 L 547.160156 232.535156 L 556.390625 241.839844 C 556.773438 242.222656 557.230469 242.527344 557.765625 242.679688 L 480.949219 319.496094 C 480.644531 319.800781 480.265625 319.953125 479.804688 319.953125 Z M 467.296875 308.050781 L 457.988281 298.746094 C 457.378906 298.136719 457.378906 297.21875 457.988281 296.609375 L 534.804688 219.796875 C 535.03125 220.253906 535.261719 220.710938 535.71875 221.09375 L 544.949219 230.398438 Z M 467.296875 308.050781 " fill-opacity="1" fill-rule="evenodd"/><path fill="#fefefe" d="M 450.742188 328.34375 C 449.675781 328.34375 448.988281 327.351562 449.21875 326.359375 L 452.421875 315.375 L 462.109375 325.0625 Z M 453.414062 311.941406 L 456.539062 300.882812 L 476.601562 320.945312 L 465.542969 324.148438 Z M 453.414062 311.941406 " fill-opacity="1" fill-rule="evenodd"/><path fill="#fefefe" d="M 559.289062 240.46875 C 558.910156 240.46875 558.527344 240.316406 558.222656 240.011719 L 537.472656 219.261719 C 536.863281 218.726562 536.863281 217.738281 537.472656 217.125 L 546.933594 207.667969 C 550.746094 203.855469 557 203.855469 560.816406 207.667969 L 569.894531 216.667969 C 573.707031 220.484375 573.707031 226.738281 569.894531 230.550781 L 560.433594 240.011719 C 560.128906 240.316406 559.746094 240.46875 559.289062 240.46875 Z M 559.289062 240.46875 " fill-opacity="1" fill-rule="evenodd"/></svg>