<svg xmlns="http://www.w3.org/2000/svg" xmlns:xlink="http://www.w3.org/1999/xlink" width="1366" zoomAndPan="magnify" viewBox="0 0 1024.5 529.499989" height="706" preserveAspectRatio="xMidYMid meet" version="1.0"><defs><clipPath id="09813096d2"><path d="M 438.46875 258 L 585.328125 258 L 585.328125 331.234375 L 438.46875 331.234375 Z M 438.46875 258 " clip-rule="nonzero"/></clipPath><clipPath id="9cb1e4f479"><path d="M 438.46875 197.863281 L 585.328125 197.863281 L 585.328125 259 L 438.46875 259 Z M 438.46875 197.863281 " clip-rule="nonzero"/></clipPath></defs><g clip-path="url(#09813096d2)"><path fill="#969297" d="M 585.484375 316.597656 L 585.484375 258.890625 C 584.703125 259.65625 583.855469 260.386719 582.988281 261.054688 C 582.191406 261.667969 581.359375 262.234375 580.496094 262.765625 C 577.652344 264.496094 574.492188 265.675781 571.183594 266.191406 C 566.726562 266.875 562.121094 266.609375 557.613281 266.609375 L 525.75 266.609375 C 525.632812 266.609375 525.519531 266.609375 525.402344 266.589844 L 525.402344 268.652344 C 525.402344 268.902344 525.417969 269.136719 525.402344 269.386719 C 525.335938 270.730469 524.335938 271.730469 522.988281 271.796875 C 520.613281 271.914062 518.199219 271.796875 515.804688 271.796875 L 504.199219 271.796875 C 503.183594 271.796875 502.171875 271.8125 501.15625 271.796875 C 499.640625 271.761719 498.59375 270.75 498.578125 269.21875 C 498.5625 268.355469 498.5625 267.472656 498.5625 266.609375 C 498.460938 266.625 498.34375 266.625 498.246094 266.625 C 498.179688 266.625 498.097656 266.625 498.03125 266.625 C 493.507812 266.691406 488.964844 266.625 484.441406 266.625 L 464.238281 266.625 C 459.25 266.625 454.144531 266.941406 449.320312 265.394531 C 447.308594 264.746094 445.347656 263.863281 443.5 262.78125 C 442.636719 262.265625 441.804688 261.71875 441.007812 261.121094 C 440.125 260.453125 439.292969 259.738281 438.511719 258.976562 L 438.511719 321.867188 C 438.511719 322.332031 438.496094 322.800781 438.527344 323.265625 C 438.863281 327.65625 442.4375 331.046875 446.84375 331.113281 C 447.925781 331.128906 448.988281 331.113281 450.070312 331.113281 L 572.644531 331.113281 C 574.074219 331.113281 575.523438 331.113281 576.953125 331.113281 C 581.808594 331.097656 585.46875 327.273438 585.484375 322.464844 C 585.484375 320.472656 585.484375 318.542969 585.484375 316.597656 Z M 585.484375 316.597656 " fill-opacity="1" fill-rule="nonzero"/></g><g clip-path="url(#9cb1e4f479)"><path fill="#969297" d="M 585.449219 233.164062 L 585.449219 227.445312 C 585.132812 223.089844 581.574219 219.664062 577.152344 219.597656 C 576.851562 219.597656 576.570312 219.597656 576.269531 219.597656 L 540.617188 219.597656 L 540.617188 207.175781 C 540.617188 204.644531 539.902344 202.25 538.074219 200.421875 C 536.359375 198.691406 534.046875 197.894531 531.636719 197.878906 C 529.460938 197.878906 527.296875 197.878906 525.117188 197.878906 L 493.273438 197.878906 C 492.859375 197.878906 492.441406 197.863281 492.042969 197.878906 C 487.269531 197.976562 483.511719 201.753906 483.394531 206.527344 C 483.296875 210.867188 483.34375 215.238281 483.378906 219.597656 L 448.625 219.597656 C 448.109375 219.597656 447.609375 219.597656 447.09375 219.597656 C 444.863281 219.597656 442.785156 220.359375 441.140625 221.890625 C 439.542969 223.386719 438.695312 225.433594 438.5625 227.578125 L 438.5625 235.644531 C 438.5625 236.808594 438.5625 237.957031 438.5625 239.121094 C 438.5625 239.617188 438.5625 240.101562 438.59375 240.597656 C 438.613281 240.949219 438.644531 241.28125 438.679688 241.628906 C 438.679688 241.679688 438.695312 241.730469 438.695312 241.78125 C 438.777344 242.261719 438.84375 242.746094 438.945312 243.210938 C 439.195312 244.375 439.558594 245.523438 439.976562 246.636719 C 439.976562 246.652344 439.976562 246.652344 439.992188 246.667969 C 439.992188 246.6875 439.992188 246.6875 440.007812 246.703125 C 440.027344 246.734375 440.027344 246.753906 440.042969 246.785156 C 440.140625 247.019531 440.257812 247.25 440.375 247.484375 C 440.589844 247.917969 440.808594 248.332031 441.039062 248.746094 C 441.074219 248.8125 441.105469 248.878906 441.15625 248.929688 C 441.472656 249.460938 441.804688 249.996094 442.171875 250.492188 C 442.320312 250.710938 442.488281 250.894531 442.621094 251.109375 C 442.601562 251.074219 442.585938 251.042969 442.570312 251.007812 C 442.601562 251.058594 442.621094 251.09375 442.652344 251.125 C 442.9375 251.476562 443.234375 251.824219 443.550781 252.15625 C 444.035156 252.671875 444.550781 253.171875 445.082031 253.652344 C 445.296875 253.851562 445.511719 254.035156 445.746094 254.21875 C 445.78125 254.253906 445.828125 254.285156 445.878906 254.320312 C 446.160156 254.5 446.277344 254.566406 446.296875 254.585938 C 446.277344 254.585938 446.195312 254.519531 446.078125 254.453125 C 446.429688 254.683594 446.761719 254.949219 447.109375 255.183594 C 448.042969 255.78125 449.003906 256.3125 450.003906 256.78125 C 450.96875 257.078125 450.453125 256.960938 450.136719 256.847656 C 450.167969 256.863281 450.1875 256.863281 450.21875 256.878906 C 450.503906 256.980469 450.769531 257.097656 451.050781 257.179688 C 451.582031 257.363281 452.117188 257.527344 452.648438 257.679688 C 453.230469 257.828125 453.8125 257.960938 454.410156 258.078125 C 454.609375 258.109375 454.808594 258.144531 455.007812 258.175781 C 455.125 258.195312 455.242188 258.195312 455.339844 258.210938 C 456.820312 258.34375 458.316406 258.308594 459.796875 258.308594 L 498.296875 258.308594 C 498.410156 258.308594 498.527344 258.308594 498.644531 258.328125 L 498.644531 254.320312 C 498.644531 253.15625 498.476562 251.90625 499.425781 251.042969 C 500.242188 250.292969 501.304688 250.410156 502.320312 250.410156 L 522.441406 250.410156 C 522.640625 250.410156 522.855469 250.410156 523.058594 250.410156 C 524.355469 250.476562 525.269531 251.375 525.433594 252.621094 C 525.453125 252.6875 525.453125 252.753906 525.453125 252.820312 C 525.453125 252.855469 525.453125 252.886719 525.453125 252.921875 L 525.453125 258.34375 C 525.566406 258.328125 525.683594 258.328125 525.800781 258.328125 L 526.015625 258.328125 C 530.421875 258.242188 534.832031 258.328125 539.21875 258.328125 L 566.625 258.328125 C 567.339844 258.328125 568.039062 258.292969 568.753906 258.226562 C 568.886719 258.210938 569.039062 258.195312 569.171875 258.175781 C 569.335938 258.144531 569.519531 258.125 569.6875 258.09375 C 570.269531 257.976562 570.867188 257.859375 571.449219 257.695312 C 572.03125 257.542969 572.597656 257.363281 573.160156 257.164062 C 573.425781 257.0625 573.675781 256.960938 573.941406 256.863281 C 574.972656 256.378906 575.953125 255.867188 576.902344 255.25 C 577.21875 255.050781 577.519531 254.851562 577.816406 254.632812 C 577.902344 254.566406 578.167969 254.367188 578.28125 254.285156 C 578.28125 254.285156 578.300781 254.269531 578.300781 254.269531 C 578.316406 254.253906 578.351562 254.234375 578.351562 254.21875 C 578.582031 254.035156 578.796875 253.835938 579.015625 253.652344 C 579.546875 253.1875 580.046875 252.6875 580.542969 252.15625 C 580.859375 251.824219 581.160156 251.492188 581.441406 251.125 C 581.460938 251.09375 581.492188 251.074219 581.507812 251.042969 C 581.640625 250.828125 581.824219 250.609375 581.976562 250.410156 C 582.289062 249.960938 582.589844 249.496094 582.855469 249.03125 C 582.90625 248.929688 582.972656 248.832031 583.023438 248.746094 C 583.273438 248.296875 583.519531 247.851562 583.738281 247.382812 C 583.835938 247.167969 583.953125 246.933594 584.054688 246.71875 C 584.46875 245.621094 584.835938 244.507812 585.085938 243.34375 C 585.167969 242.976562 585.234375 242.59375 585.300781 242.230469 C 585.300781 242.230469 585.300781 242.210938 585.300781 242.210938 C 585.300781 242.210938 585.300781 242.195312 585.300781 242.195312 C 585.300781 242.179688 585.300781 242.164062 585.300781 242.144531 C 585.300781 242.128906 585.300781 242.113281 585.316406 242.097656 C 585.335938 241.929688 585.367188 241.714844 585.382812 241.582031 C 585.417969 241.28125 585.433594 240.964844 585.449219 240.664062 C 585.46875 240.183594 585.484375 239.703125 585.5 239.21875 L 585.5 235.925781 C 585.46875 234.945312 585.449219 234.0625 585.449219 233.164062 Z M 532.351562 206.59375 C 532.351562 206.609375 532.351562 206.625 532.371094 206.625 C 532.371094 206.625 532.371094 206.640625 532.371094 206.640625 C 532.386719 206.726562 532.402344 206.773438 532.371094 206.691406 C 532.351562 206.707031 532.320312 206.675781 532.300781 206.640625 C 532.386719 210.964844 532.351562 215.289062 532.320312 219.613281 L 491.695312 219.613281 L 491.695312 207.523438 C 491.695312 207.242188 491.695312 206.941406 491.695312 206.660156 C 491.644531 206.726562 491.609375 206.742188 491.59375 206.726562 C 491.558594 206.773438 491.558594 206.675781 491.578125 206.558594 C 491.492188 206.660156 491.445312 206.675781 491.578125 206.527344 C 491.578125 206.460938 491.59375 206.410156 491.609375 206.34375 C 491.609375 206.34375 491.609375 206.34375 491.59375 206.34375 C 491.59375 206.34375 491.59375 206.34375 491.609375 206.34375 C 491.628906 206.308594 491.628906 206.257812 491.644531 206.226562 C 491.527344 206.226562 491.558594 206.191406 491.660156 206.175781 C 491.675781 206.09375 491.710938 206.058594 491.710938 206.160156 C 491.742188 206.160156 491.777344 206.144531 491.828125 206.144531 C 491.828125 206.125 491.828125 206.125 491.828125 206.109375 C 491.828125 206.109375 491.828125 206.125 491.828125 206.125 C 491.894531 206.109375 491.941406 206.109375 492.007812 206.09375 C 492.074219 206.027344 492.109375 206.011719 492.125 205.992188 C 492.109375 206.011719 492.074219 206.042969 492.027344 206.09375 C 492.160156 206.078125 492.257812 206.078125 492.210938 206.109375 C 492.226562 206.125 492.210938 206.160156 492.140625 206.210938 C 492.277344 206.210938 492.410156 206.210938 492.542969 206.210938 L 530.472656 206.210938 C 530.972656 206.210938 531.453125 206.191406 531.953125 206.210938 C 531.921875 206.191406 531.902344 206.191406 531.886719 206.175781 C 531.769531 206.109375 531.804688 206.09375 531.886719 206.078125 C 531.835938 206.042969 531.855469 206.042969 531.902344 206.078125 C 531.921875 206.078125 531.953125 206.078125 531.96875 206.078125 C 531.902344 206.027344 531.871094 205.992188 531.855469 205.976562 C 531.855469 205.976562 531.902344 206.011719 531.988281 206.078125 C 532.054688 206.078125 532.121094 206.09375 532.1875 206.09375 C 532.21875 206.09375 532.234375 206.109375 532.269531 206.109375 C 532.269531 206.078125 532.269531 206.058594 532.285156 206.058594 C 532.285156 206.058594 532.300781 206.078125 532.300781 206.109375 C 532.453125 206.144531 532.519531 206.175781 532.300781 206.191406 C 532.300781 206.226562 532.300781 206.242188 532.300781 206.277344 C 532.351562 206.292969 532.386719 206.308594 532.402344 206.308594 C 532.386719 206.308594 532.335938 206.308594 532.300781 206.292969 L 532.300781 206.308594 C 532.320312 206.324219 532.351562 206.34375 532.386719 206.375 C 532.371094 206.375 532.351562 206.359375 532.320312 206.34375 C 532.320312 206.375 532.335938 206.390625 532.335938 206.425781 C 532.386719 206.492188 532.453125 206.558594 532.503906 206.59375 C 532.453125 206.558594 532.402344 206.507812 532.351562 206.476562 C 532.351562 206.542969 532.351562 206.558594 532.351562 206.59375 Z M 532.351562 206.59375 " fill-opacity="1" fill-rule="nonzero"/></g></svg>