<svg xmlns="http://www.w3.org/2000/svg" xmlns:xlink="http://www.w3.org/1999/xlink" width="1366" zoomAndPan="magnify" viewBox="0 0 1024.5 529.499989" height="706" preserveAspectRatio="xMidYMid meet" version="1.0"><defs><clipPath id="229e0fe955"><path d="M 384.828125 147.980469 L 638.839844 147.980469 L 638.839844 381.007812 L 384.828125 381.007812 Z M 384.828125 147.980469 " clip-rule="nonzero"/></clipPath></defs><g clip-path="url(#229e0fe955)"><path fill="#969297" d="M 612.628906 147.980469 L 411.367188 147.980469 C 396.769531 147.980469 384.882812 159.863281 384.882812 174.460938 L 384.882812 354.539062 C 384.882812 369.136719 396.769531 381.019531 411.367188 381.019531 L 612.628906 381.019531 C 627.226562 381.019531 639.109375 369.136719 639.109375 354.539062 L 639.109375 174.460938 C 639.109375 159.863281 627.226562 147.980469 612.628906 147.980469 Z M 453.738281 169.164062 C 456.660156 169.164062 459.03125 171.539062 459.03125 174.460938 C 459.03125 177.382812 456.660156 179.757812 453.738281 179.757812 C 450.8125 179.757812 448.441406 177.382812 448.441406 174.460938 C 448.441406 171.539062 450.8125 169.164062 453.738281 169.164062 Z M 432.550781 169.164062 C 435.476562 169.164062 437.847656 171.539062 437.847656 174.460938 C 437.847656 177.382812 435.476562 179.757812 432.550781 179.757812 C 429.628906 179.757812 427.253906 177.382812 427.253906 174.460938 C 427.253906 171.539062 429.628906 169.164062 432.550781 169.164062 Z M 411.367188 169.164062 C 414.289062 169.164062 416.660156 171.539062 416.660156 174.460938 C 416.660156 177.382812 414.289062 179.757812 411.367188 179.757812 C 408.441406 179.757812 406.070312 177.382812 406.070312 174.460938 C 406.070312 171.539062 408.441406 169.164062 411.367188 169.164062 Z M 628.519531 354.539062 C 628.519531 363.296875 621.390625 370.425781 612.628906 370.425781 L 411.367188 370.425781 C 402.605469 370.425781 395.476562 363.296875 395.476562 354.539062 L 395.476562 200.941406 L 628.519531 200.941406 Z M 549.070312 264.5 L 602.035156 264.5 C 604.960938 264.5 607.332031 262.125 607.332031 259.203125 L 607.332031 238.015625 C 607.332031 235.09375 604.960938 232.722656 602.035156 232.722656 L 549.070312 232.722656 C 546.148438 232.722656 543.777344 235.09375 543.777344 238.015625 L 543.777344 259.203125 C 543.777344 262.125 546.148438 264.5 549.070312 264.5 Z M 549.070312 328.054688 L 602.035156 328.054688 C 604.960938 328.054688 607.332031 325.683594 607.332031 322.761719 L 607.332031 301.574219 C 607.332031 298.652344 604.960938 296.277344 602.035156 296.277344 L 549.070312 296.277344 C 546.148438 296.277344 543.777344 298.652344 543.777344 301.574219 L 543.777344 322.761719 C 543.777344 325.683594 546.148438 328.054688 549.070312 328.054688 Z M 433.757812 321.617188 C 433.863281 321.722656 434.003906 321.796875 434.117188 321.914062 C 436.660156 324.414062 439.425781 326.699219 442.390625 328.703125 C 442.71875 328.925781 443.070312 329.105469 443.410156 329.316406 C 446.238281 331.148438 449.203125 332.769531 452.339844 334.09375 C 452.699219 334.242188 453.070312 334.347656 453.441406 334.496094 C 456.617188 335.757812 459.902344 336.796875 463.324219 337.484375 C 463.523438 337.527344 463.734375 337.535156 463.9375 337.578125 C 467.496094 338.269531 471.171875 338.648438 474.933594 338.648438 C 478.691406 338.648438 482.359375 338.257812 485.929688 337.578125 C 486.128906 337.535156 486.339844 337.527344 486.542969 337.484375 C 489.964844 336.796875 493.246094 335.757812 496.425781 334.496094 C 496.785156 334.347656 497.167969 334.242188 497.527344 334.09375 C 500.664062 332.769531 503.628906 331.148438 506.457031 329.316406 C 506.796875 329.105469 507.144531 328.925781 507.472656 328.703125 C 510.441406 326.699219 513.195312 324.414062 515.746094 321.914062 C 515.851562 321.804688 515.992188 321.734375 516.105469 321.617188 C 516.128906 321.59375 516.128906 321.5625 516.148438 321.542969 C 526.6875 310.992188 533.203125 296.4375 533.203125 280.390625 C 533.203125 248.261719 507.070312 222.128906 474.945312 222.128906 C 442.816406 222.128906 416.683594 248.261719 416.683594 280.390625 C 416.683594 296.4375 423.207031 310.992188 433.738281 321.542969 C 433.738281 321.5625 433.738281 321.59375 433.757812 321.617188 Z M 474.921875 232.722656 C 501.203125 232.722656 522.589844 254.109375 522.589844 280.390625 C 522.589844 290.75 519.179688 300.269531 513.554688 308.097656 C 508.660156 299.699219 501.257812 293.226562 492.507812 289.445312 C 497.917969 284.59375 501.402344 277.625 501.402344 269.796875 C 501.402344 255.199219 489.519531 243.3125 474.921875 243.3125 C 460.324219 243.3125 448.441406 255.199219 448.441406 269.796875 C 448.441406 277.625 451.914062 284.59375 457.339844 289.445312 C 448.589844 293.226562 441.183594 299.699219 436.289062 308.097656 C 430.65625 300.269531 427.253906 290.75 427.253906 280.390625 C 427.253906 254.109375 448.640625 232.722656 474.921875 232.722656 Z M 474.921875 232.722656 " fill-opacity="1" fill-rule="nonzero"/></g></svg>