<svg xmlns="http://www.w3.org/2000/svg" xmlns:xlink="http://www.w3.org/1999/xlink" width="1366" zoomAndPan="magnify" viewBox="0 0 1024.5 529.499989" height="706" preserveAspectRatio="xMidYMid meet" version="1.0"><defs><clipPath id="dbd99c1798"><path d="M 368 153.191406 L 653 153.191406 L 653 375 L 368 375 Z M 368 153.191406 " clip-rule="nonzero"/></clipPath></defs><g clip-path="url(#dbd99c1798)"><path fill="#000000" d="M 504.773438 273.605469 L 469.503906 308.890625 C 468.421875 309.894531 468.003906 310.042969 467.21875 310.308594 C 463.679688 311.503906 459.351562 308.488281 459.425781 304.601562 C 459.453125 303.089844 460.117188 301.652344 461.152344 300.535156 L 501.472656 260.199219 C 503.863281 257.835938 507.136719 256.460938 510.511719 256.394531 C 510.675781 256.390625 510.675781 256.390625 510.839844 256.394531 C 514.195312 256.460938 517.484375 257.828125 519.878906 260.199219 L 560.199219 300.535156 C 561.203125 301.621094 561.351562 302.039062 561.617188 302.824219 C 562.8125 306.367188 559.828125 310.695312 555.910156 310.617188 C 554.402344 310.589844 552.964844 309.925781 551.847656 308.890625 L 516.582031 273.605469 L 516.582031 368.984375 C 516.515625 370.578125 516.292969 371.007812 515.871094 371.796875 C 514.167969 374.9375 509.332031 375.773438 506.675781 373.332031 C 505.480469 372.226562 504.839844 370.625 504.773438 368.984375 Z M 477.453125 342.835938 L 421.808594 342.835938 C 395.5 342.75 370.617188 321.191406 368.835938 293.128906 C 367.46875 271.523438 380.53125 249.675781 400.859375 240.917969 C 405.792969 238.792969 411.066406 237.441406 416.398438 236.886719 L 416.566406 236.871094 C 416.605469 236.523438 416.648438 236.171875 416.691406 235.824219 C 421.160156 201.539062 446.105469 169.914062 480.046875 158.292969 C 489.789062 154.960938 500.101562 153.273438 510.382812 153.222656 C 510.578125 153.222656 510.773438 153.222656 510.96875 153.222656 C 539.859375 153.363281 568.375 167.507812 585.953125 190.460938 C 596.183594 203.820312 602.734375 219.921875 604.765625 236.683594 C 604.765625 236.683594 603.859375 236.75 605.953125 236.996094 C 626.867188 239.585938 645.53125 255.425781 650.949219 276.457031 C 656.308594 297.277344 647.753906 320.890625 629.742188 333.394531 C 620.964844 339.488281 610.328125 342.800781 599.542969 342.835938 L 543.898438 342.835938 C 542.304688 342.582031 541.785156 342.695312 540.429688 341.707031 C 537.398438 339.503906 537.351562 334.386719 540.429688 332.148438 C 541.785156 331.164062 542.304688 331.273438 543.898438 331.019531 L 599.523438 331.019531 C 620.21875 330.953125 639.792969 313.640625 640.773438 291.585938 C 641.34375 278.683594 635.460938 265.660156 625.394531 257.546875 C 618.15625 251.707031 609.011719 248.457031 599.53125 248.425781 C 599.53125 248.425781 598.390625 248.402344 597.621094 248.164062 C 593.675781 246.941406 593.5 241.441406 592.882812 236.835938 C 589.011719 208.144531 569.03125 182.15625 541.820312 171.09375 C 517.839844 161.34375 489.246094 163.671875 467.042969 177.449219 C 444.628906 191.355469 429.558594 216.191406 427.878906 242.890625 L 427.503906 244.628906 C 426.601562 246.21875 425.425781 247.640625 423.730469 248.164062 C 422.144531 248.65625 420.519531 248.414062 418.898438 248.527344 C 404.292969 249.546875 390.59375 259.007812 384.394531 272.285156 C 379.132812 283.546875 379.351562 297.207031 384.941406 308.289062 C 391.789062 321.863281 406.660156 330.972656 421.828125 331.019531 L 477.453125 331.019531 C 479.046875 331.273438 479.566406 331.164062 480.921875 332.148438 C 483.902344 334.3125 483.980469 339.484375 480.921875 341.707031 C 479.566406 342.695312 479.046875 342.582031 477.453125 342.835938 Z M 477.453125 342.835938 " fill-opacity="1" fill-rule="evenodd"/></g></svg>