<svg xmlns="http://www.w3.org/2000/svg" xmlns:xlink="http://www.w3.org/1999/xlink" width="1366" zoomAndPan="magnify" viewBox="0 0 1024.5 669.000002" height="892" preserveAspectRatio="xMidYMid meet" version="1.0"><defs><filter x="0%" y="0%" width="100%" height="100%" id="25b0e7ce3f"><feColorMatrix values="0 0 0 0 1 0 0 0 0 1 0 0 0 0 1 0 0 0 1 0" color-interpolation-filters="sRGB"/></filter><mask id="0abab5e1a3"><g filter="url(#25b0e7ce3f)"><rect x="-102.45" width="1229.4" fill="#000000" y="-66.9" height="802.800002" fill-opacity="0.75"/></g></mask><clipPath id="23e99c082e"><rect x="0" width="197" y="0" height="196"/></clipPath></defs><g mask="url(#0abab5e1a3)"><g transform="matrix(1, 0, 0, 1, 413, 236)"><g clip-path="url(#23e99c082e)"><path fill="#e0ae30" d="M 104.300781 31.558594 L 104.300781 28.25 C 104.300781 27.847656 104.261719 27.449219 104.183594 27.054688 C 104.105469 26.660156 103.988281 26.277344 103.835938 25.90625 C 103.679688 25.535156 103.492188 25.183594 103.269531 24.847656 C 103.046875 24.515625 102.792969 24.207031 102.507812 23.921875 C 102.222656 23.636719 101.914062 23.382812 101.582031 23.160156 C 101.246094 22.9375 100.894531 22.75 100.523438 22.597656 C 100.152344 22.441406 99.769531 22.324219 99.375 22.246094 C 98.980469 22.167969 98.582031 22.128906 98.183594 22.128906 C 97.78125 22.128906 97.382812 22.167969 96.988281 22.246094 C 96.59375 22.324219 96.210938 22.441406 95.839844 22.597656 C 95.46875 22.75 95.117188 22.9375 94.78125 23.160156 C 94.449219 23.382812 94.140625 23.636719 93.855469 23.921875 C 93.570312 24.207031 93.316406 24.515625 93.09375 24.847656 C 92.871094 25.183594 92.683594 25.535156 92.527344 25.90625 C 92.375 26.277344 92.257812 26.660156 92.179688 27.054688 C 92.101562 27.449219 92.0625 27.847656 92.0625 28.25 L 92.0625 31.558594 C 92.0625 31.957031 92.101562 32.355469 92.179688 32.75 C 92.257812 33.144531 92.375 33.527344 92.527344 33.898438 C 92.683594 34.269531 92.871094 34.621094 93.09375 34.957031 C 93.316406 35.289062 93.570312 35.597656 93.855469 35.882812 C 94.140625 36.167969 94.449219 36.421875 94.78125 36.644531 C 95.117188 36.867188 95.46875 37.054688 95.839844 37.210938 C 96.210938 37.363281 96.59375 37.480469 96.988281 37.558594 C 97.382812 37.636719 97.78125 37.675781 98.183594 37.675781 C 98.582031 37.675781 98.980469 37.636719 99.375 37.558594 C 99.769531 37.480469 100.152344 37.363281 100.523438 37.210938 C 100.894531 37.054688 101.246094 36.867188 101.582031 36.644531 C 101.914062 36.421875 102.222656 36.167969 102.507812 35.882812 C 102.792969 35.597656 103.046875 35.289062 103.269531 34.957031 C 103.492188 34.621094 103.679688 34.269531 103.835938 33.898438 C 103.988281 33.527344 104.105469 33.144531 104.183594 32.75 C 104.261719 32.355469 104.300781 31.957031 104.300781 31.558594 Z M 104.300781 31.558594 " fill-opacity="1" fill-rule="nonzero"/><path fill="#e0ae30" d="M 98.183594 157.097656 C 97.777344 157.097656 97.378906 157.136719 96.984375 157.214844 C 96.585938 157.292969 96.203125 157.410156 95.828125 157.566406 C 95.457031 157.722656 95.101562 157.914062 94.769531 158.136719 C 94.433594 158.363281 94.125 158.617188 93.839844 158.90625 C 93.554688 159.191406 93.300781 159.503906 93.078125 159.839844 C 92.855469 160.175781 92.667969 160.53125 92.515625 160.90625 C 92.363281 161.277344 92.25 161.664062 92.171875 162.058594 C 92.097656 162.457031 92.058594 162.855469 92.0625 163.261719 L 92.0625 166.570312 C 92.0625 166.96875 92.101562 167.367188 92.179688 167.761719 C 92.257812 168.15625 92.375 168.539062 92.527344 168.910156 C 92.683594 169.28125 92.871094 169.632812 93.09375 169.96875 C 93.316406 170.300781 93.570312 170.609375 93.855469 170.894531 C 94.140625 171.179688 94.449219 171.433594 94.78125 171.65625 C 95.117188 171.878906 95.46875 172.066406 95.839844 172.222656 C 96.210938 172.375 96.59375 172.492188 96.988281 172.570312 C 97.382812 172.648438 97.78125 172.6875 98.183594 172.6875 C 98.582031 172.6875 98.980469 172.648438 99.375 172.570312 C 99.769531 172.492188 100.152344 172.375 100.523438 172.222656 C 100.894531 172.066406 101.246094 171.878906 101.582031 171.65625 C 101.914062 171.433594 102.222656 171.179688 102.507812 170.894531 C 102.792969 170.609375 103.046875 170.300781 103.269531 169.96875 C 103.492188 169.632812 103.679688 169.28125 103.835938 168.910156 C 103.988281 168.539062 104.105469 168.15625 104.183594 167.761719 C 104.261719 167.367188 104.300781 166.96875 104.300781 166.570312 L 104.300781 163.261719 C 104.304688 162.855469 104.273438 162.453125 104.199219 162.058594 C 104.125 161.660156 104.011719 161.273438 103.859375 160.898438 C 103.707031 160.523438 103.523438 160.167969 103.300781 159.828125 C 103.078125 159.492188 102.824219 159.179688 102.539062 158.890625 C 102.253906 158.605469 101.941406 158.347656 101.605469 158.125 C 101.269531 157.898438 100.914062 157.707031 100.539062 157.554688 C 100.167969 157.398438 99.78125 157.285156 99.382812 157.207031 C 98.988281 157.128906 98.585938 157.09375 98.183594 157.097656 Z M 98.183594 157.097656 " fill-opacity="1" fill-rule="nonzero"/><path fill="#e0ae30" d="M 163.988281 91.246094 C 163.585938 91.246094 163.1875 91.285156 162.792969 91.363281 C 162.402344 91.441406 162.019531 91.558594 161.648438 91.710938 C 161.277344 91.863281 160.921875 92.054688 160.589844 92.277344 C 160.253906 92.5 159.945312 92.753906 159.660156 93.039062 C 159.378906 93.320312 159.125 93.628906 158.902344 93.964844 C 158.675781 94.296875 158.488281 94.652344 158.335938 95.023438 C 158.183594 95.394531 158.066406 95.777344 157.988281 96.167969 C 157.910156 96.5625 157.871094 96.960938 157.871094 97.363281 C 157.871094 97.765625 157.910156 98.164062 157.988281 98.558594 C 158.066406 98.949219 158.183594 99.332031 158.335938 99.703125 C 158.488281 100.074219 158.675781 100.429688 158.902344 100.761719 C 159.125 101.097656 159.378906 101.40625 159.660156 101.691406 C 159.945312 101.972656 160.253906 102.226562 160.589844 102.449219 C 160.921875 102.675781 161.277344 102.863281 161.648438 103.015625 C 162.019531 103.167969 162.402344 103.285156 162.792969 103.363281 C 163.1875 103.441406 163.585938 103.480469 163.988281 103.480469 L 167.34375 103.480469 C 167.742188 103.480469 168.140625 103.441406 168.535156 103.363281 C 168.929688 103.285156 169.3125 103.167969 169.683594 103.015625 C 170.054688 102.863281 170.40625 102.675781 170.742188 102.449219 C 171.074219 102.226562 171.382812 101.972656 171.667969 101.691406 C 171.953125 101.40625 172.207031 101.097656 172.429688 100.761719 C 172.652344 100.429688 172.839844 100.074219 172.996094 99.703125 C 173.148438 99.332031 173.265625 98.949219 173.34375 98.558594 C 173.421875 98.164062 173.460938 97.765625 173.460938 97.363281 C 173.460938 96.960938 173.421875 96.5625 173.34375 96.167969 C 173.265625 95.777344 173.148438 95.394531 172.996094 95.023438 C 172.839844 94.652344 172.652344 94.296875 172.429688 93.964844 C 172.207031 93.628906 171.953125 93.320312 171.667969 93.039062 C 171.382812 92.753906 171.074219 92.5 170.742188 92.277344 C 170.40625 92.054688 170.054688 91.863281 169.683594 91.710938 C 169.3125 91.558594 168.929688 91.441406 168.535156 91.363281 C 168.140625 91.285156 167.742188 91.246094 167.34375 91.246094 Z M 163.988281 91.246094 " fill-opacity="1" fill-rule="nonzero"/><path fill="#e0ae30" d="M 29.066406 91.246094 C 28.664062 91.246094 28.265625 91.285156 27.875 91.363281 C 27.480469 91.441406 27.097656 91.558594 26.726562 91.710938 C 26.355469 91.863281 26 92.054688 25.667969 92.277344 C 25.332031 92.5 25.023438 92.753906 24.742188 93.039062 C 24.457031 93.320312 24.203125 93.628906 23.980469 93.964844 C 23.757812 94.296875 23.566406 94.652344 23.414062 95.023438 C 23.261719 95.394531 23.144531 95.777344 23.066406 96.167969 C 22.988281 96.5625 22.949219 96.960938 22.949219 97.363281 C 22.949219 97.765625 22.988281 98.164062 23.066406 98.558594 C 23.144531 98.949219 23.261719 99.332031 23.414062 99.703125 C 23.566406 100.074219 23.757812 100.429688 23.980469 100.761719 C 24.203125 101.097656 24.457031 101.40625 24.742188 101.691406 C 25.023438 101.972656 25.332031 102.226562 25.667969 102.449219 C 26 102.675781 26.355469 102.863281 26.726562 103.015625 C 27.097656 103.167969 27.480469 103.285156 27.875 103.363281 C 28.265625 103.441406 28.664062 103.480469 29.066406 103.480469 L 32.375 103.480469 C 32.777344 103.480469 33.175781 103.441406 33.570312 103.363281 C 33.964844 103.285156 34.34375 103.167969 34.714844 103.015625 C 35.085938 102.863281 35.441406 102.675781 35.773438 102.449219 C 36.109375 102.226562 36.417969 101.972656 36.703125 101.691406 C 36.984375 101.40625 37.238281 101.097656 37.460938 100.761719 C 37.6875 100.429688 37.875 100.074219 38.027344 99.703125 C 38.183594 99.332031 38.296875 98.949219 38.375 98.558594 C 38.453125 98.164062 38.492188 97.765625 38.492188 97.363281 C 38.492188 96.960938 38.453125 96.5625 38.375 96.167969 C 38.296875 95.777344 38.183594 95.394531 38.027344 95.023438 C 37.875 94.652344 37.6875 94.296875 37.460938 93.964844 C 37.238281 93.628906 36.984375 93.320312 36.703125 93.039062 C 36.417969 92.753906 36.109375 92.5 35.773438 92.277344 C 35.441406 92.054688 35.085938 91.863281 34.714844 91.710938 C 34.34375 91.558594 33.964844 91.441406 33.570312 91.363281 C 33.175781 91.285156 32.777344 91.246094 32.375 91.246094 Z M 29.066406 91.246094 " fill-opacity="1" fill-rule="nonzero"/><path fill="#e0ae30" d="M 188.191406 64.6875 C 188.054688 64.308594 187.886719 63.945312 187.679688 63.597656 C 187.472656 63.253906 187.234375 62.929688 186.964844 62.632812 C 186.691406 62.332031 186.394531 62.0625 186.070312 61.824219 C 185.746094 61.585938 185.402344 61.378906 185.039062 61.210938 C 184.671875 61.039062 184.296875 60.90625 183.902344 60.808594 C 183.511719 60.714844 183.117188 60.65625 182.714844 60.640625 C 182.3125 60.625 181.910156 60.648438 181.511719 60.710938 C 181.113281 60.773438 180.726562 60.875 180.347656 61.015625 C 179.972656 61.152344 179.609375 61.324219 179.265625 61.53125 C 178.921875 61.742188 178.601562 61.980469 178.304688 62.25 C 178.007812 62.523438 177.738281 62.820312 177.5 63.144531 C 177.261719 63.46875 177.058594 63.8125 176.886719 64.175781 C 176.71875 64.539062 176.585938 64.917969 176.488281 65.308594 C 176.390625 65.695312 176.335938 66.09375 176.316406 66.496094 C 176.300781 66.894531 176.320312 67.296875 176.382812 67.695312 C 176.441406 68.089844 176.539062 68.476562 176.679688 68.855469 C 180.050781 78.058594 181.730469 87.5625 181.707031 97.363281 C 181.710938 98.96875 181.664062 100.570312 181.574219 102.171875 C 181.484375 103.773438 181.347656 105.371094 181.164062 106.964844 C 180.980469 108.558594 180.753906 110.144531 180.480469 111.726562 C 180.207031 113.304688 179.886719 114.875 179.523438 116.4375 C 179.15625 118 178.75 119.550781 178.292969 121.089844 C 177.839844 122.628906 177.34375 124.152344 176.800781 125.660156 C 176.261719 127.171875 175.675781 128.664062 175.046875 130.140625 C 174.421875 131.617188 173.75 133.074219 173.039062 134.511719 C 172.328125 135.949219 171.578125 137.367188 170.785156 138.757812 C 169.992188 140.152344 169.15625 141.523438 168.285156 142.871094 C 167.414062 144.21875 166.503906 145.539062 165.558594 146.832031 C 164.609375 148.125 163.625 149.390625 162.605469 150.628906 C 161.582031 151.867188 160.527344 153.074219 159.4375 154.25 C 158.347656 155.425781 157.222656 156.570312 156.066406 157.683594 C 154.910156 158.792969 153.726562 159.871094 152.507812 160.914062 C 151.289062 161.957031 150.042969 162.964844 148.765625 163.9375 C 147.488281 164.910156 146.1875 165.84375 144.855469 166.742188 C 143.527344 167.636719 142.171875 168.496094 140.792969 169.3125 C 139.414062 170.132812 138.011719 170.910156 136.585938 171.648438 C 135.164062 172.386719 133.71875 173.082031 132.253906 173.738281 C 130.789062 174.394531 129.308594 175.003906 127.808594 175.574219 C 126.308594 176.144531 124.792969 176.667969 123.265625 177.152344 C 121.734375 177.632812 120.191406 178.070312 118.636719 178.464844 C 117.082031 178.859375 115.515625 179.207031 113.941406 179.511719 C 112.367188 179.8125 110.785156 180.070312 109.195312 180.285156 C 107.605469 180.496094 106.011719 180.664062 104.410156 180.785156 C 102.8125 180.902344 101.210938 180.976562 99.605469 181.007812 C 98.003906 181.035156 96.398438 181.015625 94.796875 180.953125 C 93.195312 180.886719 91.59375 180.777344 89.996094 180.621094 C 88.402344 180.464844 86.8125 180.261719 85.226562 180.015625 C 83.640625 179.769531 82.066406 179.476562 80.496094 179.136719 C 78.929688 178.796875 77.371094 178.414062 75.828125 177.984375 C 74.28125 177.558594 72.75 177.085938 71.230469 176.570312 C 69.710938 176.054688 68.207031 175.492188 66.722656 174.890625 C 65.234375 174.289062 63.769531 173.640625 62.320312 172.953125 C 60.871094 172.265625 59.441406 171.539062 58.035156 170.769531 C 56.625 170 55.242188 169.191406 53.882812 168.339844 C 52.523438 167.492188 51.1875 166.601562 49.875 165.675781 C 48.566406 164.75 47.285156 163.789062 46.03125 162.789062 C 44.777344 161.789062 43.554688 160.753906 42.359375 159.679688 C 41.164062 158.609375 40 157.507812 38.871094 156.371094 C 37.738281 155.230469 36.640625 154.0625 35.578125 152.863281 C 34.515625 151.660156 33.488281 150.429688 32.496094 149.171875 C 31.5 147.910156 30.546875 146.625 29.628906 145.308594 C 28.707031 143.996094 27.828125 142.652344 26.988281 141.289062 C 26.144531 139.921875 25.34375 138.535156 24.582031 137.121094 C 23.820312 135.710938 23.101562 134.277344 22.421875 132.824219 C 21.742188 131.371094 21.105469 129.902344 20.511719 128.410156 C 19.917969 126.921875 19.367188 125.414062 18.859375 123.894531 C 18.351562 122.371094 17.886719 120.835938 17.46875 119.289062 C 17.050781 117.742188 16.675781 116.179688 16.347656 114.613281 C 16.015625 113.042969 15.730469 111.464844 15.492188 109.878906 C 15.253906 108.292969 15.0625 106.699219 14.914062 105.101562 C 14.769531 103.503906 14.667969 101.90625 14.613281 100.300781 C 14.558594 98.699219 14.550781 97.097656 14.585938 95.492188 C 14.625 93.886719 14.707031 92.289062 14.835938 90.6875 C 14.96875 89.089844 15.144531 87.496094 15.363281 85.90625 C 15.585938 84.320312 15.851562 82.738281 16.164062 81.164062 C 16.476562 79.589844 16.835938 78.027344 17.238281 76.476562 C 17.640625 74.921875 18.085938 73.382812 18.578125 71.855469 C 19.070312 70.328125 19.605469 68.816406 20.183594 67.320312 C 20.761719 65.824219 21.382812 64.347656 22.042969 62.886719 C 22.707031 61.425781 23.414062 59.984375 24.160156 58.566406 C 24.90625 57.144531 25.691406 55.75 26.519531 54.375 C 27.34375 53 28.210938 51.652344 29.113281 50.324219 C 30.019531 49 30.960938 47.703125 31.941406 46.433594 C 32.917969 45.164062 33.933594 43.921875 34.984375 42.707031 C 36.035156 41.496094 37.121094 40.316406 38.238281 39.167969 C 39.355469 38.015625 40.507812 36.898438 41.691406 35.816406 C 42.875 34.734375 44.085938 33.683594 45.328125 32.671875 C 46.574219 31.65625 47.84375 30.679688 49.144531 29.742188 C 50.445312 28.800781 51.769531 27.898438 53.121094 27.035156 C 54.472656 26.171875 55.847656 25.347656 57.246094 24.5625 C 58.644531 23.777344 60.066406 23.03125 61.507812 22.328125 C 62.949219 21.625 64.410156 20.964844 65.890625 20.347656 C 67.367188 19.726562 68.867188 19.152344 70.378906 18.617188 C 71.890625 18.085938 73.417969 17.597656 74.960938 17.152344 C 76.5 16.707031 78.054688 16.308594 79.617188 15.953125 C 81.179688 15.597656 82.753906 15.285156 84.335938 15.023438 C 85.917969 14.757812 87.507812 14.539062 89.101562 14.363281 C 90.695312 14.191406 92.292969 14.0625 93.894531 13.980469 C 95.496094 13.902344 97.101562 13.867188 98.703125 13.875 C 100.308594 13.886719 101.910156 13.945312 103.511719 14.046875 C 105.113281 14.152344 106.710938 14.300781 108.300781 14.496094 C 109.894531 14.691406 111.476562 14.929688 113.054688 15.21875 C 114.636719 15.503906 116.203125 15.835938 117.761719 16.210938 C 119.320312 16.589844 120.867188 17.007812 122.402344 17.476562 C 123.9375 17.941406 125.457031 18.449219 126.964844 19.003906 C 128.46875 19.558594 129.957031 20.152344 131.429688 20.792969 C 132.902344 21.429688 134.351562 22.113281 135.785156 22.835938 C 137.214844 23.558594 138.625 24.320312 140.015625 25.125 C 141.402344 25.929688 142.765625 26.769531 144.105469 27.652344 C 145.445312 28.535156 146.757812 29.457031 148.046875 30.414062 C 149.332031 31.371094 150.589844 32.367188 151.820312 33.394531 C 153.046875 34.425781 154.246094 35.492188 155.414062 36.589844 C 156.582031 37.691406 157.71875 38.820312 158.820312 39.988281 L 98.410156 89.296875 L 79.828125 72.300781 C 79.558594 72.054688 79.273438 71.832031 78.964844 71.636719 C 78.65625 71.441406 78.335938 71.277344 78 71.140625 C 77.664062 71.003906 77.316406 70.898438 76.960938 70.820312 C 76.605469 70.746094 76.246094 70.703125 75.878906 70.695312 C 75.515625 70.683594 75.15625 70.707031 74.796875 70.761719 C 74.4375 70.816406 74.085938 70.902344 73.742188 71.019531 C 73.394531 71.136719 73.066406 71.285156 72.746094 71.460938 C 72.429688 71.640625 72.132812 71.84375 71.851562 72.074219 C 71.566406 72.304688 71.304688 72.558594 71.066406 72.832031 C 70.828125 73.109375 70.617188 73.40625 70.433594 73.71875 C 70.246094 74.03125 70.089844 74.359375 69.964844 74.703125 C 69.835938 75.046875 69.742188 75.394531 69.679688 75.753906 C 69.613281 76.113281 69.582031 76.476562 69.582031 76.839844 C 69.582031 77.207031 69.617188 77.566406 69.683594 77.925781 C 69.746094 78.285156 69.84375 78.636719 69.972656 78.976562 C 70.101562 79.320312 70.257812 79.648438 70.445312 79.960938 L 93.105469 117.621094 C 93.597656 118.433594 94.238281 119.097656 95.035156 119.613281 C 95.828125 120.128906 96.695312 120.449219 97.636719 120.566406 L 98.363281 120.566406 C 99.214844 120.589844 100.035156 120.441406 100.824219 120.117188 C 101.613281 119.792969 102.304688 119.324219 102.894531 118.710938 L 187.601562 32.597656 C 187.898438 32.328125 188.164062 32.03125 188.40625 31.707031 C 188.644531 31.382812 188.847656 31.039062 189.019531 30.675781 C 189.191406 30.3125 189.324219 29.933594 189.421875 29.542969 C 189.519531 29.152344 189.574219 28.757812 189.59375 28.355469 C 189.613281 27.953125 189.59375 27.554688 189.53125 27.15625 C 189.472656 26.757812 189.375 26.371094 189.238281 25.992188 C 189.101562 25.613281 188.929688 25.253906 188.722656 24.910156 C 188.515625 24.5625 188.277344 24.242188 188.003906 23.945312 C 187.734375 23.648438 187.4375 23.378906 187.113281 23.140625 C 186.789062 22.902344 186.445312 22.695312 186.082031 22.527344 C 185.71875 22.355469 185.34375 22.21875 184.953125 22.125 C 184.5625 22.027344 184.164062 21.96875 183.761719 21.949219 C 183.363281 21.929688 182.960938 21.949219 182.566406 22.011719 C 182.167969 22.070312 181.777344 22.167969 181.398438 22.304688 C 181.023438 22.441406 180.660156 22.613281 180.316406 22.820312 C 179.972656 23.027344 179.648438 23.265625 179.351562 23.535156 L 168.65625 32.28125 C 167.328125 30.863281 165.960938 29.484375 164.546875 28.144531 C 163.136719 26.808594 161.6875 25.515625 160.195312 24.269531 C 158.703125 23.023438 157.175781 21.820312 155.613281 20.667969 C 154.050781 19.511719 152.449219 18.40625 150.820312 17.351562 C 149.1875 16.292969 147.523438 15.289062 145.832031 14.335938 C 144.136719 13.378906 142.417969 12.480469 140.667969 11.628906 C 138.917969 10.78125 137.144531 9.988281 135.347656 9.246094 C 133.550781 8.507812 131.730469 7.820312 129.894531 7.191406 C 128.054688 6.5625 126.195312 5.992188 124.320312 5.476562 C 122.449219 4.960938 120.558594 4.503906 118.65625 4.105469 C 116.753906 3.707031 114.839844 3.367188 112.917969 3.082031 C 110.996094 2.800781 109.0625 2.578125 107.128906 2.414062 C 105.191406 2.25 103.25 2.144531 101.304688 2.101562 C 99.363281 2.054688 97.421875 2.070312 95.476562 2.144531 C 93.535156 2.21875 91.597656 2.351562 89.664062 2.546875 C 87.726562 2.738281 85.800781 2.988281 83.882812 3.300781 C 81.964844 3.613281 80.054688 3.980469 78.160156 4.410156 C 76.261719 4.835938 74.382812 5.324219 72.515625 5.867188 C 70.648438 6.410156 68.800781 7.007812 66.972656 7.664062 C 65.140625 8.320312 63.332031 9.03125 61.546875 9.800781 C 59.761719 10.566406 58 11.386719 56.265625 12.261719 C 54.527344 13.136719 52.820312 14.066406 51.140625 15.046875 C 49.460938 16.023438 47.816406 17.054688 46.199219 18.136719 C 44.582031 19.214844 43.003906 20.34375 41.457031 21.523438 C 39.910156 22.699219 38.398438 23.921875 36.925781 25.195312 C 35.457031 26.464844 34.023438 27.777344 32.632812 29.136719 C 31.242188 30.492188 29.894531 31.890625 28.589844 33.332031 C 27.28125 34.773438 26.023438 36.25 24.808594 37.769531 C 23.59375 39.285156 22.425781 40.839844 21.304688 42.429688 C 20.1875 44.019531 19.117188 45.640625 18.09375 47.292969 C 17.074219 48.949219 16.105469 50.632812 15.1875 52.347656 C 14.273438 54.0625 13.40625 55.800781 12.597656 57.570312 C 11.789062 59.335938 11.03125 61.125 10.332031 62.9375 C 9.628906 64.75 8.984375 66.585938 8.398438 68.4375 C 7.808594 70.289062 7.277344 72.160156 6.804688 74.042969 C 6.328125 75.929688 5.914062 77.828125 5.554688 79.738281 C 5.199219 81.648438 4.898438 83.570312 4.660156 85.5 C 4.417969 87.425781 4.238281 89.363281 4.117188 91.300781 C 3.996094 93.242188 3.933594 95.183594 3.929688 97.128906 C 3.929688 99.070312 3.984375 101.015625 4.101562 102.953125 C 4.21875 104.894531 4.394531 106.832031 4.628906 108.761719 C 4.863281 110.691406 5.15625 112.609375 5.511719 114.523438 C 5.863281 116.433594 6.273438 118.332031 6.742188 120.21875 C 7.214844 122.105469 7.738281 123.976562 8.324219 125.828125 C 8.90625 127.683594 9.546875 129.519531 10.242188 131.332031 C 10.9375 133.148438 11.691406 134.941406 12.496094 136.710938 C 13.300781 138.480469 14.160156 140.222656 15.074219 141.9375 C 15.988281 143.652344 16.953125 145.339844 17.96875 147 C 18.984375 148.65625 20.050781 150.28125 21.164062 151.871094 C 22.28125 153.464844 23.445312 155.019531 24.65625 156.539062 C 25.867188 158.0625 27.121094 159.542969 28.425781 160.988281 C 29.726562 162.429688 31.070312 163.832031 32.457031 165.195312 C 33.847656 166.554688 35.273438 167.875 36.742188 169.148438 C 38.210938 170.421875 39.71875 171.648438 41.261719 172.828125 C 42.804688 174.011719 44.382812 175.144531 45.996094 176.230469 C 47.609375 177.3125 49.253906 178.347656 50.929688 179.332031 C 52.609375 180.316406 54.3125 181.246094 56.046875 182.128906 C 57.78125 183.007812 59.539062 183.832031 61.324219 184.605469 C 63.105469 185.375 64.914062 186.09375 66.742188 186.753906 C 68.570312 187.414062 70.414062 188.019531 72.28125 188.566406 C 74.144531 189.113281 76.027344 189.605469 77.921875 190.039062 C 79.816406 190.46875 81.722656 190.84375 83.640625 191.160156 C 85.558594 191.476562 87.484375 191.734375 89.417969 191.929688 C 91.351562 192.128906 93.292969 192.265625 95.234375 192.347656 C 97.175781 192.425781 99.117188 192.445312 101.0625 192.40625 C 103.007812 192.363281 104.945312 192.265625 106.882812 192.105469 C 108.820312 191.949219 110.75 191.730469 112.675781 191.453125 C 114.601562 191.175781 116.515625 190.839844 118.417969 190.445312 C 120.320312 190.050781 122.210938 189.597656 124.085938 189.085938 C 125.960938 188.578125 127.820312 188.011719 129.660156 187.386719 C 131.503906 186.761719 133.324219 186.082031 135.121094 185.347656 C 136.921875 184.609375 138.695312 183.820312 140.449219 182.976562 C 142.199219 182.132812 143.921875 181.234375 145.617188 180.285156 C 147.3125 179.335938 148.980469 178.332031 150.613281 177.28125 C 152.25 176.230469 153.847656 175.128906 155.417969 173.980469 C 156.984375 172.828125 158.515625 171.632812 160.007812 170.386719 C 161.5 169.144531 162.957031 167.855469 164.371094 166.523438 C 165.785156 165.1875 167.160156 163.8125 168.488281 162.398438 C 169.820312 160.980469 171.105469 159.523438 172.347656 158.027344 C 173.589844 156.53125 174.78125 155 175.929688 153.429688 C 177.078125 151.859375 178.175781 150.257812 179.226562 148.621094 C 180.273438 146.984375 181.273438 145.316406 182.21875 143.621094 C 183.167969 141.921875 184.0625 140.195312 184.902344 138.445312 C 185.742188 136.691406 186.53125 134.914062 187.261719 133.117188 C 187.996094 131.316406 188.671875 129.492188 189.292969 127.652344 C 189.914062 125.808594 190.480469 123.949219 190.984375 122.074219 C 191.492188 120.195312 191.941406 118.304688 192.332031 116.402344 C 192.722656 114.496094 193.054688 112.582031 193.332031 110.660156 C 193.605469 108.734375 193.820312 106.804688 193.972656 104.867188 C 194.128906 102.925781 194.226562 100.988281 194.261719 99.042969 C 194.300781 97.101562 194.277344 95.15625 194.195312 93.214844 C 194.113281 91.273438 193.96875 89.335938 193.769531 87.402344 C 193.566406 85.46875 193.308594 83.542969 192.988281 81.625 C 192.667969 79.707031 192.292969 77.800781 191.855469 75.90625 C 191.417969 74.011719 190.925781 72.132812 190.375 70.269531 C 189.824219 68.40625 189.214844 66.558594 188.550781 64.730469 Z M 188.191406 64.6875 " fill-opacity="1" fill-rule="nonzero"/></g></g></g></svg>