<svg xmlns="http://www.w3.org/2000/svg" xmlns:xlink="http://www.w3.org/1999/xlink" width="1366" zoomAndPan="magnify" viewBox="0 0 1024.5 529.499989" height="706" preserveAspectRatio="xMidYMid meet" version="1.0"><defs><clipPath id="2fc4d999c2"><path d="M 385 137.214844 L 639 137.214844 L 639 391.972656 L 385 391.972656 Z M 385 137.214844 " clip-rule="nonzero"/></clipPath></defs><g clip-path="url(#2fc4d999c2)"><path fill="#ffffff" d="M 385.015625 264.5 C 385.015625 194.367188 441.867188 137.515625 512 137.515625 C 582.132812 137.515625 638.984375 194.367188 638.984375 264.5 C 638.914062 334.601562 582.101562 391.414062 512 391.484375 C 441.867188 391.484375 385.015625 334.632812 385.015625 264.5 Z M 390.304688 264.5 C 390.304688 331.710938 444.789062 386.191406 512 386.191406 C 579.210938 386.191406 633.691406 331.710938 633.691406 264.5 C 633.605469 197.324219 579.175781 142.894531 512 142.804688 C 444.789062 142.804688 390.304688 197.289062 390.304688 264.5 Z M 390.304688 264.5 " fill-opacity="1" fill-rule="nonzero"/></g><path fill="#ffffff" d="M 445.859375 293.152344 C 445.859375 287.488281 445.859375 242.171875 445.859375 236.511719 C 445.859375 227.390625 453.246094 220 462.367188 220 C 466.527344 220 470.53125 221.5625 473.585938 224.394531 C 473.585938 220.421875 473.585938 188.679688 473.585938 184.710938 C 473.9375 176.386719 480.960938 169.929688 489.285156 170.277344 C 497.117188 170.601562 503.390625 176.878906 503.71875 184.710938 C 503.71875 186.761719 503.71875 203.160156 503.71875 205.214844 C 510.050781 199.804688 519.570312 200.554688 524.976562 206.886719 C 527.015625 209.265625 528.253906 212.222656 528.535156 215.347656 C 531.257812 212.984375 534.746094 211.6875 538.347656 211.691406 C 546.664062 211.691406 553.414062 218.425781 553.425781 226.75 C 553.425781 226.773438 553.425781 226.988281 553.425781 227.011719 C 559.804688 221.679688 569.296875 222.523438 574.628906 228.902344 C 576.886719 231.605469 578.128906 235.003906 578.140625 238.519531 C 578.140625 243.976562 578.140625 287.617188 578.140625 293.070312 C 578.109375 329.597656 548.527344 359.214844 512 359.285156 C 475.5 359.214844 445.933594 329.648438 445.859375 293.152344 Z M 451.148438 236.511719 C 451.148438 242.167969 451.148438 287.414062 451.148438 293.070312 C 451.148438 326.675781 478.394531 353.917969 512 353.917969 C 545.605469 353.917969 572.847656 326.675781 572.847656 293.070312 C 572.847656 287.617188 572.847656 243.976562 572.847656 238.519531 C 573.128906 233.121094 568.976562 228.519531 563.578125 228.234375 C 558.183594 227.953125 553.578125 232.105469 553.292969 237.503906 C 553.277344 237.84375 553.277344 238.179688 553.292969 238.519531 C 553.292969 239.980469 552.113281 241.167969 550.652344 241.167969 C 549.191406 241.167969 548.003906 239.980469 548.003906 238.519531 C 548.003906 237.347656 548.003906 227.972656 548.003906 226.800781 C 547.722656 221.402344 543.121094 217.25 537.71875 217.535156 C 532.714844 217.792969 528.714844 221.796875 528.453125 226.800781 C 528.453125 228.261719 527.269531 229.445312 525.808594 229.445312 C 524.347656 229.445312 523.164062 228.261719 523.164062 226.800781 C 523.164062 225.796875 523.164062 217.730469 523.164062 216.722656 C 523.164062 211.316406 518.78125 206.933594 513.371094 206.933594 C 507.972656 206.933594 503.589844 211.316406 503.589844 216.722656 C 503.589844 218.183594 502.402344 219.363281 500.941406 219.363281 C 499.480469 219.363281 498.292969 218.183594 498.292969 216.722656 C 498.292969 213.527344 498.292969 187.957031 498.292969 184.761719 C 498.011719 179.363281 493.410156 175.21875 488.015625 175.496094 C 483.003906 175.761719 479.003906 179.757812 478.742188 184.761719 C 478.742188 189.9375 478.742188 231.335938 478.742188 236.511719 C 478.742188 237.972656 477.5625 239.152344 476.101562 239.152344 C 474.640625 239.152344 473.453125 237.972656 473.453125 236.511719 C 473.453125 230.347656 468.480469 225.335938 462.320312 225.296875 C 456.144531 225.324219 451.148438 230.335938 451.148438 236.511719 Z M 451.148438 236.511719 " fill-opacity="1" fill-rule="nonzero"/><path fill="#ffffff" d="M 498.402344 270.714844 C 498.402344 265.261719 498.402344 221.621094 498.402344 216.164062 C 498.402344 214.703125 499.585938 213.519531 501.046875 213.519531 C 502.507812 213.519531 503.695312 214.703125 503.695312 216.164062 C 503.695312 221.621094 503.695312 265.261719 503.695312 270.714844 C 503.695312 272.175781 502.507812 273.363281 501.046875 273.363281 C 499.585938 273.363281 498.402344 272.175781 498.402344 270.714844 Z M 498.402344 270.714844 " fill-opacity="1" fill-rule="nonzero"/><path fill="#ffffff" d="M 523.164062 271.828125 C 523.164062 267.289062 523.164062 230.96875 523.164062 226.429688 C 523.164062 224.96875 524.347656 223.789062 525.808594 223.789062 C 527.269531 223.789062 528.453125 224.96875 528.453125 226.429688 C 528.453125 230.96875 528.453125 267.289062 528.453125 271.828125 C 528.453125 273.289062 527.269531 274.476562 525.808594 274.476562 C 524.347656 274.476562 523.164062 273.289062 523.164062 271.828125 Z M 523.164062 271.828125 " fill-opacity="1" fill-rule="nonzero"/><path fill="#ffffff" d="M 548.03125 284.839844 C 548.03125 280.148438 548.03125 242.582031 548.03125 237.882812 C 548.03125 236.421875 549.214844 235.242188 550.675781 235.242188 C 552.136719 235.242188 553.320312 236.421875 553.320312 237.882812 C 553.320312 242.582031 553.320312 280.148438 553.320312 284.839844 C 553.320312 286.300781 552.136719 287.488281 550.675781 287.488281 C 549.214844 287.488281 548.03125 286.300781 548.03125 284.839844 Z M 548.03125 284.839844 " fill-opacity="1" fill-rule="nonzero"/><path fill="#ffffff" d="M 473.480469 288.152344 C 473.480469 282.921875 473.480469 241.054688 473.480469 235.824219 C 473.480469 234.363281 474.664062 233.175781 476.125 233.175781 C 477.585938 233.175781 478.773438 234.363281 478.773438 235.824219 C 478.773438 241.054688 478.773438 282.921875 478.773438 288.152344 C 478.773438 289.613281 477.585938 290.792969 476.125 290.792969 C 474.664062 290.792969 473.480469 289.613281 473.480469 288.152344 Z M 473.480469 288.152344 " fill-opacity="1" fill-rule="nonzero"/></svg>