<svg xmlns="http://www.w3.org/2000/svg" xmlns:xlink="http://www.w3.org/1999/xlink" width="1366" zoomAndPan="magnify" viewBox="0 0 1024.5 529.499989" height="706" preserveAspectRatio="xMidYMid meet" version="1.0"><defs><clipPath id="b7e223e57f"><path d="M 373.894531 126.394531 L 650.382812 126.394531 L 650.382812 402.882812 L 373.894531 402.882812 Z M 373.894531 126.394531 " clip-rule="nonzero"/></clipPath><clipPath id="d31d8e95a5"><path d="M 650.394531 264.640625 C 650.394531 340.996094 588.496094 402.894531 512.140625 402.894531 C 435.785156 402.894531 373.886719 340.996094 373.886719 264.640625 C 373.886719 188.28125 435.785156 126.386719 512.140625 126.386719 C 588.496094 126.386719 650.394531 188.28125 650.394531 264.640625 " clip-rule="nonzero"/></clipPath><clipPath id="b6dc836967"><path d="M 564.734375 342.167969 L 585 342.167969 L 585 402.882812 L 564.734375 402.882812 Z M 564.734375 342.167969 " clip-rule="nonzero"/></clipPath><clipPath id="0da1a60789"><path d="M 650.394531 264.640625 C 650.394531 340.996094 588.496094 402.894531 512.140625 402.894531 C 435.785156 402.894531 373.886719 340.996094 373.886719 264.640625 C 373.886719 188.28125 435.785156 126.386719 512.140625 126.386719 C 588.496094 126.386719 650.394531 188.28125 650.394531 264.640625 " clip-rule="nonzero"/></clipPath><clipPath id="d76598e254"><path d="M 564.734375 357 L 567.953125 357 L 567.953125 359.859375 L 564.734375 359.859375 Z M 564.734375 357 " clip-rule="nonzero"/></clipPath><clipPath id="dbbbabb2bf"><path d="M 650.394531 264.640625 C 650.394531 340.996094 588.496094 402.894531 512.140625 402.894531 C 435.785156 402.894531 373.886719 340.996094 373.886719 264.640625 C 373.886719 188.28125 435.785156 126.386719 512.140625 126.386719 C 588.496094 126.386719 650.394531 188.28125 650.394531 264.640625 " clip-rule="nonzero"/></clipPath><clipPath id="e8f8be56d8"><path d="M 564.734375 352 L 584.839844 352 L 584.839844 392 L 564.734375 392 Z M 564.734375 352 " clip-rule="nonzero"/></clipPath><clipPath id="381ea8a76e"><path d="M 650.394531 264.640625 C 650.394531 340.996094 588.496094 402.894531 512.140625 402.894531 C 435.785156 402.894531 373.886719 340.996094 373.886719 264.640625 C 373.886719 188.28125 435.785156 126.386719 512.140625 126.386719 C 588.496094 126.386719 650.394531 188.28125 650.394531 264.640625 " clip-rule="nonzero"/></clipPath><clipPath id="49a85fd684"><path d="M 555.085938 307.585938 L 592.078125 307.585938 L 592.078125 375.945312 L 555.085938 375.945312 Z M 555.085938 307.585938 " clip-rule="nonzero"/></clipPath><clipPath id="1f48e7dbd7"><path d="M 650.394531 264.640625 C 650.394531 340.996094 588.496094 402.894531 512.140625 402.894531 C 435.785156 402.894531 373.886719 340.996094 373.886719 264.640625 C 373.886719 188.28125 435.785156 126.386719 512.140625 126.386719 C 588.496094 126.386719 650.394531 188.28125 650.394531 264.640625 " clip-rule="nonzero"/></clipPath><clipPath id="81082e1b87"><path d="M 555.085938 319 L 571.972656 319 L 571.972656 375.945312 L 555.085938 375.945312 Z M 555.085938 319 " clip-rule="nonzero"/></clipPath><clipPath id="d20bd442c5"><path d="M 650.394531 264.640625 C 650.394531 340.996094 588.496094 402.894531 512.140625 402.894531 C 435.785156 402.894531 373.886719 340.996094 373.886719 264.640625 C 373.886719 188.28125 435.785156 126.386719 512.140625 126.386719 C 588.496094 126.386719 650.394531 188.28125 650.394531 264.640625 " clip-rule="nonzero"/></clipPath><clipPath id="cbf273e48f"><path d="M 440 342.167969 L 460 342.167969 L 460 402.882812 L 440 402.882812 Z M 440 342.167969 " clip-rule="nonzero"/></clipPath><clipPath id="fe2de4780b"><path d="M 650.394531 264.640625 C 650.394531 340.996094 588.496094 402.894531 512.140625 402.894531 C 435.785156 402.894531 373.886719 340.996094 373.886719 264.640625 C 373.886719 188.28125 435.785156 126.386719 512.140625 126.386719 C 588.496094 126.386719 650.394531 188.28125 650.394531 264.640625 " clip-rule="nonzero"/></clipPath><clipPath id="3e5fbcecb9"><path d="M 440.082031 352 L 442.496094 352 L 442.496094 379.160156 L 440.082031 379.160156 Z M 440.082031 352 " clip-rule="nonzero"/></clipPath><clipPath id="282091b04c"><path d="M 650.394531 264.640625 C 650.394531 340.996094 588.496094 402.894531 512.140625 402.894531 C 435.785156 402.894531 373.886719 340.996094 373.886719 264.640625 C 373.886719 188.28125 435.785156 126.386719 512.140625 126.386719 C 588.496094 126.386719 650.394531 188.28125 650.394531 264.640625 " clip-rule="nonzero"/></clipPath><clipPath id="8edc6c1961"><path d="M 440.082031 352 L 460 352 L 460 392.832031 L 440.082031 392.832031 Z M 440.082031 352 " clip-rule="nonzero"/></clipPath><clipPath id="21076ce303"><path d="M 650.394531 264.640625 C 650.394531 340.996094 588.496094 402.894531 512.140625 402.894531 C 435.785156 402.894531 373.886719 340.996094 373.886719 264.640625 C 373.886719 188.28125 435.785156 126.386719 512.140625 126.386719 C 588.496094 126.386719 650.394531 188.28125 650.394531 264.640625 " clip-rule="nonzero"/></clipPath><clipPath id="42336599eb"><path d="M 432.039062 307.585938 L 469 307.585938 L 469 375.945312 L 432.039062 375.945312 Z M 432.039062 307.585938 " clip-rule="nonzero"/></clipPath><clipPath id="1a27598ac0"><path d="M 650.394531 264.640625 C 650.394531 340.996094 588.496094 402.894531 512.140625 402.894531 C 435.785156 402.894531 373.886719 340.996094 373.886719 264.640625 C 373.886719 188.28125 435.785156 126.386719 512.140625 126.386719 C 588.496094 126.386719 650.394531 188.28125 650.394531 264.640625 " clip-rule="nonzero"/></clipPath><clipPath id="d52f8feda6"><path d="M 449 312 L 469 312 L 469 375.945312 L 449 375.945312 Z M 449 312 " clip-rule="nonzero"/></clipPath><clipPath id="7414fc463b"><path d="M 650.394531 264.640625 C 650.394531 340.996094 588.496094 402.894531 512.140625 402.894531 C 435.785156 402.894531 373.886719 340.996094 373.886719 264.640625 C 373.886719 188.28125 435.785156 126.386719 512.140625 126.386719 C 588.496094 126.386719 650.394531 188.28125 650.394531 264.640625 " clip-rule="nonzero"/></clipPath><clipPath id="fc8c16a6df"><path d="M 457 295 L 567.953125 295 L 567.953125 402.882812 L 457 402.882812 Z M 457 295 " clip-rule="nonzero"/></clipPath><clipPath id="c2ab9abade"><path d="M 650.394531 264.640625 C 650.394531 340.996094 588.496094 402.894531 512.140625 402.894531 C 435.785156 402.894531 373.886719 340.996094 373.886719 264.640625 C 373.886719 188.28125 435.785156 126.386719 512.140625 126.386719 C 588.496094 126.386719 650.394531 188.28125 650.394531 264.640625 " clip-rule="nonzero"/></clipPath><clipPath id="6832b2a518"><path d="M 493.160156 271.394531 L 532 271.394531 L 532 306.78125 L 493.160156 306.78125 Z M 493.160156 271.394531 " clip-rule="nonzero"/></clipPath><clipPath id="f752839514"><path d="M 650.394531 264.640625 C 650.394531 340.996094 588.496094 402.894531 512.140625 402.894531 C 435.785156 402.894531 373.886719 340.996094 373.886719 264.640625 C 373.886719 188.28125 435.785156 126.386719 512.140625 126.386719 C 588.496094 126.386719 650.394531 188.28125 650.394531 264.640625 " clip-rule="nonzero"/></clipPath><clipPath id="c1ec7baa4e"><path d="M 527.742188 279 L 530 279 L 530 290.695312 L 527.742188 290.695312 Z M 527.742188 279 " clip-rule="nonzero"/></clipPath><clipPath id="0b91aaec44"><path d="M 650.394531 264.640625 C 650.394531 340.996094 588.496094 402.894531 512.140625 402.894531 C 435.785156 402.894531 373.886719 340.996094 373.886719 264.640625 C 373.886719 188.28125 435.785156 126.386719 512.140625 126.386719 C 588.496094 126.386719 650.394531 188.28125 650.394531 264.640625 " clip-rule="nonzero"/></clipPath><clipPath id="f3b769e281"><path d="M 497 279 L 530 279 L 530 290.695312 L 497 290.695312 Z M 497 279 " clip-rule="nonzero"/></clipPath><clipPath id="f8e4577b85"><path d="M 650.394531 264.640625 C 650.394531 340.996094 588.496094 402.894531 512.140625 402.894531 C 435.785156 402.894531 373.886719 340.996094 373.886719 264.640625 C 373.886719 188.28125 435.785156 126.386719 512.140625 126.386719 C 588.496094 126.386719 650.394531 188.28125 650.394531 264.640625 " clip-rule="nonzero"/></clipPath><clipPath id="7ab87b21c3"><path d="M 545 222.339844 L 559.910156 222.339844 L 559.910156 246.464844 L 545 246.464844 Z M 545 222.339844 " clip-rule="nonzero"/></clipPath><clipPath id="18192fdac5"><path d="M 650.394531 264.640625 C 650.394531 340.996094 588.496094 402.894531 512.140625 402.894531 C 435.785156 402.894531 373.886719 340.996094 373.886719 264.640625 C 373.886719 188.28125 435.785156 126.386719 512.140625 126.386719 C 588.496094 126.386719 650.394531 188.28125 650.394531 264.640625 " clip-rule="nonzero"/></clipPath><clipPath id="e2c2261e07"><path d="M 550 227.164062 L 557.496094 227.164062 L 557.496094 243 L 550 243 Z M 550 227.164062 " clip-rule="nonzero"/></clipPath><clipPath id="fc2c22317a"><path d="M 650.394531 264.640625 C 650.394531 340.996094 588.496094 402.894531 512.140625 402.894531 C 435.785156 402.894531 373.886719 340.996094 373.886719 264.640625 C 373.886719 188.28125 435.785156 126.386719 512.140625 126.386719 C 588.496094 126.386719 650.394531 188.28125 650.394531 264.640625 " clip-rule="nonzero"/></clipPath><clipPath id="37e5f81ede"><path d="M 549 226.359375 L 557.496094 226.359375 L 557.496094 243 L 549 243 Z M 549 226.359375 " clip-rule="nonzero"/></clipPath><clipPath id="99a7fe6173"><path d="M 650.394531 264.640625 C 650.394531 340.996094 588.496094 402.894531 512.140625 402.894531 C 435.785156 402.894531 373.886719 340.996094 373.886719 264.640625 C 373.886719 188.28125 435.785156 126.386719 512.140625 126.386719 C 588.496094 126.386719 650.394531 188.28125 650.394531 264.640625 " clip-rule="nonzero"/></clipPath><clipPath id="0e374fade9"><path d="M 550.261719 228 L 555.890625 228 L 555.890625 235.207031 L 550.261719 235.207031 Z M 550.261719 228 " clip-rule="nonzero"/></clipPath><clipPath id="9eaf6696cf"><path d="M 650.394531 264.640625 C 650.394531 340.996094 588.496094 402.894531 512.140625 402.894531 C 435.785156 402.894531 373.886719 340.996094 373.886719 264.640625 C 373.886719 188.28125 435.785156 126.386719 512.140625 126.386719 C 588.496094 126.386719 650.394531 188.28125 650.394531 264.640625 " clip-rule="nonzero"/></clipPath><clipPath id="627a168b18"><path d="M 465.011719 222.339844 L 480.292969 222.339844 L 480.292969 246.464844 L 465.011719 246.464844 Z M 465.011719 222.339844 " clip-rule="nonzero"/></clipPath><clipPath id="2ff421e0d1"><path d="M 650.394531 264.640625 C 650.394531 340.996094 588.496094 402.894531 512.140625 402.894531 C 435.785156 402.894531 373.886719 340.996094 373.886719 264.640625 C 373.886719 188.28125 435.785156 126.386719 512.140625 126.386719 C 588.496094 126.386719 650.394531 188.28125 650.394531 264.640625 " clip-rule="nonzero"/></clipPath><clipPath id="3eab59943b"><path d="M 468.230469 227.164062 L 475.46875 227.164062 L 475.46875 242.445312 L 468.230469 242.445312 Z M 468.230469 227.164062 " clip-rule="nonzero"/></clipPath><clipPath id="24b6b6f5f9"><path d="M 650.394531 264.640625 C 650.394531 340.996094 588.496094 402.894531 512.140625 402.894531 C 435.785156 402.894531 373.886719 340.996094 373.886719 264.640625 C 373.886719 188.28125 435.785156 126.386719 512.140625 126.386719 C 588.496094 126.386719 650.394531 188.28125 650.394531 264.640625 " clip-rule="nonzero"/></clipPath><clipPath id="ea7c49268a"><path d="M 468.230469 226.359375 L 477 226.359375 L 477 243 L 468.230469 243 Z M 468.230469 226.359375 " clip-rule="nonzero"/></clipPath><clipPath id="ed1da9815c"><path d="M 650.394531 264.640625 C 650.394531 340.996094 588.496094 402.894531 512.140625 402.894531 C 435.785156 402.894531 373.886719 340.996094 373.886719 264.640625 C 373.886719 188.28125 435.785156 126.386719 512.140625 126.386719 C 588.496094 126.386719 650.394531 188.28125 650.394531 264.640625 " clip-rule="nonzero"/></clipPath><clipPath id="107d15a7bc"><path d="M 470 228 L 475.46875 228 L 475.46875 235.207031 L 470 235.207031 Z M 470 228 " clip-rule="nonzero"/></clipPath><clipPath id="102e54037a"><path d="M 650.394531 264.640625 C 650.394531 340.996094 588.496094 402.894531 512.140625 402.894531 C 435.785156 402.894531 373.886719 340.996094 373.886719 264.640625 C 373.886719 188.28125 435.785156 126.386719 512.140625 126.386719 C 588.496094 126.386719 650.394531 188.28125 650.394531 264.640625 " clip-rule="nonzero"/></clipPath><clipPath id="a977c4cc42"><path d="M 475 185.34375 L 551 185.34375 L 551 285.871094 L 475 285.871094 Z M 475 185.34375 " clip-rule="nonzero"/></clipPath><clipPath id="f081431ab9"><path d="M 650.394531 264.640625 C 650.394531 340.996094 588.496094 402.894531 512.140625 402.894531 C 435.785156 402.894531 373.886719 340.996094 373.886719 264.640625 C 373.886719 188.28125 435.785156 126.386719 512.140625 126.386719 C 588.496094 126.386719 650.394531 188.28125 650.394531 264.640625 " clip-rule="nonzero"/></clipPath><clipPath id="8a5bd52e41"><path d="M 484 195 L 544.628906 195 L 544.628906 210 L 484 210 Z M 484 195 " clip-rule="nonzero"/></clipPath><clipPath id="ed0c3b8626"><path d="M 650.394531 264.640625 C 650.394531 340.996094 588.496094 402.894531 512.140625 402.894531 C 435.785156 402.894531 373.886719 340.996094 373.886719 264.640625 C 373.886719 188.28125 435.785156 126.386719 512.140625 126.386719 C 588.496094 126.386719 650.394531 188.28125 650.394531 264.640625 " clip-rule="nonzero"/></clipPath><clipPath id="dda2c1892a"><path d="M 512.460938 285.066406 L 514 285.066406 L 514 285.871094 L 512.460938 285.871094 Z M 512.460938 285.066406 " clip-rule="nonzero"/></clipPath><clipPath id="f7abe47040"><path d="M 650.394531 264.640625 C 650.394531 340.996094 588.496094 402.894531 512.140625 402.894531 C 435.785156 402.894531 373.886719 340.996094 373.886719 264.640625 C 373.886719 188.28125 435.785156 126.386719 512.140625 126.386719 C 588.496094 126.386719 650.394531 188.28125 650.394531 264.640625 " clip-rule="nonzero"/></clipPath><clipPath id="2917b9c93a"><path d="M 475 200.625 L 539.804688 200.625 L 539.804688 285.871094 L 475 285.871094 Z M 475 200.625 " clip-rule="nonzero"/></clipPath><clipPath id="7b691db39b"><path d="M 650.394531 264.640625 C 650.394531 340.996094 588.496094 402.894531 512.140625 402.894531 C 435.785156 402.894531 373.886719 340.996094 373.886719 264.640625 C 373.886719 188.28125 435.785156 126.386719 512.140625 126.386719 C 588.496094 126.386719 650.394531 188.28125 650.394531 264.640625 " clip-rule="nonzero"/></clipPath><clipPath id="44ec4a6578"><path d="M 483.511719 195 L 487.53125 195 L 487.53125 201 L 483.511719 201 Z M 483.511719 195 " clip-rule="nonzero"/></clipPath><clipPath id="2c3ae0d502"><path d="M 650.394531 264.640625 C 650.394531 340.996094 588.496094 402.894531 512.140625 402.894531 C 435.785156 402.894531 373.886719 340.996094 373.886719 264.640625 C 373.886719 188.28125 435.785156 126.386719 512.140625 126.386719 C 588.496094 126.386719 650.394531 188.28125 650.394531 264.640625 " clip-rule="nonzero"/></clipPath><clipPath id="c484a06c07"><path d="M 484 214.296875 L 505.222656 214.296875 L 505.222656 220.730469 L 484 220.730469 Z M 484 214.296875 " clip-rule="nonzero"/></clipPath><clipPath id="84f967bca8"><path d="M 650.394531 264.640625 C 650.394531 340.996094 588.496094 402.894531 512.140625 402.894531 C 435.785156 402.894531 373.886719 340.996094 373.886719 264.640625 C 373.886719 188.28125 435.785156 126.386719 512.140625 126.386719 C 588.496094 126.386719 650.394531 188.28125 650.394531 264.640625 " clip-rule="nonzero"/></clipPath><clipPath id="c51ce44fc8"><path d="M 519 214.296875 L 540.609375 214.296875 L 540.609375 220.730469 L 519 220.730469 Z M 519 214.296875 " clip-rule="nonzero"/></clipPath><clipPath id="838bcd879d"><path d="M 650.394531 264.640625 C 650.394531 340.996094 588.496094 402.894531 512.140625 402.894531 C 435.785156 402.894531 373.886719 340.996094 373.886719 264.640625 C 373.886719 188.28125 435.785156 126.386719 512.140625 126.386719 C 588.496094 126.386719 650.394531 188.28125 650.394531 264.640625 " clip-rule="nonzero"/></clipPath><clipPath id="da3231d524"><path d="M 505.222656 244.050781 L 519.699219 244.050781 L 519.699219 250.484375 L 505.222656 250.484375 Z M 505.222656 244.050781 " clip-rule="nonzero"/></clipPath><clipPath id="c861308f69"><path d="M 650.394531 264.640625 C 650.394531 340.996094 588.496094 402.894531 512.140625 402.894531 C 435.785156 402.894531 373.886719 340.996094 373.886719 264.640625 C 373.886719 188.28125 435.785156 126.386719 512.140625 126.386719 C 588.496094 126.386719 650.394531 188.28125 650.394531 264.640625 " clip-rule="nonzero"/></clipPath><clipPath id="afe692e906"><path d="M 497.183594 256.117188 L 528.546875 256.117188 L 528.546875 266.570312 L 497.183594 266.570312 Z M 497.183594 256.117188 " clip-rule="nonzero"/></clipPath><clipPath id="7b0dd5673d"><path d="M 650.394531 264.640625 C 650.394531 340.996094 588.496094 402.894531 512.140625 402.894531 C 435.785156 402.894531 373.886719 340.996094 373.886719 264.640625 C 373.886719 188.28125 435.785156 126.386719 512.140625 126.386719 C 588.496094 126.386719 650.394531 188.28125 650.394531 264.640625 " clip-rule="nonzero"/></clipPath><clipPath id="93b1ad4ebd"><path d="M 497.183594 256.117188 L 528.546875 256.117188 L 528.546875 262 L 497.183594 262 Z M 497.183594 256.117188 " clip-rule="nonzero"/></clipPath><clipPath id="106ba01b04"><path d="M 650.394531 264.640625 C 650.394531 340.996094 588.496094 402.894531 512.140625 402.894531 C 435.785156 402.894531 373.886719 340.996094 373.886719 264.640625 C 373.886719 188.28125 435.785156 126.386719 512.140625 126.386719 C 588.496094 126.386719 650.394531 188.28125 650.394531 264.640625 " clip-rule="nonzero"/></clipPath><clipPath id="31339cc29a"><path d="M 508 269.785156 L 517.289062 269.785156 L 517.289062 273.003906 L 508 273.003906 Z M 508 269.785156 " clip-rule="nonzero"/></clipPath><clipPath id="4d7bc90824"><path d="M 650.394531 264.640625 C 650.394531 340.996094 588.496094 402.894531 512.140625 402.894531 C 435.785156 402.894531 373.886719 340.996094 373.886719 264.640625 C 373.886719 188.28125 435.785156 126.386719 512.140625 126.386719 C 588.496094 126.386719 650.394531 188.28125 650.394531 264.640625 " clip-rule="nonzero"/></clipPath><clipPath id="bc1a843e00"><path d="M 506.027344 246.464844 L 519.699219 246.464844 L 519.699219 252.898438 L 506.027344 252.898438 Z M 506.027344 246.464844 " clip-rule="nonzero"/></clipPath><clipPath id="9bb5400d2b"><path d="M 650.394531 264.640625 C 650.394531 340.996094 588.496094 402.894531 512.140625 402.894531 C 435.785156 402.894531 373.886719 340.996094 373.886719 264.640625 C 373.886719 188.28125 435.785156 126.386719 512.140625 126.386719 C 588.496094 126.386719 650.394531 188.28125 650.394531 264.640625 " clip-rule="nonzero"/></clipPath><clipPath id="c4d90458c6"><path d="M 497.183594 256.117188 L 502 256.117188 L 502 261.746094 L 497.183594 261.746094 Z M 497.183594 256.117188 " clip-rule="nonzero"/></clipPath><clipPath id="041d3b3ee4"><path d="M 650.394531 264.640625 C 650.394531 340.996094 588.496094 402.894531 512.140625 402.894531 C 435.785156 402.894531 373.886719 340.996094 373.886719 264.640625 C 373.886719 188.28125 435.785156 126.386719 512.140625 126.386719 C 588.496094 126.386719 650.394531 188.28125 650.394531 264.640625 " clip-rule="nonzero"/></clipPath><clipPath id="8e9a11df95"><path d="M 523.722656 256.117188 L 528.546875 256.117188 L 528.546875 261.746094 L 523.722656 261.746094 Z M 523.722656 256.117188 " clip-rule="nonzero"/></clipPath><clipPath id="7d0687a892"><path d="M 650.394531 264.640625 C 650.394531 340.996094 588.496094 402.894531 512.140625 402.894531 C 435.785156 402.894531 373.886719 340.996094 373.886719 264.640625 C 373.886719 188.28125 435.785156 126.386719 512.140625 126.386719 C 588.496094 126.386719 650.394531 188.28125 650.394531 264.640625 " clip-rule="nonzero"/></clipPath><clipPath id="2ad3167d67"><path d="M 470 158 L 560.714844 158 L 560.714844 227.96875 L 470 227.96875 Z M 470 158 " clip-rule="nonzero"/></clipPath><clipPath id="d8141e9890"><path d="M 650.394531 264.640625 C 650.394531 340.996094 588.496094 402.894531 512.140625 402.894531 C 435.785156 402.894531 373.886719 340.996094 373.886719 264.640625 C 373.886719 188.28125 435.785156 126.386719 512.140625 126.386719 C 588.496094 126.386719 650.394531 188.28125 650.394531 264.640625 " clip-rule="nonzero"/></clipPath><clipPath id="1342a04c78"><path d="M 472 178.910156 L 542 178.910156 L 542 195.800781 L 472 195.800781 Z M 472 178.910156 " clip-rule="nonzero"/></clipPath><clipPath id="43c902bcef"><path d="M 650.394531 264.640625 C 650.394531 340.996094 588.496094 402.894531 512.140625 402.894531 C 435.785156 402.894531 373.886719 340.996094 373.886719 264.640625 C 373.886719 188.28125 435.785156 126.386719 512.140625 126.386719 C 588.496094 126.386719 650.394531 188.28125 650.394531 264.640625 " clip-rule="nonzero"/></clipPath><clipPath id="7fcdb05abe"><path d="M 465.011719 383.179688 L 556.695312 383.179688 L 556.695312 402.882812 L 465.011719 402.882812 Z M 465.011719 383.179688 " clip-rule="nonzero"/></clipPath><clipPath id="60d566573b"><path d="M 650.394531 264.640625 C 650.394531 340.996094 588.496094 402.894531 512.140625 402.894531 C 435.785156 402.894531 373.886719 340.996094 373.886719 264.640625 C 373.886719 188.28125 435.785156 126.386719 512.140625 126.386719 C 588.496094 126.386719 650.394531 188.28125 650.394531 264.640625 " clip-rule="nonzero"/></clipPath><clipPath id="12f70a46cb"><path d="M 496 229 L 502.8125 229 L 502.8125 241.640625 L 496 241.640625 Z M 496 229 " clip-rule="nonzero"/></clipPath><clipPath id="4e4a8783c2"><path d="M 650.394531 264.640625 C 650.394531 340.996094 588.496094 402.894531 512.140625 402.894531 C 435.785156 402.894531 373.886719 340.996094 373.886719 264.640625 C 373.886719 188.28125 435.785156 126.386719 512.140625 126.386719 C 588.496094 126.386719 650.394531 188.28125 650.394531 264.640625 " clip-rule="nonzero"/></clipPath><clipPath id="c16cab4b7c"><path d="M 522.113281 229 L 529.351562 229 L 529.351562 241.640625 L 522.113281 241.640625 Z M 522.113281 229 " clip-rule="nonzero"/></clipPath><clipPath id="bf0695d169"><path d="M 650.394531 264.640625 C 650.394531 340.996094 588.496094 402.894531 512.140625 402.894531 C 435.785156 402.894531 373.886719 340.996094 373.886719 264.640625 C 373.886719 188.28125 435.785156 126.386719 512.140625 126.386719 C 588.496094 126.386719 650.394531 188.28125 650.394531 264.640625 " clip-rule="nonzero"/></clipPath></defs><g clip-path="url(#b7e223e57f)"><g clip-path="url(#d31d8e95a5)"><path fill="#82d7f6" d="M 650.394531 264.640625 C 650.394531 340.996094 588.496094 402.894531 512.140625 402.894531 C 435.785156 402.894531 373.886719 340.996094 373.886719 264.640625 C 373.886719 188.28125 435.785156 126.386719 512.140625 126.386719 C 588.496094 126.386719 650.394531 188.28125 650.394531 264.640625 " fill-opacity="1" fill-rule="nonzero"/></g></g><g clip-path="url(#b6dc836967)"><g clip-path="url(#0da1a60789)"><path fill="#f0a176" d="M 580.644531 415.644531 C 582.710938 381.105469 584.871094 342.792969 584.871094 342.792969 L 564.957031 359.699219 C 565.3125 365.722656 566.097656 390.980469 566.816406 415.644531 L 580.644531 415.644531 " fill-opacity="1" fill-rule="nonzero"/></g></g><g clip-path="url(#d76598e254)"><g clip-path="url(#dbbbabb2bf)"><path fill="#b7977b" d="M 564.957031 359.699219 L 567.722656 357.347656 L 564.957031 359.699219 " fill-opacity="1" fill-rule="nonzero"/></g></g><g clip-path="url(#e8f8be56d8)"><g clip-path="url(#381ea8a76e)"><path fill="#d6855a" d="M 566.105469 391.964844 C 565.628906 376.527344 565.195312 363.753906 564.957031 359.699219 L 567.722656 357.347656 L 584.34375 352.101562 C 583.941406 359.207031 583.332031 369.796875 582.640625 381.753906 C 579.292969 383.734375 575.5625 385.382812 572.066406 385.683594 L 571.96875 389.3125 C 570.039062 390.242188 568.085938 391.125 566.105469 391.964844 " fill-opacity="1" fill-rule="nonzero"/></g></g><g clip-path="url(#49a85fd684)"><g clip-path="url(#1f48e7dbd7)"><path fill="#3583b0" d="M 565.03125 307.976562 C 565.03125 307.976562 576.207031 311.714844 580.765625 321.09375 C 585.320312 330.476562 592.027344 364.792969 592.027344 364.792969 C 592.027344 364.792969 584.515625 380.070312 561.734375 374.707031 C 561.734375 374.707031 545.542969 308.804688 565.03125 307.976562 " fill-opacity="1" fill-rule="nonzero"/></g></g><g clip-path="url(#81082e1b87)"><g clip-path="url(#d20bd442c5)"><path fill="#337393" d="M 556.171875 319.445312 C 552.847656 338.527344 561.734375 374.707031 561.734375 374.707031 C 563.980469 375.238281 566.078125 375.558594 568.039062 375.71875 C 570.695312 363.308594 577.777344 322.351562 556.171875 319.445312 " fill-opacity="1" fill-rule="nonzero"/></g></g><g clip-path="url(#cbf273e48f)"><g clip-path="url(#fe2de4780b)"><path fill="#f0a176" d="M 458.074219 415.644531 C 458.792969 390.980469 459.574219 365.722656 459.9375 359.699219 L 440.015625 342.792969 C 440.015625 342.792969 442.179688 381.105469 444.242188 415.644531 L 458.074219 415.644531 " fill-opacity="1" fill-rule="nonzero"/></g></g><g clip-path="url(#3e5fbcecb9)"><g clip-path="url(#282091b04c)"><path fill="#b7977b" d="M 442.097656 379.113281 C 441.464844 368.242188 440.917969 358.679688 440.542969 352.101562 C 440.917969 358.683594 441.464844 368.242188 442.097656 379.113281 " fill-opacity="1" fill-rule="nonzero"/></g></g><g clip-path="url(#8edc6c1961)"><g clip-path="url(#21076ce303)"><path fill="#d6855a" d="M 458.773438 392.21875 C 456.800781 391.394531 454.851562 390.523438 452.925781 389.605469 L 452.820312 385.683594 C 449.328125 385.382812 445.597656 383.734375 442.246094 381.753906 C 442.195312 380.863281 442.144531 379.984375 442.097656 379.113281 C 441.464844 368.242188 440.917969 358.683594 440.542969 352.101562 L 457.164062 357.347656 L 459.9375 359.699219 C 459.691406 363.777344 459.253906 376.664062 458.773438 392.21875 " fill-opacity="1" fill-rule="nonzero"/></g></g><g clip-path="url(#42336599eb)"><g clip-path="url(#1a27598ac0)"><path fill="#3583b0" d="M 459.25 307.976562 C 459.25 307.976562 448.074219 311.714844 443.515625 321.09375 C 438.957031 330.476562 432.257812 364.792969 432.257812 364.792969 C 432.257812 364.792969 439.761719 380.070312 462.550781 374.707031 C 462.550781 374.707031 478.734375 308.804688 459.25 307.976562 " fill-opacity="1" fill-rule="nonzero"/></g></g><g clip-path="url(#d52f8feda6)"><g clip-path="url(#7414fc463b)"><path fill="#337393" d="M 462.550781 374.707031 C 462.550781 374.707031 474.386719 326.492188 465.621094 312.03125 C 464.773438 312.085938 463.890625 312.238281 462.953125 312.515625 C 439.453125 319.429688 452.371094 363.460938 456.472656 375.707031 C 458.367188 375.539062 460.386719 375.21875 462.550781 374.707031 " fill-opacity="1" fill-rule="nonzero"/></g></g><g clip-path="url(#fc8c16a6df)"><g clip-path="url(#c2ab9abade)"><path fill="#3583b0" d="M 554.777344 415.644531 C 560.226562 375.960938 568.351562 314.269531 567.09375 308.496094 C 567.09375 308.496094 534.621094 297.769531 528.992188 295.089844 L 512.390625 297.707031 L 495.789062 295.089844 C 490.160156 297.769531 457.691406 308.496094 457.691406 308.496094 C 456.425781 314.269531 464.558594 375.960938 470 415.644531 L 554.777344 415.644531 " fill-opacity="1" fill-rule="nonzero"/></g></g><g clip-path="url(#6832b2a518)"><g clip-path="url(#f752839514)"><path fill="#da8b65" d="M 527.277344 271.503906 L 512.742188 275.722656 L 498.203125 271.503906 C 498.203125 271.503906 497.058594 291.609375 493.640625 296.230469 C 493.640625 296.230469 503.292969 305.882812 512.742188 306.285156 C 522.191406 305.882812 531.839844 296.230469 531.839844 296.230469 C 528.421875 291.609375 527.277344 271.503906 527.277344 271.503906 " fill-opacity="1" fill-rule="nonzero"/></g></g><g clip-path="url(#c1ec7baa4e)"><g clip-path="url(#0b91aaec44)"><path fill="#908475" d="M 529.613281 290.101562 C 528.839844 286.671875 528.292969 282.550781 527.917969 279.0625 L 527.921875 279.058594 C 528.292969 282.550781 528.84375 286.671875 529.613281 290.101562 " fill-opacity="1" fill-rule="nonzero"/></g></g><g clip-path="url(#f3b769e281)"><g clip-path="url(#f8e4577b85)"><path fill="#b06749" d="M 522.996094 290.453125 C 508.519531 290.453125 500.066406 285.230469 497.09375 282.976562 C 497.277344 281.613281 497.433594 280.273438 497.566406 279.015625 C 503.09375 282.863281 508.632812 285.21875 512.742188 285.21875 C 512.746094 285.21875 512.75 285.21875 512.757812 285.21875 C 512.761719 285.21875 512.761719 285.21875 512.761719 285.21875 C 512.769531 285.21875 512.773438 285.21875 512.777344 285.21875 C 512.777344 285.21875 512.78125 285.21875 512.78125 285.21875 C 512.789062 285.21875 512.792969 285.21875 512.800781 285.21875 C 512.804688 285.21875 512.804688 285.21875 512.804688 285.21875 C 512.808594 285.21875 512.8125 285.21875 512.820312 285.21875 C 512.824219 285.21875 512.824219 285.21875 512.828125 285.21875 C 512.832031 285.21875 512.835938 285.21875 512.84375 285.21875 C 512.851562 285.21875 512.859375 285.21875 512.863281 285.21875 C 512.867188 285.21875 512.867188 285.21875 512.867188 285.21875 C 512.875 285.21875 512.878906 285.21875 512.882812 285.21875 C 512.886719 285.21875 512.886719 285.21875 512.890625 285.21875 C 512.894531 285.21875 512.902344 285.21875 512.90625 285.21875 C 512.914062 285.21875 512.921875 285.21875 512.925781 285.21875 C 512.925781 285.21875 512.929688 285.21875 512.933594 285.21875 C 512.9375 285.21875 512.941406 285.21875 512.945312 285.21875 C 512.949219 285.21875 512.949219 285.21875 512.953125 285.21875 C 512.957031 285.21875 512.964844 285.21875 512.972656 285.21875 C 512.976562 285.21875 512.984375 285.21875 512.988281 285.21875 C 512.988281 285.21875 512.992188 285.21875 512.992188 285.21875 C 513.007812 285.214844 513.019531 285.214844 513.035156 285.214844 C 513.042969 285.214844 513.046875 285.214844 513.050781 285.214844 C 513.050781 285.214844 513.054688 285.214844 513.054688 285.214844 C 513.0625 285.214844 513.070312 285.214844 513.078125 285.214844 C 513.082031 285.214844 513.089844 285.214844 513.097656 285.214844 C 513.105469 285.214844 513.113281 285.214844 513.117188 285.210938 C 513.125 285.210938 513.132812 285.210938 513.140625 285.210938 C 513.148438 285.210938 513.152344 285.210938 513.160156 285.210938 C 513.160156 285.210938 513.164062 285.210938 513.164062 285.210938 C 513.179688 285.210938 513.191406 285.210938 513.203125 285.207031 L 513.207031 285.207031 C 513.226562 285.207031 513.246094 285.207031 513.269531 285.207031 C 513.285156 285.207031 513.296875 285.207031 513.308594 285.207031 L 513.3125 285.207031 C 513.320312 285.207031 513.324219 285.207031 513.332031 285.207031 C 513.332031 285.207031 513.332031 285.207031 513.335938 285.207031 C 513.347656 285.203125 513.359375 285.203125 513.375 285.203125 C 517.398438 284.980469 522.664062 282.6875 527.917969 279.0625 C 528.292969 282.550781 528.839844 286.671875 529.613281 290.101562 C 527.28125 290.34375 525.074219 290.453125 522.996094 290.453125 " fill-opacity="1" fill-rule="nonzero"/></g></g><g clip-path="url(#7ab87b21c3)"><g clip-path="url(#18192fdac5)"><path fill="#d17a50" d="M 545.394531 233.816406 C 544.90625 240.351562 547.746094 245.894531 551.738281 246.191406 C 555.730469 246.488281 559.359375 241.433594 559.851562 234.894531 C 560.335938 228.359375 557.496094 222.820312 553.503906 222.519531 C 549.511719 222.222656 545.882812 227.28125 545.394531 233.816406 " fill-opacity="1" fill-rule="nonzero"/></g></g><g clip-path="url(#e2c2261e07)"><g clip-path="url(#fc2c22317a)"><path fill="#ba6449" d="M 552.546875 242.539062 C 551.671875 242.539062 550.839844 241.691406 550.4375 238.929688 C 550.4375 238.929688 555.324219 237.566406 551.070312 235.664062 L 550.296875 235.371094 C 550.300781 234.71875 550.300781 234.078125 550.300781 233.445312 C 550.300781 232.160156 550.285156 230.851562 550.246094 229.527344 C 550.746094 228.234375 551.644531 227.234375 553.238281 227.234375 C 553.292969 227.234375 553.34375 227.234375 553.398438 227.238281 C 557.378906 227.402344 557.066406 232.191406 557.113281 232.191406 C 557.125 232.191406 557.144531 232.046875 557.199219 231.699219 C 557.199219 231.699219 557.171875 233.546875 556.164062 233.78125 C 556.164062 233.78125 556.816406 229.996094 553.398438 229.191406 C 553.398438 229.191406 555.691406 230.496094 555.296875 236.074219 C 555.296875 236.074219 555.207031 233.410156 551.890625 232.632812 C 551.890625 232.632812 556.871094 236.828125 552.621094 239.59375 C 552.621094 239.59375 552.703125 241.132812 553.789062 241.132812 C 554.1875 241.132812 554.714844 240.929688 555.425781 240.375 C 555.425781 240.375 553.933594 242.539062 552.546875 242.539062 " fill-opacity="1" fill-rule="nonzero"/></g></g><g clip-path="url(#37e5f81ede)"><g clip-path="url(#99a7fe6173)"><path fill="#9a4f36" d="M 557.210938 232.769531 C 557.226562 232.046875 557.121094 231.320312 556.910156 230.636719 C 556.808594 230.296875 556.664062 229.964844 556.484375 229.660156 C 556.316406 229.351562 556.113281 229.0625 555.867188 228.8125 C 555.757812 228.679688 555.632812 228.558594 555.492188 228.453125 C 555.359375 228.34375 555.230469 228.226562 555.074219 228.148438 C 554.785156 227.949219 554.464844 227.816406 554.140625 227.683594 C 553.804688 227.59375 553.46875 227.476562 553.132812 227.441406 C 552.78125 227.402344 552.480469 227.417969 552.167969 227.523438 C 551.5625 227.726562 551.105469 228.242188 550.800781 228.847656 C 550.484375 229.453125 550.300781 230.140625 550.164062 230.832031 C 550.035156 231.53125 549.96875 232.242188 549.929688 232.953125 C 549.914062 233.3125 549.90625 233.667969 549.90625 234.027344 L 549.921875 235.113281 L 549.679688 234.792969 C 550.265625 234.972656 550.820312 235.1875 551.375 235.453125 C 551.652344 235.585938 551.921875 235.734375 552.183594 235.914062 C 552.441406 236.09375 552.699219 236.300781 552.902344 236.609375 C 553.003906 236.761719 553.070312 236.960938 553.09375 237.167969 C 553.09375 237.378906 553.046875 237.601562 552.941406 237.757812 C 552.742188 238.082031 552.464844 238.277344 552.203125 238.457031 C 551.660156 238.785156 551.09375 239.003906 550.519531 239.183594 L 550.703125 238.894531 C 550.789062 239.589844 550.953125 240.304688 551.222656 240.953125 C 551.363281 241.273438 551.53125 241.582031 551.753906 241.835938 C 551.867188 241.957031 551.988281 242.070312 552.128906 242.144531 C 552.265625 242.230469 552.421875 242.269531 552.578125 242.289062 C 552.734375 242.304688 552.898438 242.285156 553.0625 242.25 C 553.226562 242.195312 553.386719 242.132812 553.539062 242.046875 C 553.847656 241.878906 554.136719 241.660156 554.398438 241.414062 C 554.933594 240.921875 555.402344 240.351562 555.859375 239.773438 C 555.46875 240.394531 555.042969 241.003906 554.53125 241.546875 C 554.277344 241.820312 553.996094 242.070312 553.675781 242.28125 C 553.519531 242.386719 553.339844 242.46875 553.15625 242.542969 C 552.964844 242.601562 552.761719 242.648438 552.554688 242.636719 C 552.347656 242.621094 552.136719 242.574219 551.953125 242.46875 C 551.765625 242.378906 551.609375 242.246094 551.464844 242.105469 C 551.1875 241.816406 550.984375 241.480469 550.820312 241.132812 C 550.496094 240.441406 550.296875 239.71875 550.164062 238.964844 L 550.128906 238.753906 L 550.347656 238.671875 C 550.886719 238.464844 551.421875 238.25 551.882812 237.960938 C 552.105469 237.808594 552.3125 237.636719 552.417969 237.457031 C 552.480469 237.367188 552.480469 237.285156 552.488281 237.203125 C 552.46875 237.121094 552.453125 237.03125 552.382812 236.941406 C 552.125 236.5625 551.597656 236.269531 551.097656 236.027344 C 550.585938 235.792969 550.035156 235.59375 549.496094 235.433594 L 549.265625 235.371094 L 549.253906 235.113281 C 549.238281 234.777344 549.226562 234.386719 549.234375 234.023438 C 549.238281 233.652344 549.25 233.285156 549.273438 232.914062 C 549.324219 232.179688 549.40625 231.441406 549.554688 230.714844 C 549.707031 229.984375 549.90625 229.257812 550.277344 228.570312 C 550.457031 228.234375 550.675781 227.898438 550.964844 227.621094 C 551.253906 227.34375 551.621094 227.125 552.011719 227.011719 C 552.394531 226.890625 552.839844 226.898438 553.203125 226.960938 C 553.589844 227.019531 553.9375 227.15625 554.296875 227.277344 C 554.640625 227.433594 554.988281 227.589844 555.292969 227.820312 C 555.457031 227.917969 555.59375 228.054688 555.734375 228.179688 C 555.878906 228.300781 556.007812 228.4375 556.125 228.585938 C 556.246094 228.730469 556.363281 228.882812 556.453125 229.046875 C 556.554688 229.207031 556.652344 229.367188 556.722656 229.539062 C 556.886719 229.875 557.007812 230.230469 557.085938 230.589844 C 557.261719 231.304688 557.304688 232.046875 557.210938 232.769531 " fill-opacity="1" fill-rule="nonzero"/></g></g><g clip-path="url(#0e374fade9)"><g clip-path="url(#9eaf6696cf)"><path fill="#9a4f36" d="M 555.410156 235.171875 C 555.410156 235.171875 555.429688 234.582031 555.3125 233.71875 C 555.253906 233.285156 555.15625 232.785156 554.992188 232.273438 C 554.914062 232.015625 554.824219 231.757812 554.699219 231.503906 C 554.597656 231.238281 554.433594 231.003906 554.296875 230.765625 C 554.128906 230.542969 553.964844 230.316406 553.765625 230.136719 C 553.558594 229.960938 553.375 229.773438 553.136719 229.671875 C 553.027344 229.609375 552.921875 229.550781 552.816406 229.492188 C 552.699219 229.453125 552.585938 229.417969 552.476562 229.386719 C 552.367188 229.351562 552.261719 229.320312 552.15625 229.289062 C 552.050781 229.277344 551.945312 229.265625 551.84375 229.257812 C 551.640625 229.246094 551.464844 229.203125 551.292969 229.222656 C 551.125 229.234375 550.984375 229.246094 550.867188 229.257812 C 550.628906 229.277344 550.492188 229.289062 550.492188 229.289062 L 550.398438 228.488281 C 550.398438 228.488281 550.550781 228.488281 550.828125 228.488281 C 550.964844 228.488281 551.128906 228.488281 551.320312 228.488281 C 551.507812 228.484375 551.722656 228.550781 551.957031 228.585938 C 552.074219 228.613281 552.191406 228.632812 552.316406 228.65625 C 552.433594 228.703125 552.558594 228.757812 552.683594 228.804688 C 552.8125 228.855469 552.941406 228.910156 553.070312 228.964844 C 553.191406 229.046875 553.3125 229.125 553.4375 229.207031 C 553.695312 229.355469 553.894531 229.59375 554.113281 229.804688 C 554.316406 230.03125 554.480469 230.296875 554.640625 230.554688 C 554.769531 230.828125 554.917969 231.097656 555 231.378906 C 555.105469 231.65625 555.175781 231.9375 555.238281 232.207031 C 555.363281 232.753906 555.414062 233.269531 555.4375 233.707031 C 555.480469 234.585938 555.410156 235.171875 555.410156 235.171875 " fill-opacity="1" fill-rule="nonzero"/></g></g><g clip-path="url(#627a168b18)"><g clip-path="url(#2ff421e0d1)"><path fill="#d17a50" d="M 480.234375 233.816406 C 480.71875 240.351562 477.878906 245.894531 473.886719 246.191406 C 469.894531 246.488281 466.261719 241.433594 465.777344 234.894531 C 465.289062 228.359375 468.132812 222.820312 472.121094 222.519531 C 476.113281 222.222656 479.742188 227.28125 480.234375 233.816406 " fill-opacity="1" fill-rule="nonzero"/></g></g><g clip-path="url(#3eab59943b)"><g clip-path="url(#24b6b6f5f9)"><path fill="#ba6449" d="M 472.9375 242.296875 C 472.816406 242.296875 472.691406 242.277344 472.566406 242.25 C 472.402344 242.195312 472.242188 242.132812 472.085938 242.046875 C 471.78125 241.878906 471.492188 241.660156 471.226562 241.410156 C 470.914062 241.125 470.628906 240.808594 470.351562 240.488281 C 470.984375 240.957031 471.46875 241.132812 471.835938 241.132812 C 472.921875 241.132812 473.003906 239.59375 473.003906 239.59375 C 468.753906 236.828125 473.738281 232.632812 473.738281 232.632812 C 470.417969 233.410156 470.324219 236.074219 470.324219 236.074219 C 470.257812 235.113281 470.273438 234.277344 470.339844 233.550781 C 470.398438 233.160156 470.492188 232.722656 470.632812 232.273438 C 470.714844 232.015625 470.804688 231.753906 470.929688 231.503906 C 471.027344 231.238281 471.191406 231.003906 471.332031 230.765625 C 471.496094 230.539062 471.664062 230.316406 471.863281 230.136719 C 472.070312 229.960938 472.253906 229.773438 472.488281 229.671875 C 472.601562 229.609375 472.703125 229.546875 472.808594 229.492188 C 472.925781 229.453125 473.039062 229.417969 473.148438 229.386719 C 473.257812 229.351562 473.367188 229.320312 473.46875 229.289062 C 473.578125 229.277344 473.683594 229.265625 473.785156 229.257812 C 473.953125 229.25 474.105469 229.214844 474.246094 229.214844 C 474.273438 229.214844 474.304688 229.21875 474.332031 229.222656 C 474.5 229.234375 474.644531 229.246094 474.761719 229.257812 C 474.875 229.265625 474.960938 229.273438 475.023438 229.277344 C 475.101562 229.464844 475.167969 229.65625 475.222656 229.847656 C 475.195312 231.0625 475.183594 232.265625 475.183594 233.445312 C 475.183594 233.808594 475.183594 234.171875 475.183594 234.539062 C 475.183594 234.710938 475.183594 234.882812 475.183594 235.054688 C 474.867188 235.175781 474.558594 235.304688 474.253906 235.453125 C 473.976562 235.585938 473.707031 235.734375 473.445312 235.914062 C 473.183594 236.09375 472.925781 236.300781 472.726562 236.609375 C 472.621094 236.761719 472.550781 236.960938 472.535156 237.167969 C 472.53125 237.378906 472.582031 237.601562 472.683594 237.757812 C 472.886719 238.082031 473.160156 238.277344 473.425781 238.457031 C 473.898438 238.742188 474.390625 238.949219 474.890625 239.113281 C 474.796875 239.738281 474.640625 240.375 474.398438 240.953125 C 474.265625 241.273438 474.09375 241.582031 473.871094 241.835938 C 473.757812 241.957031 473.636719 242.070312 473.5 242.144531 C 473.363281 242.230469 473.207031 242.269531 473.050781 242.289062 C 473.015625 242.292969 472.976562 242.296875 472.9375 242.296875 M 469.460938 233.78125 C 468.703125 233.605469 468.5 232.496094 468.445312 231.976562 C 468.449219 231.945312 468.453125 231.914062 468.457031 231.882812 C 468.492188 232.097656 468.503906 232.191406 468.507812 232.191406 C 468.523438 232.191406 468.507812 231.746094 468.589844 231.121094 C 468.625 230.957031 468.667969 230.796875 468.71875 230.636719 C 468.820312 230.296875 468.960938 229.964844 469.140625 229.660156 C 469.3125 229.351562 469.515625 229.0625 469.761719 228.8125 C 469.871094 228.679688 469.996094 228.558594 470.136719 228.453125 C 470.269531 228.34375 470.398438 228.226562 470.554688 228.148438 C 470.839844 227.949219 471.164062 227.816406 471.488281 227.683594 C 471.820312 227.59375 472.160156 227.476562 472.496094 227.441406 C 472.613281 227.425781 472.722656 227.421875 472.828125 227.421875 C 473.046875 227.421875 473.25 227.453125 473.457031 227.523438 C 473.9375 227.683594 474.332031 228.042969 474.621094 228.488281 C 474.527344 228.488281 474.421875 228.488281 474.308594 228.488281 C 474.304688 228.488281 474.300781 228.488281 474.300781 228.488281 C 474.113281 228.488281 473.898438 228.550781 473.671875 228.585938 C 473.554688 228.613281 473.433594 228.632812 473.308594 228.65625 C 473.195312 228.703125 473.066406 228.753906 472.9375 228.804688 C 472.816406 228.855469 472.683594 228.910156 472.554688 228.964844 C 472.441406 229.039062 472.328125 229.113281 472.214844 229.191406 C 468.8125 230.003906 469.460938 233.78125 469.460938 233.78125 M 469.6875 228.375 C 469.921875 228.101562 470.210938 227.863281 470.550781 227.675781 C 470.476562 227.71875 470.402344 227.769531 470.335938 227.820312 C 470.171875 227.917969 470.035156 228.054688 469.890625 228.179688 C 469.820312 228.242188 469.75 228.304688 469.6875 228.375 " fill-opacity="1" fill-rule="nonzero"/></g></g><g clip-path="url(#ea7c49268a)"><g clip-path="url(#ed1da9815c)"><path fill="#9a4f36" d="M 468.414062 232.769531 C 468.324219 232.046875 468.363281 231.304688 468.542969 230.589844 C 468.621094 230.226562 468.742188 229.875 468.90625 229.539062 C 468.972656 229.367188 469.070312 229.207031 469.171875 229.046875 C 469.261719 228.882812 469.378906 228.730469 469.503906 228.585938 C 469.617188 228.4375 469.746094 228.300781 469.890625 228.179688 C 470.035156 228.054688 470.171875 227.917969 470.335938 227.820312 C 470.640625 227.589844 470.984375 227.433594 471.332031 227.277344 C 471.6875 227.15625 472.039062 227.019531 472.425781 226.960938 C 472.789062 226.898438 473.234375 226.890625 473.613281 227.011719 C 474.007812 227.125 474.375 227.34375 474.660156 227.621094 C 474.953125 227.898438 475.167969 228.234375 475.351562 228.570312 C 475.71875 229.257812 475.921875 229.984375 476.074219 230.714844 C 476.222656 231.441406 476.304688 232.179688 476.355469 232.914062 C 476.375 233.285156 476.386719 233.652344 476.390625 234.023438 C 476.402344 234.386719 476.386719 234.777344 476.371094 235.113281 L 476.363281 235.371094 L 476.128906 235.433594 C 475.589844 235.59375 475.039062 235.789062 474.527344 236.027344 C 474.027344 236.269531 473.5 236.5625 473.242188 236.941406 C 473.175781 237.03125 473.15625 237.121094 473.140625 237.203125 C 473.144531 237.285156 473.144531 237.367188 473.210938 237.457031 C 473.308594 237.636719 473.519531 237.808594 473.738281 237.960938 C 474.203125 238.25 474.742188 238.464844 475.28125 238.671875 L 475.496094 238.753906 L 475.460938 238.964844 C 475.328125 239.71875 475.132812 240.441406 474.804688 241.132812 C 474.636719 241.480469 474.4375 241.816406 474.160156 242.105469 C 474.015625 242.246094 473.859375 242.378906 473.675781 242.46875 C 473.492188 242.574219 473.277344 242.621094 473.074219 242.636719 C 472.863281 242.648438 472.664062 242.601562 472.472656 242.542969 C 472.289062 242.46875 472.109375 242.386719 471.953125 242.28125 C 471.632812 242.070312 471.347656 241.820312 471.09375 241.546875 C 470.582031 241.003906 470.160156 240.394531 469.769531 239.773438 C 470.226562 240.351562 470.691406 240.917969 471.226562 241.410156 C 471.492188 241.660156 471.78125 241.878906 472.085938 242.046875 C 472.242188 242.132812 472.402344 242.195312 472.566406 242.25 C 472.730469 242.285156 472.890625 242.304688 473.050781 242.289062 C 473.207031 242.269531 473.363281 242.230469 473.5 242.144531 C 473.636719 242.070312 473.757812 241.957031 473.871094 241.835938 C 474.09375 241.582031 474.265625 241.273438 474.398438 240.953125 C 474.671875 240.304688 474.835938 239.589844 474.921875 238.894531 L 475.105469 239.183594 C 474.53125 239.003906 473.964844 238.785156 473.425781 238.457031 C 473.160156 238.277344 472.886719 238.082031 472.683594 237.757812 C 472.582031 237.601562 472.53125 237.378906 472.535156 237.167969 C 472.550781 236.960938 472.621094 236.761719 472.726562 236.609375 C 472.925781 236.300781 473.183594 236.09375 473.445312 235.914062 C 473.707031 235.734375 473.976562 235.585938 474.253906 235.453125 C 474.804688 235.1875 475.359375 234.972656 475.949219 234.792969 L 475.707031 235.113281 L 475.71875 234.027344 C 475.722656 233.667969 475.714844 233.3125 475.699219 232.953125 C 475.660156 232.242188 475.589844 231.53125 475.460938 230.832031 C 475.328125 230.140625 475.144531 229.453125 474.828125 228.847656 C 474.523438 228.242188 474.0625 227.726562 473.457031 227.523438 C 473.144531 227.417969 472.84375 227.402344 472.496094 227.441406 C 472.160156 227.476562 471.820312 227.59375 471.488281 227.683594 C 471.164062 227.816406 470.839844 227.949219 470.554688 228.148438 C 470.398438 228.226562 470.269531 228.34375 470.136719 228.453125 C 469.996094 228.558594 469.871094 228.679688 469.761719 228.8125 C 469.515625 229.0625 469.3125 229.351562 469.140625 229.660156 C 468.960938 229.964844 468.820312 230.296875 468.71875 230.636719 C 468.507812 231.320312 468.398438 232.046875 468.414062 232.769531 " fill-opacity="1" fill-rule="nonzero"/></g></g><g clip-path="url(#107d15a7bc)"><g clip-path="url(#102e54037a)"><path fill="#9a4f36" d="M 470.21875 235.171875 C 470.21875 235.171875 470.144531 234.585938 470.191406 233.707031 C 470.210938 233.269531 470.265625 232.753906 470.386719 232.207031 C 470.449219 231.9375 470.515625 231.65625 470.625 231.378906 C 470.707031 231.097656 470.859375 230.828125 470.988281 230.554688 C 471.148438 230.296875 471.3125 230.03125 471.515625 229.804688 C 471.734375 229.589844 471.929688 229.355469 472.191406 229.207031 C 472.3125 229.125 472.4375 229.046875 472.554688 228.964844 C 472.683594 228.910156 472.816406 228.855469 472.9375 228.804688 C 473.066406 228.753906 473.195312 228.703125 473.308594 228.65625 C 473.433594 228.632812 473.554688 228.613281 473.671875 228.585938 C 473.902344 228.550781 474.121094 228.484375 474.308594 228.488281 C 474.496094 228.488281 474.664062 228.488281 474.796875 228.488281 C 475.074219 228.488281 475.230469 228.488281 475.230469 228.488281 L 475.136719 229.289062 C 475.136719 229.289062 475 229.277344 474.761719 229.257812 C 474.644531 229.246094 474.5 229.234375 474.332031 229.222656 C 474.164062 229.199219 473.984375 229.246094 473.785156 229.257812 C 473.683594 229.265625 473.578125 229.277344 473.46875 229.289062 C 473.367188 229.320312 473.257812 229.351562 473.148438 229.386719 C 473.039062 229.417969 472.925781 229.453125 472.808594 229.492188 C 472.703125 229.546875 472.601562 229.609375 472.488281 229.671875 C 472.253906 229.773438 472.070312 229.960938 471.863281 230.136719 C 471.664062 230.316406 471.496094 230.539062 471.332031 230.765625 C 471.191406 231.003906 471.027344 231.238281 470.929688 231.503906 C 470.804688 231.753906 470.714844 232.015625 470.632812 232.273438 C 470.46875 232.785156 470.371094 233.285156 470.316406 233.71875 C 470.195312 234.582031 470.21875 235.171875 470.21875 235.171875 " fill-opacity="1" fill-rule="nonzero"/></g></g><g clip-path="url(#a977c4cc42)"><g clip-path="url(#f081431ab9)"><path fill="#f0a176" d="M 550.300781 233.445312 C 550.300781 239.84375 550.292969 247.222656 547.921875 254.367188 C 542.605469 270.378906 523.046875 285.21875 512.742188 285.21875 C 502.285156 285.21875 482.546875 269.949219 477.332031 253.667969 C 475.113281 246.746094 475.183594 239.636719 475.183594 233.445312 C 475.183594 212.703125 479.019531 185.554688 512.742188 185.554688 C 546.460938 185.554688 550.300781 212.703125 550.300781 233.445312 " fill-opacity="1" fill-rule="nonzero"/></g></g><g clip-path="url(#8a5bd52e41)"><g clip-path="url(#ed0c3b8626)"><path fill="#d6855a" d="M 511.617188 209.503906 C 500.730469 209.503906 491.15625 205.300781 484.128906 200.980469 C 485.011719 199.121094 486.007812 197.375 487.121094 195.796875 C 488.226562 196.8125 496.742188 204.234375 511.191406 204.234375 C 516.125 204.234375 521.75 203.371094 528.007812 201.089844 C 528.007812 201.089844 530.363281 200.585938 533.398438 200.585938 C 537.132812 200.585938 541.902344 201.347656 544.628906 204.738281 C 543.359375 204.53125 541.996094 204.445312 540.617188 204.445312 C 534.554688 204.445312 528.195312 206.089844 528.195312 206.089844 C 522.453125 208.519531 516.882812 209.503906 511.617188 209.503906 " fill-opacity="1" fill-rule="nonzero"/></g></g><g clip-path="url(#dda2c1892a)"><g clip-path="url(#f7abe47040)"><path fill="#c3744e" d="M 512.757812 285.21875 C 512.761719 285.21875 512.761719 285.21875 512.761719 285.21875 C 512.761719 285.21875 512.761719 285.21875 512.757812 285.21875 M 512.777344 285.21875 C 512.777344 285.21875 512.78125 285.21875 512.78125 285.21875 C 512.78125 285.21875 512.777344 285.21875 512.777344 285.21875 M 512.800781 285.21875 C 512.804688 285.21875 512.804688 285.21875 512.804688 285.21875 C 512.804688 285.21875 512.804688 285.21875 512.800781 285.21875 M 512.820312 285.21875 C 512.824219 285.21875 512.824219 285.21875 512.828125 285.21875 C 512.824219 285.21875 512.824219 285.21875 512.820312 285.21875 M 512.84375 285.21875 L 512.84375 285.21875 M 512.863281 285.21875 C 512.867188 285.21875 512.867188 285.21875 512.867188 285.21875 C 512.867188 285.21875 512.867188 285.21875 512.863281 285.21875 M 512.882812 285.21875 C 512.886719 285.21875 512.886719 285.21875 512.890625 285.21875 C 512.886719 285.21875 512.886719 285.21875 512.882812 285.21875 M 512.925781 285.21875 C 512.925781 285.21875 512.929688 285.21875 512.933594 285.21875 C 512.929688 285.21875 512.925781 285.21875 512.925781 285.21875 M 512.945312 285.21875 C 512.949219 285.21875 512.949219 285.21875 512.953125 285.21875 C 512.949219 285.21875 512.949219 285.21875 512.945312 285.21875 M 512.972656 285.21875 L 512.972656 285.21875 M 512.988281 285.21875 C 512.988281 285.21875 512.992188 285.21875 512.992188 285.21875 C 512.992188 285.21875 512.988281 285.21875 512.988281 285.21875 M 513.035156 285.214844 L 513.035156 285.214844 M 513.050781 285.214844 C 513.050781 285.214844 513.054688 285.214844 513.054688 285.214844 C 513.054688 285.214844 513.050781 285.214844 513.050781 285.214844 M 513.097656 285.214844 L 513.097656 285.214844 M 513.160156 285.210938 C 513.160156 285.210938 513.164062 285.210938 513.164062 285.210938 C 513.164062 285.210938 513.160156 285.210938 513.160156 285.210938 M 513.203125 285.207031 L 513.207031 285.207031 L 513.203125 285.207031 M 513.308594 285.207031 L 513.3125 285.207031 L 513.308594 285.207031 M 513.332031 285.207031 L 513.335938 285.207031 C 513.332031 285.207031 513.332031 285.207031 513.332031 285.207031 " fill-opacity="1" fill-rule="nonzero"/></g></g><g clip-path="url(#2917b9c93a)"><g clip-path="url(#7b691db39b)"><path fill="#d6855a" d="M 512.742188 285.21875 C 502.285156 285.21875 482.546875 269.949219 477.332031 253.667969 C 475.855469 249.058594 475.390625 244.371094 475.25 239.925781 C 475.230469 239.496094 475.222656 239.070312 475.214844 238.644531 C 475.195312 237.664062 475.183594 236.703125 475.183594 235.753906 C 475.183594 235.519531 475.183594 235.289062 475.183594 235.054688 C 475.183594 234.882812 475.183594 234.710938 475.183594 234.539062 C 475.183594 234.171875 475.183594 233.808594 475.183594 233.445312 C 475.183594 230.777344 475.328125 227.925781 475.648438 225.003906 C 476.675781 220.3125 479.441406 208.949219 483.753906 200.746094 C 483.878906 200.824219 484.003906 200.902344 484.128906 200.980469 C 479.964844 209.761719 478.296875 221.144531 478.296875 230.0625 C 478.296875 236.253906 478.230469 243.363281 480.445312 250.289062 C 485.664062 266.566406 505.398438 281.835938 515.859375 281.835938 C 522.105469 281.835938 531.753906 276.378906 539.566406 268.511719 C 531.605469 277.875 520.527344 284.804688 513.375 285.203125 C 513.359375 285.203125 513.347656 285.203125 513.335938 285.207031 L 513.332031 285.207031 C 513.324219 285.207031 513.320312 285.207031 513.3125 285.207031 L 513.308594 285.207031 C 513.296875 285.207031 513.285156 285.207031 513.269531 285.207031 C 513.246094 285.207031 513.226562 285.207031 513.207031 285.207031 L 513.203125 285.207031 C 513.191406 285.210938 513.179688 285.210938 513.164062 285.210938 C 513.164062 285.210938 513.160156 285.210938 513.160156 285.210938 C 513.152344 285.210938 513.148438 285.210938 513.140625 285.210938 C 513.132812 285.210938 513.125 285.210938 513.117188 285.210938 C 513.113281 285.214844 513.105469 285.214844 513.097656 285.214844 C 513.089844 285.214844 513.082031 285.214844 513.078125 285.214844 C 513.070312 285.214844 513.0625 285.214844 513.054688 285.214844 C 513.054688 285.214844 513.050781 285.214844 513.050781 285.214844 C 513.046875 285.214844 513.042969 285.214844 513.035156 285.214844 C 513.019531 285.214844 513.007812 285.214844 512.992188 285.21875 C 512.992188 285.21875 512.988281 285.21875 512.988281 285.21875 C 512.984375 285.21875 512.976562 285.21875 512.972656 285.21875 C 512.964844 285.21875 512.957031 285.21875 512.953125 285.21875 C 512.949219 285.21875 512.949219 285.21875 512.945312 285.21875 C 512.941406 285.21875 512.9375 285.21875 512.933594 285.21875 C 512.929688 285.21875 512.925781 285.21875 512.925781 285.21875 C 512.921875 285.21875 512.914062 285.21875 512.90625 285.21875 C 512.902344 285.21875 512.894531 285.21875 512.890625 285.21875 C 512.886719 285.21875 512.886719 285.21875 512.882812 285.21875 C 512.878906 285.21875 512.875 285.21875 512.867188 285.21875 C 512.867188 285.21875 512.867188 285.21875 512.863281 285.21875 C 512.859375 285.21875 512.851562 285.21875 512.84375 285.21875 C 512.835938 285.21875 512.832031 285.21875 512.828125 285.21875 C 512.824219 285.21875 512.824219 285.21875 512.820312 285.21875 C 512.8125 285.21875 512.808594 285.21875 512.804688 285.21875 C 512.804688 285.21875 512.804688 285.21875 512.800781 285.21875 C 512.792969 285.21875 512.789062 285.21875 512.78125 285.21875 C 512.78125 285.21875 512.777344 285.21875 512.777344 285.21875 C 512.773438 285.21875 512.769531 285.21875 512.761719 285.21875 C 512.761719 285.21875 512.761719 285.21875 512.757812 285.21875 C 512.75 285.21875 512.746094 285.21875 512.742188 285.21875 " fill-opacity="1" fill-rule="nonzero"/></g></g><g clip-path="url(#44ec4a6578)"><g clip-path="url(#2c3ae0d502)"><path fill="#cf7d53" d="M 484.128906 200.980469 C 484.003906 200.902344 483.878906 200.824219 483.753906 200.746094 C 484.753906 198.851562 485.839844 197.117188 487 195.679688 C 487 195.679688 487.042969 195.722656 487.121094 195.796875 C 486.007812 197.375 485.011719 199.121094 484.128906 200.980469 " fill-opacity="1" fill-rule="nonzero"/></g></g><g clip-path="url(#c484a06c07)"><g clip-path="url(#84f967bca8)"><path fill="#211a1b" d="M 484.199219 220.398438 C 484.199219 220.398438 488.484375 216.582031 492.621094 217.523438 C 496.753906 218.460938 503.179688 218.457031 505.0625 216.355469 C 505.0625 216.355469 491.066406 210.738281 484.199219 220.398438 " fill-opacity="1" fill-rule="nonzero"/></g></g><g clip-path="url(#c51ce44fc8)"><g clip-path="url(#838bcd879d)"><path fill="#211a1b" d="M 540.050781 220.398438 C 540.050781 220.398438 535.761719 216.582031 531.628906 217.523438 C 527.492188 218.460938 521.070312 218.457031 519.183594 216.355469 C 519.183594 216.355469 533.1875 210.738281 540.050781 220.398438 " fill-opacity="1" fill-rule="nonzero"/></g></g><g clip-path="url(#da3231d524)"><g clip-path="url(#c861308f69)"><path fill="#b05838" d="M 506.050781 250.117188 C 506.050781 250.117188 506.039062 250.042969 506.023438 249.90625 C 506 249.773438 505.972656 249.578125 506 249.304688 C 506.023438 249.035156 506.070312 248.707031 506.203125 248.359375 C 506.320312 247.996094 506.519531 247.617188 506.785156 247.230469 C 507.050781 246.847656 507.382812 246.457031 507.789062 246.117188 C 508.191406 245.757812 508.664062 245.4375 509.1875 245.171875 C 509.714844 244.914062 510.273438 244.667969 510.878906 244.535156 C 511.496094 244.371094 512.074219 244.324219 512.777344 244.304688 C 513.070312 244.324219 513.324219 244.316406 513.65625 244.363281 C 513.984375 244.402344 514.304688 244.453125 514.601562 244.53125 C 515.207031 244.664062 515.769531 244.914062 516.292969 245.167969 C 516.816406 245.433594 517.289062 245.753906 517.6875 246.113281 C 518.101562 246.457031 518.433594 246.847656 518.699219 247.230469 C 518.964844 247.617188 519.160156 247.996094 519.277344 248.355469 C 519.414062 248.707031 519.460938 249.039062 519.484375 249.296875 C 519.507812 249.566406 519.484375 249.769531 519.457031 249.90625 C 519.441406 250.042969 519.429688 250.117188 519.429688 250.117188 C 519.429688 250.117188 519.410156 250.046875 519.371094 249.914062 C 519.34375 249.78125 519.273438 249.601562 519.171875 249.378906 C 519.070312 249.15625 518.925781 248.902344 518.730469 248.640625 C 518.542969 248.371094 518.28125 248.105469 518 247.832031 C 517.703125 247.566406 517.355469 247.3125 516.972656 247.078125 C 516.59375 246.835938 516.15625 246.648438 515.707031 246.457031 C 515.253906 246.28125 514.769531 246.148438 514.269531 246.054688 C 514.015625 246 513.773438 245.980469 513.535156 245.953125 C 513.308594 245.914062 512.980469 245.925781 512.707031 245.910156 C 512.261719 245.925781 511.695312 245.953125 511.210938 246.054688 C 510.710938 246.148438 510.226562 246.28125 509.773438 246.457031 C 509.328125 246.648438 508.886719 246.832031 508.507812 247.078125 C 508.125 247.3125 507.777344 247.566406 507.484375 247.832031 C 507.195312 248.105469 506.9375 248.367188 506.746094 248.640625 C 506.550781 248.898438 506.410156 249.160156 506.3125 249.375 C 506.210938 249.585938 506.136719 249.777344 506.109375 249.914062 C 506.070312 250.046875 506.050781 250.117188 506.050781 250.117188 " fill-opacity="1" fill-rule="nonzero"/></g></g><g clip-path="url(#afe692e906)"><g clip-path="url(#7b0dd5673d)"><path fill="#ffffff" d="M 497.433594 256.582031 C 497.433594 256.582031 509.429688 263.417969 528.195312 256.582031 C 528.195312 256.582031 513.378906 278.296875 497.433594 256.582031 " fill-opacity="1" fill-rule="nonzero"/></g></g><g clip-path="url(#93b1ad4ebd)"><g clip-path="url(#106ba01b04)"><path fill="#c7d3df" d="M 497.433594 256.582031 C 497.621094 256.835938 497.804688 257.078125 497.992188 257.316406 C 502.207031 260.433594 512.539062 265.933594 527.496094 257.507812 C 528.085938 256.785156 528.195312 256.582031 528.195312 256.582031 C 509.429688 263.417969 497.433594 256.582031 497.433594 256.582031 " fill-opacity="1" fill-rule="nonzero"/></g></g><g clip-path="url(#31339cc29a)"><g clip-path="url(#4d7bc90824)"><path fill="#ad6544" d="M 508.390625 269.953125 C 508.390625 269.953125 512.8125 272.066406 517.238281 269.953125 C 517.238281 269.953125 513.40625 276.816406 508.390625 269.953125 " fill-opacity="1" fill-rule="nonzero"/></g></g><g clip-path="url(#bc1a843e00)"><g clip-path="url(#9bb5400d2b)"><path fill="#d6855a" d="M 512.90625 252.605469 C 508.941406 252.605469 506.050781 250.953125 506.050781 250.953125 C 507.207031 246.917969 511.324219 246.621094 512.5 246.621094 C 512.699219 246.621094 512.8125 246.632812 512.8125 246.632812 C 512.890625 246.628906 512.96875 246.628906 513.042969 246.628906 C 517.765625 246.628906 519.429688 250.953125 519.429688 250.953125 C 517.136719 252.195312 514.886719 252.605469 512.90625 252.605469 " fill-opacity="1" fill-rule="nonzero"/></g></g><g clip-path="url(#c4d90458c6)"><g clip-path="url(#041d3b3ee4)"><path fill="#211a1b" d="M 501.632812 261.367188 C 500.796875 260.082031 500.113281 258.703125 499.605469 257.542969 C 498.183594 257.011719 497.433594 256.582031 497.433594 256.582031 C 498.847656 258.507812 500.246094 260.082031 501.632812 261.367188 " fill-opacity="1" fill-rule="nonzero"/></g></g><g clip-path="url(#8e9a11df95)"><g clip-path="url(#7d0687a892)"><path fill="#211a1b" d="M 523.832031 261.347656 C 526.574219 258.957031 528.195312 256.582031 528.195312 256.582031 C 527.542969 256.820312 526.90625 257.035156 526.273438 257.238281 C 525.671875 258.457031 524.835938 259.972656 523.832031 261.347656 " fill-opacity="1" fill-rule="nonzero"/></g></g><g clip-path="url(#2ad3167d67)"><g clip-path="url(#d8141e9890)"><path fill="#211a1b" d="M 475.199219 227.167969 C 475.199219 227.167969 479.359375 205.128906 487 195.679688 C 487 195.679688 502.0625 210.539062 528.007812 201.089844 C 528.007812 201.089844 540.917969 198.320312 545.339844 205.761719 C 545.339844 205.761719 548.523438 227.167969 550.027344 227.234375 C 550.027344 227.234375 563.585938 208.144531 559.902344 182.007812 C 559.902344 182.007812 550.605469 182.867188 541.757812 177.109375 C 541.757812 177.109375 520.648438 152.453125 487.074219 170.347656 C 487.074219 170.347656 485.996094 164.898438 488.003906 158.0625 C 488.003906 158.0625 482.175781 167.3125 482.578125 173.746094 C 482.578125 173.746094 476.683594 172.742188 472.191406 173.949219 C 472.191406 173.949219 478.199219 174.953125 480.285156 176.359375 C 480.285156 176.359375 462.195312 184.511719 475.199219 227.167969 " fill-opacity="1" fill-rule="nonzero"/></g></g><g clip-path="url(#1342a04c78)"><g clip-path="url(#43c902bcef)"><path fill="#4a3835" d="M 516.929688 195.085938 C 511.511719 195.085938 505.339844 193.882812 498.566406 190.621094 C 491.621094 187.28125 485.921875 186.0625 481.296875 186.0625 C 477.558594 186.0625 474.523438 186.859375 472.101562 187.980469 C 473.339844 183.886719 475.101562 181.136719 476.671875 179.339844 C 478.183594 179.109375 480.023438 178.929688 482.117188 178.929688 C 487.421875 178.929688 494.347656 180.078125 501.632812 184.421875 C 509.085938 188.859375 516.566406 190.625 523.292969 190.625 C 530.585938 190.621094 536.988281 188.550781 541.484375 185.554688 C 541.484375 185.554688 532.1875 195.085938 516.929688 195.085938 " fill-opacity="1" fill-rule="nonzero"/></g></g><g clip-path="url(#7fcdb05abe)"><g clip-path="url(#60d566573b)"><path fill="#337393" d="M 554.777344 415.644531 C 555.28125 411.992188 555.804688 408.160156 556.339844 404.195312 C 497.390625 420.152344 465.726562 383.886719 465.722656 383.882812 C 467.191406 395.027344 468.675781 405.984375 470 415.644531 L 554.777344 415.644531 " fill-opacity="1" fill-rule="nonzero"/></g></g><g clip-path="url(#12f70a46cb)"><g clip-path="url(#4e4a8783c2)"><path fill="#211a1b" d="M 502.761719 235.316406 C 502.761719 238.570312 501.300781 241.210938 499.503906 241.210938 C 497.703125 241.210938 496.246094 238.570312 496.246094 235.316406 C 496.246094 232.058594 497.703125 229.417969 499.503906 229.417969 C 501.300781 229.417969 502.761719 232.058594 502.761719 235.316406 " fill-opacity="1" fill-rule="nonzero"/></g></g><g clip-path="url(#c16cab4b7c)"><g clip-path="url(#bf0695d169)"><path fill="#211a1b" d="M 529.238281 235.316406 C 529.238281 238.570312 527.78125 241.210938 525.980469 241.210938 C 524.179688 241.210938 522.722656 238.570312 522.722656 235.316406 C 522.722656 232.058594 524.179688 229.417969 525.980469 229.417969 C 527.78125 229.417969 529.238281 232.058594 529.238281 235.316406 " fill-opacity="1" fill-rule="nonzero"/></g></g></svg>