<svg xmlns="http://www.w3.org/2000/svg" xmlns:xlink="http://www.w3.org/1999/xlink" width="1366" zoomAndPan="magnify" viewBox="0 0 1024.5 529.499989" height="706" preserveAspectRatio="xMidYMid meet" version="1.0"><defs><clipPath id="daf04b1e5a"><path d="M 409 174.640625 L 614 174.640625 L 614 354.46875 L 409 354.46875 Z M 409 174.640625 " clip-rule="nonzero"/></clipPath></defs><g clip-path="url(#daf04b1e5a)"><path fill="#e21726" d="M 499.835938 182.589844 C 488.917969 201.675781 461.949219 249.433594 440.277344 287.8125 L 411.605469 338.542969 C 409.023438 343.085938 409.988281 346.675781 410.789062 348.410156 C 412.414062 351.925781 415.886719 353.679688 418.585938 354.152344 L 419.132812 354.246094 L 604.15625 354.25 L 603.769531 354.238281 C 606.671875 354.414062 610.523438 353.371094 612.628906 349.90625 C 613.976562 347.683594 614.945312 343.902344 611.878906 338.53125 L 554.59375 238.4375 L 522.894531 183.074219 C 518.921875 176.128906 514.316406 174.667969 511.152344 174.667969 C 508.0625 174.667969 503.589844 176.042969 499.839844 182.589844 Z M 451.554688 294.386719 C 473.222656 256.023438 500.179688 208.28125 511.082031 189.226562 L 511.214844 189.019531 C 511.351562 189.230469 511.488281 189.425781 511.644531 189.703125 L 543.355469 245.078125 C 543.355469 245.078125 593.945312 333.480469 598.273438 341.039062 L 425.1875 341.035156 L 451.554688 294.386719 " fill-opacity="1" fill-rule="evenodd"/></g><path fill="#e21726" d="M 511.929688 331.457031 C 517.535156 331.457031 522.074219 326.753906 522.074219 320.953125 C 522.074219 315.160156 517.535156 310.457031 511.929688 310.457031 C 506.3125 310.457031 501.773438 315.160156 501.773438 320.953125 C 501.773438 326.753906 506.3125 331.457031 511.929688 331.457031 " fill-opacity="1" fill-rule="evenodd"/><path fill="#e21726" d="M 511.929688 228.578125 C 520.027344 228.578125 527.46875 236.238281 526.589844 243.746094 L 519.65625 296.566406 C 518.980469 301.179688 516.195312 304.558594 511.929688 304.558594 C 507.660156 304.558594 504.867188 301.179688 504.199219 296.566406 L 497.261719 243.746094 C 496.378906 236.238281 503.824219 228.578125 511.929688 228.578125 " fill-opacity="1" fill-rule="evenodd"/></svg>