<svg xmlns="http://www.w3.org/2000/svg" xmlns:xlink="http://www.w3.org/1999/xlink" width="1366" zoomAndPan="magnify" viewBox="0 0 1024.5 529.499989" height="706" preserveAspectRatio="xMidYMid meet" version="1.0"><defs><clipPath id="baad4d03bd"><path d="M 409.257812 154.910156 L 614.5625 154.910156 L 614.5625 374.449219 L 409.257812 374.449219 Z M 409.257812 154.910156 " clip-rule="nonzero"/></clipPath></defs><g clip-path="url(#baad4d03bd)"><path fill="#cc0000" d="M 614.5625 264.679688 L 594.03125 264.679688 L 594.03125 209.792969 L 539.285156 154.910156 L 429.789062 154.910156 L 429.789062 264.679688 L 409.257812 264.679688 L 409.257812 333.285156 L 429.789062 333.285156 L 429.789062 374.449219 L 594.03125 374.449219 L 594.03125 333.285156 L 614.5625 333.285156 L 614.5625 264.679688 " fill-opacity="1" fill-rule="nonzero"/></g><path fill="#ffffff" d="M 436.625 367.589844 L 587.183594 367.589844 L 587.183594 333.285156 L 436.625 333.285156 Z M 539.285156 164.621094 L 539.285156 209.792969 L 584.34375 209.792969 Z M 532.441406 216.65625 L 532.441406 161.769531 L 436.625 161.769531 L 436.625 264.679688 L 587.183594 264.679688 L 587.183594 216.65625 Z M 532.667969 298.023438 C 532.667969 290.761719 529.988281 285.695312 525.726562 282.519531 C 521.769531 279.527344 516.714844 278.121094 508.921875 278.121094 C 504.238281 278.121094 499.792969 278.433594 496.378906 278.980469 L 496.378906 319.378906 C 498.699219 319.6875 502.105469 319.992188 506.910156 319.992188 C 514.953125 319.992188 521.527344 318.28125 525.847656 314.679688 C 529.808594 311.324219 532.667969 305.894531 532.667969 298.023438 Z M 508.921875 312.730469 C 507.765625 312.730469 506.492188 312.730469 505.695312 312.546875 L 505.695312 285.628906 C 506.492188 285.449219 507.828125 285.265625 509.898438 285.265625 C 517.871094 285.265625 522.863281 289.78125 522.804688 298.328125 C 522.804688 308.152344 517.324219 312.792969 508.921875 312.730469 Z M 471.832031 305.039062 C 477.3125 305.039062 481.996094 303.695312 485.164062 300.703125 C 487.597656 298.386719 488.933594 294.96875 488.933594 290.9375 C 488.933594 286.914062 487.171875 283.496094 484.558594 281.417969 C 481.816406 279.222656 477.734375 278.121094 472.011719 278.121094 C 466.351562 278.121094 462.335938 278.492188 459.46875 278.980469 L 459.46875 319.566406 L 468.664062 319.566406 L 468.664062 304.855469 C 469.519531 304.980469 470.609375 305.039062 471.832031 305.039062 Z M 468.664062 285.507812 C 469.332031 285.324219 470.609375 285.144531 472.5 285.144531 C 477.125 285.144531 479.746094 287.402344 479.746094 291.183594 C 479.746094 295.394531 476.699219 297.898438 471.773438 297.898438 C 470.429688 297.898438 469.453125 297.835938 468.664062 297.652344 Z M 565.375 286.058594 L 565.375 278.433594 L 540.292969 278.433594 L 540.292969 319.566406 L 549.609375 319.566406 L 549.609375 303.027344 L 564.339844 303.027344 L 564.339844 295.457031 L 549.609375 295.457031 L 549.609375 286.058594 L 565.375 286.058594 " fill-opacity="1" fill-rule="nonzero"/></svg>