<svg xmlns="http://www.w3.org/2000/svg" xmlns:xlink="http://www.w3.org/1999/xlink" width="1366" zoomAndPan="magnify" viewBox="0 0 1024.5 529.499989" height="706" preserveAspectRatio="xMidYMid meet" version="1.0"><defs><clipPath id="da5b76cf47"><path d="M 386.457031 149.628906 L 637.472656 149.628906 L 637.472656 379.664062 L 386.457031 379.664062 Z M 386.457031 149.628906 " clip-rule="nonzero"/></clipPath></defs><g clip-path="url(#da5b76cf47)"><path fill="#000000" d="M 550.054688 149.605469 L 609.125 149.605469 C 616.925781 149.605469 624.007812 152.789062 629.136719 157.9375 C 634.269531 163.074219 637.457031 170.183594 637.457031 177.984375 L 637.457031 254.734375 C 637.457031 262.546875 634.28125 269.644531 629.136719 274.78125 C 624.007812 279.917969 616.914062 283.113281 609.125 283.113281 L 550.054688 283.113281 C 542.253906 283.113281 535.167969 279.917969 530.039062 274.78125 C 524.910156 269.644531 521.71875 262.546875 521.71875 254.734375 L 521.71875 177.984375 C 521.71875 170.171875 524.910156 163.074219 530.039062 157.9375 C 535.167969 152.800781 542.253906 149.605469 550.054688 149.605469 Z M 414.84375 214.867188 L 473.910156 214.867188 C 478.464844 214.867188 482.609375 212.996094 485.609375 209.988281 C 488.609375 206.972656 490.480469 202.835938 490.480469 198.277344 L 490.480469 177.984375 C 490.480469 173.421875 488.609375 169.273438 485.609375 166.269531 C 482.59375 163.253906 478.453125 161.390625 473.910156 161.390625 L 414.84375 161.390625 C 410.289062 161.390625 406.148438 163.265625 403.148438 166.269531 C 400.132812 169.285156 398.273438 173.421875 398.273438 177.984375 L 398.273438 198.277344 C 398.273438 202.835938 400.144531 206.984375 403.148438 209.988281 C 406.148438 212.996094 410.289062 214.867188 414.84375 214.867188 Z M 473.910156 226.652344 L 414.84375 226.652344 C 407.042969 226.652344 399.957031 223.460938 394.828125 218.320312 C 389.699219 213.183594 386.507812 206.078125 386.507812 198.277344 L 386.507812 177.984375 C 386.507812 170.171875 389.6875 163.074219 394.828125 157.9375 C 399.957031 152.800781 407.054688 149.605469 414.84375 149.605469 L 473.910156 149.605469 C 481.714844 149.605469 488.796875 152.800781 493.925781 157.9375 C 499.058594 163.074219 502.246094 170.183594 502.246094 177.984375 L 502.246094 198.277344 C 502.246094 206.089844 499.058594 213.183594 493.925781 218.320312 C 488.796875 223.460938 481.703125 226.652344 473.910156 226.652344 Z M 414.84375 367.832031 L 473.910156 367.832031 C 478.464844 367.832031 482.609375 365.957031 485.609375 362.953125 C 488.621094 359.949219 490.480469 355.800781 490.480469 351.238281 L 490.480469 274.488281 C 490.480469 269.925781 488.621094 265.777344 485.609375 262.773438 C 482.59375 259.753906 478.464844 257.894531 473.910156 257.894531 L 414.84375 257.894531 C 410.289062 257.894531 406.148438 259.769531 403.148438 262.773438 C 400.132812 265.789062 398.273438 269.925781 398.273438 274.488281 L 398.273438 351.238281 C 398.273438 355.800781 400.144531 359.949219 403.148438 362.953125 C 406.148438 365.96875 410.289062 367.832031 414.84375 367.832031 Z M 473.910156 379.617188 L 414.84375 379.617188 C 407.042969 379.617188 399.957031 376.421875 394.828125 371.285156 C 389.699219 366.144531 386.507812 359.039062 386.507812 351.238281 L 386.507812 274.488281 C 386.507812 266.671875 389.6875 259.578125 394.828125 254.441406 C 399.957031 249.304688 407.054688 246.109375 414.84375 246.109375 L 473.910156 246.109375 C 481.714844 246.109375 488.796875 249.304688 493.925781 254.441406 C 499.058594 259.578125 502.246094 266.671875 502.246094 274.488281 L 502.246094 351.238281 C 502.246094 359.050781 499.058594 366.144531 493.925781 371.285156 C 488.796875 376.421875 481.714844 379.617188 473.910156 379.617188 Z M 550.066406 302.570312 L 609.136719 302.570312 C 616.9375 302.570312 624.019531 305.761719 629.148438 310.902344 C 634.28125 316.039062 637.46875 323.144531 637.46875 330.945312 L 637.46875 351.238281 C 637.46875 359.050781 634.28125 366.144531 629.148438 371.285156 C 624.019531 376.421875 616.925781 379.617188 609.136719 379.617188 L 550.066406 379.617188 C 542.265625 379.617188 535.179688 376.421875 530.050781 371.285156 C 524.921875 366.132812 521.730469 359.039062 521.730469 351.238281 L 521.730469 330.945312 C 521.730469 323.132812 524.921875 316.039062 530.050781 310.902344 C 535.179688 305.761719 542.265625 302.570312 550.066406 302.570312 Z M 609.136719 314.351562 L 550.066406 314.351562 C 545.511719 314.351562 541.371094 316.226562 538.371094 319.230469 C 535.359375 322.25 533.5 326.386719 533.5 330.945312 L 533.5 351.238281 C 533.5 355.800781 535.371094 359.949219 538.371094 362.953125 C 541.382812 365.96875 545.511719 367.832031 550.066406 367.832031 L 609.136719 367.832031 C 613.6875 367.832031 617.832031 365.957031 620.832031 362.953125 C 623.84375 359.9375 625.703125 355.800781 625.703125 351.238281 L 625.703125 330.945312 C 625.703125 326.386719 623.832031 322.238281 620.832031 319.230469 C 617.820312 316.226562 613.6875 314.351562 609.136719 314.351562 Z M 609.136719 161.390625 L 550.066406 161.390625 C 545.511719 161.390625 541.371094 163.265625 538.371094 166.269531 C 535.359375 169.273438 533.5 173.421875 533.5 177.984375 L 533.5 254.734375 C 533.5 259.296875 535.371094 263.445312 538.371094 266.449219 C 541.382812 269.464844 545.511719 271.328125 550.066406 271.328125 L 609.136719 271.328125 C 613.6875 271.328125 617.832031 269.453125 620.832031 266.449219 C 623.84375 263.433594 625.703125 259.296875 625.703125 254.734375 L 625.703125 177.984375 C 625.703125 173.421875 623.832031 169.273438 620.832031 166.269531 C 617.820312 163.253906 613.6875 161.390625 609.136719 161.390625 Z M 609.136719 161.390625 " fill-opacity="1" fill-rule="nonzero"/></g></svg>