<svg xmlns="http://www.w3.org/2000/svg" xmlns:xlink="http://www.w3.org/1999/xlink" width="1366" zoomAndPan="magnify" viewBox="0 0 1024.5 529.499989" height="706" preserveAspectRatio="xMidYMid meet" version="1.0"><defs><clipPath id="ad562a776f"><path d="M 422 209 L 603 209 L 603 372.449219 L 422 372.449219 Z M 422 209 " clip-rule="nonzero"/></clipPath></defs><path fill="#000000" d="M 620.878906 232.445312 L 584.320312 205.558594 L 584.320312 173.488281 C 584.320312 168.460938 580.238281 164.394531 575.214844 164.394531 L 560.421875 164.394531 C 555.390625 164.394531 551.316406 168.46875 551.316406 173.488281 L 551.316406 181.28125 L 523.441406 160.78125 C 517.394531 156.324219 507.492188 156.324219 501.441406 160.78125 L 404.003906 232.445312 C 397.957031 236.894531 396.652344 245.492188 401.105469 251.546875 L 403.796875 255.199219 C 408.242188 261.253906 416.839844 262.5625 422.882812 258.113281 L 501.441406 200.308594 C 507.492188 195.859375 517.394531 195.859375 523.441406 200.308594 L 601.996094 258.113281 C 608.042969 262.5625 616.632812 261.246094 621.078125 255.199219 L 623.78125 251.546875 C 628.226562 245.492188 626.921875 236.894531 620.878906 232.445312 Z M 620.878906 232.445312 " fill-opacity="1" fill-rule="nonzero"/><g clip-path="url(#ad562a776f)"><path fill="#000000" d="M 591.730469 263.140625 L 523.417969 212.667969 C 517.378906 208.203125 507.503906 208.203125 501.464844 212.667969 L 433.15625 263.140625 C 427.113281 267.605469 422.167969 274.136719 422.167969 277.675781 L 422.167969 350.855469 C 422.167969 362.734375 432.355469 372.371094 444.929688 372.371094 L 486.648438 372.371094 L 486.648438 307.636719 C 486.648438 302.640625 490.742188 298.550781 495.742188 298.550781 L 529.125 298.550781 C 534.125 298.550781 538.222656 302.640625 538.222656 307.636719 L 538.222656 372.371094 L 579.945312 372.371094 C 592.511719 372.371094 602.691406 362.734375 602.691406 350.855469 L 602.691406 277.675781 C 602.699219 274.136719 597.769531 267.605469 591.730469 263.140625 Z M 591.730469 263.140625 " fill-opacity="1" fill-rule="nonzero"/></g></svg>