<svg xmlns="http://www.w3.org/2000/svg" xmlns:xlink="http://www.w3.org/1999/xlink" width="1366" zoomAndPan="magnify" viewBox="0 0 1024.5 529.499989" height="706" preserveAspectRatio="xMidYMid meet" version="1.0"><defs><clipPath id="e34eae70db"><path d="M 417.429688 169.929688 L 606.25 169.929688 L 606.25 358.75 L 417.429688 358.75 Z M 417.429688 169.929688 " clip-rule="nonzero"/></clipPath></defs><path fill="#000000" d="M 546.535156 217.136719 L 532.820312 217.136719 L 532.820312 211.890625 C 532.820312 211.546875 532.785156 211.203125 532.71875 210.867188 C 532.652344 210.527344 532.554688 210.199219 532.421875 209.882812 C 532.289062 209.566406 532.128906 209.261719 531.9375 208.976562 C 531.746094 208.691406 531.527344 208.425781 531.285156 208.179688 C 531.039062 207.9375 530.777344 207.71875 530.488281 207.527344 C 530.203125 207.335938 529.902344 207.175781 529.582031 207.042969 C 529.265625 206.914062 528.9375 206.8125 528.597656 206.746094 C 528.261719 206.679688 527.921875 206.644531 527.574219 206.644531 L 496.105469 206.644531 C 495.761719 206.644531 495.417969 206.679688 495.082031 206.746094 C 494.746094 206.8125 494.417969 206.914062 494.097656 207.042969 C 493.78125 207.175781 493.476562 207.335938 493.191406 207.527344 C 492.90625 207.71875 492.640625 207.9375 492.398438 208.179688 C 492.152344 208.425781 491.9375 208.691406 491.746094 208.976562 C 491.554688 209.261719 491.390625 209.566406 491.257812 209.882812 C 491.128906 210.199219 491.027344 210.527344 490.960938 210.867188 C 490.894531 211.203125 490.859375 211.546875 490.859375 211.890625 L 490.859375 217.136719 L 477.144531 217.136719 C 476.324219 217.136719 475.511719 217.21875 474.707031 217.378906 C 473.898438 217.539062 473.117188 217.777344 472.359375 218.089844 C 471.601562 218.40625 470.882812 218.792969 470.199219 219.25 C 469.515625 219.703125 468.882812 220.222656 468.304688 220.804688 C 467.722656 221.382812 467.203125 222.015625 466.75 222.699219 C 466.292969 223.382812 465.90625 224.101562 465.589844 224.859375 C 465.277344 225.617188 465.039062 226.398438 464.878906 227.207031 C 464.71875 228.011719 464.636719 228.824219 464.636719 229.644531 L 464.636719 309.527344 C 464.636719 310.347656 464.71875 311.160156 464.878906 311.964844 C 465.039062 312.769531 465.277344 313.554688 465.589844 314.3125 C 465.90625 315.070312 466.292969 315.789062 466.75 316.472656 C 467.203125 317.15625 467.722656 317.785156 468.304688 318.367188 C 468.882812 318.949219 469.515625 319.464844 470.199219 319.921875 C 470.882812 320.378906 471.601562 320.765625 472.359375 321.078125 C 473.117188 321.394531 473.898438 321.632812 474.707031 321.792969 C 475.511719 321.953125 476.324219 322.035156 477.144531 322.035156 L 546.535156 322.035156 C 547.359375 322.035156 548.171875 321.953125 548.976562 321.792969 C 549.78125 321.632812 550.5625 321.394531 551.320312 321.078125 C 552.078125 320.765625 552.800781 320.378906 553.484375 319.921875 C 554.164062 319.464844 554.796875 318.949219 555.378906 318.367188 C 555.957031 317.785156 556.476562 317.15625 556.933594 316.472656 C 557.390625 315.789062 557.773438 315.070312 558.089844 314.3125 C 558.402344 313.554688 558.640625 312.769531 558.804688 311.964844 C 558.964844 311.160156 559.042969 310.347656 559.046875 309.527344 L 559.046875 229.644531 C 559.046875 228.824219 558.964844 228.011719 558.804688 227.207031 C 558.640625 226.398438 558.402344 225.617188 558.089844 224.859375 C 557.773438 224.101562 557.390625 223.382812 556.933594 222.699219 C 556.476562 222.015625 555.957031 221.382812 555.378906 220.804688 C 554.796875 220.222656 554.164062 219.703125 553.484375 219.25 C 552.800781 218.792969 552.078125 218.40625 551.320312 218.089844 C 550.5625 217.777344 549.78125 217.539062 548.976562 217.378906 C 548.171875 217.21875 547.359375 217.136719 546.535156 217.136719 Z M 501.351562 217.136719 L 522.332031 217.136719 L 522.332031 227.625 L 501.351562 227.625 Z M 548.554688 309.527344 C 548.554688 309.792969 548.503906 310.050781 548.402344 310.296875 C 548.296875 310.546875 548.152344 310.765625 547.960938 310.953125 C 547.773438 311.140625 547.554688 311.289062 547.308594 311.390625 C 547.0625 311.492188 546.804688 311.546875 546.535156 311.546875 L 477.144531 311.546875 C 476.878906 311.546875 476.621094 311.492188 476.371094 311.390625 C 476.125 311.289062 475.90625 311.140625 475.71875 310.953125 C 475.527344 310.765625 475.382812 310.546875 475.28125 310.296875 C 475.175781 310.050781 475.125 309.792969 475.125 309.527344 L 475.125 229.644531 C 475.125 229.375 475.175781 229.121094 475.28125 228.871094 C 475.382812 228.625 475.527344 228.40625 475.71875 228.21875 C 475.90625 228.027344 476.125 227.882812 476.371094 227.78125 C 476.621094 227.675781 476.878906 227.625 477.144531 227.625 L 490.859375 227.625 L 490.859375 232.871094 C 490.859375 233.214844 490.894531 233.554688 490.960938 233.894531 C 491.027344 234.230469 491.128906 234.558594 491.257812 234.878906 C 491.390625 235.195312 491.554688 235.496094 491.746094 235.785156 C 491.9375 236.070312 492.152344 236.335938 492.398438 236.578125 C 492.640625 236.824219 492.90625 237.039062 493.191406 237.230469 C 493.476562 237.421875 493.78125 237.585938 494.097656 237.714844 C 494.417969 237.847656 494.746094 237.949219 495.082031 238.015625 C 495.417969 238.082031 495.761719 238.117188 496.105469 238.117188 L 527.574219 238.117188 C 527.921875 238.117188 528.261719 238.082031 528.597656 238.015625 C 528.9375 237.949219 529.265625 237.847656 529.582031 237.714844 C 529.902344 237.585938 530.203125 237.421875 530.488281 237.230469 C 530.777344 237.039062 531.039062 236.824219 531.285156 236.578125 C 531.527344 236.335938 531.746094 236.070312 531.9375 235.785156 C 532.128906 235.496094 532.289062 235.195312 532.421875 234.878906 C 532.554688 234.558594 532.652344 234.230469 532.71875 233.894531 C 532.785156 233.554688 532.820312 233.214844 532.820312 232.871094 L 532.820312 227.625 L 546.535156 227.625 C 546.804688 227.625 547.0625 227.675781 547.308594 227.78125 C 547.554688 227.882812 547.773438 228.027344 547.960938 228.21875 C 548.152344 228.40625 548.296875 228.625 548.402344 228.871094 C 548.503906 229.121094 548.554688 229.378906 548.554688 229.644531 Z M 548.554688 309.527344 " fill-opacity="1" fill-rule="nonzero"/><path fill="#000000" d="M 532.820312 248.605469 L 490.859375 248.605469 C 490.515625 248.605469 490.175781 248.640625 489.835938 248.707031 C 489.5 248.773438 489.171875 248.871094 488.851562 249.003906 C 488.535156 249.136719 488.234375 249.296875 487.945312 249.488281 C 487.660156 249.679688 487.394531 249.898438 487.152344 250.140625 C 486.90625 250.386719 486.691406 250.648438 486.5 250.9375 C 486.308594 251.222656 486.144531 251.523438 486.015625 251.84375 C 485.882812 252.160156 485.785156 252.488281 485.714844 252.828125 C 485.648438 253.164062 485.617188 253.507812 485.617188 253.851562 C 485.617188 254.195312 485.648438 254.535156 485.714844 254.875 C 485.785156 255.210938 485.882812 255.539062 486.015625 255.859375 C 486.144531 256.175781 486.308594 256.476562 486.5 256.765625 C 486.691406 257.050781 486.90625 257.316406 487.152344 257.558594 C 487.394531 257.804688 487.660156 258.019531 487.945312 258.210938 C 488.234375 258.402344 488.535156 258.5625 488.851562 258.695312 C 489.171875 258.828125 489.5 258.925781 489.835938 258.996094 C 490.175781 259.0625 490.515625 259.09375 490.859375 259.09375 L 532.820312 259.09375 C 533.164062 259.09375 533.507812 259.0625 533.84375 258.996094 C 534.183594 258.925781 534.507812 258.828125 534.828125 258.695312 C 535.144531 258.5625 535.449219 258.402344 535.734375 258.210938 C 536.019531 258.019531 536.285156 257.804688 536.53125 257.558594 C 536.773438 257.316406 536.992188 257.050781 537.183594 256.765625 C 537.375 256.476562 537.535156 256.175781 537.667969 255.859375 C 537.796875 255.539062 537.898438 255.210938 537.964844 254.875 C 538.03125 254.535156 538.066406 254.195312 538.066406 253.851562 C 538.066406 253.507812 538.03125 253.164062 537.964844 252.828125 C 537.898438 252.488281 537.796875 252.160156 537.667969 251.84375 C 537.535156 251.523438 537.375 251.222656 537.183594 250.9375 C 536.992188 250.648438 536.773438 250.386719 536.53125 250.140625 C 536.285156 249.898438 536.019531 249.679688 535.734375 249.488281 C 535.449219 249.296875 535.144531 249.136719 534.828125 249.003906 C 534.507812 248.871094 534.183594 248.773438 533.84375 248.707031 C 533.507812 248.640625 533.164062 248.605469 532.820312 248.605469 Z M 532.820312 248.605469 " fill-opacity="1" fill-rule="nonzero"/><path fill="#000000" d="M 532.820312 269.585938 L 490.859375 269.585938 C 490.515625 269.585938 490.175781 269.621094 489.835938 269.6875 C 489.5 269.753906 489.171875 269.851562 488.851562 269.984375 C 488.535156 270.117188 488.234375 270.277344 487.945312 270.46875 C 487.660156 270.660156 487.394531 270.878906 487.152344 271.121094 C 486.90625 271.367188 486.691406 271.628906 486.5 271.917969 C 486.308594 272.203125 486.144531 272.503906 486.015625 272.824219 C 485.882812 273.140625 485.785156 273.46875 485.714844 273.808594 C 485.648438 274.144531 485.617188 274.484375 485.617188 274.832031 C 485.617188 275.175781 485.648438 275.515625 485.714844 275.855469 C 485.785156 276.191406 485.882812 276.519531 486.015625 276.835938 C 486.144531 277.15625 486.308594 277.457031 486.5 277.746094 C 486.691406 278.03125 486.90625 278.296875 487.152344 278.539062 C 487.394531 278.78125 487.660156 279 487.945312 279.191406 C 488.234375 279.382812 488.535156 279.542969 488.851562 279.675781 C 489.171875 279.808594 489.5 279.90625 489.835938 279.976562 C 490.175781 280.042969 490.515625 280.074219 490.859375 280.074219 L 532.820312 280.074219 C 533.164062 280.074219 533.507812 280.042969 533.84375 279.976562 C 534.183594 279.90625 534.507812 279.808594 534.828125 279.675781 C 535.144531 279.542969 535.449219 279.382812 535.734375 279.191406 C 536.019531 279 536.285156 278.78125 536.53125 278.539062 C 536.773438 278.296875 536.992188 278.03125 537.183594 277.746094 C 537.375 277.457031 537.535156 277.15625 537.667969 276.835938 C 537.796875 276.519531 537.898438 276.191406 537.964844 275.855469 C 538.03125 275.515625 538.066406 275.175781 538.066406 274.832031 C 538.066406 274.484375 538.03125 274.144531 537.964844 273.808594 C 537.898438 273.46875 537.796875 273.140625 537.667969 272.824219 C 537.535156 272.503906 537.375 272.203125 537.183594 271.917969 C 536.992188 271.628906 536.773438 271.367188 536.53125 271.121094 C 536.285156 270.878906 536.019531 270.660156 535.734375 270.46875 C 535.449219 270.277344 535.144531 270.117188 534.828125 269.984375 C 534.507812 269.851562 534.183594 269.753906 533.84375 269.6875 C 533.507812 269.621094 533.164062 269.585938 532.820312 269.585938 Z M 532.820312 269.585938 " fill-opacity="1" fill-rule="nonzero"/><path fill="#000000" d="M 532.820312 290.566406 L 490.859375 290.566406 C 490.515625 290.566406 490.175781 290.597656 489.835938 290.667969 C 489.5 290.734375 489.171875 290.832031 488.851562 290.964844 C 488.535156 291.097656 488.234375 291.257812 487.945312 291.449219 C 487.660156 291.640625 487.394531 291.859375 487.152344 292.101562 C 486.90625 292.34375 486.691406 292.609375 486.5 292.898438 C 486.308594 293.183594 486.144531 293.484375 486.015625 293.804688 C 485.882812 294.121094 485.785156 294.449219 485.714844 294.789062 C 485.648438 295.125 485.617188 295.464844 485.617188 295.8125 C 485.617188 296.15625 485.648438 296.496094 485.714844 296.835938 C 485.785156 297.171875 485.882812 297.5 486.015625 297.816406 C 486.144531 298.136719 486.308594 298.4375 486.5 298.726562 C 486.691406 299.011719 486.90625 299.277344 487.152344 299.519531 C 487.394531 299.761719 487.660156 299.980469 487.945312 300.171875 C 488.234375 300.363281 488.535156 300.523438 488.851562 300.65625 C 489.171875 300.789062 489.5 300.886719 489.835938 300.953125 C 490.175781 301.023438 490.515625 301.054688 490.859375 301.054688 L 532.820312 301.054688 C 533.164062 301.054688 533.507812 301.023438 533.84375 300.953125 C 534.183594 300.886719 534.507812 300.789062 534.828125 300.65625 C 535.144531 300.523438 535.449219 300.363281 535.734375 300.171875 C 536.019531 299.980469 536.285156 299.761719 536.53125 299.519531 C 536.773438 299.277344 536.992188 299.011719 537.183594 298.726562 C 537.375 298.4375 537.535156 298.136719 537.667969 297.816406 C 537.796875 297.5 537.898438 297.171875 537.964844 296.835938 C 538.03125 296.496094 538.066406 296.15625 538.066406 295.8125 C 538.066406 295.464844 538.03125 295.125 537.964844 294.789062 C 537.898438 294.449219 537.796875 294.121094 537.667969 293.804688 C 537.535156 293.484375 537.375 293.183594 537.183594 292.898438 C 536.992188 292.609375 536.773438 292.34375 536.53125 292.101562 C 536.285156 291.859375 536.019531 291.640625 535.734375 291.449219 C 535.449219 291.257812 535.144531 291.097656 534.828125 290.964844 C 534.507812 290.832031 534.183594 290.734375 533.84375 290.667969 C 533.507812 290.597656 533.164062 290.566406 532.820312 290.566406 Z M 532.820312 290.566406 " fill-opacity="1" fill-rule="nonzero"/><g clip-path="url(#e34eae70db)"><path fill="#000000" d="M 511.839844 169.929688 C 510.296875 169.929688 508.75 169.96875 507.207031 170.042969 C 505.664062 170.121094 504.125 170.234375 502.585938 170.382812 C 501.050781 170.535156 499.515625 170.726562 497.988281 170.953125 C 496.460938 171.179688 494.9375 171.441406 493.421875 171.742188 C 491.90625 172.046875 490.398438 172.382812 488.902344 172.757812 C 487.402344 173.132812 485.914062 173.546875 484.433594 173.996094 C 482.957031 174.445312 481.488281 174.929688 480.035156 175.449219 C 478.578125 175.96875 477.136719 176.523438 475.710938 177.117188 C 474.285156 177.707031 472.871094 178.332031 471.476562 178.992188 C 470.078125 179.65625 468.699219 180.347656 467.335938 181.078125 C 465.972656 181.804688 464.628906 182.566406 463.304688 183.363281 C 461.976562 184.15625 460.671875 184.980469 459.386719 185.839844 C 458.105469 186.699219 456.839844 187.589844 455.601562 188.507812 C 454.359375 189.429688 453.140625 190.378906 451.945312 191.359375 C 450.753906 192.339844 449.582031 193.347656 448.4375 194.386719 C 447.292969 195.425781 446.175781 196.488281 445.082031 197.582031 C 443.988281 198.675781 442.925781 199.792969 441.886719 200.9375 C 440.847656 202.082031 439.839844 203.253906 438.859375 204.445312 C 437.878906 205.640625 436.929688 206.859375 436.007812 208.101562 C 435.089844 209.339844 434.199219 210.605469 433.339844 211.886719 C 432.480469 213.171875 431.65625 214.476562 430.863281 215.804688 C 430.066406 217.128906 429.304688 218.472656 428.578125 219.835938 C 427.847656 221.199219 427.15625 222.578125 426.492188 223.976562 C 425.832031 225.371094 425.207031 226.785156 424.617188 228.210938 C 424.023438 229.636719 423.46875 231.078125 422.949219 232.535156 C 422.429688 233.988281 421.945312 235.457031 421.496094 236.933594 C 421.046875 238.414062 420.632812 239.902344 420.257812 241.402344 C 419.882812 242.898438 419.546875 244.40625 419.242188 245.921875 C 418.941406 247.4375 418.679688 248.960938 418.453125 250.488281 C 418.226562 252.015625 418.035156 253.550781 417.882812 255.085938 C 417.734375 256.625 417.621094 258.164062 417.542969 259.707031 C 417.46875 261.25 417.429688 262.796875 417.429688 264.339844 C 417.429688 265.886719 417.46875 267.429688 417.542969 268.972656 C 417.621094 270.515625 417.734375 272.058594 417.882812 273.59375 C 418.035156 275.132812 418.226562 276.664062 418.453125 278.195312 C 418.679688 279.722656 418.941406 281.242188 419.242188 282.757812 C 419.546875 284.273438 419.882812 285.78125 420.257812 287.28125 C 420.632812 288.777344 421.046875 290.269531 421.496094 291.746094 C 421.945312 293.226562 422.429688 294.691406 422.949219 296.148438 C 423.46875 297.601562 424.023438 299.042969 424.617188 300.46875 C 425.207031 301.898438 425.832031 303.308594 426.492188 304.707031 C 427.15625 306.101562 427.847656 307.484375 428.578125 308.84375 C 429.304688 310.207031 430.066406 311.550781 430.863281 312.878906 C 431.65625 314.203125 432.480469 315.507812 433.339844 316.792969 C 434.199219 318.078125 435.089844 319.339844 436.007812 320.582031 C 436.929688 321.820312 437.878906 323.039062 438.859375 324.234375 C 439.839844 325.429688 440.847656 326.597656 441.886719 327.742188 C 442.925781 328.886719 443.988281 330.007812 445.082031 331.097656 C 446.175781 332.191406 447.292969 333.257812 448.4375 334.292969 C 449.582031 335.332031 450.753906 336.339844 451.945312 337.320312 C 453.140625 338.300781 454.359375 339.25 455.601562 340.171875 C 456.839844 341.09375 458.105469 341.980469 459.386719 342.839844 C 460.671875 343.699219 461.976562 344.523438 463.304688 345.320312 C 464.628906 346.113281 465.972656 346.875 467.335938 347.601562 C 468.699219 348.332031 470.078125 349.027344 471.476562 349.6875 C 472.871094 350.347656 474.285156 350.972656 475.710938 351.566406 C 477.136719 352.15625 478.578125 352.710938 480.035156 353.234375 C 481.488281 353.753906 482.957031 354.238281 484.433594 354.6875 C 485.914062 355.132812 487.402344 355.546875 488.902344 355.921875 C 490.398438 356.296875 491.90625 356.636719 493.421875 356.9375 C 494.9375 357.238281 496.460938 357.503906 497.988281 357.730469 C 499.515625 357.957031 501.050781 358.144531 502.585938 358.296875 C 504.125 358.449219 505.664062 358.5625 507.207031 358.636719 C 508.75 358.714844 510.296875 358.75 511.839844 358.75 C 513.386719 358.75 514.929688 358.714844 516.472656 358.636719 C 518.015625 358.5625 519.558594 358.449219 521.09375 358.296875 C 522.632812 358.144531 524.164062 357.957031 525.695312 357.730469 C 527.222656 357.503906 528.742188 357.238281 530.257812 356.9375 C 531.773438 356.636719 533.28125 356.296875 534.78125 355.921875 C 536.277344 355.546875 537.769531 355.132812 539.246094 354.6875 C 540.726562 354.238281 542.191406 353.753906 543.648438 353.234375 C 545.101562 352.710938 546.542969 352.15625 547.96875 351.566406 C 549.398438 350.972656 550.808594 350.347656 552.207031 349.6875 C 553.601562 349.027344 554.984375 348.332031 556.34375 347.601562 C 557.707031 346.875 559.050781 346.113281 560.378906 345.320312 C 561.703125 344.523438 563.007812 343.699219 564.292969 342.839844 C 565.578125 341.980469 566.839844 341.09375 568.082031 340.171875 C 569.320312 339.25 570.539062 338.300781 571.734375 337.320312 C 572.929688 336.339844 574.097656 335.332031 575.242188 334.292969 C 576.386719 333.257812 577.507812 332.191406 578.597656 331.097656 C 579.691406 330.007812 580.757812 328.886719 581.792969 327.742188 C 582.832031 326.597656 583.839844 325.429688 584.820312 324.234375 C 585.800781 323.039062 586.75 321.820312 587.671875 320.582031 C 588.59375 319.339844 589.480469 318.078125 590.339844 316.792969 C 591.199219 315.507812 592.023438 314.203125 592.820312 312.878906 C 593.613281 311.550781 594.375 310.207031 595.101562 308.84375 C 595.832031 307.484375 596.527344 306.101562 597.1875 304.707031 C 597.847656 303.308594 598.472656 301.898438 599.066406 300.46875 C 599.65625 299.042969 600.210938 297.601562 600.734375 296.148438 C 601.253906 294.691406 601.738281 293.226562 602.1875 291.746094 C 602.632812 290.269531 603.046875 288.777344 603.421875 287.28125 C 603.796875 285.78125 604.136719 284.273438 604.4375 282.757812 C 604.738281 281.242188 605.003906 279.722656 605.230469 278.195312 C 605.457031 276.664062 605.644531 275.132812 605.796875 273.59375 C 605.949219 272.058594 606.0625 270.515625 606.136719 268.972656 C 606.214844 267.429688 606.25 265.886719 606.25 264.339844 C 606.25 262.796875 606.210938 261.253906 606.132812 259.710938 C 606.054688 258.167969 605.941406 256.628906 605.785156 255.089844 C 605.632812 253.554688 605.441406 252.019531 605.214844 250.492188 C 604.988281 248.964844 604.722656 247.445312 604.417969 245.929688 C 604.117188 244.414062 603.777344 242.910156 603.398438 241.410156 C 603.023438 239.914062 602.609375 238.425781 602.160156 236.945312 C 601.710938 235.46875 601.226562 234.003906 600.707031 232.550781 C 600.183594 231.09375 599.628906 229.65625 599.035156 228.226562 C 598.445312 226.800781 597.816406 225.390625 597.15625 223.992188 C 596.496094 222.597656 595.800781 221.21875 595.070312 219.855469 C 594.34375 218.496094 593.582031 217.152344 592.785156 215.828125 C 591.992188 214.503906 591.164062 213.199219 590.304688 211.914062 C 589.449219 210.628906 588.558594 209.367188 587.636719 208.128906 C 586.71875 206.886719 585.765625 205.671875 584.789062 204.476562 C 583.808594 203.28125 582.796875 202.113281 581.761719 200.96875 C 580.722656 199.824219 579.660156 198.707031 578.566406 197.613281 C 577.476562 196.523438 576.355469 195.457031 575.210938 194.417969 C 574.066406 193.382812 572.898438 192.375 571.703125 191.394531 C 570.511719 190.414062 569.292969 189.464844 568.054688 188.542969 C 566.8125 187.621094 565.550781 186.734375 564.265625 185.875 C 562.980469 185.015625 561.679688 184.191406 560.351562 183.394531 C 559.027344 182.601562 557.6875 181.839844 556.324219 181.109375 C 554.960938 180.382812 553.582031 179.6875 552.1875 179.023438 C 550.789062 178.363281 549.378906 177.738281 547.953125 177.144531 C 546.527344 176.554688 545.085938 175.996094 543.632812 175.476562 C 542.179688 174.953125 540.710938 174.46875 539.234375 174.019531 C 537.757812 173.570312 536.269531 173.15625 534.769531 172.78125 C 533.273438 172.402344 531.765625 172.066406 530.25 171.761719 C 528.738281 171.460938 527.214844 171.195312 525.6875 170.964844 C 524.160156 170.738281 522.628906 170.546875 521.089844 170.394531 C 519.554688 170.242188 518.015625 170.125 516.472656 170.046875 C 514.929688 169.972656 513.386719 169.929688 511.839844 169.929688 Z M 511.839844 348.261719 C 510.46875 348.261719 509.09375 348.226562 507.722656 348.160156 C 506.351562 348.09375 504.980469 347.992188 503.613281 347.855469 C 502.246094 347.722656 500.886719 347.554688 499.527344 347.351562 C 498.167969 347.152344 496.816406 346.917969 495.46875 346.648438 C 494.121094 346.378906 492.78125 346.078125 491.449219 345.746094 C 490.117188 345.414062 488.792969 345.046875 487.480469 344.648438 C 486.164062 344.25 484.863281 343.816406 483.570312 343.355469 C 482.273438 342.894531 480.996094 342.398438 479.726562 341.875 C 478.457031 341.347656 477.203125 340.792969 475.960938 340.203125 C 474.71875 339.617188 473.492188 339 472.28125 338.351562 C 471.070312 337.703125 469.875 337.027344 468.695312 336.320312 C 467.519531 335.617188 466.359375 334.882812 465.214844 334.117188 C 464.074219 333.355469 462.953125 332.5625 461.847656 331.746094 C 460.746094 330.929688 459.664062 330.082031 458.601562 329.210938 C 457.539062 328.339844 456.5 327.445312 455.484375 326.523438 C 454.464844 325.597656 453.472656 324.652344 452.5 323.679688 C 451.527344 322.710938 450.582031 321.714844 449.660156 320.699219 C 448.738281 319.679688 447.839844 318.640625 446.96875 317.578125 C 446.097656 316.519531 445.253906 315.433594 444.433594 314.332031 C 443.617188 313.230469 442.824219 312.105469 442.0625 310.964844 C 441.300781 309.824219 440.566406 308.664062 439.859375 307.484375 C 439.152344 306.304688 438.476562 305.113281 437.828125 303.902344 C 437.179688 302.6875 436.5625 301.460938 435.976562 300.222656 C 435.390625 298.980469 434.832031 297.722656 434.308594 296.457031 C 433.78125 295.1875 433.289062 293.90625 432.824219 292.613281 C 432.363281 291.320312 431.933594 290.015625 431.535156 288.703125 C 431.132812 287.386719 430.769531 286.0625 430.433594 284.730469 C 430.101562 283.398438 429.800781 282.058594 429.53125 280.710938 C 429.265625 279.367188 429.03125 278.011719 428.828125 276.652344 C 428.625 275.296875 428.457031 273.933594 428.324219 272.566406 C 428.1875 271.199219 428.089844 269.832031 428.019531 268.457031 C 427.953125 267.085938 427.917969 265.714844 427.917969 264.339844 C 427.917969 262.96875 427.953125 261.59375 428.019531 260.222656 C 428.089844 258.851562 428.1875 257.480469 428.324219 256.113281 C 428.457031 254.746094 428.625 253.386719 428.828125 252.027344 C 429.03125 250.667969 429.265625 249.316406 429.53125 247.96875 C 429.800781 246.621094 430.101562 245.28125 430.433594 243.949219 C 430.769531 242.617188 431.132812 241.292969 431.535156 239.980469 C 431.933594 238.664062 432.363281 237.363281 432.824219 236.070312 C 433.289062 234.773438 433.78125 233.496094 434.308594 232.226562 C 434.832031 230.957031 435.390625 229.703125 435.976562 228.460938 C 436.5625 227.21875 437.179688 225.992188 437.828125 224.78125 C 438.476562 223.570312 439.152344 222.375 439.859375 221.195312 C 440.566406 220.019531 441.300781 218.859375 442.0625 217.714844 C 442.824219 216.574219 443.617188 215.453125 444.433594 214.347656 C 445.253906 213.246094 446.097656 212.164062 446.96875 211.101562 C 447.839844 210.039062 448.738281 209 449.660156 207.984375 C 450.582031 206.964844 451.527344 205.972656 452.5 205 C 453.472656 204.027344 454.464844 203.082031 455.484375 202.160156 C 456.5 201.238281 457.539062 200.339844 458.601562 199.46875 C 459.664062 198.597656 460.746094 197.753906 461.847656 196.933594 C 462.953125 196.117188 464.074219 195.324219 465.214844 194.5625 C 466.359375 193.800781 467.519531 193.066406 468.695312 192.359375 C 469.875 191.652344 471.070312 190.976562 472.28125 190.328125 C 473.492188 189.679688 474.71875 189.0625 475.960938 188.476562 C 477.203125 187.890625 478.457031 187.332031 479.726562 186.808594 C 480.996094 186.28125 482.273438 185.789062 483.570312 185.324219 C 484.863281 184.863281 486.164062 184.433594 487.480469 184.035156 C 488.792969 183.632812 490.117188 183.269531 491.449219 182.933594 C 492.78125 182.601562 494.121094 182.300781 495.46875 182.03125 C 496.816406 181.765625 498.167969 181.53125 499.527344 181.328125 C 500.886719 181.125 502.246094 180.957031 503.613281 180.824219 C 504.980469 180.6875 506.351562 180.589844 507.722656 180.519531 C 509.09375 180.453125 510.46875 180.417969 511.839844 180.417969 C 513.214844 180.417969 514.585938 180.453125 515.957031 180.519531 C 517.332031 180.589844 518.699219 180.6875 520.066406 180.824219 C 521.433594 180.957031 522.796875 181.125 524.152344 181.328125 C 525.511719 181.53125 526.867188 181.765625 528.210938 182.03125 C 529.558594 182.300781 530.898438 182.601562 532.230469 182.933594 C 533.5625 183.269531 534.886719 183.632812 536.203125 184.035156 C 537.515625 184.433594 538.820312 184.863281 540.113281 185.324219 C 541.40625 185.789062 542.6875 186.28125 543.957031 186.808594 C 545.222656 187.332031 546.480469 187.890625 547.722656 188.476562 C 548.960938 189.0625 550.1875 189.679688 551.402344 190.328125 C 552.613281 190.976562 553.804688 191.652344 554.984375 192.359375 C 556.164062 193.066406 557.324219 193.800781 558.464844 194.5625 C 559.605469 195.324219 560.730469 196.117188 561.832031 196.933594 C 562.933594 197.753906 564.019531 198.597656 565.078125 199.46875 C 566.140625 200.339844 567.179688 201.238281 568.199219 202.160156 C 569.214844 203.082031 570.210938 204.027344 571.179688 205 C 572.152344 205.972656 573.097656 206.964844 574.023438 207.984375 C 574.945312 209 575.839844 210.039062 576.710938 211.101562 C 577.582031 212.164062 578.429688 213.246094 579.246094 214.347656 C 580.0625 215.453125 580.855469 216.574219 581.617188 217.714844 C 582.382812 218.859375 583.117188 220.019531 583.820312 221.195312 C 584.527344 222.375 585.203125 223.570312 585.851562 224.78125 C 586.5 225.992188 587.117188 227.21875 587.703125 228.460938 C 588.292969 229.703125 588.847656 230.957031 589.375 232.226562 C 589.898438 233.496094 590.394531 234.773438 590.855469 236.070312 C 591.316406 237.363281 591.75 238.664062 592.148438 239.980469 C 592.546875 241.292969 592.914062 242.617188 593.246094 243.949219 C 593.578125 245.28125 593.878906 246.621094 594.148438 247.96875 C 594.417969 249.316406 594.652344 250.667969 594.851562 252.027344 C 595.054688 253.386719 595.222656 254.746094 595.355469 256.113281 C 595.492188 257.480469 595.59375 258.851562 595.660156 260.222656 C 595.726562 261.59375 595.761719 262.96875 595.761719 264.339844 C 595.757812 265.714844 595.722656 267.085938 595.65625 268.457031 C 595.585938 269.828125 595.484375 271.195312 595.347656 272.5625 C 595.210938 273.929688 595.042969 275.292969 594.839844 276.648438 C 594.636719 278.007812 594.402344 279.359375 594.132812 280.707031 C 593.863281 282.050781 593.5625 283.390625 593.226562 284.722656 C 592.890625 286.054688 592.523438 287.375 592.125 288.691406 C 591.726562 290.003906 591.292969 291.308594 590.832031 292.597656 C 590.367188 293.890625 589.871094 295.171875 589.347656 296.441406 C 588.820312 297.707031 588.261719 298.960938 587.675781 300.203125 C 587.089844 301.445312 586.46875 302.671875 585.824219 303.878906 C 585.175781 305.089844 584.496094 306.285156 583.792969 307.460938 C 583.085938 308.640625 582.351562 309.800781 581.585938 310.941406 C 580.824219 312.082031 580.035156 313.203125 579.214844 314.308594 C 578.398438 315.410156 577.554688 316.492188 576.683594 317.550781 C 575.808594 318.613281 574.914062 319.652344 573.992188 320.671875 C 573.070312 321.6875 572.125 322.679688 571.152344 323.652344 C 570.179688 324.625 569.1875 325.570312 568.171875 326.492188 C 567.152344 327.414062 566.113281 328.308594 565.050781 329.183594 C 563.992188 330.054688 562.910156 330.898438 561.808594 331.714844 C 560.703125 332.535156 559.582031 333.324219 558.441406 334.085938 C 557.300781 334.851562 556.140625 335.585938 554.960938 336.292969 C 553.785156 336.996094 552.589844 337.675781 551.378906 338.324219 C 550.171875 338.96875 548.945312 339.589844 547.703125 340.175781 C 546.460938 340.761719 545.207031 341.320312 543.941406 341.847656 C 542.671875 342.371094 541.390625 342.867188 540.097656 343.332031 C 538.808594 343.792969 537.503906 344.226562 536.191406 344.625 C 534.875 345.023438 533.554688 345.390625 532.222656 345.726562 C 530.890625 346.0625 529.550781 346.363281 528.207031 346.632812 C 526.859375 346.902344 525.507812 347.136719 524.148438 347.339844 C 522.792969 347.542969 521.429688 347.710938 520.0625 347.847656 C 518.695312 347.984375 517.328125 348.085938 515.957031 348.15625 C 514.585938 348.222656 513.214844 348.257812 511.839844 348.261719 Z M 511.839844 348.261719 " fill-opacity="1" fill-rule="nonzero"/></g></svg>