<svg xmlns="http://www.w3.org/2000/svg" xmlns:xlink="http://www.w3.org/1999/xlink" width="1366" zoomAndPan="magnify" viewBox="0 0 1024.5 529.499989" height="706" preserveAspectRatio="xMidYMid meet" version="1.0"><defs><clipPath id="ac850a394a"><path d="M 475 178 L 550 178 L 550 351.800781 L 475 351.800781 Z M 475 178 " clip-rule="nonzero"/></clipPath></defs><path fill="#000000" d="M 450.566406 327.210938 C 446.878906 327.210938 444.417969 325.980469 441.957031 323.523438 L 392.761719 274.34375 C 387.839844 269.425781 387.839844 262.050781 392.761719 257.132812 L 441.957031 207.953125 C 446.878906 203.035156 454.257812 203.035156 459.175781 207.953125 C 464.097656 212.871094 464.097656 220.246094 459.175781 225.164062 L 418.589844 265.738281 L 459.175781 306.308594 C 464.097656 311.226562 464.097656 318.605469 459.175781 323.523438 C 456.71875 325.980469 454.257812 327.210938 450.566406 327.210938 Z M 450.566406 327.210938 " fill-opacity="1" fill-rule="nonzero"/><path fill="#000000" d="M 573.5625 327.210938 C 569.871094 327.210938 567.410156 325.980469 564.953125 323.523438 C 560.03125 318.605469 560.03125 311.226562 564.953125 306.308594 L 605.539062 265.738281 L 564.953125 225.164062 C 560.03125 220.246094 560.03125 212.871094 564.953125 207.953125 C 569.871094 203.035156 577.25 203.035156 582.171875 207.953125 L 631.367188 257.132812 C 636.289062 262.050781 636.289062 269.425781 631.367188 274.34375 L 582.171875 323.523438 C 579.710938 325.980469 577.25 327.210938 573.5625 327.210938 Z M 573.5625 327.210938 " fill-opacity="1" fill-rule="nonzero"/><g clip-path="url(#ac850a394a)"><path fill="#000000" d="M 487.464844 351.800781 C 486.234375 351.800781 485.007812 351.800781 483.777344 350.570312 C 477.625 348.113281 473.9375 341.964844 476.394531 334.585938 L 525.59375 187.050781 C 528.054688 180.902344 534.203125 177.214844 541.582031 179.675781 C 547.734375 182.132812 551.421875 188.28125 548.960938 195.65625 L 499.765625 343.195312 C 497.304688 348.113281 492.386719 351.800781 487.464844 351.800781 Z M 487.464844 351.800781 " fill-opacity="1" fill-rule="nonzero"/></g></svg>