<svg xmlns="http://www.w3.org/2000/svg" xmlns:xlink="http://www.w3.org/1999/xlink" width="1366" zoomAndPan="magnify" viewBox="0 0 1024.5 529.499989" height="706" preserveAspectRatio="xMidYMid meet" version="1.0"><defs><clipPath id="0a5b1536b0"><path d="M 414.84375 257 L 608.910156 257 L 608.910156 352.535156 L 414.84375 352.535156 Z M 414.84375 257 " clip-rule="nonzero"/></clipPath><clipPath id="6b448bc421"><path d="M 414.84375 176.449219 L 608.910156 176.449219 L 608.910156 257 L 414.84375 257 Z M 414.84375 176.449219 " clip-rule="nonzero"/></clipPath></defs><g clip-path="url(#0a5b1536b0)"><path fill="#000000" d="M 608.851562 333.332031 L 608.851562 257.089844 C 607.820312 258.097656 606.703125 259.066406 605.5625 259.945312 C 604.507812 260.757812 603.410156 261.503906 602.269531 262.207031 C 598.515625 264.492188 594.347656 266.050781 589.980469 266.734375 C 584.097656 267.632812 578.019531 267.28125 572.074219 267.28125 L 530.023438 267.28125 C 529.871094 267.28125 529.71875 267.28125 529.5625 267.261719 L 529.5625 269.984375 C 529.5625 270.316406 529.585938 270.621094 529.5625 270.953125 C 529.476562 272.730469 528.160156 274.050781 526.382812 274.136719 C 523.242188 274.292969 520.0625 274.136719 516.902344 274.136719 L 501.582031 274.136719 C 500.246094 274.136719 498.90625 274.160156 497.566406 274.136719 C 495.570312 274.09375 494.1875 272.753906 494.164062 270.734375 C 494.144531 269.589844 494.144531 268.425781 494.144531 267.28125 C 494.011719 267.304688 493.859375 267.304688 493.726562 267.304688 C 493.636719 267.304688 493.527344 267.304688 493.441406 267.304688 C 487.472656 267.394531 481.480469 267.304688 475.511719 267.304688 L 448.847656 267.304688 C 442.265625 267.304688 435.527344 267.722656 429.164062 265.679688 C 426.507812 264.820312 423.917969 263.65625 421.480469 262.230469 C 420.339844 261.546875 419.242188 260.824219 418.1875 260.03125 C 417.027344 259.152344 415.929688 258.207031 414.898438 257.199219 L 414.898438 340.296875 C 414.898438 340.910156 414.875 341.527344 414.917969 342.140625 C 415.359375 347.941406 420.078125 352.425781 425.890625 352.511719 C 427.320312 352.535156 428.722656 352.511719 430.148438 352.511719 L 591.910156 352.511719 C 593.796875 352.511719 595.707031 352.511719 597.59375 352.511719 C 604.003906 352.492188 608.832031 347.4375 608.851562 341.085938 C 608.851562 338.449219 608.851562 335.902344 608.851562 333.332031 Z M 608.851562 333.332031 " fill-opacity="1" fill-rule="nonzero"/></g><g clip-path="url(#6b448bc421)"><path fill="#000000" d="M 608.808594 223.097656 L 608.808594 215.539062 C 608.390625 209.78125 603.695312 205.257812 597.859375 205.167969 C 597.464844 205.167969 597.089844 205.167969 596.695312 205.167969 L 549.644531 205.167969 L 549.644531 188.753906 C 549.644531 185.414062 548.699219 182.25 546.285156 179.835938 C 544.027344 177.550781 540.976562 176.496094 537.792969 176.472656 C 534.917969 176.472656 532.066406 176.472656 529.191406 176.472656 L 487.164062 176.472656 C 486.617188 176.472656 486.066406 176.449219 485.539062 176.472656 C 479.242188 176.605469 474.28125 181.59375 474.128906 187.898438 C 473.996094 193.632812 474.0625 199.410156 474.105469 205.167969 L 428.242188 205.167969 C 427.558594 205.167969 426.902344 205.167969 426.222656 205.167969 C 423.28125 205.167969 420.539062 206.179688 418.363281 208.199219 C 416.257812 210.175781 415.140625 212.878906 414.964844 215.714844 L 414.964844 226.371094 C 414.964844 227.910156 414.964844 229.425781 414.964844 230.964844 C 414.964844 231.621094 414.964844 232.257812 415.007812 232.917969 C 415.027344 233.378906 415.074219 233.820312 415.117188 234.28125 C 415.117188 234.347656 415.140625 234.414062 415.140625 234.480469 C 415.25 235.117188 415.335938 235.753906 415.46875 236.367188 C 415.796875 237.90625 416.28125 239.421875 416.828125 240.894531 C 416.828125 240.917969 416.828125 240.917969 416.851562 240.9375 C 416.851562 240.960938 416.851562 240.960938 416.871094 240.984375 C 416.894531 241.027344 416.894531 241.046875 416.917969 241.09375 C 417.046875 241.398438 417.203125 241.707031 417.355469 242.015625 C 417.640625 242.585938 417.925781 243.136719 418.234375 243.683594 C 418.277344 243.773438 418.320312 243.859375 418.386719 243.925781 C 418.804688 244.628906 419.242188 245.332031 419.726562 245.992188 C 419.921875 246.277344 420.140625 246.519531 420.316406 246.804688 C 420.296875 246.761719 420.273438 246.71875 420.253906 246.671875 C 420.296875 246.738281 420.316406 246.78125 420.363281 246.828125 C 420.734375 247.289062 421.128906 247.75 421.546875 248.1875 C 422.183594 248.871094 422.863281 249.53125 423.566406 250.167969 C 423.851562 250.429688 424.136719 250.671875 424.445312 250.914062 C 424.488281 250.957031 424.554688 251 424.621094 251.046875 C 424.992188 251.289062 425.144531 251.375 425.167969 251.398438 C 425.144531 251.398438 425.035156 251.308594 424.882812 251.222656 C 425.34375 251.527344 425.78125 251.878906 426.242188 252.1875 C 427.472656 252.980469 428.746094 253.683594 430.0625 254.296875 C 431.335938 254.691406 430.65625 254.539062 430.238281 254.386719 C 430.28125 254.40625 430.304688 254.40625 430.347656 254.429688 C 430.71875 254.5625 431.070312 254.714844 431.445312 254.824219 C 432.148438 255.066406 432.847656 255.285156 433.550781 255.484375 C 434.320312 255.683594 435.085938 255.859375 435.878906 256.011719 C 436.140625 256.054688 436.402344 256.097656 436.667969 256.144531 C 436.820312 256.164062 436.976562 256.164062 437.105469 256.1875 C 439.058594 256.363281 441.035156 256.320312 442.988281 256.320312 L 493.792969 256.320312 C 493.945312 256.320312 494.097656 256.320312 494.253906 256.339844 L 494.253906 251.046875 C 494.253906 249.507812 494.035156 247.859375 495.285156 246.71875 C 496.359375 245.726562 497.765625 245.882812 499.101562 245.882812 L 525.65625 245.882812 C 525.921875 245.882812 526.207031 245.882812 526.46875 245.882812 C 528.179688 245.96875 529.386719 247.15625 529.609375 248.804688 C 529.628906 248.890625 529.628906 248.980469 529.628906 249.066406 C 529.628906 249.113281 529.628906 249.15625 529.628906 249.199219 L 529.628906 256.363281 C 529.78125 256.339844 529.9375 256.339844 530.089844 256.339844 L 530.375 256.339844 C 536.191406 256.230469 542.007812 256.339844 547.800781 256.339844 L 583.96875 256.339844 C 584.910156 256.339844 585.832031 256.296875 586.777344 256.210938 C 586.953125 256.1875 587.148438 256.164062 587.324219 256.144531 C 587.542969 256.097656 587.785156 256.078125 588.003906 256.035156 C 588.773438 255.878906 589.5625 255.726562 590.332031 255.507812 C 591.097656 255.308594 591.84375 255.066406 592.589844 254.804688 C 592.941406 254.671875 593.273438 254.539062 593.621094 254.40625 C 594.984375 253.769531 596.277344 253.089844 597.53125 252.277344 C 597.945312 252.011719 598.339844 251.75 598.738281 251.464844 C 598.847656 251.375 599.195312 251.113281 599.351562 251 C 599.351562 251 599.371094 250.980469 599.371094 250.980469 C 599.394531 250.957031 599.4375 250.9375 599.4375 250.914062 C 599.746094 250.671875 600.03125 250.410156 600.316406 250.167969 C 601.019531 249.550781 601.675781 248.890625 602.335938 248.1875 C 602.753906 247.75 603.148438 247.308594 603.519531 246.828125 C 603.542969 246.78125 603.585938 246.761719 603.609375 246.71875 C 603.785156 246.429688 604.023438 246.144531 604.222656 245.882812 C 604.640625 245.289062 605.035156 244.671875 605.386719 244.058594 C 605.453125 243.925781 605.539062 243.792969 605.605469 243.683594 C 605.933594 243.089844 606.265625 242.5 606.550781 241.882812 C 606.679688 241.597656 606.835938 241.289062 606.964844 241.003906 C 607.515625 239.554688 607.996094 238.082031 608.328125 236.542969 C 608.4375 236.0625 608.523438 235.554688 608.613281 235.070312 C 608.613281 235.070312 608.613281 235.050781 608.613281 235.050781 C 608.613281 235.050781 608.613281 235.027344 608.613281 235.027344 C 608.613281 235.007812 608.613281 234.984375 608.613281 234.960938 C 608.613281 234.941406 608.613281 234.917969 608.632812 234.894531 C 608.65625 234.675781 608.699219 234.390625 608.722656 234.214844 C 608.765625 233.820312 608.789062 233.402344 608.808594 233.007812 C 608.832031 232.371094 608.851562 231.730469 608.875 231.09375 L 608.875 226.746094 C 608.832031 225.449219 608.808594 224.285156 608.808594 223.097656 Z M 538.738281 187.984375 C 538.738281 188.007812 538.738281 188.03125 538.757812 188.03125 C 538.757812 188.03125 538.757812 188.050781 538.757812 188.050781 C 538.78125 188.160156 538.804688 188.226562 538.757812 188.117188 C 538.738281 188.140625 538.691406 188.097656 538.671875 188.050781 C 538.78125 193.765625 538.738281 199.476562 538.691406 205.191406 L 485.078125 205.191406 L 485.078125 189.214844 C 485.078125 188.84375 485.078125 188.449219 485.078125 188.074219 C 485.015625 188.160156 484.96875 188.183594 484.949219 188.160156 C 484.902344 188.226562 484.902344 188.097656 484.925781 187.941406 C 484.816406 188.074219 484.75 188.097656 484.925781 187.898438 C 484.925781 187.808594 484.949219 187.746094 484.96875 187.65625 C 484.96875 187.65625 484.96875 187.65625 484.949219 187.65625 C 484.949219 187.65625 484.949219 187.65625 484.96875 187.65625 C 484.992188 187.613281 484.992188 187.546875 485.015625 187.503906 C 484.859375 187.503906 484.902344 187.457031 485.035156 187.4375 C 485.058594 187.328125 485.101562 187.28125 485.101562 187.414062 C 485.144531 187.414062 485.191406 187.394531 485.253906 187.394531 C 485.253906 187.371094 485.253906 187.371094 485.253906 187.347656 C 485.253906 187.347656 485.253906 187.371094 485.253906 187.371094 C 485.34375 187.347656 485.410156 187.347656 485.496094 187.328125 C 485.585938 187.238281 485.628906 187.21875 485.648438 187.195312 C 485.628906 187.21875 485.585938 187.261719 485.519531 187.328125 C 485.695312 187.304688 485.824219 187.304688 485.761719 187.347656 C 485.78125 187.371094 485.761719 187.414062 485.671875 187.480469 C 485.847656 187.480469 486.023438 187.480469 486.199219 187.480469 L 536.257812 187.480469 C 536.914062 187.480469 537.550781 187.457031 538.210938 187.480469 C 538.167969 187.457031 538.144531 187.457031 538.121094 187.4375 C 537.96875 187.347656 538.011719 187.328125 538.121094 187.304688 C 538.054688 187.261719 538.078125 187.261719 538.144531 187.304688 C 538.167969 187.304688 538.210938 187.304688 538.230469 187.304688 C 538.144531 187.238281 538.101562 187.195312 538.078125 187.171875 C 538.078125 187.171875 538.144531 187.21875 538.253906 187.304688 C 538.34375 187.304688 538.429688 187.328125 538.515625 187.328125 C 538.5625 187.328125 538.582031 187.347656 538.628906 187.347656 C 538.628906 187.304688 538.628906 187.28125 538.648438 187.28125 C 538.648438 187.28125 538.671875 187.304688 538.671875 187.347656 C 538.867188 187.394531 538.957031 187.4375 538.671875 187.457031 C 538.671875 187.503906 538.671875 187.523438 538.671875 187.570312 C 538.738281 187.589844 538.78125 187.613281 538.800781 187.613281 C 538.78125 187.613281 538.714844 187.613281 538.671875 187.589844 L 538.671875 187.613281 C 538.691406 187.632812 538.738281 187.65625 538.78125 187.699219 C 538.757812 187.699219 538.738281 187.679688 538.691406 187.65625 C 538.691406 187.699219 538.714844 187.722656 538.714844 187.765625 C 538.78125 187.855469 538.867188 187.941406 538.933594 187.984375 C 538.867188 187.941406 538.800781 187.875 538.738281 187.832031 C 538.738281 187.921875 538.738281 187.941406 538.738281 187.984375 Z M 538.738281 187.984375 " fill-opacity="1" fill-rule="nonzero"/></g></svg>