<svg xmlns="http://www.w3.org/2000/svg" xmlns:xlink="http://www.w3.org/1999/xlink" width="1366" zoomAndPan="magnify" viewBox="0 0 1024.5 529.499989" height="706" preserveAspectRatio="xMidYMid meet" version="1.0"><defs><clipPath id="51c44bb7d5"><path d="M 485.710938 226.195312 L 538.164062 226.195312 L 538.164062 302 L 485.710938 302 Z M 485.710938 226.195312 " clip-rule="nonzero"/></clipPath></defs><g clip-path="url(#51c44bb7d5)"><path fill="#1a87ef" d="M 511.996094 226.21875 C 526.511719 226.21875 538.28125 237.988281 538.28125 252.503906 C 538.28125 257.554688 536.855469 262.273438 534.386719 266.277344 C 531.421875 271.183594 528.460938 276.089844 525.5 281 C 521.890625 286.863281 518.972656 291.609375 515.363281 297.472656 C 512.183594 302.644531 511.96875 302.769531 508.773438 297.574219 C 505.183594 291.738281 502.164062 286.832031 498.578125 281 C 495.621094 276.148438 492.667969 271.292969 489.710938 266.441406 C 487.179688 262.402344 485.710938 257.625 485.710938 252.503906 C 485.710938 237.988281 497.480469 226.21875 511.996094 226.21875 Z M 511.996094 239.398438 C 518.503906 239.398438 523.78125 244.671875 523.78125 251.179688 C 523.78125 257.6875 518.503906 262.964844 511.996094 262.964844 C 505.488281 262.964844 500.214844 257.6875 500.214844 251.179688 C 500.214844 244.671875 505.488281 239.398438 511.996094 239.398438 Z M 511.996094 239.398438 " fill-opacity="1" fill-rule="evenodd"/></g></svg>