<svg xmlns="http://www.w3.org/2000/svg" xmlns:xlink="http://www.w3.org/1999/xlink" width="1366" zoomAndPan="magnify" viewBox="0 0 1024.5 529.499989" height="706" preserveAspectRatio="xMidYMid meet" version="1.0"><defs><clipPath id="612302ae16"><path d="M 413.5625 182 L 594 182 L 594 363 L 413.5625 363 Z M 413.5625 182 " clip-rule="nonzero"/></clipPath></defs><g clip-path="url(#612302ae16)"><path fill="#0277bd" d="M 578.867188 347.898438 L 428.589844 347.898438 L 428.589844 197.621094 L 518.757812 197.621094 L 518.757812 182.59375 L 428.589844 182.59375 C 420.292969 182.59375 413.5625 189.324219 413.5625 197.621094 L 413.5625 347.898438 C 413.5625 356.195312 420.292969 362.925781 428.589844 362.925781 L 578.867188 362.925781 C 587.164062 362.925781 593.894531 356.195312 593.894531 347.898438 L 593.894531 257.730469 L 578.867188 257.730469 Z M 578.867188 347.898438 " fill-opacity="1" fill-rule="nonzero"/></g><path fill="#0277bd" d="M 473.671875 303.054688 L 505.308594 303.054688 L 581.980469 226.382812 L 550.105469 194.507812 L 473.671875 270.941406 Z M 473.671875 303.054688 " fill-opacity="1" fill-rule="nonzero"/><path fill="#0277bd" d="M 604.519531 182.59375 L 593.894531 171.96875 C 588.019531 166.09375 578.507812 166.09375 572.648438 171.96875 L 560.730469 183.886719 L 592.605469 215.757812 L 604.519531 203.84375 C 610.398438 197.964844 610.398438 188.453125 604.519531 182.59375 Z M 604.519531 182.59375 " fill-opacity="1" fill-rule="nonzero"/></svg>