<svg xmlns="http://www.w3.org/2000/svg" xmlns:xlink="http://www.w3.org/1999/xlink" width="1366" zoomAndPan="magnify" viewBox="0 0 1024.5 529.499989" height="706" preserveAspectRatio="xMidYMid meet" version="1.0"><defs><clipPath id="3780da9c09"><path d="M 532 234 L 569.984375 234 L 569.984375 296 L 532 296 Z M 532 234 " clip-rule="nonzero"/></clipPath><clipPath id="5e9b53fbbf"><path d="M 489 221.089844 L 527 221.089844 L 527 308.144531 L 489 308.144531 Z M 489 221.089844 " clip-rule="nonzero"/></clipPath><clipPath id="6cae62a0ab"><path d="M 407.574219 160.074219 L 616.421875 160.074219 L 616.421875 368.921875 L 407.574219 368.921875 Z M 407.574219 160.074219 " clip-rule="nonzero"/></clipPath><clipPath id="7200380ed5"><path d="M 511.996094 160.074219 C 454.324219 160.074219 407.574219 206.828125 407.574219 264.496094 C 407.574219 322.167969 454.324219 368.921875 511.996094 368.921875 C 569.667969 368.921875 616.421875 322.167969 616.421875 264.496094 C 616.421875 206.828125 569.667969 160.074219 511.996094 160.074219 Z M 511.996094 160.074219 " clip-rule="nonzero"/></clipPath></defs><path fill="#000000" d="M 477.5625 295.886719 C 475.730469 295.886719 474.511719 295.273438 473.289062 294.046875 L 448.875 269.523438 C 446.433594 267.070312 446.433594 263.390625 448.875 260.941406 L 473.289062 236.417969 C 475.730469 233.964844 479.394531 233.964844 481.832031 236.417969 C 484.273438 238.867188 484.273438 242.546875 481.832031 245 L 461.691406 265.230469 L 481.832031 285.460938 C 484.273438 287.914062 484.273438 291.59375 481.832031 294.046875 C 480.613281 295.273438 479.394531 295.886719 477.5625 295.886719 Z M 477.5625 295.886719 " fill-opacity="1" fill-rule="nonzero"/><g clip-path="url(#3780da9c09)"><path fill="#000000" d="M 538.59375 295.886719 C 536.761719 295.886719 535.542969 295.273438 534.324219 294.046875 C 531.882812 291.59375 531.882812 287.914062 534.324219 285.460938 L 554.464844 265.230469 L 534.324219 245 C 531.882812 242.546875 531.882812 238.867188 534.324219 236.417969 C 536.761719 233.964844 540.425781 233.964844 542.867188 236.417969 L 567.28125 260.941406 C 569.722656 263.390625 569.722656 267.070312 567.28125 269.523438 L 542.867188 294.046875 C 541.644531 295.273438 540.425781 295.886719 538.59375 295.886719 Z M 538.59375 295.886719 " fill-opacity="1" fill-rule="nonzero"/></g><g clip-path="url(#5e9b53fbbf)"><path fill="#000000" d="M 495.871094 308.144531 C 495.261719 308.144531 494.652344 308.144531 494.039062 307.535156 C 490.988281 306.308594 489.15625 303.242188 490.378906 299.5625 L 514.792969 225.996094 C 516.011719 222.929688 519.0625 221.089844 522.726562 222.316406 C 525.777344 223.542969 527.609375 226.605469 526.386719 230.285156 L 501.976562 303.855469 C 500.753906 306.308594 498.3125 308.144531 495.871094 308.144531 Z M 495.871094 308.144531 " fill-opacity="1" fill-rule="nonzero"/></g><g clip-path="url(#6cae62a0ab)"><g clip-path="url(#7200380ed5)"><path stroke-linecap="butt" transform="matrix(1.934597, 0, 0, 1.934597, 407.574437, 160.074454)" fill="none" stroke-linejoin="miter" d="M 53.97593 -0.000121477 C 24.16513 -0.000121477 -0.000112798 24.165122 -0.000112798 53.975921 C -0.000112798 83.786721 24.16513 107.953983 53.97593 107.953983 C 83.786729 107.953983 107.953992 83.786721 107.953992 53.975921 C 107.953992 24.165122 83.786729 -0.000121477 53.97593 -0.000121477 Z M 53.97593 -0.000121477 " stroke="#000000" stroke-width="0.774624" stroke-opacity="1" stroke-miterlimit="4"/></g></g></svg>