<svg xmlns="http://www.w3.org/2000/svg" xmlns:xlink="http://www.w3.org/1999/xlink" width="1366" zoomAndPan="magnify" viewBox="0 0 1024.5 529.499989" height="706" preserveAspectRatio="xMidYMid meet" version="1.0"><path fill="#1a87ef" d="M 575.347656 321.871094 C 569.347656 322.714844 564.46875 327.132812 563.042969 333.011719 C 561.019531 341.339844 552.351562 346.203125 544.179688 343.597656 C 538.40625 341.757812 532.09375 343.621094 528.253906 348.300781 C 522.8125 354.925781 512.890625 355.550781 506.660156 349.660156 C 502.261719 345.5 495.765625 344.441406 490.269531 346.996094 C 482.492188 350.605469 473.277344 346.867188 470.226562 338.859375 C 468.066406 333.203125 462.675781 329.433594 456.613281 329.351562 C 448.039062 329.234375 441.363281 321.875 442.089844 313.332031 C 442.601562 307.300781 439.378906 301.566406 433.957031 298.867188 C 426.28125 295.042969 423.460938 285.515625 427.824219 278.136719 C 430.90625 272.925781 430.492188 266.363281 426.777344 261.578125 C 421.523438 254.808594 423.121094 245.003906 430.257812 240.246094 C 435.296875 236.882812 437.773438 230.792969 436.507812 224.875 L 436.507812 224.871094 C 434.710938 216.492188 440.410156 208.351562 448.902344 207.160156 C 454.90625 206.316406 459.78125 201.902344 461.210938 196.019531 C 463.234375 187.691406 471.902344 182.824219 480.074219 185.433594 C 485.84375 187.273438 492.15625 185.410156 496 180.730469 C 501.441406 174.105469 511.363281 173.480469 517.59375 179.371094 C 521.992188 183.53125 528.488281 184.589844 533.984375 182.035156 C 541.761719 178.425781 550.972656 182.164062 554.027344 190.171875 C 556.183594 195.828125 561.578125 199.597656 567.636719 199.679688 C 576.214844 199.796875 582.890625 207.160156 582.164062 215.695312 C 581.652344 221.730469 584.875 227.460938 590.296875 230.164062 C 597.972656 233.988281 600.789062 243.511719 596.429688 250.890625 C 593.347656 256.105469 593.761719 262.667969 597.472656 267.453125 C 602.730469 274.226562 601.132812 284.03125 593.996094 288.785156 C 588.957031 292.144531 586.480469 298.238281 587.746094 304.160156 C 589.539062 312.539062 583.84375 320.679688 575.347656 321.871094 " fill-opacity="1" fill-rule="nonzero"/><path fill="#ffffff" d="M 548.246094 229.636719 L 494.5625 283.273438 C 493.765625 284.066406 492.476562 284.066406 491.683594 283.273438 L 476.007812 267.613281 C 473.324219 264.929688 468.964844 264.929688 466.28125 267.613281 C 463.59375 270.296875 463.59375 274.648438 466.28125 277.332031 L 483.394531 294.429688 L 488.433594 299.464844 C 491.023438 302.054688 495.222656 302.054688 497.8125 299.464844 L 502.847656 294.429688 L 557.972656 239.355469 C 560.660156 236.671875 560.660156 232.320312 557.972656 229.636719 C 555.289062 226.953125 550.929688 226.953125 548.246094 229.636719 " fill-opacity="1" fill-rule="nonzero"/></svg>