<svg xmlns="http://www.w3.org/2000/svg" xmlns:xlink="http://www.w3.org/1999/xlink" width="1366" zoomAndPan="magnify" viewBox="0 0 1024.5 529.499989" height="706" preserveAspectRatio="xMidYMid meet" version="1.0"><defs><clipPath id="01e476e61c"><path d="M 393.363281 156.6875 L 630.886719 156.6875 L 630.886719 372.484375 L 393.363281 372.484375 Z M 393.363281 156.6875 " clip-rule="nonzero"/></clipPath></defs><path fill="#000000" d="M 462.699219 189.066406 L 464.667969 192.066406 L 458.570312 196.0625 L 456.601562 193.0625 Z M 462.699219 189.066406 " fill-opacity="1" fill-rule="nonzero"/><g clip-path="url(#01e476e61c)"><path fill="#000000" d="M 623.808594 234.214844 L 630.449219 234.214844 L 512.121094 156.679688 L 468.589844 185.210938 L 470.554688 188.207031 L 512.121094 160.96875 L 618.4375 230.632812 L 600.132812 230.632812 L 512.125 172.960938 L 424.117188 230.628906 L 405.816406 230.628906 L 453.230469 199.5625 L 451.261719 196.5625 L 393.800781 234.214844 L 400.4375 234.214844 L 400.4375 245.398438 L 419.699219 245.398438 C 418.316406 247.082031 417.449219 249.203125 417.449219 251.542969 C 417.449219 256.910156 421.816406 261.273438 427.1875 261.273438 C 427.273438 261.273438 427.355469 261.25 427.441406 261.246094 L 427.441406 344.175781 L 420.023438 344.175781 L 420.023438 357.363281 L 400.441406 357.363281 L 400.441406 372.378906 L 623.808594 372.378906 L 623.808594 357.363281 L 610.640625 357.363281 L 610.640625 344.175781 L 595.816406 344.175781 L 595.816406 261.25 C 595.902344 261.253906 595.984375 261.277344 596.074219 261.277344 C 601.441406 261.277344 605.8125 256.910156 605.8125 251.542969 C 605.8125 249.203125 604.945312 247.082031 603.5625 245.398438 L 623.808594 245.398438 Z M 512.125 177.246094 L 593.585938 230.628906 L 430.65625 230.628906 Z M 421.035156 251.542969 C 421.035156 248.15625 423.792969 245.398438 427.1875 245.398438 C 430.574219 245.398438 433.328125 248.15625 433.328125 251.542969 C 433.328125 254.929688 430.574219 257.6875 427.1875 257.6875 C 423.792969 257.6875 421.035156 254.933594 421.035156 251.542969 Z M 447.792969 245.398438 C 451.167969 245.417969 453.90625 248.167969 453.90625 251.542969 C 453.90625 254.933594 451.148438 257.691406 447.757812 257.691406 C 444.367188 257.691406 441.605469 254.933594 441.605469 251.542969 C 441.605469 248.164062 444.347656 245.417969 447.722656 245.398438 Z M 497.234375 245.398438 C 500.609375 245.417969 503.347656 248.167969 503.347656 251.542969 C 503.347656 254.933594 500.589844 257.691406 497.199219 257.691406 C 493.808594 257.691406 491.050781 254.933594 491.050781 251.542969 C 491.050781 248.164062 493.789062 245.417969 497.167969 245.398438 Z M 546.675781 245.398438 C 550.046875 245.417969 552.789062 248.167969 552.789062 251.542969 C 552.789062 254.933594 550.03125 257.691406 546.640625 257.691406 C 543.253906 257.691406 540.492188 254.933594 540.492188 251.542969 C 540.492188 248.164062 543.234375 245.417969 546.609375 245.398438 Z M 586.855469 254.515625 L 586.855469 344.175781 L 584.726562 344.175781 L 584.726562 254.488281 C 585.027344 253.554688 585.234375 252.578125 585.234375 251.546875 C 585.234375 249.203125 584.367188 247.082031 582.984375 245.402344 L 588.589844 245.402344 C 587.207031 247.085938 586.34375 249.203125 586.34375 251.546875 C 586.339844 252.589844 586.546875 253.574219 586.855469 254.515625 Z M 579.34375 260.476562 C 579.988281 260.199219 580.582031 259.84375 581.144531 259.441406 L 581.144531 344.175781 L 579.34375 344.175781 Z M 581.648438 251.542969 C 581.648438 254.929688 578.890625 257.6875 575.503906 257.6875 C 572.113281 257.6875 569.355469 254.933594 569.355469 251.542969 C 569.355469 248.15625 572.113281 245.398438 575.503906 245.398438 C 578.890625 245.398438 581.648438 248.15625 581.648438 251.542969 Z M 575.503906 261.273438 C 575.59375 261.273438 575.671875 261.25 575.757812 261.246094 L 575.757812 344.175781 L 546.382812 344.175781 L 546.382812 261.25 C 546.46875 261.253906 546.550781 261.277344 546.640625 261.277344 C 552.007812 261.277344 556.375 256.910156 556.375 251.542969 C 556.375 249.203125 555.507812 247.082031 554.125 245.398438 L 568.019531 245.398438 C 566.636719 247.082031 565.769531 249.203125 565.769531 251.542969 C 565.769531 256.910156 570.136719 261.273438 575.503906 261.273438 Z M 541.003906 259.449219 C 541.566406 259.847656 542.15625 260.203125 542.796875 260.480469 L 542.796875 344.175781 L 541.003906 344.175781 Z M 536.90625 251.542969 C 536.90625 252.589844 537.113281 253.574219 537.417969 254.515625 L 537.417969 344.175781 L 535.292969 344.175781 L 535.292969 254.484375 C 535.59375 253.550781 535.800781 252.578125 535.800781 251.542969 C 535.800781 249.203125 534.933594 247.082031 533.550781 245.398438 L 539.15625 245.398438 C 537.769531 247.082031 536.90625 249.203125 536.90625 251.542969 Z M 529.910156 260.472656 C 530.554688 260.195312 531.148438 259.839844 531.710938 259.4375 L 531.710938 344.175781 L 529.910156 344.175781 Z M 532.214844 251.542969 C 532.214844 254.929688 529.453125 257.6875 526.066406 257.6875 C 522.675781 257.6875 519.917969 254.933594 519.917969 251.542969 C 519.917969 248.15625 522.675781 245.398438 526.066406 245.398438 C 529.453125 245.398438 532.214844 248.15625 532.214844 251.542969 Z M 526.066406 261.273438 C 526.152344 261.273438 526.238281 261.25 526.324219 261.246094 L 526.324219 344.175781 L 496.941406 344.175781 L 496.941406 261.25 C 497.03125 261.253906 497.113281 261.277344 497.199219 261.277344 C 502.566406 261.277344 506.933594 256.910156 506.933594 251.542969 C 506.933594 249.203125 506.066406 247.082031 504.683594 245.398438 L 518.582031 245.398438 C 517.195312 247.082031 516.332031 249.203125 516.332031 251.542969 C 516.332031 256.910156 520.699219 261.273438 526.066406 261.273438 Z M 491.5625 259.453125 C 492.125 259.851562 492.714844 260.203125 493.355469 260.480469 L 493.355469 344.175781 L 491.5625 344.175781 Z M 487.464844 251.542969 C 487.464844 252.589844 487.671875 253.582031 487.980469 254.523438 L 487.980469 344.175781 L 485.855469 344.175781 L 485.855469 254.488281 C 486.152344 253.554688 486.359375 252.578125 486.359375 251.546875 C 486.359375 249.203125 485.492188 247.082031 484.109375 245.402344 L 489.714844 245.402344 C 488.328125 247.082031 487.464844 249.203125 487.464844 251.542969 Z M 480.46875 260.476562 C 481.109375 260.199219 481.707031 259.84375 482.269531 259.441406 L 482.269531 344.175781 L 480.46875 344.175781 Z M 482.773438 251.542969 C 482.773438 254.929688 480.015625 257.6875 476.628906 257.6875 C 473.238281 257.6875 470.480469 254.933594 470.480469 251.542969 C 470.480469 248.15625 473.238281 245.398438 476.628906 245.398438 C 480.015625 245.398438 482.773438 248.15625 482.773438 251.542969 Z M 476.625 261.273438 C 476.714844 261.273438 476.796875 261.25 476.882812 261.246094 L 476.882812 344.175781 L 447.5 344.175781 L 447.5 261.25 C 447.585938 261.253906 447.667969 261.277344 447.753906 261.277344 C 453.125 261.277344 457.492188 256.910156 457.492188 251.542969 C 457.492188 249.203125 456.625 247.082031 455.242188 245.398438 L 469.140625 245.398438 C 467.753906 247.082031 466.890625 249.203125 466.890625 251.542969 C 466.890625 256.910156 471.257812 261.273438 476.625 261.273438 Z M 442.121094 259.453125 C 442.679688 259.851562 443.273438 260.203125 443.914062 260.480469 L 443.914062 344.175781 L 442.121094 344.175781 Z M 438.019531 251.542969 C 438.019531 252.589844 438.230469 253.574219 438.535156 254.515625 L 438.535156 344.175781 L 436.410156 344.175781 L 436.410156 254.488281 C 436.710938 253.554688 436.914062 252.578125 436.914062 251.546875 C 436.914062 249.203125 436.050781 247.082031 434.664062 245.402344 L 440.269531 245.402344 C 438.886719 247.082031 438.019531 249.203125 438.019531 251.542969 Z M 431.027344 260.476562 C 431.667969 260.199219 432.261719 259.84375 432.824219 259.441406 L 432.824219 344.175781 L 431.027344 344.175781 Z M 620.222656 360.945312 L 620.222656 368.792969 L 404.027344 368.792969 L 404.027344 360.945312 Z M 607.054688 347.761719 L 607.054688 357.363281 L 423.605469 357.363281 L 423.605469 347.761719 Z M 592.230469 344.175781 L 590.4375 344.175781 L 590.4375 259.449219 C 591 259.847656 591.589844 260.203125 592.230469 260.480469 Z M 602.226562 251.542969 C 602.226562 254.933594 599.464844 257.691406 596.074219 257.691406 C 592.683594 257.691406 589.925781 254.933594 589.925781 251.542969 C 589.925781 248.164062 592.664062 245.417969 596.039062 245.398438 L 596.109375 245.398438 C 599.484375 245.417969 602.226562 248.167969 602.226562 251.542969 Z M 620.222656 241.816406 L 596.109375 241.816406 C 596.097656 241.816406 596.085938 241.8125 596.074219 241.8125 C 596.0625 241.8125 596.050781 241.816406 596.039062 241.816406 L 546.675781 241.816406 C 546.664062 241.816406 546.652344 241.8125 546.640625 241.8125 C 546.628906 241.8125 546.617188 241.816406 546.605469 241.816406 L 497.234375 241.816406 C 497.222656 241.816406 497.210938 241.8125 497.199219 241.8125 C 497.1875 241.8125 497.175781 241.816406 497.164062 241.816406 L 447.792969 241.816406 C 447.777344 241.816406 447.765625 241.8125 447.753906 241.8125 C 447.742188 241.8125 447.730469 241.816406 447.71875 241.816406 L 404.023438 241.816406 L 404.023438 234.214844 L 620.21875 234.214844 L 620.21875 241.816406 Z M 620.222656 241.816406 " fill-opacity="1" fill-rule="nonzero"/></g><path fill="#000000" d="M 512.125 193.832031 C 503.363281 193.832031 496.238281 200.957031 496.238281 209.714844 C 496.238281 218.476562 503.363281 225.597656 512.125 225.597656 C 520.886719 225.597656 528.011719 218.476562 528.011719 209.714844 C 528.011719 200.957031 520.886719 193.832031 512.125 193.832031 Z M 512.125 222.015625 C 505.34375 222.015625 499.824219 216.496094 499.824219 209.714844 C 499.824219 202.9375 505.339844 197.417969 512.125 197.417969 C 518.910156 197.417969 524.425781 202.9375 524.425781 209.714844 C 524.425781 216.496094 518.910156 222.015625 512.125 222.015625 Z M 512.125 222.015625 " fill-opacity="1" fill-rule="nonzero"/></svg>