<svg xmlns="http://www.w3.org/2000/svg" xmlns:xlink="http://www.w3.org/1999/xlink" width="1366" zoomAndPan="magnify" viewBox="0 0 1024.5 529.499989" height="706" preserveAspectRatio="xMidYMid meet" version="1.0"><defs><clipPath id="48ce906a7a"><path d="M 385.660156 170.851562 L 638 170.851562 L 638 358.175781 L 385.660156 358.175781 Z M 385.660156 170.851562 " clip-rule="nonzero"/></clipPath></defs><g clip-path="url(#48ce906a7a)"><path fill="#000000" d="M 628.800781 170.957031 L 395.035156 170.957031 C 389.972656 170.957031 385.855469 175.078125 385.855469 180.148438 L 385.855469 349.179688 C 385.855469 354.246094 389.972656 358.367188 395.035156 358.367188 L 628.804688 358.367188 C 633.867188 358.367188 637.984375 354.246094 637.984375 349.179688 L 637.984375 180.144531 C 637.980469 175.074219 633.863281 170.957031 628.800781 170.957031 Z M 395.035156 174.628906 L 628.804688 174.628906 C 631.835938 174.628906 634.3125 177.105469 634.3125 180.144531 L 634.3125 207.085938 C 634.109375 207.050781 633.90625 207.023438 633.695312 207.023438 L 390.136719 207.023438 C 389.925781 207.023438 389.726562 207.054688 389.527344 207.085938 L 389.527344 180.144531 C 389.527344 177.105469 391.996094 174.628906 395.035156 174.628906 Z M 389.527344 211.308594 C 389.527344 210.96875 389.800781 210.695312 390.136719 210.695312 L 633.695312 210.695312 C 634.03125 210.695312 634.308594 210.96875 634.308594 211.308594 L 634.308594 345.230469 C 634.308594 345.566406 634.03125 345.84375 633.695312 345.84375 L 390.136719 345.84375 C 389.800781 345.84375 389.527344 345.566406 389.527344 345.230469 Z M 628.800781 354.691406 L 395.035156 354.691406 C 392.09375 354.691406 389.703125 352.363281 389.554688 349.457031 C 389.746094 349.484375 389.9375 349.519531 390.136719 349.519531 L 633.695312 349.519531 C 633.894531 349.519531 634.089844 349.484375 634.277344 349.457031 C 634.128906 352.363281 631.738281 354.691406 628.800781 354.691406 Z M 628.800781 354.691406 " fill-opacity="1" fill-rule="nonzero"/></g><path fill="#000000" d="M 447.1875 198.722656 C 451.488281 198.722656 454.988281 195.214844 454.988281 190.910156 C 454.988281 186.605469 451.488281 183.101562 447.1875 183.101562 C 442.886719 183.101562 439.386719 186.605469 439.386719 190.910156 C 439.386719 195.214844 442.886719 198.722656 447.1875 198.722656 Z M 447.1875 186.777344 C 449.46875 186.777344 451.320312 188.632812 451.320312 190.914062 C 451.320312 193.195312 449.46875 195.050781 447.1875 195.050781 C 444.90625 195.050781 443.058594 193.195312 443.058594 190.914062 C 443.058594 188.632812 444.90625 186.777344 447.1875 186.777344 Z M 447.1875 186.777344 " fill-opacity="1" fill-rule="nonzero"/><path fill="#000000" d="M 427.257812 198.722656 C 431.558594 198.722656 435.058594 195.214844 435.058594 190.910156 C 435.058594 186.605469 431.558594 183.101562 427.257812 183.101562 C 422.957031 183.101562 419.457031 186.605469 419.457031 190.910156 C 419.457031 195.214844 422.957031 198.722656 427.257812 198.722656 Z M 427.257812 186.777344 C 429.539062 186.777344 431.386719 188.632812 431.386719 190.914062 C 431.386719 193.195312 429.539062 195.050781 427.257812 195.050781 C 424.976562 195.050781 423.125 193.195312 423.125 190.914062 C 423.125 188.632812 424.976562 186.777344 427.257812 186.777344 Z M 427.257812 186.777344 " fill-opacity="1" fill-rule="nonzero"/><path fill="#000000" d="M 407.324219 198.722656 C 411.628906 198.722656 415.128906 195.214844 415.128906 190.910156 C 415.128906 186.605469 411.628906 183.101562 407.324219 183.101562 C 403.023438 183.101562 399.523438 186.605469 399.523438 190.910156 C 399.523438 195.214844 403.023438 198.722656 407.324219 198.722656 Z M 407.324219 186.777344 C 409.605469 186.777344 411.457031 188.632812 411.457031 190.914062 C 411.457031 193.195312 409.605469 195.050781 407.324219 195.050781 C 405.046875 195.050781 403.191406 193.195312 403.191406 190.914062 C 403.191406 188.632812 405.046875 186.777344 407.324219 186.777344 Z M 407.324219 186.777344 " fill-opacity="1" fill-rule="nonzero"/><path fill="#000000" d="M 570.824219 281.261719 L 547.46875 304.683594 C 544.804688 307.5625 546.308594 309.898438 550.683594 314.046875 C 553.105469 316.339844 555.203125 317.503906 556.921875 317.503906 C 557.894531 317.503906 558.738281 317.144531 559.546875 316.378906 L 591.136719 284.777344 C 592.027344 283.710938 592.519531 282.050781 592.386719 280.539062 C 592.265625 279.21875 591.679688 278.09375 590.824219 277.398438 L 559.398438 245.980469 C 558.414062 245.003906 557.472656 244.523438 556.511719 244.523438 C 554.570312 244.523438 552.640625 246.453125 550.382812 248.710938 C 548.601562 250.492188 547.0625 252.03125 546.414062 253.507812 C 545.9375 254.566406 545.632812 256.023438 547.523438 257.914062 Z M 553.007812 251.28125 C 554.015625 250.273438 555.65625 248.636719 556.433594 248.257812 C 556.519531 248.320312 556.644531 248.421875 556.800781 248.582031 L 588.363281 280.121094 C 588.523438 280.25 588.691406 280.441406 588.730469 280.867188 C 588.78125 281.484375 588.523438 282.175781 588.433594 282.296875 L 556.9375 313.824219 L 556.921875 315.660156 L 556.921875 313.824219 C 556.910156 313.824219 555.769531 313.792969 553.210938 311.371094 C 550.203125 308.523438 549.859375 307.648438 549.796875 307.617188 C 549.824219 307.566406 549.90625 307.453125 550.117188 307.222656 L 576.011719 281.253906 L 550.117188 255.3125 C 549.957031 255.148438 549.855469 255.027344 549.796875 254.941406 C 550.207031 254.082031 551.621094 252.675781 553.007812 251.28125 Z M 553.007812 251.28125 " fill-opacity="1" fill-rule="nonzero"/><path fill="#000000" d="M 464.324219 316.410156 C 465.097656 317.144531 465.945312 317.503906 466.914062 317.503906 C 468.628906 317.503906 470.730469 316.339844 473.152344 314.046875 C 477.53125 309.898438 479.03125 307.558594 476.316406 304.636719 L 453.015625 281.261719 L 476.3125 257.917969 C 478.199219 256.035156 477.898438 254.574219 477.429688 253.519531 C 476.769531 252.03125 475.222656 250.484375 473.429688 248.695312 C 471.199219 246.457031 469.269531 244.527344 467.324219 244.527344 C 466.359375 244.527344 465.414062 245.007812 464.433594 245.984375 L 433.140625 277.28125 C 432.152344 278.097656 431.566406 279.230469 431.449219 280.546875 C 431.3125 282.050781 431.804688 283.707031 432.804688 284.902344 Z M 435.605469 280.003906 L 467.03125 248.582031 C 467.191406 248.421875 467.316406 248.320312 467.398438 248.257812 C 468.1875 248.644531 469.824219 250.285156 470.839844 251.296875 C 472.152344 252.613281 473.511719 253.964844 474.039062 254.953125 C 473.976562 255.039062 473.875 255.160156 473.71875 255.316406 L 447.828125 281.257812 L 473.675781 307.179688 C 473.871094 307.394531 473.953125 307.515625 474 307.492188 C 473.921875 307.769531 473.433594 308.714844 470.625 311.371094 C 468.066406 313.792969 466.925781 313.824219 466.914062 313.824219 L 435.515625 282.421875 C 435.316406 282.179688 435.050781 281.488281 435.105469 280.875 C 435.144531 280.441406 435.316406 280.253906 435.605469 280.003906 Z M 435.605469 280.003906 " fill-opacity="1" fill-rule="nonzero"/><path fill="#000000" d="M 492.0625 322.144531 C 494.835938 323.492188 496.601562 324.070312 497.980469 324.070312 C 500.5 324.070312 501.417969 322.1875 501.8125 321.382812 L 539.09375 244.894531 C 541.023438 240.933594 538.390625 238.640625 533.84375 236.421875 C 531.359375 235.210938 529.53125 234.644531 528.089844 234.644531 C 525.332031 234.644531 524.355469 236.644531 523.9375 237.5 L 486.660156 313.980469 C 486.285156 314.753906 485.40625 316.546875 486.707031 318.429688 C 487.511719 319.609375 489.0625 320.679688 492.0625 322.144531 Z M 489.960938 315.59375 L 527.238281 239.113281 C 527.625 238.316406 527.722656 238.316406 528.089844 238.316406 C 528.664062 238.316406 529.855469 238.5625 532.234375 239.726562 C 536.511719 241.8125 536.175781 242.496094 535.792969 243.289062 L 498.511719 319.769531 C 498.265625 320.269531 498.152344 320.371094 498.144531 320.378906 C 498.140625 320.378906 498.097656 320.394531 497.980469 320.394531 C 497.238281 320.394531 495.789062 319.871094 493.667969 318.84375 C 490.140625 317.113281 489.734375 316.402344 489.691406 316.308594 C 489.695312 316.277344 489.707031 316.121094 489.960938 315.59375 Z M 489.960938 315.59375 " fill-opacity="1" fill-rule="nonzero"/></svg>