<svg xmlns="http://www.w3.org/2000/svg" xmlns:xlink="http://www.w3.org/1999/xlink" width="1366" zoomAndPan="magnify" viewBox="0 0 1024.5 529.499989" height="706" preserveAspectRatio="xMidYMid meet" version="1.0"><defs><clipPath id="f173c9a8fd"><path d="M 388.59375 141.09375 L 470 141.09375 L 470 222 L 388.59375 222 Z M 388.59375 141.09375 " clip-rule="nonzero"/></clipPath><clipPath id="8ce25c1ccf"><path d="M 388.59375 256 L 635.109375 256 L 635.109375 387.609375 L 388.59375 387.609375 Z M 388.59375 256 " clip-rule="nonzero"/></clipPath><clipPath id="599e7f55cc"><path d="M 554 141.09375 L 635 141.09375 L 635 222 L 554 222 Z M 554 141.09375 " clip-rule="nonzero"/></clipPath></defs><path fill="#000000" d="M 511.851562 270.128906 C 535.347656 270.128906 554.222656 251.253906 554.222656 227.757812 C 554.222656 204.261719 535.347656 185.386719 511.851562 185.386719 C 488.355469 185.386719 469.480469 204.261719 469.480469 227.757812 C 469.480469 251.253906 488.355469 270.128906 511.851562 270.128906 Z M 511.851562 193.089844 C 530.917969 193.089844 546.515625 208.691406 546.515625 227.757812 C 546.515625 246.824219 530.917969 262.425781 511.851562 262.425781 C 492.785156 262.425781 477.183594 246.824219 477.183594 227.757812 C 477.183594 208.691406 492.785156 193.089844 511.851562 193.089844 Z M 511.851562 193.089844 " fill-opacity="1" fill-rule="nonzero"/><g clip-path="url(#f173c9a8fd)"><path fill="#000000" d="M 397.644531 194.441406 C 396.296875 196.367188 395.523438 198.871094 395.71875 201.179688 C 395.910156 204.070312 397.066406 206.574219 399.183594 208.691406 L 401.6875 211.195312 C 403.808594 213.3125 406.886719 214.660156 409.777344 214.660156 C 412.089844 214.660156 414.207031 214.085938 415.941406 212.734375 C 416.902344 217.9375 421.523438 221.789062 427.109375 221.789062 L 430.769531 221.789062 C 436.355469 221.789062 440.976562 217.9375 441.941406 212.734375 C 443.671875 213.890625 445.792969 214.660156 448.101562 214.660156 C 451.183594 214.660156 454.074219 213.507812 456.191406 211.195312 L 458.695312 208.691406 C 462.738281 204.648438 463.125 198.675781 460.234375 194.441406 C 465.4375 193.476562 469.289062 188.855469 469.289062 183.269531 L 469.289062 179.609375 C 469.289062 174.023438 465.4375 169.402344 460.234375 168.441406 C 463.125 164.203125 462.738281 158.039062 458.695312 154.1875 L 456.191406 151.683594 C 454.074219 149.566406 450.992188 148.21875 448.101562 148.21875 C 445.792969 148.21875 443.671875 148.796875 441.941406 150.144531 C 441.167969 144.945312 436.355469 141.09375 430.769531 141.09375 L 427.109375 141.09375 C 421.523438 141.09375 416.902344 144.945312 415.941406 150.144531 C 414.207031 148.988281 412.089844 148.21875 409.777344 148.21875 C 406.695312 148.21875 403.808594 149.375 401.6875 151.683594 L 399.183594 154.1875 C 397.066406 156.308594 395.71875 159.386719 395.71875 162.277344 C 395.71875 164.589844 396.296875 166.707031 397.644531 168.441406 C 392.445312 169.402344 388.59375 174.21875 388.59375 179.804688 L 388.59375 183.460938 C 388.59375 188.855469 392.445312 193.667969 397.644531 194.441406 Z M 396.296875 179.804688 C 396.296875 177.878906 397.835938 176.144531 399.570312 176.144531 L 404.191406 176.144531 C 404.769531 173.0625 406.117188 170.367188 407.660156 167.863281 L 404.382812 164.589844 C 403.035156 163.238281 403.230469 161.121094 404.769531 159.773438 L 407.273438 157.269531 C 407.851562 156.308594 409.007812 155.921875 409.777344 155.921875 C 410.546875 155.921875 411.316406 156.113281 411.894531 156.882812 L 415.167969 160.160156 C 417.671875 158.617188 420.371094 157.460938 423.449219 156.691406 L 423.449219 152.070312 C 423.644531 150.144531 425.183594 148.796875 427.304688 148.796875 L 430.960938 148.796875 C 432.886719 148.796875 434.621094 150.144531 434.621094 152.070312 L 434.621094 156.691406 C 437.703125 157.269531 440.398438 158.425781 442.902344 160.160156 L 446.175781 156.882812 C 446.753906 156.308594 447.523438 155.921875 448.296875 155.921875 C 449.257812 155.921875 450.222656 156.308594 450.992188 157.078125 L 453.496094 159.582031 C 454.84375 160.929688 455.035156 163.238281 453.6875 164.394531 L 450.414062 167.667969 C 451.953125 170.171875 453.109375 172.871094 453.878906 175.949219 L 458.503906 175.949219 C 460.234375 175.949219 461.777344 177.492188 461.777344 179.609375 L 461.777344 183.269531 C 461.777344 185.195312 460.234375 186.929688 458.503906 186.929688 L 453.878906 186.929688 C 453.304688 190.011719 451.953125 192.707031 450.414062 195.210938 L 453.6875 198.484375 C 455.035156 199.832031 454.84375 201.949219 453.496094 203.300781 L 450.992188 205.804688 C 450.222656 206.574219 449.257812 206.957031 448.296875 206.957031 C 447.523438 206.957031 446.753906 206.765625 446.175781 205.996094 L 442.902344 202.722656 C 440.398438 204.261719 437.703125 205.417969 434.621094 206.1875 L 434.621094 210.808594 C 434.621094 212.542969 433.082031 214.085938 430.960938 214.085938 L 427.304688 214.085938 C 425.378906 214.085938 423.644531 212.542969 423.644531 210.808594 L 423.644531 206.1875 C 420.5625 205.609375 417.867188 204.261719 415.363281 202.722656 L 412.089844 205.996094 C 411.511719 206.574219 410.738281 206.957031 409.96875 206.957031 C 409.007812 206.957031 408.042969 206.574219 407.273438 205.804688 L 404.769531 203.300781 C 403.421875 201.949219 403.230469 199.640625 404.382812 198.484375 L 407.660156 195.210938 C 406.117188 192.707031 404.960938 190.011719 404.191406 186.929688 L 399.570312 186.929688 C 397.835938 186.929688 396.296875 185.386719 396.296875 183.269531 Z M 396.296875 179.804688 " fill-opacity="1" fill-rule="nonzero"/></g><g clip-path="url(#8ce25c1ccf)"><path fill="#000000" d="M 631.257812 339.460938 L 596.589844 339.460938 L 596.589844 304.988281 C 596.589844 277.640625 579.066406 258.765625 552.488281 256.839844 C 550.5625 259.535156 548.25 262.039062 545.9375 264.351562 L 547.671875 264.351562 C 572.324219 264.351562 588.886719 280.722656 588.886719 304.988281 L 588.886719 339.460938 L 579.449219 339.460938 L 581.183594 310.957031 L 581.183594 310.765625 C 581.183594 304.410156 575.984375 299.015625 569.628906 299.015625 L 454.074219 299.015625 C 447.71875 299.015625 442.519531 304.21875 442.519531 310.765625 L 444.25 339.460938 L 434.8125 339.460938 L 434.8125 304.988281 C 434.8125 280.722656 451.375 264.351562 476.027344 264.351562 L 477.761719 264.351562 C 475.257812 262.039062 473.140625 259.535156 471.214844 256.839844 C 444.636719 258.957031 427.109375 277.640625 427.109375 304.988281 L 427.109375 339.460938 L 392.445312 339.460938 C 390.324219 339.460938 388.59375 341.195312 388.59375 343.3125 C 388.59375 345.433594 390.324219 347.164062 392.445312 347.164062 L 444.636719 347.164062 L 446.371094 376.054688 C 446.371094 382.410156 451.570312 387.609375 457.925781 387.609375 L 565.777344 387.609375 C 572.132812 387.609375 577.332031 382.410156 577.332031 376.054688 L 579.066406 347.164062 L 631.257812 347.164062 C 633.375 347.164062 635.109375 345.433594 635.109375 343.3125 C 635.109375 341.195312 633.375 339.460938 631.257812 339.460938 Z M 569.628906 375.667969 L 569.628906 375.859375 C 569.628906 377.980469 567.894531 379.90625 565.777344 379.90625 L 457.925781 379.90625 C 455.804688 379.90625 454.074219 378.171875 454.074219 375.859375 L 450.222656 310.574219 C 450.222656 308.453125 451.953125 306.722656 454.074219 306.722656 L 569.628906 306.722656 C 571.746094 306.722656 573.480469 308.453125 573.480469 310.574219 Z M 569.628906 375.667969 " fill-opacity="1" fill-rule="nonzero"/></g><path fill="#000000" d="M 429.035156 198.871094 C 438.664062 198.871094 446.371094 191.164062 446.371094 181.535156 C 446.371094 171.90625 438.664062 164.203125 429.035156 164.203125 C 419.40625 164.203125 411.703125 171.90625 411.703125 181.535156 C 411.703125 191.164062 419.40625 198.871094 429.035156 198.871094 Z M 429.035156 171.90625 C 434.429688 171.90625 438.664062 176.144531 438.664062 181.535156 C 438.664062 186.929688 434.429688 191.164062 429.035156 191.164062 C 423.644531 191.164062 419.40625 186.929688 419.40625 181.535156 C 419.40625 176.144531 423.644531 171.90625 429.035156 171.90625 Z M 429.035156 171.90625 " fill-opacity="1" fill-rule="nonzero"/><g clip-path="url(#599e7f55cc)"><path fill="#000000" d="M 626.058594 168.632812 C 628.945312 164.394531 628.5625 158.234375 624.515625 154.382812 L 622.011719 151.878906 C 619.894531 149.757812 616.8125 148.410156 613.925781 148.410156 C 611.613281 148.410156 609.496094 148.988281 607.761719 150.335938 C 606.796875 144.945312 601.984375 141.09375 596.398438 141.09375 L 592.738281 141.09375 C 587.152344 141.09375 582.53125 144.945312 581.570312 150.144531 C 579.835938 148.988281 577.71875 148.21875 575.40625 148.21875 C 572.324219 148.21875 569.4375 149.375 567.316406 151.683594 L 564.8125 154.1875 C 562.695312 156.308594 561.347656 159.386719 561.347656 162.277344 C 561.347656 164.589844 561.925781 166.707031 563.273438 168.441406 C 558.074219 169.402344 554.222656 174.21875 554.222656 179.804688 L 554.222656 183.460938 C 554.222656 189.046875 558.074219 193.667969 563.273438 194.632812 C 561.925781 196.558594 561.152344 199.0625 561.347656 201.375 C 561.539062 204.261719 562.695312 206.765625 564.8125 208.882812 L 567.316406 211.386719 C 569.4375 213.507812 572.515625 214.855469 575.40625 214.855469 C 577.71875 214.855469 579.835938 214.277344 581.570312 212.929688 C 582.53125 218.128906 587.152344 221.980469 592.738281 221.980469 L 596.398438 221.980469 C 601.984375 221.980469 606.605469 218.128906 607.570312 212.929688 C 609.300781 214.085938 611.421875 214.855469 613.730469 214.855469 C 616.8125 214.855469 619.703125 213.699219 621.820312 211.386719 L 624.324219 208.882812 C 628.367188 204.839844 628.753906 198.871094 625.863281 194.632812 C 631.066406 193.667969 634.917969 189.046875 634.917969 183.460938 L 634.917969 179.804688 C 635.109375 174.21875 631.257812 169.402344 626.058594 168.632812 Z M 627.40625 183.269531 C 627.40625 185.195312 625.863281 186.929688 624.132812 186.929688 L 619.507812 186.929688 C 618.929688 190.011719 617.582031 192.707031 616.042969 195.210938 L 619.316406 198.484375 C 620.664062 199.832031 620.472656 201.949219 619.125 203.300781 L 616.621094 205.804688 C 615.851562 206.574219 614.886719 206.957031 613.925781 206.957031 C 613.152344 206.957031 612.382812 206.765625 611.804688 205.996094 L 608.53125 202.722656 C 606.027344 204.261719 603.332031 205.417969 600.25 206.1875 L 600.25 210.808594 C 600.25 212.542969 598.710938 214.085938 596.589844 214.085938 L 592.933594 214.085938 C 591.003906 214.085938 589.273438 212.542969 589.273438 210.808594 L 589.273438 206.1875 C 586.191406 205.609375 583.496094 204.261719 580.992188 202.722656 L 577.71875 205.996094 C 577.140625 206.574219 576.367188 206.957031 575.597656 206.957031 C 574.636719 206.957031 573.671875 206.574219 572.902344 205.804688 L 570.398438 203.300781 C 569.050781 201.949219 568.859375 199.640625 570.011719 198.484375 L 573.289062 195.210938 C 571.746094 192.707031 570.589844 190.011719 569.820312 186.929688 L 565.199219 186.929688 C 563.464844 186.929688 561.925781 185.386719 561.925781 183.269531 L 561.925781 179.609375 C 561.925781 177.683594 563.464844 175.949219 565.199219 175.949219 L 569.820312 175.949219 C 570.398438 172.871094 571.746094 170.171875 573.289062 167.667969 L 570.011719 164.394531 C 568.664062 163.046875 568.859375 160.929688 570.398438 159.582031 L 572.902344 157.078125 C 573.480469 156.308594 574.636719 155.921875 575.40625 155.921875 C 576.175781 155.921875 576.945312 156.113281 577.523438 156.882812 L 580.796875 160.160156 C 583.300781 158.617188 586 157.460938 589.078125 156.691406 L 589.078125 152.070312 C 589.078125 150.335938 590.621094 148.796875 592.738281 148.796875 L 596.398438 148.796875 C 598.324219 148.796875 600.058594 150.144531 600.058594 152.070312 L 600.058594 156.691406 C 603.140625 157.269531 605.835938 158.425781 608.339844 160.160156 L 611.613281 156.882812 C 612.191406 156.308594 612.960938 155.921875 613.730469 155.921875 C 614.695312 155.921875 615.65625 156.308594 616.429688 157.078125 L 618.929688 159.582031 C 620.28125 160.929688 620.472656 163.238281 619.125 164.394531 L 615.851562 167.667969 C 617.390625 170.171875 618.546875 172.871094 619.316406 175.949219 L 623.9375 175.949219 C 625.671875 175.949219 627.214844 177.492188 627.214844 179.609375 L 627.214844 183.269531 Z M 627.40625 183.269531 " fill-opacity="1" fill-rule="nonzero"/></g><path fill="#000000" d="M 594.664062 164.203125 C 585.035156 164.203125 577.332031 171.90625 577.332031 181.535156 C 577.332031 191.164062 585.035156 198.871094 594.664062 198.871094 C 604.292969 198.871094 612 191.164062 612 181.535156 C 612 171.90625 604.292969 164.203125 594.664062 164.203125 Z M 594.664062 191.164062 C 589.273438 191.164062 585.035156 186.929688 585.035156 181.535156 C 585.035156 176.144531 589.273438 171.90625 594.664062 171.90625 C 600.058594 171.90625 604.292969 176.144531 604.292969 181.535156 C 604.292969 186.929688 600.058594 191.164062 594.664062 191.164062 Z M 594.664062 191.164062 " fill-opacity="1" fill-rule="nonzero"/><path fill="#000000" d="M 509.925781 331.371094 C 502.414062 331.371094 496.441406 337.34375 496.441406 344.855469 C 496.441406 352.363281 502.414062 358.335938 509.925781 358.335938 C 517.4375 358.335938 523.40625 352.363281 523.40625 344.855469 C 523.40625 337.34375 517.4375 331.371094 509.925781 331.371094 Z M 509.925781 350.632812 C 506.652344 350.632812 504.148438 348.128906 504.148438 344.855469 C 504.148438 341.578125 506.652344 339.078125 509.925781 339.078125 C 513.199219 339.078125 515.703125 341.578125 515.703125 344.855469 C 515.703125 348.128906 513.199219 350.632812 509.925781 350.632812 Z M 509.925781 350.632812 " fill-opacity="1" fill-rule="nonzero"/></svg>