<svg xmlns="http://www.w3.org/2000/svg" xmlns:xlink="http://www.w3.org/1999/xlink" width="1366" zoomAndPan="magnify" viewBox="0 0 1024.5 529.499989" height="706" preserveAspectRatio="xMidYMid meet" version="1.0"><defs><clipPath id="e2416d7151"><path d="M 445.703125 198.203125 L 578.328125 198.203125 L 578.328125 330.828125 L 445.703125 330.828125 Z M 445.703125 198.203125 " clip-rule="nonzero"/></clipPath></defs><path fill="#000000" d="M 503.867188 298.933594 C 503.867188 294.113281 507.316406 290.628906 512.011719 290.628906 C 516.984375 290.628906 520.160156 294.113281 520.160156 298.933594 C 520.160156 303.617188 516.984375 307.234375 512.011719 307.234375 C 507.179688 307.234375 503.867188 303.617188 503.867188 298.933594 Z M 506.703125 278.757812 L 502.867188 231.105469 C 502.679688 228.722656 506.863281 226.777344 512.011719 226.777344 C 517.164062 226.777344 521.347656 228.734375 521.15625 231.105469 L 517.324219 278.757812 C 517.191406 280.375 514.863281 281.648438 512.011719 281.648438 C 509.171875 281.648438 506.835938 280.375 506.703125 278.757812 Z M 506.703125 278.757812 " fill-opacity="1" fill-rule="nonzero"/><g clip-path="url(#e2416d7151)"><path fill="#020202" d="M 512.011719 330.824219 C 475.449219 330.824219 445.703125 301.078125 445.703125 264.511719 C 445.703125 227.949219 475.449219 198.203125 512.011719 198.203125 C 548.578125 198.203125 578.324219 227.949219 578.324219 264.511719 C 578.324219 301.078125 548.578125 330.824219 512.011719 330.824219 Z M 512.011719 209.507812 C 481.683594 209.507812 457.007812 234.183594 457.007812 264.511719 C 457.007812 294.84375 481.683594 319.519531 512.011719 319.519531 C 542.34375 319.519531 567.019531 294.84375 567.019531 264.511719 C 567.019531 234.183594 542.34375 209.507812 512.011719 209.507812 Z M 512.011719 209.507812 " fill-opacity="1" fill-rule="nonzero"/></g></svg>