<svg xmlns="http://www.w3.org/2000/svg" xmlns:xlink="http://www.w3.org/1999/xlink" width="1366" zoomAndPan="magnify" viewBox="0 0 1024.5 669.000002" height="892" preserveAspectRatio="xMidYMid meet" version="1.0"><defs><filter x="0%" y="0%" width="100%" height="100%" id="1cc648ce01"><feColorMatrix values="0 0 0 0 1 0 0 0 0 1 0 0 0 0 1 0 0 0 1 0" color-interpolation-filters="sRGB"/></filter><mask id="d91aa2c883"><g filter="url(#1cc648ce01)"><rect x="-102.45" width="1229.4" fill="#000000" y="-66.9" height="802.800002" fill-opacity="0.7"/></g></mask><clipPath id="ab88e4121c"><path d="M 1 0.152344 L 49 0.152344 L 49 178.125 L 1 178.125 Z M 1 0.152344 " clip-rule="nonzero"/></clipPath><clipPath id="0897f96401"><path d="M 161 77 L 184.933594 77 L 184.933594 102 L 161 102 Z M 161 77 " clip-rule="nonzero"/></clipPath><clipPath id="266b9e4d8f"><rect x="0" width="185" y="0" height="179"/></clipPath></defs><g mask="url(#d91aa2c883)"><g transform="matrix(1, 0, 0, 1, 419, 245)"><g clip-path="url(#266b9e4d8f)"><path fill="#0277bd" d="M 122.113281 121.761719 C 122.503906 121.761719 122.882812 121.6875 123.246094 121.535156 C 123.609375 121.386719 123.929688 121.171875 124.207031 120.890625 C 124.488281 120.613281 124.699219 120.292969 124.851562 119.929688 C 125.003906 119.566406 125.078125 119.1875 125.078125 118.796875 L 125.078125 115.039062 C 126.46875 114.589844 127.816406 114.03125 129.121094 113.359375 L 131.78125 116.019531 C 132.058594 116.296875 132.378906 116.511719 132.742188 116.664062 C 133.105469 116.8125 133.484375 116.890625 133.875 116.890625 C 134.269531 116.890625 134.648438 116.8125 135.011719 116.664062 C 135.375 116.511719 135.695312 116.296875 135.972656 116.019531 L 143.597656 108.394531 C 143.875 108.117188 144.089844 107.796875 144.238281 107.433594 C 144.390625 107.070312 144.464844 106.691406 144.464844 106.300781 C 144.464844 105.90625 144.390625 105.527344 144.238281 105.164062 C 144.089844 104.800781 143.875 104.480469 143.597656 104.203125 L 140.9375 101.542969 C 141.605469 100.242188 142.167969 98.894531 142.617188 97.5 L 146.371094 97.5 C 146.765625 97.5 147.144531 97.425781 147.507812 97.273438 C 147.871094 97.125 148.191406 96.910156 148.46875 96.632812 C 148.746094 96.355469 148.960938 96.035156 149.113281 95.671875 C 149.261719 95.308594 149.335938 94.929688 149.335938 94.535156 L 149.335938 83.75 C 149.335938 83.359375 149.261719 82.980469 149.113281 82.617188 C 148.960938 82.253906 148.746094 81.933594 148.46875 81.65625 C 148.191406 81.375 147.871094 81.164062 147.507812 81.011719 C 147.144531 80.863281 146.765625 80.785156 146.371094 80.785156 L 142.617188 80.785156 C 142.167969 79.394531 141.605469 78.046875 140.9375 76.742188 L 143.597656 74.085938 C 143.875 73.804688 144.089844 73.484375 144.238281 73.121094 C 144.390625 72.757812 144.464844 72.378906 144.464844 71.988281 C 144.464844 71.59375 144.390625 71.214844 144.238281 70.851562 C 144.089844 70.488281 143.875 70.167969 143.597656 69.890625 L 135.972656 62.265625 C 135.695312 61.988281 135.375 61.773438 135.011719 61.625 C 134.648438 61.472656 134.269531 61.398438 133.875 61.398438 C 133.484375 61.398438 133.105469 61.472656 132.742188 61.625 C 132.378906 61.773438 132.058594 61.988281 131.78125 62.265625 L 129.121094 64.925781 C 127.816406 64.257812 126.46875 63.699219 125.078125 63.246094 L 125.078125 59.492188 C 125.078125 59.097656 125 58.71875 124.851562 58.355469 C 124.699219 57.992188 124.488281 57.671875 124.207031 57.394531 C 123.929688 57.117188 123.609375 56.902344 123.246094 56.75 C 122.882812 56.601562 122.503906 56.527344 122.113281 56.527344 L 111.328125 56.527344 C 110.933594 56.527344 110.558594 56.601562 110.195312 56.75 C 109.832031 56.902344 109.507812 57.117188 109.230469 57.394531 C 108.953125 57.671875 108.738281 57.992188 108.589844 58.355469 C 108.4375 58.71875 108.363281 59.097656 108.363281 59.492188 L 108.363281 63.246094 C 106.96875 63.695312 105.621094 64.257812 104.320312 64.925781 L 101.660156 62.265625 C 101.382812 61.988281 101.0625 61.773438 100.699219 61.625 C 100.335938 61.472656 99.957031 61.398438 99.5625 61.398438 C 99.171875 61.398438 98.792969 61.472656 98.429688 61.625 C 98.066406 61.773438 97.746094 61.988281 97.46875 62.265625 L 89.84375 69.890625 C 89.566406 70.167969 89.351562 70.488281 89.199219 70.851562 C 89.050781 71.214844 88.976562 71.59375 88.976562 71.988281 C 88.976562 72.382812 89.050781 72.757812 89.199219 73.121094 C 89.351562 73.484375 89.566406 73.804688 89.84375 74.085938 L 92.503906 76.742188 C 91.832031 78.046875 91.273438 79.394531 90.824219 80.785156 L 87.066406 80.785156 C 86.675781 80.785156 86.296875 80.863281 85.933594 81.011719 C 85.570312 81.164062 85.25 81.375 84.972656 81.65625 C 84.691406 81.933594 84.480469 82.253906 84.328125 82.617188 C 84.179688 82.980469 84.101562 83.359375 84.101562 83.75 L 84.101562 94.535156 C 84.101562 94.929688 84.179688 95.308594 84.328125 95.671875 C 84.480469 96.035156 84.691406 96.355469 84.972656 96.632812 C 85.25 96.910156 85.570312 97.125 85.933594 97.273438 C 86.296875 97.425781 86.675781 97.5 87.066406 97.5 L 90.824219 97.5 C 91.273438 98.894531 91.832031 100.242188 92.503906 101.542969 L 89.84375 104.203125 C 89.566406 104.480469 89.351562 104.800781 89.199219 105.164062 C 89.050781 105.527344 88.976562 105.90625 88.976562 106.300781 C 88.976562 106.691406 89.050781 107.070312 89.199219 107.433594 C 89.351562 107.796875 89.566406 108.117188 89.84375 108.394531 L 97.46875 116.019531 C 97.746094 116.296875 98.066406 116.511719 98.429688 116.664062 C 98.792969 116.8125 99.171875 116.890625 99.5625 116.890625 C 99.957031 116.890625 100.335938 116.8125 100.699219 116.664062 C 101.0625 116.511719 101.382812 116.296875 101.660156 116.019531 L 104.320312 113.359375 C 105.621094 114.03125 106.96875 114.589844 108.363281 115.039062 L 108.363281 118.796875 C 108.363281 119.1875 108.4375 119.566406 108.589844 119.929688 C 108.738281 120.292969 108.953125 120.613281 109.230469 120.890625 C 109.507812 121.171875 109.832031 121.386719 110.195312 121.535156 C 110.558594 121.6875 110.933594 121.761719 111.328125 121.761719 Z M 114.292969 115.832031 L 114.292969 114.800781 C 114.289062 114.195312 114.191406 113.609375 114 113.039062 C 113.804688 112.464844 113.527344 111.9375 113.167969 111.453125 C 112.808594 110.972656 112.378906 110.554688 111.886719 110.210938 C 111.390625 109.863281 110.855469 109.601562 110.28125 109.425781 C 109.128906 109.058594 108.015625 108.597656 106.945312 108.042969 C 106.410156 107.753906 105.847656 107.558594 105.253906 107.457031 C 104.65625 107.351562 104.0625 107.339844 103.464844 107.425781 C 102.867188 107.511719 102.296875 107.691406 101.753906 107.960938 C 101.214844 108.226562 100.726562 108.574219 100.296875 109 L 99.5625 109.730469 L 96.132812 106.300781 L 96.867188 105.566406 C 97.289062 105.136719 97.636719 104.652344 97.90625 104.109375 C 98.171875 103.570312 98.351562 103 98.4375 102.402344 C 98.523438 101.804688 98.511719 101.207031 98.410156 100.613281 C 98.304688 100.015625 98.109375 99.453125 97.824219 98.921875 C 97.265625 97.847656 96.804688 96.734375 96.4375 95.582031 C 96.261719 95.007812 96 94.472656 95.652344 93.976562 C 95.308594 93.484375 94.890625 93.054688 94.410156 92.695312 C 93.925781 92.335938 93.398438 92.058594 92.828125 91.867188 C 92.253906 91.671875 91.667969 91.574219 91.0625 91.570312 L 90.03125 91.570312 L 90.03125 86.71875 L 91.0625 86.71875 C 91.667969 86.710938 92.253906 86.613281 92.828125 86.421875 C 93.398438 86.230469 93.925781 85.953125 94.410156 85.589844 C 94.890625 85.230469 95.308594 84.804688 95.652344 84.308594 C 96 83.816406 96.261719 83.28125 96.4375 82.703125 C 96.804688 81.550781 97.265625 80.441406 97.824219 79.367188 C 98.109375 78.835938 98.304688 78.269531 98.40625 77.675781 C 98.511719 77.082031 98.523438 76.484375 98.4375 75.886719 C 98.351562 75.289062 98.171875 74.71875 97.902344 74.179688 C 97.636719 73.636719 97.289062 73.152344 96.867188 72.71875 L 96.132812 71.988281 L 99.5625 68.554688 L 100.296875 69.289062 C 100.726562 69.714844 101.214844 70.058594 101.753906 70.328125 C 102.296875 70.597656 102.863281 70.773438 103.460938 70.859375 C 104.058594 70.945312 104.65625 70.9375 105.25 70.832031 C 105.847656 70.726562 106.410156 70.53125 106.941406 70.246094 C 108.015625 69.6875 109.128906 69.226562 110.28125 68.859375 C 110.855469 68.683594 111.390625 68.421875 111.886719 68.078125 C 112.378906 67.730469 112.808594 67.316406 113.167969 66.832031 C 113.527344 66.347656 113.804688 65.820312 114 65.25 C 114.191406 64.679688 114.289062 64.089844 114.292969 63.488281 L 114.292969 62.457031 L 119.148438 62.457031 L 119.148438 63.488281 C 119.152344 64.089844 119.25 64.679688 119.441406 65.25 C 119.632812 65.820312 119.910156 66.347656 120.273438 66.832031 C 120.632812 67.316406 121.058594 67.730469 121.554688 68.078125 C 122.046875 68.421875 122.582031 68.683594 123.160156 68.859375 C 124.3125 69.226562 125.421875 69.6875 126.496094 70.246094 C 127.027344 70.53125 127.59375 70.726562 128.1875 70.832031 C 128.78125 70.9375 129.378906 70.945312 129.976562 70.859375 C 130.574219 70.773438 131.144531 70.597656 131.6875 70.328125 C 132.226562 70.058594 132.714844 69.714844 133.144531 69.289062 L 133.875 68.554688 L 137.308594 71.988281 L 136.574219 72.71875 C 136.152344 73.152344 135.804688 73.636719 135.535156 74.175781 C 135.265625 74.71875 135.089844 75.289062 135.003906 75.886719 C 134.917969 76.484375 134.925781 77.082031 135.03125 77.675781 C 135.136719 78.269531 135.332031 78.832031 135.617188 79.367188 C 136.175781 80.4375 136.636719 81.550781 137.003906 82.703125 C 137.179688 83.28125 137.441406 83.816406 137.785156 84.308594 C 138.132812 84.804688 138.546875 85.230469 139.03125 85.589844 C 139.515625 85.953125 140.042969 86.230469 140.613281 86.421875 C 141.1875 86.613281 141.773438 86.710938 142.375 86.71875 L 143.40625 86.71875 L 143.40625 91.570312 L 142.375 91.570312 C 141.773438 91.574219 141.1875 91.671875 140.613281 91.867188 C 140.042969 92.058594 139.515625 92.335938 139.03125 92.695312 C 138.546875 93.054688 138.132812 93.484375 137.785156 93.976562 C 137.441406 94.472656 137.179688 95.007812 137.003906 95.582031 C 136.636719 96.734375 136.175781 97.847656 135.617188 98.917969 C 135.332031 99.453125 135.136719 100.015625 135.03125 100.609375 C 134.925781 101.207031 134.917969 101.800781 135.003906 102.398438 C 135.089844 103 135.265625 103.566406 135.535156 104.109375 C 135.804688 104.652344 136.152344 105.136719 136.574219 105.566406 L 137.308594 106.300781 L 133.875 109.730469 L 133.144531 108.996094 C 132.714844 108.574219 132.226562 108.226562 131.6875 107.960938 C 131.144531 107.691406 130.574219 107.511719 129.976562 107.425781 C 129.378906 107.339844 128.785156 107.351562 128.1875 107.457031 C 127.59375 107.558594 127.03125 107.753906 126.496094 108.039062 C 125.425781 108.597656 124.3125 109.058594 123.160156 109.425781 C 122.582031 109.601562 122.046875 109.863281 121.554688 110.210938 C 121.058594 110.554688 120.632812 110.972656 120.273438 111.453125 C 119.910156 111.9375 119.632812 112.464844 119.441406 113.039062 C 119.25 113.609375 119.152344 114.195312 119.148438 114.800781 L 119.148438 115.832031 Z M 114.292969 115.832031 " fill-opacity="1" fill-rule="nonzero"/><path fill="#0277bd" d="M 134.511719 89.144531 C 134.511719 88.5625 134.484375 87.980469 134.425781 87.398438 C 134.367188 86.820312 134.285156 86.242188 134.167969 85.671875 C 134.054688 85.101562 133.914062 84.535156 133.746094 83.980469 C 133.578125 83.421875 133.378906 82.875 133.15625 82.335938 C 132.933594 81.796875 132.683594 81.269531 132.410156 80.757812 C 132.136719 80.242188 131.835938 79.742188 131.511719 79.257812 C 131.1875 78.773438 130.84375 78.308594 130.472656 77.855469 C 130.101562 77.40625 129.710938 76.976562 129.300781 76.5625 C 128.886719 76.152344 128.457031 75.761719 128.007812 75.390625 C 127.554688 75.019531 127.089844 74.675781 126.605469 74.351562 C 126.121094 74.027344 125.621094 73.726562 125.105469 73.453125 C 124.59375 73.179688 124.066406 72.929688 123.527344 72.707031 C 122.992188 72.484375 122.441406 72.289062 121.882812 72.117188 C 121.328125 71.949219 120.761719 71.808594 120.191406 71.695312 C 119.621094 71.582031 119.042969 71.496094 118.464844 71.4375 C 117.882812 71.378906 117.304688 71.351562 116.71875 71.351562 C 116.136719 71.351562 115.554688 71.378906 114.976562 71.4375 C 114.394531 71.496094 113.820312 71.582031 113.25 71.695312 C 112.679688 71.808594 112.113281 71.949219 111.554688 72.117188 C 110.996094 72.289062 110.449219 72.484375 109.910156 72.707031 C 109.375 72.929688 108.847656 73.179688 108.332031 73.453125 C 107.820312 73.726562 107.320312 74.027344 106.835938 74.351562 C 106.351562 74.675781 105.882812 75.019531 105.433594 75.390625 C 104.984375 75.761719 104.550781 76.152344 104.140625 76.5625 C 103.726562 76.976562 103.335938 77.40625 102.96875 77.855469 C 102.597656 78.308594 102.25 78.773438 101.925781 79.257812 C 101.601562 79.742188 101.304688 80.242188 101.03125 80.757812 C 100.753906 81.269531 100.507812 81.796875 100.28125 82.335938 C 100.058594 82.875 99.863281 83.421875 99.695312 83.980469 C 99.527344 84.535156 99.382812 85.101562 99.269531 85.671875 C 99.15625 86.242188 99.070312 86.820312 99.015625 87.398438 C 98.957031 87.980469 98.929688 88.5625 98.929688 89.144531 C 98.929688 89.726562 98.957031 90.308594 99.015625 90.886719 C 99.070312 91.46875 99.15625 92.042969 99.269531 92.613281 C 99.382812 93.1875 99.527344 93.75 99.695312 94.308594 C 99.863281 94.867188 100.058594 95.414062 100.28125 95.953125 C 100.507812 96.492188 100.753906 97.015625 101.03125 97.53125 C 101.304688 98.042969 101.601562 98.542969 101.925781 99.027344 C 102.25 99.511719 102.597656 99.980469 102.96875 100.429688 C 103.335938 100.878906 103.726562 101.3125 104.140625 101.722656 C 104.550781 102.136719 104.984375 102.527344 105.433594 102.894531 C 105.882812 103.265625 106.351562 103.613281 106.835938 103.9375 C 107.320312 104.261719 107.820312 104.558594 108.332031 104.835938 C 108.847656 105.109375 109.375 105.359375 109.910156 105.582031 C 110.449219 105.804688 110.996094 106 111.554688 106.167969 C 112.113281 106.339844 112.679688 106.480469 113.25 106.59375 C 113.820312 106.707031 114.394531 106.792969 114.976562 106.847656 C 115.554688 106.90625 116.136719 106.933594 116.71875 106.933594 C 117.300781 106.933594 117.882812 106.90625 118.464844 106.847656 C 119.042969 106.789062 119.617188 106.703125 120.191406 106.589844 C 120.761719 106.476562 121.324219 106.332031 121.882812 106.164062 C 122.441406 105.996094 122.988281 105.796875 123.527344 105.574219 C 124.0625 105.351562 124.589844 105.101562 125.101562 104.828125 C 125.617188 104.554688 126.117188 104.253906 126.601562 103.929688 C 127.085938 103.605469 127.550781 103.261719 128 102.890625 C 128.453125 102.519531 128.882812 102.128906 129.292969 101.71875 C 129.707031 101.304688 130.097656 100.875 130.46875 100.425781 C 130.835938 99.976562 131.183594 99.507812 131.507812 99.023438 C 131.832031 98.539062 132.128906 98.039062 132.40625 97.527344 C 132.679688 97.011719 132.929688 96.488281 133.152344 95.949219 C 133.375 95.410156 133.570312 94.863281 133.742188 94.304688 C 133.910156 93.75 134.050781 93.183594 134.167969 92.613281 C 134.28125 92.042969 134.367188 91.464844 134.425781 90.886719 C 134.480469 90.308594 134.511719 89.726562 134.511719 89.144531 Z M 104.859375 89.144531 C 104.859375 88.363281 104.933594 87.59375 105.085938 86.828125 C 105.238281 86.066406 105.464844 85.324219 105.761719 84.605469 C 106.058594 83.886719 106.425781 83.203125 106.859375 82.554688 C 107.289062 81.90625 107.78125 81.308594 108.332031 80.757812 C 108.882812 80.207031 109.484375 79.714844 110.128906 79.28125 C 110.777344 78.847656 111.460938 78.484375 112.179688 78.183594 C 112.902344 77.886719 113.640625 77.664062 114.40625 77.511719 C 115.171875 77.359375 115.941406 77.28125 116.71875 77.28125 C 117.5 77.28125 118.269531 77.359375 119.035156 77.511719 C 119.796875 77.664062 120.539062 77.886719 121.257812 78.183594 C 121.980469 78.484375 122.664062 78.847656 123.308594 79.28125 C 123.957031 79.714844 124.554688 80.207031 125.105469 80.757812 C 125.65625 81.308594 126.148438 81.90625 126.582031 82.554688 C 127.015625 83.203125 127.378906 83.886719 127.679688 84.605469 C 127.976562 85.324219 128.203125 86.066406 128.351562 86.828125 C 128.503906 87.59375 128.582031 88.363281 128.582031 89.144531 C 128.582031 89.921875 128.503906 90.695312 128.351562 91.457031 C 128.203125 92.222656 127.976562 92.964844 127.679688 93.683594 C 127.378906 94.402344 127.015625 95.085938 126.582031 95.734375 C 126.148438 96.378906 125.65625 96.980469 125.105469 97.53125 C 124.554688 98.082031 123.957031 98.574219 123.308594 99.003906 C 122.664062 99.4375 121.980469 99.804688 121.257812 100.101562 C 120.539062 100.398438 119.796875 100.625 119.035156 100.777344 C 118.269531 100.929688 117.5 101.003906 116.71875 101.003906 C 115.941406 101.003906 115.171875 100.925781 114.40625 100.773438 C 113.644531 100.621094 112.902344 100.394531 112.183594 100.097656 C 111.464844 99.800781 110.78125 99.433594 110.132812 99 C 109.488281 98.570312 108.886719 98.078125 108.335938 97.527344 C 107.785156 96.976562 107.296875 96.378906 106.863281 95.730469 C 106.429688 95.082031 106.0625 94.398438 105.765625 93.679688 C 105.46875 92.960938 105.242188 92.21875 105.089844 91.457031 C 104.9375 90.691406 104.859375 89.921875 104.859375 89.144531 Z M 104.859375 89.144531 " fill-opacity="1" fill-rule="nonzero"/><g clip-path="url(#ab88e4121c)"><path fill="#0277bd" d="M 1.078125 3.152344 L 1.078125 175.136719 C 1.078125 175.378906 1.105469 175.621094 1.167969 175.859375 C 1.226562 176.097656 1.3125 176.324219 1.429688 176.539062 C 1.546875 176.757812 1.6875 176.957031 1.855469 177.136719 C 2.019531 177.316406 2.203125 177.476562 2.410156 177.609375 C 2.613281 177.746094 2.832031 177.855469 3.0625 177.933594 C 3.296875 178.015625 3.535156 178.066406 3.777344 178.089844 C 4.023438 178.109375 4.265625 178.101562 4.507812 178.0625 C 4.75 178.023438 4.984375 177.957031 5.210938 177.859375 L 46.722656 160.070312 C 47.269531 159.835938 47.703125 159.472656 48.03125 158.976562 C 48.355469 158.480469 48.519531 157.9375 48.519531 157.34375 L 48.519531 121.761719 L 42.589844 121.761719 L 42.589844 155.390625 L 7.007812 170.636719 L 7.007812 7.648438 L 42.589844 22.898438 L 42.589844 56.527344 L 48.519531 56.527344 L 48.519531 20.941406 C 48.519531 20.351562 48.355469 19.804688 48.03125 19.3125 C 47.703125 18.816406 47.269531 18.453125 46.722656 18.21875 L 5.210938 0.425781 C 4.984375 0.332031 4.75 0.261719 4.507812 0.222656 C 4.265625 0.183594 4.023438 0.175781 3.777344 0.199219 C 3.535156 0.21875 3.296875 0.273438 3.0625 0.351562 C 2.832031 0.433594 2.613281 0.542969 2.410156 0.675781 C 2.203125 0.8125 2.019531 0.96875 1.855469 1.152344 C 1.6875 1.332031 1.546875 1.53125 1.429688 1.746094 C 1.3125 1.960938 1.226562 2.1875 1.167969 2.425781 C 1.105469 2.664062 1.078125 2.90625 1.078125 3.152344 Z M 1.078125 3.152344 " fill-opacity="1" fill-rule="nonzero"/></g><path fill="#0277bd" d="M 75.207031 80.246094 L 75.207031 86.179688 L 57.414062 86.179688 L 57.414062 80.246094 Z M 75.207031 80.246094 " fill-opacity="1" fill-rule="nonzero"/><path fill="#0277bd" d="M 51.484375 80.246094 L 51.484375 86.179688 L 45.554688 86.179688 L 45.554688 80.246094 Z M 51.484375 80.246094 " fill-opacity="1" fill-rule="nonzero"/><path fill="#0277bd" d="M 39.625 80.246094 L 39.625 86.179688 L 24.796875 86.179688 L 24.796875 80.246094 Z M 39.625 80.246094 " fill-opacity="1" fill-rule="nonzero"/><path fill="#0277bd" d="M 75.207031 92.109375 L 75.207031 98.039062 L 54.449219 98.039062 L 54.449219 92.109375 Z M 75.207031 92.109375 " fill-opacity="1" fill-rule="nonzero"/><path fill="#0277bd" d="M 48.519531 92.109375 L 48.519531 98.039062 L 24.796875 98.039062 L 24.796875 92.109375 Z M 48.519531 92.109375 " fill-opacity="1" fill-rule="nonzero"/><path fill="#0277bd" d="M 69.277344 103.96875 L 69.277344 109.898438 L 42.589844 109.898438 L 42.589844 103.96875 Z M 69.277344 103.96875 " fill-opacity="1" fill-rule="nonzero"/><path fill="#0277bd" d="M 36.660156 68.386719 L 36.660156 74.316406 L 30.730469 74.316406 L 30.730469 68.386719 Z M 36.660156 68.386719 " fill-opacity="1" fill-rule="nonzero"/><path fill="#0277bd" d="M 72.242188 68.386719 L 72.242188 74.316406 L 42.589844 74.316406 L 42.589844 68.386719 Z M 72.242188 68.386719 " fill-opacity="1" fill-rule="nonzero"/><path fill="#0277bd" d="M 36.660156 103.96875 L 36.660156 109.898438 L 30.730469 109.898438 L 30.730469 103.96875 Z M 36.660156 103.96875 " fill-opacity="1" fill-rule="nonzero"/><path fill="#0277bd" d="M 176.023438 136.585938 C 176.023438 136.195312 175.949219 135.816406 175.800781 135.453125 C 175.648438 135.089844 175.433594 134.769531 175.15625 134.492188 C 174.878906 134.210938 174.558594 134 174.195312 133.847656 C 173.832031 133.695312 173.453125 133.621094 173.058594 133.621094 L 155.269531 133.621094 C 154.875 133.621094 154.496094 133.695312 154.132812 133.847656 C 153.769531 134 153.449219 134.210938 153.171875 134.492188 C 152.894531 134.769531 152.679688 135.089844 152.527344 135.453125 C 152.378906 135.816406 152.304688 136.195312 152.304688 136.585938 L 152.304688 145.484375 L 146.371094 145.484375 L 146.371094 139.550781 C 146.371094 139.160156 146.296875 138.78125 146.148438 138.417969 C 145.996094 138.054688 145.78125 137.734375 145.503906 137.457031 C 145.226562 137.175781 144.90625 136.964844 144.542969 136.8125 C 144.179688 136.664062 143.800781 136.585938 143.40625 136.585938 L 128.582031 136.585938 C 128.1875 136.585938 127.808594 136.664062 127.445312 136.8125 C 127.082031 136.964844 126.761719 137.175781 126.484375 137.457031 C 126.207031 137.734375 125.992188 138.054688 125.839844 138.417969 C 125.691406 138.78125 125.617188 139.160156 125.617188 139.550781 L 125.617188 154.378906 C 125.617188 154.773438 125.691406 155.148438 125.839844 155.511719 C 125.992188 155.875 126.207031 156.195312 126.484375 156.476562 C 126.761719 156.753906 127.082031 156.96875 127.445312 157.117188 C 127.808594 157.269531 128.1875 157.34375 128.582031 157.34375 L 134.511719 157.34375 L 134.511719 172.167969 C 134.511719 172.5625 134.585938 172.941406 134.738281 173.304688 C 134.886719 173.667969 135.101562 173.988281 135.378906 174.265625 C 135.65625 174.542969 135.980469 174.757812 136.34375 174.910156 C 136.707031 175.058594 137.082031 175.136719 137.476562 175.136719 L 161.199219 175.136719 C 161.589844 175.136719 161.96875 175.058594 162.332031 174.910156 C 162.695312 174.757812 163.015625 174.542969 163.296875 174.265625 C 163.574219 173.988281 163.789062 173.667969 163.9375 173.304688 C 164.089844 172.941406 164.164062 172.5625 164.164062 172.167969 L 164.164062 157.34375 L 173.058594 157.34375 C 173.453125 157.34375 173.832031 157.269531 174.195312 157.117188 C 174.558594 156.96875 174.878906 156.753906 175.15625 156.476562 C 175.433594 156.195312 175.648438 155.875 175.800781 155.511719 C 175.949219 155.148438 176.023438 154.773438 176.023438 154.378906 Z M 158.234375 139.550781 L 170.09375 139.550781 L 170.09375 151.414062 L 164.164062 151.414062 L 164.164062 148.449219 C 164.164062 148.054688 164.089844 147.675781 163.9375 147.3125 C 163.789062 146.949219 163.574219 146.628906 163.296875 146.351562 C 163.015625 146.074219 162.695312 145.859375 162.332031 145.707031 C 161.96875 145.558594 161.589844 145.484375 161.199219 145.484375 L 158.234375 145.484375 Z M 131.546875 151.414062 L 131.546875 142.519531 L 140.441406 142.519531 L 140.441406 145.484375 L 137.476562 145.484375 C 137.082031 145.484375 136.707031 145.558594 136.34375 145.707031 C 135.980469 145.859375 135.65625 146.074219 135.378906 146.351562 C 135.101562 146.628906 134.886719 146.949219 134.738281 147.3125 C 134.585938 147.675781 134.511719 148.054688 134.511719 148.449219 L 134.511719 151.414062 Z M 158.234375 169.203125 L 140.441406 169.203125 L 140.441406 151.414062 L 158.234375 151.414062 Z M 158.234375 169.203125 " fill-opacity="1" fill-rule="nonzero"/><g clip-path="url(#0897f96401)"><path fill="#0277bd" d="M 161.199219 98.039062 C 161.199219 98.433594 161.273438 98.8125 161.425781 99.175781 C 161.574219 99.539062 161.789062 99.859375 162.066406 100.136719 C 162.34375 100.414062 162.664062 100.628906 163.027344 100.777344 C 163.390625 100.929688 163.769531 101.003906 164.164062 101.003906 L 181.957031 101.003906 C 182.347656 101.003906 182.726562 100.929688 183.089844 100.777344 C 183.453125 100.628906 183.773438 100.414062 184.050781 100.136719 C 184.328125 99.859375 184.542969 99.539062 184.695312 99.175781 C 184.84375 98.8125 184.921875 98.433594 184.921875 98.039062 L 184.921875 80.246094 C 184.921875 79.855469 184.84375 79.476562 184.695312 79.113281 C 184.542969 78.75 184.328125 78.429688 184.050781 78.152344 C 183.773438 77.871094 183.453125 77.660156 183.089844 77.507812 C 182.726562 77.359375 182.347656 77.28125 181.957031 77.28125 L 164.164062 77.28125 C 163.769531 77.28125 163.390625 77.359375 163.027344 77.507812 C 162.664062 77.660156 162.34375 77.871094 162.066406 78.152344 C 161.789062 78.429688 161.574219 78.75 161.425781 79.113281 C 161.273438 79.476562 161.199219 79.855469 161.199219 80.246094 Z M 178.988281 83.214844 L 178.988281 95.074219 L 167.128906 95.074219 L 167.128906 83.214844 Z M 178.988281 83.214844 " fill-opacity="1" fill-rule="nonzero"/></g><path fill="#0277bd" d="M 95.964844 6.117188 L 95.964844 23.910156 C 95.964844 24.300781 96.039062 24.679688 96.1875 25.042969 C 96.339844 25.40625 96.554688 25.726562 96.832031 26.003906 C 97.109375 26.285156 97.429688 26.496094 97.792969 26.648438 C 98.15625 26.796875 98.535156 26.875 98.929688 26.875 L 107.824219 26.875 L 107.824219 41.699219 C 107.824219 42.09375 107.898438 42.472656 108.050781 42.835938 C 108.199219 43.199219 108.414062 43.519531 108.691406 43.796875 C 108.972656 44.074219 109.292969 44.289062 109.65625 44.4375 C 110.019531 44.589844 110.398438 44.664062 110.789062 44.664062 L 134.511719 44.664062 C 134.90625 44.664062 135.28125 44.589844 135.644531 44.4375 C 136.007812 44.289062 136.332031 44.074219 136.609375 43.796875 C 136.886719 43.519531 137.101562 43.199219 137.25 42.835938 C 137.402344 42.472656 137.476562 42.09375 137.476562 41.699219 L 137.476562 17.976562 C 137.476562 17.585938 137.402344 17.207031 137.25 16.84375 C 137.101562 16.480469 136.886719 16.160156 136.609375 15.882812 C 136.332031 15.601562 136.007812 15.390625 135.644531 15.238281 C 135.28125 15.089844 134.90625 15.011719 134.511719 15.011719 L 119.683594 15.011719 L 119.683594 6.117188 C 119.683594 5.722656 119.609375 5.34375 119.460938 4.980469 C 119.308594 4.617188 119.09375 4.296875 118.816406 4.019531 C 118.539062 3.742188 118.21875 3.527344 117.855469 3.378906 C 117.492188 3.226562 117.113281 3.152344 116.71875 3.152344 L 98.929688 3.152344 C 98.535156 3.152344 98.15625 3.226562 97.792969 3.378906 C 97.429688 3.527344 97.109375 3.742188 96.832031 4.019531 C 96.554688 4.296875 96.339844 4.617188 96.1875 4.980469 C 96.039062 5.34375 95.964844 5.722656 95.964844 6.117188 Z M 131.546875 20.941406 L 131.546875 38.734375 L 113.753906 38.734375 L 113.753906 20.941406 Z M 113.753906 9.082031 L 113.753906 15.011719 L 110.789062 15.011719 C 110.398438 15.011719 110.019531 15.089844 109.65625 15.238281 C 109.292969 15.390625 108.972656 15.601562 108.691406 15.882812 C 108.414062 16.160156 108.199219 16.480469 108.050781 16.84375 C 107.898438 17.207031 107.824219 17.585938 107.824219 17.976562 L 107.824219 20.941406 L 101.894531 20.941406 L 101.894531 9.082031 Z M 113.753906 9.082031 " fill-opacity="1" fill-rule="nonzero"/><path fill="#0277bd" d="M 146.371094 23.910156 L 146.371094 38.734375 C 146.371094 39.128906 146.449219 39.507812 146.597656 39.871094 C 146.75 40.234375 146.964844 40.554688 147.242188 40.832031 C 147.519531 41.109375 147.839844 41.324219 148.203125 41.472656 C 148.566406 41.625 148.945312 41.699219 149.335938 41.699219 L 164.164062 41.699219 C 164.558594 41.699219 164.933594 41.625 165.296875 41.472656 C 165.660156 41.324219 165.984375 41.109375 166.261719 40.832031 C 166.539062 40.554688 166.753906 40.234375 166.902344 39.871094 C 167.054688 39.507812 167.128906 39.128906 167.128906 38.734375 L 167.128906 23.910156 C 167.128906 23.515625 167.054688 23.136719 166.902344 22.773438 C 166.753906 22.410156 166.539062 22.089844 166.261719 21.8125 C 165.984375 21.535156 165.660156 21.320312 165.296875 21.167969 C 164.933594 21.019531 164.558594 20.941406 164.164062 20.941406 L 149.335938 20.941406 C 148.945312 20.941406 148.566406 21.019531 148.203125 21.167969 C 147.839844 21.320312 147.519531 21.535156 147.242188 21.8125 C 146.964844 22.089844 146.75 22.410156 146.597656 22.773438 C 146.449219 23.136719 146.371094 23.515625 146.371094 23.910156 Z M 161.199219 26.875 L 161.199219 35.769531 L 152.304688 35.769531 L 152.304688 26.875 Z M 161.199219 26.875 " fill-opacity="1" fill-rule="nonzero"/><path fill="#0277bd" d="M 95.964844 133.621094 C 95.964844 133.230469 95.886719 132.851562 95.738281 132.488281 C 95.585938 132.125 95.375 131.804688 95.09375 131.523438 C 94.816406 131.246094 94.496094 131.03125 94.132812 130.882812 C 93.769531 130.730469 93.390625 130.65625 93 130.65625 L 81.136719 130.65625 C 80.746094 130.65625 80.367188 130.730469 80.003906 130.882812 C 79.640625 131.03125 79.320312 131.246094 79.039062 131.523438 C 78.761719 131.804688 78.546875 132.125 78.398438 132.488281 C 78.246094 132.851562 78.171875 133.230469 78.171875 133.621094 L 78.171875 145.484375 C 78.171875 145.875 78.246094 146.253906 78.398438 146.617188 C 78.546875 146.980469 78.761719 147.300781 79.039062 147.578125 C 79.320312 147.859375 79.640625 148.070312 80.003906 148.222656 C 80.367188 148.371094 80.746094 148.449219 81.136719 148.449219 L 93 148.449219 C 93.390625 148.449219 93.769531 148.371094 94.132812 148.222656 C 94.496094 148.070312 94.816406 147.859375 95.09375 147.578125 C 95.375 147.300781 95.585938 146.980469 95.738281 146.617188 C 95.886719 146.253906 95.964844 145.875 95.964844 145.484375 Z M 84.101562 142.519531 L 84.101562 136.585938 L 90.03125 136.585938 L 90.03125 142.519531 Z M 84.101562 142.519531 " fill-opacity="1" fill-rule="nonzero"/><path fill="#0277bd" d="M 33.695312 28.929688 L 33.695312 50.59375 L 39.625 50.59375 L 39.625 26.875 C 39.625 26.253906 39.449219 25.691406 39.097656 25.183594 C 38.742188 24.675781 38.277344 24.3125 37.699219 24.097656 L 13.976562 15.199219 C 13.753906 15.117188 13.523438 15.0625 13.285156 15.03125 C 13.046875 15.003906 12.808594 15.003906 12.570312 15.035156 C 12.332031 15.066406 12.101562 15.121094 11.878906 15.207031 C 11.65625 15.292969 11.445312 15.40625 11.25 15.539062 C 11.050781 15.675781 10.875 15.835938 10.714844 16.015625 C 10.554688 16.195312 10.421875 16.390625 10.308594 16.601562 C 10.199219 16.816406 10.113281 17.039062 10.058594 17.269531 C 10 17.503906 9.972656 17.738281 9.972656 17.976562 L 9.972656 160.308594 C 9.972656 160.546875 10 160.785156 10.058594 161.015625 C 10.113281 161.25 10.199219 161.472656 10.308594 161.683594 C 10.421875 161.898438 10.554688 162.09375 10.714844 162.273438 C 10.875 162.453125 11.050781 162.609375 11.25 162.746094 C 11.445312 162.882812 11.65625 162.992188 11.878906 163.078125 C 12.101562 163.164062 12.332031 163.222656 12.570312 163.25 C 12.808594 163.28125 13.046875 163.28125 13.285156 163.253906 C 13.523438 163.226562 13.753906 163.171875 13.976562 163.085938 L 37.699219 154.191406 C 38.277344 153.972656 38.742188 153.609375 39.097656 153.101562 C 39.449219 152.59375 39.625 152.03125 39.625 151.414062 L 39.625 127.691406 L 33.695312 127.691406 L 33.695312 149.359375 L 15.902344 156.03125 L 15.902344 22.257812 Z M 33.695312 28.929688 " fill-opacity="1" fill-rule="nonzero"/></g></g></g></svg>