<svg xmlns="http://www.w3.org/2000/svg" xmlns:xlink="http://www.w3.org/1999/xlink" width="1366" zoomAndPan="magnify" viewBox="0 0 1024.5 660.749985" height="881" preserveAspectRatio="xMidYMid meet" version="1.0"><defs><clipPath id="a1a3c5cdcb"><path d="M 424.027344 242.277344 L 600.191406 242.277344 L 600.191406 418.441406 L 424.027344 418.441406 Z M 424.027344 242.277344 " clip-rule="nonzero"/></clipPath><clipPath id="87d0761dc1"><path d="M 487.667969 289.839844 L 600.191406 289.839844 L 600.191406 418.441406 L 487.667969 418.441406 Z M 487.667969 289.839844 " clip-rule="nonzero"/></clipPath><clipPath id="b6fa56af8f"><path d="M 600.191406 330.359375 C 600.191406 379.003906 560.753906 418.441406 512.109375 418.441406 C 463.460938 418.441406 424.027344 379.003906 424.027344 330.359375 C 424.027344 281.710938 463.460938 242.277344 512.109375 242.277344 C 560.753906 242.277344 600.191406 281.710938 600.191406 330.359375 Z M 600.191406 330.359375 " clip-rule="nonzero"/></clipPath></defs><g clip-path="url(#a1a3c5cdcb)"><path fill="#7ac943" d="M 600.191406 330.359375 C 600.191406 379.003906 560.753906 418.441406 512.109375 418.441406 C 463.460938 418.441406 424.027344 379.003906 424.027344 330.359375 C 424.027344 281.710938 463.460938 242.277344 512.109375 242.277344 C 560.753906 242.277344 600.191406 281.710938 600.191406 330.359375 " fill-opacity="1" fill-rule="nonzero"/></g><g clip-path="url(#87d0761dc1)"><g clip-path="url(#b6fa56af8f)"><path fill="#69ad3a" d="M 639.390625 361.074219 L 568.28125 289.964844 L 487.714844 370.972656 L 552.222656 435.476562 L 639.390625 361.074219 " fill-opacity="1" fill-rule="nonzero"/></g></g><path fill="#ffffff" d="M 568.28125 289.964844 C 565.929688 287.613281 562.804688 286.316406 559.476562 286.316406 C 556.148438 286.316406 553.019531 287.613281 550.667969 289.964844 L 496.316406 344.320312 L 473.550781 321.554688 C 471.199219 319.203125 468.070312 317.90625 464.742188 317.90625 C 461.414062 317.90625 458.289062 319.203125 455.933594 321.554688 C 451.078125 326.410156 451.078125 334.3125 455.933594 339.171875 L 487.390625 370.625 C 487.425781 370.664062 487.460938 370.699219 487.503906 370.746094 C 488.101562 371.339844 488.761719 371.878906 489.460938 372.339844 C 491.5 373.6875 493.871094 374.398438 496.324219 374.398438 C 499.652344 374.398438 502.78125 373.105469 505.128906 370.753906 C 505.246094 370.640625 565.710938 310.15625 568.28125 307.582031 C 570.636719 305.230469 571.929688 302.101562 571.929688 298.773438 C 571.929688 295.445312 570.636719 292.320312 568.28125 289.964844 " fill-opacity="1" fill-rule="nonzero"/></svg>