<svg xmlns="http://www.w3.org/2000/svg" xmlns:xlink="http://www.w3.org/1999/xlink" width="1366" zoomAndPan="magnify" viewBox="0 0 1024.5 660.749985" height="881" preserveAspectRatio="xMidYMid meet" version="1.0"><defs><clipPath id="b073deb6aa"><path d="M 409.503906 227.753906 L 614.152344 227.753906 L 614.152344 432.402344 L 409.503906 432.402344 Z M 409.503906 227.753906 " clip-rule="nonzero"/></clipPath></defs><path fill="#000000" d="M 458.035156 369.894531 L 458.035156 376.714844 L 565.621094 376.714844 L 565.621094 369.894531 L 557.371094 369.894531 L 557.371094 314.035156 L 565.621094 314.035156 L 565.621094 307.210938 L 458.035156 307.210938 L 458.035156 314.035156 L 466.28125 314.035156 L 466.28125 369.894531 Z M 487.648438 369.894531 L 487.648438 314.035156 L 501.144531 314.035156 L 501.144531 369.894531 Z M 522.511719 369.894531 L 522.511719 314.035156 L 536.007812 314.035156 L 536.007812 369.894531 Z M 550.550781 314.035156 L 550.550781 369.894531 L 542.828125 369.894531 L 542.828125 314.035156 Z M 515.691406 314.035156 L 515.691406 369.894531 L 507.964844 369.894531 L 507.964844 314.035156 Z M 473.105469 314.035156 L 480.828125 314.035156 L 480.828125 369.894531 L 473.105469 369.894531 Z M 473.105469 314.035156 " fill-opacity="1" fill-rule="nonzero"/><path fill="#000000" d="M 571.507812 383.515625 L 452.148438 383.515625 C 450.265625 383.515625 448.738281 385.042969 448.738281 386.925781 C 448.738281 388.808594 450.265625 390.335938 452.148438 390.335938 L 571.507812 390.335938 C 573.390625 390.335938 574.917969 388.808594 574.917969 386.925781 C 574.917969 385.042969 573.390625 383.515625 571.507812 383.515625 Z M 571.507812 383.515625 " fill-opacity="1" fill-rule="nonzero"/><path fill="#000000" d="M 574.871094 296.542969 C 574.859375 296.457031 574.859375 296.371094 574.839844 296.285156 C 574.816406 296.171875 574.773438 296.0625 574.734375 295.949219 C 574.703125 295.851562 574.679688 295.75 574.640625 295.65625 C 574.597656 295.554688 574.535156 295.460938 574.480469 295.363281 C 574.429688 295.269531 574.386719 295.171875 574.324219 295.082031 C 574.265625 294.996094 574.191406 294.917969 574.121094 294.835938 C 574.050781 294.75 573.984375 294.65625 573.902344 294.574219 C 573.839844 294.515625 573.761719 294.464844 573.695312 294.40625 C 573.589844 294.316406 573.488281 294.226562 573.371094 294.152344 C 573.359375 294.140625 573.351562 294.132812 573.339844 294.125 L 513.660156 256.144531 C 512.542969 255.433594 511.113281 255.433594 509.996094 256.144531 L 450.316406 294.125 C 450.304688 294.132812 450.296875 294.140625 450.285156 294.152344 C 450.167969 294.226562 450.066406 294.316406 449.960938 294.40625 C 449.890625 294.464844 449.816406 294.511719 449.753906 294.574219 C 449.675781 294.65625 449.605469 294.75 449.535156 294.835938 C 449.464844 294.917969 449.390625 294.996094 449.332031 295.082031 C 449.269531 295.171875 449.226562 295.269531 449.175781 295.363281 C 449.121094 295.460938 449.058594 295.554688 449.015625 295.65625 C 448.976562 295.75 448.953125 295.851562 448.921875 295.949219 C 448.882812 296.0625 448.839844 296.171875 448.816406 296.285156 C 448.796875 296.371094 448.796875 296.457031 448.785156 296.542969 C 448.765625 296.679688 448.746094 296.820312 448.742188 296.960938 C 448.742188 296.976562 448.738281 296.988281 448.738281 297.003906 C 448.738281 297.078125 448.753906 297.144531 448.761719 297.21875 C 448.769531 297.359375 448.777344 297.496094 448.800781 297.632812 C 448.820312 297.738281 448.855469 297.835938 448.882812 297.9375 C 448.917969 298.050781 448.945312 298.164062 448.988281 298.273438 C 449.035156 298.390625 449.097656 298.5 449.15625 298.609375 C 449.199219 298.683594 449.222656 298.761719 449.269531 298.835938 C 449.277344 298.847656 449.289062 298.859375 449.300781 298.871094 C 449.367188 298.972656 449.449219 299.0625 449.527344 299.160156 C 449.589844 299.238281 449.652344 299.328125 449.726562 299.402344 C 449.785156 299.460938 449.851562 299.507812 449.914062 299.5625 C 450.019531 299.652344 450.121094 299.746094 450.234375 299.824219 C 450.285156 299.859375 450.339844 299.882812 450.390625 299.914062 C 450.527344 299.996094 450.664062 300.078125 450.808594 300.140625 C 450.871094 300.164062 450.941406 300.179688 451.003906 300.203125 C 451.148438 300.253906 451.289062 300.304688 451.441406 300.335938 C 451.503906 300.351562 451.574219 300.351562 451.640625 300.363281 C 451.796875 300.386719 451.953125 300.410156 452.113281 300.410156 C 452.125 300.410156 452.136719 300.414062 452.148438 300.414062 L 571.507812 300.414062 C 571.773438 300.414062 572.03125 300.375 572.28125 300.316406 C 572.351562 300.300781 572.414062 300.273438 572.480469 300.253906 C 572.664062 300.199219 572.839844 300.132812 573.007812 300.050781 C 573.085938 300.011719 573.15625 299.972656 573.230469 299.929688 C 573.394531 299.832031 573.542969 299.726562 573.6875 299.605469 C 573.742188 299.558594 573.804688 299.515625 573.859375 299.460938 C 574.050781 299.28125 574.21875 299.082031 574.359375 298.863281 C 574.367188 298.851562 574.378906 298.84375 574.386719 298.832031 C 574.433594 298.761719 574.457031 298.683594 574.5 298.609375 C 574.558594 298.496094 574.621094 298.390625 574.667969 298.269531 C 574.710938 298.160156 574.738281 298.046875 574.773438 297.9375 C 574.800781 297.835938 574.835938 297.738281 574.855469 297.632812 C 574.878906 297.496094 574.886719 297.355469 574.894531 297.21875 C 574.902344 297.144531 574.917969 297.074219 574.917969 297 C 574.917969 296.988281 574.914062 296.972656 574.914062 296.960938 C 574.914062 296.820312 574.890625 296.679688 574.871094 296.542969 Z M 511.828125 263.066406 L 559.792969 293.589844 L 463.859375 293.589844 Z M 511.828125 263.066406 " fill-opacity="1" fill-rule="nonzero"/><g clip-path="url(#b073deb6aa)"><path fill="#000000" d="M 511.828125 227.753906 C 455.40625 227.753906 409.503906 273.65625 409.503906 330.078125 C 409.503906 386.5 455.40625 432.402344 511.828125 432.402344 C 568.25 432.402344 614.152344 386.5 614.152344 330.078125 C 614.152344 273.65625 568.25 227.753906 511.828125 227.753906 Z M 511.828125 425.582031 C 459.167969 425.582031 416.324219 382.738281 416.324219 330.078125 C 416.324219 277.417969 459.167969 234.574219 511.828125 234.574219 C 564.488281 234.574219 607.332031 277.417969 607.332031 330.078125 C 607.332031 382.738281 564.488281 425.582031 511.828125 425.582031 Z M 511.828125 425.582031 " fill-opacity="1" fill-rule="nonzero"/></g></svg>