<svg xmlns="http://www.w3.org/2000/svg" xmlns:xlink="http://www.w3.org/1999/xlink" width="1366" zoomAndPan="magnify" viewBox="0 0 1024.5 660.749985" height="881" preserveAspectRatio="xMidYMid meet" version="1.0"><defs><clipPath id="d9b3c6c177"><path d="M 433 274 L 714.90625 274 L 714.90625 447.605469 L 433 447.605469 Z M 433 274 " clip-rule="nonzero"/></clipPath><clipPath id="1f647fb2b5"><path d="M 309.355469 212.96875 L 379 212.96875 L 379 363 L 309.355469 363 Z M 309.355469 212.96875 " clip-rule="nonzero"/></clipPath></defs><path fill="#000000" d="M 523.460938 343.429688 C 516.039062 343.429688 509.0625 340.539062 503.8125 335.292969 L 477.105469 308.59375 C 458.695312 321.800781 439.089844 320.890625 420.105469 305.84375 C 417.472656 303.753906 417.03125 299.929688 419.117188 297.300781 C 421.207031 294.667969 425.03125 294.226562 427.664062 296.3125 C 443.71875 309.039062 458.332031 308.894531 473.660156 295.855469 C 476.070312 293.800781 479.660156 293.945312 481.902344 296.1875 L 512.417969 326.691406 C 515.367188 329.640625 519.289062 331.265625 523.460938 331.265625 C 527.632812 331.265625 531.558594 329.640625 534.507812 326.691406 C 540.597656 320.605469 540.597656 310.695312 534.507812 304.605469 L 493.957031 264.070312 C 491.582031 261.695312 491.582031 257.847656 493.957031 255.472656 C 496.335938 253.097656 500.1875 253.097656 502.5625 255.472656 L 543.109375 296.007812 C 553.945312 306.839844 553.945312 324.460938 543.109375 335.292969 C 537.863281 340.539062 530.882812 343.429688 523.460938 343.429688 Z M 523.460938 343.429688 " fill-opacity="1" fill-rule="nonzero"/><g clip-path="url(#d9b3c6c177)"><path fill="#000000" d="M 708.398438 447.601562 L 439.230469 447.601562 C 435.871094 447.601562 433.148438 444.878906 433.148438 441.519531 L 433.148438 309.839844 C 433.148438 306.480469 435.871094 303.757812 439.230469 303.757812 C 442.589844 303.757812 445.316406 306.480469 445.316406 309.839844 L 445.316406 435.4375 L 702.316406 435.4375 L 702.316406 287.09375 L 519.507812 287.09375 C 516.148438 287.09375 513.425781 284.371094 513.425781 281.015625 C 513.425781 277.65625 516.148438 274.933594 519.507812 274.933594 L 708.398438 274.933594 C 711.757812 274.933594 714.480469 277.65625 714.480469 281.015625 L 714.480469 441.519531 C 714.480469 444.878906 711.757812 447.601562 708.398438 447.601562 Z M 708.398438 447.601562 " fill-opacity="1" fill-rule="nonzero"/></g><path fill="#000000" d="M 436.449219 363.382812 C 416.203125 363.382812 400.886719 357.382812 390.839844 345.515625 L 372.53125 345.515625 C 369.171875 345.515625 366.449219 342.792969 366.449219 339.433594 L 366.449219 235.578125 C 366.449219 232.21875 369.171875 229.496094 372.53125 229.496094 L 375.257812 229.496094 C 384.503906 229.496094 393.609375 227.929688 402.324219 224.839844 L 410.683594 221.875 C 420.707031 218.316406 431.183594 216.515625 441.820312 216.515625 L 488.773438 216.515625 C 513.644531 216.515625 537.027344 226.195312 554.613281 243.777344 L 587.5625 276.714844 C 589.9375 279.089844 589.9375 282.941406 587.5625 285.3125 C 585.183594 287.6875 581.332031 287.6875 578.957031 285.3125 L 546.011719 252.375 C 530.722656 237.09375 510.394531 228.675781 488.773438 228.675781 L 441.820312 228.675781 C 432.570312 228.675781 423.464844 230.242188 414.75 233.335938 L 406.394531 236.300781 C 397.425781 239.480469 388.097656 241.257812 378.613281 241.597656 L 378.613281 333.351562 L 393.78125 333.351562 C 395.710938 333.351562 397.527344 334.269531 398.675781 335.824219 C 406.695312 346.691406 419.90625 351.714844 439.0625 351.183594 C 442.460938 351.09375 445.21875 353.738281 445.3125 357.09375 C 445.40625 360.449219 442.757812 363.25 439.402344 363.339844 C 438.40625 363.371094 437.421875 363.382812 436.449219 363.382812 Z M 436.449219 363.382812 " fill-opacity="1" fill-rule="nonzero"/><g clip-path="url(#1f647fb2b5)"><path fill="#000000" d="M 372.53125 362.035156 L 315.863281 362.035156 C 312.503906 362.035156 309.78125 359.3125 309.78125 355.957031 L 309.78125 219.054688 C 309.78125 215.695312 312.503906 212.972656 315.863281 212.972656 L 372.53125 212.972656 C 375.890625 212.972656 378.613281 215.695312 378.613281 219.054688 L 378.613281 355.957031 C 378.613281 359.3125 375.890625 362.035156 372.53125 362.035156 Z M 321.945312 349.875 L 366.449219 349.875 L 366.449219 225.136719 L 321.945312 225.136719 Z M 321.945312 349.875 " fill-opacity="1" fill-rule="nonzero"/></g><path fill="#000000" d="M 573.222656 392.132812 C 555.875 392.132812 541.761719 378.019531 541.761719 360.675781 C 541.761719 343.332031 555.875 329.222656 573.222656 329.222656 C 590.574219 329.222656 604.691406 343.332031 604.691406 360.675781 C 604.691406 378.019531 590.574219 392.132812 573.222656 392.132812 Z M 573.222656 341.382812 C 562.582031 341.382812 553.925781 350.039062 553.925781 360.675781 C 553.925781 371.316406 562.582031 379.96875 573.222656 379.96875 C 583.867188 379.96875 592.523438 371.316406 592.523438 360.675781 C 592.523438 350.039062 583.867188 341.382812 573.222656 341.382812 Z M 573.222656 341.382812 " fill-opacity="1" fill-rule="nonzero"/><path fill="#000000" d="M 657.148438 419.277344 L 491.660156 419.277344 C 488.300781 419.277344 485.578125 416.554688 485.578125 413.195312 C 485.578125 402.613281 476.96875 394.007812 466.382812 394.007812 C 463.023438 394.007812 460.300781 391.285156 460.300781 387.925781 L 460.300781 332.246094 C 460.300781 328.886719 463.023438 326.164062 466.382812 326.164062 C 474.8125 326.164062 482.171875 320.773438 484.695312 312.746094 C 485.707031 309.542969 489.121094 307.765625 492.324219 308.773438 C 495.527344 309.78125 497.308594 313.195312 496.300781 316.398438 C 492.792969 327.539062 483.59375 335.574219 472.46875 337.742188 L 472.46875 382.4375 C 484.890625 384.886719 494.699219 394.695312 497.148438 407.113281 L 651.660156 407.113281 C 654.109375 394.695312 663.921875 384.886719 676.34375 382.4375 L 676.34375 337.734375 C 663.921875 335.285156 654.109375 325.476562 651.660156 313.058594 L 543.355469 313.058594 C 539.996094 313.058594 537.273438 310.335938 537.273438 306.976562 C 537.273438 303.621094 539.996094 300.898438 543.355469 300.898438 L 657.148438 300.898438 C 660.511719 300.898438 663.234375 303.621094 663.234375 306.976562 C 663.234375 317.558594 671.84375 326.164062 682.425781 326.164062 C 685.785156 326.164062 688.507812 328.886719 688.507812 332.246094 L 688.507812 387.925781 C 688.507812 391.285156 685.785156 394.007812 682.425781 394.007812 C 671.84375 394.007812 663.234375 402.613281 663.234375 413.195312 C 663.234375 416.554688 660.511719 419.277344 657.148438 419.277344 Z M 657.148438 419.277344 " fill-opacity="1" fill-rule="nonzero"/></svg>