<svg xmlns="http://www.w3.org/2000/svg" xmlns:xlink="http://www.w3.org/1999/xlink" width="1366" zoomAndPan="magnify" viewBox="0 0 1024.5 660.749985" height="881" preserveAspectRatio="xMidYMid meet" version="1.0"><defs><clipPath id="b908131e02"><path d="M 387.296875 208.195312 L 636.921875 208.195312 L 636.921875 452 L 387.296875 452 Z M 387.296875 208.195312 " clip-rule="nonzero"/></clipPath></defs><g clip-path="url(#b908131e02)"><path fill="#000000" d="M 415.574219 385.167969 L 445.519531 438.089844 C 446.964844 440.648438 446.058594 443.925781 443.5 445.375 L 433.3125 451.140625 C 430.753906 452.589844 427.476562 451.679688 426.03125 449.121094 L 396.085938 396.199219 C 394.636719 393.640625 395.546875 390.359375 398.105469 388.914062 L 408.289062 383.148438 C 410.847656 381.699219 414.125 382.609375 415.574219 385.167969 Z M 537.226562 298.761719 L 551.601562 301.707031 L 544.492188 285.199219 C 543.335938 285.683594 542.242188 286.179688 541.726562 286.546875 C 540.757812 287.5 538.734375 290.988281 537.949219 292.191406 C 534.898438 296.855469 529.933594 299.628906 524.628906 299.9375 L 529.492188 311.230469 Z M 494.441406 315.742188 L 501.804688 299.925781 C 495.695312 300.363281 489.742188 297.503906 486.269531 292.191406 C 485.480469 290.988281 483.460938 287.5 482.488281 286.546875 C 482.296875 286.410156 482.023438 286.253906 481.691406 286.085938 L 472.617188 305.582031 L 487.070312 303.054688 Z M 442.851562 335.792969 C 441.226562 334.167969 441.226562 331.535156 442.851562 329.910156 C 444.472656 328.289062 447.105469 328.289062 448.730469 329.910156 L 468.46875 349.65625 C 470.089844 351.277344 470.089844 353.910156 468.46875 355.535156 C 466.84375 357.160156 464.210938 357.160156 462.589844 355.535156 Z M 575.492188 329.910156 C 577.113281 328.289062 579.746094 328.289062 581.371094 329.910156 C 582.992188 331.535156 582.992188 334.167969 581.371094 335.792969 L 561.632812 355.535156 C 560.007812 357.160156 557.375 357.160156 555.753906 355.535156 C 554.128906 353.910156 554.128906 351.277344 555.753906 349.65625 Z M 507.953125 328.761719 C 507.953125 326.464844 509.8125 324.605469 512.109375 324.605469 C 514.40625 324.605469 516.265625 326.464844 516.265625 328.761719 L 516.265625 356.683594 C 516.265625 358.980469 514.40625 360.84375 512.109375 360.84375 C 509.8125 360.84375 507.953125 358.980469 507.953125 356.683594 Z M 420.421875 250.003906 C 438.671875 250.003906 453.46875 264.804688 453.46875 283.058594 C 453.46875 301.3125 438.671875 316.113281 420.421875 316.113281 C 402.171875 316.113281 387.378906 301.3125 387.378906 283.058594 C 387.378906 264.804688 402.171875 250.003906 420.421875 250.003906 Z M 421.289062 263.039062 C 420.988281 262.246094 419.859375 262.246094 419.558594 263.039062 L 415.113281 274.746094 C 414.980469 275.097656 414.667969 275.324219 414.292969 275.339844 L 401.789062 275.953125 C 400.9375 275.992188 400.589844 277.066406 401.253906 277.597656 L 411.011719 285.445312 C 411.304688 285.679688 411.425781 286.046875 411.324219 286.410156 L 408.042969 298.492188 C 407.816406 299.316406 408.730469 299.976562 409.441406 299.511719 L 419.917969 292.652344 C 420.230469 292.445312 420.613281 292.445312 420.929688 292.652344 L 431.40625 299.511719 C 432.117188 299.976562 433.027344 299.316406 432.804688 298.492188 L 429.519531 286.410156 C 429.421875 286.042969 429.539062 285.679688 429.835938 285.445312 L 439.59375 277.597656 C 440.257812 277.066406 439.910156 275.992188 439.058594 275.949219 L 426.554688 275.339844 C 426.175781 275.324219 425.867188 275.097656 425.734375 274.746094 Z M 603.796875 250.003906 C 622.046875 250.003906 636.839844 264.804688 636.839844 283.058594 C 636.839844 301.3125 622.046875 316.113281 603.796875 316.113281 C 585.546875 316.113281 570.75 301.3125 570.75 283.058594 C 570.75 264.804688 585.546875 250.003906 603.796875 250.003906 Z M 617.359375 271.410156 C 615.464844 266.90625 611.898438 264.265625 607.953125 263.195312 L 607.953125 262.144531 C 607.953125 259.847656 606.09375 257.984375 603.796875 257.984375 C 601.5 257.984375 599.640625 259.847656 599.640625 262.144531 L 599.640625 263.253906 C 594.015625 264.820312 589.859375 269.394531 590.15625 275.480469 C 590.511719 282.835938 596.707031 285.976562 603.160156 287.035156 C 605.601562 287.433594 609.847656 288.261719 610.214844 291.285156 C 610.238281 291.496094 610.253906 291.617188 610.253906 291.652344 C 610.308594 293.976562 607.019531 294.847656 605.222656 295.066406 C 604.769531 295.121094 604.40625 295.152344 604.128906 295.15625 C 601.261719 295.226562 597.984375 294.015625 597.222656 290.957031 C 596.675781 288.734375 594.429688 287.375 592.203125 287.921875 C 589.980469 288.46875 588.621094 290.714844 589.167969 292.941406 C 590.46875 298.164062 594.53125 301.675781 599.640625 302.933594 L 599.640625 303.972656 C 599.640625 306.269531 601.5 308.132812 603.796875 308.132812 C 606.09375 308.132812 607.953125 306.269531 607.953125 303.972656 L 607.953125 303.019531 C 613.726562 301.761719 618.6875 297.859375 618.535156 291.457031 C 618.527344 291 618.5 290.617188 618.464844 290.308594 C 617.554688 282.800781 611.136719 279.9375 604.492188 278.847656 C 602.4375 278.507812 598.566406 277.734375 598.441406 275.089844 C 598.328125 272.796875 600.375 271.511719 602.378906 271.105469 C 605.367188 270.503906 608.460938 271.6875 609.691406 274.625 C 610.582031 276.742188 613.015625 277.738281 615.132812 276.851562 C 617.25 275.964844 618.246094 273.527344 617.359375 271.410156 Z M 517.40625 210.574219 C 525.710938 216.792969 523.828125 216.105469 534.183594 216.683594 C 538.160156 216.90625 541.390625 219.617188 542.296875 223.496094 C 544.664062 233.597656 543.664062 231.859375 551.222656 238.960938 C 554.128906 241.6875 554.859375 245.839844 553.0625 249.398438 C 548.386719 258.65625 548.734375 256.679688 549.964844 266.980469 C 550.4375 270.9375 548.328125 274.589844 544.667969 276.160156 C 535.132812 280.242188 536.667969 278.957031 530.992188 287.636719 C 528.8125 290.972656 524.847656 292.414062 521.035156 291.261719 C 511.109375 288.261719 513.109375 288.261719 503.183594 291.261719 C 499.371094 292.414062 495.40625 290.972656 493.226562 287.636719 C 487.550781 278.957031 489.085938 280.242188 479.550781 276.160156 C 475.890625 274.589844 473.78125 270.9375 474.253906 266.980469 C 475.484375 256.683594 475.832031 258.65625 471.15625 249.398438 C 469.359375 245.839844 470.089844 241.6875 472.996094 238.960938 C 480.558594 231.859375 479.554688 233.597656 481.921875 223.496094 C 482.828125 219.617188 486.058594 216.902344 490.035156 216.683594 C 500.390625 216.105469 498.507812 216.792969 506.8125 210.574219 C 510 208.1875 514.21875 208.1875 517.40625 210.574219 Z M 497.539062 253.851562 L 504.324219 260.640625 C 505.945312 262.265625 508.578125 262.265625 510.203125 260.640625 L 510.226562 260.617188 L 526.535156 245.8125 C 528.230469 244.269531 528.355469 241.640625 526.8125 239.945312 C 525.269531 238.25 522.644531 238.125 520.949219 239.671875 L 507.40625 251.964844 L 503.417969 247.972656 C 501.792969 246.347656 499.160156 246.347656 497.539062 247.972656 C 495.914062 249.597656 495.914062 252.230469 497.539062 253.851562 Z M 512.109375 225.472656 C 498.445312 225.472656 487.367188 236.550781 487.367188 250.21875 C 487.367188 263.886719 498.445312 274.96875 512.109375 274.96875 C 525.773438 274.96875 536.851562 263.886719 536.851562 250.21875 C 536.851562 236.550781 525.773438 225.472656 512.109375 225.472656 Z M 504.789062 397.90625 C 508.632812 398.375 511.773438 397.273438 512.847656 393.269531 C 513.804688 389.703125 511.542969 386.371094 508.191406 385.183594 C 496.714844 383.074219 485.617188 379.0625 476.886719 375.90625 C 464.472656 371.417969 461.308594 370.34375 449.058594 377.4375 L 427.742188 389.78125 L 445.820312 421.738281 L 446.375 421.421875 C 447.363281 420.851562 448.484375 420.738281 449.503906 421.011719 L 499.601562 434.425781 C 506.78125 436.347656 510.816406 435.074219 517.152344 431.839844 L 585.921875 389.484375 C 587.941406 388.242188 588.929688 385.324219 588.632812 382.460938 C 588.390625 380.136719 587.273438 378.027344 585.136719 376.945312 C 581.660156 375.183594 575.570312 375.738281 566.085938 381.261719 L 528.03125 403.433594 C 524.933594 405.238281 521.746094 406.386719 518.4375 406.941406 C 508.929688 408.539062 494.707031 404.09375 486.175781 401.65625 C 483.457031 400.878906 480.695312 400.089844 478.015625 399.371094 C 475.800781 398.78125 474.484375 396.503906 475.074219 394.289062 C 475.667969 392.070312 477.945312 390.753906 480.160156 391.347656 C 488.355469 393.542969 496.484375 396.183594 504.789062 397.90625 Z M 408.707031 393.097656 C 406.71875 393.390625 405.34375 395.238281 405.636719 397.226562 C 405.925781 399.210938 407.773438 400.589844 409.761719 400.296875 C 411.746094 400.007812 413.121094 398.160156 412.832031 396.171875 C 412.542969 394.183594 410.695312 392.808594 408.707031 393.097656 Z M 408.707031 393.097656 " fill-opacity="1" fill-rule="evenodd"/></g></svg>