<svg xmlns="http://www.w3.org/2000/svg" xmlns:xlink="http://www.w3.org/1999/xlink" width="1366" zoomAndPan="magnify" viewBox="0 0 1024.5 660.749985" height="881" preserveAspectRatio="xMidYMid meet" version="1.0"><defs><clipPath id="445dfee2f4"><path d="M 410 108.9375 L 691 108.9375 L 691 279 L 410 279 Z M 410 108.9375 " clip-rule="nonzero"/></clipPath><clipPath id="9fa41008f6"><path d="M 332.183594 249 L 684 249 L 684 551.222656 L 332.183594 551.222656 Z M 332.183594 249 " clip-rule="nonzero"/></clipPath></defs><g clip-path="url(#445dfee2f4)"><path fill="#000000" d="M 681.097656 278.0625 C 678.441406 278.0625 675.796875 276.988281 673.867188 274.871094 C 652 250.898438 629.824219 224.949219 608.378906 199.859375 C 590.714844 179.191406 572.550781 157.941406 554.542969 137.773438 C 552.402344 135.375 548.640625 135.375 546.503906 137.773438 C 528.492188 157.941406 510.332031 179.191406 492.667969 199.859375 C 471.21875 224.949219 449.042969 250.898438 427.175781 274.871094 C 423.542969 278.859375 417.359375 279.148438 413.367188 275.515625 C 409.375 271.886719 409.085938 265.710938 412.722656 261.726562 C 434.378906 237.980469 456.449219 212.15625 477.796875 187.179688 C 499.246094 162.085938 521.425781 136.136719 543.292969 112.15625 C 545.144531 110.125 547.769531 108.96875 550.519531 108.96875 C 553.273438 108.96875 555.898438 110.125 557.75 112.15625 C 579.617188 136.136719 601.796875 162.085938 623.246094 187.179688 C 644.53125 212.082031 666.535156 237.832031 688.128906 261.515625 C 691.726562 265.464844 691.726562 271.632812 687.875 275.332031 C 685.972656 277.160156 683.53125 278.0625 681.097656 278.0625 Z M 681.097656 278.0625 " fill-opacity="1" fill-rule="nonzero"/></g><path fill="#000000" d="M 681.097656 342.625 C 678.441406 342.625 675.796875 341.550781 673.867188 339.4375 C 652 315.460938 629.820312 289.511719 608.375 264.417969 C 590.710938 243.753906 572.550781 222.503906 554.542969 202.335938 C 552.402344 199.941406 548.644531 199.941406 546.503906 202.335938 C 528.492188 222.503906 510.332031 243.753906 492.671875 264.417969 C 471.222656 289.511719 449.046875 315.460938 427.175781 339.4375 C 423.542969 343.425781 417.359375 343.710938 413.367188 340.082031 C 409.375 336.449219 409.085938 330.277344 412.722656 326.289062 C 434.378906 302.542969 456.453125 276.71875 477.800781 251.742188 C 499.246094 226.648438 521.425781 200.699219 543.292969 176.722656 C 545.144531 174.6875 547.769531 173.53125 550.519531 173.53125 C 553.273438 173.53125 555.898438 174.691406 557.75 176.722656 C 579.617188 200.699219 601.796875 226.648438 623.242188 251.742188 C 644.589844 276.71875 666.664062 302.542969 688.320312 326.289062 C 691.957031 330.277344 691.667969 336.449219 687.675781 340.082031 C 685.804688 341.785156 683.445312 342.625 681.097656 342.625 Z M 681.097656 342.625 " fill-opacity="1" fill-rule="nonzero"/><g clip-path="url(#9fa41008f6)"><path fill="#000000" d="M 455.425781 551.257812 C 436.570312 551.257812 414.980469 548.976562 393.363281 542.855469 C 351.851562 531.097656 335.117188 506.609375 334.421875 505.574219 C 332.296875 502.390625 332.230469 498.261719 334.25 495.011719 C 336.269531 491.761719 340.003906 489.992188 343.804688 490.476562 L 346.328125 490.800781 C 373.691406 494.332031 411.164062 499.167969 435.914062 488.269531 C 466.425781 474.832031 484.363281 457.308594 489.230469 436.191406 C 491.289062 427.261719 492.8125 414.621094 493.273438 403.6875 L 427.300781 403.691406 C 423.429688 403.691406 419.921875 401.410156 418.359375 397.875 C 416.792969 394.339844 417.464844 390.210938 420.070312 387.355469 L 543.296875 252.242188 C 545.148438 250.210938 547.769531 249.054688 550.523438 249.054688 C 553.273438 249.054688 555.898438 250.210938 557.75 252.242188 L 680.972656 387.355469 C 683.578125 390.210938 684.253906 394.335938 682.691406 397.871094 C 681.128906 401.40625 677.625 403.6875 673.757812 403.691406 L 602.257812 403.753906 C 600.898438 410.058594 598.960938 419.597656 597.519531 426.707031 C 595.265625 437.832031 593.960938 444.226562 593.410156 446.285156 C 586.996094 470.285156 575.265625 492.160156 559.480469 509.542969 C 542.3125 528.457031 520.769531 541.402344 497.179688 546.980469 C 486.652344 549.472656 472.109375 551.257812 455.425781 551.257812 Z M 373.28125 513.492188 C 380.039062 517.378906 388.453125 521.167969 398.699219 524.070312 C 435.824219 534.585938 472.523438 532.75 492.675781 527.984375 C 531.304688 518.847656 562.664062 485.613281 574.519531 441.25 C 574.945312 439.667969 576.757812 430.726562 578.359375 422.832031 C 579.765625 415.898438 581.359375 408.039062 582.628906 402.066406 C 583.328125 398.769531 583.871094 396.3125 584.289062 394.5625 C 584.550781 393.460938 584.761719 392.648438 584.949219 392.007812 C 587.101562 384.640625 593.363281 384.242188 594.597656 384.238281 C 594.605469 384.238281 594.613281 384.238281 594.625 384.238281 L 651.640625 384.1875 L 554.507812 277.6875 C 552.371094 275.34375 548.675781 275.34375 546.535156 277.6875 L 449.425781 384.164062 L 503.148438 384.160156 C 508.445312 384.160156 512.78125 388.375 512.921875 393.664062 C 513.296875 407.558594 511.347656 427.285156 508.285156 440.570312 C 501.960938 468.015625 480.265625 490.078125 443.800781 506.132812 C 423.105469 515.25 397.144531 515.480469 373.28125 513.492188 Z M 373.28125 513.492188 " fill-opacity="1" fill-rule="nonzero"/></g></svg>