<svg xmlns="http://www.w3.org/2000/svg" xmlns:xlink="http://www.w3.org/1999/xlink" width="1366" zoomAndPan="magnify" viewBox="0 0 1024.5 514.499985" height="686" preserveAspectRatio="xMidYMid meet" version="1.0"><defs><clipPath id="6875d584d7"><path d="M 437 183 L 586.8125 183 L 586.8125 330.558594 L 437 330.558594 Z M 437 183 " clip-rule="nonzero"/></clipPath><clipPath id="d1ff94f924"><path d="M 444.886719 183.441406 L 579.113281 183.441406 C 583.253906 183.441406 586.609375 186.792969 586.609375 190.933594 L 586.609375 323.066406 C 586.609375 327.207031 583.253906 330.558594 579.113281 330.558594 L 444.886719 330.558594 C 440.746094 330.558594 437.394531 327.207031 437.394531 323.066406 L 437.394531 190.933594 C 437.394531 186.792969 440.746094 183.441406 444.886719 183.441406 Z M 444.886719 183.441406 " clip-rule="nonzero"/></clipPath><clipPath id="dcdea02678"><path d="M 458.332031 203.332031 L 553 203.332031 L 553 298 L 458.332031 298 Z M 458.332031 203.332031 " clip-rule="nonzero"/></clipPath></defs><g clip-path="url(#6875d584d7)"><g clip-path="url(#d1ff94f924)"><path fill="#f4505d" d="M 437.394531 183.441406 L 586.8125 183.441406 L 586.8125 330.558594 L 437.394531 330.558594 Z M 437.394531 183.441406 " fill-opacity="1" fill-rule="nonzero"/></g></g><g clip-path="url(#dcdea02678)"><path fill="#ffffff" d="M 469.402344 280.472656 C 469.484375 280.558594 469.652344 280.726562 469.738281 280.808594 C 478.375 290.785156 491.117188 297.160156 505.289062 297.160156 C 513.003906 297.160156 520.382812 295.230469 526.835938 291.878906 C 525.832031 292.042969 524.824219 292.042969 523.734375 292.042969 C 522.140625 292.042969 520.464844 291.878906 518.871094 291.542969 C 514.59375 292.96875 510.066406 293.722656 505.289062 293.722656 C 494.554688 293.722656 484.660156 289.78125 477.117188 283.324219 C 477.703125 283.15625 478.289062 282.820312 478.707031 282.402344 C 481.140625 279.96875 481.054688 276.617188 480.890625 273.597656 C 480.722656 270.160156 480.804688 267.980469 482.734375 266.640625 C 484.996094 265.046875 486.675781 262.699219 487.261719 260.183594 C 487.597656 258.671875 487.429688 257.164062 487.175781 255.90625 C 487.007812 254.566406 486.84375 253.476562 487.175781 252.550781 C 487.34375 252.21875 487.597656 251.882812 487.847656 251.460938 C 488.183594 250.960938 488.6875 250.289062 488.9375 249.535156 C 489.777344 247.1875 488.855469 244.585938 486.421875 242.742188 C 485.417969 241.902344 484.914062 240.476562 485.332031 239.136719 L 485.332031 239.054688 C 485.667969 238.046875 486.003906 236.789062 485.5 235.363281 C 483.992188 231.507812 481.140625 229.578125 477.285156 229.914062 C 476.863281 229.996094 476.027344 228.488281 475.523438 227.734375 C 474.515625 226.140625 473.175781 224.042969 471.078125 223.121094 C 475.773438 217.335938 481.8125 212.722656 488.6875 209.875 C 489.359375 214.402344 493.382812 214.484375 495.898438 214.484375 C 497.238281 214.484375 498.582031 214.484375 499.335938 214.988281 C 499.921875 215.324219 500.339844 215.742188 500.507812 216.246094 C 501.515625 215.742188 502.605469 215.40625 503.695312 215.238281 C 503.277344 214.066406 502.4375 212.890625 500.929688 212.054688 C 499.417969 211.214844 497.574219 211.214844 495.898438 211.132812 C 492.628906 211.132812 491.957031 210.878906 491.957031 208.699219 C 496.148438 207.359375 500.675781 206.605469 505.289062 206.605469 C 525.664062 206.605469 542.769531 220.605469 547.546875 239.472656 C 547.296875 239.304688 547.042969 239.136719 546.792969 239.054688 C 545.367188 238.128906 543.523438 236.957031 541.425781 237.960938 C 540.421875 238.464844 539.832031 239.21875 539.414062 239.890625 C 539.164062 240.226562 538.996094 240.476562 538.828125 240.644531 C 538.15625 241.234375 536.816406 240.980469 535.976562 240.144531 C 534.96875 239.054688 534.550781 237.375 534.300781 235.78125 C 534.046875 234.355469 533.714844 232.847656 532.789062 231.421875 C 531.867188 230.25 530.441406 229.746094 529.183594 229.242188 C 528.683594 229.074219 527.761719 228.738281 527.59375 228.488281 C 527.339844 228.238281 527.257812 227.3125 527.257812 226.726562 C 527.089844 225.636719 526.921875 224.210938 525.832031 223.375 C 524.15625 222.03125 521.640625 221.949219 519.125 222.953125 C 518.957031 223.039062 518.703125 223.121094 518.535156 223.207031 C 518.957031 224.210938 519.292969 225.386719 519.457031 226.476562 C 519.792969 226.308594 520.128906 226.140625 520.464844 225.972656 C 521.472656 225.554688 522.898438 225.300781 523.734375 225.890625 C 523.820312 226.140625 523.902344 226.726562 523.902344 227.144531 C 523.988281 228.238281 524.15625 229.660156 525.078125 230.75 C 525.832031 231.675781 527.003906 232.09375 528.179688 232.511719 C 528.933594 232.765625 529.855469 233.101562 530.191406 233.519531 C 530.777344 234.273438 530.945312 235.363281 531.113281 236.371094 C 531.449219 238.382812 532.035156 240.730469 533.714844 242.492188 C 534.636719 243.582031 536.3125 244.335938 537.90625 244.335938 C 538.996094 244.335938 540.167969 244 541.007812 243.160156 C 541.511719 242.742188 541.847656 242.238281 542.179688 241.820312 C 542.433594 241.484375 542.683594 241.066406 542.9375 240.980469 C 543.355469 240.8125 544.195312 241.402344 545.03125 241.902344 C 545.953125 242.492188 547.128906 243.246094 548.386719 243.414062 C 548.722656 245.675781 548.972656 247.941406 548.972656 250.289062 C 548.972656 254.3125 548.386719 258.253906 547.378906 261.941406 C 548.050781 264.542969 548.21875 267.226562 548.050781 269.910156 C 550.816406 263.957031 552.328125 257.332031 552.328125 250.371094 C 552.328125 224.464844 531.28125 203.417969 505.371094 203.417969 C 479.464844 203.417969 458.332031 224.296875 458.332031 250.203125 C 458.332031 261.609375 462.441406 272.089844 469.234375 280.222656 C 469.234375 280.304688 469.316406 280.390625 469.402344 280.472656 Z M 469.066406 226.054688 C 470.574219 226.222656 471.582031 227.480469 472.839844 229.496094 C 474.011719 231.339844 475.355469 233.433594 477.703125 233.183594 C 479.128906 233.015625 481.222656 233.265625 482.480469 236.453125 C 482.566406 236.707031 482.398438 237.460938 482.230469 237.960938 L 482.230469 238.128906 C 481.390625 240.8125 482.3125 243.75 484.410156 245.425781 C 485.332031 246.179688 486.253906 247.355469 485.835938 248.445312 C 485.667969 248.777344 485.417969 249.199219 485.164062 249.617188 C 484.828125 250.121094 484.496094 250.625 484.242188 251.210938 C 483.488281 252.972656 483.738281 254.816406 483.992188 256.410156 C 484.160156 257.5 484.328125 258.589844 484.074219 259.429688 C 483.65625 261.105469 482.480469 262.78125 480.890625 263.957031 C 477.367188 266.472656 477.535156 270.496094 477.617188 273.851562 C 477.703125 276.53125 477.785156 278.796875 476.445312 280.136719 C 476.359375 280.222656 476.109375 280.390625 475.605469 280.390625 C 474.601562 280.390625 473.34375 279.636719 472.253906 278.628906 C 465.628906 270.914062 461.6875 261.019531 461.6875 250.203125 C 461.6875 241.234375 464.371094 232.933594 469.066406 226.054688 Z M 469.066406 226.054688 " fill-opacity="1" fill-rule="nonzero"/></g><path fill="#ffffff" d="M 522.140625 268.902344 C 522.8125 268.230469 523.0625 267.476562 523.316406 266.890625 C 523.398438 266.554688 523.566406 266.136719 523.734375 266.050781 C 523.902344 265.882812 524.488281 265.882812 524.992188 265.800781 C 526 265.714844 527.425781 265.632812 528.429688 264.457031 C 529.015625 263.789062 529.269531 262.949219 529.351562 262.363281 C 529.941406 260.015625 530.441406 257.5 530.109375 255.152344 C 528.933594 254.566406 527.675781 254.144531 526.417969 253.894531 C 527.257812 256.074219 526.753906 258.925781 526.082031 261.609375 C 526 261.777344 525.914062 262.195312 525.832031 262.277344 C 525.746094 262.363281 524.992188 262.445312 524.65625 262.445312 C 523.734375 262.53125 522.476562 262.613281 521.554688 263.453125 C 520.800781 264.125 520.464844 264.960938 520.214844 265.632812 C 520.046875 265.96875 519.960938 266.304688 519.792969 266.472656 C 519.625 266.640625 518.871094 266.640625 518.285156 266.304688 C 517.613281 265.96875 517.027344 265.464844 516.355469 264.878906 C 515.015625 263.703125 513.421875 262.363281 511.242188 262.363281 C 511.15625 262.363281 511.15625 262.363281 511.074219 262.363281 C 510.90625 262.363281 510.738281 262.363281 510.570312 262.363281 C 510.066406 263.453125 509.816406 264.625 509.648438 265.800781 C 509.898438 265.800781 510.066406 265.714844 510.234375 265.714844 C 510.570312 265.714844 510.824219 265.632812 511.074219 265.632812 C 512.082031 265.632812 513.003906 266.472656 514.09375 267.394531 C 514.847656 268.0625 515.601562 268.734375 516.609375 269.238281 C 517.445312 269.65625 518.367188 269.992188 519.292969 269.992188 C 520.382812 269.910156 521.386719 269.65625 522.140625 268.902344 Z M 522.140625 268.902344 " fill-opacity="1" fill-rule="nonzero"/><path fill="#ffffff" d="M 506.128906 250.203125 C 507.550781 250.203125 508.726562 249.449219 509.3125 248.191406 C 513.839844 237.796875 516.1875 231.171875 516.1875 228.402344 C 516.1875 222.871094 511.660156 218.34375 506.128906 218.34375 C 500.59375 218.34375 496.066406 222.871094 496.066406 228.402344 C 496.066406 231.171875 498.414062 237.796875 502.941406 248.109375 C 503.527344 249.449219 504.703125 250.203125 506.128906 250.203125 Z M 506.128906 221.695312 C 509.816406 221.695312 512.835938 224.714844 512.835938 228.402344 C 512.835938 230.585938 510.402344 237.460938 506.210938 246.765625 C 506.210938 246.851562 506.042969 246.851562 505.960938 246.765625 C 501.851562 237.460938 499.417969 230.585938 499.417969 228.402344 C 499.417969 224.714844 502.4375 221.695312 506.128906 221.695312 Z M 506.128906 221.695312 " fill-opacity="1" fill-rule="nonzero"/><path fill="#ffffff" d="M 511.15625 228.402344 C 511.15625 225.636719 508.894531 223.375 506.128906 223.375 C 503.359375 223.375 501.097656 225.636719 501.097656 228.402344 C 501.097656 231.171875 503.359375 233.433594 506.128906 233.433594 C 508.894531 233.433594 511.15625 231.171875 511.15625 228.402344 Z M 504.449219 228.402344 C 504.449219 227.480469 505.203125 226.726562 506.128906 226.726562 C 507.050781 226.726562 507.804688 227.480469 507.804688 228.402344 C 507.804688 229.328125 507.050781 230.082031 506.128906 230.082031 C 505.203125 230.082031 504.449219 229.328125 504.449219 228.402344 Z M 504.449219 228.402344 " fill-opacity="1" fill-rule="nonzero"/><path fill="#ffffff" d="M 541.425781 279.046875 C 546.625 270.914062 545.621094 260.015625 538.574219 252.972656 C 530.441406 244.839844 517.109375 244.839844 508.894531 252.972656 C 500.761719 261.105469 500.761719 274.4375 508.894531 282.652344 C 513.003906 286.761719 518.367188 288.773438 523.734375 288.773438 C 527.257812 288.773438 530.777344 287.851562 533.964844 286.089844 L 557.441406 309.570312 C 558.027344 310.15625 558.867188 310.574219 559.789062 310.574219 C 559.789062 310.574219 559.789062 310.574219 559.875 310.574219 C 560.796875 310.574219 561.632812 310.238281 562.222656 309.570312 L 564.652344 307.136719 C 565.324219 306.464844 565.660156 305.710938 565.660156 304.789062 C 565.660156 303.867188 565.324219 303.027344 564.652344 302.441406 Z M 511.324219 280.222656 C 504.449219 273.347656 504.449219 262.195312 511.324219 255.320312 C 518.199219 248.445312 529.351562 248.445312 536.226562 255.320312 C 543.105469 262.195312 543.105469 273.347656 536.226562 280.222656 C 529.351562 287.097656 518.117188 287.097656 511.324219 280.222656 Z M 562.304688 304.707031 L 559.875 307.222656 L 536.898438 284.332031 L 538.574219 282.652344 L 539.414062 281.816406 Z M 562.304688 304.707031 " fill-opacity="1" fill-rule="nonzero"/><path fill="#ffffff" d="M 533.628906 274.855469 C 533.378906 272.925781 531.699219 272.675781 531.03125 272.507812 C 530.863281 272.507812 530.609375 272.425781 530.609375 272.425781 C 530.527344 272.339844 530.359375 271.921875 530.191406 271.585938 C 529.855469 270.746094 528.683594 268.0625 526.082031 269.070312 C 524.910156 269.488281 524.320312 270.410156 523.988281 271 C 523.652344 271.503906 523.566406 271.585938 523.316406 271.667969 C 523.148438 271.667969 522.898438 271.753906 522.5625 271.753906 C 521.472656 271.835938 519.710938 271.921875 518.703125 273.597656 C 518.367188 274.183594 518.367188 274.855469 518.367188 275.695312 C 518.367188 276.199219 518.367188 277.371094 518.199219 277.707031 C 517.699219 278.714844 517.277344 279.550781 517.027344 280.390625 C 520.464844 282.234375 524.488281 282.484375 528.09375 281.394531 C 528.261719 281.144531 528.515625 280.894531 528.683594 280.894531 C 528.765625 280.894531 528.933594 280.808594 529.101562 280.808594 C 529.269531 280.808594 529.4375 280.726562 529.6875 280.726562 C 529.941406 280.640625 530.191406 280.558594 530.441406 280.472656 C 530.863281 280.304688 531.199219 280.054688 531.53125 279.804688 C 533.042969 278.628906 533.878906 276.699219 533.628906 274.855469 Z M 528.933594 277.371094 C 528.851562 277.371094 528.683594 277.371094 528.597656 277.457031 C 528.261719 277.539062 527.925781 277.539062 527.507812 277.707031 C 526.335938 278.125 525.578125 279.132812 525.078125 279.886719 C 524.824219 280.222656 524.65625 280.558594 524.40625 280.726562 C 523.652344 281.394531 522.226562 281.5625 520.800781 281.5625 L 520.632812 281.5625 C 520.550781 281.5625 520.382812 281.5625 520.214844 281.5625 C 520.214844 281.3125 520.382812 280.640625 521.050781 279.71875 C 521.804688 278.546875 521.804688 276.953125 521.804688 275.777344 C 521.804688 275.609375 521.804688 275.527344 521.804688 275.359375 C 522.058594 275.273438 522.476562 275.273438 522.8125 275.191406 C 523.316406 275.191406 523.820312 275.109375 524.320312 274.941406 C 525.832031 274.519531 526.417969 273.515625 526.835938 272.84375 C 526.921875 272.757812 526.921875 272.675781 527.003906 272.675781 C 527.089844 272.757812 527.089844 272.925781 527.171875 273.011719 C 527.425781 273.683594 527.757812 274.4375 528.347656 274.941406 C 529.015625 275.609375 529.773438 275.777344 530.359375 275.863281 C 530.191406 276.53125 529.605469 277.203125 528.933594 277.371094 Z M 528.933594 277.371094 " fill-opacity="1" fill-rule="nonzero"/><path fill="#ffffff" d="M 521.386719 242.660156 C 521.640625 242.910156 521.890625 243.160156 522.058594 243.414062 C 522.058594 243.414062 522.140625 243.496094 522.140625 243.496094 C 524.824219 243.328125 527.59375 243.582031 530.191406 244.335938 C 529.941406 243.664062 529.519531 243.078125 529.015625 242.574219 C 527.925781 241.566406 526.417969 241.234375 524.992188 241.652344 C 524.824219 241.484375 524.65625 241.316406 524.574219 241.148438 C 524.320312 240.898438 524.070312 240.5625 523.820312 240.3125 C 522.5625 239.054688 520.296875 238.464844 518.535156 238.96875 C 517.78125 239.21875 517.195312 239.304688 516.609375 239.386719 C 516.1875 240.394531 515.769531 241.566406 515.265625 242.824219 C 516.441406 242.824219 517.867188 242.742188 519.542969 242.238281 C 520.046875 242.070312 520.96875 242.324219 521.386719 242.660156 Z M 521.386719 242.660156 " fill-opacity="1" fill-rule="nonzero"/><path fill="#ffffff" d="M 493.800781 248.191406 C 494.808594 250.457031 496.652344 252.21875 498.582031 252.804688 C 498.832031 252.886719 499 252.886719 499.082031 254.398438 C 499.167969 255.234375 499.167969 256.242188 499.671875 257.164062 C 500.089844 257.917969 500.59375 258.421875 501.097656 258.839844 C 501.515625 257.75 502.019531 256.660156 502.605469 255.65625 C 502.605469 255.65625 502.605469 255.65625 502.605469 255.570312 C 502.4375 255.320312 502.4375 254.648438 502.355469 254.144531 C 502.355469 253.640625 502.269531 252.886719 502.101562 252.21875 C 501.179688 251.546875 500.425781 250.707031 499.921875 249.703125 C 499.753906 249.617188 499.585938 249.535156 499.417969 249.535156 C 498.582031 249.28125 497.492188 248.359375 496.820312 246.851562 C 496.402344 245.929688 495.898438 244.167969 496.652344 241.988281 C 495.058594 237.960938 494.054688 235.113281 493.464844 233.183594 C 492.710938 234.523438 493.214844 236.117188 493.632812 237.460938 C 493.800781 238.046875 494.136719 239.136719 494.054688 239.472656 C 492.710938 242.324219 492.542969 245.425781 493.800781 248.191406 Z M 493.800781 248.191406 " fill-opacity="1" fill-rule="nonzero"/></svg>