<svg xmlns="http://www.w3.org/2000/svg" xmlns:xlink="http://www.w3.org/1999/xlink" width="1366" zoomAndPan="magnify" viewBox="0 0 1024.5 866.999996" height="1156" preserveAspectRatio="xMidYMid meet" version="1.0"><defs><clipPath id="3165a3f92b"><path d="M 371 294.550781 L 650 294.550781 L 650 572.664062 L 371 572.664062 Z M 371 294.550781 " clip-rule="nonzero"/></clipPath></defs><g clip-path="url(#3165a3f92b)"><path fill="#969297" d="M 414.734375 294.550781 C 390.835938 294.550781 371.503906 313.878906 371.503906 337.777344 L 371.503906 374.828125 C 371.503906 395.269531 388.117188 411.882812 408.558594 411.882812 L 498.101562 411.882812 C 503.226562 411.882812 507.363281 407.742188 507.363281 402.617188 C 507.363281 397.492188 503.226562 393.355469 498.101562 393.355469 L 414.734375 393.355469 C 411.335938 393.355469 408.558594 390.578125 408.558594 387.179688 L 408.558594 319.25 C 408.558594 315.855469 411.335938 313.074219 414.734375 313.074219 L 451.785156 313.074219 C 458.824219 313.074219 464.445312 307.210938 464.136719 300.109375 C 463.949219 296.960938 461.109375 294.550781 457.960938 294.550781 Z M 470.3125 319.25 L 470.3125 337.777344 L 504.277344 337.777344 C 509.402344 337.777344 513.539062 333.640625 513.539062 328.515625 C 513.539062 323.386719 509.402344 319.25 504.277344 319.25 Z M 427.082031 331.601562 C 426.675781 331.597656 426.269531 331.628906 425.867188 331.707031 C 425.464844 331.78125 425.074219 331.894531 424.691406 332.046875 C 424.3125 332.199219 423.953125 332.386719 423.609375 332.613281 C 423.269531 332.835938 422.953125 333.09375 422.660156 333.378906 C 422.367188 333.667969 422.109375 333.980469 421.878906 334.320312 C 421.648438 334.65625 421.457031 335.015625 421.296875 335.394531 C 421.140625 335.769531 421.019531 336.160156 420.941406 336.5625 C 420.859375 336.960938 420.820312 337.367188 420.820312 337.777344 C 420.820312 338.1875 420.859375 338.589844 420.941406 338.992188 C 421.019531 339.394531 421.140625 339.785156 421.296875 340.160156 C 421.457031 340.539062 421.648438 340.898438 421.878906 341.234375 C 422.109375 341.574219 422.367188 341.886719 422.660156 342.175781 C 422.953125 342.460938 423.269531 342.71875 423.609375 342.941406 C 423.953125 343.167969 424.3125 343.355469 424.691406 343.507812 C 425.074219 343.660156 425.464844 343.773438 425.867188 343.847656 C 426.269531 343.921875 426.675781 343.957031 427.082031 343.953125 L 451.785156 343.953125 C 452.195312 343.957031 452.601562 343.921875 453.003906 343.847656 C 453.40625 343.773438 453.796875 343.660156 454.175781 343.507812 C 454.554688 343.355469 454.914062 343.167969 455.257812 342.941406 C 455.601562 342.71875 455.917969 342.460938 456.207031 342.175781 C 456.5 341.886719 456.761719 341.574219 456.988281 341.234375 C 457.21875 340.898438 457.410156 340.539062 457.570312 340.160156 C 457.726562 339.785156 457.847656 339.394531 457.925781 338.992188 C 458.007812 338.589844 458.046875 338.1875 458.046875 337.777344 C 458.046875 337.367188 458.007812 336.960938 457.925781 336.5625 C 457.847656 336.160156 457.726562 335.769531 457.570312 335.394531 C 457.410156 335.015625 457.21875 334.65625 456.988281 334.320312 C 456.761719 333.980469 456.5 333.667969 456.207031 333.378906 C 455.917969 333.09375 455.601562 332.835938 455.257812 332.613281 C 454.914062 332.386719 454.554688 332.199219 454.175781 332.046875 C 453.796875 331.894531 453.40625 331.78125 453.003906 331.707031 C 452.601562 331.628906 452.195312 331.597656 451.785156 331.601562 Z M 470.3125 343.953125 L 470.3125 362.480469 L 510.449219 362.480469 C 515.578125 362.480469 519.714844 358.339844 519.714844 353.214844 C 519.714844 348.089844 515.578125 343.953125 510.449219 343.953125 Z M 529.964844 343.953125 C 531.324219 346.730469 532.066406 349.882812 532.066406 353.214844 C 532.066406 354.265625 532.007812 355.316406 531.824219 356.304688 L 599.992188 356.304688 L 599.992188 420.457031 L 564.726562 455.351562 C 564.144531 455.183594 563.546875 455.101562 562.941406 455.109375 L 451.785156 455.109375 C 451.375 455.101562 450.96875 455.136719 450.566406 455.210938 C 450.164062 455.289062 449.773438 455.402344 449.394531 455.554688 C 449.015625 455.707031 448.652344 455.894531 448.3125 456.121094 C 447.96875 456.34375 447.652344 456.597656 447.363281 456.886719 C 447.070312 457.175781 446.808594 457.488281 446.582031 457.828125 C 446.351562 458.164062 446.15625 458.523438 446 458.902344 C 445.84375 459.277344 445.722656 459.667969 445.640625 460.070312 C 445.5625 460.46875 445.523438 460.875 445.523438 461.285156 C 445.523438 461.695312 445.5625 462.097656 445.640625 462.5 C 445.722656 462.902344 445.84375 463.289062 446 463.667969 C 446.15625 464.046875 446.351562 464.402344 446.582031 464.742188 C 446.808594 465.082031 447.070312 465.394531 447.363281 465.683594 C 447.652344 465.96875 447.96875 466.226562 448.3125 466.449219 C 448.652344 466.675781 449.015625 466.863281 449.394531 467.015625 C 449.773438 467.167969 450.164062 467.28125 450.566406 467.355469 C 450.96875 467.429688 451.375 467.464844 451.785156 467.460938 L 552.496094 467.460938 L 538.214844 481.597656 C 537.457031 482.347656 536.914062 483.273438 536.625 484.296875 L 536.140625 485.984375 L 451.785156 485.984375 C 451.375 485.980469 450.96875 486.015625 450.566406 486.089844 C 450.164062 486.164062 449.773438 486.277344 449.394531 486.429688 C 449.015625 486.582031 448.652344 486.773438 448.3125 486.996094 C 447.96875 487.21875 447.652344 487.476562 447.359375 487.761719 C 447.070312 488.050781 446.808594 488.363281 446.582031 488.703125 C 446.351562 489.042969 446.15625 489.398438 446 489.777344 C 445.839844 490.15625 445.722656 490.542969 445.640625 490.945312 C 445.5625 491.347656 445.519531 491.753906 445.519531 492.160156 C 445.519531 492.570312 445.5625 492.976562 445.640625 493.378906 C 445.722656 493.777344 445.839844 494.167969 446 494.546875 C 446.15625 494.921875 446.351562 495.28125 446.582031 495.621094 C 446.808594 495.960938 447.070312 496.273438 447.359375 496.558594 C 447.652344 496.847656 447.96875 497.101562 448.3125 497.328125 C 448.652344 497.550781 449.015625 497.738281 449.394531 497.890625 C 449.773438 498.042969 450.164062 498.160156 450.566406 498.234375 C 450.96875 498.308594 451.375 498.34375 451.785156 498.335938 L 532.644531 498.335938 L 526.117188 521.351562 C 525.511719 523.488281 526.105469 525.789062 527.664062 527.367188 C 529.21875 528.957031 531.496094 529.578125 533.65625 529.007812 L 570.710938 519.117188 C 571.746094 518.839844 572.679688 518.304688 573.445312 517.550781 L 599.992188 491.449219 L 599.992188 560.089844 L 414.734375 560.089844 L 414.734375 424.230469 L 408.558594 424.230469 C 406.457031 424.230469 404.417969 424.105469 402.382812 423.859375 L 402.382812 566.265625 C 402.382812 569.664062 405.160156 572.441406 408.558594 572.441406 L 606.167969 572.441406 C 609.566406 572.441406 612.34375 569.664062 612.34375 566.265625 L 612.34375 479.304688 L 642.605469 449.550781 C 651.25 439.667969 652.488281 423.621094 642.605469 413.738281 C 633.910156 405.042969 621.855469 404.082031 612.34375 409.589844 L 612.34375 350.128906 C 612.34375 346.730469 609.566406 343.953125 606.167969 343.953125 Z M 427.082031 356.304688 C 426.675781 356.296875 426.269531 356.332031 425.867188 356.40625 C 425.464844 356.480469 425.074219 356.59375 424.691406 356.746094 C 424.3125 356.902344 423.953125 357.089844 423.609375 357.3125 C 423.269531 357.539062 422.953125 357.792969 422.660156 358.082031 C 422.367188 358.367188 422.109375 358.679688 421.878906 359.019531 C 421.648438 359.359375 421.457031 359.71875 421.296875 360.09375 C 421.140625 360.472656 421.019531 360.863281 420.941406 361.261719 C 420.859375 361.664062 420.820312 362.070312 420.820312 362.480469 C 420.820312 362.886719 420.859375 363.292969 420.941406 363.695312 C 421.019531 364.09375 421.140625 364.484375 421.296875 364.863281 C 421.457031 365.238281 421.648438 365.597656 421.878906 365.9375 C 422.109375 366.277344 422.367188 366.589844 422.660156 366.875 C 422.953125 367.164062 423.269531 367.417969 423.609375 367.644531 C 423.953125 367.867188 424.3125 368.058594 424.691406 368.210938 C 425.074219 368.363281 425.464844 368.476562 425.867188 368.550781 C 426.269531 368.625 426.675781 368.660156 427.082031 368.652344 L 445.609375 368.652344 C 446.019531 368.660156 446.425781 368.625 446.828125 368.550781 C 447.230469 368.476562 447.621094 368.363281 448 368.210938 C 448.378906 368.058594 448.742188 367.867188 449.082031 367.644531 C 449.425781 367.417969 449.742188 367.164062 450.03125 366.875 C 450.324219 366.589844 450.585938 366.277344 450.8125 365.9375 C 451.042969 365.597656 451.238281 365.238281 451.394531 364.863281 C 451.550781 364.484375 451.671875 364.09375 451.753906 363.695312 C 451.832031 363.292969 451.871094 362.886719 451.871094 362.480469 C 451.871094 362.070312 451.832031 361.664062 451.753906 361.261719 C 451.671875 360.863281 451.550781 360.472656 451.394531 360.09375 C 451.238281 359.71875 451.042969 359.359375 450.8125 359.019531 C 450.585938 358.679688 450.324219 358.367188 450.03125 358.082031 C 449.742188 357.792969 449.425781 357.539062 449.082031 357.3125 C 448.742188 357.089844 448.378906 356.902344 448 356.746094 C 447.621094 356.59375 447.230469 356.480469 446.828125 356.40625 C 446.425781 356.332031 446.019531 356.296875 445.609375 356.304688 Z M 470.3125 368.652344 L 470.3125 387.179688 L 504.277344 387.179688 C 509.402344 387.179688 513.539062 383.042969 513.539062 377.917969 C 513.539062 372.792969 509.402344 368.652344 504.277344 368.652344 Z M 519.714844 393.355469 C 519.589844 393.355469 519.402344 393.355469 519.28125 393.414062 C 518.910156 393.785156 518.542969 394.15625 518.109375 394.464844 C 519.160156 396.996094 519.714844 399.714844 519.714844 402.617188 C 519.714844 403.667969 519.65625 404.71875 519.472656 405.707031 L 562.941406 405.707031 C 566.339844 405.707031 569.117188 402.925781 569.117188 399.53125 C 569.117188 396.132812 566.339844 393.355469 562.941406 393.355469 Z M 624.753906 418.441406 C 628.085938 418.441406 631.238281 419.835938 633.875 422.472656 C 638.886719 427.480469 637.757812 436.054688 633.574219 441.117188 L 615.480469 422.507812 C 618.125 419.871094 621.394531 418.441406 624.753906 418.441406 Z M 451.785156 424.230469 C 451.375 424.226562 450.96875 424.261719 450.566406 424.335938 C 450.164062 424.410156 449.773438 424.523438 449.394531 424.675781 C 449.015625 424.828125 448.652344 425.019531 448.3125 425.242188 C 447.96875 425.464844 447.652344 425.722656 447.363281 426.011719 C 447.070312 426.296875 446.808594 426.609375 446.582031 426.949219 C 446.351562 427.289062 446.15625 427.648438 446 428.023438 C 445.84375 428.402344 445.722656 428.789062 445.640625 429.191406 C 445.5625 429.59375 445.523438 430 445.523438 430.40625 C 445.523438 430.816406 445.5625 431.222656 445.640625 431.625 C 445.722656 432.023438 445.84375 432.414062 446 432.792969 C 446.15625 433.167969 446.351562 433.527344 446.582031 433.867188 C 446.808594 434.207031 447.070312 434.519531 447.363281 434.804688 C 447.652344 435.09375 447.96875 435.347656 448.3125 435.574219 C 448.652344 435.796875 449.015625 435.984375 449.394531 436.136719 C 449.773438 436.289062 450.164062 436.40625 450.566406 436.480469 C 450.96875 436.554688 451.375 436.589844 451.785156 436.582031 L 562.941406 436.582031 C 563.351562 436.589844 563.757812 436.554688 564.160156 436.480469 C 564.5625 436.40625 564.953125 436.289062 565.332031 436.136719 C 565.710938 435.984375 566.074219 435.796875 566.414062 435.574219 C 566.757812 435.347656 567.074219 435.09375 567.363281 434.804688 C 567.65625 434.519531 567.917969 434.207031 568.144531 433.867188 C 568.375 433.527344 568.570312 433.167969 568.726562 432.792969 C 568.882812 432.414062 569.003906 432.023438 569.085938 431.625 C 569.164062 431.222656 569.203125 430.816406 569.203125 430.40625 C 569.203125 430 569.164062 429.59375 569.085938 429.191406 C 569.003906 428.789062 568.882812 428.402344 568.726562 428.023438 C 568.570312 427.648438 568.375 427.289062 568.144531 426.949219 C 567.917969 426.609375 567.65625 426.296875 567.363281 426.011719 C 567.074219 425.722656 566.757812 425.464844 566.414062 425.242188 C 566.074219 425.019531 565.710938 424.828125 565.332031 424.675781 C 564.953125 424.523438 564.5625 424.410156 564.160156 424.335938 C 563.757812 424.261719 563.351562 424.226562 562.941406 424.230469 Z M 548.070312 489.21875 L 565.945312 507.613281 L 540.964844 514.269531 Z M 451.785156 516.863281 C 451.375 516.855469 450.96875 516.890625 450.566406 516.964844 C 450.164062 517.042969 449.773438 517.15625 449.394531 517.308594 C 449.015625 517.460938 448.652344 517.648438 448.3125 517.871094 C 447.96875 518.097656 447.652344 518.351562 447.359375 518.640625 C 447.070312 518.925781 446.808594 519.242188 446.582031 519.578125 C 446.351562 519.917969 446.15625 520.277344 446 520.65625 C 445.839844 521.03125 445.722656 521.421875 445.640625 521.824219 C 445.5625 522.222656 445.519531 522.628906 445.519531 523.039062 C 445.519531 523.449219 445.5625 523.851562 445.640625 524.253906 C 445.722656 524.65625 445.839844 525.042969 446 525.421875 C 446.15625 525.800781 446.351562 526.15625 446.582031 526.496094 C 446.808594 526.835938 447.070312 527.148438 447.359375 527.4375 C 447.652344 527.722656 447.96875 527.980469 448.3125 528.203125 C 448.652344 528.429688 449.015625 528.617188 449.394531 528.769531 C 449.773438 528.921875 450.164062 529.035156 450.566406 529.109375 C 450.96875 529.183594 451.375 529.21875 451.785156 529.214844 L 507.363281 529.214844 C 507.773438 529.21875 508.179688 529.183594 508.582031 529.109375 C 508.984375 529.035156 509.375 528.921875 509.753906 528.769531 C 510.132812 528.617188 510.496094 528.429688 510.835938 528.203125 C 511.179688 527.980469 511.496094 527.722656 511.785156 527.4375 C 512.078125 527.148438 512.339844 526.835938 512.566406 526.496094 C 512.796875 526.15625 512.992188 525.800781 513.148438 525.421875 C 513.304688 525.042969 513.425781 524.65625 513.507812 524.253906 C 513.585938 523.851562 513.628906 523.449219 513.628906 523.039062 C 513.628906 522.628906 513.585938 522.222656 513.507812 521.824219 C 513.425781 521.421875 513.304688 521.03125 513.148438 520.65625 C 512.992188 520.277344 512.796875 519.917969 512.566406 519.578125 C 512.339844 519.242188 512.078125 518.925781 511.785156 518.640625 C 511.496094 518.351562 511.179688 518.097656 510.835938 517.871094 C 510.496094 517.648438 510.132812 517.460938 509.753906 517.308594 C 509.375 517.15625 508.984375 517.042969 508.582031 516.964844 C 508.179688 516.890625 507.773438 516.855469 507.363281 516.863281 Z M 451.785156 516.863281 " fill-opacity="1" fill-rule="nonzero"/></g></svg>