<svg xmlns="http://www.w3.org/2000/svg" xmlns:xlink="http://www.w3.org/1999/xlink" width="1366" zoomAndPan="magnify" viewBox="0 0 1024.5 866.999996" height="1156" preserveAspectRatio="xMidYMid meet" version="1.0"><defs><clipPath id="a90165c57b"><path d="M 372 322 L 664 322 L 664 614.566406 L 372 614.566406 Z M 372 322 " clip-rule="nonzero"/></clipPath><clipPath id="fd208527c7"><path d="M 449 252.492188 L 687.476562 252.492188 L 687.476562 564 L 449 564 Z M 449 252.492188 " clip-rule="nonzero"/></clipPath></defs><g clip-path="url(#a90165c57b)"><path fill="#969297" d="M 658.378906 584.351562 L 563.148438 489.125 C 575.472656 471.882812 582.753906 450.796875 582.753906 428.03125 C 582.753906 369.941406 535.496094 322.675781 477.40625 322.675781 C 419.316406 322.675781 372.050781 369.941406 372.050781 428.03125 C 372.050781 486.121094 419.3125 533.382812 477.402344 533.382812 C 500.167969 533.382812 521.253906 526.101562 538.5 513.777344 L 633.722656 609 C 637.125 612.402344 641.589844 614.109375 646.046875 614.109375 C 650.507812 614.109375 654.976562 612.402344 658.378906 609 C 665.179688 602.191406 665.179688 591.160156 658.378906 584.351562 Z M 381.347656 428.03125 C 381.347656 374.980469 424.347656 331.976562 477.402344 331.976562 C 530.453125 331.976562 573.457031 374.980469 573.457031 428.03125 C 573.457031 481.082031 530.453125 524.085938 477.402344 524.085938 C 424.347656 524.085938 381.347656 481.082031 381.347656 428.03125 Z M 381.347656 428.03125 " fill-opacity="1" fill-rule="nonzero"/></g><path fill="#969297" d="M 501.597656 526.136719 C 502.558594 531.878906 507.714844 536.050781 513.628906 535.589844 C 519.886719 535.101562 524.550781 529.636719 524.0625 523.382812 L 523.632812 517.863281 C 516.710938 521.433594 509.335938 524.234375 501.597656 526.136719 Z M 501.597656 526.136719 " fill-opacity="1" fill-rule="nonzero"/><path fill="#969297" d="M 512.269531 314.667969 C 504.355469 314.917969 498.09375 321.265625 497.804688 329.058594 C 508.359375 331.222656 518.296875 335.050781 527.367188 340.226562 L 527.691406 330.089844 C 527.699219 329.792969 527.699219 329.449219 527.691406 329.148438 C 527.429688 320.886719 520.527344 314.40625 512.269531 314.667969 Z M 512.269531 314.667969 " fill-opacity="1" fill-rule="nonzero"/><path fill="#969297" d="M 507.644531 468.0625 C 515.535156 468.3125 522.140625 462.109375 522.390625 454.21875 L 525.546875 354.019531 C 515.089844 347.203125 503.109375 342.535156 490.214844 340.65625 L 493.796875 454.214844 C 494.046875 461.683594 500.066406 467.824219 507.644531 468.0625 Z M 507.644531 468.0625 " fill-opacity="1" fill-rule="nonzero"/><path fill="#969297" d="M 509.214844 490.59375 C 501.320312 489.980469 494.417969 495.875 493.796875 503.773438 L 492.925781 514.957031 C 503.527344 513.074219 513.480469 509.316406 522.40625 504.011719 L 522.390625 503.777344 C 521.851562 496.851562 516.351562 491.15625 509.214844 490.59375 Z M 509.214844 490.59375 " fill-opacity="1" fill-rule="nonzero"/><path fill="#969297" d="M 436.210938 349.757812 C 428.417969 353.867188 421.320312 359.089844 415.121094 365.234375 L 391.847656 405.558594 C 389.960938 412.738281 388.957031 420.265625 388.957031 428.03125 C 388.957031 429.1875 389.003906 430.324219 389.039062 431.460938 Z M 436.210938 349.757812 " fill-opacity="1" fill-rule="nonzero"/><path fill="#969297" d="M 369.511719 554.375 C 361.648438 554.375 354.320312 550.144531 350.390625 543.339844 C 346.457031 536.535156 346.457031 528.070312 350.390625 521.261719 L 383.167969 464.488281 C 381.664062 460.597656 380.382812 456.597656 379.359375 452.492188 L 342.339844 516.613281 C 336.757812 526.292969 336.757812 538.3125 342.339844 547.988281 C 347.925781 557.660156 358.339844 563.675781 369.511719 563.675781 L 578.539062 563.675781 L 569.242188 554.378906 L 369.511719 554.378906 Z M 369.511719 554.375 " fill-opacity="1" fill-rule="nonzero"/><g clip-path="url(#fd208527c7)"><path fill="#969297" d="M 682.273438 515.207031 L 539.886719 268.578125 C 534.296875 258.902344 523.886719 252.886719 512.71875 252.886719 C 501.535156 252.886719 491.132812 258.898438 485.542969 268.578125 L 449.554688 330.910156 C 453.566406 329.761719 457.664062 328.832031 461.863281 328.1875 L 493.59375 273.222656 C 497.527344 266.414062 504.851562 262.183594 512.71875 262.183594 C 520.574219 262.183594 527.902344 266.417969 531.835938 273.222656 L 674.292969 519.964844 L 674.429688 520.195312 C 676.796875 523.789062 678.046875 527.972656 678.046875 532.300781 C 678.046875 544.472656 668.144531 554.375 655.96875 554.375 L 638.261719 554.375 L 647.558594 563.671875 L 655.96875 563.671875 C 673.265625 563.671875 687.339844 549.597656 687.339844 532.300781 C 687.339844 526.203125 685.585938 520.292969 682.273438 515.207031 Z M 682.273438 515.207031 " fill-opacity="1" fill-rule="nonzero"/></g></svg>