<svg xmlns="http://www.w3.org/2000/svg" xmlns:xlink="http://www.w3.org/1999/xlink" width="1366" zoomAndPan="magnify" viewBox="0 0 1024.5 756.749982" height="1009" preserveAspectRatio="xMidYMid meet" version="1.0"><defs><clipPath id="702d3338d5"><path d="M 415.0625 281.3125 L 608 281.3125 L 608 474 L 415.0625 474 Z M 415.0625 281.3125 " clip-rule="nonzero"/></clipPath></defs><g clip-path="url(#702d3338d5)"><path fill="#969297" d="M 522.632812 414.21875 C 512 420.539062 499.578125 424.171875 486.320312 424.171875 C 446.992188 424.171875 415.0625 392.242188 415.0625 352.914062 C 415.0625 313.589844 446.992188 281.660156 486.320312 281.660156 C 525.644531 281.660156 557.570312 313.589844 557.570312 352.914062 C 557.570312 353.636719 557.5625 354.351562 557.539062 355.066406 L 564.960938 357.539062 C 567.027344 354.839844 570.261719 353.078125 573.90625 353.015625 L 586.214844 316.09375 C 583.511719 313.984375 581.769531 310.695312 581.769531 307.003906 C 581.769531 300.640625 586.933594 295.476562 593.296875 295.476562 C 599.65625 295.476562 604.820312 300.640625 604.820312 307.003906 C 604.820312 313.292969 599.769531 318.414062 593.503906 318.527344 L 581.199219 355.449219 C 583.902344 357.558594 585.640625 360.847656 585.640625 364.539062 C 585.640625 370.898438 580.476562 376.066406 574.113281 376.066406 C 567.855469 376.066406 562.757812 371.070312 562.59375 364.851562 L 556.871094 362.941406 C 555.582031 372.082031 552.554688 380.667969 548.136719 388.355469 L 602.148438 442.363281 C 608.835938 449.050781 608.835938 459.894531 602.148438 466.578125 C 601.65625 467.066406 601.164062 467.5625 600.675781 468.050781 C 593.988281 474.738281 583.148438 474.738281 576.460938 468.050781 Z M 543.851562 394.9375 C 539.707031 400.601562 534.742188 405.632812 529.136719 409.859375 L 581.894531 462.617188 C 585.582031 466.300781 591.558594 466.300781 595.242188 462.617188 C 595.730469 462.128906 596.222656 461.632812 596.714844 461.144531 C 600.398438 457.460938 600.398438 451.484375 596.714844 447.796875 Z M 549.886719 352.515625 C 549.671875 317.613281 521.269531 289.34375 486.320312 289.34375 C 451.234375 289.34375 422.746094 317.832031 422.746094 352.914062 C 422.746094 388 451.234375 416.488281 486.320312 416.488281 C 518.847656 416.488281 545.707031 391.996094 549.441406 360.464844 L 517.539062 349.832031 C 515.429688 352.558594 512.128906 354.3125 508.417969 354.3125 C 507.609375 354.3125 506.820312 354.230469 506.058594 354.066406 L 491.398438 379.78125 C 493.15625 381.808594 494.222656 384.449219 494.222656 387.339844 C 494.222656 393.699219 489.058594 398.863281 482.695312 398.863281 C 476.335938 398.863281 471.171875 393.699219 471.171875 387.339844 C 471.171875 385.566406 471.570312 383.886719 472.285156 382.390625 L 449.199219 359.300781 C 447.699219 360.015625 446.019531 360.417969 444.246094 360.417969 C 437.886719 360.417969 432.722656 355.253906 432.722656 348.890625 C 432.722656 342.53125 437.886719 337.367188 444.246094 337.367188 C 450.609375 337.367188 455.773438 342.53125 455.773438 348.890625 C 455.773438 350.675781 455.367188 352.367188 454.640625 353.878906 L 477.710938 376.945312 C 479.21875 376.21875 480.910156 375.8125 482.695312 375.8125 C 483.382812 375.8125 484.058594 375.875 484.714844 375.988281 L 499.492188 350.070312 C 497.867188 348.085938 496.894531 345.550781 496.894531 342.785156 C 496.894531 336.425781 502.058594 331.257812 508.417969 331.257812 C 514.695312 331.257812 519.808594 336.289062 519.941406 342.535156 Z M 482.695312 383.496094 C 480.574219 383.496094 478.855469 385.21875 478.855469 387.339844 C 478.855469 389.457031 480.574219 391.179688 482.695312 391.179688 C 484.816406 391.179688 486.539062 389.457031 486.539062 387.339844 C 486.539062 386.144531 485.992188 385.078125 485.136719 384.371094 C 484.570312 383.902344 483.863281 383.59375 483.089844 383.515625 Z M 574.113281 360.699219 C 571.996094 360.699219 570.269531 362.417969 570.269531 364.539062 C 570.269531 366.261719 571.410156 367.722656 572.972656 368.207031 C 573.332031 368.320312 573.71875 368.382812 574.113281 368.382812 L 574.507812 368.363281 C 576.445312 368.164062 577.957031 366.527344 577.957031 364.539062 C 577.957031 363.296875 577.367188 362.1875 576.445312 361.492188 C 575.898438 361.066406 575.234375 360.792969 574.507812 360.71875 Z M 444.246094 345.050781 C 442.128906 345.050781 440.40625 346.773438 440.40625 348.890625 C 440.40625 351.011719 442.128906 352.734375 444.246094 352.734375 L 444.640625 352.714844 C 446.578125 352.519531 448.089844 350.882812 448.089844 348.890625 C 448.089844 346.902344 446.578125 345.265625 444.640625 345.070312 Z M 508.417969 338.941406 C 506.296875 338.941406 504.578125 340.664062 504.578125 342.785156 C 504.578125 344.242188 505.390625 345.511719 506.589844 346.164062 L 506.925781 346.324219 C 507.386719 346.519531 507.886719 346.628906 508.417969 346.628906 L 508.8125 346.609375 C 509.199219 346.570312 509.570312 346.46875 509.914062 346.324219 C 511.292969 345.742188 512.261719 344.378906 512.261719 342.785156 C 512.261719 340.796875 510.75 339.160156 508.8125 338.964844 Z M 593.296875 303.160156 C 591.175781 303.160156 589.453125 304.882812 589.453125 307.003906 C 589.453125 309.121094 591.175781 310.84375 593.296875 310.84375 L 593.6875 310.824219 C 595.625 310.625 597.136719 308.988281 597.136719 307.003906 C 597.136719 305.015625 595.625 303.378906 593.6875 303.179688 Z M 593.296875 303.160156 " fill-opacity="1" fill-rule="evenodd"/></g></svg>