<svg xmlns="http://www.w3.org/2000/svg" xmlns:xlink="http://www.w3.org/1999/xlink" width="1366" zoomAndPan="magnify" viewBox="0 0 1024.5 756.749982" height="1009" preserveAspectRatio="xMidYMid meet" version="1.0"><defs><clipPath id="9cfbbc405b"><path d="M 392.078125 270 L 576 270 L 576 391 L 392.078125 391 Z M 392.078125 270 " clip-rule="nonzero"/></clipPath><clipPath id="e87fe1a947"><path d="M 400 330 L 615 330 L 615 493.863281 L 400 493.863281 Z M 400 330 " clip-rule="nonzero"/></clipPath></defs><path fill="#969297" d="M 626.148438 266.871094 C 621.242188 262.972656 614.105469 263.785156 610.203125 268.691406 L 494.449219 414.269531 L 450.894531 370.714844 C 446.464844 366.285156 439.277344 366.285156 434.847656 370.714844 C 430.417969 375.140625 430.417969 382.332031 434.847656 386.757812 L 496.386719 448.300781 L 627.964844 282.816406 C 631.863281 277.910156 631.046875 270.773438 626.148438 266.871094 Z M 626.148438 266.871094 " fill-opacity="1" fill-rule="nonzero"/><g clip-path="url(#9cfbbc405b)"><path fill="#969297" d="M 408.664062 382.210938 C 408.664062 369.410156 411.167969 357.003906 416.105469 345.320312 C 418.484375 339.703125 421.417969 334.292969 424.84375 329.222656 C 428.234375 324.203125 432.132812 319.484375 436.421875 315.1875 C 440.710938 310.898438 445.429688 307.003906 450.453125 303.609375 C 455.519531 300.183594 460.9375 297.25 466.554688 294.875 C 478.230469 289.933594 490.644531 287.429688 503.445312 287.429688 C 516.246094 287.429688 528.652344 289.933594 540.335938 294.875 C 545.953125 297.25 551.363281 300.183594 556.433594 303.609375 C 559.402344 305.613281 562.257812 307.792969 564.984375 310.121094 L 575.28125 297.171875 C 572.214844 294.574219 569.007812 292.144531 565.6875 289.90625 C 559.742188 285.882812 553.375 282.433594 546.777344 279.644531 C 533.046875 273.835938 518.46875 270.894531 503.445312 270.894531 C 488.421875 270.894531 473.835938 273.847656 460.109375 279.652344 C 453.507812 282.4375 447.148438 285.898438 441.195312 289.914062 C 435.300781 293.898438 429.761719 298.464844 424.722656 303.503906 C 419.683594 308.542969 415.117188 314.078125 411.132812 319.972656 C 407.125 325.921875 403.664062 332.289062 400.878906 338.878906 C 395.070312 352.609375 392.128906 367.1875 392.128906 382.210938 C 392.128906 386.777344 395.832031 390.476562 400.394531 390.476562 C 404.953125 390.476562 408.664062 386.777344 408.664062 382.210938 Z M 408.664062 382.210938 " fill-opacity="1" fill-rule="nonzero"/></g><g clip-path="url(#e87fe1a947)"><path fill="#969297" d="M 601.855469 330.171875 L 590.429688 344.535156 C 590.542969 344.796875 590.65625 345.0625 590.769531 345.320312 C 595.710938 356.996094 598.210938 369.410156 598.210938 382.210938 C 598.210938 395.011719 595.710938 407.417969 590.769531 419.101562 C 588.394531 424.71875 585.457031 430.128906 582.035156 435.203125 C 578.640625 440.21875 574.742188 444.941406 570.457031 449.234375 C 566.167969 453.523438 561.445312 457.421875 556.421875 460.8125 C 551.355469 464.238281 545.9375 467.171875 540.324219 469.550781 C 528.644531 474.488281 516.230469 476.992188 503.429688 476.992188 C 495.789062 476.992188 488.195312 476.082031 480.851562 474.289062 C 473.722656 472.550781 466.785156 469.960938 460.246094 466.609375 C 453.8125 463.308594 447.753906 459.261719 442.214844 454.578125 C 441.027344 453.570312 439.859375 452.527344 438.71875 451.464844 L 451.636719 438.546875 C 453.058594 437.125 452.339844 434.703125 450.375 434.285156 L 403.199219 424.199219 C 401.410156 423.816406 399.816406 425.410156 400.199219 427.203125 L 410.265625 474.382812 C 410.683594 476.347656 413.113281 477.066406 414.527344 475.644531 L 427.027344 463.144531 C 428.496094 464.53125 429.996094 465.878906 431.535156 467.179688 C 438.027344 472.683594 445.152344 477.429688 452.707031 481.308594 C 460.398438 485.25 468.546875 488.289062 476.9375 490.34375 C 485.566406 492.453125 494.484375 493.523438 503.445312 493.523438 C 518.46875 493.523438 533.046875 490.582031 546.777344 484.773438 C 553.375 481.984375 559.734375 478.523438 565.6875 474.507812 C 571.585938 470.527344 577.121094 465.957031 582.160156 460.917969 C 587.191406 455.886719 591.765625 450.34375 595.75 444.449219 C 599.773438 438.5 603.222656 432.132812 606.011719 425.535156 C 611.820312 411.804688 614.761719 397.226562 614.761719 382.203125 C 614.761719 367.179688 611.820312 352.601562 606.011719 338.875 C 604.746094 335.925781 603.363281 333.019531 601.855469 330.171875 Z M 601.855469 330.171875 " fill-opacity="1" fill-rule="nonzero"/></g></svg>