<svg xmlns="http://www.w3.org/2000/svg" xmlns:xlink="http://www.w3.org/1999/xlink" width="1366" zoomAndPan="magnify" viewBox="0 0 1024.5 756.749982" height="1009" preserveAspectRatio="xMidYMid meet" version="1.0"><defs><clipPath id="f3b79cb074"><path d="M 445.011719 287.722656 L 579 287.722656 L 579 469 L 445.011719 469 Z M 445.011719 287.722656 " clip-rule="nonzero"/></clipPath></defs><g clip-path="url(#f3b79cb074)"><path fill="#000000" d="M 570.976562 468.347656 C 569.898438 468.34375 568.863281 468.128906 567.875 467.699219 C 566.886719 467.269531 566.023438 466.660156 565.285156 465.875 L 512.101562 409.449219 L 458.917969 465.875 C 458.378906 466.445312 457.769531 466.921875 457.085938 467.304688 C 456.402344 467.691406 455.679688 467.96875 454.914062 468.136719 C 454.148438 468.304688 453.375 468.355469 452.59375 468.292969 C 451.8125 468.230469 451.058594 468.054688 450.332031 467.765625 C 449.601562 467.476562 448.933594 467.085938 448.320312 466.597656 C 447.707031 466.105469 447.183594 465.535156 446.742188 464.890625 C 446.300781 464.242188 445.964844 463.542969 445.730469 462.792969 C 445.5 462.046875 445.378906 461.28125 445.378906 460.496094 L 445.378906 295.574219 C 445.378906 295.058594 445.429688 294.550781 445.527344 294.042969 C 445.628906 293.539062 445.777344 293.046875 445.976562 292.570312 C 446.171875 292.09375 446.414062 291.640625 446.699219 291.214844 C 446.988281 290.785156 447.3125 290.386719 447.675781 290.023438 C 448.042969 289.660156 448.4375 289.332031 448.867188 289.046875 C 449.296875 288.761719 449.746094 288.519531 450.222656 288.320312 C 450.699219 288.125 451.191406 287.972656 451.695312 287.875 C 452.203125 287.773438 452.710938 287.722656 453.226562 287.722656 L 570.976562 287.722656 C 571.492188 287.722656 572.003906 287.773438 572.507812 287.875 C 573.011719 287.972656 573.503906 288.125 573.980469 288.320312 C 574.457031 288.519531 574.910156 288.761719 575.335938 289.046875 C 575.765625 289.332031 576.164062 289.660156 576.527344 290.023438 C 576.890625 290.386719 577.21875 290.785156 577.503906 291.214844 C 577.789062 291.640625 578.03125 292.09375 578.230469 292.570312 C 578.425781 293.046875 578.574219 293.539062 578.675781 294.042969 C 578.777344 294.550781 578.828125 295.058594 578.828125 295.574219 L 578.828125 460.496094 C 578.828125 461.011719 578.777344 461.523438 578.675781 462.027344 C 578.574219 462.535156 578.425781 463.023438 578.230469 463.5 C 578.03125 463.976562 577.789062 464.429688 577.503906 464.859375 C 577.21875 465.289062 576.890625 465.683594 576.527344 466.046875 C 576.164062 466.414062 575.765625 466.738281 575.335938 467.023438 C 574.910156 467.3125 574.457031 467.554688 573.980469 467.75 C 573.503906 467.949219 573.011719 468.097656 572.507812 468.199219 C 572.003906 468.296875 571.492188 468.347656 570.976562 468.347656 Z M 512.101562 390.328125 C 513.179688 390.328125 514.214844 390.546875 515.203125 390.976562 C 516.191406 391.40625 517.054688 392.015625 517.792969 392.800781 L 563.125 440.863281 L 563.125 303.429688 L 461.078125 303.429688 L 461.078125 440.863281 L 506.410156 392.761719 C 507.152344 391.980469 508.019531 391.382812 509.007812 390.957031 C 509.996094 390.535156 511.027344 390.324219 512.101562 390.328125 Z M 512.101562 390.328125 " fill-opacity="1" fill-rule="nonzero"/></g></svg>