<svg xmlns="http://www.w3.org/2000/svg" xmlns:xlink="http://www.w3.org/1999/xlink" width="1366" zoomAndPan="magnify" viewBox="0 0 1024.5 417.74999" height="557" preserveAspectRatio="xMidYMid meet" version="1.0"><defs><clipPath id="200d461e10"><path d="M 489 261 L 535 261 L 535 285.925781 L 489 285.925781 Z M 489 261 " clip-rule="nonzero"/></clipPath><clipPath id="d1e8321b9d"><path d="M 450.339844 152 L 574 152 L 574 266 L 450.339844 266 Z M 450.339844 152 " clip-rule="nonzero"/></clipPath><clipPath id="188ecf80de"><path d="M 499 131.519531 L 525 131.519531 L 525 157 L 499 157 Z M 499 131.519531 " clip-rule="nonzero"/></clipPath></defs><g clip-path="url(#200d461e10)"><path fill="#000000" d="M 512 285.980469 C 499.464844 285.980469 489.265625 275.78125 489.265625 263.242188 C 489.265625 262.132812 490.164062 261.230469 491.277344 261.230469 L 532.722656 261.230469 C 533.835938 261.230469 534.738281 262.132812 534.738281 263.242188 C 534.738281 275.78125 524.539062 285.980469 512 285.980469 Z M 493.394531 265.253906 C 494.402344 274.628906 502.363281 281.953125 512 281.953125 C 521.636719 281.953125 529.597656 274.628906 530.605469 265.253906 Z M 493.394531 265.253906 " fill-opacity="1" fill-rule="nonzero"/></g><g clip-path="url(#d1e8321b9d)"><path fill="#000000" d="M 571.636719 265.253906 L 452.363281 265.253906 C 451.253906 265.253906 450.351562 264.355469 450.351562 263.242188 L 450.351562 252.546875 C 450.351562 247.984375 452.542969 243.804688 456.210938 241.367188 C 460.15625 238.746094 464.863281 233.410156 464.863281 222.855469 C 464.863281 221.558594 464.84375 220.121094 464.820312 218.570312 C 464.613281 203.902344 464.269531 179.351562 478.800781 164.617188 C 486.609375 156.699219 497.777344 152.683594 512 152.683594 C 526.21875 152.683594 537.390625 156.699219 545.199219 164.617188 C 559.726562 179.351562 559.382812 203.902344 559.179688 218.570312 C 559.15625 220.121094 559.136719 221.558594 559.136719 222.855469 C 559.136719 233.410156 563.839844 238.746094 567.789062 241.367188 C 571.457031 243.804688 573.648438 247.984375 573.648438 252.546875 L 573.648438 263.242188 C 573.648438 264.351562 572.746094 265.253906 571.632812 265.253906 Z M 454.375 261.230469 L 569.621094 261.230469 L 569.621094 252.546875 C 569.621094 249.335938 568.105469 246.410156 565.5625 244.722656 C 560.792969 241.558594 555.109375 235.195312 555.109375 222.855469 C 555.109375 221.542969 555.128906 220.085938 555.152344 218.515625 C 555.347656 204.476562 555.679688 180.980469 542.332031 167.445312 C 535.304688 160.320312 525.101562 156.710938 511.996094 156.710938 C 498.894531 156.710938 488.6875 160.320312 481.664062 167.445312 C 468.316406 180.980469 468.644531 204.476562 468.84375 218.515625 C 468.863281 220.085938 468.882812 221.542969 468.882812 222.855469 C 468.882812 235.195312 463.203125 241.558594 458.433594 244.722656 C 455.890625 246.410156 454.375 249.335938 454.375 252.546875 Z M 454.375 261.230469 " fill-opacity="1" fill-rule="nonzero"/></g><g clip-path="url(#188ecf80de)"><path fill="#000000" d="M 512 156.707031 C 505.054688 156.707031 499.40625 151.058594 499.40625 144.113281 C 499.40625 137.167969 505.054688 131.519531 512 131.519531 C 518.945312 131.519531 524.59375 137.167969 524.59375 144.113281 C 524.59375 151.058594 518.945312 156.710938 512 156.710938 Z M 512 135.542969 C 507.273438 135.542969 503.429688 139.390625 503.429688 144.113281 C 503.429688 148.839844 507.273438 152.683594 512 152.683594 C 516.726562 152.683594 520.570312 148.839844 520.570312 144.113281 C 520.570312 139.390625 516.726562 135.542969 512 135.542969 Z M 512 135.542969 " fill-opacity="1" fill-rule="nonzero"/></g><path fill="#000000" d="M 478.046875 245.058594 L 457.324219 245.058594 C 456.210938 245.058594 455.308594 244.15625 455.308594 243.046875 C 455.308594 241.933594 456.210938 241.03125 457.324219 241.03125 L 478.046875 241.03125 C 479.15625 241.03125 480.058594 241.933594 480.058594 243.046875 C 480.058594 244.15625 479.160156 245.058594 478.046875 245.058594 Z M 478.046875 245.058594 " fill-opacity="1" fill-rule="nonzero"/><path fill="#000000" d="M 566.675781 245.058594 L 529.773438 245.058594 C 528.664062 245.058594 527.761719 244.15625 527.761719 243.046875 C 527.761719 241.933594 528.660156 241.03125 529.773438 241.03125 L 566.675781 241.03125 C 567.789062 241.03125 568.6875 241.933594 568.6875 243.046875 C 568.6875 244.15625 567.789062 245.058594 566.675781 245.058594 Z M 566.675781 245.058594 " fill-opacity="1" fill-rule="nonzero"/></svg>